<svg width="25" height="25" viewBox="0 0 25 25" fill="none" xmlns="http://www.w3.org/2000/svg">
<path d="M13.7084 6.45866H11.2917V11.292H6.45842V13.7087H11.2917V18.542H13.7084V13.7087H18.5417V11.292H13.7084V6.45866ZM12.5001 0.416992C5.83008 0.416992 0.416748 5.83033 0.416748 12.5003C0.416748 19.1703 5.83008 24.5837 12.5001 24.5837C19.1701 24.5837 24.5834 19.1703 24.5834 12.5003C24.5834 5.83033 19.1701 0.416992 12.5001 0.416992ZM12.5001 22.167C7.17133 22.167 2.83341 17.8291 2.83341 12.5003C2.83341 7.17158 7.17133 2.83366 12.5001 2.83366C17.8288 2.83366 22.1667 7.17158 22.1667 12.5003C22.1667 17.8291 17.8288 22.167 12.5001 22.167Z" fill="#1B1B25"/>
</svg>
