<svg width="38" height="31" viewBox="0 0 38 31" fill="none" xmlns="http://www.w3.org/2000/svg">
<path d="M21.5312 15.2801L10.875 10.798V20.7826C10.8806 21.199 11.0052 21.6051 11.2341 21.9529C11.4629 22.3008 11.7865 22.576 12.1667 22.7459L21.4537 27.1247H21.5312V15.2801ZM22.5 13.5622L33.4921 8.95094C33.3071 8.74541 33.0832 8.57859 32.8333 8.46011L23.5333 4.10719C23.2103 3.9543 22.8574 3.875 22.5 3.875C22.1426 3.875 21.7897 3.9543 21.4667 4.10719L12.1667 8.46011C11.9168 8.57859 11.6929 8.74541 11.5079 8.95094L22.5 13.5622ZM23.4688 15.2801V27.1247H23.5333L32.8333 22.7459C33.2115 22.5769 33.5338 22.3037 33.7625 21.9584C33.9912 21.613 34.1169 21.2097 34.125 20.7955V10.798L23.4688 15.2801Z" fill="#1B1B25"/>
<path d="M3.64645 25.3536C3.84171 25.5488 4.15829 25.5488 4.35355 25.3536L7.53553 22.1716C7.7308 21.9763 7.7308 21.6597 7.53553 21.4645C7.34027 21.2692 7.02369 21.2692 6.82843 21.4645L4 24.2929L1.17157 21.4645C0.976311 21.2692 0.659728 21.2692 0.464466 21.4645C0.269204 21.6597 0.269204 21.9763 0.464466 22.1716L3.64645 25.3536ZM4.35355 6.64645C4.15829 6.45119 3.84171 6.45119 3.64645 6.64645L0.464467 9.82843C0.269205 10.0237 0.269205 10.3403 0.464467 10.5355C0.659729 10.7308 0.976311 10.7308 1.17157 10.5355L4 7.70711L6.82843 10.5355C7.02369 10.7308 7.34027 10.7308 7.53553 10.5355C7.7308 10.3403 7.7308 10.0237 7.53553 9.82843L4.35355 6.64645ZM4.5 25L4.5 7L3.5 7L3.5 25L4.5 25Z" fill="#115B86"/>
</svg>
