<svg width="35" height="40" viewBox="0 0 35 40" fill="none" xmlns="http://www.w3.org/2000/svg">
<path d="M14.5312 15.2801L3.875 10.798V20.7826C3.88062 21.199 4.00521 21.6051 4.23407 21.9529C4.46294 22.3008 4.78653 22.576 5.16667 22.7459L14.4537 27.1247H14.5312V15.2801ZM15.5 13.5622L26.4921 8.95094C26.3071 8.74541 26.0832 8.57859 25.8333 8.46011L16.5333 4.10719C16.2103 3.9543 15.8574 3.875 15.5 3.875C15.1426 3.875 14.7897 3.9543 14.4667 4.10719L5.16667 8.46011C4.91681 8.57859 4.69291 8.74541 4.50792 8.95094L15.5 13.5622ZM16.4688 15.2801V27.1247H16.5333L25.8333 22.7459C26.2115 22.5769 26.5338 22.3037 26.7625 21.9584C26.9912 21.613 27.1169 21.2097 27.125 20.7955V10.798L16.4688 15.2801Z" fill="#1B1B25"/>
<path d="M15.9134 35.3899C15.831 35.6535 15.9779 35.9339 16.2415 36.0163L20.5366 37.3587C20.8001 37.4411 21.0806 37.2942 21.163 37.0306C21.2453 36.767 21.0985 36.4866 20.8349 36.4042L17.017 35.211L18.2103 31.3931C18.2926 31.1295 18.1457 30.8491 17.8822 30.7667C17.6186 30.6843 17.3382 30.8312 17.2558 31.0948L15.9134 35.3899ZM32.8131 27.3367C32.8955 27.0731 32.7486 26.7927 32.4851 26.7103L28.1899 25.3679C27.9264 25.2855 27.6459 25.4324 27.5636 25.696C27.4812 25.9595 27.6281 26.24 27.8916 26.3224L31.7095 27.5156L30.5163 31.3335C30.4339 31.597 30.5808 31.8775 30.8443 31.9599C31.1079 32.0422 31.3884 31.8954 31.4707 31.6318L32.8131 27.3367ZM16.6226 35.982L32.5679 27.6304L32.1039 26.7446L16.1586 35.0961L16.6226 35.982Z" fill="#115B86"/>
</svg>
