<svg width="39" height="28" viewBox="0 0 39 28" fill="none" xmlns="http://www.w3.org/2000/svg">
<rect x="0.5" y="24.5" width="38" height="3" rx="0.5" stroke="#1B1B25"/>
<path d="M13.5 13C13.5 9.41015 16.4101 6.5 20 6.5C23.5899 6.5 26.5 9.41015 26.5 13V20.5H13.5V13Z" fill="#1B1B25" stroke="#1B1B25"/>
<path d="M23 7V4C23 2.34315 21.6569 1 20 1V1C18.3431 1 17 2.34315 17 4V7" stroke="#1B1B25"/>
<path d="M22 7V5C22 3.89543 21.1046 3 20 3V3C18.8954 3 18 3.89543 18 5V7" stroke="#1B1B25"/>
<path d="M15.9845 17V11.288H16.8965V14.536L18.5445 12.864H19.6645L18.0805 14.384L19.8165 17H18.7045L17.4405 14.992L16.8965 15.52V17H15.9845ZM22.0573 16.28C22.4307 16.28 22.716 16.128 22.9133 15.824C23.084 15.5627 23.1693 15.2347 23.1693 14.84C23.1693 14.4507 23.084 14.1333 22.9133 13.888C22.716 13.6107 22.4307 13.472 22.0573 13.472C21.684 13.472 21.4013 13.6267 21.2093 13.936C21.0493 14.192 20.9693 14.5173 20.9693 14.912C20.9693 15.2853 21.0547 15.5973 21.2253 15.848C21.4227 16.136 21.7 16.28 22.0573 16.28ZM24.0813 12.864V16.784C24.0813 18.0213 23.404 18.64 22.0493 18.64C21.5693 18.64 21.1667 18.5467 20.8413 18.36C20.452 18.136 20.2387 17.8 20.2013 17.352H21.1133C21.1987 17.7573 21.5293 17.96 22.1053 17.96C22.8147 17.96 23.1693 17.608 23.1693 16.904V16.272H23.1533C22.8813 16.7573 22.468 17 21.9133 17C21.2893 17 20.8173 16.784 20.4973 16.352C20.204 15.9733 20.0573 15.464 20.0573 14.824C20.0573 14.2427 20.2227 13.7573 20.5533 13.368C20.9 12.9573 21.3587 12.752 21.9293 12.752C22.5213 12.752 22.9293 12.9787 23.1533 13.432H23.1693V12.864H24.0813Z" fill="white"/>
</svg>
