<svg width="15" height="15" viewBox="0 0 15 15" fill="none" xmlns="http://www.w3.org/2000/svg">
<path d="M1.88321 7.63555L0.800781 8.71797L4.58927 10.3416L6.21367 14.1309L7.29609 13.0484L6.75488 10.3416L9.291 7.80549L12.0545 13.7029L13.0795 12.6779L12.1685 4.92872L14.3334 2.76311C14.4796 2.62188 14.5962 2.45294 14.6765 2.26615C14.7567 2.07936 14.799 1.87846 14.8007 1.67517C14.8025 1.47189 14.7638 1.27028 14.6868 1.08213C14.6098 0.893973 14.4961 0.723033 14.3524 0.579282C14.2086 0.435531 14.0377 0.321849 13.8495 0.244869C13.6614 0.167888 13.4598 0.129151 13.2565 0.130917C13.0532 0.132684 12.8523 0.174919 12.6655 0.255157C12.4787 0.335396 12.3098 0.452032 12.1685 0.598259L9.94627 2.82052L2.19706 1.9088L1.2287 2.87793L7.08022 5.68734L4.59003 8.17753L1.88321 7.63555Z" fill="#1B1B25"/>
</svg>
