<svg width="15" height="15" viewBox="0 0 15 15" fill="none" xmlns="http://www.w3.org/2000/svg">
<path fill-rule="evenodd" clip-rule="evenodd" d="M7.34285 0.130859L7.08118 1.89721H5.51107H5.18397V2.22432V3.14021H3.87556V6.01871L4.59518 5.62619V3.92525H7.86621H11.1372V5.62619L11.8569 6.01871V3.14021H10.5485V2.22432V1.89721H10.2214H8.65125L8.38958 0.130859H7.86621H7.34285ZM9.89425 2.55142V3.14021H7.86621H5.83817V2.55142H7.86621H9.89425ZM5.43263 13.3978C5.17685 13.6874 4.79667 14.118 4.17669 14.0687C3.63453 14.0255 3.32939 13.6293 3.12551 13.3647C3.11495 13.3509 3.10467 13.3376 3.09465 13.3247C2.85659 13.0178 2.72667 12.8881 2.50777 12.8921C2.30825 12.8958 2.20321 13.021 1.97603 13.3465L1.96738 13.3589C1.77293 13.6377 1.47161 14.0698 0.866211 14.0698V13.4156C1.10223 13.4156 1.22532 13.2791 1.43958 12.9721C1.44927 12.9582 1.45926 12.9437 1.46958 12.9288C1.65241 12.6642 1.9397 12.2483 2.49568 12.238C3.0721 12.2274 3.38885 12.6362 3.59815 12.9064L3.61156 12.9237C3.85495 13.2375 3.9935 13.3979 4.22863 13.4166C4.49741 13.4379 4.6704 13.2712 4.97248 12.9305C4.9809 12.921 4.98947 12.9113 4.9982 12.9015C5.25494 12.6109 5.63745 12.1781 6.26269 12.2395C6.79389 12.2917 7.08652 12.6861 7.28042 12.9474C7.29047 12.9609 7.30026 12.9741 7.3098 12.9869C7.53705 13.291 7.65879 13.4156 7.86621 13.4156C8.07363 13.4156 8.19537 13.291 8.42263 12.9869C8.43217 12.9741 8.44195 12.9609 8.452 12.9474C8.64591 12.6861 8.93853 12.2917 9.46974 12.2395C10.095 12.1781 10.4775 12.6109 10.7342 12.9015L10.7489 12.918L10.7599 12.9305C11.062 13.2712 11.235 13.4379 11.5038 13.4166C11.7389 13.3979 11.8775 13.2375 12.1209 12.9237L12.1343 12.9064C12.3436 12.6362 12.6603 12.2274 13.2367 12.238C13.7927 12.2483 14.08 12.6642 14.2629 12.9288C14.2731 12.9437 14.2832 12.9582 14.2929 12.9721C14.5071 13.2791 14.6302 13.4156 14.8662 13.4156V14.0698C14.2608 14.0698 13.9595 13.6377 13.765 13.3589L13.7564 13.3465C13.5292 13.021 13.4242 12.8958 13.2247 12.8921C13.0058 12.8881 12.8758 13.0178 12.6378 13.3247C12.6281 13.3372 12.6182 13.35 12.6081 13.3632L12.607 13.3647H12.6069C12.403 13.6293 12.0979 14.0255 11.5557 14.0687C10.9358 14.118 10.5556 13.6874 10.2998 13.3978L10.2855 13.3815L10.2704 13.3645C9.96925 13.0248 9.79868 12.8646 9.53372 12.8906C9.30919 12.9127 9.17873 13.068 8.94665 13.3785L8.93308 13.3967C8.73438 13.663 8.43083 14.0698 7.86621 14.0698C7.30159 14.0698 6.99804 13.663 6.79935 13.3967L6.78578 13.3785C6.55369 13.068 6.42323 12.9127 6.19871 12.8906C5.93374 12.8646 5.76318 13.0248 5.46201 13.3645L5.44124 13.3879L5.43263 13.3978ZM1.7821 7.91591L7.86621 4.44862L13.9503 7.91591L12.8382 11.3832C12.0531 11.3832 11.5298 12.4299 11.5298 12.4299C11.5298 12.4299 10.7447 11.3832 9.69799 11.3832C8.65126 11.3832 7.86621 12.4299 7.86621 12.4299C7.86621 12.4299 7.08116 11.3832 6.03444 11.3832C4.98771 11.3832 4.20266 12.4299 4.20266 12.4299C4.20266 12.4299 3.6793 11.3832 2.89425 11.3832L1.7821 7.91591Z" fill="#1B1B25"/>
</svg>
