<svg width="36" height="39" viewBox="0 0 36 39" fill="none" xmlns="http://www.w3.org/2000/svg">
<path d="M19.5311 15.2801L8.87482 10.798V20.7826C8.88043 21.199 9.00502 21.6051 9.23389 21.9529C9.46275 22.3008 9.78635 22.576 10.1665 22.7459L19.4536 27.1247H19.5311V15.2801ZM20.4998 13.5622L31.4919 8.95094C31.3069 8.74541 31.083 8.57859 30.8331 8.46011L21.5331 4.10719C21.2101 3.9543 20.8572 3.875 20.4998 3.875C20.1424 3.875 19.7895 3.9543 19.4665 4.10719L10.1665 8.46011C9.91663 8.57859 9.69273 8.74541 9.50773 8.95094L20.4998 13.5622ZM21.4686 15.2801V27.1247H21.5331L30.8331 22.7459C31.2113 22.5769 31.5336 22.3037 31.7623 21.9584C31.991 21.613 32.1168 21.2097 32.1248 20.7955V10.798L21.4686 15.2801Z" fill="#1B1B25"/>
<path d="M19.4225 35.2024C19.5049 35.466 19.358 35.7464 19.0945 35.8288L14.7994 37.1712C14.5358 37.2536 14.2553 37.1067 14.173 36.8431C14.0906 36.5795 14.2375 36.2991 14.501 36.2167L18.3189 35.0235L17.1257 31.2056C17.0433 30.942 17.1902 30.6616 17.4538 30.5792C17.7173 30.4968 17.9978 30.6437 18.0802 30.9073L19.4225 35.2024ZM2.5228 27.1492C2.44043 26.8856 2.58732 26.6052 2.85088 26.5228L7.14599 25.1804C7.40956 25.098 7.69001 25.2449 7.77238 25.5085C7.85476 25.772 7.70787 26.0525 7.4443 26.1349L3.62643 27.3281L4.81967 31.146C4.90204 31.4095 4.75516 31.69 4.49159 31.7724C4.22802 31.8547 3.94758 31.7079 3.8652 31.4443L2.5228 27.1492ZM18.7133 35.7945L2.76805 27.4429L3.23203 26.5571L19.1773 34.9086L18.7133 35.7945Z" fill="#115B86"/>
</svg>
