<svg width="115" height="39" viewBox="0 0 115 39" fill="none" xmlns="http://www.w3.org/2000/svg">
<path d="M114.5 0.5H21.1963L0.734802 19.5L21.1963 38.5H114.5V0.5Z" stroke="#3B3B41"/>
<path d="M53.6091 14.368C54.0945 14.368 54.5378 14.4707 54.9391 14.676C55.3498 14.872 55.6718 15.152 55.9051 15.516C56.1478 15.88 56.2691 16.286 56.2691 16.734C56.2691 17.9193 55.7325 18.666 54.6591 18.974V19.03C55.8818 19.31 56.4931 20.1127 56.4931 21.438C56.4931 21.942 56.3671 22.39 56.1151 22.782C55.8725 23.1647 55.5365 23.4633 55.1071 23.678C54.6778 23.8927 54.2065 24 53.6931 24H47.1971V14.368H53.6091ZM50.2911 18.12H52.4191C52.6245 18.12 52.7925 18.05 52.9231 17.91C53.0631 17.7607 53.1331 17.5787 53.1331 17.364V17.224C53.1331 17.0187 53.0631 16.846 52.9231 16.706C52.7831 16.5567 52.6151 16.482 52.4191 16.482H50.2911V18.12ZM50.2911 21.76H52.6431C52.8485 21.76 53.0165 21.69 53.1471 21.55C53.2871 21.4007 53.3571 21.2187 53.3571 21.004V20.864C53.3571 20.6493 53.2871 20.472 53.1471 20.332C53.0165 20.1827 52.8485 20.108 52.6431 20.108H50.2911V21.76ZM61.5516 16.44C62.681 16.44 63.6003 16.6313 64.3096 17.014C65.019 17.3873 65.3736 17.9987 65.3736 18.848V21.732C65.3736 21.8907 65.411 22.0213 65.4856 22.124C65.5603 22.2267 65.6723 22.278 65.8216 22.278H66.3256V23.888C66.2976 23.9067 66.223 23.9393 66.1016 23.986C65.9896 24.0233 65.8263 24.0607 65.6116 24.098C65.397 24.1447 65.1496 24.168 64.8696 24.168C64.3283 24.168 63.8803 24.0887 63.5256 23.93C63.1803 23.762 62.9423 23.5333 62.8116 23.244C62.457 23.524 62.0603 23.748 61.6216 23.916C61.183 24.084 60.6696 24.168 60.0816 24.168C58.3456 24.168 57.4776 23.4773 57.4776 22.096C57.4776 21.3773 57.669 20.8313 58.0516 20.458C58.4436 20.0753 59.0036 19.814 59.7316 19.674C60.4596 19.534 61.4116 19.464 62.5876 19.464V19.1C62.5876 18.8107 62.485 18.5913 62.2796 18.442C62.0836 18.2927 61.827 18.218 61.5096 18.218C61.2203 18.218 60.9683 18.2693 60.7536 18.372C60.5483 18.4747 60.4456 18.638 60.4456 18.862V18.918H57.7016C57.6923 18.8713 57.6876 18.806 57.6876 18.722C57.6876 18.022 58.019 17.4667 58.6816 17.056C59.3536 16.6453 60.3103 16.44 61.5516 16.44ZM62.5876 20.78C61.7943 20.78 61.2063 20.8687 60.8236 21.046C60.4503 21.214 60.2636 21.4427 60.2636 21.732C60.2636 22.1987 60.581 22.432 61.2156 22.432C61.5796 22.432 61.897 22.334 62.1676 22.138C62.4476 21.942 62.5876 21.6993 62.5876 21.41V20.78ZM71.0575 16.44C72.2708 16.44 73.2508 16.7013 73.9975 17.224C74.7535 17.7373 75.1315 18.526 75.1315 19.59H72.4295C72.4295 18.75 71.9722 18.33 71.0575 18.33C70.1428 18.33 69.6855 18.8573 69.6855 19.912V20.71C69.6855 21.7553 70.1615 22.278 71.1135 22.278C72.0655 22.278 72.5415 21.8487 72.5415 20.99H75.1315C75.1315 22.0633 74.7535 22.8613 73.9975 23.384C73.2508 23.9067 72.2708 24.168 71.0575 24.168C69.7602 24.168 68.7428 23.8413 68.0055 23.188C67.2682 22.5347 66.8995 21.5733 66.8995 20.304C66.8995 19.0347 67.2682 18.0733 68.0055 17.42C68.7428 16.7667 69.7602 16.44 71.0575 16.44ZM81.493 16.608H84.741L82.011 19.59L84.811 24H81.647L80.093 21.466L79.127 22.404V24H76.341V13.836H79.127V19.436L81.493 16.608Z" fill="#3B3B41"/>
</svg>
