<svg width="22" height="22" viewBox="0 0 22 22" fill="none" xmlns="http://www.w3.org/2000/svg">
<path d="M11 1.375C5.68477 1.375 1.375 5.68477 1.375 11C1.375 16.3152 5.68477 20.625 11 20.625C16.3152 20.625 20.625 16.3152 20.625 11C20.625 5.68477 16.3152 1.375 11 1.375ZM15.1572 7.85684L10.6326 14.1303C10.5694 14.2185 10.486 14.2905 10.3894 14.3401C10.2928 14.3897 10.1858 14.4156 10.0772 14.4156C9.96866 14.4156 9.86165 14.3897 9.76506 14.3401C9.66848 14.2905 9.58511 14.2185 9.52188 14.1303L6.84277 10.4178C6.76113 10.3039 6.84277 10.1449 6.98242 10.1449H7.99004C8.20918 10.1449 8.41758 10.2502 8.54648 10.4307L10.0762 12.5533L13.4535 7.86973C13.5824 7.69141 13.7887 7.58398 14.01 7.58398H15.0176C15.1572 7.58398 15.2389 7.74297 15.1572 7.85684Z" fill="#115B86"/>
</svg>
