<svg width="22" height="22" viewBox="0 0 22 22" fill="none" xmlns="http://www.w3.org/2000/svg">
<path d="M14.7252 7.62305C14.7252 7.52852 14.6479 7.45117 14.5533 7.45117L13.1354 7.45762L10.9998 10.0035L8.86641 7.45977L7.44629 7.45332C7.35176 7.45332 7.27441 7.52852 7.27441 7.6252C7.27441 7.66602 7.28945 7.70469 7.31523 7.73691L10.1104 11.067L7.31523 14.3949C7.28927 14.4264 7.27487 14.4658 7.27441 14.5066C7.27441 14.6012 7.35176 14.6785 7.44629 14.6785L8.86641 14.6721L10.9998 12.1262L13.1332 14.6699L14.5512 14.6764C14.6457 14.6764 14.723 14.6012 14.723 14.5045C14.723 14.4637 14.708 14.425 14.6822 14.3928L11.8914 11.0648L14.6865 7.73477C14.7123 7.70469 14.7252 7.66387 14.7252 7.62305Z" fill="#1B1B25"/>
<path d="M11 1.39648C5.68477 1.39648 1.375 5.70625 1.375 11.0215C1.375 16.3367 5.68477 20.6465 11 20.6465C16.3152 20.6465 20.625 16.3367 20.625 11.0215C20.625 5.70625 16.3152 1.39648 11 1.39648ZM11 19.0137C6.58711 19.0137 3.00781 15.4344 3.00781 11.0215C3.00781 6.60859 6.58711 3.0293 11 3.0293C15.4129 3.0293 18.9922 6.60859 18.9922 11.0215C18.9922 15.4344 15.4129 19.0137 11 19.0137Z" fill="#1B1B25"/>
</svg>
