<svg width="39" height="40" viewBox="0 0 39 40" fill="none" xmlns="http://www.w3.org/2000/svg">
<g clip-path="url(#clip0)">
<rect y="0.53125" width="39" height="39" fill="#1B1B25"/>
<path d="M30.08 29.3463H8.92C8.41113 29.3463 8 29.7574 8 30.2663V31.3013C8 31.4277 8.1035 31.5312 8.23 31.5312H30.77C30.8965 31.5312 31 31.4277 31 31.3013V30.2663C31 29.7574 30.5889 29.3463 30.08 29.3463ZM12.1889 26.9312C12.2464 26.9312 12.3039 26.9255 12.3614 26.9169L17.1971 26.0688C17.2546 26.0573 17.3093 26.0314 17.3495 25.9883L29.5366 13.8011C29.5633 13.7745 29.5844 13.7429 29.5989 13.7082C29.6133 13.6734 29.6207 13.6361 29.6207 13.5984C29.6207 13.5608 29.6133 13.5235 29.5989 13.4887C29.5844 13.4539 29.5633 13.4223 29.5366 13.3958L24.7584 8.61463C24.7038 8.56 24.6319 8.53125 24.5543 8.53125C24.4766 8.53125 24.4048 8.56 24.3501 8.61463L12.163 20.8018C12.1199 20.8449 12.094 20.8966 12.0825 20.9541L11.2344 25.7899C11.2064 25.9439 11.2164 26.1024 11.2635 26.2517C11.3106 26.401 11.3933 26.5365 11.5046 26.6466C11.6944 26.8306 11.933 26.9312 12.1889 26.9312Z" fill="white"/>
</g>
<defs>
<clipPath id="clip0">
<rect width="39" height="39" fill="white" transform="translate(0 0.53125)"/>
</clipPath>
</defs>
</svg>
