<svg width="40" height="40" viewBox="0 0 40 40" fill="none" xmlns="http://www.w3.org/2000/svg">
<path d="M20 2.5C10.3359 2.5 2.5 10.3359 2.5 20C2.5 29.6641 10.3359 37.5 20 37.5C29.6641 37.5 37.5 29.6641 37.5 20C37.5 10.3359 29.6641 2.5 20 2.5ZM20 34.5312C11.9766 34.5312 5.46875 28.0234 5.46875 20C5.46875 11.9766 11.9766 5.46875 20 5.46875C28.0234 5.46875 34.5312 11.9766 34.5312 20C34.5312 28.0234 28.0234 34.5312 20 34.5312Z" fill="#4F4F4F"/>
<path d="M18.125 26.875C18.125 27.3723 18.3225 27.8492 18.6742 28.2008C19.0258 28.5525 19.5027 28.75 20 28.75C20.4973 28.75 20.9742 28.5525 21.3258 28.2008C21.6775 27.8492 21.875 27.3723 21.875 26.875C21.875 26.3777 21.6775 25.9008 21.3258 25.5492C20.9742 25.1975 20.4973 25 20 25C19.5027 25 19.0258 25.1975 18.6742 25.5492C18.3225 25.9008 18.125 26.3777 18.125 26.875ZM19.0625 22.5H20.9375C21.1094 22.5 21.25 22.3594 21.25 22.1875V11.5625C21.25 11.3906 21.1094 11.25 20.9375 11.25H19.0625C18.8906 11.25 18.75 11.3906 18.75 11.5625V22.1875C18.75 22.3594 18.8906 22.5 19.0625 22.5Z" fill="#4F4F4F"/>
</svg>
