<svg width="41" height="42" viewBox="0 0 41 42" fill="none" xmlns="http://www.w3.org/2000/svg">
<rect width="41" height="42" fill="#1AB8E6"/>
<path fill-rule="evenodd" clip-rule="evenodd" d="M19.629 10.2924H20.3918H20.5008H21.2636V11.0467H22.0264V9.21484H22.2444V11.0467H24.4239V12.6631H22.2444V14.8183H20.5008H20.3918H18.6482V12.6631H16.4687V11.0467H18.6482V9.21484H18.8662V11.0467H19.629V10.2924ZM12.7636 15.4648H16.2508V18.9131H12.7636V15.4648ZM12.2188 23.6545V24.5166L20.3918 21.8226V21.0683L12.2188 23.6545ZM20.1739 22.5769V32.0597C20.1739 32.0597 19.4111 32.0597 18.6482 31.8442C17.8854 31.6286 17.2316 30.9821 17.2316 30.9821C17.2316 30.9821 16.2508 31.5694 15.488 31.5209C14.7252 31.4724 14.0713 30.9821 14.0713 30.9821L12.2188 25.2709L20.1739 22.5769ZM16.2508 19.5597H12.7636V22.9002L16.2508 21.8226V19.5597ZM16.9046 19.5597H20.1739V20.5295L16.9046 21.6071V19.5597ZM20.1739 15.4648H16.9046V18.9131H20.1739V15.4648ZM20.7187 22.5769V32.0597C20.7187 32.0597 21.4816 32.0597 22.2444 31.8442C23.0072 31.6286 23.6611 30.9821 23.6611 30.9821C23.6611 30.9821 24.6418 31.5694 25.4046 31.5209C26.1675 31.4724 26.8213 30.9821 26.8213 30.9821L28.6739 25.2709L20.7187 22.5769ZM28.6739 24.5166V23.6545L20.5008 21.0683V21.8226L28.6739 24.5166ZM24.6418 15.4648H28.129V18.9131H24.6418V15.4648ZM28.129 19.5597H24.6418V21.8226L28.129 22.9002V19.5597ZM20.7187 19.5597H23.988V21.6071L20.7187 20.5295V19.5597ZM23.988 15.4648H20.7187V18.9131H23.988V15.4648ZM15.7059 32.4907C14.5072 32.4513 13.9623 31.6286 13.9623 31.6286C13.9623 31.6286 14.3522 32.4661 15.7059 32.5985C16.3123 32.6577 17.1226 32.4907 17.1226 32.4907C17.1226 32.4907 17.504 33.245 18.6482 33.5683C19.4111 33.7838 19.9559 33.7838 20.3918 33.7838V33.3528C20.3918 33.3528 19.4111 33.3528 18.6482 33.1373C17.8854 32.9217 17.2316 32.1674 17.2316 32.1674C17.2316 32.1674 16.3252 32.511 15.7059 32.4907ZM27.0393 31.6286C27.0393 31.6286 26.4944 32.4513 25.2957 32.4907C24.6764 32.511 23.77 32.1674 23.77 32.1674C23.77 32.1674 23.1162 32.9217 22.3534 33.1373C21.5905 33.3528 20.6098 33.3528 20.6098 33.3528V33.7838C21.0457 33.7838 21.5905 33.7838 22.3534 33.5683C23.4976 33.245 23.879 32.4907 23.879 32.4907C23.879 32.4907 24.6893 32.6577 25.2957 32.5985C26.6494 32.4661 27.0393 31.6286 27.0393 31.6286Z" fill="white"/>
<path d="M19.6287 10.2928V10.185H19.5197V10.2928H19.6287ZM21.2633 10.2928H21.3723V10.185H21.2633V10.2928ZM21.2633 11.0471H21.1543V11.1548H21.2633V11.0471ZM22.0261 11.0471V11.1548H22.1351V11.0471H22.0261ZM22.0261 9.21518V9.10742H21.9172V9.21518H22.0261ZM22.2441 9.21518H22.3531V9.10742H22.2441V9.21518ZM22.2441 11.0471H22.1351V11.1548H22.2441V11.0471ZM24.4236 11.0471H24.5325V10.9393H24.4236V11.0471ZM24.4236 12.6635V12.7712H24.5325V12.6635H24.4236ZM22.2441 12.6635V12.5557H22.1351V12.6635H22.2441ZM22.2441 14.8186V14.9264H22.3531V14.8186H22.2441ZM18.6479 14.8186H18.539V14.9264H18.6479V14.8186ZM18.6479 12.6635H18.7569V12.5557H18.6479V12.6635ZM16.4684 12.6635H16.3595V12.7712H16.4684V12.6635ZM16.4684 11.0471V10.9393H16.3595V11.0471H16.4684ZM18.6479 11.0471V11.1548H18.7569V11.0471H18.6479ZM18.6479 9.21518V9.10742H18.539V9.21518H18.6479ZM18.8659 9.21518H18.9748V9.10742H18.8659V9.21518ZM18.8659 11.0471H18.7569V11.1548H18.8659V11.0471ZM19.6287 11.0471V11.1548H19.7377V11.0471H19.6287ZM16.2505 15.4652H16.3595V15.3574H16.2505V15.4652ZM12.7633 15.4652V15.3574H12.6543V15.4652H12.7633ZM16.2505 18.9135V19.0212H16.3595V18.9135H16.2505ZM12.7633 18.9135H12.6543V19.0212H12.7633V18.9135ZM12.2184 24.5169H12.1095V24.6664L12.2529 24.6191L12.2184 24.5169ZM12.2184 23.6548L12.1852 23.5522L12.1095 23.5762V23.6548H12.2184ZM20.3915 21.8229L20.426 21.9252L20.5005 21.9006V21.8229H20.3915ZM20.3915 21.0686H20.5005V20.921L20.3583 20.966L20.3915 21.0686ZM20.1736 32.06V32.1678H20.2825V32.06H20.1736ZM20.1736 22.5772H20.2825V22.4265L20.1383 22.4753L20.1736 22.5772ZM17.2313 30.9824L17.3083 30.9061L17.2479 30.8464L17.1748 30.8902L17.2313 30.9824ZM14.071 30.9824L13.9672 31.0154L13.9777 31.0477L14.0052 31.0682L14.071 30.9824ZM12.2184 25.2712L12.1831 25.1693L12.082 25.2035L12.1147 25.3041L12.2184 25.2712ZM12.7633 19.56V19.4522H12.6543V19.56H12.7633ZM16.2505 19.56H16.3595V19.4522H16.2505V19.56ZM12.7633 22.9005H12.6543V23.0471L12.7958 23.0034L12.7633 22.9005ZM16.2505 21.8229L16.283 21.9258L16.3595 21.9022V21.8229H16.2505ZM20.1736 19.56H20.2825V19.4522H20.1736V19.56ZM16.9043 19.56V19.4522H16.7954V19.56H16.9043ZM20.1736 20.5298L20.208 20.6321L20.2825 20.6075V20.5298H20.1736ZM16.9043 21.6074H16.7954V21.7569L16.9388 21.7096L16.9043 21.6074ZM16.9043 15.4652V15.3574H16.7954V15.4652H16.9043ZM20.1736 15.4652H20.2825V15.3574H20.1736V15.4652ZM16.9043 18.9135H16.7954V19.0212H16.9043V18.9135ZM20.1736 18.9135V19.0212H20.2825V18.9135H20.1736ZM20.7184 32.06H20.6095V32.1678H20.7184V32.06ZM20.7184 22.5772L20.7537 22.4753L20.6095 22.4265V22.5772H20.7184ZM23.6607 30.9824L23.7172 30.8902L23.6441 30.8464L23.5837 30.9061L23.6607 30.9824ZM26.821 30.9824L26.8868 31.0682L26.9143 31.0477L26.9248 31.0154L26.821 30.9824ZM28.6736 25.2712L28.7773 25.3041L28.81 25.2035L28.7089 25.1693L28.6736 25.2712ZM28.6736 23.6548H28.7825V23.5762L28.7068 23.5522L28.6736 23.6548ZM28.6736 24.5169L28.6391 24.6191L28.7825 24.6664V24.5169H28.6736ZM20.5005 21.0686L20.5337 20.966L20.3915 20.921V21.0686H20.5005ZM20.5005 21.8229H20.3915V21.9006L20.466 21.9252L20.5005 21.8229ZM28.1287 15.4652H28.2377V15.3574H28.1287V15.4652ZM24.6415 15.4652V15.3574H24.5325V15.4652H24.6415ZM28.1287 18.9135V19.0212H28.2377V18.9135H28.1287ZM24.6415 18.9135H24.5325V19.0212H24.6415V18.9135ZM24.6415 19.56V19.4522H24.5325V19.56H24.6415ZM28.1287 19.56H28.2377V19.4522H28.1287V19.56ZM24.6415 21.8229H24.5325V21.9022L24.609 21.9258L24.6415 21.8229ZM28.1287 22.9005L28.0962 23.0034L28.2377 23.0471V22.9005H28.1287ZM23.9877 19.56H24.0966V19.4522H23.9877V19.56ZM20.7184 19.56V19.4522H20.6095V19.56H20.7184ZM23.9877 21.6074L23.9532 21.7096L24.0966 21.7569V21.6074H23.9877ZM20.7184 20.5298H20.6095V20.6075L20.684 20.6321L20.7184 20.5298ZM20.7184 15.4652V15.3574H20.6095V15.4652H20.7184ZM23.9877 15.4652H24.0966V15.3574H23.9877V15.4652ZM20.7184 18.9135H20.6095V19.0212H20.7184V18.9135ZM23.9877 18.9135V19.0212H24.0966V18.9135H23.9877ZM13.962 31.629L14.0532 31.5699L13.863 31.674L13.962 31.629ZM15.7056 32.491L15.702 32.5988L15.7056 32.491ZM15.7056 32.5988L15.6949 32.7061L15.7056 32.5988ZM17.1223 32.491L17.2198 32.4428L17.1822 32.3686L17.1001 32.3857L17.1223 32.491ZM20.3915 33.7841V33.8919H20.5005V33.7841H20.3915ZM20.3915 33.3531H20.5005V33.2453H20.3915V33.3531ZM17.2313 32.1678L17.314 32.0977L17.264 32.04L17.1922 32.0671L17.2313 32.1678ZM25.2954 32.491L25.299 32.5988L25.2954 32.491ZM27.039 31.629L27.1379 31.674L26.9478 31.5699L27.039 31.629ZM23.7697 32.1678L23.8087 32.0671L23.737 32.04L23.687 32.0977L23.7697 32.1678ZM20.6095 33.3531V33.2453H20.5005V33.3531H20.6095ZM20.6095 33.7841H20.5005V33.8919H20.6095V33.7841ZM23.8787 32.491L23.9009 32.3857L23.8188 32.3686L23.7812 32.4428L23.8787 32.491ZM25.2954 32.5988L25.3061 32.7061L25.2954 32.5988ZM20.3915 10.185H19.6287V10.4005H20.3915V10.185ZM20.5005 10.185H20.3915V10.4005H20.5005V10.185ZM21.2633 10.185H20.5005V10.4005H21.2633V10.185ZM21.3723 11.0471V10.2928H21.1543V11.0471H21.3723ZM22.0261 10.9393H21.2633V11.1548H22.0261V10.9393ZM21.9172 9.21518V11.0471H22.1351V9.21518H21.9172ZM22.2441 9.10742H22.0261V9.32294H22.2441V9.10742ZM22.3531 11.0471V9.21518H22.1351V11.0471H22.3531ZM24.4236 10.9393H22.2441V11.1548H24.4236V10.9393ZM24.5325 12.6635V11.0471H24.3146V12.6635H24.5325ZM22.2441 12.7712H24.4236V12.5557H22.2441V12.7712ZM22.3531 14.8186V12.6635H22.1351V14.8186H22.3531ZM20.5005 14.9264H22.2441V14.7109H20.5005V14.9264ZM20.3915 14.9264H20.5005V14.7109H20.3915V14.9264ZM18.6479 14.9264H20.3915V14.7109H18.6479V14.9264ZM18.539 12.6635V14.8186H18.7569V12.6635H18.539ZM16.4684 12.7712H18.6479V12.5557H16.4684V12.7712ZM16.3595 11.0471V12.6635H16.5774V11.0471H16.3595ZM18.6479 10.9393H16.4684V11.1548H18.6479V10.9393ZM18.539 9.21518V11.0471H18.7569V9.21518H18.539ZM18.8659 9.10742H18.6479V9.32294H18.8659V9.10742ZM18.9748 11.0471V9.21518H18.7569V11.0471H18.9748ZM19.6287 10.9393H18.8659V11.1548H19.6287V10.9393ZM19.5197 10.2928V11.0471H19.7377V10.2928H19.5197ZM16.2505 15.3574H12.7633V15.5729H16.2505V15.3574ZM16.3595 18.9135V15.4652H16.1415V18.9135H16.3595ZM12.7633 19.0212H16.2505V18.8057H12.7633V19.0212ZM12.6543 15.4652V18.9135H12.8723V15.4652H12.6543ZM12.3274 24.5169V23.6548H12.1095V24.5169H12.3274ZM20.3571 21.7207L12.184 24.4147L12.2529 24.6191L20.426 21.9252L20.3571 21.7207ZM20.2825 21.0686V21.8229H20.5005V21.0686H20.2825ZM12.2517 23.7575L20.4247 21.1713L20.3583 20.966L12.1852 23.5522L12.2517 23.7575ZM20.2825 32.06V22.5772H20.0646V32.06H20.2825ZM18.618 31.9482C19.008 32.0583 19.3964 32.113 19.6865 32.1404C19.8317 32.154 19.9529 32.1609 20.038 32.1643C20.0806 32.166 20.1141 32.1669 20.1372 32.1673C20.1488 32.1675 20.1577 32.1675 20.1638 32.1678C20.1669 32.1678 20.1692 32.1678 20.1709 32.1678C20.1717 32.1678 20.1723 32.1678 20.1728 32.1678C20.173 32.1678 20.1732 32.1678 20.1733 32.1678C20.1734 32.1678 20.1734 32.1678 20.1735 32.1678C20.1735 32.1678 20.1735 32.1678 20.1735 32.1678C20.1735 32.1678 20.1736 32.1678 20.1736 32.06C20.1736 31.9522 20.1736 31.9522 20.1736 31.9522C20.1736 31.9522 20.1736 31.9522 20.1735 31.9522C20.1735 31.9522 20.1734 31.9522 20.1733 31.9522C20.173 31.9522 20.1725 31.9522 20.1718 31.9522C20.1706 31.9522 20.1685 31.9522 20.1658 31.9522C20.1604 31.9522 20.1522 31.952 20.1414 31.9518C20.1198 31.9514 20.0878 31.9505 20.0469 31.949C19.9651 31.9456 19.8479 31.9391 19.7071 31.9257C19.425 31.8992 19.0507 31.8462 18.6779 31.7408L18.618 31.9482ZM17.2313 30.9824C17.1542 31.0587 17.1542 31.0587 17.1542 31.0587C17.1543 31.0587 17.1543 31.0587 17.1543 31.0587C17.1543 31.0587 17.1544 31.0587 17.1545 31.0589C17.1546 31.0589 17.1547 31.0591 17.1549 31.0594C17.1553 31.0598 17.1559 31.0602 17.1566 31.0611C17.158 31.0624 17.1601 31.0643 17.1628 31.0669C17.1681 31.0721 17.1759 31.0796 17.186 31.0889C17.2062 31.1079 17.2356 31.1348 17.2732 31.1675C17.3483 31.2333 17.4564 31.3229 17.5889 31.4195C17.8525 31.6115 18.2187 31.8352 18.618 31.9482L18.6779 31.7408C18.3143 31.6382 17.9722 31.4309 17.7182 31.2458C17.5919 31.1538 17.4888 31.0684 17.4175 31.0061C17.3819 30.9749 17.3543 30.9497 17.3357 30.9322C17.3264 30.9236 17.3194 30.9169 17.3148 30.9126C17.3125 30.9102 17.3108 30.9087 17.3097 30.9076C17.3092 30.907 17.3088 30.9068 17.3085 30.9063C17.3084 30.9063 17.3083 30.9063 17.3083 30.9061C17.3083 30.9061 17.3083 30.9061 17.3083 30.9061C17.3083 30.9061 17.3083 30.9061 17.2313 30.9824ZM15.4807 31.6288C15.8881 31.6546 16.3434 31.5117 16.6875 31.3695C16.8615 31.2975 17.011 31.2242 17.117 31.1686C17.1701 31.141 17.2124 31.1175 17.2416 31.1012C17.2562 31.093 17.2676 31.0863 17.2753 31.0818C17.2792 31.0796 17.2822 31.0779 17.2843 31.0766C17.2853 31.076 17.2861 31.0755 17.2867 31.0751C17.287 31.0751 17.2872 31.0749 17.2874 31.0749C17.2875 31.0747 17.2875 31.0747 17.2876 31.0747C17.2876 31.0747 17.2876 31.0747 17.2877 31.0747C17.2877 31.0747 17.2877 31.0747 17.2313 30.9824C17.1748 30.8902 17.1748 30.8902 17.1748 30.8902C17.1748 30.8902 17.1748 30.8902 17.1748 30.8902C17.1747 30.8904 17.1746 30.8904 17.1744 30.8906C17.174 30.8908 17.1734 30.891 17.1725 30.8917C17.1709 30.8925 17.1682 30.8941 17.1648 30.8962C17.1578 30.9001 17.1473 30.9061 17.1336 30.9139C17.1062 30.9294 17.066 30.9516 17.0152 30.9781C16.9134 31.0313 16.7701 31.1018 16.6035 31.1706C16.2666 31.3098 15.85 31.4363 15.4947 31.4137L15.4807 31.6288ZM14.071 30.9824C14.0052 31.0682 14.0052 31.0684 14.0052 31.0684C14.0052 31.0684 14.0053 31.0684 14.0053 31.0684C14.0053 31.0684 14.0054 31.0684 14.0055 31.0684C14.0056 31.0686 14.0058 31.0688 14.006 31.0688C14.0064 31.0693 14.007 31.0697 14.0078 31.0701C14.0093 31.0714 14.0114 31.0729 14.0141 31.0749C14.0196 31.0788 14.0276 31.0846 14.0378 31.0917C14.0583 31.1059 14.088 31.1262 14.126 31.1503C14.2019 31.1988 14.3108 31.2635 14.4443 31.3298C14.7101 31.4619 15.0791 31.6031 15.4807 31.6288L15.4947 31.4137C15.1334 31.3906 14.794 31.2624 14.5422 31.1374C14.4169 31.0751 14.3147 31.0143 14.2442 30.9693C14.2089 30.9466 14.1816 30.9283 14.1634 30.9154C14.1542 30.9091 14.1474 30.9042 14.1429 30.901C14.1407 30.8994 14.139 30.8982 14.138 30.8975C14.1375 30.8971 14.1372 30.8969 14.137 30.8966C14.1369 30.8966 14.1368 30.8964 14.1368 30.8964C14.1368 30.8964 14.1368 30.8964 14.1368 30.8964C14.1368 30.8964 14.1368 30.8964 14.1368 30.8964C14.1368 30.8966 14.1368 30.8966 14.071 30.9824ZM12.1147 25.3041L13.9672 31.0154L14.1748 30.9494L12.3222 25.2383L12.1147 25.3041ZM20.1383 22.4753L12.1831 25.1693L12.2537 25.3732L20.2089 22.6792L20.1383 22.4753ZM12.7633 19.6678H16.2505V19.4522H12.7633V19.6678ZM12.8723 22.9005V19.56H12.6543V22.9005H12.8723ZM16.218 21.7201L12.7308 22.7977L12.7958 23.0034L16.283 21.9258L16.218 21.7201ZM16.1415 19.56V21.8229H16.3595V19.56H16.1415ZM20.1736 19.4522H16.9043V19.6678H20.1736V19.4522ZM20.2825 20.5298V19.56H20.0646V20.5298H20.2825ZM16.9388 21.7096L20.208 20.6321L20.1391 20.4276L16.8699 21.5052L16.9388 21.7096ZM16.7954 19.56V21.6074H17.0133V19.56H16.7954ZM16.9043 15.5729H20.1736V15.3574H16.9043V15.5729ZM17.0133 18.9135V15.4652H16.7954V18.9135H17.0133ZM20.1736 18.8057H16.9043V19.0212H20.1736V18.8057ZM20.0646 15.4652V18.9135H20.2825V15.4652H20.0646ZM20.8274 32.06V22.5772H20.6095V32.06H20.8274ZM22.2141 31.7408C21.8413 31.8462 21.467 31.8992 21.1849 31.9257C21.0441 31.9391 20.9269 31.9456 20.8451 31.949C20.8042 31.9505 20.7722 31.9514 20.7506 31.9518C20.7398 31.952 20.7316 31.9522 20.7262 31.9522C20.7235 31.9522 20.7214 31.9522 20.7202 31.9522C20.7195 31.9522 20.719 31.9522 20.7187 31.9522C20.7186 31.9522 20.7185 31.9522 20.7185 31.9522C20.7184 31.9522 20.7184 31.9522 20.7184 31.9522C20.7184 31.9522 20.7184 31.9522 20.7184 32.06C20.7184 32.1678 20.7185 32.1678 20.7185 32.1678C20.7185 32.1678 20.7185 32.1678 20.7185 32.1678C20.7186 32.1678 20.7186 32.1678 20.7187 32.1678C20.7188 32.1678 20.719 32.1678 20.7192 32.1678C20.7197 32.1678 20.7203 32.1678 20.7211 32.1678C20.7228 32.1678 20.7251 32.1678 20.7282 32.1678C20.7343 32.1675 20.7432 32.1675 20.7548 32.1673C20.7779 32.1669 20.8114 32.166 20.854 32.1643C20.9391 32.1609 21.0603 32.154 21.2055 32.1404C21.4956 32.113 21.884 32.0583 22.274 31.9482L22.2141 31.7408ZM23.6607 30.9824C23.5837 30.9061 23.5837 30.9061 23.5837 30.9061C23.5837 30.9061 23.5837 30.9061 23.5837 30.9061C23.5837 30.9063 23.5836 30.9063 23.5835 30.9063C23.5832 30.9068 23.5829 30.907 23.5823 30.9076C23.5812 30.9087 23.5795 30.9102 23.5772 30.9126C23.5726 30.9169 23.5656 30.9236 23.5563 30.9322C23.5377 30.9497 23.5101 30.9749 23.4745 31.0061C23.4032 31.0684 23.3001 31.1538 23.1738 31.2458C22.9198 31.4309 22.5777 31.6382 22.2141 31.7408L22.274 31.9482C22.6733 31.8352 23.0395 31.6115 23.3031 31.4195C23.4356 31.3229 23.5437 31.2333 23.6188 31.1675C23.6564 31.1348 23.6858 31.1079 23.706 31.0889C23.7161 31.0796 23.7239 31.0721 23.7292 31.0669C23.7319 31.0643 23.734 31.0624 23.7354 31.0611C23.7361 31.0602 23.7367 31.0598 23.7371 31.0594C23.7373 31.0591 23.7374 31.0589 23.7376 31.0589C23.7376 31.0587 23.7377 31.0587 23.7377 31.0587C23.7377 31.0587 23.7377 31.0587 23.7378 31.0587C23.7378 31.0587 23.7378 31.0587 23.6607 30.9824ZM25.3973 31.4137C25.042 31.4363 24.6254 31.3098 24.2885 31.1706C24.1219 31.1018 23.9786 31.0313 23.8768 30.9781C23.826 30.9516 23.7858 30.9294 23.7584 30.9139C23.7447 30.9061 23.7342 30.9001 23.7272 30.8962C23.7238 30.8941 23.7211 30.8925 23.7195 30.8917C23.7186 30.891 23.718 30.8908 23.7176 30.8906C23.7174 30.8904 23.7173 30.8904 23.7172 30.8902C23.7172 30.8902 23.7172 30.8902 23.7172 30.8902C23.7172 30.8902 23.7172 30.8902 23.6607 30.9824C23.6043 31.0747 23.6043 31.0747 23.6043 31.0747C23.6044 31.0747 23.6044 31.0747 23.6044 31.0747C23.6045 31.0747 23.6045 31.0747 23.6046 31.0749C23.6048 31.0749 23.605 31.0751 23.6053 31.0751C23.6059 31.0755 23.6067 31.076 23.6077 31.0766C23.6098 31.0779 23.6128 31.0796 23.6167 31.0818C23.6244 31.0863 23.6358 31.093 23.6504 31.1012C23.6796 31.1175 23.7219 31.141 23.775 31.1686C23.881 31.2242 24.0305 31.2975 24.2045 31.3695C24.5486 31.5117 25.0039 31.6546 25.4113 31.6288L25.3973 31.4137ZM26.821 30.9824C26.7552 30.8966 26.7552 30.8966 26.7552 30.8964C26.7552 30.8964 26.7552 30.8964 26.7552 30.8964C26.7552 30.8964 26.7551 30.8966 26.755 30.8966C26.7548 30.8969 26.7545 30.8971 26.754 30.8975C26.753 30.8982 26.7513 30.8994 26.7491 30.901C26.7446 30.9042 26.7378 30.9091 26.7286 30.9154C26.7104 30.9283 26.6831 30.9466 26.6478 30.9693C26.5773 31.0143 26.4751 31.0751 26.3498 31.1374C26.098 31.2624 25.7586 31.3906 25.3973 31.4137L25.4113 31.6288C25.8129 31.6031 26.1819 31.4619 26.4477 31.3298C26.5812 31.2635 26.6901 31.1988 26.766 31.1503C26.804 31.1262 26.8337 31.1059 26.8542 31.0917C26.8644 31.0846 26.8724 31.0788 26.8779 31.0749C26.8806 31.0729 26.8827 31.0714 26.8842 31.0701C26.885 31.0697 26.8856 31.0693 26.886 31.0688C26.8862 31.0688 26.8864 31.0686 26.8865 31.0684C26.8866 31.0684 26.8867 31.0684 26.8867 31.0684C26.8868 31.0684 26.8868 31.0684 26.8868 31.0684C26.8868 31.0684 26.8868 31.0682 26.821 30.9824ZM28.5698 25.2383L26.7172 30.9494L26.9248 31.0154L28.7773 25.3041L28.5698 25.2383ZM20.6831 22.6792L28.6383 25.3732L28.7089 25.1693L20.7537 22.4753L20.6831 22.6792ZM28.5646 23.6548V24.5169H28.7825V23.6548H28.5646ZM20.4673 21.1713L28.6404 23.7575L28.7068 23.5522L20.5337 20.966L20.4673 21.1713ZM20.6095 21.8229V21.0686H20.3915V21.8229H20.6095ZM28.708 24.4147L20.5349 21.7207L20.466 21.9252L28.6391 24.6191L28.708 24.4147ZM28.1287 15.3574H24.6415V15.5729H28.1287V15.3574ZM28.2377 18.9135V15.4652H28.0197V18.9135H28.2377ZM24.6415 19.0212H28.1287V18.8057H24.6415V19.0212ZM24.5325 15.4652V18.9135H24.7505V15.4652H24.5325ZM24.6415 19.6678H28.1287V19.4522H24.6415V19.6678ZM24.7505 21.8229V19.56H24.5325V21.8229H24.7505ZM28.1612 22.7977L24.674 21.7201L24.609 21.9258L28.0962 23.0034L28.1612 22.7977ZM28.0197 19.56V22.9005H28.2377V19.56H28.0197ZM23.9877 19.4522H20.7184V19.6678H23.9877V19.4522ZM24.0966 21.6074V19.56H23.8787V21.6074H24.0966ZM20.684 20.6321L23.9532 21.7096L24.0221 21.5052L20.7529 20.4276L20.684 20.6321ZM20.6095 19.56V20.5298H20.8274V19.56H20.6095ZM20.7184 15.5729H23.9877V15.3574H20.7184V15.5729ZM20.8274 18.9135V15.4652H20.6095V18.9135H20.8274ZM23.9877 18.8057H20.7184V19.0212H23.9877V18.8057ZM23.8787 15.4652V18.9135H24.0966V15.4652H23.8787ZM13.962 31.629C13.8709 31.688 13.8709 31.688 13.8709 31.688C13.8709 31.688 13.871 31.6882 13.871 31.6882C13.8711 31.6882 13.8711 31.6885 13.8712 31.6885C13.8713 31.6887 13.8715 31.6889 13.8717 31.6893C13.8722 31.69 13.8727 31.6908 13.8734 31.6917C13.8748 31.6938 13.8768 31.6966 13.8792 31.7001C13.8842 31.7072 13.8914 31.7171 13.9008 31.7294C13.9196 31.754 13.9474 31.7885 13.9844 31.8296C14.0583 31.9119 14.1693 32.0212 14.3192 32.1318C14.6196 32.3529 15.0765 32.5781 15.702 32.5988L15.7092 32.3833C15.136 32.3645 14.7211 32.1587 14.4494 31.9587C14.3133 31.8585 14.2131 31.7598 14.1474 31.6865C14.1145 31.6501 14.0904 31.6199 14.0747 31.5994C14.0669 31.5893 14.0612 31.5813 14.0576 31.5764C14.0558 31.5738 14.0546 31.5719 14.0538 31.5708C14.0535 31.5704 14.0532 31.5699 14.0531 31.5699C14.0531 31.5697 14.053 31.5697 14.0531 31.5697C14.0531 31.5697 14.0531 31.5697 14.0531 31.5697C14.0531 31.5699 14.0531 31.5699 14.0531 31.5699C14.0532 31.5699 14.0532 31.5699 13.962 31.629ZM15.7163 32.4915C15.0625 32.4277 14.6474 32.1945 14.3971 31.9824C14.2714 31.876 14.1863 31.774 14.133 31.6997C14.1064 31.6624 14.0878 31.6322 14.0762 31.6119C14.0703 31.6018 14.0663 31.5943 14.0638 31.5893C14.0625 31.5869 14.0617 31.5852 14.0612 31.5844C14.061 31.5839 14.0609 31.5837 14.0608 31.5835C14.0608 31.5835 14.0608 31.5835 14.0609 31.5835C14.0609 31.5837 14.0609 31.5837 14.0609 31.5837C14.0609 31.5837 14.061 31.5837 14.061 31.5837C14.061 31.5839 14.061 31.5839 13.962 31.629C13.863 31.674 13.8631 31.674 13.8631 31.6742C13.8631 31.6742 13.8631 31.6742 13.8632 31.6742C13.8632 31.6744 13.8633 31.6744 13.8633 31.6747C13.8635 31.6749 13.8636 31.6753 13.8638 31.6755C13.8641 31.6764 13.8646 31.6772 13.8651 31.6783C13.8662 31.6807 13.8678 31.6837 13.8697 31.6874C13.8736 31.6949 13.8792 31.7055 13.8867 31.7184C13.9016 31.7445 13.9241 31.7807 13.9552 31.8242C14.0174 31.9111 14.1143 32.0266 14.2553 32.146C14.5383 32.3859 14.9951 32.6376 15.6949 32.7061L15.7163 32.4915ZM17.1223 32.491C17.1001 32.3857 17.1001 32.3857 17.1001 32.3857C17.1001 32.3857 17.1 32.3857 17.1 32.3857C17.0999 32.3857 17.0998 32.3857 17.0996 32.3857C17.0993 32.3857 17.0988 32.3859 17.0981 32.3859C17.0967 32.3863 17.0945 32.3867 17.0916 32.3872C17.0858 32.3885 17.077 32.3902 17.0656 32.3923C17.0429 32.3966 17.0095 32.4029 16.9675 32.41C16.8834 32.4247 16.7649 32.4434 16.6278 32.4602C16.352 32.4943 16.0074 32.5199 15.7163 32.4915L15.6949 32.7061C16.0102 32.7369 16.3739 32.7087 16.6548 32.674C16.7961 32.6566 16.9181 32.6374 17.0049 32.6223C17.0483 32.615 17.083 32.6085 17.1069 32.604C17.1189 32.6016 17.1282 32.5999 17.1345 32.5986C17.1377 32.5979 17.1401 32.5975 17.1418 32.5971C17.1426 32.5969 17.1433 32.5969 17.1438 32.5966C17.144 32.5966 17.1441 32.5966 17.1443 32.5966C17.1443 32.5966 17.1444 32.5966 17.1444 32.5966C17.1445 32.5966 17.1445 32.5966 17.1445 32.5966C17.1445 32.5964 17.1445 32.5964 17.1223 32.491ZM18.6779 33.465C18.125 33.3087 17.759 33.0494 17.5319 32.8313C17.4183 32.7221 17.3392 32.6229 17.289 32.5522C17.264 32.5167 17.2461 32.4885 17.2348 32.4695C17.2291 32.4598 17.2251 32.4527 17.2226 32.4482C17.2214 32.446 17.2206 32.4443 17.2201 32.4434C17.2198 32.443 17.2197 32.4428 17.2196 32.4425C17.2196 32.4425 17.2196 32.4425 17.2196 32.4425C17.2196 32.4425 17.2196 32.4425 17.2197 32.4428C17.2197 32.4428 17.2197 32.4428 17.2197 32.4428C17.2197 32.4428 17.2198 32.4428 17.1223 32.491C17.0248 32.5393 17.0248 32.5393 17.0249 32.5393C17.0249 32.5393 17.0249 32.5393 17.0249 32.5395C17.025 32.5395 17.025 32.5397 17.0251 32.5397C17.0252 32.54 17.0253 32.5402 17.0255 32.5406C17.0258 32.5413 17.0262 32.5419 17.0268 32.543C17.0278 32.5449 17.0292 32.5475 17.0311 32.551C17.0347 32.5576 17.04 32.5671 17.047 32.5788C17.061 32.6022 17.0819 32.6354 17.1105 32.6757C17.1676 32.7563 17.2554 32.866 17.3801 32.9859C17.6298 33.2257 18.0266 33.5053 18.618 33.6723L18.6779 33.465ZM20.3915 33.6764C19.9582 33.6764 19.4257 33.6764 18.6779 33.465L18.618 33.6723C19.3958 33.8919 19.953 33.8919 20.3915 33.8919V33.6764ZM20.2825 33.3531V33.7841H20.5005V33.3531H20.2825ZM18.618 33.2413C19.0095 33.3518 19.4537 33.4063 19.7971 33.4335C19.9694 33.4473 20.1176 33.454 20.2228 33.4574C20.2754 33.4591 20.3173 33.46 20.3462 33.4604C20.3607 33.4607 20.3719 33.4607 20.3795 33.4609C20.3833 33.4609 20.3863 33.4609 20.3883 33.4609C20.3893 33.4609 20.3901 33.4609 20.3906 33.4609C20.3909 33.4609 20.3911 33.4609 20.3912 33.4609C20.3913 33.4609 20.3914 33.4609 20.3914 33.4609C20.3914 33.4609 20.3915 33.4609 20.3915 33.4609C20.3915 33.4609 20.3915 33.4609 20.3915 33.3531C20.3915 33.2453 20.3915 33.2453 20.3915 33.2453C20.3915 33.2453 20.3915 33.2453 20.3915 33.2453C20.3915 33.2453 20.3915 33.2453 20.3914 33.2453C20.3913 33.2453 20.3912 33.2453 20.391 33.2453C20.3906 33.2453 20.3899 33.2453 20.3891 33.2453C20.3873 33.2453 20.3846 33.2453 20.3811 33.2453C20.374 33.2453 20.3634 33.2451 20.3495 33.2449C20.3218 33.2445 20.2812 33.2436 20.2299 33.2421C20.1274 33.2387 19.9827 33.232 19.8145 33.2188C19.4768 33.1921 19.0491 33.1389 18.6779 33.0339L18.618 33.2413ZM17.2313 32.1678C17.1485 32.2378 17.1485 32.2378 17.1485 32.238C17.1486 32.238 17.1486 32.238 17.1486 32.238C17.1487 32.238 17.1487 32.238 17.1488 32.2382C17.1489 32.2382 17.149 32.2385 17.1492 32.2387C17.1496 32.2391 17.1502 32.2397 17.1509 32.2406C17.1523 32.2423 17.1544 32.2445 17.1571 32.2475C17.1624 32.2535 17.1702 32.2622 17.1802 32.2732C17.2004 32.2949 17.2298 32.3262 17.2674 32.3643C17.3425 32.4404 17.4507 32.5438 17.5833 32.6542C17.8467 32.8736 18.2149 33.1272 18.618 33.2413L18.6779 33.0339C18.3181 32.9324 17.978 32.7012 17.7237 32.4895C17.5976 32.3844 17.4946 32.2859 17.4233 32.2137C17.3877 32.1777 17.36 32.1484 17.3414 32.1281C17.3321 32.118 17.3251 32.1102 17.3205 32.105C17.3182 32.1025 17.3165 32.1005 17.3154 32.0992C17.3149 32.0986 17.3145 32.0982 17.3142 32.0979C17.3141 32.0977 17.314 32.0977 17.314 32.0977C17.314 32.0975 17.314 32.0975 17.314 32.0975C17.314 32.0977 17.314 32.0977 17.2313 32.1678ZM15.702 32.5988C16.0291 32.6096 16.4238 32.5249 16.7298 32.4408C16.8843 32.3986 17.019 32.3555 17.1151 32.3232C17.1632 32.307 17.2017 32.2934 17.2284 32.2837C17.2417 32.279 17.252 32.2751 17.2591 32.2725C17.2626 32.2712 17.2654 32.2701 17.2672 32.2695C17.2682 32.2693 17.2689 32.2688 17.2694 32.2686C17.2697 32.2686 17.2699 32.2686 17.27 32.2684C17.2701 32.2684 17.2701 32.2684 17.2702 32.2684C17.2702 32.2684 17.2702 32.2684 17.2702 32.2684C17.2702 32.2684 17.2703 32.2684 17.2313 32.1678C17.1922 32.0671 17.1922 32.0671 17.1923 32.0671C17.1923 32.0671 17.1923 32.0671 17.1922 32.0671C17.1922 32.0671 17.1922 32.0671 17.1922 32.0671C17.1921 32.0671 17.192 32.0673 17.1918 32.0673C17.1914 32.0675 17.1908 32.0678 17.19 32.068C17.1884 32.0686 17.186 32.0695 17.1827 32.0708C17.1762 32.0732 17.1665 32.0766 17.1538 32.0811C17.1285 32.0904 17.0914 32.1035 17.0448 32.1191C16.9517 32.1505 16.8211 32.1921 16.6715 32.2333C16.3696 32.316 16.0015 32.393 15.7092 32.3833L15.702 32.5988ZM25.299 32.5988C25.9245 32.5781 26.3813 32.3529 26.6818 32.1318C26.8317 32.0212 26.9427 31.9119 27.0166 31.8296C27.0536 31.7885 27.0813 31.754 27.1002 31.7294C27.1096 31.7171 27.1168 31.7072 27.1217 31.7001C27.1242 31.6966 27.1262 31.6938 27.1276 31.6917C27.1283 31.6908 27.1288 31.69 27.1292 31.6893C27.1295 31.6889 27.1296 31.6887 27.1298 31.6885C27.1299 31.6885 27.1299 31.6882 27.13 31.6882C27.13 31.6882 27.13 31.688 27.1301 31.688C27.1301 31.688 27.1301 31.688 27.039 31.629C26.9478 31.5699 26.9478 31.5699 26.9478 31.5699C26.9478 31.5699 26.9479 31.5699 26.9479 31.5697C26.9479 31.5697 26.9479 31.5697 26.9479 31.5697C26.9479 31.5697 26.9479 31.5697 26.9478 31.5699C26.9477 31.5699 26.9475 31.5704 26.9471 31.5708C26.9464 31.5719 26.9451 31.5738 26.9433 31.5764C26.9398 31.5813 26.9341 31.5893 26.9262 31.5994C26.9106 31.6199 26.8864 31.6501 26.8536 31.6865C26.7879 31.7598 26.6877 31.8585 26.5516 31.9587C26.2799 32.1587 25.865 32.3645 25.2917 32.3833L25.299 32.5988ZM23.7697 32.1678C23.7307 32.2684 23.7307 32.2684 23.7308 32.2684C23.7308 32.2684 23.7308 32.2684 23.7308 32.2684C23.7308 32.2684 23.7309 32.2684 23.731 32.2684C23.7311 32.2686 23.7313 32.2686 23.7316 32.2686C23.7321 32.2688 23.7328 32.2693 23.7337 32.2695C23.7356 32.2701 23.7383 32.2712 23.7419 32.2725C23.749 32.2751 23.7593 32.279 23.7726 32.2837C23.7992 32.2934 23.8378 32.307 23.8859 32.3232C23.982 32.3555 24.1167 32.3986 24.2712 32.4408C24.5772 32.5249 24.9719 32.6096 25.299 32.5988L25.2917 32.3833C24.9995 32.393 24.6314 32.316 24.3294 32.2333C24.1799 32.1921 24.0493 32.1505 23.9562 32.1191C23.9096 32.1035 23.8725 32.0904 23.8472 32.0811C23.8345 32.0766 23.8247 32.0732 23.8182 32.0708C23.815 32.0695 23.8125 32.0686 23.811 32.068C23.8102 32.0678 23.8096 32.0675 23.8092 32.0673C23.809 32.0673 23.8089 32.0671 23.8088 32.0671C23.8088 32.0671 23.8087 32.0671 23.8087 32.0671C23.8087 32.0671 23.8087 32.0671 23.8087 32.0671C23.8087 32.0671 23.8087 32.0671 23.7697 32.1678ZM22.383 33.2413C22.7861 33.1272 23.1542 32.8736 23.4176 32.6542C23.5503 32.5438 23.6585 32.4404 23.7336 32.3643C23.7712 32.3262 23.8006 32.2949 23.8207 32.2732C23.8308 32.2622 23.8386 32.2535 23.8439 32.2475C23.8466 32.2445 23.8486 32.2423 23.8501 32.2406C23.8508 32.2397 23.8513 32.2391 23.8517 32.2387C23.8519 32.2385 23.8521 32.2382 23.8522 32.2382C23.8523 32.238 23.8523 32.238 23.8524 32.238C23.8524 32.238 23.8524 32.238 23.8524 32.238C23.8524 32.2378 23.8525 32.2378 23.7697 32.1678C23.687 32.0977 23.687 32.0977 23.687 32.0975C23.687 32.0975 23.687 32.0975 23.687 32.0977C23.6869 32.0977 23.6869 32.0977 23.6867 32.0979C23.6865 32.0982 23.6861 32.0986 23.6856 32.0992C23.6845 32.1005 23.6828 32.1025 23.6805 32.105C23.6758 32.1102 23.6688 32.118 23.6595 32.1281C23.641 32.1484 23.6133 32.1777 23.5777 32.2137C23.5064 32.2859 23.4034 32.3844 23.2772 32.4895C23.023 32.7012 22.6828 32.9324 22.3231 33.0339L22.383 33.2413ZM20.6095 33.3531C20.6095 33.4609 20.6095 33.4609 20.6095 33.4609C20.6095 33.4609 20.6095 33.4609 20.6096 33.4609C20.6096 33.4609 20.6097 33.4609 20.6097 33.4609C20.6099 33.4609 20.6101 33.4609 20.6104 33.4609C20.6109 33.4609 20.6117 33.4609 20.6127 33.4609C20.6147 33.4609 20.6176 33.4609 20.6215 33.4609C20.6291 33.4607 20.6403 33.4607 20.6547 33.4604C20.6836 33.46 20.7256 33.4591 20.7782 33.4574C20.8834 33.454 21.0316 33.4473 21.2039 33.4335C21.5473 33.4063 21.9914 33.3518 22.383 33.2413L22.3231 33.0339C21.9519 33.1389 21.5242 33.1921 21.1865 33.2188C21.0183 33.232 20.8736 33.2387 20.7711 33.2421C20.7198 33.2436 20.6792 33.2445 20.6515 33.2449C20.6376 33.2451 20.627 33.2453 20.6199 33.2453C20.6163 33.2453 20.6137 33.2453 20.6119 33.2453C20.611 33.2453 20.6104 33.2453 20.61 33.2453C20.6098 33.2453 20.6096 33.2453 20.6096 33.2453C20.6095 33.2453 20.6095 33.2453 20.6095 33.2453C20.6095 33.2453 20.6095 33.2453 20.6094 33.2453C20.6095 33.2453 20.6095 33.2453 20.6095 33.3531ZM20.7184 33.7841V33.3531H20.5005V33.7841H20.7184ZM22.3231 33.465C21.5753 33.6764 21.0427 33.6764 20.6095 33.6764V33.8919C21.048 33.8919 21.6052 33.8919 22.383 33.6723L22.3231 33.465ZM23.8787 32.491C23.7812 32.4428 23.7812 32.4428 23.7813 32.4428C23.7813 32.4428 23.7813 32.4428 23.7813 32.4428C23.7813 32.4425 23.7813 32.4425 23.7814 32.4425C23.7814 32.4425 23.7814 32.4425 23.7813 32.4425C23.7813 32.4428 23.7811 32.443 23.7809 32.4434C23.7804 32.4443 23.7796 32.446 23.7783 32.4482C23.7759 32.4527 23.7718 32.4598 23.7662 32.4695C23.7549 32.4885 23.737 32.5167 23.7119 32.5522C23.6618 32.6229 23.5827 32.7221 23.469 32.8313C23.242 33.0494 22.876 33.3087 22.3231 33.465L22.383 33.6723C22.9743 33.5053 23.3711 33.2257 23.6209 32.9859C23.7456 32.866 23.8334 32.7563 23.8905 32.6757C23.9191 32.6354 23.94 32.6022 23.954 32.5788C23.961 32.5671 23.9663 32.5576 23.9699 32.551C23.9718 32.5475 23.9732 32.5449 23.9742 32.543C23.9747 32.5419 23.9752 32.5413 23.9755 32.5406C23.9756 32.5402 23.9758 32.54 23.9759 32.5397C23.9759 32.5397 23.976 32.5395 23.9761 32.5395C23.9761 32.5393 23.9761 32.5393 23.9761 32.5393C23.9761 32.5393 23.9762 32.5393 23.8787 32.491ZM25.2846 32.4915C24.9936 32.5199 24.649 32.4943 24.3731 32.4602C24.236 32.4434 24.1176 32.4247 24.0335 32.41C23.9915 32.4029 23.9581 32.3966 23.9353 32.3923C23.924 32.3902 23.9152 32.3885 23.9094 32.3872C23.9065 32.3867 23.9043 32.3863 23.9029 32.3859C23.9022 32.3859 23.9017 32.3857 23.9013 32.3857C23.9012 32.3857 23.9011 32.3857 23.901 32.3857C23.9009 32.3857 23.9009 32.3857 23.9009 32.3857C23.9009 32.3857 23.9009 32.3857 23.8787 32.491C23.8565 32.5964 23.8565 32.5964 23.8565 32.5966C23.8565 32.5966 23.8565 32.5966 23.8565 32.5966C23.8566 32.5966 23.8566 32.5966 23.8567 32.5966C23.8568 32.5966 23.857 32.5966 23.8572 32.5966C23.8577 32.5969 23.8583 32.5969 23.8592 32.5971C23.8608 32.5975 23.8633 32.5979 23.8665 32.5986C23.8728 32.5999 23.8821 32.6016 23.8941 32.604C23.918 32.6085 23.9526 32.615 23.9961 32.6223C24.0828 32.6374 24.2049 32.6566 24.3462 32.674C24.627 32.7087 24.9907 32.7369 25.3061 32.7061L25.2846 32.4915ZM27.039 31.629C26.94 31.5839 26.94 31.5839 26.94 31.5837C26.94 31.5837 26.94 31.5837 26.9401 31.5837C26.9401 31.5837 26.9401 31.5837 26.9401 31.5835C26.9402 31.5835 26.9402 31.5835 26.9401 31.5835C26.9401 31.5837 26.94 31.5839 26.9397 31.5844C26.9393 31.5852 26.9384 31.5869 26.9372 31.5893C26.9347 31.5943 26.9306 31.6018 26.9248 31.6119C26.9132 31.6322 26.8945 31.6624 26.8679 31.6997C26.8147 31.774 26.7296 31.876 26.6039 31.9824C26.3536 32.1945 25.9385 32.4277 25.2846 32.4915L25.3061 32.7061C26.0059 32.6376 26.4626 32.3859 26.7457 32.146C26.8867 32.0266 26.9836 31.9111 27.0458 31.8242C27.0769 31.7807 27.0993 31.7445 27.1143 31.7184C27.1218 31.7055 27.1274 31.6949 27.1313 31.6874C27.1332 31.6837 27.1347 31.6807 27.1359 31.6783C27.1364 31.6772 27.1369 31.6764 27.1372 31.6755C27.1374 31.6753 27.1375 31.6749 27.1376 31.6747C27.1377 31.6744 27.1378 31.6744 27.1378 31.6742C27.1378 31.6742 27.1379 31.6742 27.1379 31.6742C27.1379 31.674 27.1379 31.674 27.039 31.629Z" fill="white"/>
</svg>
