<svg width="15" height="15" viewBox="0 0 15 15" fill="none" xmlns="http://www.w3.org/2000/svg">
<path d="M3.75 2.99976V0.749756C3.75 0.550843 3.82902 0.360078 3.96967 0.219426C4.11032 0.0787735 4.30109 -0.000244141 4.5 -0.000244141H10.5C10.6989 -0.000244141 10.8897 0.0787735 11.0303 0.219426C11.171 0.360078 11.25 0.550843 11.25 0.749756V2.99976H15V4.49976H13.5V14.2498C13.5 14.4487 13.421 14.6394 13.2803 14.7801C13.1397 14.9207 12.9489 14.9998 12.75 14.9998H2.25C2.05109 14.9998 1.86032 14.9207 1.71967 14.7801C1.57902 14.6394 1.5 14.4487 1.5 14.2498V4.49976H0V2.99976H3.75ZM5.25 1.49976V2.99976H9.75V1.49976H5.25Z" fill="#828282"/>
</svg>
