<svg width="38" height="40" viewBox="0 0 38 40" fill="none" xmlns="http://www.w3.org/2000/svg">
<g filter="url(#filter0_d)">
<path fill-rule="evenodd" clip-rule="evenodd" d="M6 15.2305C6 8.05077 11.8203 2.23047 19 2.23047C26.1797 2.23047 32 8.05077 32 15.2305C32 22.4102 26.1797 28.2305 19 28.2305C11.8203 28.2305 6 22.4102 6 15.2305ZM19 0.230469C10.7157 0.230469 4 6.9462 4 15.2305C4 23.5147 10.7157 30.2305 19 30.2305C27.2843 30.2305 34 23.5147 34 15.2305C34 6.9462 27.2843 0.230469 19 0.230469ZM19 24.2305C23.9706 24.2305 28 20.201 28 15.2305C28 10.2599 23.9706 6.23047 19 6.23047C14.0294 6.23047 10 10.2599 10 15.2305C10 20.201 14.0294 24.2305 19 24.2305Z" fill="#008AD9"/>
</g>
<defs>
<filter id="filter0_d" x="0" y="0.230469" width="38" height="39" filterUnits="userSpaceOnUse" color-interpolation-filters="sRGB">
<feFlood flood-opacity="0" result="BackgroundImageFix"/>
<feColorMatrix in="SourceAlpha" type="matrix" values="0 0 0 0 0 0 0 0 0 0 0 0 0 0 0 0 0 0 127 0"/>
<feOffset dy="5"/>
<feGaussianBlur stdDeviation="2"/>
<feColorMatrix type="matrix" values="0 0 0 0 0 0 0 0 0 0 0 0 0 0 0 0 0 0 0.15 0"/>
<feBlend mode="normal" in2="BackgroundImageFix" result="effect1_dropShadow"/>
<feBlend mode="normal" in="SourceGraphic" in2="effect1_dropShadow" result="shape"/>
</filter>
</defs>
</svg>
