<svg width="50" height="51" viewBox="0 0 50 51" fill="none" xmlns="http://www.w3.org/2000/svg">
<rect y="0.230469" width="50" height="50" fill="#1AB8E6"/>
<g clip-path="url(#clip0)">
<path fill-rule="evenodd" clip-rule="evenodd" d="M23.625 13.2305C23.2995 13.2305 23.0357 13.4947 23.0357 13.8206V14.2141C23.0357 14.54 23.2995 14.8042 23.625 14.8042H24.5089V16.0724C24.1725 16.259 23.7154 16.5706 23.2984 16.9688C22.7391 17.5029 22.1518 18.2884 22.1518 19.2305C22.1518 20.3304 22.6926 21.1093 23.4257 21.5519L16.9464 25.0337H18.9598L24.6676 21.9665C24.7784 21.9785 24.8895 21.9846 25 21.9846C25.1148 21.9846 25.2274 21.9796 25.338 21.9695L31.0402 25.0337H33.0536L26.585 21.5576C26.6547 21.5129 26.7229 21.4643 26.7894 21.4119C27.2907 21.0163 27.6532 20.433 27.9178 19.691C28.009 19.4352 27.8759 19.1537 27.6205 19.0624C27.3651 18.9711 27.0841 19.1044 26.9929 19.3601C26.7665 19.9951 26.4906 20.3955 26.1816 20.6392C25.9823 20.7965 25.75 20.9039 25.4703 20.9586L25 20.7059L24.5404 20.9529C23.7599 20.7854 23.1339 20.1858 23.1339 19.2305C23.1339 18.6971 23.4796 18.1548 23.9762 17.6807C24.465 17.2138 25.0025 16.9067 25.1824 16.8346L25.4911 16.711V16.378V14.8042H26.375C26.7005 14.8042 26.9643 14.54 26.9643 14.2141V13.8206C26.9643 13.4947 26.7005 13.2305 26.375 13.2305H23.625ZM16.1607 25.6239H14V37.2305H16.1607V25.6239ZM17.3393 25.6239H18.9107V37.2305H17.3393V25.6239ZM21.6607 25.6239H20.0893V37.2305H21.6607V25.6239ZM22.8393 37.2305V25.6239H24.4107V37.2305H22.8393ZM27.1607 37.2305V25.6239H25.5893V37.2305H27.1607ZM31.0893 25.6239H32.6607V37.2305H31.0893V25.6239ZM29.9107 25.6239H28.3393V37.2305H29.9107V25.6239ZM33.8393 25.6239H36V37.2305H33.8393V25.6239Z" fill="white"/>
</g>
<defs>
<clipPath id="clip0">
<rect width="22" height="24" fill="white" transform="translate(14 13.2305)"/>
</clipPath>
</defs>
</svg>
