<svg width="50" height="51" viewBox="0 0 50 51" fill="none" xmlns="http://www.w3.org/2000/svg">
<rect y="0.230469" width="50" height="50" fill="#1AB8E6"/>
<path fill-rule="evenodd" clip-rule="evenodd" d="M20.2026 15.2305L20.8877 16.3481H31.7C32.2523 16.3481 32.7 16.7958 32.7 17.3481L32.7 17.9183L32.7 18.5834L32.7 19.3521V19.8881L33.9014 19.8898C34.4531 19.8905 34.9 20.338 34.9 20.8898V23.0539H32.7V23.3757H36L31.8908 33.6033C31.7385 33.9822 31.3712 34.2305 30.9629 34.2305H15C14.4477 34.2305 14 33.7828 14 33.2305V15.2305H20.2026Z" fill="white"/>
<path fill-rule="evenodd" clip-rule="evenodd" d="M18.5696 19.8516V21.2161C18.5696 21.4923 18.3457 21.7161 18.0696 21.7161H16.6992L16.6994 29.2899L19.0321 23.1963C19.1062 23.0029 19.2919 22.8751 19.4991 22.8751H19.9925V21.6087C19.9925 21.3325 20.2163 21.1087 20.4925 21.1087C20.7686 21.1087 20.9925 21.3325 20.9925 21.6087V22.8751H22.5123V21.6087C22.5123 21.3325 22.7362 21.1087 23.0123 21.1087C23.2884 21.1087 23.5123 21.3325 23.5123 21.6087V22.8751H25.129V21.6087C25.129 21.3325 25.3529 21.1087 25.629 21.1087C25.9052 21.1087 26.129 21.3325 26.129 21.6087V22.8751H27.6489V21.6087C27.6489 21.3325 27.8727 21.1087 28.1489 21.1087C28.425 21.1087 28.6489 21.3325 28.6489 21.6087V22.8751H30.2656V21.6087C30.2656 21.3325 30.4895 21.1087 30.7656 21.1087C31.0417 21.1087 31.2656 21.3325 31.2656 21.6087V22.8751H32.7492V21.6087C32.7492 21.3325 32.9731 21.1087 33.2492 21.1087C33.5254 21.1087 33.7492 21.3325 33.7492 21.6087V22.8751H35.9989V23.8751H33.2492H30.7656H28.1489H25.629H23.0123H20.4925H19.8431L16.6664 32.1732C16.5803 32.3983 16.3457 32.5299 16.1086 32.4861C15.8715 32.4423 15.6995 32.2355 15.6995 31.9944L15.6992 21.2162C15.6992 21.0833 15.7521 20.9559 15.8462 20.862L17.7166 18.9975C17.8242 18.8902 17.9725 18.8395 18.1188 18.854V18.8516H18.6188H34.8992H35.3992V19.8516H34.8992H18.6188H18.5696ZM17.5696 20.7161H17.409L17.5696 20.556V20.7161Z" fill="#1AB8E6"/>
<mask id="path-4-inside-1" fill="white">
<path d="M17.85 19.7012L16.75 20.8188H17.85V19.7012Z"/>
</mask>
<path d="M16.75 20.8188L16.0373 20.1174L14.3627 21.8188H16.75V20.8188ZM17.85 19.7012H18.85V17.2595L17.1373 18.9997L17.85 19.7012ZM17.85 20.8188V21.8188H18.85V20.8188H17.85ZM17.4627 21.5203L18.5627 20.4026L17.1373 18.9997L16.0373 20.1174L17.4627 21.5203ZM16.85 19.7012V20.8188H18.85V19.7012H16.85ZM17.85 19.8188H16.75V21.8188H17.85V19.8188Z" fill="white" mask="url(#path-4-inside-1)"/>
</svg>
