<svg width="50" height="51" viewBox="0 0 50 51" fill="none" xmlns="http://www.w3.org/2000/svg">
<rect y="0.230469" width="50" height="50" fill="#1AB8E6"/>
<path d="M29.5846 29.8145V31.6478C29.5846 31.8909 29.6812 32.1241 29.8531 32.296C30.025 32.4679 30.2582 32.5645 30.5013 32.5645C30.7444 32.5645 30.9776 32.4679 31.1495 32.296C31.3214 32.1241 31.418 31.8909 31.418 31.6478V17.8978H18.5846V27.9811H16.7513V16.9811C16.7513 16.738 16.8479 16.5048 17.0198 16.3329C17.1917 16.161 17.4249 16.0645 17.668 16.0645H32.3346C32.5778 16.0645 32.8109 16.161 32.9828 16.3329C33.1547 16.5048 33.2513 16.738 33.2513 16.9811V31.6478C33.2513 32.3771 32.9616 33.0766 32.4458 33.5923C31.9301 34.1081 31.2306 34.3978 30.5013 34.3978H17.668C16.9386 34.3978 16.2392 34.1081 15.7234 33.5923C15.2077 33.0766 14.918 32.3771 14.918 31.6478V29.8145H29.5846Z" fill="white"/>
</svg>
