<svg width="18" height="19" viewBox="0 0 18 19" fill="none" xmlns="http://www.w3.org/2000/svg">
<path d="M12.2873 6.43652H11.4629C11.2836 6.43652 11.1131 6.52266 11.0076 6.67031L8.24436 10.5023L6.9928 8.76563C6.88733 8.61973 6.71858 8.53184 6.53753 8.53184H5.71311C5.59886 8.53184 5.53206 8.66191 5.59886 8.75508L7.78909 11.7926C7.84083 11.8648 7.90904 11.9236 7.98806 11.9642C8.06709 12.0048 8.15465 12.026 8.24348 12.026C8.33232 12.026 8.41988 12.0048 8.49891 11.9642C8.57793 11.9236 8.64614 11.8648 8.69788 11.7926L12.3998 6.65977C12.4684 6.5666 12.4016 6.43652 12.2873 6.43652Z" fill="#115B86"/>
<path d="M9 1.35645C4.65117 1.35645 1.125 4.88262 1.125 9.23145C1.125 13.5803 4.65117 17.1064 9 17.1064C13.3488 17.1064 16.875 13.5803 16.875 9.23145C16.875 4.88262 13.3488 1.35645 9 1.35645ZM9 15.7705C5.38945 15.7705 2.46094 12.842 2.46094 9.23145C2.46094 5.6209 5.38945 2.69238 9 2.69238C12.6105 2.69238 15.5391 5.6209 15.5391 9.23145C15.5391 12.842 12.6105 15.7705 9 15.7705Z" fill="#115B86"/>
</svg>
