<svg width="99" height="99" viewBox="0 0 99 99" fill="none" xmlns="http://www.w3.org/2000/svg">
<rect width="99" height="99" fill="#1B1B25"/>
<g clip-path="url(#clip0)">
<path fill-rule="evenodd" clip-rule="evenodd" d="M49.5017 42.2089V31.2285C49.5017 31.2285 49.3893 31.2285 49.2768 31.3429C49.177 31.4445 48.7223 40.2974 48.622 42.2768C46.0156 42.6784 43.6412 44.8232 42.3388 47.6991H33.649C33.649 47.6991 33.5368 47.7503 33.5365 47.8135C33.5361 47.9279 33.649 48.0422 33.649 48.0422L41.9068 48.7962C41.5142 49.9618 41.294 51.2164 41.294 52.503C41.294 52.5412 41.2942 52.5794 41.2947 52.6174H7.56386C7.56386 52.6174 7.22656 52.7318 7.22656 53.0749C7.22656 53.4181 7.56386 53.6468 7.56386 53.6468L28.3219 55.9335C27.4192 56.3439 26.7901 57.2653 26.7901 58.3364C26.7901 59.7892 27.9478 60.9671 29.376 60.9671C30.8042 60.9671 31.962 59.7892 31.962 58.3364C31.962 57.4678 31.5483 56.6975 30.9103 56.2185L38.7146 57.0782H38.5956C38.5956 57.0782 38.5956 60.5096 38.4832 60.7383C38.3707 60.9671 38.1459 61.0815 38.1459 61.0815V61.1958H38.8205V57.0899L38.9329 57.1022V61.1958H39.6075V61.9965C39.6075 61.9965 39.6075 62.5684 40.1697 62.5684C40.7319 62.5684 40.7319 61.9965 40.7319 61.9965V60.052C40.7319 60.052 40.7319 59.5945 40.1697 59.5945C39.6075 59.5945 39.6075 60.052 39.6075 60.052V61.0815C39.6075 61.0815 39.3826 60.9671 39.2702 60.7383C39.1656 60.5256 39.1582 57.546 39.1578 57.1269L42.5524 57.5009C44.0264 60.152 46.6196 61.8318 49.3773 61.881C49.3641 62.8097 49.3362 63.8204 49.2768 63.9409C49.1644 64.1697 48.9395 64.2841 48.9395 64.2841V64.3985H49.5017H49.6141H50.1763V64.2841C50.1763 64.2841 49.9514 64.1697 49.839 63.9409C49.7796 63.8202 49.7517 62.8077 49.7385 61.878C52.4556 61.786 55.0438 60.1175 56.5304 57.5046L59.958 57.1269C59.9576 57.546 59.9502 60.5256 59.8456 60.7383C59.7332 60.9671 59.5083 61.0815 59.5083 61.0815V60.052C59.5083 60.052 59.5083 59.5945 58.9461 59.5945C58.384 59.5945 58.384 60.052 58.384 60.052V61.9965C58.384 61.9965 58.384 62.5684 58.9461 62.5684C59.5083 62.5684 59.5083 61.9965 59.5083 61.9965V61.1958H60.1829V57.1022L60.2953 57.0899V61.1958H60.9699V61.0815C60.9699 61.0815 60.7451 60.9671 60.6326 60.7383C60.5202 60.5096 60.5202 57.0782 60.5202 57.0782H60.4013L68.2055 56.2185C67.5676 56.6975 67.1538 57.4678 67.1538 58.3364C67.1538 59.7892 68.3116 60.9671 69.7398 60.9671C71.1679 60.9671 72.3258 59.7892 72.3258 58.3364C72.3258 57.2653 71.6966 56.3439 70.794 55.9335L91.552 53.6468C91.552 53.6468 91.8893 53.4181 91.8893 53.0749C91.8893 52.7318 91.552 52.6174 91.552 52.6174H57.8211C57.8216 52.5794 57.8218 52.5412 57.8218 52.503C57.8218 51.2169 57.5956 49.9628 57.1935 48.7976L65.4668 48.0422C65.4668 48.0422 65.5797 47.9279 65.5793 47.8135C65.5791 47.7503 65.4668 47.6991 65.4668 47.6991H56.7508C55.4375 44.8643 53.067 42.7397 50.4949 42.2951C50.3962 40.3525 49.9391 31.4448 49.839 31.3429C49.7266 31.2285 49.6141 31.2285 49.6141 31.2285V42.21C49.5766 42.2093 49.5392 42.2089 49.5017 42.2089ZM29.376 59.5945C30.0592 59.5945 30.6128 59.0313 30.6128 58.3364C30.6128 57.6414 30.0592 57.0782 29.376 57.0782C28.693 57.0782 28.1393 57.6414 28.1393 58.3364C28.1393 59.0313 28.693 59.5945 29.376 59.5945ZM36.9091 62.1109V60.1664C36.9091 60.1664 36.9091 59.7089 37.4713 59.7089C38.0334 59.7089 38.0334 60.1664 38.0334 60.1664V62.1109C38.0334 62.1109 38.0334 62.6828 37.4713 62.6828C36.9091 62.6828 36.9091 62.1109 36.9091 62.1109ZM47.7027 65.3135V63.369C47.7027 63.369 47.7027 62.9115 48.2649 62.9115C48.8271 62.9115 48.8271 63.369 48.8271 63.369V65.3135C48.8271 65.3135 48.8271 65.8854 48.2649 65.8854C47.7027 65.8854 47.7027 65.3135 47.7027 65.3135ZM45.3416 48.8429C45.3416 48.8429 46.3668 49.12 47.0281 49.186C47.7722 49.2603 48.9395 49.3004 48.9395 49.3004L49.052 51.4736C49.052 51.4736 47.8152 51.7024 46.5784 51.3592C45.1031 50.9499 44.4422 50.4442 44.4422 50.4442L45.3416 48.8429ZM69.7398 59.5945C69.0566 59.5945 68.503 59.0313 68.503 58.3364C68.503 57.6414 69.0566 57.0782 69.7398 57.0782C70.4229 57.0782 70.9766 57.6414 70.9766 58.3364C70.9766 59.0313 70.4229 59.5945 69.7398 59.5945ZM62.2067 62.1109V60.1664C62.2067 60.1664 62.2067 59.7089 61.6445 59.7089C61.0824 59.7089 61.0824 60.1664 61.0824 60.1664V62.1109C61.0824 62.1109 61.0824 62.6828 61.6445 62.6828C62.2067 62.6828 62.2067 62.1109 62.2067 62.1109ZM51.4131 65.3135V63.369C51.4131 63.369 51.4131 62.9115 50.8509 62.9115C50.2887 62.9115 50.2887 63.369 50.2887 63.369V65.3135C50.2887 65.3135 50.2887 65.8854 50.8509 65.8854C51.4131 65.8854 51.4131 65.3135 51.4131 65.3135ZM53.7742 48.8429C53.7742 48.8429 52.749 49.12 52.0877 49.186C51.3436 49.2603 50.1763 49.3004 50.1763 49.3004L50.0639 51.4736C50.0639 51.4736 51.3006 51.7024 52.5374 51.3592C54.0128 50.9499 54.6736 50.4442 54.6736 50.4442L53.7742 48.8429Z" fill="white"/>
<path d="M49.5008 31.2286H49.6133V31.1143L49.5008 31.1143V31.2286ZM49.5008 42.209H49.3884V42.3234H49.5008V42.209ZM49.276 31.343L49.1964 31.2621L49.276 31.343ZM48.6212 42.2769L48.6378 42.39L48.7286 42.3761L48.7334 42.2828L48.6212 42.2769ZM42.3379 47.6992V47.8136H42.4099L42.44 47.7471L42.3379 47.6992ZM33.6481 47.6992V47.5849H33.6241L33.602 47.5949L33.6481 47.6992ZM33.5357 47.8136L33.4233 47.8132L33.5357 47.8136ZM33.6481 48.0424L33.5687 48.1234L33.5975 48.1526L33.638 48.1563L33.6481 48.0424ZM41.9059 48.7963L42.0123 48.8334L42.0588 48.6954L41.9161 48.6824L41.9059 48.7963ZM41.2939 52.6175V52.7319H41.4074L41.4063 52.6163L41.2939 52.6175ZM7.56302 52.6175V52.5032H7.54477L7.52746 52.509L7.56302 52.6175ZM7.56302 53.6469L7.50065 53.7421L7.52355 53.7576L7.55091 53.7607L7.56302 53.6469ZM28.3211 55.9336L28.367 56.0379L28.7466 55.8654L28.3332 55.8199L28.3211 55.9336ZM30.9095 56.2186L30.9216 56.105L30.5081 56.0594L30.8427 56.3106L30.9095 56.2186ZM38.7137 57.0783V57.1927L38.7259 56.9646L38.7137 57.0783ZM38.5948 57.0783V56.9639H38.4823V57.0783H38.5948ZM38.145 61.0816L38.0947 60.9793L38.0326 61.0109V61.0816H38.145ZM38.145 61.196H38.0326V61.3103H38.145V61.196ZM38.8196 61.196V61.3103H38.9321V61.196H38.8196ZM38.8196 57.09L38.8318 56.9763L38.7072 56.9626V57.09H38.8196ZM38.9321 57.1023H39.0445V56.9996L38.9442 56.9886L38.9321 57.1023ZM38.9321 61.196H38.8196V61.3103H38.9321V61.196ZM39.6067 61.196H39.7191V61.0816H39.6067V61.196ZM40.1688 62.5685V62.4541V62.5685ZM39.6067 61.0816L39.5563 61.1838L39.7191 61.2667V61.0816H39.6067ZM39.2694 60.7385L39.1688 60.7897L39.2694 60.7385ZM39.1569 57.127L39.1691 57.0134L39.0443 56.9996L39.0445 57.1273L39.1569 57.127ZM42.5515 57.5011L42.6494 57.4448L42.621 57.3938L42.5637 57.3874L42.5515 57.5011ZM49.3765 61.8811L49.4889 61.8827L49.4905 61.7688L49.3785 61.7667L49.3765 61.8811ZM48.9387 64.2842L48.8883 64.1819L48.8262 64.2135V64.2842H48.9387ZM48.9387 64.3986H48.8262V64.513H48.9387V64.3986ZM50.1754 64.3986V64.513H50.2879V64.3986H50.1754ZM50.1754 64.2842H50.2879V64.2135L50.2258 64.1819L50.1754 64.2842ZM49.7376 61.8781L49.7338 61.764L49.6236 61.7676L49.6252 61.88L49.7376 61.8781ZM56.5295 57.5047L56.5174 57.391L56.4607 57.3972L56.4322 57.4473L56.5295 57.5047ZM59.9572 57.127L60.0696 57.1273L60.0699 56.9996L59.9451 57.0134L59.9572 57.127ZM59.5075 61.0816H59.395V61.2667L59.5578 61.1838L59.5075 61.0816ZM58.9453 62.5685V62.4541V62.5685ZM59.5075 61.196V61.0816H59.395V61.196H59.5075ZM60.1821 61.196V61.3103H60.2945V61.196H60.1821ZM60.1821 57.1023L60.1699 56.9886L60.0696 56.9996V57.1023H60.1821ZM60.2945 57.09H60.4069V56.9626L60.2824 56.9763L60.2945 57.09ZM60.2945 61.196H60.1821V61.3103H60.2945V61.196ZM60.9691 61.196V61.3103H61.0815V61.196H60.9691ZM60.9691 61.0816H61.0815V61.0109L61.0195 60.9793L60.9691 61.0816ZM60.5194 57.0783H60.6318V56.9639H60.5194V57.0783ZM60.4004 57.0783L60.3883 56.9646L60.4004 57.1927V57.0783ZM68.2047 56.2186L68.2715 56.3106L68.6061 56.0594L68.1925 56.105L68.2047 56.2186ZM70.7931 55.9336L70.781 55.8199L70.3674 55.8654L70.7472 56.0379L70.7931 55.9336ZM91.5511 53.6469L91.5632 53.7607L91.5907 53.7576L91.6134 53.7421L91.5511 53.6469ZM91.5511 52.6175L91.5866 52.509L91.5693 52.5032H91.5511V52.6175ZM57.8203 52.6175L57.7078 52.6163L57.7067 52.7319H57.8203V52.6175ZM57.1927 48.7977L57.1826 48.6838L57.0386 48.6969L57.0865 48.8356L57.1927 48.7977ZM65.466 48.0424L65.4761 48.1563L65.5166 48.1526L65.5454 48.1234L65.466 48.0424ZM65.5784 47.8136L65.6909 47.8132V47.8132L65.5784 47.8136ZM65.466 47.6992L65.5121 47.5949L65.4901 47.5849H65.466V47.6992ZM56.7499 47.6992L56.6483 47.748L56.6786 47.8136H56.7499V47.6992ZM50.4941 42.2952L50.3817 42.3011L50.3864 42.3926L50.4752 42.408L50.4941 42.2952ZM49.8381 31.343L49.7585 31.4239V31.4239L49.8381 31.343ZM49.6133 31.2286V31.1143L49.5008 31.1143V31.2286H49.6133ZM49.6133 42.2102L49.611 42.3245L49.7257 42.3268V42.2102H49.6133ZM37.4704 62.6829V62.5685V62.6829ZM47.0273 49.1862L47.0383 49.0723L47.0273 49.1862ZM45.3408 48.843L45.3696 48.7325L45.2862 48.7099L45.2432 48.7863L45.3408 48.843ZM48.9387 49.3005L49.0509 49.2945L49.0455 49.1898L48.9425 49.1862L48.9387 49.3005ZM49.0511 51.4737L49.0711 51.5863L49.1685 51.5683L49.1633 51.4677L49.0511 51.4737ZM46.5776 51.3594L46.5479 51.4697L46.5776 51.3594ZM44.4413 50.4443L44.3437 50.3876L44.2945 50.4751L44.3736 50.5357L44.4413 50.4443ZM61.6437 62.6829V62.5685V62.6829ZM52.0868 49.1862L52.0758 49.0723L52.0868 49.1862ZM53.7733 48.843L53.8709 48.7863L53.828 48.7099L53.7445 48.7325L53.7733 48.843ZM50.1754 49.3005L50.1716 49.1862L50.0686 49.1898L50.0632 49.2945L50.1754 49.3005ZM50.063 51.4737L49.9508 51.4677L49.9456 51.5683L50.043 51.5863L50.063 51.4737ZM52.5366 51.3594L52.5662 51.4697L52.5366 51.3594ZM54.6728 50.4443L54.7405 50.5357L54.8196 50.4751L54.7704 50.3876L54.6728 50.4443ZM49.3884 31.2286V42.209H49.6133V31.2286H49.3884ZM49.3556 31.4239C49.3979 31.3807 49.4386 31.3608 49.4662 31.3514C49.4802 31.3467 49.491 31.3446 49.4975 31.3437C49.5006 31.3432 49.5026 31.343 49.5033 31.343C49.5035 31.343 49.5035 31.343 49.5031 31.343C49.5031 31.343 49.5026 31.343 49.5024 31.343C49.5022 31.343 49.502 31.343 49.5017 31.343C49.5015 31.343 49.5013 31.343 49.5013 31.343H49.5011C49.5008 31.343 49.5008 31.343 49.5008 31.2286C49.5008 31.1143 49.5008 31.1143 49.5006 31.1143C49.5006 31.1143 49.5004 31.1143 49.5004 31.1143C49.5002 31.1143 49.4999 31.1143 49.4999 31.1143C49.4995 31.1143 49.499 31.1143 49.4988 31.1143C49.4979 31.1143 49.497 31.1143 49.4959 31.1143C49.4939 31.1144 49.4912 31.1145 49.4883 31.1147C49.4824 31.1151 49.4748 31.1159 49.4655 31.1172C49.4473 31.1198 49.4233 31.1249 49.3949 31.1344C49.3383 31.1537 49.2665 31.191 49.1964 31.2621L49.3556 31.4239ZM48.7334 42.2828C48.7835 41.2932 48.9223 38.5853 49.061 36.1123C49.1303 34.8757 49.1997 33.6982 49.2578 32.8237C49.287 32.3863 49.3133 32.0253 49.3353 31.7709C49.3464 31.6434 49.3563 31.5439 49.3648 31.4752C49.3691 31.4406 49.3729 31.4157 49.376 31.3996C49.3767 31.3957 49.3774 31.3927 49.3778 31.3905C49.3783 31.3882 49.3787 31.3873 49.3785 31.3874C49.3785 31.3874 49.3785 31.388 49.3781 31.389C49.3778 31.39 49.3772 31.3917 49.376 31.3941C49.3751 31.3962 49.3693 31.4099 49.3556 31.4239L49.1964 31.2621C49.1811 31.2777 49.1737 31.2941 49.1712 31.2999C49.1676 31.3079 49.1651 31.3154 49.1635 31.3209C49.1602 31.3321 49.1575 31.3443 49.1552 31.3558C49.1507 31.3793 49.1462 31.4101 49.1417 31.4464C49.1325 31.5195 49.1224 31.6225 49.1114 31.7508C49.0891 32.0076 49.0626 32.3704 49.0336 32.8082C48.9751 33.684 48.9058 34.8625 48.8366 36.0993C48.6978 38.5729 48.5591 41.2813 48.5087 42.2711L48.7334 42.2828ZM42.44 47.7471C43.7316 44.8953 46.0793 42.7842 48.6378 42.39L48.6043 42.1639C45.9502 42.5728 43.549 44.7514 42.2358 47.6514L42.44 47.7471ZM33.6481 47.8136H42.3379V47.5849H33.6481V47.8136ZM33.6481 47.8141C33.6481 47.8332 33.6398 47.8424 33.6418 47.8397C33.6434 47.8375 33.6486 47.8323 33.658 47.8253C33.6668 47.8188 33.6765 47.8131 33.6841 47.8088C33.6877 47.8068 33.6908 47.8053 33.6926 47.8043C33.6935 47.8039 33.6942 47.8036 33.6944 47.8035C33.6947 47.8034 33.6947 47.8034 33.6947 47.8034C33.6944 47.8034 33.6944 47.8034 33.6944 47.8035C33.6944 47.8035 33.6944 47.8035 33.6942 47.8035V47.8035V47.8036C33.6942 47.8036 33.6942 47.8036 33.6481 47.6992C33.602 47.5949 33.602 47.5949 33.602 47.5949V47.5949C33.602 47.5949 33.602 47.595 33.6018 47.595C33.6018 47.595 33.6018 47.595 33.6016 47.5951C33.6013 47.5952 33.6013 47.5953 33.6009 47.5954C33.6004 47.5956 33.6 47.5959 33.5993 47.5962C33.598 47.5968 33.5962 47.5977 33.5939 47.5988C33.5897 47.6009 33.5838 47.6039 33.5771 47.6076C33.5638 47.615 33.5451 47.626 33.526 47.6401C33.5074 47.6538 33.4844 47.6733 33.4649 47.6985C33.446 47.7232 33.4235 47.7624 33.4233 47.8132L33.6481 47.8141ZM33.6481 48.0424C33.7275 47.9613 33.7275 47.9613 33.7275 47.9614C33.7275 47.9614 33.7275 47.9614 33.7275 47.9614C33.7275 47.9614 33.7275 47.9615 33.7275 47.9615C33.7277 47.9615 33.7277 47.9615 33.7277 47.9616C33.7277 47.9616 33.7277 47.9616 33.7277 47.9617C33.7277 47.9617 33.7277 47.9615 33.7275 47.9614C33.7271 47.961 33.7264 47.9602 33.7253 47.959C33.7232 47.9567 33.7199 47.953 33.7158 47.9481C33.7073 47.9382 33.6962 47.9241 33.6852 47.9074C33.6607 47.8702 33.6481 47.8366 33.6481 47.8141L33.4233 47.8132C33.4228 47.905 33.4664 47.9858 33.4981 48.0344C33.5154 48.0606 33.5325 48.0822 33.5451 48.0973C33.5517 48.1049 33.557 48.111 33.5611 48.1154C33.5633 48.1176 33.5649 48.1194 33.5663 48.1208C33.5669 48.1214 33.5674 48.122 33.5678 48.1224C33.5681 48.1226 33.5683 48.1228 33.5683 48.123C33.5685 48.1231 33.5685 48.1232 33.5685 48.1232C33.5685 48.1233 33.5687 48.1233 33.5687 48.1233C33.5687 48.1233 33.5687 48.1234 33.5687 48.1234C33.5687 48.1234 33.5687 48.1234 33.6481 48.0424ZM41.9161 48.6824L33.6582 47.9284L33.638 48.1563L41.896 48.9102L41.9161 48.6824ZM41.4056 52.5032C41.4056 51.2297 41.6235 49.9876 42.0123 48.8334L41.7996 48.7592C41.4031 49.9361 41.1807 51.2033 41.1807 52.5032H41.4056ZM41.4063 52.6163C41.4058 52.5787 41.4056 52.541 41.4056 52.5032H41.1807C41.1807 52.5417 41.181 52.5803 41.1814 52.6187L41.4063 52.6163ZM7.56302 52.7319H41.2939V52.5032H7.56302V52.7319ZM7.33815 53.0751C7.33815 52.9471 7.39935 52.8623 7.46634 52.8055C7.50026 52.7767 7.53463 52.7563 7.56059 52.7431C7.57345 52.7365 7.5839 52.7319 7.59071 52.7291C7.5941 52.7277 7.59656 52.7268 7.59793 52.7263C7.59862 52.726 7.59903 52.7259 7.59914 52.7259C7.5992 52.7258 7.59918 52.7258 7.59909 52.7259C7.59904 52.7259 7.59897 52.7259 7.59889 52.7259C7.59884 52.7259 7.5988 52.726 7.59874 52.726C7.59872 52.726 7.59867 52.726 7.59866 52.726C7.59862 52.726 7.59857 52.726 7.56302 52.6175C7.52746 52.509 7.52741 52.509 7.52736 52.5091C7.52735 52.5091 7.52729 52.5091 7.52726 52.5091C7.52719 52.5091 7.52711 52.5091 7.52702 52.5092C7.52686 52.5092 7.52667 52.5093 7.52646 52.5094C7.52604 52.5095 7.52554 52.5097 7.52496 52.5099C7.5238 52.5103 7.52231 52.5108 7.52052 52.5115C7.51695 52.5129 7.51217 52.5147 7.50634 52.5171C7.4947 52.5219 7.4788 52.5289 7.46003 52.5385C7.42275 52.5574 7.3728 52.587 7.32239 52.6297C7.22073 52.7159 7.11328 52.8599 7.11328 53.0751H7.33815ZM7.56302 53.6469C7.62538 53.5518 7.62542 53.5518 7.62544 53.5518C7.62545 53.5518 7.62548 53.5519 7.6255 53.5519C7.62553 53.5519 7.62555 53.5519 7.62558 53.5519C7.62562 53.5519 7.62564 53.552 7.62565 53.552C7.62566 53.552 7.62559 53.5519 7.62545 53.5518C7.62516 53.5516 7.62457 53.5512 7.62371 53.5506C7.62197 53.5494 7.61911 53.5473 7.61529 53.5444C7.60765 53.5387 7.59623 53.5298 7.58229 53.518C7.55427 53.4942 7.51689 53.4593 7.47973 53.4152C7.4039 53.3252 7.33815 53.208 7.33815 53.0751H7.11328C7.11328 53.2853 7.21618 53.4539 7.309 53.5641C7.35617 53.6201 7.40312 53.6639 7.43833 53.6937C7.45602 53.7087 7.47095 53.7204 7.48175 53.7285C7.48716 53.7325 7.49155 53.7357 7.49475 53.738C7.49635 53.7391 7.49766 53.7401 7.49865 53.7407C7.49914 53.7411 7.49956 53.7414 7.49989 53.7416C7.50006 53.7417 7.50021 53.7418 7.50033 53.7419C7.5004 53.7419 7.50045 53.742 7.50051 53.742C7.50053 53.742 7.50057 53.7421 7.50058 53.7421C7.50062 53.7421 7.50065 53.7421 7.56302 53.6469ZM28.3332 55.8199L7.57512 53.5332L7.55091 53.7607L28.309 56.0473L28.3332 55.8199ZM26.9016 58.3365C26.9016 57.3123 27.5032 56.4307 28.367 56.0379L28.2752 55.8291C27.3334 56.2573 26.6768 57.2188 26.6768 58.3365H26.9016ZM29.3752 60.8528C28.0091 60.8528 26.9016 59.7262 26.9016 58.3365H26.6768C26.6768 59.8525 27.8849 61.0816 29.3752 61.0816V60.8528ZM31.8487 58.3365C31.8487 59.7262 30.7413 60.8528 29.3752 60.8528V61.0816C30.8654 61.0816 32.0736 59.8525 32.0736 58.3365H31.8487ZM30.8427 56.3106C31.4532 56.769 31.8487 57.5059 31.8487 58.3365H32.0736C32.0736 57.4301 31.6416 56.6263 30.9762 56.1267L30.8427 56.3106ZM38.7259 56.9646L30.9216 56.105L30.8973 56.3323L38.7018 57.192L38.7259 56.9646ZM38.5948 57.1927H38.7137V56.9639H38.5948V57.1927ZM38.5828 60.7897C38.5984 60.7581 38.6069 60.7153 38.613 60.6785C38.6197 60.6369 38.6258 60.5854 38.6314 60.5262C38.6424 60.4079 38.6517 60.2528 38.6597 60.0753C38.6755 59.7198 38.6861 59.268 38.693 58.8244C38.7002 58.3806 38.7036 57.9442 38.7054 57.6186C38.7063 57.456 38.7067 57.3208 38.707 57.2266C38.7072 57.1792 38.7072 57.1424 38.7072 57.117C38.7072 57.1044 38.7072 57.0948 38.7072 57.0882C38.7072 57.085 38.7072 57.0824 38.7072 57.0808C38.7072 57.0799 38.7072 57.0795 38.7072 57.079C38.7072 57.0788 38.7072 57.0785 38.7072 57.0785C38.7072 57.0783 38.7072 57.0783 38.7072 57.0783C38.7072 57.0783 38.7072 57.0783 38.5948 57.0783C38.4823 57.0783 38.4823 57.0783 38.4823 57.0783C38.4823 57.0783 38.4823 57.0783 38.4823 57.0785C38.4823 57.0785 38.4823 57.0788 38.4823 57.079C38.4823 57.0792 38.4823 57.0799 38.4823 57.0808C38.4823 57.0824 38.4823 57.085 38.4823 57.0882C38.4823 57.0946 38.4823 57.1042 38.4823 57.1168C38.4823 57.1419 38.4823 57.1787 38.4821 57.2259C38.4819 57.3201 38.4814 57.4549 38.4805 57.6175C38.4787 57.9423 38.4754 58.3781 38.4684 58.8208C38.4612 59.2636 38.4508 59.7127 38.4351 60.0648C38.4272 60.2411 38.418 60.3917 38.4074 60.5047C38.4023 60.5614 38.3969 60.6069 38.3913 60.6408C38.385 60.6794 38.3802 60.6902 38.3818 60.6872L38.5828 60.7897ZM38.145 61.0816C38.1954 61.1838 38.1954 61.1838 38.1954 61.1838H38.1956C38.1956 61.1836 38.1958 61.1836 38.1958 61.1836C38.1963 61.1834 38.1965 61.1832 38.197 61.1832C38.1976 61.1827 38.1985 61.1822 38.1999 61.1816C38.2021 61.1802 38.2053 61.1786 38.2091 61.1763C38.217 61.1719 38.2278 61.1658 38.2408 61.1575C38.2669 61.1413 38.3024 61.117 38.3418 61.085C38.4196 61.0217 38.517 60.9237 38.5828 60.7897L38.3818 60.6872C38.3353 60.7819 38.264 60.8556 38.2012 60.9066C38.1704 60.9318 38.1426 60.9505 38.123 60.9626C38.1133 60.9688 38.1054 60.9734 38.1005 60.9761C38.098 60.9775 38.0965 60.9784 38.0953 60.9789C38.0949 60.9793 38.0944 60.9793 38.0944 60.9793C38.0944 60.9796 38.0944 60.9796 38.0944 60.9793C38.0944 60.9793 38.0944 60.9793 38.0947 60.9793C38.0947 60.9793 38.0947 60.9793 38.145 61.0816ZM38.2575 61.196V61.0816H38.0326V61.196H38.2575ZM38.8196 61.0816H38.145V61.3103H38.8196V61.0816ZM38.7072 57.09V61.196H38.9321V57.09H38.7072ZM38.9442 56.9886L38.8318 56.9763L38.8075 57.2037L38.9199 57.216L38.9442 56.9886ZM39.0445 61.196V57.1023H38.8196V61.196H39.0445ZM39.6067 61.0816H38.9321V61.3103H39.6067V61.0816ZM39.7191 61.9966V61.196H39.4942V61.9966H39.7191ZM40.1688 62.4541C40.0479 62.4541 39.9649 62.4237 39.9062 62.3839C39.8468 62.3439 39.8059 62.2894 39.7776 62.2313C39.7488 62.173 39.7339 62.1133 39.7263 62.0671C39.7227 62.0444 39.7209 62.0257 39.72 62.0131C39.7195 62.0067 39.7193 62.0021 39.7191 61.9991C39.7191 61.9978 39.7191 61.9968 39.7191 61.9964C39.7191 61.9962 39.7191 61.9962 39.7191 61.9962C39.7191 61.9964 39.7191 61.9964 39.7191 61.9964C39.7191 61.9964 39.7191 61.9964 39.7191 61.9966C39.7191 61.9966 39.7191 61.9966 39.6067 61.9966C39.4942 61.9966 39.4942 61.9966 39.4942 61.9969V61.9971C39.4942 61.9973 39.4942 61.9975 39.4942 61.998C39.4942 61.9985 39.4942 61.9991 39.4942 62.0001C39.4942 62.0019 39.4942 62.0042 39.4945 62.0069C39.4947 62.0124 39.4949 62.02 39.4956 62.0293C39.4969 62.0481 39.4994 62.0739 39.5046 62.1048C39.5145 62.1659 39.5347 62.2492 39.5763 62.3338C39.6181 62.4187 39.6827 62.5072 39.7814 62.5742C39.881 62.6417 40.0087 62.6829 40.1688 62.6829V62.4541ZM40.731 61.9966C40.6186 61.9966 40.6186 61.9966 40.6186 61.9966C40.6186 61.9964 40.6186 61.9964 40.6186 61.9964C40.6186 61.9964 40.6186 61.9964 40.6186 61.9962C40.6186 61.9962 40.6186 61.9962 40.6186 61.9964C40.6186 61.9968 40.6186 61.9978 40.6186 61.9991C40.6183 62.0021 40.6181 62.0067 40.6177 62.0131C40.6168 62.0257 40.615 62.0444 40.6114 62.0671C40.6037 62.1133 40.5889 62.173 40.5601 62.2313C40.5318 62.2894 40.4908 62.3439 40.4315 62.3839C40.3728 62.4237 40.2898 62.4541 40.1688 62.4541V62.6829C40.3289 62.6829 40.4567 62.6417 40.5563 62.5742C40.655 62.5072 40.7195 62.4187 40.7614 62.3338C40.803 62.2492 40.8232 62.1659 40.8331 62.1048C40.8383 62.0739 40.8407 62.0481 40.8421 62.0293C40.8428 62.02 40.843 62.0124 40.8432 62.0069C40.8434 62.0042 40.8434 62.0019 40.8434 62.0001C40.8434 61.9991 40.8434 61.9985 40.8434 61.998C40.8434 61.9975 40.8434 61.9973 40.8434 61.9971V61.9969C40.8434 61.9966 40.8434 61.9966 40.731 61.9966ZM40.6186 60.0522V61.9966H40.8434V60.0522H40.6186ZM40.1688 59.709C40.4139 59.709 40.5172 59.8053 40.5655 59.884C40.5918 59.9268 40.6053 59.9705 40.612 60.0039C40.6154 60.0206 40.6172 60.0339 40.6179 60.0428C40.6183 60.0469 40.6186 60.0501 40.6186 60.0517C40.6186 60.0526 40.6186 60.0531 40.6186 60.0531C40.6186 60.0533 40.6186 60.0531 40.6186 60.0531C40.6186 60.0529 40.6186 60.0529 40.6186 60.0526V60.0524C40.6186 60.0522 40.6186 60.0522 40.731 60.0522C40.8434 60.0522 40.8434 60.0522 40.8434 60.0519C40.8434 60.0517 40.8434 60.0517 40.8434 60.0515C40.8434 60.0513 40.8434 60.051 40.8434 60.0508C40.8434 60.0501 40.8434 60.0494 40.8434 60.0485C40.8434 60.0469 40.8432 60.0449 40.8432 60.0423C40.843 60.0373 40.8425 60.0304 40.8419 60.0224C40.8405 60.006 40.8376 59.9838 40.8322 59.9575C40.8216 59.9051 40.8 59.8344 40.756 59.7628C40.6638 59.6127 40.4859 59.4803 40.1688 59.4803V59.709ZM39.6067 60.0522C39.7191 60.0522 39.7191 60.0522 39.7191 60.0524V60.0526C39.7191 60.0529 39.7191 60.0529 39.7191 60.0531C39.7191 60.0531 39.7191 60.0533 39.7191 60.0531C39.7191 60.0531 39.7191 60.0526 39.7191 60.0517C39.7191 60.0501 39.7193 60.0469 39.7198 60.0428C39.7205 60.0339 39.7222 60.0206 39.7256 60.0039C39.7324 59.9705 39.7459 59.9268 39.7722 59.884C39.8205 59.8053 39.9237 59.709 40.1688 59.709V59.4803C39.8518 59.4803 39.6739 59.6127 39.5817 59.7628C39.5376 59.8344 39.516 59.9051 39.5055 59.9575C39.5001 59.9838 39.4972 60.006 39.4958 60.0224C39.4951 60.0304 39.4947 60.0373 39.4945 60.0423C39.4945 60.0449 39.4942 60.0469 39.4942 60.0485C39.4942 60.0494 39.4942 60.0501 39.4942 60.0508C39.4942 60.051 39.4942 60.0513 39.4942 60.0515C39.4942 60.0517 39.4942 60.0517 39.4942 60.0519C39.4942 60.0522 39.4942 60.0522 39.6067 60.0522ZM39.7191 61.0816V60.0522H39.4942V61.0816H39.7191ZM39.1688 60.7897C39.2347 60.9237 39.3321 61.0217 39.4099 61.085C39.4493 61.117 39.4848 61.1413 39.5109 61.1575C39.5239 61.1658 39.5347 61.1719 39.5426 61.1763C39.5464 61.1786 39.5495 61.1802 39.5518 61.1816C39.5531 61.1822 39.554 61.1827 39.5547 61.1832C39.5552 61.1832 39.5554 61.1834 39.5558 61.1836C39.5558 61.1836 39.5561 61.1836 39.5561 61.1838H39.5563C39.5563 61.1838 39.5563 61.1838 39.6067 61.0816C39.657 60.9793 39.657 60.9793 39.657 60.9793C39.6573 60.9793 39.6573 60.9793 39.6573 60.9793C39.6573 60.9796 39.6573 60.9796 39.6573 60.9793C39.6573 60.9793 39.6568 60.9793 39.6564 60.9789C39.6552 60.9784 39.6537 60.9775 39.6512 60.9761C39.6462 60.9734 39.6384 60.9688 39.6287 60.9626C39.6091 60.9505 39.5813 60.9318 39.5504 60.9066C39.4877 60.8556 39.4164 60.7819 39.3699 60.6872L39.1688 60.7897ZM39.0445 57.1273C39.0447 57.337 39.0467 58.1873 39.0618 59.0122C39.0692 59.4247 39.08 59.8314 39.0955 60.1492C39.1032 60.3077 39.1122 60.4454 39.1228 60.5509C39.1279 60.6035 39.1338 60.6497 39.1401 60.6872C39.1459 60.7206 39.1542 60.7597 39.1688 60.7897L39.3699 60.6872C39.3715 60.6906 39.3674 60.6815 39.3616 60.6476C39.3564 60.6179 39.3514 60.5779 39.3465 60.528C39.3366 60.428 39.3278 60.2949 39.3202 60.1377C39.3047 59.8236 39.2941 59.4197 39.2867 59.0081C39.2716 58.1853 39.2696 57.3364 39.2694 57.127L39.0445 57.1273ZM42.5637 57.3874L39.1691 57.0134L39.1448 57.2407L42.5394 57.6148L42.5637 57.3874ZM49.3785 61.7667C46.665 61.7185 44.106 60.0648 42.6494 57.4448L42.4537 57.5573C43.9448 60.2395 46.5724 61.9456 49.3745 61.9955L49.3785 61.7667ZM49.3765 63.9923C49.3927 63.9594 49.4015 63.9138 49.4078 63.874C49.4149 63.8294 49.421 63.7734 49.4269 63.7091C49.4381 63.5803 49.4478 63.4115 49.4559 63.2191C49.4721 62.8336 49.4824 62.3475 49.4889 61.8827L49.2641 61.8795C49.2575 62.3434 49.2472 62.827 49.2312 63.2093C49.2231 63.4005 49.2137 63.5652 49.2029 63.6887C49.1973 63.7505 49.1917 63.8006 49.1858 63.8379C49.1791 63.8802 49.1741 63.8926 49.1755 63.8898L49.3765 63.9923ZM48.9387 64.2842C48.989 64.3865 48.989 64.3865 48.989 64.3865H48.9893C48.9893 64.3862 48.9895 64.3862 48.9895 64.3862C48.9899 64.386 48.9902 64.3858 48.9906 64.3858C48.9913 64.3853 48.9922 64.3849 48.9935 64.3842C48.9958 64.3828 48.9989 64.3812 49.0028 64.3789C49.0106 64.3746 49.0214 64.3684 49.0345 64.3602C49.0606 64.3439 49.0961 64.3197 49.1354 64.2876C49.2132 64.2243 49.3106 64.1264 49.3765 63.9923L49.1755 63.8898C49.1289 63.9845 49.0576 64.0582 48.9949 64.1092C48.9641 64.1344 48.9362 64.1531 48.9166 64.1652C48.907 64.1714 48.8991 64.176 48.8942 64.1787C48.8917 64.1801 48.8901 64.181 48.889 64.1815C48.8885 64.1819 48.8881 64.1819 48.8881 64.1819C48.8881 64.1822 48.8881 64.1822 48.8881 64.1819C48.8881 64.1819 48.8881 64.1819 48.8883 64.1819C48.8883 64.1819 48.8883 64.1819 48.9387 64.2842ZM49.0511 64.3986V64.2842H48.8262V64.3986H49.0511ZM49.5008 64.2842H48.9387V64.513H49.5008V64.2842ZM49.6133 64.2842H49.5008V64.513H49.6133V64.2842ZM50.1754 64.2842H49.6133V64.513H50.1754V64.2842ZM50.063 64.2842V64.3986H50.2879V64.2842H50.063ZM49.7376 63.9923C49.8035 64.1264 49.9009 64.2243 49.9787 64.2876C50.018 64.3197 50.0536 64.3439 50.0797 64.3602C50.0927 64.3684 50.1035 64.3746 50.1114 64.3789C50.1152 64.3812 50.1183 64.3828 50.1206 64.3842C50.1219 64.3849 50.1228 64.3853 50.1235 64.3858C50.124 64.3858 50.1242 64.386 50.1246 64.3862C50.1246 64.3862 50.1249 64.3862 50.1249 64.3865H50.1251C50.1251 64.3865 50.1251 64.3865 50.1754 64.2842C50.2258 64.1819 50.2258 64.1819 50.2258 64.1819C50.226 64.1819 50.226 64.1819 50.226 64.1819C50.226 64.1822 50.226 64.1822 50.226 64.1819C50.226 64.1819 50.2256 64.1819 50.2251 64.1815C50.224 64.181 50.2224 64.1801 50.22 64.1787C50.215 64.176 50.2072 64.1714 50.1975 64.1652C50.1779 64.1531 50.15 64.1344 50.1192 64.1092C50.0565 64.0582 49.9852 63.9845 49.9387 63.8898L49.7376 63.9923ZM49.6252 61.88C49.6317 62.345 49.6421 62.8318 49.6583 63.2177C49.6663 63.4106 49.6758 63.5796 49.6873 63.7089C49.6929 63.7732 49.6992 63.8292 49.7064 63.874C49.7127 63.9136 49.7214 63.9594 49.7376 63.9923L49.9387 63.8898C49.94 63.8926 49.9351 63.8802 49.9283 63.8379C49.9225 63.8004 49.9166 63.7503 49.9112 63.6883C49.9002 63.5645 49.891 63.3996 49.8829 63.2081C49.8669 62.8252 49.8566 62.3411 49.8501 61.8765L49.6252 61.88ZM56.4322 57.4473C54.9629 60.03 52.4079 61.6734 49.7338 61.764L49.7412 61.9925C52.5013 61.8992 55.123 60.2054 56.6269 57.5619L56.4322 57.4473ZM59.9451 57.0134L56.5174 57.391L56.5417 57.6184L59.9693 57.2407L59.9451 57.0134ZM59.9453 60.7897C59.9599 60.7597 59.9682 60.7206 59.9741 60.6872C59.9804 60.6497 59.9862 60.6035 59.9914 60.5509C60.0019 60.4454 60.0109 60.3077 60.0186 60.1492C60.0341 59.8314 60.0449 59.4247 60.0523 59.0122C60.0674 58.1873 60.0694 57.337 60.0696 57.1273L59.8448 57.127C59.8445 57.3364 59.8425 58.1853 59.8274 59.0081C59.82 59.4197 59.8095 59.8236 59.7939 60.1377C59.7863 60.2949 59.7775 60.428 59.7676 60.528C59.7627 60.5779 59.7577 60.6179 59.7526 60.6476C59.7467 60.6815 59.7427 60.6906 59.7442 60.6872L59.9453 60.7897ZM59.5075 61.0816C59.5578 61.1838 59.5578 61.1838 59.5578 61.1838H59.5581C59.5581 61.1836 59.5583 61.1836 59.5583 61.1836C59.5587 61.1834 59.559 61.1832 59.5594 61.1832C59.5601 61.1827 59.561 61.1822 59.5623 61.1816C59.5646 61.1802 59.5677 61.1786 59.5715 61.1763C59.5794 61.1719 59.5902 61.1658 59.6033 61.1575C59.6293 61.1413 59.6649 61.117 59.7042 61.085C59.782 61.0217 59.8794 60.9237 59.9453 60.7897L59.7442 60.6872C59.6977 60.7819 59.6264 60.8556 59.5637 60.9066C59.5329 60.9318 59.505 60.9505 59.4854 60.9626C59.4758 60.9688 59.4679 60.9734 59.4629 60.9761C59.4605 60.9775 59.4589 60.9784 59.4578 60.9789C59.4573 60.9793 59.4569 60.9793 59.4569 60.9793C59.4569 60.9796 59.4569 60.9796 59.4569 60.9793C59.4569 60.9793 59.4569 60.9793 59.4571 60.9793C59.4571 60.9793 59.4571 60.9793 59.5075 61.0816ZM59.395 60.0522V61.0816H59.6199V60.0522H59.395ZM58.9453 59.709C59.1904 59.709 59.2936 59.8053 59.342 59.884C59.3683 59.9268 59.3818 59.9705 59.3885 60.0039C59.3919 60.0206 59.3937 60.0339 59.3943 60.0428C59.3948 60.0469 59.395 60.0501 59.395 60.0517C59.395 60.0526 59.395 60.0531 59.395 60.0531C59.395 60.0533 59.395 60.0531 59.395 60.0531C59.395 60.0529 59.395 60.0529 59.395 60.0526V60.0524C59.395 60.0522 59.395 60.0522 59.5075 60.0522C59.6199 60.0522 59.6199 60.0522 59.6199 60.0519C59.6199 60.0517 59.6199 60.0517 59.6199 60.0515C59.6199 60.0513 59.6199 60.051 59.6199 60.0508C59.6199 60.0501 59.6199 60.0494 59.6199 60.0485C59.6199 60.0469 59.6197 60.0449 59.6197 60.0423C59.6194 60.0373 59.619 60.0304 59.6183 60.0224C59.617 60.006 59.614 59.9838 59.6086 59.9575C59.5981 59.9051 59.5765 59.8344 59.5324 59.7628C59.4402 59.6127 59.2624 59.4803 58.9453 59.4803V59.709ZM58.3831 60.0522C58.4956 60.0522 58.4956 60.0522 58.4956 60.0524V60.0526C58.4956 60.0529 58.4956 60.0529 58.4956 60.0531C58.4956 60.0531 58.4956 60.0533 58.4956 60.0531C58.4956 60.0531 58.4956 60.0526 58.4956 60.0517C58.4956 60.0501 58.4958 60.0469 58.4962 60.0428C58.4969 60.0339 58.4987 60.0206 58.5021 60.0039C58.5088 59.9705 58.5223 59.9268 58.5486 59.884C58.597 59.8053 58.7002 59.709 58.9453 59.709V59.4803C58.6282 59.4803 58.4504 59.6127 58.3582 59.7628C58.3141 59.8344 58.2925 59.9051 58.2819 59.9575C58.2765 59.9838 58.2736 60.006 58.2723 60.0224C58.2716 60.0304 58.2711 60.0373 58.2709 60.0423C58.2709 60.0449 58.2707 60.0469 58.2707 60.0485C58.2707 60.0494 58.2707 60.0501 58.2707 60.0508C58.2707 60.051 58.2707 60.0513 58.2707 60.0515C58.2707 60.0517 58.2707 60.0517 58.2707 60.0519C58.2707 60.0522 58.2707 60.0522 58.3831 60.0522ZM58.4956 61.9966V60.0522H58.2707V61.9966H58.4956ZM58.9453 62.4541C58.8243 62.4541 58.7413 62.4237 58.6826 62.3839C58.6233 62.3439 58.5824 62.2894 58.554 62.2313C58.5252 62.173 58.5104 62.1133 58.5027 62.0671C58.4992 62.0444 58.4974 62.0257 58.4965 62.0131C58.496 62.0067 58.4958 62.0021 58.4956 61.9991C58.4956 61.9978 58.4956 61.9968 58.4956 61.9964C58.4956 61.9962 58.4956 61.9962 58.4956 61.9962C58.4956 61.9964 58.4956 61.9964 58.4956 61.9964C58.4956 61.9964 58.4956 61.9964 58.4956 61.9966C58.4956 61.9966 58.4956 61.9966 58.3831 61.9966C58.2707 61.9966 58.2707 61.9966 58.2707 61.9969V61.9971C58.2707 61.9973 58.2707 61.9975 58.2707 61.998C58.2707 61.9985 58.2707 61.9991 58.2707 62.0001C58.2707 62.0019 58.2707 62.0042 58.2709 62.0069C58.2711 62.0124 58.2714 62.02 58.272 62.0293C58.2734 62.0481 58.2759 62.0739 58.281 62.1048C58.2909 62.1659 58.3112 62.2492 58.3528 62.3338C58.3946 62.4187 58.4591 62.5072 58.5578 62.5742C58.6575 62.6417 58.7852 62.6829 58.9453 62.6829V62.4541ZM59.5075 61.9966C59.395 61.9966 59.395 61.9966 59.395 61.9966C59.395 61.9964 59.395 61.9964 59.395 61.9964C59.395 61.9964 59.395 61.9964 59.395 61.9962C59.395 61.9962 59.395 61.9962 59.395 61.9964C59.395 61.9968 59.395 61.9978 59.395 61.9991C59.3948 62.0021 59.3946 62.0067 59.3941 62.0131C59.3932 62.0257 59.3914 62.0444 59.3878 62.0671C59.3802 62.1133 59.3653 62.173 59.3366 62.2313C59.3082 62.2894 59.2673 62.3439 59.2079 62.3839C59.1492 62.4237 59.0663 62.4541 58.9453 62.4541V62.6829C59.1054 62.6829 59.2331 62.6417 59.3327 62.5742C59.4315 62.5072 59.496 62.4187 59.5378 62.3338C59.5794 62.2492 59.5997 62.1659 59.6095 62.1048C59.6147 62.0739 59.6172 62.0481 59.6185 62.0293C59.6192 62.02 59.6194 62.0124 59.6197 62.0069C59.6199 62.0042 59.6199 62.0019 59.6199 62.0001C59.6199 61.9991 59.6199 61.9985 59.6199 61.998C59.6199 61.9975 59.6199 61.9973 59.6199 61.9971V61.9969C59.6199 61.9966 59.6199 61.9966 59.5075 61.9966ZM59.395 61.196V61.9966H59.6199V61.196H59.395ZM60.1821 61.0816H59.5075V61.3103H60.1821V61.0816ZM60.0696 57.1023V61.196H60.2945V57.1023H60.0696ZM60.2824 56.9763L60.1699 56.9886L60.1942 57.216L60.3066 57.2037L60.2824 56.9763ZM60.4069 61.196V57.09H60.1821V61.196H60.4069ZM60.9691 61.0816H60.2945V61.3103H60.9691V61.0816ZM60.8567 61.0816V61.196H61.0815V61.0816H60.8567ZM60.5313 60.7897C60.5972 60.9237 60.6945 61.0217 60.7723 61.085C60.8117 61.117 60.8472 61.1413 60.8733 61.1575C60.8863 61.1658 60.8971 61.1719 60.905 61.1763C60.9088 61.1786 60.912 61.1802 60.9142 61.1816C60.9156 61.1822 60.9165 61.1827 60.9172 61.1832C60.9176 61.1832 60.9178 61.1834 60.9183 61.1836C60.9183 61.1836 60.9185 61.1836 60.9185 61.1838H60.9187C60.9187 61.1838 60.9187 61.1838 60.9691 61.0816C61.0195 60.9793 61.0195 60.9793 61.0195 60.9793C61.0197 60.9793 61.0197 60.9793 61.0197 60.9793C61.0197 60.9796 61.0197 60.9796 61.0197 60.9793C61.0197 60.9793 61.0192 60.9793 61.0188 60.9789C61.0177 60.9784 61.0161 60.9775 61.0136 60.9761C61.0087 60.9734 61.0008 60.9688 60.9911 60.9626C60.9716 60.9505 60.9437 60.9318 60.9129 60.9066C60.8501 60.8556 60.7789 60.7819 60.7323 60.6872L60.5313 60.7897ZM60.5194 57.0783C60.4069 57.0783 60.4069 57.0783 60.4069 57.0783C60.4069 57.0783 60.4069 57.0783 60.4069 57.0785C60.4069 57.0785 60.4069 57.0788 60.4069 57.079C60.4069 57.0795 60.4069 57.0799 60.4069 57.0808C60.4069 57.0824 60.4069 57.085 60.4069 57.0882C60.4069 57.0948 60.4069 57.1044 60.4069 57.117C60.4069 57.1424 60.4069 57.1792 60.4072 57.2266C60.4074 57.3208 60.4078 57.456 60.4087 57.6186C60.4105 57.9442 60.4139 58.3806 60.4211 58.8244C60.4281 59.268 60.4386 59.7198 60.4544 60.0753C60.4625 60.2528 60.4717 60.4079 60.4827 60.5262C60.4883 60.5854 60.4944 60.6369 60.5012 60.6785C60.5072 60.7153 60.5158 60.7581 60.5313 60.7897L60.7323 60.6872C60.7339 60.6902 60.7292 60.6794 60.7229 60.6408C60.7172 60.6069 60.7118 60.5614 60.7067 60.5047C60.6961 60.3917 60.6869 60.2411 60.679 60.0648C60.6633 59.7127 60.6529 59.2636 60.6457 58.8208C60.6388 58.3781 60.6354 57.9423 60.6336 57.6175C60.6327 57.4549 60.6322 57.3201 60.632 57.2259C60.6318 57.1787 60.6318 57.1419 60.6318 57.1168C60.6318 57.1042 60.6318 57.0946 60.6318 57.0882C60.6318 57.085 60.6318 57.0824 60.6318 57.0808C60.6318 57.0799 60.6318 57.0792 60.6318 57.079C60.6318 57.0788 60.6318 57.0785 60.6318 57.0785C60.6318 57.0783 60.6318 57.0783 60.6318 57.0783C60.6318 57.0783 60.6318 57.0783 60.5194 57.0783ZM60.4004 57.1927H60.5194V56.9639H60.4004V57.1927ZM68.1925 56.105L60.3883 56.9646L60.4123 57.192L68.2168 56.3323L68.1925 56.105ZM67.2654 58.3365C67.2654 57.5059 67.6609 56.769 68.2715 56.3106L68.1379 56.1267C67.4725 56.6263 67.0405 57.4301 67.0405 58.3365H67.2654ZM69.7389 60.8528C68.3729 60.8528 67.2654 59.7262 67.2654 58.3365H67.0405C67.0405 59.8525 68.2487 61.0816 69.7389 61.0816V60.8528ZM72.2125 58.3365C72.2125 59.7262 71.105 60.8528 69.7389 60.8528V61.0816C71.2291 61.0816 72.4374 59.8525 72.4374 58.3365H72.2125ZM70.7472 56.0379C71.611 56.4307 72.2125 57.3123 72.2125 58.3365H72.4374C72.4374 57.2188 71.7807 56.2573 70.839 55.8291L70.7472 56.0379ZM91.539 53.5332L70.781 55.8199L70.805 56.0473L91.5632 53.7607L91.539 53.5332ZM91.776 53.0751C91.776 53.208 91.7103 53.3252 91.6343 53.4152C91.5972 53.4593 91.5599 53.4942 91.5318 53.518C91.5178 53.5298 91.5066 53.5387 91.4989 53.5444C91.4951 53.5473 91.4922 53.5494 91.4904 53.5506C91.4895 53.5512 91.489 53.5516 91.4886 53.5518C91.4886 53.5519 91.4884 53.552 91.4884 53.552C91.4884 53.552 91.4886 53.5519 91.4886 53.5519C91.4886 53.5519 91.4886 53.5519 91.4886 53.5519V53.5518C91.4888 53.5518 91.4888 53.5518 91.5511 53.6469C91.6134 53.7421 91.6134 53.7421 91.6136 53.7421C91.6136 53.7421 91.6136 53.742 91.6136 53.742C91.6136 53.742 91.6136 53.7419 91.6138 53.7419C91.6138 53.7418 91.6141 53.7417 91.6143 53.7416C91.6145 53.7414 91.615 53.7411 91.6154 53.7407C91.6165 53.7401 91.6177 53.7391 91.6195 53.738C91.6226 53.7357 91.6269 53.7325 91.6323 53.7285C91.6431 53.7204 91.6581 53.7087 91.6757 53.6937C91.711 53.6639 91.758 53.6201 91.8052 53.5641C91.8979 53.4539 92.0008 53.2853 92.0008 53.0751H91.776ZM91.5511 52.6175C91.5156 52.726 91.5156 52.726 91.5154 52.726V52.726C91.5154 52.726 91.5154 52.7259 91.5151 52.7259C91.5151 52.7259 91.5151 52.7259 91.5151 52.7259C91.5149 52.7258 91.5149 52.7258 91.5149 52.7259C91.5151 52.7259 91.5156 52.726 91.5163 52.7263C91.5176 52.7268 91.5201 52.7277 91.5235 52.7291C91.5302 52.732 91.5408 52.7365 91.5536 52.7431C91.5794 52.7563 91.6138 52.7767 91.6478 52.8055C91.7148 52.8623 91.776 52.9471 91.776 53.0751H92.0008C92.0008 52.8599 91.8934 52.7159 91.7917 52.6297C91.7413 52.587 91.6914 52.5574 91.6541 52.5385C91.6354 52.5289 91.6195 52.5219 91.6078 52.5171C91.6019 52.5147 91.5972 52.5129 91.5936 52.5115C91.5918 52.5108 91.5902 52.5103 91.5891 52.5099C91.5887 52.5097 91.588 52.5095 91.5878 52.5094C91.5875 52.5093 91.5873 52.5092 91.5871 52.5092C91.5871 52.5091 91.5869 52.5091 91.5869 52.5091C91.5869 52.5091 91.5869 52.5091 91.5869 52.5091C91.5866 52.509 91.5866 52.509 91.5511 52.6175ZM57.8203 52.7319H91.5511V52.5032H57.8203V52.7319ZM57.7085 52.5032C57.7085 52.5409 57.7083 52.5787 57.7078 52.6163L57.9327 52.6187C57.9332 52.5803 57.9334 52.5418 57.9334 52.5032H57.7085ZM57.0865 48.8356C57.4848 49.9893 57.7085 51.2306 57.7085 52.5032H57.9334C57.9334 51.2034 57.7049 49.9365 57.2988 48.7598L57.0865 48.8356ZM65.4559 47.9284L57.1826 48.6838L57.2028 48.9116L65.4761 48.1563L65.4559 47.9284ZM65.466 47.8141C65.466 47.8366 65.4534 47.8702 65.4289 47.9074C65.4179 47.9241 65.4069 47.9382 65.3983 47.9481C65.3943 47.953 65.3909 47.9567 65.3889 47.959C65.3877 47.9602 65.3871 47.961 65.3866 47.9614C65.3864 47.9615 65.3864 47.9617 65.3864 47.9617C65.3864 47.9617 65.3864 47.9616 65.3864 47.9616C65.3864 47.9615 65.3864 47.9615 65.3866 47.9615C65.3866 47.9615 65.3866 47.9614 65.3866 47.9614C65.3866 47.9614 65.3866 47.9614 65.3866 47.9614C65.3866 47.9614 65.3866 47.9613 65.466 48.0424C65.5454 48.1234 65.5454 48.1234 65.5454 48.1234C65.5454 48.1234 65.5454 48.1233 65.5454 48.1233C65.5454 48.1233 65.5456 48.1233 65.5456 48.1232C65.5456 48.1232 65.5456 48.1231 65.5458 48.123C65.5458 48.1228 65.5461 48.1226 65.5463 48.1224C65.5467 48.122 65.5472 48.1214 65.5479 48.1208C65.5492 48.1194 65.5508 48.1176 65.553 48.1154C65.5571 48.111 65.5625 48.1049 65.569 48.0973C65.5816 48.0822 65.5987 48.0606 65.616 48.0344C65.6477 47.9858 65.6913 47.905 65.6909 47.8132L65.466 47.8141ZM65.466 47.6992C65.4199 47.8036 65.4199 47.8036 65.4199 47.8036V47.8035V47.8035C65.4197 47.8035 65.4197 47.8035 65.4197 47.8035C65.4197 47.8034 65.4197 47.8034 65.4195 47.8034C65.4195 47.8034 65.4195 47.8034 65.4197 47.8035C65.4199 47.8036 65.4206 47.8039 65.4215 47.8043C65.4233 47.8053 65.4264 47.8068 65.43 47.8088C65.4377 47.8131 65.4473 47.8188 65.4561 47.8253C65.4656 47.8323 65.4707 47.8375 65.4723 47.8397C65.4743 47.8424 65.466 47.8332 65.466 47.8141L65.6909 47.8132C65.6906 47.7624 65.6682 47.7232 65.6493 47.6985C65.6297 47.6733 65.6068 47.6538 65.5881 47.6401C65.569 47.626 65.5503 47.615 65.5371 47.6076C65.5303 47.6039 65.5245 47.6009 65.5202 47.5988C65.518 47.5977 65.5161 47.5968 65.5148 47.5962C65.5141 47.5959 65.5137 47.5956 65.5132 47.5954C65.5128 47.5953 65.5128 47.5952 65.5125 47.5951C65.5123 47.5951 65.5123 47.595 65.5123 47.595C65.5121 47.595 65.5121 47.5949 65.5121 47.5949V47.5949C65.5121 47.5949 65.5121 47.5949 65.466 47.6992ZM56.7499 47.8136H65.466V47.5849H56.7499V47.8136ZM50.4752 42.408C53.0018 42.8448 55.3461 44.9372 56.6483 47.748L56.8518 47.6505C55.5273 44.7916 53.1307 42.635 50.5128 42.1824L50.4752 42.408ZM49.7585 31.4239C49.7448 31.4099 49.739 31.3961 49.7381 31.394C49.737 31.3917 49.7363 31.3899 49.7361 31.389C49.7356 31.388 49.7356 31.3874 49.7356 31.3874C49.7354 31.3873 49.7358 31.3883 49.7363 31.3906C49.7367 31.3928 49.7374 31.3958 49.7383 31.3997C49.7412 31.4159 49.7451 31.441 49.7493 31.4758C49.7581 31.545 49.768 31.6451 49.779 31.7732C49.8013 32.0292 49.8276 32.3921 49.8568 32.8318C49.9153 33.711 49.9848 34.8942 50.0545 36.1353C50.1934 38.6175 50.3324 41.3298 50.3817 42.3011L50.6063 42.2893C50.557 41.318 50.4181 38.6051 50.2789 36.1223C50.2094 34.881 50.1397 33.6968 50.0812 32.8164C50.052 32.3763 50.0255 32.0115 50.003 31.7532C49.992 31.6242 49.9816 31.5206 49.9724 31.4471C49.9679 31.4106 49.9634 31.3797 49.9589 31.3561C49.9567 31.3445 49.954 31.3322 49.9508 31.321C49.949 31.3155 49.9465 31.308 49.9432 31.3C49.9405 31.2942 49.933 31.2777 49.9178 31.2621L49.7585 31.4239ZM49.6133 31.2286C49.6133 31.343 49.6133 31.343 49.6131 31.343H49.6128C49.6128 31.343 49.6126 31.343 49.6124 31.343C49.6122 31.343 49.6119 31.343 49.6117 31.343C49.6115 31.343 49.611 31.343 49.611 31.343C49.6106 31.343 49.6106 31.343 49.6108 31.343C49.6115 31.343 49.6135 31.3432 49.6167 31.3437C49.6232 31.3446 49.634 31.3467 49.6479 31.3515C49.6756 31.3608 49.7163 31.3807 49.7585 31.4239L49.9178 31.2621C49.8476 31.191 49.7759 31.1537 49.7192 31.1344C49.6909 31.1249 49.6668 31.1198 49.6486 31.1172C49.6394 31.1159 49.6317 31.1151 49.6259 31.1147C49.6229 31.1145 49.6203 31.1144 49.6182 31.1144C49.6171 31.1143 49.6162 31.1143 49.6153 31.1143C49.6151 31.1143 49.6146 31.1143 49.6142 31.1143C49.6142 31.1143 49.614 31.1143 49.6137 31.1143C49.6137 31.1143 49.6135 31.1143 49.6135 31.1143V31.1143C49.6133 31.1143 49.6133 31.1143 49.6133 31.2286ZM49.7257 42.2102V31.2286H49.5008V42.2102H49.7257ZM49.5008 42.3234C49.5375 42.3234 49.5744 42.3238 49.611 42.3245L49.6155 42.0958C49.5773 42.095 49.5391 42.0947 49.5008 42.0947V42.3234ZM30.4995 58.3365C30.4995 58.9681 29.996 59.4803 29.3752 59.4803V59.709C30.1204 59.709 30.7244 59.0946 30.7244 58.3365H30.4995ZM29.3752 57.1927C29.996 57.1927 30.4995 57.7049 30.4995 58.3365H30.7244C30.7244 57.5784 30.1204 56.9639 29.3752 56.9639V57.1927ZM28.2508 58.3365C28.2508 57.7049 28.7542 57.1927 29.3752 57.1927V56.9639C28.63 56.9639 28.026 57.5784 28.026 58.3365H28.2508ZM29.3752 59.4803C28.7542 59.4803 28.2508 58.9681 28.2508 58.3365H28.026C28.026 59.0946 28.63 59.709 29.3752 59.709V59.4803ZM36.7958 60.1666V62.111H37.0207V60.1666H36.7958ZM37.4704 59.5947C37.1534 59.5947 36.9755 59.7271 36.8833 59.8772C36.8392 59.9488 36.8176 60.0195 36.8071 60.0718C36.8017 60.0982 36.7987 60.1203 36.7974 60.1368C36.7967 60.1448 36.7963 60.1517 36.796 60.1567C36.796 60.1592 36.7958 60.1613 36.7958 60.1629C36.7958 60.1638 36.7958 60.1645 36.7958 60.1652C36.7958 60.1654 36.7958 60.1656 36.7958 60.1659C36.7958 60.1661 36.7958 60.1661 36.7958 60.1663C36.7958 60.1666 36.7958 60.1666 36.9083 60.1666C37.0207 60.1666 37.0207 60.1666 37.0207 60.1668V60.167C37.0207 60.1672 37.0207 60.1672 37.0207 60.1675C37.0207 60.1675 37.0207 60.1677 37.0207 60.1675C37.0207 60.1675 37.0207 60.167 37.0207 60.1661C37.0207 60.1645 37.0209 60.1613 37.0214 60.1572C37.022 60.1483 37.0238 60.135 37.0272 60.1183C37.034 60.0849 37.0474 60.0412 37.0738 59.9984C37.1221 59.9197 37.2253 59.8234 37.4704 59.8234V59.5947ZM38.0326 60.1666C38.145 60.1666 38.145 60.1666 38.145 60.1663C38.145 60.1661 38.145 60.1661 38.145 60.1659C38.145 60.1656 38.145 60.1654 38.145 60.1652C38.145 60.1645 38.145 60.1638 38.145 60.1629C38.145 60.1613 38.1448 60.1592 38.1448 60.1567C38.1446 60.1517 38.1441 60.1448 38.1435 60.1368C38.1421 60.1203 38.1392 60.0982 38.1338 60.0718C38.1232 60.0195 38.1016 59.9488 38.0576 59.8772C37.9654 59.7271 37.7875 59.5947 37.4704 59.5947V59.8234C37.7155 59.8234 37.8187 59.9197 37.8671 59.9984C37.8934 60.0412 37.9069 60.0849 37.9136 60.1183C37.917 60.135 37.9188 60.1483 37.9195 60.1572C37.9199 60.1613 37.9202 60.1645 37.9202 60.1661C37.9202 60.167 37.9202 60.1675 37.9202 60.1675C37.9202 60.1677 37.9202 60.1675 37.9202 60.1675C37.9202 60.1672 37.9202 60.1672 37.9202 60.167V60.1668C37.9202 60.1666 37.9202 60.1666 38.0326 60.1666ZM38.145 62.111V60.1666H37.9202V62.111H38.145ZM37.4704 62.7973C37.6305 62.7973 37.7583 62.7561 37.8579 62.6886C37.9566 62.6216 38.0211 62.5331 38.0629 62.4482C38.1045 62.3635 38.1248 62.2803 38.1347 62.2192C38.1399 62.1883 38.1423 62.1625 38.1437 62.1437C38.1444 62.1343 38.1446 62.1268 38.1448 62.1213C38.145 62.1185 38.145 62.1163 38.145 62.1144C38.145 62.1135 38.145 62.1128 38.145 62.1124C38.145 62.1119 38.145 62.1117 38.145 62.1115V62.1112C38.145 62.111 38.145 62.111 38.0326 62.111C37.9202 62.111 37.9202 62.111 37.9202 62.111C37.9202 62.1108 37.9202 62.1108 37.9202 62.1108C37.9202 62.1108 37.9202 62.1108 37.9202 62.1105C37.9202 62.1105 37.9202 62.1105 37.9202 62.1108C37.9202 62.1112 37.9202 62.1121 37.9202 62.1135C37.9199 62.1165 37.9197 62.1211 37.9193 62.1275C37.9184 62.1401 37.9166 62.1588 37.913 62.1815C37.9053 62.2277 37.8905 62.2874 37.8617 62.3457C37.8334 62.4038 37.7924 62.4583 37.7331 62.4983C37.6744 62.5381 37.5914 62.5685 37.4704 62.5685V62.7973ZM36.9083 62.111C36.7958 62.111 36.7958 62.111 36.7958 62.1112V62.1115C36.7958 62.1117 36.7958 62.1119 36.7958 62.1124C36.7958 62.1128 36.7958 62.1135 36.7958 62.1144C36.7958 62.1163 36.7958 62.1185 36.796 62.1213C36.7963 62.1268 36.7965 62.1343 36.7972 62.1437C36.7985 62.1625 36.801 62.1883 36.8062 62.2192C36.8161 62.2803 36.8363 62.3635 36.8779 62.4482C36.9197 62.5331 36.9843 62.6216 37.083 62.6886C37.1826 62.7561 37.3103 62.7973 37.4704 62.7973V62.5685C37.3494 62.5685 37.2665 62.5381 37.2078 62.4983C37.1484 62.4583 37.1075 62.4038 37.0792 62.3457C37.0504 62.2874 37.0355 62.2277 37.0279 62.1815C37.0243 62.1588 37.0225 62.1401 37.0216 62.1275C37.0211 62.1211 37.0209 62.1165 37.0207 62.1135C37.0207 62.1121 37.0207 62.1112 37.0207 62.1108C37.0207 62.1105 37.0207 62.1105 37.0207 62.1105C37.0207 62.1108 37.0207 62.1108 37.0207 62.1108C37.0207 62.1108 37.0207 62.1108 37.0207 62.111C37.0207 62.111 37.0207 62.111 36.9083 62.111ZM47.5895 63.3692V65.3136H47.8143V63.3692H47.5895ZM48.2641 62.7973C47.947 62.7973 47.7691 62.9297 47.6769 63.0798C47.6329 63.1514 47.6113 63.2221 47.6007 63.2745C47.5953 63.3008 47.5924 63.323 47.591 63.3394C47.5904 63.3474 47.5899 63.3543 47.5897 63.3593C47.5897 63.3619 47.5895 63.3639 47.5895 63.3655C47.5895 63.3664 47.5895 63.3671 47.5895 63.3678C47.5895 63.368 47.5895 63.3683 47.5895 63.3685C47.5895 63.3687 47.5895 63.3687 47.5895 63.3689C47.5895 63.3692 47.5895 63.3692 47.7019 63.3692C47.8143 63.3692 47.8143 63.3692 47.8143 63.3694V63.3696C47.8143 63.3699 47.8143 63.3699 47.8143 63.3701C47.8143 63.3701 47.8143 63.3696 47.8143 63.3687C47.8143 63.3671 47.8146 63.3639 47.815 63.3598C47.8157 63.3509 47.8175 63.3376 47.8209 63.3209C47.8276 63.2875 47.8411 63.2438 47.8674 63.201C47.9158 63.1223 48.019 63.026 48.2641 63.026V62.7973ZM48.8262 63.3692C48.9387 63.3692 48.9387 63.3692 48.9387 63.3689C48.9387 63.3687 48.9387 63.3687 48.9387 63.3685C48.9387 63.3683 48.9387 63.368 48.9387 63.3678C48.9387 63.3671 48.9387 63.3664 48.9387 63.3655C48.9387 63.3639 48.9385 63.3619 48.9385 63.3593C48.9382 63.3543 48.9378 63.3474 48.9371 63.3394C48.9358 63.323 48.9328 63.3008 48.9274 63.2745C48.9169 63.2221 48.8953 63.1514 48.8512 63.0798C48.759 62.9297 48.5811 62.7973 48.2641 62.7973V63.026C48.5092 63.026 48.6124 63.1223 48.6607 63.201C48.6871 63.2438 48.7005 63.2875 48.7073 63.3209C48.7107 63.3376 48.7125 63.3509 48.7131 63.3598C48.7136 63.3639 48.7138 63.3671 48.7138 63.3687C48.7138 63.3696 48.7138 63.3701 48.7138 63.3701C48.7138 63.3699 48.7138 63.3699 48.7138 63.3696V63.3694C48.7138 63.3692 48.7138 63.3692 48.8262 63.3692ZM48.9387 65.3136V63.3692H48.7138V65.3136H48.9387ZM48.2641 65.9999C48.4242 65.9999 48.5519 65.9587 48.6515 65.8912C48.7502 65.8242 48.8148 65.7357 48.8566 65.6508C48.8982 65.5662 48.9184 65.4829 48.9283 65.4218C48.9335 65.3909 48.936 65.3651 48.9373 65.3463C48.938 65.337 48.9382 65.3294 48.9385 65.3239C48.9387 65.3212 48.9387 65.3189 48.9387 65.317C48.9387 65.3161 48.9387 65.3154 48.9387 65.315C48.9387 65.3145 48.9387 65.3143 48.9387 65.3141V65.3138C48.9387 65.3136 48.9387 65.3136 48.8262 65.3136C48.7138 65.3136 48.7138 65.3136 48.7138 65.3136C48.7138 65.3134 48.7138 65.3134 48.7138 65.3134C48.7138 65.3134 48.7138 65.3134 48.7138 65.3132C48.7138 65.3132 48.7138 65.3132 48.7138 65.3134C48.7138 65.3138 48.7138 65.3148 48.7138 65.3161C48.7136 65.3191 48.7134 65.3237 48.7129 65.3301C48.712 65.3427 48.7102 65.3614 48.7066 65.3841C48.699 65.4303 48.6841 65.49 48.6553 65.5483C48.627 65.6064 48.5861 65.6609 48.5267 65.7009C48.468 65.7407 48.3851 65.7711 48.2641 65.7711V65.9999ZM47.7019 65.3136C47.5895 65.3136 47.5895 65.3136 47.5895 65.3138V65.3141C47.5895 65.3143 47.5895 65.3145 47.5895 65.315C47.5895 65.3154 47.5895 65.3161 47.5895 65.317C47.5895 65.3189 47.5895 65.3212 47.5897 65.3239C47.5899 65.3294 47.5901 65.337 47.5908 65.3463C47.5922 65.3651 47.5946 65.3909 47.5998 65.4218C47.6097 65.4829 47.6299 65.5662 47.6715 65.6508C47.7134 65.7357 47.7779 65.8242 47.8766 65.8912C47.9762 65.9587 48.104 65.9999 48.2641 65.9999V65.7711C48.1431 65.7711 48.0601 65.7407 48.0014 65.7009C47.9421 65.6609 47.9011 65.6064 47.8728 65.5483C47.844 65.49 47.8292 65.4303 47.8215 65.3841C47.8179 65.3614 47.8161 65.3427 47.8152 65.3301C47.8148 65.3237 47.8146 65.3191 47.8143 65.3161C47.8143 65.3148 47.8143 65.3138 47.8143 65.3134C47.8143 65.3132 47.8143 65.3132 47.8143 65.3132C47.8143 65.3134 47.8143 65.3134 47.8143 65.3134C47.8143 65.3134 47.8143 65.3134 47.8143 65.3136C47.8143 65.3136 47.8143 65.3136 47.7019 65.3136ZM47.0383 49.0723C46.715 49.0401 46.299 48.9556 45.9608 48.8782C45.7923 48.8397 45.6444 48.8032 45.5385 48.7764C45.4856 48.763 45.4433 48.752 45.4143 48.7443C45.3997 48.7405 45.3885 48.7375 45.381 48.7355C45.3772 48.7345 45.3743 48.7337 45.3725 48.7332C45.3716 48.733 45.3707 48.7328 45.3702 48.7326C45.37 48.7326 45.37 48.7326 45.3698 48.7325V48.7325C45.3696 48.7325 45.3696 48.7325 45.3696 48.7325C45.3696 48.7325 45.3696 48.7325 45.3408 48.843C45.312 48.9536 45.312 48.9536 45.312 48.9536C45.312 48.9536 45.312 48.9536 45.3122 48.9536C45.3122 48.9537 45.3125 48.9537 45.3127 48.9538C45.3134 48.9539 45.314 48.9541 45.3152 48.9544C45.3172 48.955 45.3201 48.9558 45.3239 48.9568C45.3318 48.9589 45.3433 48.9619 45.3581 48.9658C45.3876 48.9736 45.4305 48.9847 45.484 48.9983C45.5913 49.0255 45.7408 49.0624 45.9115 49.1014C46.2511 49.1791 46.6783 49.2662 47.0163 49.3L47.0383 49.0723ZM48.9387 49.3005C48.9425 49.1862 48.9425 49.1862 48.9425 49.1862H48.9423C48.9421 49.1862 48.9418 49.1862 48.9416 49.1862C48.9412 49.1862 48.9403 49.1862 48.9391 49.1861C48.9369 49.186 48.9337 49.1859 48.9292 49.1858C48.9207 49.1855 48.9079 49.185 48.8912 49.1844C48.8579 49.1831 48.8096 49.1813 48.7491 49.1788C48.6284 49.1739 48.4595 49.1666 48.2677 49.157C47.8831 49.1377 47.4076 49.1092 47.0383 49.0723L47.0163 49.3C47.3911 49.3374 47.8715 49.3661 48.2564 49.3855C48.4494 49.3951 48.6189 49.4025 48.7401 49.4074C48.8008 49.4099 48.8494 49.4117 48.8829 49.413C48.8998 49.4136 48.9126 49.4141 48.9214 49.4144C48.9259 49.4145 48.9292 49.4146 48.9315 49.4147C48.9326 49.4148 48.9335 49.4148 48.934 49.4148C48.9342 49.4148 48.9344 49.4149 48.9346 49.4149H48.9349C48.9349 49.4149 48.9349 49.4149 48.9387 49.3005ZM49.1633 51.4677L49.0509 49.2945L48.8265 49.3066L48.9389 51.4798L49.1633 51.4677ZM46.5479 51.4697C47.1807 51.6453 47.8112 51.6741 48.2816 51.6596C48.5171 51.6523 48.7136 51.6341 48.8517 51.6177C48.9207 51.6095 48.9751 51.6018 49.0124 51.596C49.0311 51.5931 49.0455 51.5907 49.0554 51.589C49.0603 51.5882 49.0642 51.5875 49.0669 51.5871C49.0682 51.5868 49.0691 51.5866 49.07 51.5865C49.0702 51.5865 49.0707 51.5864 49.0709 51.5864C49.0709 51.5863 49.0709 51.5863 49.0711 51.5863C49.0711 51.5863 49.0711 51.5863 49.0711 51.5863C49.0711 51.5863 49.0711 51.5863 49.0511 51.4737C49.0311 51.3612 49.0311 51.3612 49.0311 51.3612C49.0311 51.3612 49.0311 51.3612 49.0309 51.3612C49.0309 51.3612 49.0306 51.3613 49.0304 51.3613C49.03 51.3614 49.0293 51.3615 49.0282 51.3617C49.0261 51.3621 49.0228 51.3627 49.0183 51.3634C49.0095 51.3649 48.9962 51.3671 48.9787 51.3698C48.9436 51.3752 48.8917 51.3826 48.8256 51.3905C48.6929 51.4063 48.5029 51.4239 48.2746 51.4309C47.8175 51.445 47.2112 51.4166 46.6072 51.249L46.5479 51.4697ZM44.4413 50.4443C44.3736 50.5357 44.3739 50.5358 44.3739 50.5358C44.3739 50.5358 44.3739 50.5358 44.3739 50.5359C44.3739 50.5359 44.3741 50.5359 44.3741 50.536C44.3743 50.5361 44.3745 50.5363 44.3748 50.5365C44.3752 50.5368 44.3759 50.5373 44.3766 50.5379C44.3784 50.5392 44.3806 50.5408 44.3835 50.543C44.3894 50.5473 44.3979 50.5534 44.4089 50.5612C44.4312 50.5768 44.4643 50.599 44.5083 50.6269C44.5963 50.6825 44.728 50.7602 44.9059 50.8507C45.2621 51.0316 45.8031 51.263 46.5479 51.4697L46.6072 51.249C45.8767 51.0464 45.3496 50.8203 45.0064 50.646C44.8348 50.5588 44.7091 50.4846 44.6271 50.4326C44.5859 50.4066 44.5558 50.3862 44.5362 50.3725C44.5263 50.3657 44.5194 50.3606 44.5146 50.3572C44.5124 50.3556 44.5108 50.3544 44.5099 50.3537C44.5095 50.3533 44.509 50.3531 44.509 50.3529C44.5088 50.3529 44.5088 50.3528 44.5088 50.3528V50.3529C44.5088 50.3529 44.5088 50.3529 44.5088 50.3529C44.5088 50.3529 44.509 50.3529 44.4413 50.4443ZM45.2432 48.7863L44.3437 50.3876L44.5389 50.5011L45.4384 48.8998L45.2432 48.7863ZM68.3897 58.3365C68.3897 59.0946 68.9937 59.709 69.7389 59.709V59.4803C69.1181 59.4803 68.6146 58.9681 68.6146 58.3365H68.3897ZM69.7389 56.9639C68.9937 56.9639 68.3897 57.5784 68.3897 58.3365H68.6146C68.6146 57.7049 69.1181 57.1927 69.7389 57.1927V56.9639ZM71.0881 58.3365C71.0881 57.5784 70.4842 56.9639 69.7389 56.9639V57.1927C70.3598 57.1927 70.8633 57.7049 70.8633 58.3365H71.0881ZM69.7389 59.709C70.4842 59.709 71.0881 59.0946 71.0881 58.3365H70.8633C70.8633 58.9681 70.3598 59.4803 69.7389 59.4803V59.709ZM62.0934 60.1666V62.111H62.3183V60.1666H62.0934ZM61.6437 59.8234C61.8888 59.8234 61.992 59.9197 62.0404 59.9984C62.0667 60.0412 62.0802 60.0849 62.0869 60.1183C62.0903 60.135 62.0921 60.1483 62.0928 60.1572C62.0932 60.1613 62.0934 60.1645 62.0934 60.1661C62.0934 60.167 62.0934 60.1675 62.0934 60.1675C62.0934 60.1677 62.0934 60.1675 62.0934 60.1675C62.0934 60.1672 62.0934 60.1672 62.0934 60.167V60.1668C62.0934 60.1666 62.0934 60.1666 62.2059 60.1666C62.3183 60.1666 62.3183 60.1666 62.3183 60.1663C62.3183 60.1661 62.3183 60.1661 62.3183 60.1659C62.3183 60.1656 62.3183 60.1654 62.3183 60.1652C62.3183 60.1645 62.3183 60.1638 62.3183 60.1629C62.3183 60.1613 62.3181 60.1592 62.3181 60.1567C62.3179 60.1517 62.3174 60.1448 62.3167 60.1368C62.3154 60.1203 62.3125 60.0982 62.3071 60.0718C62.2965 60.0195 62.2749 59.9488 62.2308 59.8772C62.1386 59.7271 61.9608 59.5947 61.6437 59.5947V59.8234ZM61.0815 60.1666C61.194 60.1666 61.194 60.1666 61.194 60.1668V60.167C61.194 60.1672 61.194 60.1672 61.194 60.1675C61.194 60.1675 61.194 60.1677 61.194 60.1675C61.194 60.1675 61.194 60.167 61.194 60.1661C61.194 60.1645 61.1942 60.1613 61.1946 60.1572C61.1953 60.1483 61.1971 60.135 61.2005 60.1183C61.2072 60.0849 61.2207 60.0412 61.247 59.9984C61.2954 59.9197 61.3986 59.8234 61.6437 59.8234V59.5947C61.3266 59.5947 61.1488 59.7271 61.0566 59.8772C61.0125 59.9488 60.9909 60.0195 60.9803 60.0718C60.9749 60.0982 60.972 60.1203 60.9707 60.1368C60.97 60.1448 60.9696 60.1517 60.9693 60.1567C60.9693 60.1592 60.9691 60.1613 60.9691 60.1629C60.9691 60.1638 60.9691 60.1645 60.9691 60.1652C60.9691 60.1654 60.9691 60.1656 60.9691 60.1659C60.9691 60.1661 60.9691 60.1661 60.9691 60.1663C60.9691 60.1666 60.9691 60.1666 61.0815 60.1666ZM61.194 62.111V60.1666H60.9691V62.111H61.194ZM61.6437 62.5685C61.5227 62.5685 61.4397 62.5381 61.3811 62.4983C61.3217 62.4583 61.2808 62.4038 61.2524 62.3457C61.2236 62.2874 61.2088 62.2277 61.2012 62.1815C61.1976 62.1588 61.1958 62.1401 61.1949 62.1275C61.1944 62.1211 61.1942 62.1165 61.194 62.1135C61.194 62.1121 61.194 62.1112 61.194 62.1108C61.194 62.1105 61.194 62.1105 61.194 62.1105C61.194 62.1108 61.194 62.1108 61.194 62.1108C61.194 62.1108 61.194 62.1108 61.194 62.111C61.194 62.111 61.194 62.111 61.0815 62.111C60.9691 62.111 60.9691 62.111 60.9691 62.1112V62.1115C60.9691 62.1117 60.9691 62.1119 60.9691 62.1124C60.9691 62.1128 60.9691 62.1135 60.9691 62.1144C60.9691 62.1163 60.9691 62.1185 60.9693 62.1213C60.9696 62.1268 60.9698 62.1343 60.9704 62.1437C60.9718 62.1625 60.9743 62.1883 60.9794 62.2192C60.9893 62.2803 61.0096 62.3635 61.0512 62.4482C61.093 62.5331 61.1575 62.6216 61.2563 62.6886C61.3559 62.7561 61.4836 62.7973 61.6437 62.7973V62.5685ZM62.2059 62.111C62.0934 62.111 62.0934 62.111 62.0934 62.111C62.0934 62.1108 62.0934 62.1108 62.0934 62.1108C62.0934 62.1108 62.0934 62.1108 62.0934 62.1105C62.0934 62.1105 62.0934 62.1105 62.0934 62.1108C62.0934 62.1112 62.0934 62.1121 62.0934 62.1135C62.0932 62.1165 62.093 62.1211 62.0925 62.1275C62.0916 62.1401 62.0898 62.1588 62.0862 62.1815C62.0786 62.2277 62.0638 62.2874 62.035 62.3457C62.0066 62.4038 61.9657 62.4583 61.9063 62.4983C61.8477 62.5381 61.7647 62.5685 61.6437 62.5685V62.7973C61.8038 62.7973 61.9315 62.7561 62.0312 62.6886C62.1299 62.6216 62.1944 62.5331 62.2362 62.4482C62.2778 62.3635 62.2981 62.2803 62.308 62.2192C62.3131 62.1883 62.3156 62.1625 62.317 62.1437C62.3176 62.1343 62.3179 62.1268 62.3181 62.1213C62.3183 62.1185 62.3183 62.1163 62.3183 62.1144C62.3183 62.1135 62.3183 62.1128 62.3183 62.1124C62.3183 62.1119 62.3183 62.1117 62.3183 62.1115V62.1112C62.3183 62.111 62.3183 62.111 62.2059 62.111ZM51.2998 63.3692V65.3136H51.5247V63.3692H51.2998ZM50.8501 63.026C51.0952 63.026 51.1984 63.1223 51.2467 63.201C51.273 63.2438 51.2865 63.2875 51.2933 63.3209C51.2966 63.3376 51.2984 63.3509 51.2991 63.3598C51.2996 63.3639 51.2998 63.3671 51.2998 63.3687C51.2998 63.3696 51.2998 63.3701 51.2998 63.3701C51.2998 63.3699 51.2998 63.3699 51.2998 63.3696V63.3694C51.2998 63.3692 51.2998 63.3692 51.4122 63.3692C51.5247 63.3692 51.5247 63.3692 51.5247 63.3689C51.5247 63.3687 51.5247 63.3687 51.5247 63.3685C51.5247 63.3683 51.5247 63.368 51.5247 63.3678C51.5247 63.3671 51.5247 63.3664 51.5247 63.3655C51.5247 63.3639 51.5244 63.3619 51.5244 63.3593C51.5242 63.3543 51.5238 63.3474 51.5231 63.3394C51.5217 63.323 51.5188 63.3008 51.5134 63.2745C51.5028 63.2221 51.4813 63.1514 51.4372 63.0798C51.345 62.9297 51.1671 62.7973 50.8501 62.7973V63.026ZM50.2879 63.3692C50.4003 63.3692 50.4003 63.3692 50.4003 63.3694V63.3696C50.4003 63.3699 50.4003 63.3699 50.4003 63.3701C50.4003 63.3701 50.4003 63.3696 50.4003 63.3687C50.4003 63.3671 50.4005 63.3639 50.401 63.3598C50.4017 63.3509 50.4035 63.3376 50.4068 63.3209C50.4136 63.2875 50.4271 63.2438 50.4534 63.201C50.5017 63.1223 50.6049 63.026 50.8501 63.026V62.7973C50.533 62.7973 50.3551 62.9297 50.2629 63.0798C50.2189 63.1514 50.1973 63.2221 50.1867 63.2745C50.1813 63.3008 50.1784 63.323 50.177 63.3394C50.1763 63.3474 50.1759 63.3543 50.1757 63.3593C50.1757 63.3619 50.1754 63.3639 50.1754 63.3655C50.1754 63.3664 50.1754 63.3671 50.1754 63.3678C50.1754 63.368 50.1754 63.3683 50.1754 63.3685C50.1754 63.3687 50.1754 63.3687 50.1754 63.3689C50.1754 63.3692 50.1754 63.3692 50.2879 63.3692ZM50.4003 65.3136V63.3692H50.1754V65.3136H50.4003ZM50.8501 65.7711C50.7291 65.7711 50.6461 65.7407 50.5874 65.7009C50.528 65.6609 50.4871 65.6064 50.4588 65.5483C50.43 65.49 50.4152 65.4303 50.4075 65.3841C50.4039 65.3614 50.4021 65.3427 50.4012 65.3301C50.4008 65.3237 50.4005 65.3191 50.4003 65.3161C50.4003 65.3148 50.4003 65.3138 50.4003 65.3134C50.4003 65.3132 50.4003 65.3132 50.4003 65.3132C50.4003 65.3134 50.4003 65.3134 50.4003 65.3134C50.4003 65.3134 50.4003 65.3134 50.4003 65.3136C50.4003 65.3136 50.4003 65.3136 50.2879 65.3136C50.1754 65.3136 50.1754 65.3136 50.1754 65.3138V65.3141C50.1754 65.3143 50.1754 65.3145 50.1754 65.315C50.1754 65.3154 50.1754 65.3161 50.1754 65.317C50.1754 65.3189 50.1755 65.3212 50.1757 65.3239C50.1759 65.3294 50.1761 65.337 50.1768 65.3463C50.1781 65.3651 50.1806 65.3909 50.1858 65.4218C50.1957 65.4829 50.2159 65.5662 50.2575 65.6508C50.2994 65.7357 50.3639 65.8242 50.4626 65.8912C50.5622 65.9587 50.6899 65.9999 50.8501 65.9999V65.7711ZM51.4122 65.3136C51.2998 65.3136 51.2998 65.3136 51.2998 65.3136C51.2998 65.3134 51.2998 65.3134 51.2998 65.3134C51.2998 65.3134 51.2998 65.3134 51.2998 65.3132C51.2998 65.3132 51.2998 65.3132 51.2998 65.3134C51.2998 65.3138 51.2998 65.3148 51.2998 65.3161C51.2996 65.3191 51.2993 65.3237 51.2989 65.3301C51.298 65.3427 51.2962 65.3614 51.2926 65.3841C51.2849 65.4303 51.2701 65.49 51.2413 65.5483C51.213 65.6064 51.1721 65.6609 51.1127 65.7009C51.054 65.7407 50.971 65.7711 50.8501 65.7711V65.9999C51.0102 65.9999 51.1379 65.9587 51.2375 65.8912C51.3362 65.8242 51.4008 65.7357 51.4426 65.6508C51.4842 65.5662 51.5044 65.4829 51.5143 65.4218C51.5195 65.3909 51.522 65.3651 51.5233 65.3463C51.524 65.337 51.5242 65.3294 51.5244 65.3239C51.5247 65.3212 51.5247 65.3189 51.5247 65.317C51.5247 65.3161 51.5247 65.3154 51.5247 65.315C51.5247 65.3145 51.5247 65.3143 51.5247 65.3141V65.3138C51.5247 65.3136 51.5247 65.3136 51.4122 65.3136ZM52.0978 49.3C52.4358 49.2662 52.8631 49.1791 53.2026 49.1014C53.3733 49.0624 53.5228 49.0255 53.6301 48.9983C53.6836 48.9847 53.7266 48.9736 53.756 48.9658C53.7709 48.9619 53.7823 48.9589 53.7902 48.9568C53.794 48.9558 53.7969 48.955 53.799 48.9544C53.8001 48.9541 53.8008 48.9539 53.8014 48.9538C53.8017 48.9537 53.8019 48.9537 53.8019 48.9536C53.8021 48.9536 53.8021 48.9536 53.8021 48.9536C53.8021 48.9536 53.8021 48.9536 53.7733 48.843C53.7445 48.7325 53.7445 48.7325 53.7445 48.7325C53.7445 48.7325 53.7445 48.7325 53.7443 48.7325V48.7325C53.7441 48.7326 53.7441 48.7326 53.7439 48.7327C53.7434 48.7328 53.7425 48.733 53.7416 48.7332C53.7398 48.7337 53.7369 48.7345 53.7331 48.7355C53.7257 48.7375 53.7144 48.7405 53.6998 48.7443C53.6708 48.752 53.6285 48.763 53.5757 48.7764C53.4698 48.8032 53.3218 48.8397 53.1534 48.8783C52.8152 48.9556 52.3992 49.0401 52.0758 49.0723L52.0978 49.3ZM50.1754 49.3005C50.1793 49.4149 50.1793 49.4149 50.1793 49.4149H50.1795C50.1797 49.4149 50.1799 49.4148 50.1802 49.4148C50.1806 49.4148 50.1815 49.4148 50.1826 49.4147C50.1849 49.4147 50.1883 49.4145 50.1928 49.4144C50.2015 49.4141 50.2144 49.4136 50.2312 49.413C50.2647 49.4117 50.3133 49.4099 50.374 49.4074C50.4952 49.4025 50.6648 49.3951 50.8577 49.3855C51.2427 49.3661 51.723 49.3374 52.0978 49.3L52.0758 49.0723C51.7066 49.1092 51.231 49.1377 50.8465 49.157C50.6546 49.1666 50.4858 49.1739 50.365 49.1788C50.3045 49.1813 50.2562 49.1831 50.2229 49.1844C50.2063 49.185 50.1934 49.1855 50.1849 49.1858C50.1804 49.1859 50.1772 49.186 50.175 49.1861C50.1739 49.1862 50.173 49.1862 50.1725 49.1862C50.1723 49.1862 50.1721 49.1862 50.1718 49.1862H50.1716C50.1716 49.1862 50.1716 49.1862 50.1754 49.3005ZM50.1752 51.4798L50.2877 49.3066L50.0632 49.2945L49.9508 51.4677L50.1752 51.4798ZM52.5069 51.249C51.9029 51.4166 51.2966 51.445 50.8395 51.4309C50.6112 51.4239 50.4212 51.4063 50.2886 51.3905C50.2224 51.3827 50.1705 51.3752 50.1354 51.3698C50.1179 51.3671 50.1046 51.3649 50.0958 51.3634C50.0913 51.3627 50.088 51.3621 50.086 51.3617C50.0848 51.3615 50.0842 51.3614 50.0837 51.3613C50.0835 51.3613 50.0833 51.3612 50.0833 51.3612C50.083 51.3612 50.083 51.3612 50.083 51.3612C50.083 51.3612 50.083 51.3612 50.063 51.4737C50.043 51.5863 50.043 51.5863 50.043 51.5863C50.043 51.5863 50.043 51.5863 50.043 51.5863C50.0432 51.5863 50.0432 51.5863 50.0432 51.5864C50.0435 51.5864 50.0439 51.5865 50.0441 51.5865C50.045 51.5866 50.0459 51.5868 50.0473 51.5871C50.05 51.5875 50.0538 51.5882 50.0587 51.589C50.0686 51.5907 50.083 51.5931 50.1017 51.596C50.139 51.6018 50.1934 51.6095 50.2625 51.6177C50.4005 51.6341 50.5971 51.6523 50.8325 51.6596C51.3029 51.6741 51.9335 51.6453 52.5662 51.4697L52.5069 51.249ZM54.6728 50.4443C54.6051 50.3529 54.6053 50.3529 54.6053 50.3529C54.6053 50.3529 54.6053 50.3529 54.6053 50.3529V50.3528C54.6053 50.3528 54.6053 50.3529 54.6051 50.3529C54.6051 50.3531 54.6047 50.3533 54.6042 50.3537C54.6033 50.3544 54.6017 50.3556 54.5995 50.3572C54.5948 50.3606 54.5878 50.3657 54.5779 50.3725C54.5583 50.3862 54.5282 50.4066 54.4871 50.4326C54.405 50.4846 54.2793 50.5588 54.1077 50.646C53.7646 50.8203 53.2375 51.0464 52.5069 51.249L52.5662 51.4697C53.311 51.263 53.852 51.0316 54.2082 50.8507C54.3861 50.7602 54.5179 50.6825 54.6058 50.6269C54.6499 50.599 54.6829 50.5768 54.7052 50.5612C54.7162 50.5534 54.7247 50.5473 54.7306 50.543C54.7335 50.5408 54.7358 50.5392 54.7376 50.5379C54.7382 50.5373 54.7389 50.5368 54.7394 50.5365C54.7396 50.5363 54.7398 50.5361 54.74 50.536C54.74 50.5359 54.7403 50.5359 54.7403 50.5359C54.7403 50.5358 54.7403 50.5358 54.7403 50.5358C54.7403 50.5358 54.7405 50.5357 54.6728 50.4443ZM53.6757 48.8998L54.5752 50.5011L54.7704 50.3876L53.8709 48.7863L53.6757 48.8998Z" fill="white"/>
</g>
<defs>
<clipPath id="clip0">
<rect width="85" height="35" fill="white" transform="translate(7 31)"/>
</clipPath>
</defs>
</svg>
