<svg width="99" height="99" viewBox="0 0 99 99" fill="none" xmlns="http://www.w3.org/2000/svg">
<rect width="99" height="99" fill="#1B1B25"/>
<path fill-rule="evenodd" clip-rule="evenodd" d="M48.0524 23.8962H49.7575H50.0011H51.7062V25.5859H53.4114V21.4824H53.8985V25.5859H58.7703V29.2066H53.8985V34.0341H50.0011H49.7575H45.8601V29.2066H40.9883V25.5859H45.8601V21.4824H46.3473V25.5859H48.0524V23.8962ZM32.7062 35.4824H40.5011V43.2066H32.7062V35.4824ZM31.4883 53.8272V55.7583L49.7575 49.7238V48.0341L31.4883 53.8272ZM49.2703 51.4135V72.6548C49.2703 72.6548 47.5652 72.6548 45.8601 72.1721C44.1549 71.6893 42.6934 70.241 42.6934 70.241C42.6934 70.241 40.5011 71.5566 38.796 71.4479C37.0908 71.3393 35.6293 70.241 35.6293 70.241L31.4883 57.4479L49.2703 51.4135ZM40.5011 44.6548H32.7062V52.1376L40.5011 49.7238V44.6548ZM41.9626 44.6548H49.2703V46.8272L41.9626 49.241V44.6548ZM49.2703 35.4824H41.9626V43.2066H49.2703V35.4824ZM50.4883 51.4135V72.6548C50.4883 72.6548 52.1934 72.6548 53.8985 72.1721C55.6037 71.6893 57.0652 70.241 57.0652 70.241C57.0652 70.241 59.2575 71.5566 60.9626 71.4479C62.6678 71.3393 64.1293 70.241 64.1293 70.241L68.2703 57.4479L50.4883 51.4135ZM68.2703 55.7583V53.8272L50.0011 48.0341V49.7238L68.2703 55.7583ZM59.2575 35.4824H67.0524V43.2066H59.2575V35.4824ZM67.0524 44.6548H59.2575V49.7238L67.0524 52.1376V44.6548ZM50.4883 44.6548H57.796V49.241L50.4883 46.8272V44.6548ZM57.796 35.4824H50.4883V43.2066H57.796V35.4824ZM39.2832 73.6203C36.6037 73.532 35.3857 71.6893 35.3857 71.6893C35.3857 71.6893 36.2573 73.5653 39.2832 73.8617C40.6386 73.9945 42.4498 73.6203 42.4498 73.6203C42.4498 73.6203 43.3024 75.31 45.8601 76.0341C47.5652 76.5169 48.7832 76.5169 49.7575 76.5169V75.5514C49.7575 75.5514 47.5652 75.5514 45.8601 75.0686C44.1549 74.5859 42.6934 72.8962 42.6934 72.8962C42.6934 72.8962 40.6675 73.6657 39.2832 73.6203ZM64.6165 71.6893C64.6165 71.6893 63.3985 73.532 60.7191 73.6203C59.3347 73.6657 57.3088 72.8962 57.3088 72.8962C57.3088 72.8962 55.8473 74.5859 54.1421 75.0686C52.437 75.5514 50.2447 75.5514 50.2447 75.5514V76.5169C51.2191 76.5169 52.437 76.5169 54.1421 76.0341C56.6998 75.31 57.5524 73.6203 57.5524 73.6203C57.5524 73.6203 59.3636 73.9945 60.7191 73.8617C63.7449 73.5653 64.6165 71.6893 64.6165 71.6893Z" fill="white"/>
<path d="M48.0487 23.8964V23.655H47.8051V23.8964H48.0487ZM51.7025 23.8964H51.9461V23.655H51.7025V23.8964ZM51.7025 25.586H51.459V25.8274H51.7025V25.586ZM53.4077 25.586V25.8274H53.6513V25.586H53.4077ZM53.4077 21.4826V21.2412H53.1641V21.4826H53.4077ZM53.8949 21.4826H54.1384V21.2412H53.8949V21.4826ZM53.8949 25.586H53.6513V25.8274H53.8949V25.586ZM58.7666 25.586H59.0102V25.3447H58.7666V25.586ZM58.7666 29.2067V29.4481H59.0102V29.2067H58.7666ZM53.8949 29.2067V28.9653H53.6513V29.2067H53.8949ZM53.8949 34.0343V34.2757H54.1384V34.0343H53.8949ZM45.8564 34.0343H45.6128V34.2757H45.8564V34.0343ZM45.8564 29.2067H46.1V28.9653H45.8564V29.2067ZM40.9846 29.2067H40.741V29.4481H40.9846V29.2067ZM40.9846 25.586V25.3447H40.741V25.586H40.9846ZM45.8564 25.586V25.8274H46.1V25.586H45.8564ZM45.8564 21.4826V21.2412H45.6128V21.4826H45.8564ZM46.3436 21.4826H46.5872V21.2412H46.3436V21.4826ZM46.3436 25.586H46.1V25.8274H46.3436V25.586ZM48.0487 25.586V25.8274H48.2923V25.586H48.0487ZM40.4974 35.4826H40.741V35.2412H40.4974V35.4826ZM32.7025 35.4826V35.2412H32.459V35.4826H32.7025ZM40.4974 43.2067V43.4481H40.741V43.2067H40.4974ZM32.7025 43.2067H32.459V43.4481H32.7025V43.2067ZM31.4846 55.7585H31.241V56.0933L31.5616 55.9874L31.4846 55.7585ZM31.4846 53.8274L31.4104 53.5975L31.241 53.6512V53.8274H31.4846ZM49.7538 49.724L49.8309 49.9529L49.9974 49.898V49.724H49.7538ZM49.7538 48.0343H49.9974V47.7036L49.6796 47.8044L49.7538 48.0343ZM49.2666 72.655V72.8964H49.5102V72.655H49.2666ZM49.2666 51.4136H49.5102V51.0758L49.1877 51.1853L49.2666 51.4136ZM42.6897 70.2412L42.862 70.0703L42.7269 69.9366L42.5635 70.0346L42.6897 70.2412ZM35.6256 70.2412L35.3937 70.3151L35.4172 70.3875L35.4784 70.4334L35.6256 70.2412ZM31.4846 57.4481L31.4057 57.2198L31.1797 57.2964L31.2526 57.5218L31.4846 57.4481ZM32.7025 44.655V44.4136H32.459V44.655H32.7025ZM40.4974 44.655H40.741V44.4136H40.4974V44.655ZM32.7025 52.1378H32.459V52.4661L32.7752 52.3681L32.7025 52.1378ZM40.4974 49.724L40.5701 49.9543L40.741 49.9014V49.724H40.4974ZM49.2666 44.655H49.5102V44.4136H49.2666V44.655ZM41.959 44.655V44.4136H41.7154V44.655H41.959ZM49.2666 46.8274L49.3437 47.0564L49.5102 47.0014V46.8274H49.2666ZM41.959 49.2412H41.7154V49.5761L42.036 49.4702L41.959 49.2412ZM41.959 35.4826V35.2412H41.7154V35.4826H41.959ZM49.2666 35.4826H49.5102V35.2412H49.2666V35.4826ZM41.959 43.2067H41.7154V43.4481H41.959V43.2067ZM49.2666 43.2067V43.4481H49.5102V43.2067H49.2666ZM50.4846 72.655H50.241V72.8964H50.4846V72.655ZM50.4846 51.4136L50.5635 51.1853L50.241 51.0758V51.4136H50.4846ZM57.0615 70.2412L57.1877 70.0346L57.0243 69.9366L56.8893 70.0703L57.0615 70.2412ZM64.1256 70.2412L64.2728 70.4334L64.3341 70.3875L64.3576 70.3151L64.1256 70.2412ZM68.2666 57.4481L68.4986 57.5218L68.5716 57.2964L68.3456 57.2198L68.2666 57.4481ZM68.2666 53.8274H68.5102V53.6512L68.3409 53.5975L68.2666 53.8274ZM68.2666 55.7585L68.1896 55.9874L68.5102 56.0933V55.7585H68.2666ZM49.9974 48.0343L50.0717 47.8044L49.7538 47.7036V48.0343H49.9974ZM49.9974 49.724H49.7538V49.898L49.9204 49.9529L49.9974 49.724ZM67.0487 35.4826H67.2923V35.2412H67.0487V35.4826ZM59.2538 35.4826V35.2412H59.0102V35.4826H59.2538ZM67.0487 43.2067V43.4481H67.2923V43.2067H67.0487ZM59.2538 43.2067H59.0102V43.4481H59.2538V43.2067ZM59.2538 44.655V44.4136H59.0102V44.655H59.2538ZM67.0487 44.655H67.2923V44.4136H67.0487V44.655ZM59.2538 49.724H59.0102V49.9014L59.1812 49.9543L59.2538 49.724ZM67.0487 52.1378L66.9761 52.3681L67.2923 52.4661V52.1378H67.0487ZM57.7923 44.655H58.0359V44.4136H57.7923V44.655ZM50.4846 44.655V44.4136H50.241V44.655H50.4846ZM57.7923 49.2412L57.7153 49.4702L58.0359 49.5761V49.2412H57.7923ZM50.4846 46.8274H50.241V47.0014L50.4076 47.0564L50.4846 46.8274ZM50.4846 35.4826V35.2412H50.241V35.4826H50.4846ZM57.7923 35.4826H58.0359V35.2412H57.7923V35.4826ZM50.4846 43.2067H50.241V43.4481H50.4846V43.2067ZM57.7923 43.2067V43.4481H58.0359V43.2067H57.7923ZM35.382 71.6895L35.5858 71.5572L35.1608 71.7904L35.382 71.6895ZM39.2795 73.6205L39.2714 73.8619L39.2795 73.6205ZM39.2795 73.8619L39.2555 74.1023L39.2795 73.8619ZM42.4461 73.6205L42.664 73.5124L42.5801 73.3463L42.3964 73.3845L42.4461 73.6205ZM49.7538 76.5171V76.7585H49.9974V76.5171H49.7538ZM49.7538 75.5516H49.9974V75.3102H49.7538V75.5516ZM42.6897 72.8964L42.8747 72.7395L42.7629 72.6101L42.6025 72.6709L42.6897 72.8964ZM60.7154 73.6205L60.7235 73.8619L60.7154 73.6205ZM64.6128 71.6895L64.8341 71.7904L64.409 71.5572L64.6128 71.6895ZM57.3051 72.8964L57.3923 72.6709L57.2319 72.6101L57.1202 72.7395L57.3051 72.8964ZM50.241 75.5516V75.3102H49.9974V75.5516H50.241ZM50.241 76.5171H49.9974V76.7585H50.241V76.5171ZM57.5487 73.6205L57.5984 73.3845L57.4147 73.3463L57.3308 73.5124L57.5487 73.6205ZM60.7154 73.8619L60.7393 74.1023L60.7154 73.8619ZM49.7538 23.655H48.0487V24.1378H49.7538V23.655ZM49.9974 23.655H49.7538V24.1378H49.9974V23.655ZM51.7025 23.655H49.9974V24.1378H51.7025V23.655ZM51.9461 25.586V23.8964H51.459V25.586H51.9461ZM53.4077 25.3447H51.7025V25.8274H53.4077V25.3447ZM53.1641 21.4826V25.586H53.6513V21.4826H53.1641ZM53.8949 21.2412H53.4077V21.724H53.8949V21.2412ZM54.1384 25.586V21.4826H53.6513V25.586H54.1384ZM58.7666 25.3447H53.8949V25.8274H58.7666V25.3447ZM59.0102 29.2067V25.586H58.5231V29.2067H59.0102ZM53.8949 29.4481H58.7666V28.9653H53.8949V29.4481ZM54.1384 34.0343V29.2067H53.6513V34.0343H54.1384ZM49.9974 34.2757H53.8949V33.7929H49.9974V34.2757ZM49.7538 34.2757H49.9974V33.7929H49.7538V34.2757ZM45.8564 34.2757H49.7538V33.7929H45.8564V34.2757ZM45.6128 29.2067V34.0343H46.1V29.2067H45.6128ZM40.9846 29.4481H45.8564V28.9653H40.9846V29.4481ZM40.741 25.586V29.2067H41.2282V25.586H40.741ZM45.8564 25.3447H40.9846V25.8274H45.8564V25.3447ZM45.6128 21.4826V25.586H46.1V21.4826H45.6128ZM46.3436 21.2412H45.8564V21.724H46.3436V21.2412ZM46.5872 25.586V21.4826H46.1V25.586H46.5872ZM48.0487 25.3447H46.3436V25.8274H48.0487V25.3447ZM47.8051 23.8964V25.586H48.2923V23.8964H47.8051ZM40.4974 35.2412H32.7025V35.724H40.4974V35.2412ZM40.741 43.2067V35.4826H40.2538V43.2067H40.741ZM32.7025 43.4481H40.4974V42.9653H32.7025V43.4481ZM32.459 35.4826V43.2067H32.9461V35.4826H32.459ZM31.7282 55.7585V53.8274H31.241V55.7585H31.7282ZM49.6768 49.495L31.4076 55.5295L31.5616 55.9874L49.8309 49.9529L49.6768 49.495ZM49.5102 48.0343V49.724H49.9974V48.0343H49.5102ZM31.5588 54.0573L49.8281 48.2642L49.6796 47.8044L31.4104 53.5975L31.5588 54.0573ZM49.5102 72.655V51.4136H49.0231V72.655H49.5102ZM45.7895 72.4045C46.6612 72.6511 47.5296 72.7738 48.1778 72.8351C48.5026 72.8655 48.7734 72.8809 48.9636 72.8887C49.0588 72.8925 49.1338 72.8945 49.1854 72.8954C49.2112 72.8959 49.2312 72.8959 49.2448 72.8964C49.2517 72.8964 49.257 72.8964 49.2606 72.8964C49.2624 72.8964 49.2639 72.8964 49.2648 72.8964C49.2654 72.8964 49.2658 72.8964 49.2661 72.8964C49.2662 72.8964 49.2664 72.8964 49.2665 72.8964C49.2665 72.8964 49.2666 72.8964 49.2666 72.8964C49.2666 72.8964 49.2666 72.8964 49.2666 72.655C49.2666 72.4136 49.2667 72.4136 49.2667 72.4136C49.2667 72.4136 49.2666 72.4136 49.2666 72.4136C49.2665 72.4136 49.2663 72.4136 49.266 72.4136C49.2653 72.4136 49.2643 72.4136 49.2628 72.4136C49.2599 72.4136 49.2554 72.4136 49.2493 72.4136C49.2372 72.4136 49.2189 72.4131 49.1947 72.4127C49.1464 72.4117 49.0749 72.4098 48.9835 72.4064C48.8007 72.3987 48.5388 72.3842 48.224 72.3542C47.5935 72.2949 46.7567 72.1761 45.9233 71.94L45.7895 72.4045ZM42.6897 70.2412C42.5175 70.4121 42.5175 70.4121 42.5176 70.4121C42.5176 70.4121 42.5177 70.4121 42.5177 70.4121C42.5178 70.4121 42.5179 70.4121 42.518 70.4126C42.5183 70.4126 42.5187 70.4131 42.5191 70.4136C42.52 70.4145 42.5213 70.4155 42.5229 70.4174C42.5261 70.4203 42.5307 70.4247 42.5367 70.4305C42.5486 70.442 42.566 70.4589 42.5885 70.4797C42.6336 70.5222 42.6994 70.5825 42.7834 70.6559C42.9514 70.8031 43.193 71.004 43.4891 71.2202C44.0784 71.6504 44.897 72.1515 45.7895 72.4045L45.9233 71.94C45.1106 71.7102 44.3459 71.2458 43.7781 70.8311C43.4958 70.625 43.2654 70.4338 43.106 70.2943C43.0264 70.2243 42.9647 70.1678 42.9232 70.1287C42.9024 70.1094 42.8867 70.0945 42.8765 70.0848C42.8713 70.0795 42.8675 70.0761 42.8651 70.0737C42.8638 70.0722 42.863 70.0718 42.8625 70.0708C42.8622 70.0708 42.862 70.0708 42.8619 70.0703C42.8619 70.0703 42.8619 70.0703 42.8619 70.0703C42.8619 70.0703 42.862 70.0703 42.6897 70.2412ZM38.7766 71.689C39.6874 71.7469 40.705 71.4269 41.4744 71.1082C41.8633 70.947 42.1974 70.7829 42.4344 70.6583C42.553 70.5965 42.6476 70.5439 42.7129 70.5072C42.7455 70.4889 42.7709 70.4739 42.7883 70.4638C42.797 70.4589 42.8037 70.4551 42.8083 70.4522C42.8106 70.4507 42.8124 70.4498 42.8137 70.4488C42.8143 70.4488 42.8148 70.4483 42.8152 70.4483C42.8154 70.4478 42.8155 70.4478 42.8157 70.4478C42.8157 70.4478 42.8158 70.4478 42.8158 70.4478C42.8159 70.4478 42.8159 70.4478 42.6897 70.2412C42.5635 70.0346 42.5635 70.0346 42.5636 70.0346C42.5636 70.0346 42.5635 70.0346 42.5634 70.0346C42.5633 70.0351 42.563 70.0351 42.5626 70.0356C42.5617 70.036 42.5603 70.0365 42.5585 70.038C42.5547 70.0399 42.5489 70.0433 42.5411 70.0481C42.5255 70.0568 42.5021 70.0703 42.4715 70.0877C42.4102 70.1225 42.3202 70.1722 42.2067 70.2316C41.9793 70.3508 41.6588 70.5087 41.2865 70.6627C40.5334 70.9745 39.6023 71.2579 38.8079 71.2072L38.7766 71.689ZM35.6256 70.2412C35.4784 70.4333 35.4785 70.4338 35.4786 70.4338C35.4786 70.4338 35.4787 70.4338 35.4787 70.4338C35.4788 70.4338 35.479 70.4338 35.4791 70.4338C35.4794 70.4343 35.4798 70.4348 35.4803 70.4348C35.4813 70.4358 35.4826 70.4367 35.4843 70.4377C35.4876 70.4406 35.4924 70.444 35.4985 70.4483C35.5108 70.457 35.5285 70.47 35.5514 70.486C35.5972 70.5178 35.6637 70.5632 35.7486 70.6173C35.9181 70.7259 36.1617 70.8707 36.4602 71.0194C37.0543 71.3153 37.8791 71.6316 38.7766 71.689L38.8079 71.2072C38.0004 71.1556 37.2418 70.8683 36.6789 70.5883C36.3988 70.4488 36.1704 70.3127 36.0127 70.2118C35.9339 70.1611 35.8729 70.12 35.8321 70.0911C35.8117 70.0771 35.7963 70.066 35.7864 70.0587C35.7814 70.0554 35.7777 70.0525 35.7754 70.051C35.7743 70.05 35.7735 70.0496 35.7731 70.0491C35.7729 70.0491 35.7727 70.0486 35.7727 70.0486C35.7726 70.0486 35.7726 70.0486 35.7727 70.0486C35.7727 70.0486 35.7727 70.0486 35.7727 70.0486C35.7727 70.0491 35.7728 70.0491 35.6256 70.2412ZM31.2526 57.5218L35.3937 70.3151L35.8576 70.1674L31.7165 57.3744L31.2526 57.5218ZM49.1877 51.1853L31.4057 57.2198L31.5635 57.6765L49.3456 51.642L49.1877 51.1853ZM32.7025 44.8964H40.4974V44.4136H32.7025V44.8964ZM32.9461 52.1378V44.655H32.459V52.1378H32.9461ZM40.4248 49.4936L32.6299 51.9074L32.7752 52.3681L40.5701 49.9543L40.4248 49.4936ZM40.2538 44.655V49.724H40.741V44.655H40.2538ZM49.2666 44.4136H41.959V44.8964H49.2666V44.4136ZM49.5102 46.8274V44.655H49.0231V46.8274H49.5102ZM42.036 49.4702L49.3437 47.0564L49.1896 46.5984L41.8819 49.0122L42.036 49.4702ZM41.7154 44.655V49.2412H42.2025V44.655H41.7154ZM41.959 35.724H49.2666V35.2412H41.959V35.724ZM42.2025 43.2067V35.4826H41.7154V43.2067H42.2025ZM49.2666 42.9653H41.959V43.4481H49.2666V42.9653ZM49.0231 35.4826V43.2067H49.5102V35.4826H49.0231ZM50.7282 72.655V51.4136H50.241V72.655H50.7282ZM53.8279 71.94C52.9945 72.1761 52.1578 72.2949 51.5272 72.3542C51.2125 72.3842 50.9505 72.3987 50.7677 72.4064C50.6763 72.4098 50.6049 72.4117 50.5566 72.4127C50.5324 72.4131 50.5141 72.4136 50.5019 72.4136C50.4958 72.4136 50.4913 72.4136 50.4884 72.4136C50.487 72.4136 50.4859 72.4136 50.4853 72.4136C50.485 72.4136 50.4847 72.4136 50.4846 72.4136C50.4846 72.4136 50.4845 72.4136 50.4845 72.4136C50.4845 72.4136 50.4846 72.4136 50.4846 72.655C50.4846 72.8964 50.4846 72.8964 50.4847 72.8964C50.4847 72.8964 50.4847 72.8964 50.4848 72.8964C50.4849 72.8964 50.485 72.8964 50.4852 72.8964C50.4855 72.8964 50.4859 72.8964 50.4864 72.8964C50.4874 72.8964 50.4888 72.8964 50.4906 72.8964C50.4943 72.8964 50.4996 72.8964 50.5064 72.8964C50.5201 72.8959 50.54 72.8959 50.5658 72.8954C50.6174 72.8945 50.6925 72.8925 50.7876 72.8887C50.9778 72.8809 51.2487 72.8655 51.5734 72.8351C52.2217 72.7738 53.0901 72.6511 53.9618 72.4045L53.8279 71.94ZM57.0615 70.2412C56.8893 70.0703 56.8893 70.0703 56.8893 70.0703C56.8893 70.0703 56.8894 70.0703 56.8893 70.0703C56.8892 70.0708 56.8891 70.0708 56.8888 70.0708C56.8883 70.0718 56.8874 70.0722 56.8862 70.0737C56.8837 70.0761 56.8799 70.0795 56.8748 70.0848C56.8645 70.0945 56.8488 70.1094 56.8281 70.1287C56.7866 70.1678 56.7248 70.2243 56.6452 70.2943C56.4858 70.4338 56.2555 70.625 55.9731 70.8311C55.4053 71.2458 54.6406 71.7102 53.8279 71.94L53.9618 72.4045C54.8542 72.1515 55.6729 71.6504 56.2621 71.2202C56.5583 71.004 56.7999 70.8031 56.9678 70.6559C57.0519 70.5825 57.1176 70.5222 57.1627 70.4797C57.1853 70.4589 57.2027 70.442 57.2146 70.4305C57.2205 70.4247 57.2252 70.4203 57.2284 70.4174C57.23 70.4155 57.2313 70.4145 57.2321 70.4136C57.2326 70.4131 57.233 70.4126 57.2332 70.4126C57.2333 70.4121 57.2334 70.4121 57.2335 70.4121C57.2336 70.4121 57.2336 70.4121 57.2337 70.4121C57.2337 70.4121 57.2338 70.4121 57.0615 70.2412ZM60.9433 71.2072C60.149 71.2579 59.2178 70.9745 58.4647 70.6627C58.0924 70.5087 57.7719 70.3508 57.5446 70.2316C57.431 70.1722 57.341 70.1225 57.2797 70.0877C57.2491 70.0703 57.2257 70.0568 57.2101 70.0481C57.2024 70.0433 57.1965 70.0399 57.1928 70.038C57.1909 70.0365 57.1895 70.036 57.1887 70.0356C57.1882 70.0351 57.1879 70.0351 57.1878 70.0346C57.1877 70.0346 57.1877 70.0346 57.1877 70.0346C57.1877 70.0346 57.1877 70.0346 57.0615 70.2412C56.9353 70.4478 56.9354 70.4478 56.9354 70.4478C56.9355 70.4478 56.9355 70.4478 56.9356 70.4478C56.9357 70.4478 56.9359 70.4478 56.936 70.4483C56.9364 70.4483 56.9369 70.4488 56.9375 70.4488C56.9388 70.4498 56.9406 70.4507 56.9429 70.4522C56.9476 70.4551 56.9543 70.4589 56.963 70.4638C56.9804 70.4739 57.0057 70.4889 57.0384 70.5072C57.1037 70.5439 57.1982 70.5965 57.3169 70.6583C57.5539 70.7829 57.888 70.947 58.2769 71.1082C59.0462 71.4269 60.0638 71.7469 60.9746 71.689L60.9433 71.2072ZM64.1256 70.2412C63.9784 70.0491 63.9785 70.0491 63.9785 70.0486C63.9785 70.0486 63.9785 70.0486 63.9786 70.0486C63.9785 70.0486 63.9784 70.0491 63.9782 70.0491C63.9777 70.0496 63.9769 70.05 63.9758 70.051C63.9735 70.0525 63.9699 70.0554 63.9649 70.0587C63.9549 70.066 63.9396 70.0771 63.9192 70.0911C63.8783 70.12 63.8173 70.1611 63.7386 70.2118C63.5808 70.3127 63.3524 70.4488 63.0723 70.5883C62.5094 70.8683 61.7509 71.1556 60.9433 71.2072L60.9746 71.689C61.8722 71.6316 62.697 71.3153 63.2911 71.0194C63.5895 70.8707 63.8331 70.7259 64.0027 70.6173C64.0875 70.5632 64.1541 70.5178 64.1998 70.486C64.2227 70.47 64.2405 70.457 64.2527 70.4483C64.2588 70.444 64.2636 70.4406 64.267 70.4377C64.2687 70.4367 64.27 70.4358 64.271 70.4348C64.2714 70.4348 64.2718 70.4343 64.2721 70.4338C64.2723 70.4338 64.2724 70.4338 64.2726 70.4338C64.2726 70.4338 64.2727 70.4338 64.2727 70.4338C64.2728 70.4338 64.2728 70.4333 64.1256 70.2412ZM68.0347 57.3744L63.8937 70.1674L64.3576 70.3151L68.4986 57.5218L68.0347 57.3744ZM50.4057 51.642L68.1877 57.6765L68.3456 57.2198L50.5635 51.1853L50.4057 51.642ZM68.0231 53.8274V55.7585H68.5102V53.8274H68.0231ZM49.9232 48.2642L68.1924 54.0573L68.3409 53.5975L50.0717 47.8044L49.9232 48.2642ZM50.241 49.724V48.0343H49.7538V49.724H50.241ZM68.3437 55.5295L50.0744 49.495L49.9204 49.9529L68.1896 55.9874L68.3437 55.5295ZM67.0487 35.2412H59.2538V35.724H67.0487V35.2412ZM67.2923 43.2067V35.4826H66.8051V43.2067H67.2923ZM59.2538 43.4481H67.0487V42.9653H59.2538V43.4481ZM59.0102 35.4826V43.2067H59.4974V35.4826H59.0102ZM59.2538 44.8964H67.0487V44.4136H59.2538V44.8964ZM59.4974 49.724V44.655H59.0102V49.724H59.4974ZM67.1213 51.9074L59.3265 49.4936L59.1812 49.9543L66.9761 52.3681L67.1213 51.9074ZM66.8051 44.655V52.1378H67.2923V44.655H66.8051ZM57.7923 44.4136H50.4846V44.8964H57.7923V44.4136ZM58.0359 49.2412V44.655H57.5487V49.2412H58.0359ZM50.4076 47.0564L57.7153 49.4702L57.8693 49.0122L50.5616 46.5984L50.4076 47.0564ZM50.241 44.655V46.8274H50.7282V44.655H50.241ZM50.4846 35.724H57.7923V35.2412H50.4846V35.724ZM50.7282 43.2067V35.4826H50.241V43.2067H50.7282ZM57.7923 42.9653H50.4846V43.4481H57.7923V42.9653ZM57.5487 35.4826V43.2067H58.0359V35.4826H57.5487ZM35.382 71.6895C35.1783 71.8218 35.1783 71.8218 35.1784 71.8218C35.1784 71.8218 35.1785 71.8222 35.1786 71.8222C35.1787 71.8222 35.1788 71.8227 35.179 71.8227C35.1793 71.8232 35.1797 71.8237 35.1802 71.8247C35.1811 71.8261 35.1824 71.828 35.184 71.83C35.1871 71.8348 35.1914 71.8411 35.197 71.8488C35.2081 71.8647 35.2242 71.8869 35.2452 71.9145C35.2873 71.9695 35.3494 72.0467 35.4321 72.1389C35.5972 72.3234 35.8453 72.5681 36.1805 72.8158C36.852 73.3111 37.8732 73.8156 39.2714 73.8619L39.2876 73.3791C38.0062 73.3371 37.0787 72.8761 36.4714 72.4281C36.1672 72.2036 35.9433 71.9825 35.7963 71.8184C35.7229 71.7368 35.669 71.6692 35.634 71.6234C35.6165 71.6007 35.6038 71.5828 35.5957 71.5717C35.5917 71.5659 35.5889 71.5616 35.5873 71.5591C35.5864 71.5582 35.5859 71.5572 35.5857 71.5572C35.5855 71.5567 35.5855 71.5567 35.5855 71.5567C35.5855 71.5567 35.5856 71.5567 35.5856 71.5567C35.5856 71.5572 35.5857 71.5572 35.5857 71.5572C35.5858 71.5572 35.5858 71.5572 35.382 71.6895ZM39.3034 73.6215C37.8418 73.4786 36.9141 72.9562 36.3545 72.4812C36.0736 72.2427 35.8832 72.0144 35.7643 71.8478C35.7048 71.7643 35.6632 71.6967 35.6372 71.6513C35.6242 71.6287 35.615 71.6118 35.6095 71.6007C35.6067 71.5954 35.6048 71.5915 35.6038 71.5896C35.6033 71.5886 35.603 71.5881 35.6029 71.5876C35.6029 71.5876 35.6029 71.5876 35.603 71.5876C35.603 71.5881 35.603 71.5881 35.6031 71.5881C35.6031 71.5881 35.6032 71.5881 35.6032 71.5881C35.6032 71.5886 35.6033 71.5886 35.382 71.6895C35.1608 71.7904 35.1608 71.7904 35.1609 71.7909C35.1609 71.7909 35.161 71.7909 35.1611 71.7909C35.1612 71.7914 35.1613 71.7914 35.1614 71.7918C35.1617 71.7923 35.162 71.7933 35.1624 71.7938C35.1632 71.7957 35.1642 71.7976 35.1654 71.8C35.1679 71.8053 35.1713 71.8121 35.1756 71.8203C35.1843 71.8372 35.1969 71.8609 35.2136 71.8898C35.247 71.9482 35.2972 72.0294 35.3667 72.1269C35.5057 72.3214 35.7224 72.5802 36.0376 72.8476C36.6703 73.3849 37.6912 73.9488 39.2555 74.1023L39.3034 73.6215ZM42.4461 73.6205C42.3964 73.3845 42.3964 73.3845 42.3964 73.3845C42.3964 73.3845 42.3964 73.3845 42.3963 73.3845C42.3961 73.3845 42.3959 73.3845 42.3955 73.3845C42.3948 73.3845 42.3936 73.3849 42.392 73.3849C42.3888 73.3859 42.384 73.3869 42.3774 73.3878C42.3645 73.3907 42.3449 73.3946 42.3195 73.3994C42.2687 73.4091 42.194 73.4231 42.1001 73.439C41.9121 73.4718 41.6474 73.5138 41.3409 73.5515C40.7243 73.6278 39.954 73.6852 39.3034 73.6215L39.2555 74.1023C39.9604 74.1714 40.7734 74.1081 41.4012 74.0304C41.7171 73.9913 41.9898 73.9483 42.1838 73.9145C42.2808 73.8981 42.3583 73.8836 42.4118 73.8735C42.4385 73.8682 42.4593 73.8643 42.4735 73.8614C42.4806 73.86 42.486 73.859 42.4898 73.858C42.4916 73.8576 42.4931 73.8576 42.4941 73.8571C42.4946 73.8571 42.495 73.8571 42.4953 73.8571C42.4954 73.8571 42.4956 73.8571 42.4957 73.8571C42.4957 73.8571 42.4957 73.8571 42.4958 73.8571C42.4958 73.8566 42.4958 73.8566 42.4461 73.6205ZM45.9233 75.8021C44.6875 75.4521 43.8693 74.8714 43.3618 74.3828C43.1077 74.138 42.931 73.916 42.8189 73.7576C42.7628 73.678 42.7229 73.6147 42.6977 73.5722C42.685 73.5505 42.676 73.5346 42.6705 73.5245C42.6677 73.5196 42.6658 73.5158 42.6647 73.5138C42.6642 73.5129 42.6639 73.5124 42.6638 73.5119C42.6637 73.5119 42.6637 73.5119 42.6637 73.5119C42.6638 73.5119 42.6638 73.5119 42.6638 73.5124C42.6639 73.5124 42.6639 73.5124 42.6639 73.5124C42.664 73.5124 42.664 73.5124 42.4461 73.6205C42.2283 73.7287 42.2283 73.7287 42.2284 73.7287C42.2284 73.7287 42.2285 73.7287 42.2285 73.7291C42.2286 73.7291 42.2288 73.7296 42.2289 73.7296C42.2291 73.7301 42.2294 73.7306 42.2298 73.7316C42.2305 73.733 42.2314 73.7345 42.2326 73.7369C42.2349 73.7412 42.2381 73.747 42.2422 73.7547C42.2504 73.7697 42.2622 73.7909 42.2779 73.817C42.3092 73.8696 42.3559 73.944 42.4198 74.0342C42.5474 74.2148 42.7437 74.4605 43.0224 74.7289C43.5807 75.2662 44.4676 75.8924 45.7895 76.2665L45.9233 75.8021ZM49.7538 76.2757C48.7853 76.2757 47.5949 76.2757 45.9233 75.8021L45.7895 76.2665C47.5281 76.7585 48.7736 76.7585 49.7538 76.7585V76.2757ZM49.5102 75.5516V76.5171H49.9974V75.5516H49.5102ZM45.7895 75.301C46.6647 75.5487 47.6575 75.6708 48.4251 75.7316C48.8103 75.7625 49.1414 75.7775 49.3767 75.7852C49.4943 75.7891 49.588 75.791 49.6526 75.792C49.6849 75.7925 49.7099 75.7925 49.727 75.7929C49.7356 75.7929 49.7421 75.7929 49.7466 75.7929C49.7489 75.7929 49.7506 75.7929 49.7518 75.7929C49.7524 75.7929 49.7529 75.7929 49.7532 75.7929C49.7534 75.7929 49.7535 75.7929 49.7536 75.7929C49.7537 75.7929 49.7537 75.7929 49.7537 75.7929C49.7538 75.7929 49.7538 75.7929 49.7538 75.5516C49.7538 75.3102 49.7538 75.3102 49.7539 75.3102C49.7538 75.3102 49.7538 75.3102 49.7538 75.3102C49.7538 75.3102 49.7537 75.3102 49.7536 75.3102C49.7534 75.3102 49.7531 75.3102 49.7527 75.3102C49.7517 75.3102 49.7503 75.3102 49.7484 75.3102C49.7444 75.3102 49.7385 75.3102 49.7305 75.3102C49.7147 75.3102 49.6909 75.3097 49.6599 75.3092C49.598 75.3082 49.5072 75.3063 49.3926 75.3029C49.1635 75.2952 48.84 75.2802 48.464 75.2508C47.7091 75.1909 46.7532 75.0717 45.9233 74.8366L45.7895 75.301ZM42.6897 72.8964C42.5048 73.0533 42.5048 73.0533 42.5048 73.0538C42.5049 73.0538 42.5049 73.0538 42.505 73.0538C42.5051 73.0538 42.5052 73.0538 42.5053 73.0542C42.5056 73.0542 42.506 73.0547 42.5064 73.0552C42.5073 73.0562 42.5085 73.0576 42.5101 73.0596C42.5133 73.0634 42.5179 73.0682 42.5239 73.075C42.5358 73.0885 42.5532 73.1078 42.5757 73.1325C42.6207 73.1812 42.6865 73.2512 42.7705 73.3367C42.9384 73.5071 43.1802 73.7388 43.4767 73.986C44.0655 74.4774 44.8884 75.0456 45.7895 75.301L45.9233 74.8366C45.1192 74.6092 44.3588 74.0912 43.7906 73.6171C43.5085 73.3816 43.2783 73.1609 43.1189 72.9992C43.0393 72.9186 42.9775 72.8529 42.936 72.8076C42.9152 72.7849 42.8996 72.7675 42.8892 72.7559C42.8841 72.7501 42.8803 72.7458 42.8778 72.7429C42.8766 72.7414 42.8757 72.7405 42.8752 72.74C42.8749 72.7395 42.8748 72.7395 42.8747 72.7395C42.8746 72.739 42.8746 72.739 42.8746 72.739C42.8747 72.7395 42.8747 72.7395 42.6897 72.8964ZM39.2714 73.8619C40.0024 73.886 40.8848 73.6963 41.5688 73.508C41.9141 73.4134 42.2152 73.3169 42.4301 73.2445C42.5376 73.2082 42.6238 73.1778 42.6833 73.1561C42.7131 73.1455 42.7362 73.1368 42.752 73.131C42.7599 73.1281 42.766 73.1257 42.7702 73.1242C42.7723 73.1238 42.7739 73.1228 42.775 73.1223C42.7756 73.1223 42.776 73.1223 42.7763 73.1218C42.7765 73.1218 42.7766 73.1218 42.7767 73.1218C42.7768 73.1218 42.7768 73.1218 42.7768 73.1218C42.7769 73.1218 42.7769 73.1218 42.6897 72.8964C42.6025 72.6709 42.6025 72.6709 42.6026 72.6709C42.6026 72.6709 42.6026 72.6709 42.6025 72.6709C42.6025 72.6709 42.6025 72.6709 42.6024 72.6709C42.6022 72.6709 42.6019 72.6714 42.6015 72.6714C42.6007 72.6719 42.5994 72.6724 42.5975 72.6729C42.594 72.6743 42.5885 72.6763 42.5813 72.6791C42.5668 72.6845 42.545 72.6922 42.5166 72.7023C42.46 72.7231 42.377 72.7525 42.2729 72.7873C42.0647 72.8578 41.7729 72.9509 41.4386 73.0431C40.7636 73.2285 39.9408 73.4009 39.2876 73.3791L39.2714 73.8619ZM60.7235 73.8619C62.1216 73.8156 63.1428 73.3111 63.8144 72.8158C64.1495 72.5681 64.3976 72.3234 64.5628 72.1389C64.6454 72.0467 64.7075 71.9695 64.7496 71.9145C64.7706 71.8869 64.7867 71.8647 64.7978 71.8488C64.8034 71.8411 64.8078 71.8348 64.8109 71.83C64.8125 71.828 64.8137 71.8261 64.8146 71.8247C64.8151 71.8237 64.8155 71.8232 64.8159 71.8227C64.816 71.8227 64.8162 71.8222 64.8162 71.8222C64.8163 71.8222 64.8164 71.8218 64.8164 71.8218C64.8165 71.8218 64.8166 71.8218 64.6128 71.6895C64.409 71.5572 64.4091 71.5572 64.4092 71.5572C64.4092 71.5572 64.4092 71.5572 64.4092 71.5567C64.4093 71.5567 64.4093 71.5567 64.4093 71.5567C64.4094 71.5567 64.4093 71.5567 64.4092 71.5572C64.4089 71.5572 64.4084 71.5582 64.4076 71.5591C64.4059 71.5616 64.4031 71.5659 64.3991 71.5717C64.3911 71.5828 64.3783 71.6007 64.3608 71.6234C64.3259 71.6692 64.2719 71.7368 64.1985 71.8184C64.0516 71.9825 63.8277 72.2036 63.5234 72.4281C62.9161 72.8761 61.9886 73.3371 60.7073 73.3791L60.7235 73.8619ZM57.3051 72.8964C57.2179 73.1218 57.218 73.1218 57.218 73.1218C57.218 73.1218 57.2181 73.1218 57.2181 73.1218C57.2182 73.1218 57.2183 73.1218 57.2185 73.1218C57.2188 73.1223 57.2193 73.1223 57.2198 73.1223C57.221 73.1228 57.2226 73.1238 57.2247 73.1242C57.2289 73.1257 57.235 73.1281 57.2428 73.131C57.2587 73.1368 57.2818 73.1455 57.3115 73.1561C57.3711 73.1778 57.4572 73.2082 57.5647 73.2445C57.7796 73.3169 58.0807 73.4134 58.426 73.508C59.11 73.6963 59.9924 73.886 60.7235 73.8619L60.7073 73.3791C60.054 73.4009 59.2313 73.2285 58.5562 73.0431C58.222 72.9509 57.9301 72.8578 57.7219 72.7873C57.6178 72.7525 57.5349 72.7231 57.4782 72.7023C57.4499 72.6922 57.4281 72.6845 57.4136 72.6791C57.4063 72.6763 57.4008 72.6743 57.3973 72.6729C57.3955 72.6724 57.3942 72.6719 57.3933 72.6714C57.3929 72.6714 57.3927 72.6709 57.3925 72.6709C57.3924 72.6709 57.3923 72.6709 57.3923 72.6709C57.3923 72.6709 57.3923 72.6709 57.3923 72.6709C57.3923 72.6709 57.3923 72.6709 57.3051 72.8964ZM54.2054 75.301C55.1064 75.0456 55.9293 74.4774 56.5181 73.986C56.8146 73.7388 57.0564 73.5071 57.2243 73.3367C57.3084 73.2512 57.3741 73.1812 57.4192 73.1325C57.4417 73.1078 57.4591 73.0885 57.4709 73.075C57.4769 73.0682 57.4815 73.0634 57.4847 73.0596C57.4863 73.0576 57.4876 73.0562 57.4884 73.0552C57.4889 73.0547 57.4893 73.0542 57.4895 73.0542C57.4897 73.0538 57.4897 73.0538 57.4898 73.0538C57.4899 73.0538 57.4899 73.0538 57.49 73.0538C57.49 73.0533 57.49 73.0533 57.3051 72.8964C57.1202 72.7395 57.1202 72.7395 57.1202 72.739C57.1202 72.739 57.1202 72.739 57.1202 72.7395C57.1201 72.7395 57.1199 72.7395 57.1196 72.74C57.1191 72.7405 57.1182 72.7414 57.117 72.7429C57.1146 72.7458 57.1108 72.7501 57.1056 72.7559C57.0953 72.7675 57.0796 72.7849 57.0588 72.8076C57.0173 72.8529 56.9555 72.9186 56.8759 72.9992C56.7165 73.1609 56.4863 73.3816 56.2043 73.6171C55.636 74.0912 54.8756 74.6092 54.0715 74.8366L54.2054 75.301ZM50.241 75.5516C50.241 75.7929 50.2411 75.7929 50.2411 75.7929C50.2411 75.7929 50.2412 75.7929 50.2412 75.7929C50.2413 75.7929 50.2414 75.7929 50.2416 75.7929C50.242 75.7929 50.2424 75.7929 50.2431 75.7929C50.2442 75.7929 50.246 75.7929 50.2482 75.7929C50.2527 75.7929 50.2593 75.7929 50.2678 75.7929C50.2849 75.7925 50.3099 75.7925 50.3422 75.792C50.4068 75.791 50.5005 75.7891 50.6182 75.7852C50.8534 75.7775 51.1846 75.7625 51.5697 75.7316C52.3373 75.6708 53.3301 75.5487 54.2054 75.301L54.0715 74.8366C53.2416 75.0717 52.2857 75.1909 51.5309 75.2508C51.1548 75.2802 50.8314 75.2952 50.6022 75.3029C50.4877 75.3063 50.3969 75.3082 50.3349 75.3092C50.3039 75.3097 50.2801 75.3102 50.2643 75.3102C50.2564 75.3102 50.2504 75.3102 50.2465 75.3102C50.2445 75.3102 50.2431 75.3102 50.2422 75.3102C50.2417 75.3102 50.2414 75.3102 50.2412 75.3102C50.2411 75.3102 50.2411 75.3102 50.241 75.3102C50.241 75.3102 50.241 75.3102 50.241 75.3102C50.241 75.3102 50.241 75.3102 50.241 75.5516ZM50.4846 76.5171V75.5516H49.9974V76.5171H50.4846ZM54.0715 75.8021C52.3999 76.2757 51.2095 76.2757 50.241 76.2757V76.7585C51.2212 76.7585 52.4667 76.7585 54.2054 76.2665L54.0715 75.8021ZM57.5487 73.6205C57.3308 73.5124 57.3309 73.5124 57.3309 73.5124C57.3309 73.5124 57.331 73.5124 57.331 73.5124C57.3311 73.5119 57.3311 73.5119 57.3311 73.5119C57.3312 73.5119 57.3311 73.5119 57.3311 73.5119C57.331 73.5124 57.3306 73.5129 57.3301 73.5138C57.329 73.5158 57.3271 73.5196 57.3244 73.5245C57.3188 73.5346 57.3098 73.5505 57.2972 73.5722C57.2719 73.6147 57.232 73.678 57.176 73.7576C57.0638 73.916 56.8871 74.138 56.633 74.3828C56.1255 74.8714 55.3074 75.4521 54.0715 75.8021L54.2054 76.2665C55.5272 75.8924 56.4142 75.2662 56.9724 74.7289C57.2512 74.4605 57.4475 74.2148 57.5751 74.0342C57.6389 73.944 57.6856 73.8696 57.717 73.817C57.7326 73.7909 57.7444 73.7697 57.7526 73.7547C57.7567 73.747 57.7599 73.7412 57.7622 73.7369C57.7634 73.7345 57.7643 73.733 57.7651 73.7316C57.7654 73.7306 57.7657 73.7301 57.766 73.7296C57.7661 73.7296 57.7662 73.7291 57.7663 73.7291C57.7664 73.7287 57.7664 73.7287 57.7665 73.7287C57.7665 73.7287 57.7666 73.7287 57.5487 73.6205ZM60.6914 73.6215C60.0409 73.6852 59.2705 73.6278 58.6539 73.5515C58.3475 73.5138 58.0827 73.4718 57.8947 73.439C57.8008 73.4231 57.7262 73.4091 57.6753 73.3994C57.6499 73.3946 57.6304 73.3907 57.6174 73.3878C57.6109 73.3869 57.606 73.3859 57.6028 73.3849C57.6012 73.3849 57.6 73.3845 57.5993 73.3845C57.5989 73.3845 57.5987 73.3845 57.5985 73.3845C57.5984 73.3845 57.5984 73.3845 57.5984 73.3845C57.5984 73.3845 57.5984 73.3845 57.5487 73.6205C57.499 73.8566 57.499 73.8566 57.4991 73.8571C57.4991 73.8571 57.4991 73.8571 57.4992 73.8571C57.4993 73.8571 57.4994 73.8571 57.4995 73.8571C57.4998 73.8571 57.5002 73.8571 57.5007 73.8571C57.5017 73.8576 57.5032 73.8576 57.505 73.858C57.5088 73.859 57.5143 73.86 57.5214 73.8614C57.5355 73.8643 57.5563 73.8682 57.583 73.8735C57.6365 73.8836 57.714 73.8981 57.811 73.9145C58.005 73.9483 58.2778 73.9913 58.5936 74.0304C59.2215 74.1081 60.0344 74.1714 60.7393 74.1023L60.6914 73.6215ZM64.6128 71.6895C64.3915 71.5886 64.3916 71.5886 64.3917 71.5881C64.3917 71.5881 64.3917 71.5881 64.3918 71.5881C64.3918 71.5881 64.3919 71.5881 64.3919 71.5876C64.392 71.5876 64.392 71.5876 64.3919 71.5876C64.3918 71.5881 64.3915 71.5886 64.391 71.5896C64.39 71.5915 64.3881 71.5954 64.3853 71.6007C64.3798 71.6118 64.3707 71.6287 64.3577 71.6513C64.3316 71.6967 64.29 71.7643 64.2306 71.8478C64.1116 72.0144 63.9212 72.2427 63.6403 72.4812C63.0808 72.9562 62.153 73.4786 60.6914 73.6215L60.7393 74.1023C62.3036 73.9488 63.3246 73.3849 63.9573 72.8476C64.2725 72.5802 64.4891 72.3214 64.6281 72.1269C64.6977 72.0294 64.7478 71.9482 64.7812 71.8898C64.7979 71.8609 64.8105 71.8372 64.8192 71.8203C64.8236 71.8121 64.8269 71.8053 64.8294 71.8C64.8306 71.7976 64.8316 71.7957 64.8324 71.7938C64.8328 71.7933 64.8331 71.7923 64.8334 71.7918C64.8335 71.7914 64.8337 71.7914 64.8338 71.7909C64.8338 71.7909 64.8339 71.7909 64.8339 71.7909C64.834 71.7904 64.8341 71.7904 64.6128 71.6895Z" fill="white"/>
</svg>
