<svg width="41" height="51" viewBox="0 0 41 51" fill="none" xmlns="http://www.w3.org/2000/svg">
<rect y="0.230469" width="41" height="50" fill="#1AB8E6"/>
<g clip-path="url(#clip0)">
<path fill-rule="evenodd" clip-rule="evenodd" d="M20.5012 21.7144V17.3223C20.5012 17.3223 20.4549 17.3223 20.4086 17.368C20.3675 17.4087 20.1802 20.9498 20.1389 21.7416C19.0657 21.9022 18.088 22.7602 17.5517 23.9105H13.9736C13.9736 23.9105 13.9274 23.931 13.9273 23.9563C13.9271 24.002 13.9736 24.0478 13.9736 24.0478L17.3738 24.3493C17.2122 24.8156 17.1215 25.3174 17.1215 25.8321C17.1215 25.8474 17.1216 25.8626 17.1218 25.8778H3.23264C3.23264 25.8778 3.09375 25.9236 3.09375 26.0608C3.09375 26.1981 3.23264 26.2896 3.23264 26.2896L11.7801 27.2043C11.4084 27.3684 11.1493 27.737 11.1493 28.1654C11.1493 28.7465 11.626 29.2177 12.2141 29.2177C12.8022 29.2177 13.2789 28.7465 13.2789 28.1654C13.2789 27.818 13.1086 27.5099 12.8459 27.3183L16.0594 27.6621H16.0104C16.0104 27.6621 16.0104 29.0347 15.9641 29.1262C15.9178 29.2177 15.8252 29.2634 15.8252 29.2634V29.3092H16.103V27.6668L16.1493 27.6717V29.3092H16.4271V29.6295C16.4271 29.6295 16.4271 29.8582 16.6586 29.8582C16.89 29.8582 16.89 29.6295 16.89 29.6295V28.8517C16.89 28.8517 16.89 28.6687 16.6586 28.6687C16.4271 28.6687 16.4271 28.8517 16.4271 28.8517V29.2634C16.4271 29.2634 16.3345 29.2177 16.2882 29.1262C16.2451 29.0411 16.2421 27.8493 16.2419 27.6816L17.6397 27.8312C18.2466 28.8917 19.3144 29.5636 20.45 29.5832C20.4445 29.9548 20.433 30.359 20.4086 30.4072C20.3623 30.4987 20.2697 30.5445 20.2697 30.5445V30.5902H20.5012H20.5475H20.7789V30.5445C20.7789 30.5445 20.6863 30.4987 20.64 30.4072C20.6156 30.3589 20.6041 29.9539 20.5987 29.5821C21.7175 29.5453 22.7832 28.8778 23.3953 27.8327L24.8067 27.6816C24.8065 27.8493 24.8035 29.0411 24.7604 29.1262C24.7141 29.2177 24.6215 29.2634 24.6215 29.2634V28.8517C24.6215 28.8517 24.6215 28.6687 24.39 28.6687C24.1586 28.6687 24.1586 28.8517 24.1586 28.8517V29.6295C24.1586 29.6295 24.1586 29.8582 24.39 29.8582C24.6215 29.8582 24.6215 29.6295 24.6215 29.6295V29.3092H24.8993V27.6717L24.9456 27.6668V29.3092H25.2234V29.2634C25.2234 29.2634 25.1308 29.2177 25.0845 29.1262C25.0382 29.0347 25.0382 27.6621 25.0382 27.6621H24.9892L28.2027 27.3183C27.94 27.5099 27.7697 27.818 27.7697 28.1654C27.7697 28.7465 28.2464 29.2177 28.8345 29.2177C29.4225 29.2177 29.8993 28.7465 29.8993 28.1654C29.8993 27.737 29.6402 27.3684 29.2686 27.2043L37.816 26.2896C37.816 26.2896 37.9549 26.1981 37.9549 26.0608C37.9549 25.9236 37.816 25.8778 37.816 25.8778H23.9268C23.927 25.8626 23.9271 25.8474 23.9271 25.8321C23.9271 25.3176 23.8339 24.816 23.6684 24.3499L27.075 24.0478C27.075 24.0478 27.1215 24.002 27.1213 23.9563C27.1212 23.931 27.075 23.9105 27.075 23.9105H23.4861C22.9453 22.7766 21.9692 21.9268 20.9101 21.7489C20.8695 20.9718 20.6812 17.4088 20.64 17.368C20.5937 17.3223 20.5475 17.3223 20.5475 17.3223V21.7149C20.532 21.7146 20.5166 21.7144 20.5012 21.7144ZM12.2141 28.6687C12.4954 28.6687 12.7234 28.4434 12.7234 28.1654C12.7234 27.8874 12.4954 27.6621 12.2141 27.6621C11.9329 27.6621 11.7049 27.8874 11.7049 28.1654C11.7049 28.4434 11.9329 28.6687 12.2141 28.6687ZM15.316 29.6752V28.8974C15.316 28.8974 15.316 28.7144 15.5475 28.7144C15.7789 28.7144 15.7789 28.8974 15.7789 28.8974V29.6752C15.7789 29.6752 15.7789 29.904 15.5475 29.904C15.316 29.904 15.316 29.6752 15.316 29.6752ZM19.7604 30.9563V30.1785C19.7604 30.1785 19.7604 29.9955 19.9919 29.9955C20.2234 29.9955 20.2234 30.1785 20.2234 30.1785V30.9563C20.2234 30.9563 20.2234 31.185 19.9919 31.185C19.7604 31.185 19.7604 30.9563 19.7604 30.9563ZM18.7882 24.368C18.7882 24.368 19.2103 24.4789 19.4826 24.5053C19.789 24.535 20.2697 24.551 20.2697 24.551L20.316 25.4203C20.316 25.4203 19.8067 25.5118 19.2975 25.3746C18.69 25.2108 18.4178 25.0085 18.4178 25.0085L18.7882 24.368ZM28.8345 28.6687C28.5532 28.6687 28.3252 28.4434 28.3252 28.1654C28.3252 27.8874 28.5532 27.6621 28.8345 27.6621C29.1158 27.6621 29.3437 27.8874 29.3437 28.1654C29.3437 28.4434 29.1158 28.6687 28.8345 28.6687ZM25.7326 29.6752V28.8974C25.7326 28.8974 25.7326 28.7144 25.5012 28.7144C25.2697 28.7144 25.2697 28.8974 25.2697 28.8974V29.6752C25.2697 29.6752 25.2697 29.904 25.5012 29.904C25.7326 29.904 25.7326 29.6752 25.7326 29.6752ZM21.2882 30.9563V30.1785C21.2882 30.1785 21.2882 29.9955 21.0567 29.9955C20.8252 29.9955 20.8252 30.1785 20.8252 30.1785V30.9563C20.8252 30.9563 20.8252 31.185 21.0567 31.185C21.2882 31.185 21.2882 30.9563 21.2882 30.9563ZM22.2604 24.368C22.2604 24.368 21.8383 24.4789 21.566 24.5053C21.2596 24.535 20.7789 24.551 20.7789 24.551L20.7326 25.4203C20.7326 25.4203 21.2419 25.5118 21.7512 25.3746C22.3587 25.2108 22.6308 25.0085 22.6308 25.0085L22.2604 24.368Z" fill="white"/>
<path d="M20.5006 17.3211H20.5469V17.2754L20.5006 17.2754V17.3211ZM20.5006 21.7133H20.4543V21.7591H20.5006V21.7133ZM20.408 17.3669L20.3752 17.3345L20.408 17.3669ZM20.1384 21.7405L20.1452 21.7857L20.1826 21.7801L20.1846 21.7428L20.1384 21.7405ZM17.5511 23.9094V23.9551H17.5808L17.5932 23.9285L17.5511 23.9094ZM13.973 23.9094V23.8636H13.9631L13.954 23.8676L13.973 23.9094ZM13.9267 23.9551L13.8804 23.9549L13.9267 23.9551ZM13.973 24.0466L13.9403 24.079L13.9522 24.0907L13.9688 24.0922L13.973 24.0466ZM17.3733 24.3482L17.4171 24.363L17.4362 24.3078L17.3774 24.3026L17.3733 24.3482ZM17.1212 25.8767V25.9225H17.168L17.1675 25.8762L17.1212 25.8767ZM3.23206 25.8767V25.8309H3.22455L3.21742 25.8333L3.23206 25.8767ZM3.23206 26.2885L3.20638 26.3265L3.21581 26.3327L3.22708 26.334L3.23206 26.2885ZM11.7795 27.2031L11.7984 27.2449L11.9547 27.1759L11.7845 27.1577L11.7795 27.2031ZM12.8453 27.3171L12.8503 27.2717L12.68 27.2535L12.8178 27.3539L12.8453 27.3171ZM16.0588 27.661V27.7068L16.0638 27.6155L16.0588 27.661ZM16.0098 27.661V27.6153H15.9635V27.661H16.0098ZM15.8247 29.2623L15.8039 29.2214L15.7784 29.234V29.2623H15.8247ZM15.8247 29.3081H15.7784V29.3538H15.8247V29.3081ZM16.1024 29.3081V29.3538H16.1487V29.3081H16.1024ZM16.1024 27.6657L16.1074 27.6202L16.0561 27.6147V27.6657H16.1024ZM16.1487 27.6706H16.195V27.6295L16.1537 27.6251L16.1487 27.6706ZM16.1487 29.3081H16.1024V29.3538H16.1487V29.3081ZM16.4265 29.3081H16.4728V29.2623H16.4265V29.3081ZM16.658 29.8571V29.8113V29.8571ZM16.4265 29.2623L16.4058 29.3032L16.4728 29.3363V29.2623H16.4265ZM16.2876 29.1251L16.2462 29.1456L16.2876 29.1251ZM16.2413 27.6805L16.2463 27.635L16.1949 27.6295L16.195 27.6806L16.2413 27.6805ZM17.6391 27.8301L17.6794 27.8076L17.6677 27.7872L17.6441 27.7846L17.6391 27.8301ZM20.4494 29.5821L20.4957 29.5828L20.4963 29.5372L20.4502 29.5364L20.4494 29.5821ZM20.2691 30.5434L20.2484 30.5025L20.2228 30.5151V30.5434H20.2691ZM20.2691 30.5891H20.2228V30.6349H20.2691V30.5891ZM20.7784 30.5891V30.6349H20.8246V30.5891H20.7784ZM20.7784 30.5434H20.8246V30.5151L20.7991 30.5025L20.7784 30.5434ZM20.5981 29.5809L20.5965 29.5353L20.5511 29.5367L20.5518 29.5817L20.5981 29.5809ZM23.3947 27.8316L23.3897 27.7861L23.3664 27.7886L23.3546 27.8086L23.3947 27.8316ZM24.8061 27.6805L24.8524 27.6806L24.8525 27.6295L24.8011 27.635L24.8061 27.6805ZM24.6209 29.2623H24.5746V29.3363L24.6417 29.3032L24.6209 29.2623ZM24.3895 29.8571V29.8113V29.8571ZM24.6209 29.3081V29.2623H24.5746V29.3081H24.6209ZM24.8987 29.3081V29.3538H24.945V29.3081H24.8987ZM24.8987 27.6706L24.8937 27.6251L24.8524 27.6295V27.6706H24.8987ZM24.945 27.6657H24.9913V27.6147L24.94 27.6202L24.945 27.6657ZM24.945 29.3081H24.8987V29.3538H24.945V29.3081ZM25.2228 29.3081V29.3538H25.2691V29.3081H25.2228ZM25.2228 29.2623H25.2691V29.234L25.2435 29.2214L25.2228 29.2623ZM25.0376 27.661H25.0839V27.6153H25.0376V27.661ZM24.9886 27.661L24.9836 27.6155L24.9886 27.7068V27.661ZM28.2021 27.3171L28.2296 27.3539L28.3674 27.2535L28.1971 27.2717L28.2021 27.3171ZM29.268 27.2031L29.263 27.1577L29.0927 27.1759L29.2491 27.2449L29.268 27.2031ZM37.8154 26.2885L37.8204 26.334L37.8317 26.3327L37.841 26.3265L37.8154 26.2885ZM37.8154 25.8767L37.83 25.8333L37.8229 25.8309H37.8154V25.8767ZM23.9262 25.8767L23.8799 25.8762L23.8795 25.9225H23.9262V25.8767ZM23.6678 24.3488L23.6636 24.3032L23.6044 24.3085L23.6241 24.3639L23.6678 24.3488ZM27.0745 24.0466L27.0786 24.0922L27.0953 24.0907L27.1071 24.079L27.0745 24.0466ZM27.1208 23.9551L27.1671 23.955V23.9549L27.1208 23.9551ZM27.0745 23.9094L27.0934 23.8676L27.0844 23.8636H27.0745V23.9094ZM23.4855 23.9094L23.4436 23.9289L23.4561 23.9551H23.4855V23.9094ZM20.9096 21.7478L20.8633 21.7501L20.8652 21.7867L20.9018 21.7929L20.9096 21.7478ZM20.6395 17.3669L20.6067 17.3992V17.3992L20.6395 17.3669ZM20.5469 17.3211V17.2754L20.5006 17.2754V17.3211H20.5469ZM20.5469 21.7138L20.5459 21.7595L20.5932 21.7604V21.7138H20.5469ZM15.5469 29.9028V29.8571V29.9028ZM19.4821 24.5042L19.4866 24.4586L19.4821 24.5042ZM18.7876 24.3669L18.7995 24.3227L18.7651 24.3136L18.7474 24.3442L18.7876 24.3669ZM20.2691 24.5499L20.3153 24.5475L20.3131 24.5056L20.2707 24.5042L20.2691 24.5499ZM20.3154 25.4192L20.3236 25.4642L20.3637 25.457L20.3616 25.4168L20.3154 25.4192ZM19.2969 25.3734L19.2846 25.4176L19.2969 25.3734ZM18.4172 25.0074L18.3771 24.9847L18.3568 25.0197L18.3894 25.044L18.4172 25.0074ZM25.5006 29.9028V29.8571V29.9028ZM21.5654 24.5042L21.5609 24.4586L21.5654 24.5042ZM22.2598 24.3669L22.3 24.3442L22.2823 24.3136L22.248 24.3227L22.2598 24.3669ZM20.7784 24.5499L20.7768 24.5042L20.7344 24.5056L20.7322 24.5475L20.7784 24.5499ZM20.7321 25.4192L20.6859 25.4168L20.6837 25.457L20.7238 25.4642L20.7321 25.4192ZM21.7506 25.3734L21.7628 25.4176L21.7506 25.3734ZM22.6302 25.0074L22.6581 25.044L22.6907 25.0197L22.6704 24.9847L22.6302 25.0074ZM20.4543 17.3211V21.7133H20.5469V17.3211H20.4543ZM20.4408 17.3992C20.4582 17.382 20.4749 17.374 20.4863 17.3703C20.4921 17.3684 20.4965 17.3675 20.4992 17.3672C20.5005 17.367 20.5013 17.3669 20.5016 17.3669C20.5017 17.3669 20.5017 17.3669 20.5015 17.3669C20.5015 17.3669 20.5013 17.3669 20.5012 17.3669C20.5011 17.3669 20.501 17.3669 20.5009 17.3669C20.5009 17.3669 20.5008 17.3669 20.5008 17.3669H20.5007C20.5006 17.3669 20.5006 17.3669 20.5006 17.3211C20.5006 17.2754 20.5006 17.2754 20.5005 17.2754C20.5005 17.2754 20.5004 17.2754 20.5004 17.2754C20.5003 17.2754 20.5002 17.2754 20.5002 17.2754C20.5 17.2754 20.4998 17.2754 20.4997 17.2754C20.4994 17.2754 20.499 17.2754 20.4985 17.2754C20.4977 17.2755 20.4966 17.2755 20.4954 17.2756C20.493 17.2757 20.4898 17.276 20.486 17.2766C20.4785 17.2776 20.4686 17.2796 20.457 17.2835C20.4336 17.2912 20.4041 17.3061 20.3752 17.3345L20.4408 17.3992ZM20.1846 21.7428C20.2052 21.347 20.2623 20.2638 20.3195 19.2746C20.348 18.78 20.3766 18.309 20.4005 17.9592C20.4125 17.7842 20.4234 17.6398 20.4324 17.538C20.437 17.4871 20.441 17.4472 20.4446 17.4198C20.4463 17.4059 20.4479 17.396 20.4492 17.3895C20.4495 17.388 20.4497 17.3868 20.4499 17.3859C20.4501 17.385 20.4503 17.3846 20.4502 17.3846C20.4502 17.3847 20.4502 17.3849 20.45 17.3853C20.4499 17.3857 20.4497 17.3864 20.4492 17.3873C20.4488 17.3882 20.4464 17.3937 20.4408 17.3992L20.3752 17.3345C20.3689 17.3408 20.3659 17.3473 20.3648 17.3497C20.3634 17.3529 20.3623 17.3558 20.3617 17.3581C20.3603 17.3625 20.3592 17.3674 20.3583 17.372C20.3564 17.3814 20.3546 17.3937 20.3527 17.4083C20.3489 17.4375 20.3447 17.4787 20.3402 17.53C20.331 17.6327 20.3201 17.7779 20.3082 17.953C20.2841 18.3033 20.2556 18.7747 20.2271 19.2694C20.1699 20.2589 20.1128 21.3422 20.0921 21.7381L20.1846 21.7428ZM17.5932 23.9285C18.125 22.7878 19.0917 21.9434 20.1452 21.7857L20.1314 21.6952C19.0385 21.8588 18.0498 22.7302 17.5091 23.8902L17.5932 23.9285ZM13.973 23.9551H17.5511V23.8636H13.973V23.9551ZM13.973 23.9553C13.973 23.963 13.9696 23.9666 13.9704 23.9656C13.971 23.9647 13.9732 23.9626 13.9771 23.9598C13.9807 23.9572 13.9847 23.9549 13.9878 23.9532C13.9893 23.9524 13.9906 23.9518 13.9913 23.9514C13.9917 23.9512 13.992 23.9511 13.9921 23.9511C13.9922 23.951 13.9922 23.951 13.9922 23.951C13.9921 23.9511 13.9921 23.9511 13.9921 23.9511C13.9921 23.9511 13.9921 23.9511 13.992 23.9511V23.9511V23.9511C13.992 23.9511 13.992 23.9511 13.973 23.9094C13.954 23.8676 13.954 23.8676 13.954 23.8676V23.8677C13.954 23.8677 13.954 23.8677 13.9539 23.8677C13.9539 23.8677 13.9539 23.8677 13.9538 23.8677C13.9537 23.8678 13.9537 23.8678 13.9535 23.8678C13.9534 23.8679 13.9532 23.868 13.9529 23.8682C13.9523 23.8684 13.9516 23.8688 13.9507 23.8692C13.9489 23.87 13.9465 23.8712 13.9437 23.8727C13.9383 23.8757 13.9306 23.8801 13.9227 23.8857C13.915 23.8912 13.9056 23.899 13.8975 23.9091C13.8897 23.919 13.8805 23.9347 13.8804 23.9549L13.973 23.9553ZM13.973 24.0466C14.0057 24.0142 14.0057 24.0142 14.0057 24.0142C14.0057 24.0142 14.0057 24.0142 14.0057 24.0143C14.0057 24.0143 14.0057 24.0143 14.0057 24.0143C14.0058 24.0143 14.0058 24.0143 14.0058 24.0143C14.0058 24.0143 14.0058 24.0143 14.0058 24.0144C14.0058 24.0144 14.0058 24.0143 14.0057 24.0142C14.0055 24.0141 14.0052 24.0138 14.0047 24.0133C14.0039 24.0124 14.0025 24.0109 14.0009 24.0089C13.9973 24.005 13.9928 23.9993 13.9883 23.9926C13.9782 23.9778 13.973 23.9643 13.973 23.9553L13.8804 23.9549C13.8802 23.9917 13.8982 24.024 13.9112 24.0435C13.9184 24.0539 13.9254 24.0626 13.9306 24.0686C13.9333 24.0716 13.9355 24.0741 13.9372 24.0759C13.9381 24.0767 13.9387 24.0775 13.9393 24.078C13.9396 24.0783 13.9397 24.0785 13.9399 24.0787C13.94 24.0787 13.9401 24.0788 13.9401 24.0789C13.9402 24.0789 13.9402 24.079 13.9402 24.079C13.9402 24.079 13.9403 24.079 13.9403 24.079C13.9403 24.079 13.9403 24.079 13.9403 24.079C13.9403 24.079 13.9403 24.079 13.973 24.0466ZM17.3774 24.3026L13.9772 24.0011L13.9688 24.0922L17.3692 24.3938L17.3774 24.3026ZM17.1672 25.8309C17.1672 25.3216 17.257 24.8247 17.4171 24.363L17.3295 24.3334C17.1662 24.8041 17.0747 25.311 17.0747 25.8309H17.1672ZM17.1675 25.8762C17.1673 25.8612 17.1672 25.8461 17.1672 25.8309H17.0747C17.0747 25.8464 17.0747 25.8618 17.0749 25.8772L17.1675 25.8762ZM3.23206 25.9225H17.1212V25.8309H3.23206V25.9225ZM3.13947 26.0597C3.13947 26.0085 3.16467 25.9746 3.19225 25.9519C3.20622 25.9404 3.22037 25.9322 3.23106 25.9269C3.23636 25.9243 3.24066 25.9225 3.24346 25.9213C3.24486 25.9208 3.24587 25.9204 3.24644 25.9202C3.24672 25.9201 3.24689 25.92 3.24694 25.92C3.24696 25.92 3.24695 25.92 3.24691 25.92C3.24689 25.92 3.24687 25.92 3.24683 25.9201C3.24681 25.9201 3.24679 25.9201 3.24677 25.9201C3.24676 25.9201 3.24674 25.9201 3.24674 25.9201C3.24672 25.9201 3.2467 25.9201 3.23206 25.8767C3.21742 25.8333 3.2174 25.8333 3.21738 25.8333C3.21737 25.8333 3.21735 25.8333 3.21734 25.8333C3.21731 25.8333 3.21727 25.8333 3.21724 25.8334C3.21717 25.8334 3.21709 25.8334 3.21701 25.8334C3.21683 25.8335 3.21663 25.8336 3.21639 25.8336C3.21591 25.8338 3.2153 25.834 3.21456 25.8343C3.21309 25.8348 3.21112 25.8356 3.20872 25.8365C3.20393 25.8384 3.19738 25.8413 3.18965 25.8451C3.1743 25.8527 3.15374 25.8645 3.13298 25.8816C3.09112 25.9161 3.04688 25.9736 3.04688 26.0597H3.13947ZM3.23206 26.2885C3.25774 26.2504 3.25775 26.2504 3.25776 26.2504C3.25777 26.2504 3.25778 26.2504 3.25779 26.2504C3.2578 26.2504 3.25781 26.2504 3.25782 26.2504C3.25784 26.2505 3.25785 26.2505 3.25785 26.2505C3.25785 26.2505 3.25783 26.2505 3.25777 26.2504C3.25765 26.2503 3.25741 26.2502 3.25705 26.2499C3.25633 26.2494 3.25516 26.2486 3.25359 26.2475C3.25044 26.2452 3.24574 26.2416 3.24 26.2369C3.22846 26.2274 3.21307 26.2134 3.19777 26.1958C3.16654 26.1598 3.13947 26.1129 3.13947 26.0597H3.04688C3.04688 26.1438 3.08925 26.2113 3.12746 26.2553C3.14689 26.2777 3.16622 26.2952 3.18072 26.3072C3.188 26.3132 3.19415 26.3178 3.1986 26.3211C3.20083 26.3227 3.20263 26.324 3.20395 26.3249C3.20461 26.3253 3.20515 26.3257 3.20556 26.326C3.20576 26.3261 3.20593 26.3262 3.20607 26.3263C3.20614 26.3264 3.2062 26.3264 3.20625 26.3264C3.20628 26.3265 3.2063 26.3265 3.20632 26.3265C3.20633 26.3265 3.20635 26.3265 3.20635 26.3265C3.20637 26.3265 3.20638 26.3265 3.23206 26.2885ZM11.7845 27.1577L3.23704 26.243L3.22708 26.334L11.7745 27.2486L11.7845 27.1577ZM11.195 28.1643C11.195 27.7546 11.4427 27.402 11.7984 27.2449L11.7606 27.1613C11.3728 27.3326 11.1024 27.7172 11.1024 28.1643H11.195ZM12.2135 29.1708C11.651 29.1708 11.195 28.7202 11.195 28.1643H11.1024C11.1024 28.7707 11.5999 29.2623 12.2135 29.2623V29.1708ZM13.2321 28.1643C13.2321 28.7202 12.776 29.1708 12.2135 29.1708V29.2623C12.8272 29.2623 13.3247 28.7707 13.3247 28.1643H13.2321ZM12.8178 27.3539C13.0692 27.5373 13.2321 27.832 13.2321 28.1643H13.3247C13.3247 27.8017 13.1468 27.4802 12.8728 27.2804L12.8178 27.3539ZM16.0638 27.6155L12.8503 27.2717L12.8403 27.3626L16.0539 27.7065L16.0638 27.6155ZM16.0098 27.7068H16.0588V27.6153H16.0098V27.7068ZM16.0049 29.1456C16.0113 29.1329 16.0148 29.1158 16.0173 29.1011C16.0201 29.0844 16.0226 29.0639 16.0249 29.0402C16.0295 28.9928 16.0333 28.9308 16.0366 28.8598C16.0431 28.7176 16.0474 28.5369 16.0503 28.3595C16.0533 28.1819 16.0547 28.0074 16.0554 27.8771C16.0558 27.8121 16.0559 27.758 16.056 27.7203C16.0561 27.7014 16.0561 27.6866 16.0561 27.6765C16.0561 27.6714 16.0561 27.6676 16.0561 27.6649C16.0561 27.6637 16.0561 27.6627 16.0561 27.662C16.0561 27.6617 16.0561 27.6615 16.0561 27.6613C16.0561 27.6612 16.0561 27.6611 16.0561 27.6611C16.0561 27.661 16.0561 27.661 16.0561 27.661C16.0561 27.661 16.0561 27.661 16.0098 27.661C15.9635 27.661 15.9635 27.661 15.9635 27.661C15.9635 27.661 15.9635 27.661 15.9635 27.6611C15.9635 27.6611 15.9635 27.6612 15.9635 27.6613C15.9635 27.6614 15.9635 27.6617 15.9635 27.662C15.9635 27.6627 15.9635 27.6637 15.9635 27.6649C15.9635 27.6675 15.9635 27.6714 15.9635 27.6764C15.9635 27.6865 15.9635 27.7012 15.9634 27.72C15.9634 27.7577 15.9632 27.8116 15.9628 27.8767C15.9621 28.0066 15.9607 28.1809 15.9578 28.358C15.9548 28.5351 15.9506 28.7148 15.9441 28.8556C15.9409 28.9261 15.9371 28.9863 15.9327 29.0316C15.9306 29.0542 15.9284 29.0725 15.926 29.086C15.9234 29.1015 15.9215 29.1058 15.9221 29.1046L16.0049 29.1456ZM15.8247 29.2623C15.8454 29.3032 15.8454 29.3032 15.8454 29.3032H15.8455C15.8455 29.3031 15.8456 29.3031 15.8456 29.3031C15.8458 29.303 15.8459 29.303 15.846 29.303C15.8463 29.3028 15.8467 29.3026 15.8472 29.3023C15.8482 29.3018 15.8495 29.3011 15.851 29.3002C15.8543 29.2985 15.8587 29.296 15.8641 29.2927C15.8748 29.2862 15.8895 29.2765 15.9057 29.2637C15.9377 29.2383 15.9778 29.1992 16.0049 29.1456L15.9221 29.1046C15.903 29.1425 15.8736 29.1719 15.8478 29.1923C15.8351 29.2024 15.8236 29.2099 15.8156 29.2147C15.8116 29.2172 15.8084 29.219 15.8063 29.2201C15.8053 29.2207 15.8047 29.2211 15.8042 29.2212C15.804 29.2214 15.8038 29.2214 15.8038 29.2214C15.8038 29.2215 15.8038 29.2215 15.8038 29.2214C15.8038 29.2214 15.8038 29.2214 15.8039 29.2214C15.8039 29.2214 15.8039 29.2214 15.8247 29.2623ZM15.8709 29.3081V29.2623H15.7784V29.3081H15.8709ZM16.1024 29.2623H15.8247V29.3538H16.1024V29.2623ZM16.0561 27.6657V29.3081H16.1487V27.6657H16.0561ZM16.1537 27.6251L16.1074 27.6202L16.0974 27.7112L16.1437 27.7161L16.1537 27.6251ZM16.195 29.3081V27.6706H16.1024V29.3081H16.195ZM16.4265 29.2623H16.1487V29.3538H16.4265V29.2623ZM16.4728 29.6283V29.3081H16.3802V29.6283H16.4728ZM16.658 29.8113C16.6082 29.8113 16.574 29.7992 16.5498 29.7833C16.5254 29.7672 16.5085 29.7455 16.4969 29.7222C16.485 29.6989 16.4789 29.675 16.4758 29.6565C16.4743 29.6475 16.4735 29.64 16.4732 29.6349C16.473 29.6324 16.4729 29.6305 16.4728 29.6293C16.4728 29.6288 16.4728 29.6284 16.4728 29.6282C16.4728 29.6282 16.4728 29.6282 16.4728 29.6282C16.4728 29.6282 16.4728 29.6282 16.4728 29.6282C16.4728 29.6282 16.4728 29.6282 16.4728 29.6283C16.4728 29.6283 16.4728 29.6283 16.4265 29.6283C16.3802 29.6283 16.3802 29.6283 16.3802 29.6284V29.6285C16.3802 29.6286 16.3802 29.6287 16.3802 29.6289C16.3802 29.6291 16.3802 29.6293 16.3802 29.6297C16.3802 29.6304 16.3802 29.6314 16.3803 29.6325C16.3804 29.6346 16.3805 29.6377 16.3808 29.6414C16.3813 29.6489 16.3823 29.6593 16.3845 29.6716C16.3885 29.696 16.3969 29.7294 16.414 29.7632C16.4312 29.7972 16.4578 29.8326 16.4984 29.8594C16.5395 29.8864 16.5921 29.9028 16.658 29.9028V29.8113ZM16.8895 29.6283C16.8432 29.6283 16.8432 29.6283 16.8432 29.6283C16.8432 29.6282 16.8432 29.6282 16.8432 29.6282C16.8432 29.6282 16.8432 29.6282 16.8432 29.6282C16.8432 29.6282 16.8432 29.6282 16.8432 29.6282C16.8432 29.6284 16.8432 29.6288 16.8432 29.6293C16.8431 29.6305 16.843 29.6324 16.8428 29.6349C16.8424 29.64 16.8417 29.6475 16.8402 29.6565C16.8371 29.675 16.8309 29.6989 16.8191 29.7222C16.8074 29.7455 16.7906 29.7672 16.7661 29.7833C16.742 29.7992 16.7078 29.8113 16.658 29.8113V29.9028C16.7239 29.9028 16.7765 29.8864 16.8175 29.8594C16.8582 29.8326 16.8847 29.7972 16.902 29.7632C16.9191 29.7294 16.9274 29.696 16.9315 29.6716C16.9336 29.6593 16.9347 29.6489 16.9352 29.6414C16.9355 29.6377 16.9356 29.6346 16.9357 29.6325C16.9358 29.6314 16.9358 29.6304 16.9358 29.6297C16.9358 29.6293 16.9358 29.6291 16.9358 29.6289C16.9358 29.6287 16.9358 29.6286 16.9358 29.6285V29.6284C16.9358 29.6283 16.9358 29.6283 16.8895 29.6283ZM16.8432 28.8506V29.6283H16.9358V28.8506H16.8432ZM16.658 28.7133C16.7589 28.7133 16.8014 28.7518 16.8213 28.7833C16.8322 28.8004 16.8377 28.8179 16.8405 28.8313C16.8419 28.8379 16.8426 28.8432 16.8429 28.8468C16.8431 28.8485 16.8432 28.8497 16.8432 28.8504C16.8432 28.8507 16.8432 28.8509 16.8432 28.8509C16.8432 28.851 16.8432 28.8509 16.8432 28.8509C16.8432 28.8508 16.8432 28.8508 16.8432 28.8507V28.8506C16.8432 28.8506 16.8432 28.8506 16.8895 28.8506C16.9358 28.8506 16.9358 28.8506 16.9358 28.8505C16.9358 28.8504 16.9358 28.8504 16.9358 28.8503C16.9358 28.8502 16.9358 28.8501 16.9358 28.85C16.9358 28.8497 16.9358 28.8495 16.9358 28.8491C16.9358 28.8485 16.9357 28.8476 16.9357 28.8466C16.9356 28.8446 16.9354 28.8419 16.9351 28.8387C16.9346 28.8321 16.9334 28.8232 16.9311 28.8127C16.9268 28.7917 16.9179 28.7634 16.8997 28.7348C16.8618 28.6748 16.7885 28.6218 16.658 28.6218V28.7133ZM16.4265 28.8506C16.4728 28.8506 16.4728 28.8506 16.4728 28.8506V28.8507C16.4728 28.8508 16.4728 28.8508 16.4728 28.8509C16.4728 28.8509 16.4728 28.851 16.4728 28.8509C16.4728 28.8509 16.4728 28.8507 16.4728 28.8504C16.4728 28.8497 16.4729 28.8485 16.4731 28.8468C16.4734 28.8432 16.4741 28.8379 16.4755 28.8313C16.4783 28.8179 16.4838 28.8004 16.4946 28.7833C16.5146 28.7518 16.5571 28.7133 16.658 28.7133V28.6218C16.5274 28.6218 16.4542 28.6748 16.4162 28.7348C16.3981 28.7634 16.3892 28.7917 16.3848 28.8127C16.3826 28.8232 16.3814 28.8321 16.3809 28.8387C16.3806 28.8419 16.3804 28.8446 16.3803 28.8466C16.3803 28.8476 16.3802 28.8485 16.3802 28.8491C16.3802 28.8495 16.3802 28.8497 16.3802 28.85C16.3802 28.8501 16.3802 28.8502 16.3802 28.8503C16.3802 28.8504 16.3802 28.8504 16.3802 28.8505C16.3802 28.8506 16.3802 28.8506 16.4265 28.8506ZM16.4728 29.2623V28.8506H16.3802V29.2623H16.4728ZM16.2462 29.1456C16.2734 29.1992 16.3134 29.2383 16.3455 29.2637C16.3617 29.2765 16.3763 29.2862 16.3871 29.2927C16.3924 29.296 16.3969 29.2985 16.4001 29.3002C16.4017 29.3011 16.403 29.3018 16.4039 29.3023C16.4045 29.3026 16.4048 29.3028 16.4051 29.303C16.4053 29.303 16.4054 29.303 16.4056 29.3031C16.4056 29.3031 16.4057 29.3031 16.4057 29.3032H16.4058C16.4058 29.3032 16.4058 29.3032 16.4265 29.2623C16.4472 29.2214 16.4472 29.2214 16.4472 29.2214C16.4473 29.2214 16.4473 29.2214 16.4473 29.2214C16.4473 29.2215 16.4473 29.2215 16.4473 29.2214C16.4473 29.2214 16.4471 29.2214 16.447 29.2212C16.4465 29.2211 16.4459 29.2207 16.4448 29.2201C16.4428 29.219 16.4396 29.2172 16.4356 29.2147C16.4275 29.2099 16.416 29.2024 16.4034 29.1923C16.3775 29.1719 16.3482 29.1425 16.329 29.1046L16.2462 29.1456ZM16.195 27.6806C16.1951 27.7645 16.1959 28.1046 16.2021 28.4346C16.2052 28.5996 16.2097 28.7623 16.216 28.8894C16.2192 28.9528 16.2229 29.0079 16.2272 29.05C16.2294 29.0711 16.2318 29.0896 16.2344 29.1046C16.2368 29.1179 16.2402 29.1336 16.2462 29.1456L16.329 29.1046C16.3297 29.1059 16.328 29.1023 16.3256 29.0887C16.3234 29.0768 16.3214 29.0608 16.3194 29.0409C16.3153 29.0009 16.3117 28.9476 16.3085 28.8848C16.3022 28.7591 16.2978 28.5976 16.2947 28.4329C16.2885 28.1038 16.2877 27.7642 16.2876 27.6805L16.195 27.6806ZM17.6441 27.7846L16.2463 27.635L16.2363 27.726L17.6341 27.8756L17.6441 27.7846ZM20.4502 29.5364C19.3329 29.5171 18.2792 28.8556 17.6794 27.8076L17.5988 27.8526C18.2128 28.9255 19.2947 29.6079 20.4485 29.6279L20.4502 29.5364ZM20.4494 30.4266C20.456 30.4134 20.4596 30.3952 20.4622 30.3793C20.4652 30.3615 20.4677 30.339 20.4701 30.3133C20.4747 30.2618 20.4787 30.1943 20.4821 30.1173C20.4887 29.9631 20.493 29.7687 20.4957 29.5828L20.4031 29.5815C20.4004 29.7671 20.3961 29.9605 20.3896 30.1134C20.3862 30.1899 20.3823 30.2558 20.3779 30.3052C20.3756 30.3299 20.3733 30.3499 20.3709 30.3648C20.3681 30.3818 20.366 30.3867 20.3666 30.3856L20.4494 30.4266ZM20.2691 30.5434C20.2898 30.5843 20.2898 30.5843 20.2898 30.5843H20.2899C20.2899 30.5842 20.29 30.5842 20.29 30.5842C20.2902 30.5841 20.2903 30.584 20.2905 30.584C20.2908 30.5838 20.2911 30.5836 20.2917 30.5834C20.2926 30.5828 20.2939 30.5822 20.2955 30.5813C20.2987 30.5795 20.3032 30.577 20.3085 30.5737C20.3193 30.5673 20.3339 30.5576 20.3501 30.5447C20.3821 30.5194 20.4222 30.4802 20.4494 30.4266L20.3666 30.3856C20.3474 30.4235 20.3181 30.453 20.2922 30.4734C20.2796 30.4834 20.2681 30.4909 20.26 30.4958C20.256 30.4983 20.2528 30.5001 20.2508 30.5012C20.2497 30.5017 20.2491 30.5021 20.2486 30.5023C20.2484 30.5025 20.2483 30.5025 20.2483 30.5025C20.2483 30.5026 20.2483 30.5026 20.2483 30.5025C20.2483 30.5025 20.2483 30.5025 20.2484 30.5025C20.2484 30.5025 20.2484 30.5025 20.2691 30.5434ZM20.3154 30.5891V30.5434H20.2228V30.5891H20.3154ZM20.5006 30.5434H20.2691V30.6349H20.5006V30.5434ZM20.5469 30.5434H20.5006V30.6349H20.5469V30.5434ZM20.7784 30.5434H20.5469V30.6349H20.7784V30.5434ZM20.7321 30.5434V30.5891H20.8246V30.5434H20.7321ZM20.5981 30.4266C20.6252 30.4802 20.6653 30.5194 20.6973 30.5447C20.7135 30.5576 20.7282 30.5673 20.7389 30.5737C20.7443 30.577 20.7487 30.5795 20.752 30.5813C20.7535 30.5822 20.7548 30.5828 20.7558 30.5834C20.7563 30.5836 20.7567 30.5838 20.757 30.584C20.7571 30.584 20.7572 30.5841 20.7574 30.5842C20.7574 30.5842 20.7575 30.5842 20.7575 30.5843H20.7576C20.7576 30.5843 20.7576 30.5843 20.7784 30.5434C20.7991 30.5025 20.7991 30.5025 20.7991 30.5025C20.7992 30.5025 20.7992 30.5025 20.7992 30.5025C20.7992 30.5026 20.7992 30.5026 20.7992 30.5025C20.7992 30.5025 20.799 30.5025 20.7988 30.5023C20.7984 30.5021 20.7977 30.5017 20.7967 30.5012C20.7946 30.5001 20.7914 30.4983 20.7874 30.4958C20.7794 30.4909 20.7679 30.4834 20.7552 30.4734C20.7294 30.453 20.7 30.4235 20.6809 30.3856L20.5981 30.4266ZM20.5518 29.5817C20.5545 29.7677 20.5587 29.9624 20.5654 30.1168C20.5687 30.1939 20.5726 30.2615 20.5773 30.3132C20.5796 30.339 20.5822 30.3614 20.5852 30.3793C20.5878 30.3951 20.5914 30.4134 20.5981 30.4266L20.6809 30.3856C20.6814 30.3867 20.6794 30.3818 20.6766 30.3648C20.6742 30.3498 20.6718 30.3298 20.6696 30.305C20.665 30.2555 20.6612 30.1895 20.6579 30.1129C20.6513 29.9598 20.6471 29.7661 20.6444 29.5803L20.5518 29.5817ZM23.3546 27.8086C22.7496 28.8417 21.6976 29.499 20.5965 29.5353L20.5996 29.6267C21.736 29.5894 22.8156 28.9119 23.4348 27.8545L23.3546 27.8086ZM24.8011 27.635L23.3897 27.7861L23.3997 27.8771L24.8111 27.726L24.8011 27.635ZM24.8012 29.1456C24.8072 29.1336 24.8107 29.1179 24.8131 29.1046C24.8157 29.0896 24.8181 29.0711 24.8202 29.05C24.8246 29.0079 24.8283 28.9528 24.8314 28.8894C24.8378 28.7623 24.8422 28.5996 24.8453 28.4346C24.8515 28.1046 24.8523 27.7645 24.8524 27.6806L24.7598 27.6805C24.7597 27.7642 24.7589 28.1038 24.7527 28.4329C24.7496 28.5976 24.7453 28.7591 24.7389 28.8848C24.7358 28.9476 24.7321 29.0009 24.7281 29.0409C24.726 29.0608 24.724 29.0768 24.7219 29.0887C24.7195 29.1023 24.7178 29.1059 24.7184 29.1046L24.8012 29.1456ZM24.6209 29.2623C24.6417 29.3032 24.6417 29.3032 24.6417 29.3032H24.6418C24.6418 29.3031 24.6419 29.3031 24.6419 29.3031C24.6421 29.303 24.6421 29.303 24.6423 29.303C24.6426 29.3028 24.643 29.3026 24.6435 29.3023C24.6445 29.3018 24.6458 29.3011 24.6473 29.3002C24.6506 29.2985 24.655 29.296 24.6604 29.2927C24.6711 29.2862 24.6858 29.2765 24.702 29.2637C24.734 29.2383 24.7741 29.1992 24.8012 29.1456L24.7184 29.1046C24.6993 29.1425 24.6699 29.1719 24.6441 29.1923C24.6314 29.2024 24.6199 29.2099 24.6119 29.2147C24.6079 29.2172 24.6046 29.219 24.6026 29.2201C24.6016 29.2207 24.6009 29.2211 24.6005 29.2212C24.6003 29.2214 24.6001 29.2214 24.6001 29.2214C24.6001 29.2215 24.6001 29.2215 24.6001 29.2214C24.6001 29.2214 24.6001 29.2214 24.6002 29.2214C24.6002 29.2214 24.6002 29.2214 24.6209 29.2623ZM24.5746 28.8506V29.2623H24.6672V28.8506H24.5746ZM24.3895 28.7133C24.4904 28.7133 24.5329 28.7518 24.5528 28.7833C24.5636 28.8004 24.5692 28.8179 24.572 28.8313C24.5734 28.8379 24.5741 28.8432 24.5744 28.8468C24.5746 28.8485 24.5746 28.8497 24.5746 28.8504C24.5746 28.8507 24.5746 28.8509 24.5746 28.8509C24.5746 28.851 24.5746 28.8509 24.5746 28.8509C24.5746 28.8508 24.5746 28.8508 24.5746 28.8507V28.8506C24.5746 28.8506 24.5746 28.8506 24.6209 28.8506C24.6672 28.8506 24.6672 28.8506 24.6672 28.8505C24.6672 28.8504 24.6672 28.8504 24.6672 28.8503C24.6672 28.8502 24.6672 28.8501 24.6672 28.85C24.6672 28.8497 24.6672 28.8495 24.6672 28.8491C24.6672 28.8485 24.6671 28.8476 24.6671 28.8466C24.6671 28.8446 24.6669 28.8419 24.6666 28.8387C24.666 28.8321 24.6648 28.8232 24.6626 28.8127C24.6583 28.7917 24.6494 28.7634 24.6312 28.7348C24.5933 28.6748 24.52 28.6218 24.3895 28.6218V28.7133ZM24.158 28.8506C24.2043 28.8506 24.2043 28.8506 24.2043 28.8506V28.8507C24.2043 28.8508 24.2043 28.8508 24.2043 28.8509C24.2043 28.8509 24.2043 28.851 24.2043 28.8509C24.2043 28.8509 24.2043 28.8507 24.2043 28.8504C24.2043 28.8497 24.2044 28.8485 24.2046 28.8468C24.2048 28.8432 24.2056 28.8379 24.207 28.8313C24.2097 28.8179 24.2153 28.8004 24.2261 28.7833C24.246 28.7518 24.2885 28.7133 24.3895 28.7133V28.6218C24.2589 28.6218 24.1857 28.6748 24.1477 28.7348C24.1296 28.7634 24.1207 28.7917 24.1163 28.8127C24.1141 28.8232 24.1129 28.8321 24.1123 28.8387C24.1121 28.8419 24.1119 28.8446 24.1118 28.8466C24.1118 28.8476 24.1117 28.8485 24.1117 28.8491C24.1117 28.8495 24.1117 28.8497 24.1117 28.85C24.1117 28.8501 24.1117 28.8502 24.1117 28.8503C24.1117 28.8504 24.1117 28.8504 24.1117 28.8505C24.1117 28.8506 24.1117 28.8506 24.158 28.8506ZM24.2043 29.6283V28.8506H24.1117V29.6283H24.2043ZM24.3895 29.8113C24.3396 29.8113 24.3055 29.7992 24.2813 29.7833C24.2569 29.7672 24.24 29.7455 24.2284 29.7222C24.2165 29.6989 24.2104 29.675 24.2072 29.6565C24.2058 29.6475 24.205 29.64 24.2046 29.6349C24.2045 29.6324 24.2044 29.6305 24.2043 29.6293C24.2043 29.6288 24.2043 29.6284 24.2043 29.6282C24.2043 29.6282 24.2043 29.6282 24.2043 29.6282C24.2043 29.6282 24.2043 29.6282 24.2043 29.6282C24.2043 29.6282 24.2043 29.6282 24.2043 29.6283C24.2043 29.6283 24.2043 29.6283 24.158 29.6283C24.1117 29.6283 24.1117 29.6283 24.1117 29.6284V29.6285C24.1117 29.6286 24.1117 29.6287 24.1117 29.6289C24.1117 29.6291 24.1117 29.6293 24.1117 29.6297C24.1117 29.6304 24.1117 29.6314 24.1118 29.6325C24.1119 29.6346 24.112 29.6377 24.1122 29.6414C24.1128 29.6489 24.1138 29.6593 24.1159 29.6716C24.12 29.696 24.1284 29.7294 24.1455 29.7632C24.1627 29.7972 24.1893 29.8326 24.2299 29.8594C24.2709 29.8864 24.3235 29.9028 24.3895 29.9028V29.8113ZM24.6209 29.6283C24.5746 29.6283 24.5746 29.6283 24.5746 29.6283C24.5746 29.6282 24.5746 29.6282 24.5746 29.6282C24.5746 29.6282 24.5746 29.6282 24.5746 29.6282C24.5746 29.6282 24.5746 29.6282 24.5746 29.6282C24.5746 29.6284 24.5746 29.6288 24.5746 29.6293C24.5746 29.6305 24.5745 29.6324 24.5743 29.6349C24.5739 29.64 24.5732 29.6475 24.5717 29.6565C24.5685 29.675 24.5624 29.6989 24.5506 29.7222C24.5389 29.7455 24.5221 29.7672 24.4976 29.7833C24.4734 29.7992 24.4393 29.8113 24.3895 29.8113V29.9028C24.4554 29.9028 24.508 29.8864 24.549 29.8594C24.5896 29.8326 24.6162 29.7972 24.6334 29.7632C24.6506 29.7294 24.6589 29.696 24.663 29.6716C24.6651 29.6593 24.6661 29.6489 24.6667 29.6414C24.667 29.6377 24.6671 29.6346 24.6671 29.6325C24.6672 29.6314 24.6672 29.6304 24.6672 29.6297C24.6672 29.6293 24.6672 29.6291 24.6672 29.6289C24.6672 29.6287 24.6672 29.6286 24.6672 29.6285V29.6284C24.6672 29.6283 24.6672 29.6283 24.6209 29.6283ZM24.5746 29.3081V29.6283H24.6672V29.3081H24.5746ZM24.8987 29.2623H24.6209V29.3538H24.8987V29.2623ZM24.8524 27.6706V29.3081H24.945V27.6706H24.8524ZM24.94 27.6202L24.8937 27.6251L24.9037 27.7161L24.95 27.7112L24.94 27.6202ZM24.9913 29.3081V27.6657H24.8987V29.3081H24.9913ZM25.2228 29.2623H24.945V29.3538H25.2228V29.2623ZM25.1765 29.2623V29.3081H25.2691V29.2623H25.1765ZM25.0425 29.1456C25.0696 29.1992 25.1097 29.2383 25.1418 29.2637C25.158 29.2765 25.1726 29.2862 25.1834 29.2927C25.1887 29.296 25.1932 29.2985 25.1964 29.3002C25.198 29.3011 25.1993 29.3018 25.2002 29.3023C25.2008 29.3026 25.2011 29.3028 25.2014 29.303C25.2016 29.303 25.2017 29.303 25.2019 29.3031C25.2019 29.3031 25.202 29.3031 25.202 29.3032H25.2021C25.2021 29.3032 25.2021 29.3032 25.2228 29.2623C25.2435 29.2214 25.2435 29.2214 25.2435 29.2214C25.2436 29.2214 25.2436 29.2214 25.2436 29.2214C25.2436 29.2215 25.2436 29.2215 25.2436 29.2214C25.2436 29.2214 25.2434 29.2214 25.2433 29.2212C25.2428 29.2211 25.2421 29.2207 25.2411 29.2201C25.2391 29.219 25.2359 29.2172 25.2319 29.2147C25.2238 29.2099 25.2123 29.2024 25.1996 29.1923C25.1738 29.1719 25.1445 29.1425 25.1253 29.1046L25.0425 29.1456ZM25.0376 27.661C24.9913 27.661 24.9913 27.661 24.9913 27.661C24.9913 27.661 24.9913 27.661 24.9913 27.6611C24.9913 27.6611 24.9913 27.6612 24.9913 27.6613C24.9913 27.6615 24.9913 27.6617 24.9913 27.662C24.9913 27.6627 24.9913 27.6637 24.9913 27.6649C24.9913 27.6676 24.9913 27.6714 24.9913 27.6765C24.9913 27.6866 24.9913 27.7014 24.9914 27.7203C24.9915 27.758 24.9917 27.8121 24.9921 27.8771C24.9928 28.0074 24.9942 28.1819 24.9971 28.3595C25 28.5369 25.0044 28.7176 25.0109 28.8598C25.0142 28.9308 25.018 28.9928 25.0225 29.0402C25.0248 29.0639 25.0273 29.0844 25.0301 29.1011C25.0326 29.1158 25.0361 29.1329 25.0425 29.1456L25.1253 29.1046C25.1259 29.1058 25.124 29.1015 25.1214 29.086C25.1191 29.0725 25.1169 29.0542 25.1147 29.0316C25.1104 28.9863 25.1066 28.9261 25.1034 28.8556C25.0969 28.7148 25.0926 28.5351 25.0896 28.358C25.0868 28.1809 25.0854 28.0066 25.0846 27.8767C25.0843 27.8116 25.0841 27.7577 25.084 27.72C25.0839 27.7012 25.0839 27.6865 25.0839 27.6764C25.0839 27.6714 25.0839 27.6675 25.0839 27.6649C25.0839 27.6637 25.0839 27.6627 25.0839 27.662C25.0839 27.6617 25.0839 27.6614 25.0839 27.6613C25.0839 27.6612 25.0839 27.6611 25.0839 27.6611C25.0839 27.661 25.0839 27.661 25.0839 27.661C25.0839 27.661 25.0839 27.661 25.0376 27.661ZM24.9886 27.7068H25.0376V27.6153H24.9886V27.7068ZM28.1971 27.2717L24.9836 27.6155L24.9935 27.7065L28.2071 27.3626L28.1971 27.2717ZM27.8154 28.1643C27.8154 27.832 27.9783 27.5373 28.2296 27.3539L28.1746 27.2804C27.9007 27.4802 27.7228 27.8017 27.7228 28.1643H27.8154ZM28.8339 29.1708C28.2714 29.1708 27.8154 28.7202 27.8154 28.1643H27.7228C27.7228 28.7707 28.2203 29.2623 28.8339 29.2623V29.1708ZM29.8524 28.1643C29.8524 28.7202 29.3964 29.1708 28.8339 29.1708V29.2623C29.4475 29.2623 29.945 28.7707 29.945 28.1643H29.8524ZM29.2491 27.2449C29.6047 27.402 29.8524 27.7546 29.8524 28.1643H29.945C29.945 27.7172 29.6746 27.3326 29.2869 27.1613L29.2491 27.2449ZM37.8104 26.243L29.263 27.1577L29.2729 27.2486L37.8204 26.334L37.8104 26.243ZM37.908 26.0597C37.908 26.1129 37.8809 26.1598 37.8496 26.1958C37.8344 26.2134 37.819 26.2274 37.8074 26.2369C37.8017 26.2416 37.7971 26.2452 37.7939 26.2475C37.7923 26.2486 37.7911 26.2494 37.7904 26.2499C37.79 26.2502 37.7898 26.2503 37.7896 26.2504C37.7896 26.2505 37.7896 26.2505 37.7896 26.2505C37.7896 26.2505 37.7896 26.2505 37.7896 26.2505C37.7896 26.2504 37.7896 26.2504 37.7896 26.2504V26.2504C37.7897 26.2504 37.7897 26.2504 37.8154 26.2885C37.841 26.3265 37.841 26.3265 37.8411 26.3265C37.8411 26.3265 37.8411 26.3265 37.8411 26.3265C37.8411 26.3265 37.8411 26.3265 37.8412 26.3264C37.8412 26.3264 37.8413 26.3264 37.8414 26.3263C37.8415 26.3262 37.8417 26.3261 37.8419 26.326C37.8423 26.3257 37.8428 26.3253 37.8435 26.3249C37.8448 26.324 37.8466 26.3227 37.8488 26.3211C37.8533 26.3178 37.8595 26.3132 37.8667 26.3072C37.8812 26.2952 37.9006 26.2777 37.92 26.2553C37.9582 26.2113 38.0006 26.1438 38.0006 26.0597H37.908ZM37.8154 25.8767C37.8008 25.9201 37.8008 25.9201 37.8007 25.9201V25.9201C37.8007 25.9201 37.8007 25.9201 37.8006 25.9201C37.8006 25.9201 37.8006 25.92 37.8006 25.92C37.8005 25.92 37.8005 25.92 37.8005 25.92C37.8006 25.92 37.8008 25.9201 37.801 25.9202C37.8016 25.9204 37.8026 25.9208 37.804 25.9213C37.8068 25.9225 37.8111 25.9243 37.8164 25.9269C37.8271 25.9322 37.8412 25.9404 37.8552 25.9519C37.8828 25.9746 37.908 26.0085 37.908 26.0597H38.0006C38.0006 25.9736 37.9563 25.9161 37.9145 25.8816C37.8937 25.8645 37.8732 25.8527 37.8578 25.8451C37.8501 25.8413 37.8435 25.8384 37.8387 25.8365C37.8363 25.8356 37.8344 25.8348 37.8329 25.8343C37.8321 25.834 37.8315 25.8338 37.831 25.8336C37.8309 25.8336 37.8306 25.8335 37.8305 25.8334C37.8304 25.8334 37.8303 25.8334 37.8302 25.8334C37.8302 25.8333 37.8301 25.8333 37.8301 25.8333C37.8301 25.8333 37.8301 25.8333 37.8301 25.8333C37.83 25.8333 37.83 25.8333 37.8154 25.8767ZM23.9262 25.9225H37.8154V25.8309H23.9262V25.9225ZM23.8802 25.8309C23.8802 25.8461 23.8801 25.8612 23.8799 25.8762L23.9725 25.8772C23.9727 25.8618 23.9728 25.8464 23.9728 25.8309H23.8802ZM23.6241 24.3639C23.7881 24.8254 23.8802 25.3219 23.8802 25.8309H23.9728C23.9728 25.311 23.8787 24.8043 23.7115 24.3336L23.6241 24.3639ZM27.0703 24.0011L23.6636 24.3032L23.672 24.3943L27.0786 24.0922L27.0703 24.0011ZM27.0745 23.9553C27.0745 23.9643 27.0693 23.9778 27.0592 23.9926C27.0546 23.9993 27.0501 24.005 27.0466 24.0089C27.0449 24.0109 27.0435 24.0124 27.0427 24.0133C27.0422 24.0138 27.042 24.0141 27.0418 24.0142C27.0417 24.0143 27.0417 24.0144 27.0417 24.0144C27.0417 24.0144 27.0417 24.0143 27.0417 24.0143C27.0417 24.0143 27.0417 24.0143 27.0418 24.0143C27.0418 24.0143 27.0418 24.0143 27.0418 24.0143C27.0418 24.0142 27.0418 24.0142 27.0418 24.0142C27.0418 24.0142 27.0418 24.0142 27.0745 24.0466C27.1071 24.079 27.1071 24.079 27.1071 24.079C27.1071 24.079 27.1071 24.079 27.1071 24.079C27.1071 24.079 27.1072 24.079 27.1072 24.079C27.1072 24.079 27.1072 24.0789 27.1073 24.0789C27.1073 24.0788 27.1074 24.0787 27.1075 24.0787C27.1077 24.0785 27.1079 24.0783 27.1082 24.078C27.1087 24.0775 27.1094 24.0767 27.1103 24.0759C27.112 24.0741 27.1142 24.0716 27.1169 24.0686C27.1221 24.0626 27.1291 24.0539 27.1362 24.0435C27.1493 24.024 27.1672 23.9917 27.1671 23.955L27.0745 23.9553ZM27.0745 23.9094C27.0555 23.9511 27.0555 23.9511 27.0555 23.9511V23.9511V23.9511C27.0554 23.9511 27.0554 23.9511 27.0554 23.9511C27.0554 23.9511 27.0554 23.9511 27.0553 23.951C27.0553 23.951 27.0553 23.951 27.0554 23.9511C27.0555 23.9511 27.0558 23.9512 27.0561 23.9514C27.0569 23.9518 27.0582 23.9524 27.0596 23.9532C27.0628 23.9549 27.0668 23.9572 27.0704 23.9598C27.0743 23.9626 27.0764 23.9647 27.0771 23.9656C27.0779 23.9666 27.0745 23.963 27.0745 23.9553L27.1671 23.9549C27.167 23.9347 27.1577 23.919 27.1499 23.9091C27.1419 23.899 27.1324 23.8912 27.1247 23.8857C27.1169 23.8801 27.1092 23.8757 27.1037 23.8727C27.1009 23.8712 27.0985 23.87 27.0968 23.8692C27.0959 23.8688 27.0951 23.8684 27.0946 23.8682C27.0943 23.868 27.0941 23.8679 27.0939 23.8678C27.0937 23.8678 27.0937 23.8678 27.0936 23.8677C27.0935 23.8677 27.0935 23.8677 27.0935 23.8677C27.0934 23.8677 27.0934 23.8677 27.0934 23.8677V23.8676C27.0934 23.8676 27.0934 23.8676 27.0745 23.9094ZM23.4855 23.9551H27.0745V23.8636H23.4855V23.9551ZM20.9018 21.7929C21.9421 21.9676 22.9074 22.8046 23.4436 23.9289L23.5274 23.8899C22.9821 22.7463 21.9952 21.8837 20.9172 21.7027L20.9018 21.7929ZM20.6067 17.3992C20.601 17.3937 20.5986 17.3881 20.5983 17.3873C20.5978 17.3864 20.5975 17.3857 20.5974 17.3853C20.5972 17.3849 20.5972 17.3847 20.5972 17.3846C20.5971 17.3846 20.5973 17.385 20.5975 17.3859C20.5977 17.3868 20.598 17.388 20.5984 17.3896C20.5996 17.3961 20.6011 17.4061 20.6029 17.42C20.6065 17.4477 20.6106 17.4877 20.6151 17.539C20.6243 17.6414 20.6351 17.7865 20.6471 17.9624C20.6712 18.3141 20.6998 18.7874 20.7285 19.2838C20.7858 20.2767 20.843 21.3616 20.8633 21.7501L20.9558 21.7454C20.9355 21.3569 20.8783 20.2717 20.8209 19.2786C20.7923 18.7821 20.7636 18.3084 20.7396 17.9562C20.7275 17.7802 20.7166 17.6343 20.7073 17.531C20.7028 17.4794 20.6985 17.4379 20.6947 17.4085C20.6929 17.3939 20.691 17.3816 20.6892 17.3721C20.6883 17.3675 20.6872 17.3626 20.6859 17.3581C20.6851 17.3559 20.6841 17.3529 20.6827 17.3497C20.6816 17.3474 20.6785 17.3408 20.6722 17.3345L20.6067 17.3992ZM20.5469 17.3211C20.5469 17.3669 20.5469 17.3669 20.5468 17.3669H20.5467C20.5467 17.3669 20.5466 17.3669 20.5465 17.3669C20.5464 17.3669 20.5463 17.3669 20.5462 17.3669C20.5461 17.3669 20.5459 17.3669 20.5459 17.3669C20.5458 17.3669 20.5458 17.3669 20.5459 17.3669C20.5461 17.3669 20.547 17.367 20.5483 17.3672C20.5509 17.3675 20.5554 17.3684 20.5611 17.3703C20.5725 17.374 20.5893 17.382 20.6067 17.3992L20.6722 17.3345C20.6434 17.3061 20.6138 17.2912 20.5905 17.2835C20.5788 17.2796 20.5689 17.2776 20.5614 17.2766C20.5576 17.276 20.5545 17.2757 20.5521 17.2756C20.5509 17.2755 20.5497 17.2755 20.5489 17.2754C20.5484 17.2754 20.5481 17.2754 20.5477 17.2754C20.5476 17.2754 20.5474 17.2754 20.5472 17.2754C20.5472 17.2754 20.5471 17.2754 20.5471 17.2754C20.5471 17.2754 20.547 17.2754 20.547 17.2754V17.2754C20.5469 17.2754 20.5469 17.2754 20.5469 17.3211ZM20.5932 21.7138V17.3211H20.5006V21.7138H20.5932ZM20.5006 21.7591C20.5157 21.7591 20.5309 21.7592 20.5459 21.7595L20.5478 21.668C20.5321 21.6677 20.5163 21.6676 20.5006 21.6676V21.7591ZM12.6765 28.1643C12.6765 28.4169 12.4692 28.6218 12.2135 28.6218V28.7133C12.5204 28.7133 12.7691 28.4675 12.7691 28.1643H12.6765ZM12.2135 27.7068C12.4692 27.7068 12.6765 27.9116 12.6765 28.1643H12.7691C12.7691 27.861 12.5204 27.6153 12.2135 27.6153V27.7068ZM11.7506 28.1643C11.7506 27.9116 11.9579 27.7068 12.2135 27.7068V27.6153C11.9067 27.6153 11.658 27.861 11.658 28.1643H11.7506ZM12.2135 28.6218C11.9579 28.6218 11.7506 28.4169 11.7506 28.1643H11.658C11.658 28.4675 11.9067 28.7133 12.2135 28.7133V28.6218ZM15.2691 28.8963V29.6741H15.3617V28.8963H15.2691ZM15.5469 28.6676C15.4163 28.6676 15.3431 28.7205 15.3051 28.7806C15.287 28.8092 15.2781 28.8375 15.2737 28.8584C15.2715 28.8689 15.2703 28.8778 15.2697 28.8844C15.2695 28.8876 15.2693 28.8904 15.2692 28.8924C15.2692 28.8934 15.2691 28.8942 15.2691 28.8948C15.2691 28.8952 15.2691 28.8955 15.2691 28.8958C15.2691 28.8959 15.2691 28.8959 15.2691 28.896C15.2691 28.8961 15.2691 28.8961 15.2691 28.8962C15.2691 28.8963 15.2691 28.8963 15.3154 28.8963C15.3617 28.8963 15.3617 28.8963 15.3617 28.8964V28.8965C15.3617 28.8966 15.3617 28.8966 15.3617 28.8967C15.3617 28.8967 15.3617 28.8968 15.3617 28.8967C15.3617 28.8967 15.3617 28.8965 15.3617 28.8961C15.3617 28.8955 15.3618 28.8942 15.362 28.8926C15.3622 28.889 15.363 28.8837 15.3644 28.877C15.3672 28.8636 15.3727 28.8462 15.3835 28.8291C15.4034 28.7976 15.4459 28.7591 15.5469 28.7591V28.6676ZM15.7784 28.8963C15.8247 28.8963 15.8247 28.8963 15.8247 28.8962C15.8247 28.8961 15.8247 28.8961 15.8247 28.896C15.8247 28.8959 15.8247 28.8959 15.8247 28.8958C15.8247 28.8955 15.8247 28.8952 15.8247 28.8948C15.8247 28.8942 15.8246 28.8934 15.8246 28.8924C15.8245 28.8904 15.8243 28.8876 15.824 28.8844C15.8234 28.8778 15.8222 28.8689 15.82 28.8584C15.8157 28.8375 15.8068 28.8092 15.7886 28.7806C15.7507 28.7205 15.6774 28.6676 15.5469 28.6676V28.7591C15.6478 28.7591 15.6903 28.7976 15.7102 28.8291C15.721 28.8462 15.7266 28.8636 15.7294 28.877C15.7308 28.8837 15.7315 28.889 15.7318 28.8926C15.732 28.8942 15.7321 28.8955 15.7321 28.8961C15.7321 28.8965 15.7321 28.8967 15.7321 28.8967C15.7321 28.8968 15.7321 28.8967 15.7321 28.8967C15.7321 28.8966 15.7321 28.8966 15.7321 28.8965V28.8964C15.7321 28.8963 15.7321 28.8963 15.7784 28.8963ZM15.8247 29.6741V28.8963H15.7321V29.6741H15.8247ZM15.5469 29.9486C15.6128 29.9486 15.6654 29.9321 15.7064 29.9051C15.7471 29.8783 15.7736 29.8429 15.7909 29.809C15.808 29.7751 15.8163 29.7418 15.8204 29.7174C15.8225 29.705 15.8235 29.6947 15.8241 29.6872C15.8244 29.6834 15.8245 29.6804 15.8246 29.6782C15.8246 29.6771 15.8247 29.6762 15.8247 29.6755C15.8247 29.6751 15.8247 29.6748 15.8247 29.6746C15.8247 29.6745 15.8247 29.6744 15.8247 29.6743V29.6742C15.8247 29.6741 15.8247 29.6741 15.7784 29.6741C15.7321 29.6741 15.7321 29.6741 15.7321 29.6741C15.7321 29.674 15.7321 29.674 15.7321 29.674C15.7321 29.674 15.7321 29.674 15.7321 29.6739C15.7321 29.6739 15.7321 29.6739 15.7321 29.674C15.7321 29.6742 15.7321 29.6745 15.7321 29.6751C15.732 29.6763 15.7319 29.6781 15.7317 29.6807C15.7313 29.6857 15.7306 29.6932 15.7291 29.7023C15.7259 29.7208 15.7198 29.7446 15.708 29.768C15.6963 29.7912 15.6795 29.813 15.655 29.829C15.6309 29.8449 15.5967 29.8571 15.5469 29.8571V29.9486ZM15.3154 29.6741C15.2691 29.6741 15.2691 29.6741 15.2691 29.6742V29.6743C15.2691 29.6744 15.2691 29.6745 15.2691 29.6746C15.2691 29.6748 15.2691 29.6751 15.2691 29.6755C15.2691 29.6762 15.2691 29.6771 15.2692 29.6782C15.2693 29.6804 15.2694 29.6834 15.2697 29.6872C15.2702 29.6947 15.2712 29.705 15.2734 29.7174C15.2774 29.7418 15.2858 29.7751 15.3029 29.809C15.3201 29.8429 15.3467 29.8783 15.3873 29.9051C15.4284 29.9321 15.4809 29.9486 15.5469 29.9486V29.8571C15.4971 29.8571 15.4629 29.8449 15.4387 29.829C15.4143 29.813 15.3974 29.7912 15.3858 29.768C15.3739 29.7446 15.3678 29.7208 15.3647 29.7023C15.3632 29.6932 15.3624 29.6857 15.3621 29.6807C15.3619 29.6781 15.3618 29.6763 15.3617 29.6751C15.3617 29.6745 15.3617 29.6742 15.3617 29.674C15.3617 29.6739 15.3617 29.6739 15.3617 29.6739C15.3617 29.674 15.3617 29.674 15.3617 29.674C15.3617 29.674 15.3617 29.674 15.3617 29.6741C15.3617 29.6741 15.3617 29.6741 15.3154 29.6741ZM19.7135 30.1774V30.9551H19.8061V30.1774H19.7135ZM19.9913 29.9486C19.8608 29.9486 19.7875 30.0016 19.7496 30.0616C19.7314 30.0902 19.7225 30.1185 19.7182 30.1395C19.7159 30.15 19.7147 30.1589 19.7142 30.1655C19.7139 30.1687 19.7137 30.1714 19.7136 30.1734C19.7136 30.1744 19.7135 30.1753 19.7135 30.1759C19.7135 30.1763 19.7135 30.1765 19.7135 30.1768C19.7135 30.1769 19.7135 30.177 19.7135 30.1771C19.7135 30.1772 19.7135 30.1772 19.7135 30.1773C19.7135 30.1774 19.7135 30.1774 19.7598 30.1774C19.8061 30.1774 19.8061 30.1774 19.8061 30.1774V30.1775C19.8061 30.1776 19.8061 30.1776 19.8061 30.1777C19.8061 30.1777 19.8061 30.1775 19.8061 30.1772C19.8061 30.1765 19.8062 30.1753 19.8064 30.1736C19.8067 30.17 19.8074 30.1647 19.8088 30.158C19.8116 30.1447 19.8171 30.1272 19.828 30.1101C19.8479 30.0786 19.8904 30.0401 19.9913 30.0401V29.9486ZM20.2228 30.1774C20.2691 30.1774 20.2691 30.1774 20.2691 30.1773C20.2691 30.1772 20.2691 30.1772 20.2691 30.1771C20.2691 30.177 20.2691 30.1769 20.2691 30.1768C20.2691 30.1765 20.2691 30.1763 20.2691 30.1759C20.2691 30.1753 20.269 30.1744 20.269 30.1734C20.2689 30.1714 20.2687 30.1687 20.2684 30.1655C20.2679 30.1589 20.2667 30.15 20.2645 30.1395C20.2601 30.1185 20.2512 30.0902 20.2331 30.0616C20.1951 30.0016 20.1219 29.9486 19.9913 29.9486V30.0401C20.0922 30.0401 20.1347 30.0786 20.1547 30.1101C20.1655 30.1272 20.171 30.1447 20.1738 30.158C20.1752 30.1647 20.1759 30.17 20.1762 30.1736C20.1764 30.1753 20.1765 30.1765 20.1765 30.1772C20.1765 30.1775 20.1765 30.1777 20.1765 30.1777C20.1765 30.1776 20.1765 30.1776 20.1765 30.1775V30.1774C20.1765 30.1774 20.1765 30.1774 20.2228 30.1774ZM20.2691 30.9551V30.1774H20.1765V30.9551H20.2691ZM19.9913 31.2296C20.0572 31.2296 20.1098 31.2132 20.1509 31.1862C20.1915 31.1594 20.2181 31.124 20.2353 31.09C20.2524 31.0562 20.2608 31.0228 20.2648 30.9984C20.267 30.9861 20.268 30.9757 20.2685 30.9682C20.2688 30.9645 20.2689 30.9614 20.269 30.9593C20.2691 30.9582 20.2691 30.9572 20.2691 30.9565C20.2691 30.9561 20.2691 30.9559 20.2691 30.9557C20.2691 30.9555 20.2691 30.9554 20.2691 30.9553V30.9552C20.2691 30.9551 20.2691 30.9551 20.2228 30.9551C20.1765 30.9551 20.1765 30.9551 20.1765 30.9551C20.1765 30.955 20.1765 30.955 20.1765 30.955C20.1765 30.955 20.1765 30.955 20.1765 30.955C20.1765 30.955 20.1765 30.9549 20.1765 30.955C20.1765 30.9552 20.1765 30.9556 20.1765 30.9561C20.1764 30.9573 20.1763 30.9592 20.1761 30.9617C20.1758 30.9668 20.175 30.9743 20.1735 30.9833C20.1704 31.0018 20.1643 31.0257 20.1524 31.049C20.1408 31.0723 20.1239 31.094 20.0995 31.11C20.0753 31.126 20.0411 31.1381 19.9913 31.1381V31.2296ZM19.7598 30.9551C19.7135 30.9551 19.7135 30.9551 19.7135 30.9552V30.9553C19.7135 30.9554 19.7135 30.9555 19.7135 30.9557C19.7135 30.9559 19.7135 30.9561 19.7135 30.9565C19.7135 30.9572 19.7135 30.9582 19.7136 30.9593C19.7137 30.9614 19.7138 30.9645 19.7141 30.9682C19.7146 30.9757 19.7157 30.9861 19.7178 30.9984C19.7219 31.0228 19.7302 31.0562 19.7473 31.09C19.7646 31.124 19.7911 31.1594 19.8318 31.1862C19.8728 31.2132 19.9254 31.2296 19.9913 31.2296V31.1381C19.9415 31.1381 19.9073 31.126 19.8832 31.11C19.8587 31.094 19.8419 31.0723 19.8302 31.049C19.8184 31.0257 19.8122 31.0018 19.8091 30.9833C19.8076 30.9743 19.8069 30.9668 19.8065 30.9617C19.8063 30.9592 19.8062 30.9573 19.8061 30.9561C19.8061 30.9556 19.8061 30.9552 19.8061 30.955C19.8061 30.9549 19.8061 30.955 19.8061 30.955C19.8061 30.955 19.8061 30.955 19.8061 30.955C19.8061 30.955 19.8061 30.955 19.8061 30.9551C19.8061 30.9551 19.8061 30.9551 19.7598 30.9551ZM19.4866 24.4586C19.3534 24.4457 19.1821 24.4119 19.0429 24.381C18.9735 24.3656 18.9126 24.351 18.869 24.3402C18.8472 24.3349 18.8298 24.3305 18.8179 24.3274C18.8119 24.3259 18.8072 24.3247 18.8042 24.3239C18.8026 24.3235 18.8014 24.3232 18.8007 24.323C18.8003 24.3229 18.7999 24.3228 18.7997 24.3227C18.7996 24.3227 18.7996 24.3227 18.7996 24.3227V24.3227C18.7995 24.3227 18.7995 24.3227 18.7995 24.3227C18.7995 24.3227 18.7995 24.3227 18.7876 24.3669C18.7758 24.4111 18.7758 24.4111 18.7758 24.4111C18.7758 24.4111 18.7758 24.4111 18.7759 24.4111C18.7759 24.4112 18.7759 24.4112 18.776 24.4112C18.7763 24.4113 18.7766 24.4113 18.7771 24.4114C18.7779 24.4117 18.7791 24.412 18.7807 24.4124C18.7839 24.4132 18.7886 24.4145 18.7947 24.416C18.8069 24.4191 18.8246 24.4236 18.8466 24.429C18.8908 24.4399 18.9523 24.4547 19.0226 24.4703C19.1624 24.5013 19.3384 24.5362 19.4775 24.5497L19.4866 24.4586ZM20.2691 24.5499C20.2707 24.5042 20.2707 24.5042 20.2707 24.5042H20.2706C20.2705 24.5042 20.2704 24.5042 20.2703 24.5042C20.2701 24.5042 20.2697 24.5042 20.2693 24.5041C20.2684 24.5041 20.2671 24.5041 20.2652 24.504C20.2617 24.5039 20.2564 24.5037 20.2496 24.5034C20.2359 24.5029 20.2159 24.5022 20.191 24.5012C20.1413 24.4993 20.0718 24.4963 19.9928 24.4925C19.8345 24.4848 19.6386 24.4734 19.4866 24.4586L19.4775 24.5497C19.6319 24.5647 19.8296 24.5761 19.9882 24.5839C20.0676 24.5877 20.1374 24.5907 20.1873 24.5927C20.2123 24.5936 20.2323 24.5944 20.2461 24.5949C20.2531 24.5951 20.2584 24.5953 20.262 24.5954C20.2638 24.5955 20.2652 24.5955 20.2661 24.5956C20.2666 24.5956 20.267 24.5956 20.2671 24.5956C20.2672 24.5956 20.2673 24.5956 20.2674 24.5956H20.2675C20.2675 24.5956 20.2675 24.5956 20.2691 24.5499ZM20.3616 25.4168L20.3153 24.5475L20.2229 24.5523L20.2692 25.4216L20.3616 25.4168ZM19.2846 25.4176C19.5452 25.4878 19.8048 25.4993 19.9985 25.4935C20.0955 25.4906 20.1764 25.4833 20.2333 25.4768C20.2617 25.4735 20.2841 25.4704 20.2995 25.4681C20.3071 25.4669 20.3131 25.466 20.3171 25.4653C20.3192 25.465 20.3208 25.4647 20.3219 25.4645C20.3224 25.4644 20.3228 25.4643 20.3232 25.4643C20.3233 25.4643 20.3234 25.4642 20.3235 25.4642C20.3235 25.4642 20.3235 25.4642 20.3236 25.4642C20.3236 25.4642 20.3236 25.4642 20.3236 25.4642C20.3236 25.4642 20.3236 25.4642 20.3154 25.4192C20.3071 25.3742 20.3071 25.3742 20.3071 25.3742C20.3071 25.3742 20.3071 25.3742 20.3071 25.3742C20.3071 25.3742 20.307 25.3742 20.3069 25.3742C20.3067 25.3742 20.3064 25.3743 20.3059 25.3744C20.3051 25.3745 20.3037 25.3748 20.3019 25.3751C20.2983 25.3757 20.2928 25.3765 20.2856 25.3776C20.2711 25.3798 20.2497 25.3827 20.2225 25.3859C20.1679 25.3922 20.0896 25.3992 19.9957 25.402C19.8074 25.4077 19.5578 25.3963 19.3091 25.3293L19.2846 25.4176ZM18.4172 25.0074C18.3894 25.044 18.3895 25.044 18.3895 25.044C18.3895 25.044 18.3895 25.044 18.3895 25.044C18.3895 25.044 18.3896 25.0441 18.3896 25.0441C18.3897 25.0441 18.3897 25.0442 18.3898 25.0443C18.39 25.0444 18.3903 25.0446 18.3906 25.0449C18.3913 25.0453 18.3922 25.046 18.3934 25.0469C18.3959 25.0486 18.3994 25.051 18.4039 25.0542C18.4131 25.0604 18.4267 25.0693 18.4448 25.0804C18.481 25.1027 18.5353 25.1338 18.6085 25.17C18.7552 25.2423 18.978 25.3349 19.2846 25.4176L19.3091 25.3293C19.0083 25.2482 18.7912 25.1578 18.6499 25.0881C18.5793 25.0532 18.5275 25.0235 18.4937 25.0027C18.4768 24.9923 18.4644 24.9842 18.4563 24.9787C18.4522 24.976 18.4494 24.9739 18.4474 24.9726C18.4465 24.9719 18.4459 24.9714 18.4455 24.9711C18.4453 24.971 18.4451 24.9709 18.4451 24.9709C18.445 24.9708 18.445 24.9708 18.445 24.9708V24.9708C18.445 24.9708 18.445 24.9708 18.445 24.9708C18.445 24.9708 18.4451 24.9709 18.4172 25.0074ZM18.7474 24.3442L18.3771 24.9847L18.4574 25.0301L18.8278 24.3896L18.7474 24.3442ZM28.2784 28.1643C28.2784 28.4675 28.5271 28.7133 28.8339 28.7133V28.6218C28.5783 28.6218 28.3709 28.4169 28.3709 28.1643H28.2784ZM28.8339 27.6153C28.5271 27.6153 28.2784 27.861 28.2784 28.1643H28.3709C28.3709 27.9116 28.5783 27.7068 28.8339 27.7068V27.6153ZM29.3895 28.1643C29.3895 27.861 29.1408 27.6153 28.8339 27.6153V27.7068C29.0896 27.7068 29.2969 27.9116 29.2969 28.1643H29.3895ZM28.8339 28.7133C29.1408 28.7133 29.3895 28.4675 29.3895 28.1643H29.2969C29.2969 28.4169 29.0896 28.6218 28.8339 28.6218V28.7133ZM25.6858 28.8963V29.6741H25.7784V28.8963H25.6858ZM25.5006 28.7591C25.6015 28.7591 25.644 28.7976 25.6639 28.8291C25.6747 28.8462 25.6803 28.8636 25.6831 28.877C25.6845 28.8837 25.6852 28.889 25.6855 28.8926C25.6857 28.8942 25.6858 28.8955 25.6858 28.8961C25.6858 28.8965 25.6858 28.8967 25.6858 28.8967C25.6858 28.8968 25.6858 28.8967 25.6858 28.8967C25.6858 28.8966 25.6858 28.8966 25.6858 28.8965V28.8964C25.6858 28.8963 25.6858 28.8963 25.7321 28.8963C25.7784 28.8963 25.7784 28.8963 25.7784 28.8962C25.7784 28.8961 25.7784 28.8961 25.7784 28.896C25.7784 28.8959 25.7784 28.8959 25.7784 28.8958C25.7784 28.8955 25.7784 28.8952 25.7784 28.8948C25.7784 28.8942 25.7783 28.8934 25.7783 28.8924C25.7782 28.8904 25.778 28.8876 25.7777 28.8844C25.7771 28.8778 25.7759 28.8689 25.7737 28.8584C25.7694 28.8375 25.7605 28.8092 25.7423 28.7806C25.7044 28.7205 25.6311 28.6676 25.5006 28.6676V28.7591ZM25.2691 28.8963C25.3154 28.8963 25.3154 28.8963 25.3154 28.8964V28.8965C25.3154 28.8966 25.3154 28.8966 25.3154 28.8967C25.3154 28.8967 25.3154 28.8968 25.3154 28.8967C25.3154 28.8967 25.3154 28.8965 25.3154 28.8961C25.3154 28.8955 25.3155 28.8942 25.3157 28.8926C25.3159 28.889 25.3167 28.8837 25.3181 28.877C25.3209 28.8636 25.3264 28.8462 25.3372 28.8291C25.3571 28.7976 25.3996 28.7591 25.5006 28.7591V28.6676C25.37 28.6676 25.2968 28.7205 25.2588 28.7806C25.2407 28.8092 25.2318 28.8375 25.2274 28.8584C25.2252 28.8689 25.224 28.8778 25.2234 28.8844C25.2232 28.8876 25.223 28.8904 25.2229 28.8924C25.2229 28.8934 25.2228 28.8942 25.2228 28.8948C25.2228 28.8952 25.2228 28.8955 25.2228 28.8958C25.2228 28.8959 25.2228 28.8959 25.2228 28.896C25.2228 28.8961 25.2228 28.8961 25.2228 28.8962C25.2228 28.8963 25.2228 28.8963 25.2691 28.8963ZM25.3154 29.6741V28.8963H25.2228V29.6741H25.3154ZM25.5006 29.8571C25.4508 29.8571 25.4166 29.8449 25.3924 29.829C25.368 29.813 25.3511 29.7912 25.3395 29.768C25.3276 29.7446 25.3215 29.7208 25.3184 29.7023C25.3169 29.6932 25.3161 29.6857 25.3158 29.6807C25.3156 29.6781 25.3155 29.6763 25.3154 29.6751C25.3154 29.6745 25.3154 29.6742 25.3154 29.674C25.3154 29.6739 25.3154 29.6739 25.3154 29.6739C25.3154 29.674 25.3154 29.674 25.3154 29.674C25.3154 29.674 25.3154 29.674 25.3154 29.6741C25.3154 29.6741 25.3154 29.6741 25.2691 29.6741C25.2228 29.6741 25.2228 29.6741 25.2228 29.6742V29.6743C25.2228 29.6744 25.2228 29.6745 25.2228 29.6746C25.2228 29.6748 25.2228 29.6751 25.2228 29.6755C25.2228 29.6762 25.2228 29.6771 25.2229 29.6782C25.223 29.6804 25.2231 29.6834 25.2234 29.6872C25.2239 29.6947 25.2249 29.705 25.2271 29.7174C25.2311 29.7418 25.2395 29.7751 25.2566 29.809C25.2738 29.8429 25.3004 29.8783 25.341 29.9051C25.3821 29.9321 25.4346 29.9486 25.5006 29.9486V29.8571ZM25.7321 29.6741C25.6858 29.6741 25.6858 29.6741 25.6858 29.6741C25.6858 29.674 25.6858 29.674 25.6858 29.674C25.6858 29.674 25.6858 29.674 25.6858 29.6739C25.6858 29.6739 25.6858 29.6739 25.6858 29.674C25.6858 29.6742 25.6858 29.6745 25.6858 29.6751C25.6857 29.6763 25.6856 29.6781 25.6854 29.6807C25.685 29.6857 25.6843 29.6932 25.6828 29.7023C25.6796 29.7208 25.6735 29.7446 25.6617 29.768C25.65 29.7912 25.6332 29.813 25.6087 29.829C25.5846 29.8449 25.5504 29.8571 25.5006 29.8571V29.9486C25.5665 29.9486 25.6191 29.9321 25.6601 29.9051C25.7008 29.8783 25.7273 29.8429 25.7446 29.809C25.7617 29.7751 25.77 29.7418 25.7741 29.7174C25.7762 29.705 25.7772 29.6947 25.7778 29.6872C25.7781 29.6834 25.7782 29.6804 25.7783 29.6782C25.7784 29.6771 25.7784 29.6762 25.7784 29.6755C25.7784 29.6751 25.7784 29.6748 25.7784 29.6746C25.7784 29.6745 25.7784 29.6744 25.7784 29.6743V29.6742C25.7784 29.6741 25.7784 29.6741 25.7321 29.6741ZM21.2413 30.1774V30.9551H21.3339V30.1774H21.2413ZM21.0561 30.0401C21.1571 30.0401 21.1996 30.0786 21.2195 30.1101C21.2303 30.1272 21.2359 30.1447 21.2386 30.158C21.24 30.1647 21.2408 30.17 21.241 30.1736C21.2412 30.1753 21.2413 30.1765 21.2413 30.1772C21.2413 30.1775 21.2413 30.1777 21.2413 30.1777C21.2413 30.1776 21.2413 30.1776 21.2413 30.1775V30.1774C21.2413 30.1774 21.2413 30.1774 21.2876 30.1774C21.3339 30.1774 21.3339 30.1774 21.3339 30.1773C21.3339 30.1772 21.3339 30.1772 21.3339 30.1771C21.3339 30.177 21.3339 30.1769 21.3339 30.1768C21.3339 30.1765 21.3339 30.1763 21.3339 30.1759C21.3339 30.1753 21.3338 30.1744 21.3338 30.1734C21.3337 30.1714 21.3335 30.1687 21.3333 30.1655C21.3327 30.1589 21.3315 30.15 21.3293 30.1395C21.3249 30.1185 21.316 30.0902 21.2979 30.0616C21.2599 30.0016 21.1867 29.9486 21.0561 29.9486V30.0401ZM20.8246 30.1774C20.8709 30.1774 20.8709 30.1774 20.8709 30.1774V30.1775C20.8709 30.1776 20.8709 30.1776 20.8709 30.1777C20.8709 30.1777 20.8709 30.1775 20.8709 30.1772C20.8709 30.1765 20.871 30.1753 20.8712 30.1736C20.8715 30.17 20.8722 30.1647 20.8736 30.158C20.8764 30.1447 20.882 30.1272 20.8928 30.1101C20.9127 30.0786 20.9552 30.0401 21.0561 30.0401V29.9486C20.9256 29.9486 20.8523 30.0016 20.8144 30.0616C20.7962 30.0902 20.7873 30.1185 20.783 30.1395C20.7808 30.15 20.7796 30.1589 20.779 30.1655C20.7787 30.1687 20.7785 30.1714 20.7784 30.1734C20.7784 30.1744 20.7784 30.1753 20.7784 30.1759C20.7784 30.1763 20.7784 30.1765 20.7784 30.1768C20.7784 30.1769 20.7784 30.177 20.7784 30.1771C20.7784 30.1772 20.7784 30.1772 20.7784 30.1773C20.7784 30.1774 20.7784 30.1774 20.8246 30.1774ZM20.8709 30.9551V30.1774H20.7784V30.9551H20.8709ZM21.0561 31.1381C21.0063 31.1381 20.9721 31.126 20.948 31.11C20.9235 31.094 20.9067 31.0723 20.895 31.049C20.8832 31.0257 20.8771 31.0018 20.8739 30.9833C20.8724 30.9743 20.8717 30.9668 20.8713 30.9617C20.8711 30.9592 20.871 30.9573 20.8709 30.9561C20.8709 30.9556 20.8709 30.9552 20.8709 30.955C20.8709 30.9549 20.8709 30.955 20.8709 30.955C20.8709 30.955 20.8709 30.955 20.8709 30.955C20.8709 30.955 20.8709 30.955 20.8709 30.9551C20.8709 30.9551 20.8709 30.9551 20.8246 30.9551C20.7784 30.9551 20.7784 30.9551 20.7784 30.9552V30.9553C20.7784 30.9554 20.7784 30.9555 20.7784 30.9557C20.7784 30.9559 20.7784 30.9561 20.7784 30.9565C20.7784 30.9572 20.7784 30.9582 20.7784 30.9593C20.7785 30.9614 20.7786 30.9645 20.7789 30.9682C20.7795 30.9757 20.7805 30.9861 20.7826 30.9984C20.7867 31.0228 20.795 31.0562 20.8121 31.09C20.8294 31.124 20.8559 31.1594 20.8966 31.1862C20.9376 31.2132 20.9902 31.2296 21.0561 31.2296V31.1381ZM21.2876 30.9551C21.2413 30.9551 21.2413 30.9551 21.2413 30.9551C21.2413 30.955 21.2413 30.955 21.2413 30.955C21.2413 30.955 21.2413 30.955 21.2413 30.955C21.2413 30.955 21.2413 30.9549 21.2413 30.955C21.2413 30.9552 21.2413 30.9556 21.2413 30.9561C21.2412 30.9573 21.2411 30.9592 21.2409 30.9617C21.2406 30.9668 21.2398 30.9743 21.2384 30.9833C21.2352 31.0018 21.2291 31.0257 21.2172 31.049C21.2056 31.0723 21.1887 31.094 21.1643 31.11C21.1401 31.126 21.1059 31.1381 21.0561 31.1381V31.2296C21.1221 31.2296 21.1746 31.2132 21.2157 31.1862C21.2563 31.1594 21.2829 31.124 21.3001 31.09C21.3172 31.0562 21.3256 31.0228 21.3296 30.9984C21.3318 30.9861 21.3328 30.9757 21.3334 30.9682C21.3336 30.9645 21.3337 30.9614 21.3338 30.9593C21.3339 30.9582 21.3339 30.9572 21.3339 30.9565C21.3339 30.9561 21.3339 30.9559 21.3339 30.9557C21.3339 30.9555 21.3339 30.9554 21.3339 30.9553V30.9552C21.3339 30.9551 21.3339 30.9551 21.2876 30.9551ZM21.5699 24.5497C21.7091 24.5362 21.885 24.5013 22.0248 24.4703C22.0951 24.4547 22.1567 24.4399 22.2009 24.429C22.2229 24.4236 22.2406 24.4191 22.2527 24.416C22.2588 24.4145 22.2635 24.4132 22.2668 24.4124C22.2684 24.412 22.2696 24.4117 22.2704 24.4114C22.2709 24.4113 22.2711 24.4113 22.2714 24.4112C22.2715 24.4112 22.2716 24.4112 22.2716 24.4111C22.2717 24.4111 22.2717 24.4111 22.2717 24.4111C22.2717 24.4111 22.2717 24.4111 22.2598 24.3669C22.248 24.3227 22.248 24.3227 22.248 24.3227C22.248 24.3227 22.248 24.3227 22.2479 24.3227V24.3227C22.2478 24.3227 22.2478 24.3227 22.2477 24.3228C22.2475 24.3228 22.2471 24.3229 22.2468 24.323C22.246 24.3232 22.2448 24.3235 22.2433 24.3239C22.2402 24.3247 22.2356 24.3259 22.2296 24.3274C22.2176 24.3305 22.2002 24.3349 22.1784 24.3402C22.1348 24.351 22.0739 24.3656 22.0046 24.381C21.8653 24.4119 21.694 24.4457 21.5609 24.4586L21.5699 24.5497ZM20.7784 24.5499C20.7799 24.5956 20.7799 24.5956 20.7799 24.5956H20.78C20.7801 24.5956 20.7802 24.5956 20.7803 24.5956C20.7805 24.5956 20.7809 24.5956 20.7813 24.5956C20.7822 24.5956 20.7836 24.5955 20.7855 24.5954C20.7891 24.5953 20.7944 24.5951 20.8013 24.5949C20.8151 24.5944 20.8351 24.5936 20.8601 24.5927C20.91 24.5907 20.9798 24.5877 21.0593 24.5839C21.2178 24.5761 21.4156 24.5647 21.5699 24.5497L21.5609 24.4586C21.4088 24.4734 21.213 24.4848 21.0546 24.4925C20.9757 24.4963 20.9061 24.4993 20.8564 24.5012C20.8315 24.5022 20.8116 24.5029 20.7979 24.5034C20.791 24.5037 20.7858 24.5039 20.7822 24.504C20.7804 24.5041 20.7791 24.5041 20.7782 24.5041C20.7777 24.5042 20.7773 24.5042 20.7771 24.5042C20.7771 24.5042 20.777 24.5042 20.7769 24.5042H20.7768C20.7768 24.5042 20.7768 24.5042 20.7784 24.5499ZM20.7783 25.4216L20.8246 24.5523L20.7322 24.5475L20.6859 25.4168L20.7783 25.4216ZM21.7384 25.3293C21.4896 25.3963 21.24 25.4077 21.0518 25.402C20.9578 25.3992 20.8796 25.3922 20.8249 25.3859C20.7977 25.3827 20.7763 25.3798 20.7619 25.3776C20.7546 25.3765 20.7492 25.3757 20.7456 25.3751C20.7437 25.3748 20.7423 25.3745 20.7415 25.3744C20.741 25.3743 20.7408 25.3742 20.7406 25.3742C20.7405 25.3742 20.7404 25.3742 20.7404 25.3742C20.7403 25.3742 20.7403 25.3742 20.7403 25.3742C20.7403 25.3742 20.7403 25.3742 20.7321 25.4192C20.7238 25.4642 20.7238 25.4642 20.7238 25.4642C20.7238 25.4642 20.7238 25.4642 20.7238 25.4642C20.7239 25.4642 20.7239 25.4642 20.7239 25.4642C20.724 25.4642 20.7242 25.4643 20.7243 25.4643C20.7246 25.4643 20.725 25.4644 20.7256 25.4645C20.7267 25.4647 20.7283 25.465 20.7303 25.4653C20.7344 25.466 20.7403 25.4669 20.748 25.4681C20.7634 25.4704 20.7858 25.4735 20.8142 25.4768C20.871 25.4833 20.952 25.4906 21.0489 25.4935C21.2426 25.4993 21.5022 25.4878 21.7628 25.4176L21.7384 25.3293ZM22.6302 25.0074C22.6023 24.9709 22.6024 24.9708 22.6024 24.9708C22.6024 24.9708 22.6024 24.9708 22.6024 24.9708V24.9708C22.6024 24.9708 22.6024 24.9708 22.6023 24.9709C22.6023 24.9709 22.6021 24.971 22.602 24.9711C22.6016 24.9714 22.6009 24.9719 22.6 24.9726C22.5981 24.9739 22.5952 24.976 22.5911 24.9787C22.5831 24.9842 22.5707 24.9923 22.5537 25.0027C22.5199 25.0235 22.4682 25.0532 22.3975 25.0881C22.2562 25.1578 22.0392 25.2482 21.7384 25.3293L21.7628 25.4176C22.0695 25.3349 22.2922 25.2423 22.4389 25.17C22.5121 25.1338 22.5664 25.1027 22.6026 25.0804C22.6208 25.0693 22.6344 25.0604 22.6435 25.0542C22.6481 25.051 22.6516 25.0486 22.654 25.0469C22.6552 25.046 22.6561 25.0453 22.6569 25.0449C22.6571 25.0446 22.6574 25.0444 22.6576 25.0443C22.6577 25.0442 22.6578 25.0441 22.6579 25.0441C22.6579 25.0441 22.658 25.044 22.658 25.044C22.658 25.044 22.658 25.044 22.658 25.044C22.658 25.044 22.6581 25.044 22.6302 25.0074ZM22.2196 24.3896L22.59 25.0301L22.6704 24.9847L22.3 24.3442L22.2196 24.3896Z" fill="white"/>
</g>
<defs>
<clipPath id="clip0">
<rect width="35" height="14" fill="white" transform="translate(3 17.2305)"/>
</clipPath>
</defs>
</svg>
