<svg width="41" height="51" viewBox="0 0 41 51" fill="none" xmlns="http://www.w3.org/2000/svg">
<rect y="0.230469" width="41" height="50" fill="#1AB8E6"/>
<g clip-path="url(#clip0)">
<path fill-rule="evenodd" clip-rule="evenodd" d="M19.629 13.5229H20.3918H20.5008H21.2636V14.2772H22.0264V12.4453H22.2444V14.2772H24.4239V15.8936H22.2444V18.0488H20.5008H20.3918H18.6482V15.8936H16.4687V14.2772H18.6482V12.4453H18.8662V14.2772H19.629V13.5229ZM12.7636 18.6953H16.2508V22.1436H12.7636V18.6953ZM12.2188 26.885V27.747L20.3918 25.0531V24.2988L12.2188 26.885ZM20.1739 25.8074V35.2901C20.1739 35.2901 19.4111 35.2901 18.6482 35.0746C17.8854 34.8591 17.2316 34.2126 17.2316 34.2126C17.2316 34.2126 16.2508 34.7998 15.488 34.7513C14.7252 34.7029 14.0713 34.2126 14.0713 34.2126L12.2188 28.5013L20.1739 25.8074ZM16.2508 22.7901H12.7636V26.1307L16.2508 25.0531V22.7901ZM16.9046 22.7901H20.1739V23.76L16.9046 24.8376V22.7901ZM20.1739 18.6953H16.9046V22.1436H20.1739V18.6953ZM20.7187 25.8074V35.2901C20.7187 35.2901 21.4816 35.2901 22.2444 35.0746C23.0072 34.8591 23.6611 34.2126 23.6611 34.2126C23.6611 34.2126 24.6418 34.7998 25.4046 34.7513C26.1675 34.7029 26.8213 34.2126 26.8213 34.2126L28.6739 28.5013L20.7187 25.8074ZM28.6739 27.747V26.885L20.5008 24.2988V25.0531L28.6739 27.747ZM24.6418 18.6953H28.129V22.1436H24.6418V18.6953ZM28.129 22.7901H24.6418V25.0531L28.129 26.1307V22.7901ZM20.7187 22.7901H23.988V24.8376L20.7187 23.76V22.7901ZM23.988 18.6953H20.7187V22.1436H23.988V18.6953ZM15.7059 35.7212C14.5072 35.6817 13.9623 34.8591 13.9623 34.8591C13.9623 34.8591 14.3522 35.6966 15.7059 35.8289C16.3123 35.8882 17.1226 35.7212 17.1226 35.7212C17.1226 35.7212 17.504 36.4755 18.6482 36.7988C19.4111 37.0143 19.9559 37.0143 20.3918 37.0143V36.5832C20.3918 36.5832 19.4111 36.5832 18.6482 36.3677C17.8854 36.1522 17.2316 35.3979 17.2316 35.3979C17.2316 35.3979 16.3252 35.7414 15.7059 35.7212ZM27.0393 34.8591C27.0393 34.8591 26.4944 35.6817 25.2957 35.7212C24.6764 35.7414 23.77 35.3979 23.77 35.3979C23.77 35.3979 23.1162 36.1522 22.3534 36.3677C21.5905 36.5832 20.6098 36.5832 20.6098 36.5832V37.0143C21.0457 37.0143 21.5905 37.0143 22.3534 36.7988C23.4976 36.4755 23.879 35.7212 23.879 35.7212C23.879 35.7212 24.6893 35.8882 25.2957 35.8289C26.6494 35.6966 27.0393 34.8591 27.0393 34.8591Z" fill="white"/>
<path d="M19.6287 13.5232V13.4155H19.5197V13.5232H19.6287ZM21.2633 13.5232H21.3723V13.4155H21.2633V13.5232ZM21.2633 14.2775H21.1543V14.3853H21.2633V14.2775ZM22.0261 14.2775V14.3853H22.1351V14.2775H22.0261ZM22.0261 12.4456V12.3379H21.9172V12.4456H22.0261ZM22.2441 12.4456H22.3531V12.3379H22.2441V12.4456ZM22.2441 14.2775H22.1351V14.3853H22.2441V14.2775ZM24.4236 14.2775H24.5325V14.1698H24.4236V14.2775ZM24.4236 15.8939V16.0017H24.5325V15.8939H24.4236ZM22.2441 15.8939V15.7862H22.1351V15.8939H22.2441ZM22.2441 18.0491V18.1569H22.3531V18.0491H22.2441ZM18.6479 18.0491H18.539V18.1569H18.6479V18.0491ZM18.6479 15.8939H18.7569V15.7862H18.6479V15.8939ZM16.4684 15.8939H16.3595V16.0017H16.4684V15.8939ZM16.4684 14.2775V14.1698H16.3595V14.2775H16.4684ZM18.6479 14.2775V14.3853H18.7569V14.2775H18.6479ZM18.6479 12.4456V12.3379H18.539V12.4456H18.6479ZM18.8659 12.4456H18.9748V12.3379H18.8659V12.4456ZM18.8659 14.2775H18.7569V14.3853H18.8659V14.2775ZM19.6287 14.2775V14.3853H19.7377V14.2775H19.6287ZM16.2505 18.6956H16.3595V18.5879H16.2505V18.6956ZM12.7633 18.6956V18.5879H12.6543V18.6956H12.7633ZM16.2505 22.1439V22.2517H16.3595V22.1439H16.2505ZM12.7633 22.1439H12.6543V22.2517H12.7633V22.1439ZM12.2184 27.7474H12.1095V27.8969L12.2529 27.8496L12.2184 27.7474ZM12.2184 26.8853L12.1852 26.7827L12.1095 26.8066V26.8853H12.2184ZM20.3915 25.0534L20.426 25.1556L20.5005 25.1311V25.0534H20.3915ZM20.3915 24.2991H20.5005V24.1515L20.3583 24.1965L20.3915 24.2991ZM20.1736 35.2905V35.3982H20.2825V35.2905H20.1736ZM20.1736 25.8077H20.2825V25.6569L20.1383 25.7058L20.1736 25.8077ZM17.2313 34.2129L17.3083 34.1366L17.2479 34.0769L17.1748 34.1206L17.2313 34.2129ZM14.071 34.2129L13.9672 34.2459L13.9777 34.2782L14.0052 34.2987L14.071 34.2129ZM12.2184 28.5017L12.1831 28.3997L12.082 28.434L12.1147 28.5346L12.2184 28.5017ZM12.7633 22.7905V22.6827H12.6543V22.7905H12.7633ZM16.2505 22.7905H16.3595V22.6827H16.2505V22.7905ZM12.7633 26.131H12.6543V26.2776L12.7958 26.2338L12.7633 26.131ZM16.2505 25.0534L16.283 25.1563L16.3595 25.1326V25.0534H16.2505ZM20.1736 22.7905H20.2825V22.6827H20.1736V22.7905ZM16.9043 22.7905V22.6827H16.7954V22.7905H16.9043ZM20.1736 23.7603L20.208 23.8625L20.2825 23.838V23.7603H20.1736ZM16.9043 24.8379H16.7954V24.9874L16.9388 24.9401L16.9043 24.8379ZM16.9043 18.6956V18.5879H16.7954V18.6956H16.9043ZM20.1736 18.6956H20.2825V18.5879H20.1736V18.6956ZM16.9043 22.1439H16.7954V22.2517H16.9043V22.1439ZM20.1736 22.1439V22.2517H20.2825V22.1439H20.1736ZM20.7184 35.2905H20.6095V35.3982H20.7184V35.2905ZM20.7184 25.8077L20.7537 25.7058L20.6095 25.6569V25.8077H20.7184ZM23.6607 34.2129L23.7172 34.1206L23.6441 34.0769L23.5837 34.1366L23.6607 34.2129ZM26.821 34.2129L26.8868 34.2987L26.9143 34.2782L26.9248 34.2459L26.821 34.2129ZM28.6736 28.5017L28.7773 28.5346L28.81 28.434L28.7089 28.3997L28.6736 28.5017ZM28.6736 26.8853H28.7825V26.8066L28.7068 26.7827L28.6736 26.8853ZM28.6736 27.7474L28.6391 27.8496L28.7825 27.8969V27.7474H28.6736ZM20.5005 24.2991L20.5337 24.1965L20.3915 24.1515V24.2991H20.5005ZM20.5005 25.0534H20.3915V25.1311L20.466 25.1556L20.5005 25.0534ZM28.1287 18.6956H28.2377V18.5879H28.1287V18.6956ZM24.6415 18.6956V18.5879H24.5325V18.6956H24.6415ZM28.1287 22.1439V22.2517H28.2377V22.1439H28.1287ZM24.6415 22.1439H24.5325V22.2517H24.6415V22.1439ZM24.6415 22.7905V22.6827H24.5325V22.7905H24.6415ZM28.1287 22.7905H28.2377V22.6827H28.1287V22.7905ZM24.6415 25.0534H24.5325V25.1326L24.609 25.1563L24.6415 25.0534ZM28.1287 26.131L28.0962 26.2338L28.2377 26.2776V26.131H28.1287ZM23.9877 22.7905H24.0966V22.6827H23.9877V22.7905ZM20.7184 22.7905V22.6827H20.6095V22.7905H20.7184ZM23.9877 24.8379L23.9532 24.9401L24.0966 24.9874V24.8379H23.9877ZM20.7184 23.7603H20.6095V23.838L20.684 23.8625L20.7184 23.7603ZM20.7184 18.6956V18.5879H20.6095V18.6956H20.7184ZM23.9877 18.6956H24.0966V18.5879H23.9877V18.6956ZM20.7184 22.1439H20.6095V22.2517H20.7184V22.1439ZM23.9877 22.1439V22.2517H24.0966V22.1439H23.9877ZM13.962 34.8594L14.0532 34.8004L13.863 34.9045L13.962 34.8594ZM15.7056 35.7215L15.702 35.8293L15.7056 35.7215ZM15.7056 35.8293L15.6949 35.9366L15.7056 35.8293ZM17.1223 35.7215L17.2198 35.6732L17.1822 35.5991L17.1001 35.6161L17.1223 35.7215ZM20.3915 37.0146V37.1224H20.5005V37.0146H20.3915ZM20.3915 36.5836H20.5005V36.4758H20.3915V36.5836ZM17.2313 35.3982L17.314 35.3282L17.264 35.2704L17.1922 35.2976L17.2313 35.3982ZM25.2954 35.7215L25.299 35.8293L25.2954 35.7215ZM27.039 34.8594L27.1379 34.9045L26.9478 34.8004L27.039 34.8594ZM23.7697 35.3982L23.8087 35.2976L23.737 35.2704L23.687 35.3282L23.7697 35.3982ZM20.6095 36.5836V36.4758H20.5005V36.5836H20.6095ZM20.6095 37.0146H20.5005V37.1224H20.6095V37.0146ZM23.8787 35.7215L23.9009 35.6161L23.8188 35.5991L23.7812 35.6732L23.8787 35.7215ZM25.2954 35.8293L25.3061 35.9366L25.2954 35.8293ZM20.3915 13.4155H19.6287V13.631H20.3915V13.4155ZM20.5005 13.4155H20.3915V13.631H20.5005V13.4155ZM21.2633 13.4155H20.5005V13.631H21.2633V13.4155ZM21.3723 14.2775V13.5232H21.1543V14.2775H21.3723ZM22.0261 14.1698H21.2633V14.3853H22.0261V14.1698ZM21.9172 12.4456V14.2775H22.1351V12.4456H21.9172ZM22.2441 12.3379H22.0261V12.5534H22.2441V12.3379ZM22.3531 14.2775V12.4456H22.1351V14.2775H22.3531ZM24.4236 14.1698H22.2441V14.3853H24.4236V14.1698ZM24.5325 15.8939V14.2775H24.3146V15.8939H24.5325ZM22.2441 16.0017H24.4236V15.7862H22.2441V16.0017ZM22.3531 18.0491V15.8939H22.1351V18.0491H22.3531ZM20.5005 18.1569H22.2441V17.9413H20.5005V18.1569ZM20.3915 18.1569H20.5005V17.9413H20.3915V18.1569ZM18.6479 18.1569H20.3915V17.9413H18.6479V18.1569ZM18.539 15.8939V18.0491H18.7569V15.8939H18.539ZM16.4684 16.0017H18.6479V15.7862H16.4684V16.0017ZM16.3595 14.2775V15.8939H16.5774V14.2775H16.3595ZM18.6479 14.1698H16.4684V14.3853H18.6479V14.1698ZM18.539 12.4456V14.2775H18.7569V12.4456H18.539ZM18.8659 12.3379H18.6479V12.5534H18.8659V12.3379ZM18.9748 14.2775V12.4456H18.7569V14.2775H18.9748ZM19.6287 14.1698H18.8659V14.3853H19.6287V14.1698ZM19.5197 13.5232V14.2775H19.7377V13.5232H19.5197ZM16.2505 18.5879H12.7633V18.8034H16.2505V18.5879ZM16.3595 22.1439V18.6956H16.1415V22.1439H16.3595ZM12.7633 22.2517H16.2505V22.0362H12.7633V22.2517ZM12.6543 18.6956V22.1439H12.8723V18.6956H12.6543ZM12.3274 27.7474V26.8853H12.1095V27.7474H12.3274ZM20.3571 24.9512L12.184 27.6452L12.2529 27.8496L20.426 25.1556L20.3571 24.9512ZM20.2825 24.2991V25.0534H20.5005V24.2991H20.2825ZM12.2517 26.9879L20.4247 24.4017L20.3583 24.1965L12.1852 26.7827L12.2517 26.9879ZM20.2825 35.2905V25.8077H20.0646V35.2905H20.2825ZM18.618 35.1786C19.008 35.2888 19.3964 35.3435 19.6865 35.3709C19.8317 35.3844 19.9529 35.3913 20.038 35.3948C20.0806 35.3965 20.1141 35.3974 20.1372 35.3978C20.1488 35.398 20.1577 35.398 20.1638 35.3982C20.1669 35.3982 20.1692 35.3982 20.1709 35.3982C20.1717 35.3982 20.1723 35.3982 20.1728 35.3982C20.173 35.3982 20.1732 35.3982 20.1733 35.3982C20.1734 35.3982 20.1734 35.3982 20.1735 35.3982C20.1735 35.3982 20.1735 35.3982 20.1735 35.3982C20.1735 35.3982 20.1736 35.3982 20.1736 35.2905C20.1736 35.1827 20.1736 35.1827 20.1736 35.1827C20.1736 35.1827 20.1736 35.1827 20.1735 35.1827C20.1735 35.1827 20.1734 35.1827 20.1733 35.1827C20.173 35.1827 20.1725 35.1827 20.1718 35.1827C20.1706 35.1827 20.1685 35.1827 20.1658 35.1827C20.1604 35.1827 20.1522 35.1825 20.1414 35.1823C20.1198 35.1819 20.0878 35.181 20.0469 35.1795C19.9651 35.176 19.8479 35.1696 19.7071 35.1562C19.425 35.1297 19.0507 35.0767 18.6779 34.9713L18.618 35.1786ZM17.2313 34.2129C17.1542 34.2892 17.1542 34.2892 17.1542 34.2892C17.1543 34.2892 17.1543 34.2892 17.1543 34.2892C17.1543 34.2892 17.1544 34.2892 17.1545 34.2894C17.1546 34.2894 17.1547 34.2896 17.1549 34.2898C17.1553 34.2903 17.1559 34.2907 17.1566 34.2916C17.158 34.2928 17.1601 34.2948 17.1628 34.2974C17.1681 34.3025 17.1759 34.3101 17.186 34.3194C17.2062 34.3383 17.2356 34.3653 17.2732 34.398C17.3483 34.4638 17.4564 34.5534 17.5889 34.65C17.8525 34.842 18.2187 35.0657 18.618 35.1786L18.6779 34.9713C18.3143 34.8687 17.9722 34.6614 17.7182 34.4763C17.5919 34.3842 17.4888 34.2989 17.4175 34.2366C17.3819 34.2053 17.3543 34.1801 17.3357 34.1627C17.3264 34.1541 17.3194 34.1474 17.3148 34.1431C17.3125 34.1407 17.3108 34.1392 17.3097 34.1381C17.3092 34.1375 17.3088 34.1372 17.3085 34.1368C17.3084 34.1368 17.3083 34.1368 17.3083 34.1366C17.3083 34.1366 17.3083 34.1366 17.3083 34.1366C17.3083 34.1366 17.3083 34.1366 17.2313 34.2129ZM15.4807 34.8592C15.8881 34.8851 16.3434 34.7422 16.6875 34.6C16.8615 34.528 17.011 34.4547 17.117 34.3991C17.1701 34.3715 17.2124 34.348 17.2416 34.3316C17.2562 34.3235 17.2676 34.3168 17.2753 34.3122C17.2792 34.3101 17.2822 34.3084 17.2843 34.3071C17.2853 34.3064 17.2861 34.306 17.2867 34.3056C17.287 34.3056 17.2872 34.3053 17.2874 34.3053C17.2875 34.3051 17.2875 34.3051 17.2876 34.3051C17.2876 34.3051 17.2876 34.3051 17.2877 34.3051C17.2877 34.3051 17.2877 34.3051 17.2313 34.2129C17.1748 34.1206 17.1748 34.1206 17.1748 34.1206C17.1748 34.1206 17.1748 34.1206 17.1748 34.1206C17.1747 34.1209 17.1746 34.1209 17.1744 34.1211C17.174 34.1213 17.1734 34.1215 17.1725 34.1222C17.1709 34.123 17.1682 34.1245 17.1648 34.1267C17.1578 34.1306 17.1473 34.1366 17.1336 34.1444C17.1062 34.1599 17.066 34.1821 17.0152 34.2086C16.9134 34.2618 16.7701 34.3323 16.6035 34.401C16.2666 34.5403 15.85 34.6668 15.4947 34.6441L15.4807 34.8592ZM14.071 34.2129C14.0052 34.2987 14.0052 34.2989 14.0052 34.2989C14.0052 34.2989 14.0053 34.2989 14.0053 34.2989C14.0053 34.2989 14.0054 34.2989 14.0055 34.2989C14.0056 34.2991 14.0058 34.2993 14.006 34.2993C14.0064 34.2997 14.007 34.3002 14.0078 34.3006C14.0093 34.3019 14.0114 34.3034 14.0141 34.3053C14.0196 34.3092 14.0276 34.315 14.0378 34.3222C14.0583 34.3364 14.088 34.3566 14.126 34.3808C14.2019 34.4293 14.3108 34.4939 14.4443 34.5603C14.7101 34.6924 15.0791 34.8336 15.4807 34.8592L15.4947 34.6441C15.1334 34.6211 14.794 34.4928 14.5422 34.3678C14.4169 34.3056 14.3147 34.2448 14.2442 34.1997C14.2089 34.1771 14.1816 34.1588 14.1634 34.1459C14.1542 34.1396 14.1474 34.1347 14.1429 34.1314C14.1407 34.1299 14.139 34.1286 14.138 34.128C14.1375 34.1275 14.1372 34.1273 14.137 34.1271C14.1369 34.1271 14.1368 34.1269 14.1368 34.1269C14.1368 34.1269 14.1368 34.1269 14.1368 34.1269C14.1368 34.1269 14.1368 34.1269 14.1368 34.1269C14.1368 34.1271 14.1368 34.1271 14.071 34.2129ZM12.1147 28.5346L13.9672 34.2459L14.1748 34.1799L12.3222 28.4688L12.1147 28.5346ZM20.1383 25.7058L12.1831 28.3997L12.2537 28.6036L20.2089 25.9097L20.1383 25.7058ZM12.7633 22.8982H16.2505V22.6827H12.7633V22.8982ZM12.8723 26.131V22.7905H12.6543V26.131H12.8723ZM16.218 24.9506L12.7308 26.0281L12.7958 26.2338L16.283 25.1563L16.218 24.9506ZM16.1415 22.7905V25.0534H16.3595V22.7905H16.1415ZM20.1736 22.6827H16.9043V22.8982H20.1736V22.6827ZM20.2825 23.7603V22.7905H20.0646V23.7603H20.2825ZM16.9388 24.9401L20.208 23.8625L20.1391 23.6581L16.8699 24.7357L16.9388 24.9401ZM16.7954 22.7905V24.8379H17.0133V22.7905H16.7954ZM16.9043 18.8034H20.1736V18.5879H16.9043V18.8034ZM17.0133 22.1439V18.6956H16.7954V22.1439H17.0133ZM20.1736 22.0362H16.9043V22.2517H20.1736V22.0362ZM20.0646 18.6956V22.1439H20.2825V18.6956H20.0646ZM20.8274 35.2905V25.8077H20.6095V35.2905H20.8274ZM22.2141 34.9713C21.8413 35.0767 21.467 35.1297 21.1849 35.1562C21.0441 35.1696 20.9269 35.176 20.8451 35.1795C20.8042 35.181 20.7722 35.1819 20.7506 35.1823C20.7398 35.1825 20.7316 35.1827 20.7262 35.1827C20.7235 35.1827 20.7214 35.1827 20.7202 35.1827C20.7195 35.1827 20.719 35.1827 20.7187 35.1827C20.7186 35.1827 20.7185 35.1827 20.7185 35.1827C20.7184 35.1827 20.7184 35.1827 20.7184 35.1827C20.7184 35.1827 20.7184 35.1827 20.7184 35.2905C20.7184 35.3982 20.7185 35.3982 20.7185 35.3982C20.7185 35.3982 20.7185 35.3982 20.7185 35.3982C20.7186 35.3982 20.7186 35.3982 20.7187 35.3982C20.7188 35.3982 20.719 35.3982 20.7192 35.3982C20.7197 35.3982 20.7203 35.3982 20.7211 35.3982C20.7228 35.3982 20.7251 35.3982 20.7282 35.3982C20.7343 35.398 20.7432 35.398 20.7548 35.3978C20.7779 35.3974 20.8114 35.3965 20.854 35.3948C20.9391 35.3913 21.0603 35.3844 21.2055 35.3709C21.4956 35.3435 21.884 35.2888 22.274 35.1786L22.2141 34.9713ZM23.6607 34.2129C23.5837 34.1366 23.5837 34.1366 23.5837 34.1366C23.5837 34.1366 23.5837 34.1366 23.5837 34.1366C23.5837 34.1368 23.5836 34.1368 23.5835 34.1368C23.5832 34.1372 23.5829 34.1375 23.5823 34.1381C23.5812 34.1392 23.5795 34.1407 23.5772 34.1431C23.5726 34.1474 23.5656 34.1541 23.5563 34.1627C23.5377 34.1801 23.5101 34.2053 23.4745 34.2366C23.4032 34.2989 23.3001 34.3842 23.1738 34.4763C22.9198 34.6614 22.5777 34.8687 22.2141 34.9713L22.274 35.1786C22.6733 35.0657 23.0395 34.842 23.3031 34.65C23.4356 34.5534 23.5437 34.4638 23.6188 34.398C23.6564 34.3653 23.6858 34.3383 23.706 34.3194C23.7161 34.3101 23.7239 34.3025 23.7292 34.2974C23.7319 34.2948 23.734 34.2928 23.7354 34.2916C23.7361 34.2907 23.7367 34.2903 23.7371 34.2898C23.7373 34.2896 23.7374 34.2894 23.7376 34.2894C23.7376 34.2892 23.7377 34.2892 23.7377 34.2892C23.7377 34.2892 23.7377 34.2892 23.7378 34.2892C23.7378 34.2892 23.7378 34.2892 23.6607 34.2129ZM25.3973 34.6441C25.042 34.6668 24.6254 34.5403 24.2885 34.401C24.1219 34.3323 23.9786 34.2618 23.8768 34.2086C23.826 34.1821 23.7858 34.1599 23.7584 34.1444C23.7447 34.1366 23.7342 34.1306 23.7272 34.1267C23.7238 34.1245 23.7211 34.123 23.7195 34.1222C23.7186 34.1215 23.718 34.1213 23.7176 34.1211C23.7174 34.1209 23.7173 34.1209 23.7172 34.1206C23.7172 34.1206 23.7172 34.1206 23.7172 34.1206C23.7172 34.1206 23.7172 34.1206 23.6607 34.2129C23.6043 34.3051 23.6043 34.3051 23.6043 34.3051C23.6044 34.3051 23.6044 34.3051 23.6044 34.3051C23.6045 34.3051 23.6045 34.3051 23.6046 34.3053C23.6048 34.3053 23.605 34.3056 23.6053 34.3056C23.6059 34.306 23.6067 34.3064 23.6077 34.3071C23.6098 34.3084 23.6128 34.3101 23.6167 34.3122C23.6244 34.3168 23.6358 34.3235 23.6504 34.3316C23.6796 34.348 23.7219 34.3715 23.775 34.3991C23.881 34.4547 24.0305 34.528 24.2045 34.6C24.5486 34.7422 25.0039 34.8851 25.4113 34.8592L25.3973 34.6441ZM26.821 34.2129C26.7552 34.1271 26.7552 34.1271 26.7552 34.1269C26.7552 34.1269 26.7552 34.1269 26.7552 34.1269C26.7552 34.1269 26.7551 34.1271 26.755 34.1271C26.7548 34.1273 26.7545 34.1275 26.754 34.128C26.753 34.1286 26.7513 34.1299 26.7491 34.1314C26.7446 34.1347 26.7378 34.1396 26.7286 34.1459C26.7104 34.1588 26.6831 34.1771 26.6478 34.1997C26.5773 34.2448 26.4751 34.3056 26.3498 34.3678C26.098 34.4928 25.7586 34.6211 25.3973 34.6441L25.4113 34.8592C25.8129 34.8336 26.1819 34.6924 26.4477 34.5603C26.5812 34.4939 26.6901 34.4293 26.766 34.3808C26.804 34.3566 26.8337 34.3364 26.8542 34.3222C26.8644 34.315 26.8724 34.3092 26.8779 34.3053C26.8806 34.3034 26.8827 34.3019 26.8842 34.3006C26.885 34.3002 26.8856 34.2997 26.886 34.2993C26.8862 34.2993 26.8864 34.2991 26.8865 34.2989C26.8866 34.2989 26.8867 34.2989 26.8867 34.2989C26.8868 34.2989 26.8868 34.2989 26.8868 34.2989C26.8868 34.2989 26.8868 34.2987 26.821 34.2129ZM28.5698 28.4688L26.7172 34.1799L26.9248 34.2459L28.7773 28.5346L28.5698 28.4688ZM20.6831 25.9097L28.6383 28.6036L28.7089 28.3997L20.7537 25.7058L20.6831 25.9097ZM28.5646 26.8853V27.7474H28.7825V26.8853H28.5646ZM20.4673 24.4017L28.6404 26.9879L28.7068 26.7827L20.5337 24.1965L20.4673 24.4017ZM20.6095 25.0534V24.2991H20.3915V25.0534H20.6095ZM28.708 27.6452L20.5349 24.9512L20.466 25.1556L28.6391 27.8496L28.708 27.6452ZM28.1287 18.5879H24.6415V18.8034H28.1287V18.5879ZM28.2377 22.1439V18.6956H28.0197V22.1439H28.2377ZM24.6415 22.2517H28.1287V22.0362H24.6415V22.2517ZM24.5325 18.6956V22.1439H24.7505V18.6956H24.5325ZM24.6415 22.8982H28.1287V22.6827H24.6415V22.8982ZM24.7505 25.0534V22.7905H24.5325V25.0534H24.7505ZM28.1612 26.0281L24.674 24.9506L24.609 25.1563L28.0962 26.2338L28.1612 26.0281ZM28.0197 22.7905V26.131H28.2377V22.7905H28.0197ZM23.9877 22.6827H20.7184V22.8982H23.9877V22.6827ZM24.0966 24.8379V22.7905H23.8787V24.8379H24.0966ZM20.684 23.8625L23.9532 24.9401L24.0221 24.7357L20.7529 23.6581L20.684 23.8625ZM20.6095 22.7905V23.7603H20.8274V22.7905H20.6095ZM20.7184 18.8034H23.9877V18.5879H20.7184V18.8034ZM20.8274 22.1439V18.6956H20.6095V22.1439H20.8274ZM23.9877 22.0362H20.7184V22.2517H23.9877V22.0362ZM23.8787 18.6956V22.1439H24.0966V18.6956H23.8787ZM13.962 34.8594C13.8709 34.9185 13.8709 34.9185 13.8709 34.9185C13.8709 34.9185 13.871 34.9187 13.871 34.9187C13.8711 34.9187 13.8711 34.9189 13.8712 34.9189C13.8713 34.9191 13.8715 34.9194 13.8717 34.9198C13.8722 34.9204 13.8727 34.9213 13.8734 34.9222C13.8748 34.9243 13.8768 34.9271 13.8792 34.9306C13.8842 34.9377 13.8914 34.9476 13.9008 34.9599C13.9196 34.9844 13.9474 35.0189 13.9844 35.0601C14.0583 35.1424 14.1693 35.2517 14.3192 35.3622C14.6196 35.5834 15.0765 35.8086 15.702 35.8293L15.7092 35.6138C15.136 35.595 14.7211 35.3892 14.4494 35.1892C14.3133 35.089 14.2131 34.9903 14.1474 34.917C14.1145 34.8806 14.0904 34.8504 14.0747 34.8299C14.0669 34.8198 14.0612 34.8118 14.0576 34.8069C14.0558 34.8043 14.0546 34.8023 14.0538 34.8013C14.0535 34.8008 14.0532 34.8004 14.0531 34.8004C14.0531 34.8002 14.053 34.8002 14.0531 34.8002C14.0531 34.8002 14.0531 34.8002 14.0531 34.8002C14.0531 34.8004 14.0531 34.8004 14.0531 34.8004C14.0532 34.8004 14.0532 34.8004 13.962 34.8594ZM15.7163 35.7219C15.0625 35.6581 14.6474 35.425 14.3971 35.2129C14.2714 35.1064 14.1863 35.0045 14.133 34.9301C14.1064 34.8928 14.0878 34.8627 14.0762 34.8424C14.0703 34.8323 14.0663 34.8247 14.0638 34.8198C14.0625 34.8174 14.0617 34.8157 14.0612 34.8148C14.061 34.8144 14.0609 34.8142 14.0608 34.814C14.0608 34.814 14.0608 34.814 14.0609 34.814C14.0609 34.8142 14.0609 34.8142 14.0609 34.8142C14.0609 34.8142 14.061 34.8142 14.061 34.8142C14.061 34.8144 14.061 34.8144 13.962 34.8594C13.863 34.9045 13.8631 34.9045 13.8631 34.9047C13.8631 34.9047 13.8631 34.9047 13.8632 34.9047C13.8632 34.9049 13.8633 34.9049 13.8633 34.9051C13.8635 34.9053 13.8636 34.9058 13.8638 34.906C13.8641 34.9069 13.8646 34.9077 13.8651 34.9088C13.8662 34.9112 13.8678 34.9142 13.8697 34.9178C13.8736 34.9254 13.8792 34.9359 13.8867 34.9489C13.9016 34.975 13.9241 35.0112 13.9552 35.0547C14.0174 35.1416 14.1143 35.2571 14.2553 35.3765C14.5383 35.6163 14.9951 35.8681 15.6949 35.9366L15.7163 35.7219ZM17.1223 35.7215C17.1001 35.6161 17.1001 35.6161 17.1001 35.6161C17.1001 35.6161 17.1 35.6161 17.1 35.6161C17.0999 35.6161 17.0998 35.6161 17.0996 35.6161C17.0993 35.6161 17.0988 35.6163 17.0981 35.6163C17.0967 35.6168 17.0945 35.6172 17.0916 35.6176C17.0858 35.6189 17.077 35.6206 17.0656 35.6228C17.0429 35.6271 17.0095 35.6334 16.9675 35.6405C16.8834 35.6551 16.7649 35.6739 16.6278 35.6907C16.352 35.7247 16.0074 35.7504 15.7163 35.7219L15.6949 35.9366C16.0102 35.9674 16.3739 35.9392 16.6548 35.9045C16.7961 35.887 16.9181 35.8678 17.0049 35.8528C17.0483 35.8454 17.083 35.839 17.1069 35.8344C17.1189 35.8321 17.1282 35.8303 17.1345 35.8291C17.1377 35.8284 17.1401 35.828 17.1418 35.8275C17.1426 35.8273 17.1433 35.8273 17.1438 35.8271C17.144 35.8271 17.1441 35.8271 17.1443 35.8271C17.1443 35.8271 17.1444 35.8271 17.1444 35.8271C17.1445 35.8271 17.1445 35.8271 17.1445 35.8271C17.1445 35.8269 17.1445 35.8269 17.1223 35.7215ZM18.6779 36.6954C18.125 36.5392 17.759 36.2799 17.5319 36.0618C17.4183 35.9525 17.3392 35.8534 17.289 35.7827C17.264 35.7472 17.2461 35.7189 17.2348 35.7C17.2291 35.6903 17.2251 35.6831 17.2226 35.6786C17.2214 35.6765 17.2206 35.6747 17.2201 35.6739C17.2198 35.6734 17.2197 35.6732 17.2196 35.673C17.2196 35.673 17.2196 35.673 17.2196 35.673C17.2196 35.673 17.2196 35.673 17.2197 35.6732C17.2197 35.6732 17.2197 35.6732 17.2197 35.6732C17.2197 35.6732 17.2198 35.6732 17.1223 35.7215C17.0248 35.7698 17.0248 35.7698 17.0249 35.7698C17.0249 35.7698 17.0249 35.7698 17.0249 35.77C17.025 35.77 17.025 35.7702 17.0251 35.7702C17.0252 35.7704 17.0253 35.7706 17.0255 35.7711C17.0258 35.7717 17.0262 35.7724 17.0268 35.7734C17.0278 35.7754 17.0292 35.778 17.0311 35.7814C17.0347 35.7881 17.04 35.7976 17.047 35.8092C17.061 35.8327 17.0819 35.8659 17.1105 35.9062C17.1676 35.9868 17.2554 36.0965 17.3801 36.2163C17.6298 36.4562 18.0266 36.7357 18.618 36.9028L18.6779 36.6954ZM20.3915 36.9069C19.9582 36.9069 19.4257 36.9069 18.6779 36.6954L18.618 36.9028C19.3958 37.1224 19.953 37.1224 20.3915 37.1224V36.9069ZM20.2825 36.5836V37.0146H20.5005V36.5836H20.2825ZM18.618 36.4717C19.0095 36.5823 19.4537 36.6368 19.7971 36.664C19.9694 36.6778 20.1176 36.6844 20.2228 36.6879C20.2754 36.6896 20.3173 36.6905 20.3462 36.6909C20.3607 36.6911 20.3719 36.6911 20.3795 36.6913C20.3833 36.6913 20.3863 36.6913 20.3883 36.6913C20.3893 36.6913 20.3901 36.6913 20.3906 36.6913C20.3909 36.6913 20.3911 36.6913 20.3912 36.6913C20.3913 36.6913 20.3914 36.6913 20.3914 36.6913C20.3914 36.6913 20.3915 36.6913 20.3915 36.6913C20.3915 36.6913 20.3915 36.6913 20.3915 36.5836C20.3915 36.4758 20.3915 36.4758 20.3915 36.4758C20.3915 36.4758 20.3915 36.4758 20.3915 36.4758C20.3915 36.4758 20.3915 36.4758 20.3914 36.4758C20.3913 36.4758 20.3912 36.4758 20.391 36.4758C20.3906 36.4758 20.3899 36.4758 20.3891 36.4758C20.3873 36.4758 20.3846 36.4758 20.3811 36.4758C20.374 36.4758 20.3634 36.4756 20.3495 36.4754C20.3218 36.475 20.2812 36.4741 20.2299 36.4726C20.1274 36.4691 19.9827 36.4625 19.8145 36.4493C19.4768 36.4226 19.0491 36.3694 18.6779 36.2644L18.618 36.4717ZM17.2313 35.3982C17.1485 35.4683 17.1485 35.4683 17.1485 35.4685C17.1486 35.4685 17.1486 35.4685 17.1486 35.4685C17.1487 35.4685 17.1487 35.4685 17.1488 35.4687C17.1489 35.4687 17.149 35.4689 17.1492 35.4691C17.1496 35.4696 17.1502 35.4702 17.1509 35.4711C17.1523 35.4728 17.1544 35.475 17.1571 35.478C17.1624 35.484 17.1702 35.4926 17.1802 35.5036C17.2004 35.5254 17.2298 35.5566 17.2674 35.5948C17.3425 35.6709 17.4507 35.7743 17.5833 35.8847C17.8467 36.1041 18.2149 36.3577 18.618 36.4717L18.6779 36.2644C18.3181 36.1629 17.978 35.9316 17.7237 35.72C17.5976 35.6148 17.4946 35.5163 17.4233 35.4441C17.3877 35.4081 17.36 35.3788 17.3414 35.3586C17.3321 35.3484 17.3251 35.3407 17.3205 35.3355C17.3182 35.3329 17.3165 35.331 17.3154 35.3297C17.3149 35.3291 17.3145 35.3286 17.3142 35.3284C17.3141 35.3282 17.314 35.3282 17.314 35.3282C17.314 35.328 17.314 35.328 17.314 35.328C17.314 35.3282 17.314 35.3282 17.2313 35.3982ZM15.702 35.8293C16.0291 35.84 16.4238 35.7553 16.7298 35.6713C16.8843 35.6291 17.019 35.5859 17.1151 35.5536C17.1632 35.5375 17.2017 35.5239 17.2284 35.5142C17.2417 35.5094 17.252 35.5056 17.2591 35.503C17.2626 35.5017 17.2654 35.5006 17.2672 35.5C17.2682 35.4997 17.2689 35.4993 17.2694 35.4991C17.2697 35.4991 17.2699 35.4991 17.27 35.4989C17.2701 35.4989 17.2701 35.4989 17.2702 35.4989C17.2702 35.4989 17.2702 35.4989 17.2702 35.4989C17.2702 35.4989 17.2703 35.4989 17.2313 35.3982C17.1922 35.2976 17.1922 35.2976 17.1923 35.2976C17.1923 35.2976 17.1923 35.2976 17.1922 35.2976C17.1922 35.2976 17.1922 35.2976 17.1922 35.2976C17.1921 35.2976 17.192 35.2978 17.1918 35.2978C17.1914 35.298 17.1908 35.2982 17.19 35.2985C17.1884 35.2991 17.186 35.3 17.1827 35.3013C17.1762 35.3036 17.1665 35.3071 17.1538 35.3116C17.1285 35.3209 17.0914 35.334 17.0448 35.3495C16.9517 35.381 16.8211 35.4226 16.6715 35.4638C16.3696 35.5465 16.0015 35.6234 15.7092 35.6138L15.702 35.8293ZM25.299 35.8293C25.9245 35.8086 26.3813 35.5834 26.6818 35.3622C26.8317 35.2517 26.9427 35.1424 27.0166 35.0601C27.0536 35.0189 27.0813 34.9844 27.1002 34.9599C27.1096 34.9476 27.1168 34.9377 27.1217 34.9306C27.1242 34.9271 27.1262 34.9243 27.1276 34.9222C27.1283 34.9213 27.1288 34.9204 27.1292 34.9198C27.1295 34.9194 27.1296 34.9191 27.1298 34.9189C27.1299 34.9189 27.1299 34.9187 27.13 34.9187C27.13 34.9187 27.13 34.9185 27.1301 34.9185C27.1301 34.9185 27.1301 34.9185 27.039 34.8594C26.9478 34.8004 26.9478 34.8004 26.9478 34.8004C26.9478 34.8004 26.9479 34.8004 26.9479 34.8002C26.9479 34.8002 26.9479 34.8002 26.9479 34.8002C26.9479 34.8002 26.9479 34.8002 26.9478 34.8004C26.9477 34.8004 26.9475 34.8008 26.9471 34.8013C26.9464 34.8023 26.9451 34.8043 26.9433 34.8069C26.9398 34.8118 26.9341 34.8198 26.9262 34.8299C26.9106 34.8504 26.8864 34.8806 26.8536 34.917C26.7879 34.9903 26.6877 35.089 26.5516 35.1892C26.2799 35.3892 25.865 35.595 25.2917 35.6138L25.299 35.8293ZM23.7697 35.3982C23.7307 35.4989 23.7307 35.4989 23.7308 35.4989C23.7308 35.4989 23.7308 35.4989 23.7308 35.4989C23.7308 35.4989 23.7309 35.4989 23.731 35.4989C23.7311 35.4991 23.7313 35.4991 23.7316 35.4991C23.7321 35.4993 23.7328 35.4997 23.7337 35.5C23.7356 35.5006 23.7383 35.5017 23.7419 35.503C23.749 35.5056 23.7593 35.5094 23.7726 35.5142C23.7992 35.5239 23.8378 35.5375 23.8859 35.5536C23.982 35.5859 24.1167 35.6291 24.2712 35.6713C24.5772 35.7553 24.9719 35.84 25.299 35.8293L25.2917 35.6138C24.9995 35.6234 24.6314 35.5465 24.3294 35.4638C24.1799 35.4226 24.0493 35.381 23.9562 35.3495C23.9096 35.334 23.8725 35.3209 23.8472 35.3116C23.8345 35.3071 23.8247 35.3036 23.8182 35.3013C23.815 35.3 23.8125 35.2991 23.811 35.2985C23.8102 35.2982 23.8096 35.298 23.8092 35.2978C23.809 35.2978 23.8089 35.2976 23.8088 35.2976C23.8088 35.2976 23.8087 35.2976 23.8087 35.2976C23.8087 35.2976 23.8087 35.2976 23.8087 35.2976C23.8087 35.2976 23.8087 35.2976 23.7697 35.3982ZM22.383 36.4717C22.7861 36.3577 23.1542 36.1041 23.4176 35.8847C23.5503 35.7743 23.6585 35.6709 23.7336 35.5948C23.7712 35.5566 23.8006 35.5254 23.8207 35.5036C23.8308 35.4926 23.8386 35.484 23.8439 35.478C23.8466 35.475 23.8486 35.4728 23.8501 35.4711C23.8508 35.4702 23.8513 35.4696 23.8517 35.4691C23.8519 35.4689 23.8521 35.4687 23.8522 35.4687C23.8523 35.4685 23.8523 35.4685 23.8524 35.4685C23.8524 35.4685 23.8524 35.4685 23.8524 35.4685C23.8524 35.4683 23.8525 35.4683 23.7697 35.3982C23.687 35.3282 23.687 35.3282 23.687 35.328C23.687 35.328 23.687 35.328 23.687 35.3282C23.6869 35.3282 23.6869 35.3282 23.6867 35.3284C23.6865 35.3286 23.6861 35.3291 23.6856 35.3297C23.6845 35.331 23.6828 35.3329 23.6805 35.3355C23.6758 35.3407 23.6688 35.3484 23.6595 35.3586C23.641 35.3788 23.6133 35.4081 23.5777 35.4441C23.5064 35.5163 23.4034 35.6148 23.2772 35.72C23.023 35.9316 22.6828 36.1629 22.3231 36.2644L22.383 36.4717ZM20.6095 36.5836C20.6095 36.6913 20.6095 36.6913 20.6095 36.6913C20.6095 36.6913 20.6095 36.6913 20.6096 36.6913C20.6096 36.6913 20.6097 36.6913 20.6097 36.6913C20.6099 36.6913 20.6101 36.6913 20.6104 36.6913C20.6109 36.6913 20.6117 36.6913 20.6127 36.6913C20.6147 36.6913 20.6176 36.6913 20.6215 36.6913C20.6291 36.6911 20.6403 36.6911 20.6547 36.6909C20.6836 36.6905 20.7256 36.6896 20.7782 36.6879C20.8834 36.6844 21.0316 36.6778 21.2039 36.664C21.5473 36.6368 21.9914 36.5823 22.383 36.4717L22.3231 36.2644C21.9519 36.3694 21.5242 36.4226 21.1865 36.4493C21.0183 36.4625 20.8736 36.4691 20.7711 36.4726C20.7198 36.4741 20.6792 36.475 20.6515 36.4754C20.6376 36.4756 20.627 36.4758 20.6199 36.4758C20.6163 36.4758 20.6137 36.4758 20.6119 36.4758C20.611 36.4758 20.6104 36.4758 20.61 36.4758C20.6098 36.4758 20.6096 36.4758 20.6096 36.4758C20.6095 36.4758 20.6095 36.4758 20.6095 36.4758C20.6095 36.4758 20.6095 36.4758 20.6094 36.4758C20.6095 36.4758 20.6095 36.4758 20.6095 36.5836ZM20.7184 37.0146V36.5836H20.5005V37.0146H20.7184ZM22.3231 36.6954C21.5753 36.9069 21.0427 36.9069 20.6095 36.9069V37.1224C21.048 37.1224 21.6052 37.1224 22.383 36.9028L22.3231 36.6954ZM23.8787 35.7215C23.7812 35.6732 23.7812 35.6732 23.7813 35.6732C23.7813 35.6732 23.7813 35.6732 23.7813 35.6732C23.7813 35.673 23.7813 35.673 23.7814 35.673C23.7814 35.673 23.7814 35.673 23.7813 35.673C23.7813 35.6732 23.7811 35.6734 23.7809 35.6739C23.7804 35.6747 23.7796 35.6765 23.7783 35.6786C23.7759 35.6831 23.7718 35.6903 23.7662 35.7C23.7549 35.7189 23.737 35.7472 23.7119 35.7827C23.6618 35.8534 23.5827 35.9525 23.469 36.0618C23.242 36.2799 22.876 36.5392 22.3231 36.6954L22.383 36.9028C22.9743 36.7357 23.3711 36.4562 23.6209 36.2163C23.7456 36.0965 23.8334 35.9868 23.8905 35.9062C23.9191 35.8659 23.94 35.8327 23.954 35.8092C23.961 35.7976 23.9663 35.7881 23.9699 35.7814C23.9718 35.778 23.9732 35.7754 23.9742 35.7734C23.9747 35.7724 23.9752 35.7717 23.9755 35.7711C23.9756 35.7706 23.9758 35.7704 23.9759 35.7702C23.9759 35.7702 23.976 35.77 23.9761 35.77C23.9761 35.7698 23.9761 35.7698 23.9761 35.7698C23.9761 35.7698 23.9762 35.7698 23.8787 35.7215ZM25.2846 35.7219C24.9936 35.7504 24.649 35.7247 24.3731 35.6907C24.236 35.6739 24.1176 35.6551 24.0335 35.6405C23.9915 35.6334 23.9581 35.6271 23.9353 35.6228C23.924 35.6206 23.9152 35.6189 23.9094 35.6176C23.9065 35.6172 23.9043 35.6168 23.9029 35.6163C23.9022 35.6163 23.9017 35.6161 23.9013 35.6161C23.9012 35.6161 23.9011 35.6161 23.901 35.6161C23.9009 35.6161 23.9009 35.6161 23.9009 35.6161C23.9009 35.6161 23.9009 35.6161 23.8787 35.7215C23.8565 35.8269 23.8565 35.8269 23.8565 35.8271C23.8565 35.8271 23.8565 35.8271 23.8565 35.8271C23.8566 35.8271 23.8566 35.8271 23.8567 35.8271C23.8568 35.8271 23.857 35.8271 23.8572 35.8271C23.8577 35.8273 23.8583 35.8273 23.8592 35.8275C23.8608 35.828 23.8633 35.8284 23.8665 35.8291C23.8728 35.8303 23.8821 35.8321 23.8941 35.8344C23.918 35.839 23.9526 35.8454 23.9961 35.8528C24.0828 35.8678 24.2049 35.887 24.3462 35.9045C24.627 35.9392 24.9907 35.9674 25.3061 35.9366L25.2846 35.7219ZM27.039 34.8594C26.94 34.8144 26.94 34.8144 26.94 34.8142C26.94 34.8142 26.94 34.8142 26.9401 34.8142C26.9401 34.8142 26.9401 34.8142 26.9401 34.814C26.9402 34.814 26.9402 34.814 26.9401 34.814C26.9401 34.8142 26.94 34.8144 26.9397 34.8148C26.9393 34.8157 26.9384 34.8174 26.9372 34.8198C26.9347 34.8247 26.9306 34.8323 26.9248 34.8424C26.9132 34.8627 26.8945 34.8928 26.8679 34.9301C26.8147 35.0045 26.7296 35.1064 26.6039 35.2129C26.3536 35.425 25.9385 35.6581 25.2846 35.7219L25.3061 35.9366C26.0059 35.8681 26.4626 35.6163 26.7457 35.3765C26.8867 35.2571 26.9836 35.1416 27.0458 35.0547C27.0769 35.0112 27.0993 34.975 27.1143 34.9489C27.1218 34.9359 27.1274 34.9254 27.1313 34.9178C27.1332 34.9142 27.1347 34.9112 27.1359 34.9088C27.1364 34.9077 27.1369 34.9069 27.1372 34.906C27.1374 34.9058 27.1375 34.9053 27.1376 34.9051C27.1377 34.9049 27.1378 34.9049 27.1378 34.9047C27.1378 34.9047 27.1379 34.9047 27.1379 34.9047C27.1379 34.9045 27.1379 34.9045 27.039 34.8594Z" fill="white"/>
</g>
<defs>
<clipPath id="clip0">
<rect width="17" height="25" fill="white" transform="translate(12 12.2305)"/>
</clipPath>
</defs>
</svg>
