<svg width="23" height="16" viewBox="0 0 23 16" fill="none" xmlns="http://www.w3.org/2000/svg">
<path d="M21.375 0.124756H1.125C0.503789 0.124756 0 0.628545 0 1.24976V14.7498C0 15.371 0.503789 15.8748 1.125 15.8748H21.375C21.9962 15.8748 22.5 15.371 22.5 14.7498V1.24976C22.5 0.628545 21.9962 0.124756 21.375 0.124756ZM6.1875 10.5268V11.0935C6.1875 11.2489 6.06164 11.3748 5.90625 11.3748H5.34375C5.18836 11.3748 5.0625 11.2489 5.0625 11.0935V10.5208C4.66559 10.5004 4.27957 10.3619 3.95965 10.1218C3.82254 10.0188 3.81551 9.81347 3.93961 9.69499L4.3527 9.30089C4.45008 9.20808 4.59492 9.20386 4.70883 9.27522C4.84488 9.3603 4.99922 9.40601 5.15953 9.40601H6.14777C6.37629 9.40601 6.56262 9.19788 6.56262 8.9423C6.56262 8.73312 6.4357 8.5489 6.2543 8.49476L4.67227 8.02015C4.01871 7.82397 3.56203 7.19679 3.56203 6.49472C3.56203 5.63269 4.23176 4.93237 5.06215 4.91022V4.34351C5.06215 4.18812 5.18801 4.06226 5.3434 4.06226H5.9059C6.06129 4.06226 6.18715 4.18812 6.18715 4.34351V4.9162C6.58406 4.93659 6.97008 5.07476 7.29 5.31522C7.42711 5.41823 7.43414 5.62354 7.31004 5.74202L6.89695 6.13612C6.79957 6.22894 6.65473 6.23315 6.54082 6.16179C6.40477 6.07636 6.25043 6.03101 6.09012 6.03101H5.10187C4.87336 6.03101 4.68703 6.23913 4.68703 6.49472C4.68703 6.7039 4.81395 6.88812 4.99535 6.94226L6.57738 7.41687C7.23094 7.61304 7.68762 8.24022 7.68762 8.9423C7.68762 9.80468 7.01789 10.5046 6.1875 10.5268ZM14.625 9.96851C14.625 10.1239 14.4991 10.2498 14.3438 10.2498H10.4062C10.2509 10.2498 10.125 10.1239 10.125 9.96851V9.40601C10.125 9.25062 10.2509 9.12476 10.4062 9.12476H14.3438C14.4991 9.12476 14.625 9.25062 14.625 9.40601V9.96851ZM20.25 9.96851C20.25 10.1239 20.1241 10.2498 19.9688 10.2498H17.1562C17.0009 10.2498 16.875 10.1239 16.875 9.96851V9.40601C16.875 9.25062 17.0009 9.12476 17.1562 9.12476H19.9688C20.1241 9.12476 20.25 9.25062 20.25 9.40601V9.96851ZM20.25 6.59351C20.25 6.7489 20.1241 6.87476 19.9688 6.87476H10.4062C10.2509 6.87476 10.125 6.7489 10.125 6.59351V6.03101C10.125 5.87562 10.2509 5.74976 10.4062 5.74976H19.9688C20.1241 5.74976 20.25 5.87562 20.25 6.03101V6.59351Z" fill="#1B1B25"/>
</svg>
