<svg width="95" height="96" viewBox="0 0 95 96" fill="none" xmlns="http://www.w3.org/2000/svg">
<g clip-path="url(#clip0)">
<path d="M70.8101 21.0058C74.4508 21.0058 77.3999 18.0763 77.3999 14.4291V7.5458C77.3999 3.89534 74.454 0.956055 70.8101 0.956055C67.1662 0.956055 64.2236 3.89208 64.2236 7.5458V14.4324C64.2269 18.0763 67.1694 21.0058 70.8101 21.0058Z" fill="#1B1B25"/>
<path d="M94.2205 12.3549H80.9562V15.7052C80.9562 21.2347 76.4641 25.7399 70.9247 25.7399C65.3789 25.7399 60.8966 21.2347 60.8966 15.7052V12.3549H34.1298V15.7052C34.1298 21.2347 29.6312 25.7399 24.0951 25.7399C18.5591 25.7399 14.0637 21.238 14.0637 15.7052V12.3549L0.678711 12.1885V95.9565H7.37285H87.6373L94.3216 95.937L94.2205 12.3549ZM87.6307 89.2852H7.37285V35.7713H87.6373V89.2852H87.6307Z" fill="#1B1B25"/>
<path d="M23.9904 21.0058C27.6311 21.0058 30.5835 18.0763 30.5835 14.4291V7.5458C30.5835 3.89208 27.6311 0.956055 23.9904 0.956055C20.3498 0.956055 17.4072 3.89208 17.4072 7.5458V14.4324C17.4072 18.0763 20.3465 21.0058 23.9904 21.0058Z" fill="#1B1B25"/>
<path d="M44.6897 42.9512H34.1494V52.2551H44.6897V42.9512Z" fill="#1B1B25"/>
<path d="M61.7415 42.9512H51.1914V52.2551H61.7415V42.9512Z" fill="#1B1B25"/>
<path d="M77.5374 42.9512H66.9971V52.2551H77.5374V42.9512Z" fill="#1B1B25"/>
<path d="M44.6897 58.4023H34.1494V67.6998H44.6897V58.4023Z" fill="#1B1B25"/>
<path d="M61.7415 58.4023H51.1914V67.6998H61.7415V58.4023Z" fill="#1B1B25"/>
<path d="M77.5374 58.4023H66.9971V67.6998H77.5374V58.4023Z" fill="#1B1B25"/>
<path d="M44.6897 74.1592H34.1494V83.4566H44.6897V74.1592Z" fill="#1B1B25"/>
<path d="M27.941 58.4023H17.4072V67.6998H27.941V58.4023Z" fill="#1B1B25"/>
<path d="M27.941 74.1592H17.4072V83.4566H27.941V74.1592Z" fill="#1B1B25"/>
<path d="M61.7415 74.1592H51.1914V83.4566H61.7415V74.1592Z" fill="#1B1B25"/>
<path d="M77.5374 74.1592H66.9971V83.4566H77.5374V74.1592Z" fill="#1B1B25"/>
</g>
<defs>
<clipPath id="clip0">
<rect width="95" height="95" fill="white" transform="translate(0 0.956055)"/>
</clipPath>
</defs>
</svg>
