<svg width="18" height="18" viewBox="0 0 18 18" fill="none" xmlns="http://www.w3.org/2000/svg">
<path d="M12.2873 6.20508H11.4629C11.2836 6.20508 11.1131 6.29121 11.0076 6.43887L8.24436 10.2709L6.9928 8.53418C6.88733 8.38828 6.71858 8.30039 6.53753 8.30039H5.71311C5.59886 8.30039 5.53206 8.43047 5.59886 8.52363L7.78909 11.5611C7.84083 11.6334 7.90904 11.6922 7.98806 11.7328C8.06709 11.7734 8.15465 11.7946 8.24348 11.7946C8.33232 11.7946 8.41988 11.7734 8.49891 11.7328C8.57793 11.6922 8.64614 11.6334 8.69788 11.5611L12.3998 6.42832C12.4684 6.33516 12.4016 6.20508 12.2873 6.20508Z" fill="#115B86"/>
<path d="M9 1.125C4.65117 1.125 1.125 4.65117 1.125 9C1.125 13.3488 4.65117 16.875 9 16.875C13.3488 16.875 16.875 13.3488 16.875 9C16.875 4.65117 13.3488 1.125 9 1.125ZM9 15.5391C5.38945 15.5391 2.46094 12.6105 2.46094 9C2.46094 5.38945 5.38945 2.46094 9 2.46094C12.6105 2.46094 15.5391 5.38945 15.5391 9C15.5391 12.6105 12.6105 15.5391 9 15.5391Z" fill="#115B86"/>
</svg>
