<svg width="50" height="50" viewBox="0 0 50 50" fill="none" xmlns="http://www.w3.org/2000/svg">
<path fill-rule="evenodd" clip-rule="evenodd" d="M1.5625 25C1.9769 25 2.37433 25.1646 2.66735 25.4576C2.96038 25.7507 3.125 26.1481 3.125 26.5625V37.5C3.125 38.3288 3.45424 39.1237 4.04029 39.7097C4.62634 40.2958 5.4212 40.625 6.25 40.625H43.75C44.5788 40.625 45.3737 40.2958 45.9597 39.7097C46.5458 39.1237 46.875 38.3288 46.875 37.5V26.5625C46.875 26.1481 47.0396 25.7507 47.3326 25.4576C47.6257 25.1646 48.0231 25 48.4375 25C48.8519 25 49.2493 25.1646 49.5424 25.4576C49.8354 25.7507 50 26.1481 50 26.5625V37.5C50 39.1576 49.3415 40.7473 48.1694 41.9194C46.9973 43.0915 45.4076 43.75 43.75 43.75H6.25C4.5924 43.75 3.00269 43.0915 1.83058 41.9194C0.65848 40.7473 0 39.1576 0 37.5V26.5625C0 26.1481 0.16462 25.7507 0.457646 25.4576C0.750671 25.1646 1.1481 25 1.5625 25Z" fill="#BDBDBD"/>
<path fill-rule="evenodd" clip-rule="evenodd" d="M15.625 23.4382C15.918 23.1453 16.3153 22.9807 16.7296 22.9807C17.144 22.9807 17.5413 23.1453 17.8343 23.4382L25 30.6038L32.1656 23.4382C32.3097 23.289 32.4821 23.1699 32.6728 23.088C32.8634 23.0061 33.0684 22.963 33.2759 22.9612C33.4834 22.9594 33.6891 22.999 33.8811 23.0775C34.0732 23.1561 34.2476 23.2721 34.3943 23.4188C34.541 23.5655 34.6571 23.74 34.7356 23.932C34.8142 24.124 34.8537 24.3298 34.8519 24.5373C34.8501 24.7447 34.807 24.9498 34.7251 25.1404C34.6432 25.331 34.5242 25.5034 34.375 25.6476L26.1062 33.9194C25.9611 34.065 25.7886 34.1804 25.5988 34.2592C25.409 34.3379 25.2055 34.3785 25 34.3785C24.7944 34.3785 24.5909 34.3379 24.4011 34.2592C24.2113 34.1804 24.0389 34.065 23.8937 33.9194L15.625 25.6476C15.332 25.3546 15.1675 24.9572 15.1675 24.5429C15.1675 24.1286 15.332 23.7312 15.625 23.4382Z" fill="#BDBDBD"/>
<path fill-rule="evenodd" clip-rule="evenodd" d="M25 3.125C25.4144 3.125 25.8118 3.28962 26.1049 3.58265C26.3979 3.87567 26.5625 4.2731 26.5625 4.6875V29.6875C26.5625 30.1019 26.3979 30.4993 26.1049 30.7924C25.8118 31.0854 25.4144 31.25 25 31.25C24.5856 31.25 24.1882 31.0854 23.8951 30.7924C23.6021 30.4993 23.4375 30.1019 23.4375 29.6875V4.6875C23.4375 4.2731 23.6021 3.87567 23.8951 3.58265C24.1882 3.28962 24.5856 3.125 25 3.125Z" fill="#BDBDBD"/>
</svg>
