<svg width="20" height="15" viewBox="0 0 20 15" fill="none" xmlns="http://www.w3.org/2000/svg">
<path fill-rule="evenodd" clip-rule="evenodd" d="M15.9427 6.59888C16.278 6.69724 16.6329 6.75 17 6.75V13.919C17 14.1878 16.8949 14.4205 16.6846 14.6169C16.4743 14.8134 16.2253 14.9116 15.9375 14.9116H1.0625C0.77474 14.9116 0.525716 14.8134 0.31543 14.6169C0.105143 14.4205 0 14.1878 0 13.919V6.08647L7.96875 9.94845H9.03125L15.9427 6.59888ZM13.25 3H1.0625C0.77474 3 0.525716 3.09564 0.31543 3.28693C0.105143 3.47822 0 3.71346 0 3.99264V4.93874L8.5 8.95581L14.7515 6.00138C13.8398 5.3173 13.25 4.22753 13.25 3Z" fill="#1B1B25"/>
<path d="M17 5.5C18.3807 5.5 19.5 4.38071 19.5 3C19.5 1.61929 18.3807 0.5 17 0.5C15.6193 0.5 14.5 1.61929 14.5 3C14.5 4.38071 15.6193 5.5 17 5.5Z" fill="#00C5FF"/>
</svg>
