<svg width="15" height="16" viewBox="0 0 15 16" fill="none" xmlns="http://www.w3.org/2000/svg">
<path d="M3.75 3.23047V0.980469C3.75 0.781556 3.82902 0.590791 3.96967 0.450139C4.11032 0.309486 4.30109 0.230469 4.5 0.230469H10.5C10.6989 0.230469 10.8897 0.309486 11.0303 0.450139C11.171 0.590791 11.25 0.781556 11.25 0.980469V3.23047H15V4.73047H13.5V14.4805C13.5 14.6794 13.421 14.8701 13.2803 15.0108C13.1397 15.1515 12.9489 15.2305 12.75 15.2305H2.25C2.05109 15.2305 1.86032 15.1515 1.71967 15.0108C1.57902 14.8701 1.5 14.6794 1.5 14.4805V4.73047H0V3.23047H3.75ZM5.25 1.73047V3.23047H9.75V1.73047H5.25Z" fill="#3B3B41"/>
</svg>
