<svg width="15" height="20" viewBox="0 0 15 20" fill="none" xmlns="http://www.w3.org/2000/svg">
<path fill-rule="evenodd" clip-rule="evenodd" d="M7.36712 0.255859C3.67527 0.255859 0.683594 2.98236 0.683594 6.34773C0.683594 7.21699 0.886793 8.04349 1.24423 8.79042L7.36712 19.0837L13.4876 8.79042C13.8575 8.02612 14.0494 7.19212 14.0494 6.34773C14.0494 2.98117 11.0578 0.255859 7.36712 0.255859ZM7.39528 10.9683C4.99973 10.9683 3.05955 9.07305 3.05955 6.73248C3.05955 4.3943 4.99973 2.49905 7.39528 2.49905C9.78715 2.49905 11.7273 4.39548 11.7273 6.73248C11.7273 9.07305 9.78715 10.9683 7.39528 10.9683Z" fill="#00C5FF"/>
<path fill-rule="evenodd" clip-rule="evenodd" d="M10.4396 6.76742C10.4408 7.15504 10.3632 7.53908 10.2113 7.8976C10.0594 8.25612 9.83613 8.5821 9.55434 8.85691C9.27254 9.13171 8.93769 9.34997 8.56893 9.49921C8.20016 9.64844 7.8047 9.72574 7.40513 9.72667C6.59859 9.72415 5.82609 9.411 5.25751 8.85607C4.68892 8.30113 4.37078 7.54985 4.37306 6.76742C4.37143 5.9854 4.68985 5.23473 5.25837 4.68031C5.82689 4.12589 6.59901 3.81306 7.40513 3.81055C8.21167 3.81243 8.98442 4.12498 9.55347 4.67947C10.1225 5.23396 10.4413 5.98499 10.4396 6.76742Z" fill="#00C5FF"/>
</svg>
