<svg width="126" height="53" viewBox="0 0 126 53" fill="none" xmlns="http://www.w3.org/2000/svg">
<path d="M3 46.7273L7.3452 35.2727H9.92666L14.2077 46.7273H11.5942L10.7284 44.1765H6.4473L5.5494 46.7273H3ZM8.59585 38.0963L7.10469 42.2995H10.071L8.62791 38.0963H8.59585ZM29.5399 39.123H27.1028C27.0279 38.5561 26.75 38.0802 26.269 37.6952C25.788 37.3102 25.2321 37.1176 24.6015 37.1176C23.5432 37.1176 22.7415 37.5241 22.1964 38.3369C21.726 39.0321 21.4909 39.9358 21.4909 41.0481C21.4909 42.1176 21.726 42.9947 22.1964 43.6791C22.7522 44.4813 23.5539 44.8824 24.6015 44.8824C25.3497 44.8824 25.9537 44.6417 26.4133 44.1604C26.8409 43.7112 27.1028 43.0963 27.199 42.3155H29.6361C29.5078 43.738 28.9841 44.877 28.0648 45.7326C27.1562 46.5775 26.0018 47 24.6015 47C22.8805 47 21.5016 46.4225 20.4647 45.2674C19.4706 44.1658 18.9735 42.7594 18.9735 41.0481C18.9735 39.2941 19.4706 37.861 20.4647 36.7487C21.4909 35.5829 22.8698 35 24.6015 35C25.9056 35 27.0066 35.3583 27.9045 36.0749C28.8451 36.8235 29.3903 37.8396 29.5399 39.123ZM35.6309 46.7273V35.2727H44.1931V37.3904H38.1483V39.8449H43.696V41.8021H38.1483V44.6096H44.3213V46.7273H35.6309ZM50.3036 46.7273V35.2727H53.8471L56.5248 43.1497H56.5568L59.0902 35.2727H62.6337V46.7273H60.2767V38.6096H60.2447L57.4387 46.7273H55.4986L52.6927 38.6898H52.6606V46.7273H50.3036ZM67.9071 46.7273L72.2523 35.2727H74.8338L79.1149 46.7273H76.5013L75.6355 44.1765H71.3544L70.4565 46.7273H67.9071ZM73.503 38.0963L72.0118 42.2995H74.9781L73.5351 38.0963H73.503ZM93.5012 35.2727L89.7011 46.7273H86.8631L83.1433 35.2727H85.7408L88.2902 43.3262H88.3222L90.9037 35.2727H93.5012ZM98.7531 46.7273V35.2727H107.315V37.3904H101.27V39.8449H106.818V41.8021H101.27V44.6096H107.444V46.7273H98.7531ZM113.426 46.7273V35.2727H115.927L120.705 42.9572H120.737V35.2727H123.094V46.7273H120.577L115.815 39.0588H115.783V46.7273H113.426Z" fill="white"/>
<path fill-rule="evenodd" clip-rule="evenodd" d="M61.9415 1.91088e-08L59.6381 1.32923V14.6165L61.9415 15.9171V1.91088e-08ZM63.275 15.9171L65.8209 14.4796V1.46915L63.275 0V15.9171ZM51.8794 5.80666L54.5464 4.26755V11.7417L51.8794 10.2358V5.80666ZM55.7587 12.4262V3.56794L58.4258 2.02883V13.9321L55.7587 12.4262ZM69.7002 12.2892L67.0332 13.7951V2.16876L69.7002 3.70787V12.2892ZM70.9125 4.40746V11.6048L73.5796 10.0989V5.94658L70.9125 4.40746ZM77.2165 8.04537L74.7919 9.41437V6.64617L77.2165 8.04537ZM50.6671 6.50626L48 8.04537L50.6671 9.55126V6.50626Z" fill="#1AB8E6"/>
<mask id="mask0" x="48" y="7" width="30" height="24">
<path d="M62.6083 21.57L48 30.0001V7.49951L77.2165 7.9847V30.0001L62.6083 21.57Z" fill="#1AB8E6"/>
</mask>
<g mask="url(#mask0)">
<path d="M48 8.04492H49.9397V30.1816H48V8.04492Z" fill="#1AB8E6"/>
<path d="M53.8175 8.59082H51.8778V30.6669H53.8175V8.59082Z" fill="#1AB8E6"/>
<path d="M57.698 8.95459H55.7584V31.0307H57.698V8.95459Z" fill="#1AB8E6"/>
<path d="M61.5785 8.95459H59.6389V31.0307H61.5785V8.95459Z" fill="#1AB8E6"/>
<path d="M65.5789 6.77148H63.6392V28.8476H65.5789V6.77148Z" fill="#1AB8E6"/>
<path d="M69.4567 7.49902H67.517V29.5751H69.4567V7.49902Z" fill="#1AB8E6"/>
<path d="M73.3373 7.86328H71.3976V29.9394H73.3373V7.86328Z" fill="#1AB8E6"/>
<path d="M75.2781 8.04492H77.2178V29.939H75.2781V8.04492Z" fill="#1AB8E6"/>
</g>
</svg>
