<svg width="82" height="41" viewBox="0 0 82 41" fill="none" xmlns="http://www.w3.org/2000/svg">
<path fill-rule="evenodd" clip-rule="evenodd" d="M40.5485 -0.000244126L38.8327 1.02089V11.2284L40.5485 12.2274V-0.000244126ZM41.5419 12.2274L43.4384 11.1231V1.12837L41.5419 -0.000244141V12.2274ZM33.053 4.4605L35.0397 3.27813V9.01983L33.053 7.86299V4.4605ZM35.9428 9.54568V2.74069L37.9296 1.55832V10.7025L35.9428 9.54568ZM46.3283 9.44047L44.3415 10.5973V1.66582L46.3283 2.84818V9.44047ZM47.2314 3.38562V8.91467L49.2181 7.75782V4.56799L47.2314 3.38562ZM51.9274 6.1803L50.1212 7.23198V5.10542L51.9274 6.1803ZM32.1499 4.99794L30.1631 6.1803L32.1499 7.33714V4.99794Z" fill="#1AB8E6"/>
<path d="M0.0146484 38.5772L2.95148 30.5934H4.69623L7.58971 38.5772H5.82328L5.23808 36.7993H2.3446L1.73773 38.5772H0.0146484ZM3.79676 32.5614L2.78892 35.491H4.79377L3.81844 32.5614H3.79676ZM17.9524 33.277H16.3052C16.2546 32.882 16.0668 32.5502 15.7417 32.2819C15.4166 32.0135 15.0409 31.8793 14.6146 31.8793C13.8994 31.8793 13.3575 32.1626 12.9891 32.7291C12.6712 33.2137 12.5122 33.8436 12.5122 34.6189C12.5122 35.3643 12.6712 35.9756 12.9891 36.4527C13.3648 37.0118 13.9066 37.2913 14.6146 37.2913C15.1203 37.2913 15.5285 37.1236 15.8392 36.7881C16.1282 36.475 16.3052 36.0464 16.3702 35.5022H18.0174C17.9307 36.4937 17.5767 37.2876 16.9554 37.884C16.3413 38.4729 15.5611 38.7673 14.6146 38.7673C13.4514 38.7673 12.5195 38.3648 11.8187 37.5597C11.1468 36.7919 10.8108 35.8116 10.8108 34.6189C10.8108 33.3963 11.1468 32.3974 11.8187 31.6221C12.5122 30.8096 13.4442 30.4033 14.6146 30.4033C15.496 30.4033 16.2402 30.653 16.847 31.1525C17.4828 31.6743 17.8513 32.3825 17.9524 33.277ZM22.0692 38.5772V30.5934H27.8562V32.0694H23.7706V33.7802H27.5202V35.1444H23.7706V37.1012H27.9429V38.5772H22.0692ZM31.9862 38.5772V30.5934H34.3811L36.1909 36.0837H36.2126L37.9248 30.5934H40.3198V38.5772H38.7268V32.9192H38.7051L36.8086 38.5772H35.4973L33.6009 32.9751H33.5792V38.5772H31.9862ZM43.884 38.5772L46.8208 30.5934H48.5656L51.4591 38.5772H49.6926L49.1075 36.7993H46.214L45.6071 38.5772H43.884ZM47.6661 32.5614L46.6583 35.491H48.6631L47.6878 32.5614H47.6661ZM61.1825 30.5934L58.6141 38.5772H56.696L54.1818 30.5934H55.9374L57.6605 36.2067H57.6821L59.4269 30.5934H61.1825ZM64.7322 38.5772V30.5934H70.5191V32.0694H66.4336V33.7802H70.1832V35.1444H66.4336V37.1012H70.6058V38.5772H64.7322ZM74.6491 38.5772V30.5934H76.3397L79.5691 35.9495H79.5908V30.5934H81.1838V38.5772H79.4824L76.2638 33.2323H76.2421V38.5772H74.6491Z" fill="#3B3B41"/>
<mask id="mask0" x="30" y="5" width="22" height="19">
<path d="M41.0452 16.5703L30.1631 23.0465V5.76123L51.9274 6.13396V23.0465L41.0452 16.5703Z" fill="#1AB8E6"/>
</mask>
<g mask="url(#mask0)">
<path d="M30.1631 6.18018H31.608V23.1859H30.1631V6.18018Z" fill="#1AB8E6"/>
<path d="M34.4977 6.59985H33.0527V23.5589H34.4977V6.59985Z" fill="#1AB8E6"/>
<path d="M37.3878 6.87915H35.9429V23.8382H37.3878V6.87915Z" fill="#1AB8E6"/>
<path d="M40.2775 6.87915H38.8325V23.8382H40.2775V6.87915Z" fill="#1AB8E6"/>
<path d="M43.2579 5.2019H41.813V22.161H43.2579V5.2019Z" fill="#1AB8E6"/>
<path d="M46.1476 5.76099H44.7026V22.7201H46.1476V5.76099Z" fill="#1AB8E6"/>
<path d="M49.0377 6.04053H47.5928V22.9996H49.0377V6.04053Z" fill="#1AB8E6"/>
<path d="M50.4824 6.18018H51.9273V22.9995H50.4824V6.18018Z" fill="#1AB8E6"/>
</g>
</svg>
