<svg width="42" height="51" viewBox="0 0 42 51" fill="none" xmlns="http://www.w3.org/2000/svg">
<rect x="0.113281" y="0.229492" width="41" height="50" fill="black"/>
<g clip-path="url(#clip0)">
<path fill-rule="evenodd" clip-rule="evenodd" d="M20.6144 21.7134V17.3213C20.6144 17.3213 20.5681 17.3213 20.5218 17.367C20.4807 17.4077 20.2935 20.9488 20.2522 21.7406C19.179 21.9012 18.2013 22.7592 17.665 23.9095H14.0868C14.0868 23.9095 14.0406 23.93 14.0405 23.9553C14.0404 24.001 14.0868 24.0468 14.0868 24.0468L17.4871 24.3483C17.3255 24.8146 17.2348 25.3164 17.2348 25.8311C17.2348 25.8464 17.2349 25.8616 17.2351 25.8768H3.34592C3.34592 25.8768 3.20703 25.9226 3.20703 26.0599C3.20703 26.1971 3.34592 26.2886 3.34592 26.2886L11.8934 27.2033C11.5216 27.3674 11.2626 27.736 11.2626 28.1644C11.2626 28.7456 11.7393 29.2167 12.3274 29.2167C12.9155 29.2167 13.3922 28.7456 13.3922 28.1644C13.3922 27.817 13.2218 27.5089 12.9592 27.3173L16.1727 27.6612H16.1237C16.1237 27.6612 16.1237 29.0337 16.0774 29.1252C16.0311 29.2167 15.9385 29.2625 15.9385 29.2625V29.3082H16.2163V27.6658L16.2626 27.6708V29.3082H16.5404V29.6285C16.5404 29.6285 16.5404 29.8572 16.7718 29.8572C17.0033 29.8572 17.0033 29.6285 17.0033 29.6285V28.8507C17.0033 28.8507 17.0033 28.6677 16.7718 28.6677C16.5404 28.6677 16.5404 28.8507 16.5404 28.8507V29.2625C16.5404 29.2625 16.4478 29.2167 16.4015 29.1252C16.3584 29.0401 16.3554 27.8483 16.3552 27.6806L17.753 27.8303C18.3599 28.8907 19.4277 29.5626 20.5632 29.5823C20.5578 29.9538 20.5463 30.358 20.5218 30.4063C20.4755 30.4978 20.383 30.5435 20.383 30.5435V30.5893H20.6144H20.6607H20.8922V30.5435C20.8922 30.5435 20.7996 30.4978 20.7533 30.4063C20.7289 30.3579 20.7174 29.953 20.7119 29.5811C21.8307 29.5443 22.8965 28.8769 23.5086 27.8317L24.92 27.6806C24.9198 27.8483 24.9168 29.0401 24.8737 29.1252C24.8274 29.2167 24.7348 29.2625 24.7348 29.2625V28.8507C24.7348 28.8507 24.7348 28.6677 24.5033 28.6677C24.2718 28.6677 24.2718 28.8507 24.2718 28.8507V29.6285C24.2718 29.6285 24.2718 29.8572 24.5033 29.8572C24.7348 29.8572 24.7348 29.6285 24.7348 29.6285V29.3082H25.0126V27.6708L25.0589 27.6658V29.3082H25.3367V29.2625C25.3367 29.2625 25.2441 29.2167 25.1978 29.1252C25.1515 29.0337 25.1515 27.6612 25.1515 27.6612H25.1025L28.316 27.3173C28.0533 27.5089 27.883 27.817 27.883 28.1644C27.883 28.7456 28.3597 29.2167 28.9478 29.2167C29.5358 29.2167 30.0126 28.7456 30.0126 28.1644C30.0126 27.736 29.7535 27.3674 29.3818 27.2033L37.9292 26.2886C37.9292 26.2886 38.0681 26.1971 38.0681 26.0599C38.0681 25.9226 37.9292 25.8768 37.9292 25.8768H24.0401C24.0403 25.8616 24.0404 25.8464 24.0404 25.8311C24.0404 25.3166 23.9472 24.815 23.7817 24.3489L27.1883 24.0468C27.1883 24.0468 27.2348 24.001 27.2346 23.9553C27.2345 23.93 27.1883 23.9095 27.1883 23.9095H23.5993C23.0586 22.7756 22.0825 21.9258 21.0234 21.7479C20.9828 20.9709 20.7945 17.4078 20.7533 17.367C20.707 17.3213 20.6607 17.3213 20.6607 17.3213V21.7139C20.6453 21.7136 20.6299 21.7134 20.6144 21.7134ZM12.3274 28.6677C12.6087 28.6677 12.8367 28.4424 12.8367 28.1644C12.8367 27.8864 12.6087 27.6612 12.3274 27.6612C12.0461 27.6612 11.8181 27.8864 11.8181 28.1644C11.8181 28.4424 12.0461 28.6677 12.3274 28.6677ZM15.4293 29.6742V28.8965C15.4293 28.8965 15.4293 28.7134 15.6607 28.7134C15.8922 28.7134 15.8922 28.8965 15.8922 28.8965V29.6742C15.8922 29.6742 15.8922 29.903 15.6607 29.903C15.4293 29.903 15.4293 29.6742 15.4293 29.6742ZM19.8737 30.9553V30.1775C19.8737 30.1775 19.8737 29.9945 20.1052 29.9945C20.3367 29.9945 20.3367 30.1775 20.3367 30.1775V30.9553C20.3367 30.9553 20.3367 31.184 20.1052 31.184C19.8737 31.184 19.8737 30.9553 19.8737 30.9553ZM18.9015 24.367C18.9015 24.367 19.3236 24.4779 19.5959 24.5043C19.9023 24.534 20.383 24.55 20.383 24.55L20.4293 25.4193C20.4293 25.4193 19.92 25.5108 19.4107 25.3736C18.8032 25.2098 18.5311 25.0076 18.5311 25.0076L18.9015 24.367ZM28.9478 28.6677C28.6665 28.6677 28.4385 28.4424 28.4385 28.1644C28.4385 27.8864 28.6665 27.6612 28.9478 27.6612C29.2291 27.6612 29.457 27.8864 29.457 28.1644C29.457 28.4424 29.2291 28.6677 28.9478 28.6677ZM25.8459 29.6742V28.8965C25.8459 28.8965 25.8459 28.7134 25.6144 28.7134C25.383 28.7134 25.383 28.8965 25.383 28.8965V29.6742C25.383 29.6742 25.383 29.903 25.6144 29.903C25.8459 29.903 25.8459 29.6742 25.8459 29.6742ZM21.4015 30.9553V30.1775C21.4015 30.1775 21.4015 29.9945 21.17 29.9945C20.9385 29.9945 20.9385 30.1775 20.9385 30.1775V30.9553C20.9385 30.9553 20.9385 31.184 21.17 31.184C21.4015 31.184 21.4015 30.9553 21.4015 30.9553ZM22.3737 24.367C22.3737 24.367 21.9516 24.4779 21.6793 24.5043C21.3729 24.534 20.8922 24.55 20.8922 24.55L20.8459 25.4193C20.8459 25.4193 21.3552 25.5108 21.8644 25.3736C22.4719 25.2098 22.7441 25.0076 22.7441 25.0076L22.3737 24.367Z" fill="white"/>
<path d="M20.6139 17.3211H20.6602V17.2754L20.6139 17.2754V17.3211ZM20.6139 21.7133H20.5676V21.7591H20.6139V21.7133ZM20.5213 17.3669L20.4885 17.3345L20.5213 17.3669ZM20.2516 21.7405L20.2585 21.7857L20.2959 21.7801L20.2978 21.7428L20.2516 21.7405ZM17.6644 23.9094V23.9551H17.694L17.7065 23.9285L17.6644 23.9094ZM14.0863 23.9094V23.8636H14.0764L14.0673 23.8676L14.0863 23.9094ZM14.04 23.9551L13.9937 23.9549L14.04 23.9551ZM14.0863 24.0466L14.0536 24.079L14.0654 24.0907L14.0821 24.0922L14.0863 24.0466ZM17.4865 24.3482L17.5303 24.363L17.5495 24.3078L17.4907 24.3026L17.4865 24.3482ZM17.2345 25.8767V25.9225H17.2813L17.2808 25.8762L17.2345 25.8767ZM3.34534 25.8767V25.8309H3.33783L3.3307 25.8333L3.34534 25.8767ZM3.34534 26.2885L3.31966 26.3265L3.32909 26.3327L3.34036 26.334L3.34534 26.2885ZM11.8928 27.2031L11.9117 27.2449L12.068 27.1759L11.8978 27.1577L11.8928 27.2031ZM12.9586 27.3171L12.9636 27.2717L12.7933 27.2535L12.9311 27.3539L12.9586 27.3171ZM16.1721 27.661V27.7068L16.1771 27.6155L16.1721 27.661ZM16.1231 27.661V27.6153H16.0768V27.661H16.1231ZM15.9379 29.2623L15.9172 29.2214L15.8916 29.234V29.2623H15.9379ZM15.9379 29.3081H15.8916V29.3538H15.9379V29.3081ZM16.2157 29.3081V29.3538H16.262V29.3081H16.2157ZM16.2157 27.6657L16.2207 27.6202L16.1694 27.6147V27.6657H16.2157ZM16.262 27.6706H16.3083V27.6295L16.267 27.6251L16.262 27.6706ZM16.262 29.3081H16.2157V29.3538H16.262V29.3081ZM16.5398 29.3081H16.5861V29.2623H16.5398V29.3081ZM16.7713 29.8571V29.8113V29.8571ZM16.5398 29.2623L16.519 29.3032L16.5861 29.3363V29.2623H16.5398ZM16.4009 29.1251L16.3595 29.1456L16.4009 29.1251ZM16.3546 27.6805L16.3596 27.635L16.3082 27.6295L16.3083 27.6806L16.3546 27.6805ZM17.7524 27.8301L17.7927 27.8076L17.781 27.7872L17.7574 27.7846L17.7524 27.8301ZM20.5627 29.5821L20.6089 29.5828L20.6096 29.5372L20.5635 29.5364L20.5627 29.5821ZM20.3824 30.5434L20.3616 30.5025L20.3361 30.5151V30.5434H20.3824ZM20.3824 30.5891H20.3361V30.6349H20.3824V30.5891ZM20.8916 30.5891V30.6349H20.9379V30.5891H20.8916ZM20.8916 30.5434H20.9379V30.5151L20.9124 30.5025L20.8916 30.5434ZM20.7114 29.5809L20.7098 29.5353L20.6644 29.5367L20.6651 29.5817L20.7114 29.5809ZM23.508 27.8316L23.503 27.7861L23.4797 27.7886L23.4679 27.8086L23.508 27.8316ZM24.9194 27.6805L24.9657 27.6806L24.9658 27.6295L24.9144 27.635L24.9194 27.6805ZM24.7342 29.2623H24.6879V29.3363L24.755 29.3032L24.7342 29.2623ZM24.5027 29.8571V29.8113V29.8571ZM24.7342 29.3081V29.2623H24.6879V29.3081H24.7342ZM25.012 29.3081V29.3538H25.0583V29.3081H25.012ZM25.012 27.6706L25.007 27.6251L24.9657 27.6295V27.6706H25.012ZM25.0583 27.6657H25.1046V27.6147L25.0533 27.6202L25.0583 27.6657ZM25.0583 29.3081H25.012V29.3538H25.0583V29.3081ZM25.3361 29.3081V29.3538H25.3824V29.3081H25.3361ZM25.3361 29.2623H25.3824V29.234L25.3568 29.2214L25.3361 29.2623ZM25.1509 27.661H25.1972V27.6153H25.1509V27.661ZM25.1019 27.661L25.0969 27.6155L25.1019 27.7068V27.661ZM28.3154 27.3171L28.3429 27.3539L28.4807 27.2535L28.3104 27.2717L28.3154 27.3171ZM29.3813 27.2031L29.3763 27.1577L29.206 27.1759L29.3624 27.2449L29.3813 27.2031ZM37.9287 26.2885L37.9337 26.334L37.945 26.3327L37.9543 26.3265L37.9287 26.2885ZM37.9287 25.8767L37.9433 25.8333L37.9362 25.8309H37.9287V25.8767ZM24.0395 25.8767L23.9932 25.8762L23.9927 25.9225H24.0395V25.8767ZM23.7811 24.3488L23.7769 24.3032L23.7177 24.3085L23.7374 24.3639L23.7811 24.3488ZM27.1877 24.0466L27.1919 24.0922L27.2086 24.0907L27.2204 24.079L27.1877 24.0466ZM27.234 23.9551L27.2803 23.955V23.9549L27.234 23.9551ZM27.1877 23.9094L27.2067 23.8676L27.1977 23.8636H27.1877V23.9094ZM23.5988 23.9094L23.5569 23.9289L23.5694 23.9551H23.5988V23.9094ZM21.0228 21.7478L20.9765 21.7501L20.9785 21.7867L21.0151 21.7929L21.0228 21.7478ZM20.7527 17.3669L20.72 17.3992V17.3992L20.7527 17.3669ZM20.6602 17.3211V17.2754L20.6139 17.2754V17.3211H20.6602ZM20.6602 21.7138L20.6592 21.7595L20.7064 21.7604V21.7138H20.6602ZM15.6602 29.9028V29.8571V29.9028ZM19.5953 24.5042L19.5999 24.4586L19.5953 24.5042ZM18.9009 24.3669L18.9127 24.3227L18.8784 24.3136L18.8607 24.3442L18.9009 24.3669ZM20.3824 24.5499L20.4286 24.5475L20.4264 24.5056L20.3839 24.5042L20.3824 24.5499ZM20.4287 25.4192L20.4369 25.4642L20.477 25.457L20.4749 25.4168L20.4287 25.4192ZM19.4102 25.3734L19.3979 25.4176L19.4102 25.3734ZM18.5305 25.0074L18.4903 24.9847L18.4701 25.0197L18.5027 25.044L18.5305 25.0074ZM25.6139 29.9028V29.8571V29.9028ZM21.6787 24.5042L21.6741 24.4586L21.6787 24.5042ZM22.3731 24.3669L22.4133 24.3442L22.3956 24.3136L22.3613 24.3227L22.3731 24.3669ZM20.8916 24.5499L20.8901 24.5042L20.8477 24.5056L20.8454 24.5475L20.8916 24.5499ZM20.8453 25.4192L20.7991 25.4168L20.797 25.457L20.8371 25.4642L20.8453 25.4192ZM21.8639 25.3734L21.8761 25.4176L21.8639 25.3734ZM22.7435 25.0074L22.7714 25.044L22.8039 25.0197L22.7837 24.9847L22.7435 25.0074ZM20.5676 17.3211V21.7133H20.6602V17.3211H20.5676ZM20.554 17.3992C20.5714 17.382 20.5882 17.374 20.5996 17.3703C20.6053 17.3684 20.6098 17.3675 20.6125 17.3672C20.6138 17.367 20.6146 17.3669 20.6149 17.3669C20.615 17.3669 20.615 17.3669 20.6148 17.3669C20.6148 17.3669 20.6146 17.3669 20.6145 17.3669C20.6144 17.3669 20.6143 17.3669 20.6142 17.3669C20.6141 17.3669 20.614 17.3669 20.614 17.3669H20.6139C20.6139 17.3669 20.6139 17.3669 20.6139 17.3211C20.6139 17.2754 20.6139 17.2754 20.6138 17.2754C20.6138 17.2754 20.6137 17.2754 20.6137 17.2754C20.6136 17.2754 20.6135 17.2754 20.6135 17.2754C20.6133 17.2754 20.6131 17.2754 20.613 17.2754C20.6127 17.2754 20.6123 17.2754 20.6118 17.2754C20.611 17.2755 20.6099 17.2755 20.6087 17.2756C20.6063 17.2757 20.6031 17.276 20.5993 17.2766C20.5918 17.2776 20.5819 17.2796 20.5702 17.2835C20.5469 17.2912 20.5174 17.3061 20.4885 17.3345L20.554 17.3992ZM20.2978 21.7428C20.3185 21.347 20.3756 20.2638 20.4327 19.2746C20.4613 18.78 20.4899 18.309 20.5138 17.9592C20.5258 17.7842 20.5366 17.6398 20.5457 17.538C20.5502 17.4871 20.5543 17.4472 20.5578 17.4198C20.5596 17.4059 20.5612 17.396 20.5625 17.3895C20.5627 17.388 20.563 17.3868 20.5632 17.3859C20.5634 17.385 20.5636 17.3846 20.5635 17.3846C20.5635 17.3847 20.5635 17.3849 20.5633 17.3853C20.5632 17.3857 20.5629 17.3864 20.5625 17.3873C20.5621 17.3882 20.5597 17.3937 20.554 17.3992L20.4885 17.3345C20.4822 17.3408 20.4791 17.3473 20.4781 17.3497C20.4766 17.3529 20.4756 17.3558 20.475 17.3581C20.4736 17.3625 20.4725 17.3674 20.4715 17.372C20.4697 17.3814 20.4678 17.3937 20.466 17.4083C20.4622 17.4375 20.458 17.4787 20.4535 17.53C20.4443 17.6327 20.4334 17.7779 20.4214 17.953C20.3974 18.3033 20.3689 18.7747 20.3403 19.2694C20.2832 20.2589 20.2261 21.3422 20.2053 21.7381L20.2978 21.7428ZM17.7065 23.9285C18.2383 22.7878 19.205 21.9434 20.2585 21.7857L20.2447 21.6952C19.1518 21.8588 18.1631 22.7302 17.6224 23.8902L17.7065 23.9285ZM14.0863 23.9551H17.6644V23.8636H14.0863V23.9551ZM14.0863 23.9553C14.0863 23.963 14.0828 23.9666 14.0837 23.9656C14.0843 23.9647 14.0865 23.9626 14.0903 23.9598C14.094 23.9572 14.0979 23.9549 14.1011 23.9532C14.1026 23.9524 14.1039 23.9518 14.1046 23.9514C14.105 23.9512 14.1052 23.9511 14.1053 23.9511C14.1054 23.951 14.1054 23.951 14.1054 23.951C14.1053 23.9511 14.1053 23.9511 14.1053 23.9511C14.1053 23.9511 14.1053 23.9511 14.1052 23.9511V23.9511V23.9511C14.1052 23.9511 14.1052 23.9511 14.0863 23.9094C14.0673 23.8676 14.0673 23.8676 14.0673 23.8676V23.8677C14.0673 23.8677 14.0673 23.8677 14.0672 23.8677C14.0672 23.8677 14.0672 23.8677 14.0671 23.8677C14.067 23.8678 14.067 23.8678 14.0668 23.8678C14.0666 23.8679 14.0665 23.868 14.0662 23.8682C14.0656 23.8684 14.0649 23.8688 14.064 23.8692C14.0622 23.87 14.0598 23.8712 14.057 23.8727C14.0515 23.8757 14.0439 23.8801 14.036 23.8857C14.0283 23.8912 14.0189 23.899 14.0108 23.9091C14.003 23.919 13.9938 23.9347 13.9937 23.9549L14.0863 23.9553ZM14.0863 24.0466C14.119 24.0142 14.119 24.0142 14.119 24.0142C14.119 24.0142 14.119 24.0142 14.119 24.0143C14.119 24.0143 14.119 24.0143 14.119 24.0143C14.119 24.0143 14.119 24.0143 14.119 24.0143C14.119 24.0143 14.119 24.0143 14.119 24.0144C14.119 24.0144 14.119 24.0143 14.119 24.0142C14.1188 24.0141 14.1185 24.0138 14.118 24.0133C14.1172 24.0124 14.1158 24.0109 14.1141 24.0089C14.1106 24.005 14.1061 23.9993 14.1015 23.9926C14.0915 23.9778 14.0863 23.9643 14.0863 23.9553L13.9937 23.9549C13.9935 23.9917 14.0115 24.024 14.0245 24.0435C14.0316 24.0539 14.0387 24.0626 14.0439 24.0686C14.0465 24.0716 14.0488 24.0741 14.0504 24.0759C14.0514 24.0767 14.052 24.0775 14.0526 24.078C14.0528 24.0783 14.053 24.0785 14.0532 24.0787C14.0533 24.0787 14.0534 24.0788 14.0534 24.0789C14.0535 24.0789 14.0535 24.079 14.0535 24.079C14.0535 24.079 14.0536 24.079 14.0536 24.079C14.0536 24.079 14.0536 24.079 14.0536 24.079C14.0536 24.079 14.0536 24.079 14.0863 24.0466ZM17.4907 24.3026L14.0904 24.0011L14.0821 24.0922L17.4825 24.3938L17.4907 24.3026ZM17.2805 25.8309C17.2805 25.3216 17.3702 24.8247 17.5303 24.363L17.4427 24.3334C17.2795 24.8041 17.1879 25.311 17.1879 25.8309H17.2805ZM17.2808 25.8762C17.2806 25.8612 17.2805 25.8461 17.2805 25.8309H17.1879C17.1879 25.8464 17.188 25.8618 17.1882 25.8772L17.2808 25.8762ZM3.34534 25.9225H17.2345V25.8309H3.34534V25.9225ZM3.25275 26.0597C3.25275 26.0085 3.27795 25.9746 3.30553 25.9519C3.3195 25.9404 3.33365 25.9322 3.34434 25.9269C3.34964 25.9243 3.35394 25.9225 3.35674 25.9213C3.35814 25.9208 3.35916 25.9204 3.35972 25.9202C3.36 25.9201 3.36017 25.92 3.36022 25.92C3.36024 25.92 3.36023 25.92 3.36019 25.92C3.36017 25.92 3.36015 25.92 3.36011 25.9201C3.36009 25.9201 3.36007 25.9201 3.36005 25.9201C3.36004 25.9201 3.36002 25.9201 3.36002 25.9201C3.36 25.9201 3.35998 25.9201 3.34534 25.8767C3.3307 25.8333 3.33068 25.8333 3.33066 25.8333C3.33065 25.8333 3.33063 25.8333 3.33062 25.8333C3.33059 25.8333 3.33056 25.8333 3.33052 25.8334C3.33045 25.8334 3.33037 25.8334 3.33029 25.8334C3.33012 25.8335 3.32991 25.8336 3.32967 25.8336C3.32919 25.8338 3.32858 25.834 3.32784 25.8343C3.32637 25.8348 3.3244 25.8356 3.322 25.8365C3.31721 25.8384 3.31066 25.8413 3.30294 25.8451C3.28759 25.8527 3.26702 25.8645 3.24626 25.8816C3.2044 25.9161 3.16016 25.9736 3.16016 26.0597H3.25275ZM3.34534 26.2885C3.37102 26.2504 3.37103 26.2504 3.37105 26.2504C3.37105 26.2504 3.37106 26.2504 3.37107 26.2504C3.37108 26.2504 3.37109 26.2504 3.3711 26.2504C3.37112 26.2505 3.37113 26.2505 3.37113 26.2505C3.37114 26.2505 3.37111 26.2505 3.37105 26.2504C3.37093 26.2503 3.37069 26.2502 3.37033 26.2499C3.36961 26.2494 3.36844 26.2486 3.36687 26.2475C3.36372 26.2452 3.35902 26.2416 3.35328 26.2369C3.34174 26.2274 3.32635 26.2134 3.31105 26.1958C3.27982 26.1598 3.25275 26.1129 3.25275 26.0597H3.16016C3.16016 26.1438 3.20253 26.2113 3.24075 26.2553C3.26017 26.2777 3.2795 26.2952 3.294 26.3072C3.30128 26.3132 3.30743 26.3178 3.31188 26.3211C3.31411 26.3227 3.31591 26.324 3.31723 26.3249C3.31789 26.3253 3.31843 26.3257 3.31884 26.326C3.31904 26.3261 3.31921 26.3262 3.31935 26.3263C3.31942 26.3264 3.31948 26.3264 3.31953 26.3264C3.31956 26.3265 3.31958 26.3265 3.3196 26.3265C3.31961 26.3265 3.31963 26.3265 3.31963 26.3265C3.31965 26.3265 3.31966 26.3265 3.34534 26.2885ZM11.8978 27.1577L3.35033 26.243L3.34036 26.334L11.8878 27.2486L11.8978 27.1577ZM11.3083 28.1643C11.3083 27.7546 11.556 27.402 11.9117 27.2449L11.8739 27.1613C11.4861 27.3326 11.2157 27.7172 11.2157 28.1643H11.3083ZM12.3268 29.1708C11.7643 29.1708 11.3083 28.7202 11.3083 28.1643H11.2157C11.2157 28.7707 11.7132 29.2623 12.3268 29.2623V29.1708ZM13.3453 28.1643C13.3453 28.7202 12.8893 29.1708 12.3268 29.1708V29.2623C12.9404 29.2623 13.4379 28.7707 13.4379 28.1643H13.3453ZM12.9311 27.3539C13.1825 27.5373 13.3453 27.832 13.3453 28.1643H13.4379C13.4379 27.8017 13.2601 27.4802 12.9861 27.2804L12.9311 27.3539ZM16.1771 27.6155L12.9636 27.2717L12.9536 27.3626L16.1672 27.7065L16.1771 27.6155ZM16.1231 27.7068H16.1721V27.6153H16.1231V27.7068ZM16.1182 29.1456C16.1246 29.1329 16.1281 29.1158 16.1306 29.1011C16.1334 29.0844 16.1359 29.0639 16.1382 29.0402C16.1427 28.9928 16.1465 28.9308 16.1499 28.8598C16.1564 28.7176 16.1607 28.5369 16.1636 28.3595C16.1665 28.1819 16.1679 28.0074 16.1687 27.8771C16.169 27.8121 16.1692 27.758 16.1693 27.7203C16.1694 27.7014 16.1694 27.6866 16.1694 27.6765C16.1694 27.6714 16.1694 27.6676 16.1694 27.6649C16.1694 27.6637 16.1694 27.6627 16.1694 27.662C16.1694 27.6617 16.1694 27.6615 16.1694 27.6613C16.1694 27.6612 16.1694 27.6611 16.1694 27.6611C16.1694 27.661 16.1694 27.661 16.1694 27.661C16.1694 27.661 16.1694 27.661 16.1231 27.661C16.0768 27.661 16.0768 27.661 16.0768 27.661C16.0768 27.661 16.0768 27.661 16.0768 27.6611C16.0768 27.6611 16.0768 27.6612 16.0768 27.6613C16.0768 27.6614 16.0768 27.6617 16.0768 27.662C16.0768 27.6627 16.0768 27.6637 16.0768 27.6649C16.0768 27.6675 16.0768 27.6714 16.0768 27.6764C16.0768 27.6865 16.0768 27.7012 16.0767 27.72C16.0766 27.7577 16.0765 27.8116 16.0761 27.8767C16.0753 28.0066 16.074 28.1809 16.0711 28.358C16.0681 28.5351 16.0639 28.7148 16.0574 28.8556C16.0541 28.9261 16.0503 28.9863 16.046 29.0316C16.0439 29.0542 16.0416 29.0725 16.0393 29.086C16.0367 29.1015 16.0348 29.1058 16.0354 29.1046L16.1182 29.1456ZM15.9379 29.2623C15.9587 29.3032 15.9587 29.3032 15.9587 29.3032H15.9588C15.9588 29.3031 15.9589 29.3031 15.9589 29.3031C15.959 29.303 15.9591 29.303 15.9593 29.303C15.9596 29.3028 15.96 29.3026 15.9605 29.3023C15.9615 29.3018 15.9627 29.3011 15.9643 29.3002C15.9676 29.2985 15.972 29.296 15.9774 29.2927C15.9881 29.2862 16.0027 29.2765 16.019 29.2637C16.051 29.2383 16.0911 29.1992 16.1182 29.1456L16.0354 29.1046C16.0163 29.1425 15.9869 29.1719 15.9611 29.1923C15.9484 29.2024 15.9369 29.2099 15.9289 29.2147C15.9249 29.2172 15.9216 29.219 15.9196 29.2201C15.9186 29.2207 15.9179 29.2211 15.9175 29.2212C15.9173 29.2214 15.9171 29.2214 15.9171 29.2214C15.9171 29.2215 15.9171 29.2215 15.9171 29.2214C15.9171 29.2214 15.9171 29.2214 15.9172 29.2214C15.9172 29.2214 15.9172 29.2214 15.9379 29.2623ZM15.9842 29.3081V29.2623H15.8916V29.3081H15.9842ZM16.2157 29.2623H15.9379V29.3538H16.2157V29.2623ZM16.1694 27.6657V29.3081H16.262V27.6657H16.1694ZM16.267 27.6251L16.2207 27.6202L16.2107 27.7112L16.257 27.7161L16.267 27.6251ZM16.3083 29.3081V27.6706H16.2157V29.3081H16.3083ZM16.5398 29.2623H16.262V29.3538H16.5398V29.2623ZM16.5861 29.6283V29.3081H16.4935V29.6283H16.5861ZM16.7713 29.8113C16.7214 29.8113 16.6873 29.7992 16.6631 29.7833C16.6387 29.7672 16.6218 29.7455 16.6102 29.7222C16.5983 29.6989 16.5922 29.675 16.589 29.6565C16.5876 29.6475 16.5868 29.64 16.5864 29.6349C16.5863 29.6324 16.5862 29.6305 16.5861 29.6293C16.5861 29.6288 16.5861 29.6284 16.5861 29.6282C16.5861 29.6282 16.5861 29.6282 16.5861 29.6282C16.5861 29.6282 16.5861 29.6282 16.5861 29.6282C16.5861 29.6282 16.5861 29.6282 16.5861 29.6283C16.5861 29.6283 16.5861 29.6283 16.5398 29.6283C16.4935 29.6283 16.4935 29.6283 16.4935 29.6284V29.6285C16.4935 29.6286 16.4935 29.6287 16.4935 29.6289C16.4935 29.6291 16.4935 29.6293 16.4935 29.6297C16.4935 29.6304 16.4935 29.6314 16.4936 29.6325C16.4937 29.6346 16.4938 29.6377 16.494 29.6414C16.4946 29.6489 16.4956 29.6593 16.4977 29.6716C16.5018 29.696 16.5102 29.7294 16.5273 29.7632C16.5445 29.7972 16.5711 29.8326 16.6117 29.8594C16.6527 29.8864 16.7053 29.9028 16.7713 29.9028V29.8113ZM17.0027 29.6283C16.9564 29.6283 16.9564 29.6283 16.9564 29.6283C16.9564 29.6282 16.9564 29.6282 16.9564 29.6282C16.9564 29.6282 16.9564 29.6282 16.9564 29.6282C16.9564 29.6282 16.9564 29.6282 16.9564 29.6282C16.9564 29.6284 16.9564 29.6288 16.9564 29.6293C16.9564 29.6305 16.9563 29.6324 16.9561 29.6349C16.9557 29.64 16.955 29.6475 16.9535 29.6565C16.9503 29.675 16.9442 29.6989 16.9324 29.7222C16.9207 29.7455 16.9039 29.7672 16.8794 29.7833C16.8552 29.7992 16.8211 29.8113 16.7713 29.8113V29.9028C16.8372 29.9028 16.8898 29.8864 16.9308 29.8594C16.9715 29.8326 16.998 29.7972 17.0152 29.7632C17.0324 29.7294 17.0407 29.696 17.0448 29.6716C17.0469 29.6593 17.0479 29.6489 17.0485 29.6414C17.0488 29.6377 17.0489 29.6346 17.0489 29.6325C17.049 29.6314 17.049 29.6304 17.049 29.6297C17.049 29.6293 17.049 29.6291 17.049 29.6289C17.049 29.6287 17.049 29.6286 17.049 29.6285V29.6284C17.049 29.6283 17.049 29.6283 17.0027 29.6283ZM16.9564 28.8506V29.6283H17.049V28.8506H16.9564ZM16.7713 28.7133C16.8722 28.7133 16.9147 28.7518 16.9346 28.7833C16.9454 28.8004 16.951 28.8179 16.9538 28.8313C16.9552 28.8379 16.9559 28.8432 16.9562 28.8468C16.9564 28.8485 16.9564 28.8497 16.9564 28.8504C16.9564 28.8507 16.9564 28.8509 16.9564 28.8509C16.9564 28.851 16.9564 28.8509 16.9564 28.8509C16.9564 28.8508 16.9564 28.8508 16.9564 28.8507V28.8506C16.9564 28.8506 16.9564 28.8506 17.0027 28.8506C17.049 28.8506 17.049 28.8506 17.049 28.8505C17.049 28.8504 17.049 28.8504 17.049 28.8503C17.049 28.8502 17.049 28.8501 17.049 28.85C17.049 28.8497 17.049 28.8495 17.049 28.8491C17.049 28.8485 17.0489 28.8476 17.0489 28.8466C17.0489 28.8446 17.0487 28.8419 17.0484 28.8387C17.0478 28.8321 17.0466 28.8232 17.0444 28.8127C17.0401 28.7917 17.0312 28.7634 17.013 28.7348C16.9751 28.6748 16.9018 28.6218 16.7713 28.6218V28.7133ZM16.5398 28.8506C16.5861 28.8506 16.5861 28.8506 16.5861 28.8506V28.8507C16.5861 28.8508 16.5861 28.8508 16.5861 28.8509C16.5861 28.8509 16.5861 28.851 16.5861 28.8509C16.5861 28.8509 16.5861 28.8507 16.5861 28.8504C16.5861 28.8497 16.5862 28.8485 16.5864 28.8468C16.5866 28.8432 16.5874 28.8379 16.5888 28.8313C16.5915 28.8179 16.5971 28.8004 16.6079 28.7833C16.6278 28.7518 16.6703 28.7133 16.7713 28.7133V28.6218C16.6407 28.6218 16.5675 28.6748 16.5295 28.7348C16.5114 28.7634 16.5025 28.7917 16.4981 28.8127C16.4959 28.8232 16.4947 28.8321 16.4941 28.8387C16.4939 28.8419 16.4937 28.8446 16.4936 28.8466C16.4936 28.8476 16.4935 28.8485 16.4935 28.8491C16.4935 28.8495 16.4935 28.8497 16.4935 28.85C16.4935 28.8501 16.4935 28.8502 16.4935 28.8503C16.4935 28.8504 16.4935 28.8504 16.4935 28.8505C16.4935 28.8506 16.4935 28.8506 16.5398 28.8506ZM16.5861 29.2623V28.8506H16.4935V29.2623H16.5861ZM16.3595 29.1456C16.3866 29.1992 16.4267 29.2383 16.4588 29.2637C16.475 29.2765 16.4896 29.2862 16.5003 29.2927C16.5057 29.296 16.5102 29.2985 16.5134 29.3002C16.515 29.3011 16.5163 29.3018 16.5172 29.3023C16.5177 29.3026 16.5181 29.3028 16.5184 29.303C16.5186 29.303 16.5187 29.303 16.5189 29.3031C16.5189 29.3031 16.5189 29.3031 16.5189 29.3032H16.519C16.519 29.3032 16.519 29.3032 16.5398 29.2623C16.5605 29.2214 16.5605 29.2214 16.5605 29.2214C16.5606 29.2214 16.5606 29.2214 16.5606 29.2214C16.5606 29.2215 16.5606 29.2215 16.5606 29.2214C16.5606 29.2214 16.5604 29.2214 16.5602 29.2212C16.5598 29.2211 16.5591 29.2207 16.5581 29.2201C16.5561 29.219 16.5528 29.2172 16.5489 29.2147C16.5408 29.2099 16.5293 29.2024 16.5166 29.1923C16.4908 29.1719 16.4615 29.1425 16.4423 29.1046L16.3595 29.1456ZM16.3083 27.6806C16.3084 27.7645 16.3092 28.1046 16.3154 28.4346C16.3185 28.5996 16.3229 28.7623 16.3293 28.8894C16.3325 28.9528 16.3362 29.0079 16.3405 29.05C16.3427 29.0711 16.3451 29.0896 16.3477 29.1046C16.3501 29.1179 16.3535 29.1336 16.3595 29.1456L16.4423 29.1046C16.4429 29.1059 16.4413 29.1023 16.4389 29.0887C16.4367 29.0768 16.4347 29.0608 16.4327 29.0409C16.4286 29.0009 16.425 28.9476 16.4218 28.8848C16.4154 28.7591 16.4111 28.5976 16.408 28.4329C16.4018 28.1038 16.401 27.7642 16.4009 27.6805L16.3083 27.6806ZM17.7574 27.7846L16.3596 27.635L16.3496 27.726L17.7474 27.8756L17.7574 27.7846ZM20.5635 29.5364C19.4462 29.5171 18.3925 28.8556 17.7927 27.8076L17.7121 27.8526C18.3261 28.9255 19.408 29.6079 20.5618 29.6279L20.5635 29.5364ZM20.5627 30.4266C20.5693 30.4134 20.5729 30.3952 20.5755 30.3793C20.5785 30.3615 20.581 30.339 20.5834 30.3133C20.588 30.2618 20.592 30.1943 20.5953 30.1173C20.602 29.9631 20.6063 29.7687 20.6089 29.5828L20.5164 29.5815C20.5137 29.7671 20.5094 29.9605 20.5028 30.1134C20.4995 30.1899 20.4956 30.2558 20.4912 30.3052C20.4889 30.3299 20.4865 30.3499 20.4841 30.3648C20.4814 30.3818 20.4793 30.3867 20.4799 30.3856L20.5627 30.4266ZM20.3824 30.5434C20.4031 30.5843 20.4031 30.5843 20.4031 30.5843H20.4032C20.4032 30.5842 20.4033 30.5842 20.4033 30.5842C20.4035 30.5841 20.4036 30.584 20.4038 30.584C20.404 30.5838 20.4044 30.5836 20.405 30.5834C20.4059 30.5828 20.4072 30.5822 20.4088 30.5813C20.412 30.5795 20.4164 30.577 20.4218 30.5737C20.4326 30.5673 20.4472 30.5576 20.4634 30.5447C20.4954 30.5194 20.5355 30.4802 20.5627 30.4266L20.4799 30.3856C20.4607 30.4235 20.4314 30.453 20.4055 30.4734C20.3928 30.4834 20.3814 30.4909 20.3733 30.4958C20.3693 30.4983 20.3661 30.5001 20.364 30.5012C20.363 30.5017 20.3624 30.5021 20.3619 30.5023C20.3617 30.5025 20.3615 30.5025 20.3615 30.5025C20.3615 30.5026 20.3615 30.5026 20.3615 30.5025C20.3615 30.5025 20.3615 30.5025 20.3616 30.5025C20.3616 30.5025 20.3616 30.5025 20.3824 30.5434ZM20.4287 30.5891V30.5434H20.3361V30.5891H20.4287ZM20.6139 30.5434H20.3824V30.6349H20.6139V30.5434ZM20.6602 30.5434H20.6139V30.6349H20.6602V30.5434ZM20.8916 30.5434H20.6602V30.6349H20.8916V30.5434ZM20.8453 30.5434V30.5891H20.9379V30.5434H20.8453ZM20.7114 30.4266C20.7385 30.4802 20.7786 30.5194 20.8106 30.5447C20.8268 30.5576 20.8414 30.5673 20.8522 30.5737C20.8576 30.577 20.862 30.5795 20.8652 30.5813C20.8668 30.5822 20.8681 30.5828 20.869 30.5834C20.8696 30.5836 20.87 30.5838 20.8702 30.584C20.8704 30.584 20.8705 30.5841 20.8707 30.5842C20.8707 30.5842 20.8708 30.5842 20.8708 30.5843H20.8709C20.8709 30.5843 20.8709 30.5843 20.8916 30.5434C20.9124 30.5025 20.9124 30.5025 20.9124 30.5025C20.9125 30.5025 20.9125 30.5025 20.9125 30.5025C20.9125 30.5026 20.9125 30.5026 20.9125 30.5025C20.9125 30.5025 20.9123 30.5025 20.9121 30.5023C20.9116 30.5021 20.911 30.5017 20.91 30.5012C20.9079 30.5001 20.9047 30.4983 20.9007 30.4958C20.8927 30.4909 20.8812 30.4834 20.8685 30.4734C20.8427 30.453 20.8133 30.4235 20.7941 30.3856L20.7114 30.4266ZM20.6651 29.5817C20.6677 29.7677 20.672 29.9624 20.6787 30.1168C20.682 30.1939 20.6859 30.2615 20.6906 30.3132C20.6929 30.339 20.6955 30.3614 20.6985 30.3793C20.7011 30.3951 20.7047 30.4134 20.7114 30.4266L20.7941 30.3856C20.7947 30.3867 20.7927 30.3818 20.7899 30.3648C20.7875 30.3498 20.7851 30.3298 20.7828 30.305C20.7783 30.2555 20.7745 30.1895 20.7712 30.1129C20.7646 29.9598 20.7603 29.7661 20.7577 29.5803L20.6651 29.5817ZM23.4679 27.8086C22.8629 28.8417 21.8109 29.499 20.7098 29.5353L20.7128 29.6267C21.8493 29.5894 22.9289 28.9119 23.5481 27.8545L23.4679 27.8086ZM24.9144 27.635L23.503 27.7861L23.513 27.8771L24.9244 27.726L24.9144 27.635ZM24.9145 29.1456C24.9205 29.1336 24.9239 29.1179 24.9264 29.1046C24.9289 29.0896 24.9314 29.0711 24.9335 29.05C24.9378 29.0079 24.9415 28.9528 24.9447 28.8894C24.9511 28.7623 24.9555 28.5996 24.9586 28.4346C24.9648 28.1046 24.9656 27.7645 24.9657 27.6806L24.8731 27.6805C24.873 27.7642 24.8722 28.1038 24.866 28.4329C24.8629 28.5976 24.8586 28.7591 24.8522 28.8848C24.849 28.9476 24.8454 29.0009 24.8414 29.0409C24.8393 29.0608 24.8373 29.0768 24.8352 29.0887C24.8327 29.1023 24.8311 29.1059 24.8317 29.1046L24.9145 29.1456ZM24.7342 29.2623C24.755 29.3032 24.755 29.3032 24.755 29.3032H24.7551C24.7551 29.3031 24.7552 29.3031 24.7552 29.3031C24.7553 29.303 24.7554 29.303 24.7556 29.303C24.7559 29.3028 24.7563 29.3026 24.7568 29.3023C24.7577 29.3018 24.759 29.3011 24.7606 29.3002C24.7639 29.2985 24.7683 29.296 24.7737 29.2927C24.7844 29.2862 24.799 29.2765 24.8152 29.2637C24.8473 29.2383 24.8874 29.1992 24.9145 29.1456L24.8317 29.1046C24.8126 29.1425 24.7832 29.1719 24.7574 29.1923C24.7447 29.2024 24.7332 29.2099 24.7252 29.2147C24.7212 29.2172 24.7179 29.219 24.7159 29.2201C24.7149 29.2207 24.7142 29.2211 24.7138 29.2212C24.7136 29.2214 24.7134 29.2214 24.7134 29.2214C24.7134 29.2215 24.7134 29.2215 24.7134 29.2214C24.7134 29.2214 24.7134 29.2214 24.7135 29.2214C24.7135 29.2214 24.7135 29.2214 24.7342 29.2623ZM24.6879 28.8506V29.2623H24.7805V28.8506H24.6879ZM24.5027 28.7133C24.6037 28.7133 24.6462 28.7518 24.6661 28.7833C24.6769 28.8004 24.6825 28.8179 24.6852 28.8313C24.6866 28.8379 24.6874 28.8432 24.6877 28.8468C24.6878 28.8485 24.6879 28.8497 24.6879 28.8504C24.6879 28.8507 24.6879 28.8509 24.6879 28.8509C24.6879 28.851 24.6879 28.8509 24.6879 28.8509C24.6879 28.8508 24.6879 28.8508 24.6879 28.8507V28.8506C24.6879 28.8506 24.6879 28.8506 24.7342 28.8506C24.7805 28.8506 24.7805 28.8506 24.7805 28.8505C24.7805 28.8504 24.7805 28.8504 24.7805 28.8503C24.7805 28.8502 24.7805 28.8501 24.7805 28.85C24.7805 28.8497 24.7805 28.8495 24.7805 28.8491C24.7805 28.8485 24.7804 28.8476 24.7804 28.8466C24.7803 28.8446 24.7802 28.8419 24.7799 28.8387C24.7793 28.8321 24.7781 28.8232 24.7759 28.8127C24.7715 28.7917 24.7627 28.7634 24.7445 28.7348C24.7065 28.6748 24.6333 28.6218 24.5027 28.6218V28.7133ZM24.2713 28.8506C24.3176 28.8506 24.3176 28.8506 24.3176 28.8506V28.8507C24.3176 28.8508 24.3176 28.8508 24.3176 28.8509C24.3176 28.8509 24.3176 28.851 24.3176 28.8509C24.3176 28.8509 24.3176 28.8507 24.3176 28.8504C24.3176 28.8497 24.3177 28.8485 24.3178 28.8468C24.3181 28.8432 24.3189 28.8379 24.3202 28.8313C24.323 28.8179 24.3286 28.8004 24.3394 28.7833C24.3593 28.7518 24.4018 28.7133 24.5027 28.7133V28.6218C24.3722 28.6218 24.2989 28.6748 24.261 28.7348C24.2428 28.7634 24.2339 28.7917 24.2296 28.8127C24.2274 28.8232 24.2262 28.8321 24.2256 28.8387C24.2253 28.8419 24.2252 28.8446 24.2251 28.8466C24.2251 28.8476 24.225 28.8485 24.225 28.8491C24.225 28.8495 24.225 28.8497 24.225 28.85C24.225 28.8501 24.225 28.8502 24.225 28.8503C24.225 28.8504 24.225 28.8504 24.225 28.8505C24.225 28.8506 24.225 28.8506 24.2713 28.8506ZM24.3176 29.6283V28.8506H24.225V29.6283H24.3176ZM24.5027 29.8113C24.4529 29.8113 24.4188 29.7992 24.3946 29.7833C24.3702 29.7672 24.3533 29.7455 24.3416 29.7222C24.3298 29.6989 24.3237 29.675 24.3205 29.6565C24.319 29.6475 24.3183 29.64 24.3179 29.6349C24.3177 29.6324 24.3177 29.6305 24.3176 29.6293C24.3176 29.6288 24.3176 29.6284 24.3176 29.6282C24.3176 29.6282 24.3176 29.6282 24.3176 29.6282C24.3176 29.6282 24.3176 29.6282 24.3176 29.6282C24.3176 29.6282 24.3176 29.6282 24.3176 29.6283C24.3176 29.6283 24.3176 29.6283 24.2713 29.6283C24.225 29.6283 24.225 29.6283 24.225 29.6284V29.6285C24.225 29.6286 24.225 29.6287 24.225 29.6289C24.225 29.6291 24.225 29.6293 24.225 29.6297C24.225 29.6304 24.225 29.6314 24.2251 29.6325C24.2252 29.6346 24.2252 29.6377 24.2255 29.6414C24.2261 29.6489 24.2271 29.6593 24.2292 29.6716C24.2333 29.696 24.2416 29.7294 24.2588 29.7632C24.276 29.7972 24.3026 29.8326 24.3432 29.8594C24.3842 29.8864 24.4368 29.9028 24.5027 29.9028V29.8113ZM24.7342 29.6283C24.6879 29.6283 24.6879 29.6283 24.6879 29.6283C24.6879 29.6282 24.6879 29.6282 24.6879 29.6282C24.6879 29.6282 24.6879 29.6282 24.6879 29.6282C24.6879 29.6282 24.6879 29.6282 24.6879 29.6282C24.6879 29.6284 24.6879 29.6288 24.6879 29.6293C24.6878 29.6305 24.6877 29.6324 24.6876 29.6349C24.6872 29.64 24.6864 29.6475 24.685 29.6565C24.6818 29.675 24.6757 29.6989 24.6639 29.7222C24.6522 29.7455 24.6353 29.7672 24.6109 29.7833C24.5867 29.7992 24.5526 29.8113 24.5027 29.8113V29.9028C24.5687 29.9028 24.6213 29.8864 24.6623 29.8594C24.7029 29.8326 24.7295 29.7972 24.7467 29.7632C24.7639 29.7294 24.7722 29.696 24.7763 29.6716C24.7784 29.6593 24.7794 29.6489 24.78 29.6414C24.7802 29.6377 24.7803 29.6346 24.7804 29.6325C24.7805 29.6314 24.7805 29.6304 24.7805 29.6297C24.7805 29.6293 24.7805 29.6291 24.7805 29.6289C24.7805 29.6287 24.7805 29.6286 24.7805 29.6285V29.6284C24.7805 29.6283 24.7805 29.6283 24.7342 29.6283ZM24.6879 29.3081V29.6283H24.7805V29.3081H24.6879ZM25.012 29.2623H24.7342V29.3538H25.012V29.2623ZM24.9657 27.6706V29.3081H25.0583V27.6706H24.9657ZM25.0533 27.6202L25.007 27.6251L25.017 27.7161L25.0633 27.7112L25.0533 27.6202ZM25.1046 29.3081V27.6657H25.012V29.3081H25.1046ZM25.3361 29.2623H25.0583V29.3538H25.3361V29.2623ZM25.2898 29.2623V29.3081H25.3824V29.2623H25.2898ZM25.1558 29.1456C25.1829 29.1992 25.223 29.2383 25.2551 29.2637C25.2713 29.2765 25.2859 29.2862 25.2966 29.2927C25.302 29.296 25.3064 29.2985 25.3097 29.3002C25.3113 29.3011 25.3126 29.3018 25.3135 29.3023C25.314 29.3026 25.3144 29.3028 25.3147 29.303C25.3149 29.303 25.315 29.303 25.3152 29.3031C25.3152 29.3031 25.3152 29.3031 25.3152 29.3032H25.3153C25.3153 29.3032 25.3153 29.3032 25.3361 29.2623C25.3568 29.2214 25.3568 29.2214 25.3568 29.2214C25.3569 29.2214 25.3569 29.2214 25.3569 29.2214C25.3569 29.2215 25.3569 29.2215 25.3569 29.2214C25.3569 29.2214 25.3567 29.2214 25.3565 29.2212C25.3561 29.2211 25.3554 29.2207 25.3544 29.2201C25.3524 29.219 25.3491 29.2172 25.3452 29.2147C25.3371 29.2099 25.3256 29.2024 25.3129 29.1923C25.2871 29.1719 25.2577 29.1425 25.2386 29.1046L25.1558 29.1456ZM25.1509 27.661C25.1046 27.661 25.1046 27.661 25.1046 27.661C25.1046 27.661 25.1046 27.661 25.1046 27.6611C25.1046 27.6611 25.1046 27.6612 25.1046 27.6613C25.1046 27.6615 25.1046 27.6617 25.1046 27.662C25.1046 27.6627 25.1046 27.6637 25.1046 27.6649C25.1046 27.6676 25.1046 27.6714 25.1046 27.6765C25.1046 27.6866 25.1046 27.7014 25.1047 27.7203C25.1048 27.758 25.105 27.8121 25.1053 27.8771C25.1061 28.0074 25.1075 28.1819 25.1104 28.3595C25.1133 28.5369 25.1177 28.7176 25.1241 28.8598C25.1275 28.9308 25.1313 28.9928 25.1358 29.0402C25.1381 29.0639 25.1406 29.0844 25.1434 29.1011C25.1459 29.1158 25.1494 29.1329 25.1558 29.1456L25.2386 29.1046C25.2392 29.1058 25.2373 29.1015 25.2347 29.086C25.2324 29.0725 25.2302 29.0542 25.228 29.0316C25.2237 28.9863 25.2199 28.9261 25.2166 28.8556C25.2102 28.7148 25.2059 28.5351 25.2029 28.358C25.2001 28.1809 25.1987 28.0066 25.1979 27.8767C25.1976 27.8116 25.1974 27.7577 25.1973 27.72C25.1972 27.7012 25.1972 27.6865 25.1972 27.6764C25.1972 27.6714 25.1972 27.6675 25.1972 27.6649C25.1972 27.6637 25.1972 27.6627 25.1972 27.662C25.1972 27.6617 25.1972 27.6614 25.1972 27.6613C25.1972 27.6612 25.1972 27.6611 25.1972 27.6611C25.1972 27.661 25.1972 27.661 25.1972 27.661C25.1972 27.661 25.1972 27.661 25.1509 27.661ZM25.1019 27.7068H25.1509V27.6153H25.1019V27.7068ZM28.3104 27.2717L25.0969 27.6155L25.1068 27.7065L28.3204 27.3626L28.3104 27.2717ZM27.9287 28.1643C27.9287 27.832 28.0915 27.5373 28.3429 27.3539L28.2879 27.2804C28.0139 27.4802 27.8361 27.8017 27.8361 28.1643H27.9287ZM28.9472 29.1708C28.3847 29.1708 27.9287 28.7202 27.9287 28.1643H27.8361C27.8361 28.7707 28.3336 29.2623 28.9472 29.2623V29.1708ZM29.9657 28.1643C29.9657 28.7202 29.5097 29.1708 28.9472 29.1708V29.2623C29.5608 29.2623 30.0583 28.7707 30.0583 28.1643H29.9657ZM29.3624 27.2449C29.718 27.402 29.9657 27.7546 29.9657 28.1643H30.0583C30.0583 27.7172 29.7879 27.3326 29.4002 27.1613L29.3624 27.2449ZM37.9237 26.243L29.3763 27.1577L29.3862 27.2486L37.9337 26.334L37.9237 26.243ZM38.0213 26.0597C38.0213 26.1129 37.9942 26.1598 37.9629 26.1958C37.9476 26.2134 37.9323 26.2274 37.9207 26.2369C37.915 26.2416 37.9103 26.2452 37.9072 26.2475C37.9056 26.2486 37.9044 26.2494 37.9037 26.2499C37.9033 26.2502 37.9031 26.2503 37.9029 26.2504C37.9029 26.2505 37.9028 26.2505 37.9028 26.2505C37.9028 26.2505 37.9029 26.2505 37.9029 26.2505C37.9029 26.2504 37.9029 26.2504 37.9029 26.2504V26.2504C37.903 26.2504 37.903 26.2504 37.9287 26.2885C37.9543 26.3265 37.9543 26.3265 37.9544 26.3265C37.9544 26.3265 37.9544 26.3265 37.9544 26.3265C37.9544 26.3265 37.9544 26.3265 37.9545 26.3264C37.9545 26.3264 37.9546 26.3264 37.9547 26.3263C37.9548 26.3262 37.955 26.3261 37.9552 26.326C37.9556 26.3257 37.9561 26.3253 37.9568 26.3249C37.9581 26.324 37.9599 26.3227 37.9621 26.3211C37.9665 26.3178 37.9727 26.3132 37.98 26.3072C37.9945 26.2952 38.0139 26.2777 38.0333 26.2553C38.0714 26.2113 38.1139 26.1438 38.1139 26.0597H38.0213ZM37.9287 25.8767C37.914 25.9201 37.914 25.9201 37.9139 25.9201V25.9201C37.9139 25.9201 37.9139 25.9201 37.9139 25.9201C37.9139 25.9201 37.9139 25.92 37.9139 25.92C37.9138 25.92 37.9138 25.92 37.9138 25.92C37.9139 25.92 37.914 25.9201 37.9143 25.9202C37.9149 25.9204 37.9159 25.9208 37.9173 25.9213C37.9201 25.9225 37.9244 25.9243 37.9297 25.9269C37.9403 25.9322 37.9545 25.9404 37.9685 25.9519C37.9961 25.9746 38.0213 26.0085 38.0213 26.0597H38.1139C38.1139 25.9736 38.0696 25.9161 38.0277 25.8816C38.007 25.8645 37.9864 25.8527 37.9711 25.8451C37.9634 25.8413 37.9568 25.8384 37.952 25.8365C37.9496 25.8356 37.9476 25.8348 37.9462 25.8343C37.9454 25.834 37.9448 25.8338 37.9443 25.8336C37.9441 25.8336 37.9439 25.8335 37.9438 25.8334C37.9437 25.8334 37.9436 25.8334 37.9435 25.8334C37.9435 25.8333 37.9434 25.8333 37.9434 25.8333C37.9434 25.8333 37.9434 25.8333 37.9434 25.8333C37.9433 25.8333 37.9433 25.8333 37.9287 25.8767ZM24.0395 25.9225H37.9287V25.8309H24.0395V25.9225ZM23.9935 25.8309C23.9935 25.8461 23.9934 25.8612 23.9932 25.8762L24.0858 25.8772C24.086 25.8618 24.0861 25.8464 24.0861 25.8309H23.9935ZM23.7374 24.3639C23.9014 24.8254 23.9935 25.3219 23.9935 25.8309H24.0861C24.0861 25.311 23.992 24.8043 23.8248 24.3336L23.7374 24.3639ZM27.1836 24.0011L23.7769 24.3032L23.7852 24.3943L27.1919 24.0922L27.1836 24.0011ZM27.1877 23.9553C27.1877 23.9643 27.1826 23.9778 27.1725 23.9926C27.1679 23.9993 27.1634 24.005 27.1599 24.0089C27.1582 24.0109 27.1568 24.0124 27.156 24.0133C27.1555 24.0138 27.1552 24.0141 27.1551 24.0142C27.155 24.0143 27.155 24.0144 27.155 24.0144C27.155 24.0144 27.155 24.0143 27.155 24.0143C27.155 24.0143 27.155 24.0143 27.1551 24.0143C27.1551 24.0143 27.1551 24.0143 27.1551 24.0143C27.1551 24.0142 27.1551 24.0142 27.1551 24.0142C27.1551 24.0142 27.1551 24.0142 27.1877 24.0466C27.2204 24.079 27.2204 24.079 27.2204 24.079C27.2204 24.079 27.2204 24.079 27.2204 24.079C27.2204 24.079 27.2205 24.079 27.2205 24.079C27.2205 24.079 27.2205 24.0789 27.2206 24.0789C27.2206 24.0788 27.2207 24.0787 27.2208 24.0787C27.221 24.0785 27.2212 24.0783 27.2214 24.078C27.222 24.0775 27.2227 24.0767 27.2236 24.0759C27.2252 24.0741 27.2275 24.0716 27.2302 24.0686C27.2353 24.0626 27.2424 24.0539 27.2495 24.0435C27.2626 24.024 27.2805 23.9917 27.2803 23.955L27.1877 23.9553ZM27.1877 23.9094C27.1688 23.9511 27.1688 23.9511 27.1688 23.9511V23.9511V23.9511C27.1687 23.9511 27.1687 23.9511 27.1687 23.9511C27.1687 23.9511 27.1687 23.9511 27.1686 23.951C27.1686 23.951 27.1686 23.951 27.1687 23.9511C27.1688 23.9511 27.169 23.9512 27.1694 23.9514C27.1702 23.9518 27.1714 23.9524 27.1729 23.9532C27.1761 23.9549 27.1801 23.9572 27.1837 23.9598C27.1876 23.9626 27.1897 23.9647 27.1903 23.9656C27.1912 23.9666 27.1877 23.963 27.1877 23.9553L27.2803 23.9549C27.2802 23.9347 27.271 23.919 27.2632 23.9091C27.2552 23.899 27.2457 23.8912 27.238 23.8857C27.2302 23.8801 27.2225 23.8757 27.217 23.8727C27.2142 23.8712 27.2118 23.87 27.2101 23.8692C27.2091 23.8688 27.2084 23.8684 27.2078 23.8682C27.2076 23.868 27.2074 23.8679 27.2072 23.8678C27.207 23.8678 27.207 23.8678 27.2069 23.8677C27.2068 23.8677 27.2068 23.8677 27.2068 23.8677C27.2067 23.8677 27.2067 23.8677 27.2067 23.8677V23.8676C27.2067 23.8676 27.2067 23.8676 27.1877 23.9094ZM23.5988 23.9551H27.1877V23.8636H23.5988V23.9551ZM21.0151 21.7929C22.0554 21.9676 23.0207 22.8046 23.5569 23.9289L23.6407 23.8899C23.0953 22.7463 22.1085 21.8837 21.0305 21.7027L21.0151 21.7929ZM20.72 17.3992C20.7143 17.3937 20.7119 17.3881 20.7115 17.3873C20.7111 17.3864 20.7108 17.3857 20.7107 17.3853C20.7105 17.3849 20.7105 17.3847 20.7105 17.3846C20.7104 17.3846 20.7106 17.385 20.7108 17.3859C20.711 17.3868 20.7113 17.388 20.7116 17.3896C20.7128 17.3961 20.7144 17.4061 20.7162 17.42C20.7198 17.4477 20.7239 17.4877 20.7284 17.539C20.7376 17.6414 20.7484 17.7865 20.7604 17.9624C20.7845 18.3141 20.8131 18.7874 20.8418 19.2838C20.899 20.2767 20.9563 21.3616 20.9765 21.7501L21.069 21.7454C21.0488 21.3569 20.9915 20.2717 20.9342 19.2786C20.9056 18.7821 20.8769 18.3084 20.8528 17.9562C20.8408 17.7802 20.8299 17.6343 20.8206 17.531C20.8161 17.4794 20.8118 17.4379 20.808 17.4085C20.8062 17.3939 20.8043 17.3816 20.8025 17.3721C20.8015 17.3675 20.8004 17.3626 20.7991 17.3581C20.7984 17.3559 20.7974 17.3529 20.796 17.3497C20.7949 17.3474 20.7918 17.3408 20.7855 17.3345L20.72 17.3992ZM20.6602 17.3211C20.6602 17.3669 20.6602 17.3669 20.6601 17.3669H20.66C20.66 17.3669 20.6599 17.3669 20.6598 17.3669C20.6597 17.3669 20.6596 17.3669 20.6595 17.3669C20.6594 17.3669 20.6592 17.3669 20.6592 17.3669C20.659 17.3669 20.659 17.3669 20.6591 17.3669C20.6594 17.3669 20.6602 17.367 20.6615 17.3672C20.6642 17.3675 20.6687 17.3684 20.6744 17.3703C20.6858 17.374 20.7026 17.382 20.72 17.3992L20.7855 17.3345C20.7566 17.3061 20.7271 17.2912 20.7038 17.2835C20.6921 17.2796 20.6822 17.2776 20.6747 17.2766C20.6709 17.276 20.6677 17.2757 20.6653 17.2756C20.6641 17.2755 20.663 17.2755 20.6622 17.2754C20.6617 17.2754 20.6614 17.2754 20.661 17.2754C20.6609 17.2754 20.6607 17.2754 20.6605 17.2754C20.6605 17.2754 20.6604 17.2754 20.6603 17.2754C20.6603 17.2754 20.6602 17.2754 20.6602 17.2754V17.2754C20.6602 17.2754 20.6602 17.2754 20.6602 17.3211ZM20.7064 21.7138V17.3211H20.6139V21.7138H20.7064ZM20.6139 21.7591C20.6289 21.7591 20.6441 21.7592 20.6592 21.7595L20.6611 21.668C20.6453 21.6677 20.6296 21.6676 20.6139 21.6676V21.7591ZM12.7898 28.1643C12.7898 28.4169 12.5825 28.6218 12.3268 28.6218V28.7133C12.6337 28.7133 12.8824 28.4675 12.8824 28.1643H12.7898ZM12.3268 27.7068C12.5825 27.7068 12.7898 27.9116 12.7898 28.1643H12.8824C12.8824 27.861 12.6337 27.6153 12.3268 27.6153V27.7068ZM11.8639 28.1643C11.8639 27.9116 12.0711 27.7068 12.3268 27.7068V27.6153C12.02 27.6153 11.7713 27.861 11.7713 28.1643H11.8639ZM12.3268 28.6218C12.0711 28.6218 11.8639 28.4169 11.8639 28.1643H11.7713C11.7713 28.4675 12.02 28.7133 12.3268 28.7133V28.6218ZM15.3824 28.8963V29.6741H15.475V28.8963H15.3824ZM15.6602 28.6676C15.5296 28.6676 15.4564 28.7205 15.4184 28.7806C15.4002 28.8092 15.3914 28.8375 15.387 28.8584C15.3848 28.8689 15.3836 28.8778 15.383 28.8844C15.3827 28.8876 15.3826 28.8904 15.3825 28.8924C15.3825 28.8934 15.3824 28.8942 15.3824 28.8948C15.3824 28.8952 15.3824 28.8955 15.3824 28.8958C15.3824 28.8959 15.3824 28.8959 15.3824 28.896C15.3824 28.8961 15.3824 28.8961 15.3824 28.8962C15.3824 28.8963 15.3824 28.8963 15.4287 28.8963C15.475 28.8963 15.475 28.8963 15.475 28.8964V28.8965C15.475 28.8966 15.475 28.8966 15.475 28.8967C15.475 28.8967 15.475 28.8968 15.475 28.8967C15.475 28.8967 15.475 28.8965 15.475 28.8961C15.475 28.8955 15.4751 28.8942 15.4752 28.8926C15.4755 28.889 15.4763 28.8837 15.4777 28.877C15.4804 28.8636 15.486 28.8462 15.4968 28.8291C15.5167 28.7976 15.5592 28.7591 15.6602 28.7591V28.6676ZM15.8916 28.8963C15.9379 28.8963 15.9379 28.8963 15.9379 28.8962C15.9379 28.8961 15.9379 28.8961 15.9379 28.896C15.9379 28.8959 15.9379 28.8959 15.9379 28.8958C15.9379 28.8955 15.9379 28.8952 15.9379 28.8948C15.9379 28.8942 15.9378 28.8934 15.9378 28.8924C15.9377 28.8904 15.9376 28.8876 15.9373 28.8844C15.9367 28.8778 15.9355 28.8689 15.9333 28.8584C15.9289 28.8375 15.9201 28.8092 15.9019 28.7806C15.8639 28.7205 15.7907 28.6676 15.6602 28.6676V28.7591C15.7611 28.7591 15.8036 28.7976 15.8235 28.8291C15.8343 28.8462 15.8399 28.8636 15.8427 28.877C15.844 28.8837 15.8448 28.889 15.8451 28.8926C15.8452 28.8942 15.8453 28.8955 15.8453 28.8961C15.8453 28.8965 15.8453 28.8967 15.8453 28.8967C15.8453 28.8968 15.8453 28.8967 15.8453 28.8967C15.8453 28.8966 15.8453 28.8966 15.8453 28.8965V28.8964C15.8453 28.8963 15.8453 28.8963 15.8916 28.8963ZM15.9379 29.6741V28.8963H15.8453V29.6741H15.9379ZM15.6602 29.9486C15.7261 29.9486 15.7787 29.9321 15.8197 29.9051C15.8603 29.8783 15.8869 29.8429 15.9041 29.809C15.9213 29.7751 15.9296 29.7418 15.9337 29.7174C15.9358 29.705 15.9368 29.6947 15.9374 29.6872C15.9377 29.6834 15.9377 29.6804 15.9378 29.6782C15.9379 29.6771 15.9379 29.6762 15.9379 29.6755C15.9379 29.6751 15.9379 29.6748 15.9379 29.6746C15.9379 29.6745 15.9379 29.6744 15.9379 29.6743V29.6742C15.9379 29.6741 15.9379 29.6741 15.8916 29.6741C15.8453 29.6741 15.8453 29.6741 15.8453 29.6741C15.8453 29.674 15.8453 29.674 15.8453 29.674C15.8453 29.674 15.8453 29.674 15.8453 29.6739C15.8453 29.6739 15.8453 29.6739 15.8453 29.674C15.8453 29.6742 15.8453 29.6745 15.8453 29.6751C15.8452 29.6763 15.8452 29.6781 15.845 29.6807C15.8446 29.6857 15.8439 29.6932 15.8424 29.7023C15.8392 29.7208 15.8331 29.7446 15.8213 29.768C15.8096 29.7912 15.7927 29.813 15.7683 29.829C15.7441 29.8449 15.71 29.8571 15.6602 29.8571V29.9486ZM15.4287 29.6741C15.3824 29.6741 15.3824 29.6741 15.3824 29.6742V29.6743C15.3824 29.6744 15.3824 29.6745 15.3824 29.6746C15.3824 29.6748 15.3824 29.6751 15.3824 29.6755C15.3824 29.6762 15.3824 29.6771 15.3825 29.6782C15.3826 29.6804 15.3827 29.6834 15.3829 29.6872C15.3835 29.6947 15.3845 29.705 15.3866 29.7174C15.3907 29.7418 15.399 29.7751 15.4162 29.809C15.4334 29.8429 15.46 29.8783 15.5006 29.9051C15.5416 29.9321 15.5942 29.9486 15.6602 29.9486V29.8571C15.6103 29.8571 15.5762 29.8449 15.552 29.829C15.5276 29.813 15.5107 29.7912 15.499 29.768C15.4872 29.7446 15.4811 29.7208 15.4779 29.7023C15.4764 29.6932 15.4757 29.6857 15.4753 29.6807C15.4752 29.6781 15.4751 29.6763 15.475 29.6751C15.475 29.6745 15.475 29.6742 15.475 29.674C15.475 29.6739 15.475 29.6739 15.475 29.6739C15.475 29.674 15.475 29.674 15.475 29.674C15.475 29.674 15.475 29.674 15.475 29.6741C15.475 29.6741 15.475 29.6741 15.4287 29.6741ZM19.8268 30.1774V30.9551H19.9194V30.1774H19.8268ZM20.1046 29.9486C19.974 29.9486 19.9008 30.0016 19.8628 30.0616C19.8447 30.0902 19.8358 30.1185 19.8314 30.1395C19.8292 30.15 19.828 30.1589 19.8275 30.1655C19.8272 30.1687 19.827 30.1714 19.8269 30.1734C19.8269 30.1744 19.8268 30.1753 19.8268 30.1759C19.8268 30.1763 19.8268 30.1765 19.8268 30.1768C19.8268 30.1769 19.8268 30.177 19.8268 30.1771C19.8268 30.1772 19.8268 30.1772 19.8268 30.1773C19.8268 30.1774 19.8268 30.1774 19.8731 30.1774C19.9194 30.1774 19.9194 30.1774 19.9194 30.1774V30.1775C19.9194 30.1776 19.9194 30.1776 19.9194 30.1777C19.9194 30.1777 19.9194 30.1775 19.9194 30.1772C19.9194 30.1765 19.9195 30.1753 19.9197 30.1736C19.92 30.17 19.9207 30.1647 19.9221 30.158C19.9249 30.1447 19.9304 30.1272 19.9413 30.1101C19.9612 30.0786 20.0037 30.0401 20.1046 30.0401V29.9486ZM20.3361 30.1774C20.3824 30.1774 20.3824 30.1774 20.3824 30.1773C20.3824 30.1772 20.3824 30.1772 20.3824 30.1771C20.3824 30.177 20.3824 30.1769 20.3824 30.1768C20.3824 30.1765 20.3824 30.1763 20.3824 30.1759C20.3824 30.1753 20.3823 30.1744 20.3823 30.1734C20.3822 30.1714 20.382 30.1687 20.3817 30.1655C20.3812 30.1589 20.38 30.15 20.3777 30.1395C20.3734 30.1185 20.3645 30.0902 20.3464 30.0616C20.3084 30.0016 20.2352 29.9486 20.1046 29.9486V30.0401C20.2055 30.0401 20.248 30.0786 20.2679 30.1101C20.2788 30.1272 20.2843 30.1447 20.2871 30.158C20.2885 30.1647 20.2892 30.17 20.2895 30.1736C20.2897 30.1753 20.2898 30.1765 20.2898 30.1772C20.2898 30.1775 20.2898 30.1777 20.2898 30.1777C20.2898 30.1776 20.2898 30.1776 20.2898 30.1775V30.1774C20.2898 30.1774 20.2898 30.1774 20.3361 30.1774ZM20.3824 30.9551V30.1774H20.2898V30.9551H20.3824ZM20.1046 31.2296C20.1705 31.2296 20.2231 31.2132 20.2641 31.1862C20.3048 31.1594 20.3314 31.124 20.3486 31.09C20.3657 31.0562 20.374 31.0228 20.3781 30.9984C20.3802 30.9861 20.3813 30.9757 20.3818 30.9682C20.3821 30.9645 20.3822 30.9614 20.3823 30.9593C20.3824 30.9582 20.3824 30.9572 20.3824 30.9565C20.3824 30.9561 20.3824 30.9559 20.3824 30.9557C20.3824 30.9555 20.3824 30.9554 20.3824 30.9553V30.9552C20.3824 30.9551 20.3824 30.9551 20.3361 30.9551C20.2898 30.9551 20.2898 30.9551 20.2898 30.9551C20.2898 30.955 20.2898 30.955 20.2898 30.955C20.2898 30.955 20.2898 30.955 20.2898 30.955C20.2898 30.955 20.2898 30.9549 20.2898 30.955C20.2898 30.9552 20.2898 30.9556 20.2898 30.9561C20.2897 30.9573 20.2896 30.9592 20.2894 30.9617C20.289 30.9668 20.2883 30.9743 20.2868 30.9833C20.2837 31.0018 20.2776 31.0257 20.2657 31.049C20.254 31.0723 20.2372 31.094 20.2127 31.11C20.1886 31.126 20.1544 31.1381 20.1046 31.1381V31.2296ZM19.8731 30.9551C19.8268 30.9551 19.8268 30.9551 19.8268 30.9552V30.9553C19.8268 30.9554 19.8268 30.9555 19.8268 30.9557C19.8268 30.9559 19.8268 30.9561 19.8268 30.9565C19.8268 30.9572 19.8268 30.9582 19.8269 30.9593C19.827 30.9614 19.8271 30.9645 19.8274 30.9682C19.8279 30.9757 19.8289 30.9861 19.8311 30.9984C19.8352 31.0228 19.8435 31.0562 19.8606 31.09C19.8778 31.124 19.9044 31.1594 19.9451 31.1862C19.9861 31.2132 20.0387 31.2296 20.1046 31.2296V31.1381C20.0548 31.1381 20.0206 31.126 19.9964 31.11C19.972 31.094 19.9552 31.0723 19.9435 31.049C19.9316 31.0257 19.9255 31.0018 19.9224 30.9833C19.9209 30.9743 19.9202 30.9668 19.9198 30.9617C19.9196 30.9592 19.9195 30.9573 19.9194 30.9561C19.9194 30.9556 19.9194 30.9552 19.9194 30.955C19.9194 30.9549 19.9194 30.955 19.9194 30.955C19.9194 30.955 19.9194 30.955 19.9194 30.955C19.9194 30.955 19.9194 30.955 19.9194 30.9551C19.9194 30.9551 19.9194 30.9551 19.8731 30.9551ZM19.5999 24.4586C19.4667 24.4457 19.2954 24.4119 19.1562 24.381C19.0868 24.3656 19.0259 24.351 18.9823 24.3402C18.9605 24.3349 18.9431 24.3305 18.9312 24.3274C18.9252 24.3259 18.9205 24.3247 18.9175 24.3239C18.9159 24.3235 18.9147 24.3232 18.914 24.323C18.9136 24.3229 18.9132 24.3228 18.913 24.3227C18.9129 24.3227 18.9129 24.3227 18.9128 24.3227V24.3227C18.9127 24.3227 18.9127 24.3227 18.9127 24.3227C18.9127 24.3227 18.9127 24.3227 18.9009 24.3669C18.889 24.4111 18.889 24.4111 18.889 24.4111C18.889 24.4111 18.889 24.4111 18.8891 24.4111C18.8891 24.4112 18.8892 24.4112 18.8893 24.4112C18.8896 24.4113 18.8899 24.4113 18.8903 24.4114C18.8912 24.4117 18.8924 24.412 18.8939 24.4124C18.8972 24.4132 18.9019 24.4145 18.908 24.416C18.9202 24.4191 18.9378 24.4236 18.9599 24.429C19.004 24.4399 19.0656 24.4547 19.1359 24.4703C19.2757 24.5013 19.4516 24.5362 19.5908 24.5497L19.5999 24.4586ZM20.3824 24.5499C20.3839 24.5042 20.3839 24.5042 20.3839 24.5042H20.3839C20.3838 24.5042 20.3837 24.5042 20.3836 24.5042C20.3834 24.5042 20.383 24.5042 20.3826 24.5041C20.3816 24.5041 20.3803 24.5041 20.3785 24.504C20.375 24.5039 20.3697 24.5037 20.3628 24.5034C20.3491 24.5029 20.3292 24.5022 20.3043 24.5012C20.2546 24.4993 20.1851 24.4963 20.1061 24.4925C19.9477 24.4848 19.7519 24.4734 19.5999 24.4586L19.5908 24.5497C19.7452 24.5647 19.9429 24.5761 20.1014 24.5839C20.1809 24.5877 20.2507 24.5907 20.3006 24.5927C20.3256 24.5936 20.3456 24.5944 20.3594 24.5949C20.3664 24.5951 20.3716 24.5953 20.3752 24.5954C20.3771 24.5955 20.3785 24.5955 20.3794 24.5956C20.3799 24.5956 20.3802 24.5956 20.3804 24.5956C20.3805 24.5956 20.3806 24.5956 20.3807 24.5956H20.3808C20.3808 24.5956 20.3808 24.5956 20.3824 24.5499ZM20.4749 25.4168L20.4286 24.5475L20.3362 24.5523L20.3825 25.4216L20.4749 25.4168ZM19.3979 25.4176C19.6585 25.4878 19.9181 25.4993 20.1118 25.4935C20.2088 25.4906 20.2897 25.4833 20.3465 25.4768C20.375 25.4735 20.3974 25.4704 20.4127 25.4681C20.4204 25.4669 20.4264 25.466 20.4304 25.4653C20.4325 25.465 20.434 25.4647 20.4352 25.4645C20.4357 25.4644 20.4361 25.4643 20.4364 25.4643C20.4365 25.4643 20.4367 25.4642 20.4368 25.4642C20.4368 25.4642 20.4368 25.4642 20.4369 25.4642C20.4369 25.4642 20.4369 25.4642 20.4369 25.4642C20.4369 25.4642 20.4369 25.4642 20.4287 25.4192C20.4204 25.3742 20.4204 25.3742 20.4204 25.3742C20.4204 25.3742 20.4204 25.3742 20.4203 25.3742C20.4203 25.3742 20.4202 25.3742 20.4202 25.3742C20.42 25.3742 20.4197 25.3743 20.4192 25.3744C20.4184 25.3745 20.417 25.3748 20.4152 25.3751C20.4115 25.3757 20.4061 25.3765 20.3989 25.3776C20.3844 25.3798 20.363 25.3827 20.3358 25.3859C20.2812 25.3922 20.2029 25.3992 20.1089 25.402C19.9207 25.4077 19.6711 25.3963 19.4224 25.3293L19.3979 25.4176ZM18.5305 25.0074C18.5027 25.044 18.5027 25.044 18.5027 25.044C18.5027 25.044 18.5027 25.044 18.5027 25.044C18.5027 25.044 18.5028 25.0441 18.5028 25.0441C18.5029 25.0441 18.503 25.0442 18.5031 25.0443C18.5033 25.0444 18.5036 25.0446 18.5039 25.0449C18.5046 25.0453 18.5055 25.046 18.5067 25.0469C18.5091 25.0486 18.5127 25.051 18.5172 25.0542C18.5264 25.0604 18.54 25.0693 18.5581 25.0804C18.5943 25.1027 18.6486 25.1338 18.7218 25.17C18.8685 25.2423 19.0913 25.3349 19.3979 25.4176L19.4224 25.3293C19.1215 25.2482 18.9045 25.1578 18.7632 25.0881C18.6926 25.0532 18.6408 25.0235 18.607 25.0027C18.5901 24.9923 18.5777 24.9842 18.5696 24.9787C18.5655 24.976 18.5627 24.9739 18.5607 24.9726C18.5598 24.9719 18.5591 24.9714 18.5588 24.9711C18.5586 24.971 18.5584 24.9709 18.5584 24.9709C18.5583 24.9708 18.5583 24.9708 18.5583 24.9708V24.9708C18.5583 24.9708 18.5583 24.9708 18.5583 24.9708C18.5583 24.9708 18.5584 24.9709 18.5305 25.0074ZM18.8607 24.3442L18.4903 24.9847L18.5707 25.0301L18.9411 24.3896L18.8607 24.3442ZM28.3916 28.1643C28.3916 28.4675 28.6403 28.7133 28.9472 28.7133V28.6218C28.6915 28.6218 28.4842 28.4169 28.4842 28.1643H28.3916ZM28.9472 27.6153C28.6403 27.6153 28.3916 27.861 28.3916 28.1643H28.4842C28.4842 27.9116 28.6915 27.7068 28.9472 27.7068V27.6153ZM29.5027 28.1643C29.5027 27.861 29.254 27.6153 28.9472 27.6153V27.7068C29.2028 27.7068 29.4102 27.9116 29.4102 28.1643H29.5027ZM28.9472 28.7133C29.254 28.7133 29.5027 28.4675 29.5027 28.1643H29.4102C29.4102 28.4169 29.2028 28.6218 28.9472 28.6218V28.7133ZM25.799 28.8963V29.6741H25.8916V28.8963H25.799ZM25.6139 28.7591C25.7148 28.7591 25.7573 28.7976 25.7772 28.8291C25.788 28.8462 25.7936 28.8636 25.7964 28.877C25.7977 28.8837 25.7985 28.889 25.7988 28.8926C25.7989 28.8942 25.799 28.8955 25.799 28.8961C25.799 28.8965 25.799 28.8967 25.799 28.8967C25.799 28.8968 25.799 28.8967 25.799 28.8967C25.799 28.8966 25.799 28.8966 25.799 28.8965V28.8964C25.799 28.8963 25.799 28.8963 25.8453 28.8963C25.8916 28.8963 25.8916 28.8963 25.8916 28.8962C25.8916 28.8961 25.8916 28.8961 25.8916 28.896C25.8916 28.8959 25.8916 28.8959 25.8916 28.8958C25.8916 28.8955 25.8916 28.8952 25.8916 28.8948C25.8916 28.8942 25.8915 28.8934 25.8915 28.8924C25.8914 28.8904 25.8913 28.8876 25.891 28.8844C25.8904 28.8778 25.8892 28.8689 25.887 28.8584C25.8827 28.8375 25.8738 28.8092 25.8556 28.7806C25.8177 28.7205 25.7444 28.6676 25.6139 28.6676V28.7591ZM25.3824 28.8963C25.4287 28.8963 25.4287 28.8963 25.4287 28.8964V28.8965C25.4287 28.8966 25.4287 28.8966 25.4287 28.8967C25.4287 28.8967 25.4287 28.8968 25.4287 28.8967C25.4287 28.8967 25.4287 28.8965 25.4287 28.8961C25.4287 28.8955 25.4288 28.8942 25.4289 28.8926C25.4292 28.889 25.43 28.8837 25.4314 28.877C25.4341 28.8636 25.4397 28.8462 25.4505 28.8291C25.4704 28.7976 25.5129 28.7591 25.6139 28.7591V28.6676C25.4833 28.6676 25.4101 28.7205 25.3721 28.7806C25.3539 28.8092 25.3451 28.8375 25.3407 28.8584C25.3385 28.8689 25.3373 28.8778 25.3367 28.8844C25.3364 28.8876 25.3363 28.8904 25.3362 28.8924C25.3362 28.8934 25.3361 28.8942 25.3361 28.8948C25.3361 28.8952 25.3361 28.8955 25.3361 28.8958C25.3361 28.8959 25.3361 28.8959 25.3361 28.896C25.3361 28.8961 25.3361 28.8961 25.3361 28.8962C25.3361 28.8963 25.3361 28.8963 25.3824 28.8963ZM25.4287 29.6741V28.8963H25.3361V29.6741H25.4287ZM25.6139 29.8571C25.564 29.8571 25.5299 29.8449 25.5057 29.829C25.4813 29.813 25.4644 29.7912 25.4527 29.768C25.4409 29.7446 25.4348 29.7208 25.4316 29.7023C25.4302 29.6932 25.4294 29.6857 25.429 29.6807C25.4289 29.6781 25.4288 29.6763 25.4287 29.6751C25.4287 29.6745 25.4287 29.6742 25.4287 29.674C25.4287 29.6739 25.4287 29.6739 25.4287 29.6739C25.4287 29.674 25.4287 29.674 25.4287 29.674C25.4287 29.674 25.4287 29.674 25.4287 29.6741C25.4287 29.6741 25.4287 29.6741 25.3824 29.6741C25.3361 29.6741 25.3361 29.6741 25.3361 29.6742V29.6743C25.3361 29.6744 25.3361 29.6745 25.3361 29.6746C25.3361 29.6748 25.3361 29.6751 25.3361 29.6755C25.3361 29.6762 25.3361 29.6771 25.3362 29.6782C25.3363 29.6804 25.3364 29.6834 25.3366 29.6872C25.3372 29.6947 25.3382 29.705 25.3403 29.7174C25.3444 29.7418 25.3527 29.7751 25.3699 29.809C25.3871 29.8429 25.4137 29.8783 25.4543 29.9051C25.4953 29.9321 25.5479 29.9486 25.6139 29.9486V29.8571ZM25.8453 29.6741C25.799 29.6741 25.799 29.6741 25.799 29.6741C25.799 29.674 25.799 29.674 25.799 29.674C25.799 29.674 25.799 29.674 25.799 29.6739C25.799 29.6739 25.799 29.6739 25.799 29.674C25.799 29.6742 25.799 29.6745 25.799 29.6751C25.7989 29.6763 25.7989 29.6781 25.7987 29.6807C25.7983 29.6857 25.7976 29.6932 25.7961 29.7023C25.7929 29.7208 25.7868 29.7446 25.775 29.768C25.7633 29.7912 25.7464 29.813 25.722 29.829C25.6978 29.8449 25.6637 29.8571 25.6139 29.8571V29.9486C25.6798 29.9486 25.7324 29.9321 25.7734 29.9051C25.814 29.8783 25.8406 29.8429 25.8578 29.809C25.875 29.7751 25.8833 29.7418 25.8874 29.7174C25.8895 29.705 25.8905 29.6947 25.8911 29.6872C25.8914 29.6834 25.8914 29.6804 25.8915 29.6782C25.8916 29.6771 25.8916 29.6762 25.8916 29.6755C25.8916 29.6751 25.8916 29.6748 25.8916 29.6746C25.8916 29.6745 25.8916 29.6744 25.8916 29.6743V29.6742C25.8916 29.6741 25.8916 29.6741 25.8453 29.6741ZM21.3546 30.1774V30.9551H21.4472V30.1774H21.3546ZM21.1694 30.0401C21.2703 30.0401 21.3128 30.0786 21.3327 30.1101C21.3436 30.1272 21.3491 30.1447 21.3519 30.158C21.3533 30.1647 21.354 30.17 21.3543 30.1736C21.3545 30.1753 21.3546 30.1765 21.3546 30.1772C21.3546 30.1775 21.3546 30.1777 21.3546 30.1777C21.3546 30.1776 21.3546 30.1776 21.3546 30.1775V30.1774C21.3546 30.1774 21.3546 30.1774 21.4009 30.1774C21.4472 30.1774 21.4472 30.1774 21.4472 30.1773C21.4472 30.1772 21.4472 30.1772 21.4472 30.1771C21.4472 30.177 21.4472 30.1769 21.4472 30.1768C21.4472 30.1765 21.4472 30.1763 21.4472 30.1759C21.4472 30.1753 21.4471 30.1744 21.4471 30.1734C21.447 30.1714 21.4468 30.1687 21.4465 30.1655C21.446 30.1589 21.4448 30.15 21.4426 30.1395C21.4382 30.1185 21.4293 30.0902 21.4112 30.0616C21.3732 30.0016 21.3 29.9486 21.1694 29.9486V30.0401ZM20.9379 30.1774C20.9842 30.1774 20.9842 30.1774 20.9842 30.1774V30.1775C20.9842 30.1776 20.9842 30.1776 20.9842 30.1777C20.9842 30.1777 20.9842 30.1775 20.9842 30.1772C20.9842 30.1765 20.9843 30.1753 20.9845 30.1736C20.9848 30.17 20.9855 30.1647 20.9869 30.158C20.9897 30.1447 20.9952 30.1272 21.0061 30.1101C21.026 30.0786 21.0685 30.0401 21.1694 30.0401V29.9486C21.0389 29.9486 20.9656 30.0016 20.9277 30.0616C20.9095 30.0902 20.9006 30.1185 20.8963 30.1395C20.894 30.15 20.8928 30.1589 20.8923 30.1655C20.892 30.1687 20.8918 30.1714 20.8917 30.1734C20.8917 30.1744 20.8916 30.1753 20.8916 30.1759C20.8916 30.1763 20.8916 30.1765 20.8916 30.1768C20.8916 30.1769 20.8916 30.177 20.8916 30.1771C20.8916 30.1772 20.8916 30.1772 20.8916 30.1773C20.8916 30.1774 20.8916 30.1774 20.9379 30.1774ZM20.9842 30.9551V30.1774H20.8916V30.9551H20.9842ZM21.1694 31.1381C21.1196 31.1381 21.0854 31.126 21.0613 31.11C21.0368 31.094 21.02 31.0723 21.0083 31.049C20.9964 31.0257 20.9903 31.0018 20.9872 30.9833C20.9857 30.9743 20.985 30.9668 20.9846 30.9617C20.9844 30.9592 20.9843 30.9573 20.9842 30.9561C20.9842 30.9556 20.9842 30.9552 20.9842 30.955C20.9842 30.9549 20.9842 30.955 20.9842 30.955C20.9842 30.955 20.9842 30.955 20.9842 30.955C20.9842 30.955 20.9842 30.955 20.9842 30.9551C20.9842 30.9551 20.9842 30.9551 20.9379 30.9551C20.8916 30.9551 20.8916 30.9551 20.8916 30.9552V30.9553C20.8916 30.9554 20.8916 30.9555 20.8916 30.9557C20.8916 30.9559 20.8916 30.9561 20.8916 30.9565C20.8916 30.9572 20.8916 30.9582 20.8917 30.9593C20.8918 30.9614 20.8919 30.9645 20.8922 30.9682C20.8927 30.9757 20.8938 30.9861 20.8959 30.9984C20.9 31.0228 20.9083 31.0562 20.9254 31.09C20.9427 31.124 20.9692 31.1594 21.0099 31.1862C21.0509 31.2132 21.1035 31.2296 21.1694 31.2296V31.1381ZM21.4009 30.9551C21.3546 30.9551 21.3546 30.9551 21.3546 30.9551C21.3546 30.955 21.3546 30.955 21.3546 30.955C21.3546 30.955 21.3546 30.955 21.3546 30.955C21.3546 30.955 21.3546 30.9549 21.3546 30.955C21.3546 30.9552 21.3546 30.9556 21.3546 30.9561C21.3545 30.9573 21.3544 30.9592 21.3542 30.9617C21.3539 30.9668 21.3531 30.9743 21.3516 30.9833C21.3485 31.0018 21.3424 31.0257 21.3305 31.049C21.3189 31.0723 21.302 31.094 21.2776 31.11C21.2534 31.126 21.2192 31.1381 21.1694 31.1381V31.2296C21.2353 31.2296 21.2879 31.2132 21.3289 31.1862C21.3696 31.1594 21.3962 31.124 21.4134 31.09C21.4305 31.0562 21.4389 31.0228 21.4429 30.9984C21.4451 30.9861 21.4461 30.9757 21.4466 30.9682C21.4469 30.9645 21.447 30.9614 21.4471 30.9593C21.4472 30.9582 21.4472 30.9572 21.4472 30.9565C21.4472 30.9561 21.4472 30.9559 21.4472 30.9557C21.4472 30.9555 21.4472 30.9554 21.4472 30.9553V30.9552C21.4472 30.9551 21.4472 30.9551 21.4009 30.9551ZM21.6832 24.5497C21.8224 24.5362 21.9983 24.5013 22.1381 24.4703C22.2084 24.4547 22.27 24.4399 22.3141 24.429C22.3362 24.4236 22.3539 24.4191 22.366 24.416C22.3721 24.4145 22.3768 24.4132 22.3801 24.4124C22.3816 24.412 22.3828 24.4117 22.3837 24.4114C22.3841 24.4113 22.3844 24.4113 22.3847 24.4112C22.3848 24.4112 22.3849 24.4112 22.3849 24.4111C22.385 24.4111 22.385 24.4111 22.385 24.4111C22.385 24.4111 22.385 24.4111 22.3731 24.3669C22.3613 24.3227 22.3613 24.3227 22.3613 24.3227C22.3613 24.3227 22.3613 24.3227 22.3612 24.3227V24.3227C22.3611 24.3227 22.3611 24.3227 22.361 24.3228C22.3608 24.3228 22.3604 24.3229 22.3601 24.323C22.3593 24.3232 22.3581 24.3235 22.3565 24.3239C22.3535 24.3247 22.3489 24.3259 22.3428 24.3274C22.3309 24.3305 22.3135 24.3349 22.2917 24.3402C22.2481 24.351 22.1872 24.3656 22.1178 24.381C21.9786 24.4119 21.8073 24.4457 21.6741 24.4586L21.6832 24.5497ZM20.8916 24.5499C20.8932 24.5956 20.8932 24.5956 20.8932 24.5956H20.8933C20.8934 24.5956 20.8935 24.5956 20.8936 24.5956C20.8938 24.5956 20.8941 24.5956 20.8946 24.5956C20.8955 24.5956 20.8969 24.5955 20.8988 24.5954C20.9024 24.5953 20.9077 24.5951 20.9146 24.5949C20.9284 24.5944 20.9484 24.5936 20.9734 24.5927C21.0233 24.5907 21.0931 24.5877 21.1726 24.5839C21.3311 24.5761 21.5289 24.5647 21.6832 24.5497L21.6741 24.4586C21.5221 24.4734 21.3263 24.4848 21.1679 24.4925C21.0889 24.4963 21.0194 24.4993 20.9697 24.5012C20.9448 24.5022 20.9249 24.5029 20.9112 24.5034C20.9043 24.5037 20.899 24.5039 20.8955 24.504C20.8937 24.5041 20.8924 24.5041 20.8914 24.5041C20.891 24.5042 20.8906 24.5042 20.8904 24.5042C20.8903 24.5042 20.8902 24.5042 20.8902 24.5042H20.8901C20.8901 24.5042 20.8901 24.5042 20.8916 24.5499ZM20.8915 25.4216L20.9378 24.5523L20.8454 24.5475L20.7991 25.4168L20.8915 25.4216ZM21.8516 25.3293C21.6029 25.3963 21.3533 25.4077 21.1651 25.402C21.0711 25.3992 20.9928 25.3922 20.9382 25.3859C20.911 25.3827 20.8896 25.3798 20.8752 25.3776C20.8679 25.3765 20.8625 25.3757 20.8589 25.3751C20.857 25.3748 20.8556 25.3745 20.8548 25.3744C20.8543 25.3743 20.854 25.3742 20.8539 25.3742C20.8538 25.3742 20.8537 25.3742 20.8537 25.3742C20.8536 25.3742 20.8536 25.3742 20.8536 25.3742C20.8536 25.3742 20.8536 25.3742 20.8453 25.4192C20.8371 25.4642 20.8371 25.4642 20.8371 25.4642C20.8371 25.4642 20.8371 25.4642 20.8371 25.4642C20.8372 25.4642 20.8372 25.4642 20.8372 25.4642C20.8373 25.4642 20.8375 25.4643 20.8376 25.4643C20.8379 25.4643 20.8383 25.4644 20.8389 25.4645C20.84 25.4647 20.8415 25.465 20.8436 25.4653C20.8477 25.466 20.8536 25.4669 20.8613 25.4681C20.8766 25.4704 20.899 25.4735 20.9275 25.4768C20.9843 25.4833 21.0652 25.4906 21.1622 25.4935C21.3559 25.4993 21.6155 25.4878 21.8761 25.4176L21.8516 25.3293ZM22.7435 25.0074C22.7156 24.9709 22.7157 24.9708 22.7157 24.9708C22.7157 24.9708 22.7157 24.9708 22.7157 24.9708V24.9708C22.7157 24.9708 22.7157 24.9708 22.7156 24.9709C22.7156 24.9709 22.7154 24.971 22.7152 24.9711C22.7149 24.9714 22.7142 24.9719 22.7133 24.9726C22.7114 24.9739 22.7085 24.976 22.7044 24.9787C22.6964 24.9842 22.6839 24.9923 22.667 25.0027C22.6332 25.0235 22.5814 25.0532 22.5108 25.0881C22.3695 25.1578 22.1525 25.2482 21.8516 25.3293L21.8761 25.4176C22.1827 25.3349 22.4055 25.2423 22.5522 25.17C22.6254 25.1338 22.6797 25.1027 22.7159 25.0804C22.734 25.0693 22.7477 25.0604 22.7568 25.0542C22.7614 25.051 22.7649 25.0486 22.7673 25.0469C22.7685 25.046 22.7694 25.0453 22.7702 25.0449C22.7704 25.0446 22.7707 25.0444 22.7709 25.0443C22.771 25.0442 22.7711 25.0441 22.7712 25.0441C22.7712 25.0441 22.7713 25.044 22.7713 25.044C22.7713 25.044 22.7713 25.044 22.7713 25.044C22.7713 25.044 22.7714 25.044 22.7435 25.0074ZM22.3329 24.3896L22.7033 25.0301L22.7837 24.9847L22.4133 24.3442L22.3329 24.3896Z" fill="white"/>
</g>
<defs>
<clipPath id="clip0">
<rect width="35" height="14" fill="white" transform="translate(3.11328 17.2295)"/>
</clipPath>
</defs>
</svg>
