<svg width="42" height="51" viewBox="0 0 42 51" fill="none" xmlns="http://www.w3.org/2000/svg">
<rect x="0.113281" y="0.229492" width="41" height="50" fill="black"/>
<g clip-path="url(#clip0)">
<path fill-rule="evenodd" clip-rule="evenodd" d="M19.7423 13.5229H20.5051H20.6141H21.3769V14.2772H22.1397V12.4453H22.3577V14.2772H24.5372V15.8936H22.3577V18.0488H20.6141H20.5051H18.7615V15.8936H16.582V14.2772H18.7615V12.4453H18.9795V14.2772H19.7423V13.5229ZM12.8769 18.6953H16.3641V22.1436H12.8769V18.6953ZM12.332 26.885V27.747L20.5051 25.0531V24.2988L12.332 26.885ZM20.2872 25.8074V35.2901C20.2872 35.2901 19.5243 35.2901 18.7615 35.0746C17.9987 34.8591 17.3449 34.2126 17.3449 34.2126C17.3449 34.2126 16.3641 34.7998 15.6013 34.7513C14.8384 34.7029 14.1846 34.2126 14.1846 34.2126L12.332 28.5013L20.2872 25.8074ZM16.3641 22.7901H12.8769V26.1307L16.3641 25.0531V22.7901ZM17.0179 22.7901H20.2872V23.76L17.0179 24.8376V22.7901ZM20.2872 18.6953H17.0179V22.1436H20.2872V18.6953ZM20.832 25.8074V35.2901C20.832 35.2901 21.5949 35.2901 22.3577 35.0746C23.1205 34.8591 23.7743 34.2126 23.7743 34.2126C23.7743 34.2126 24.7551 34.7998 25.5179 34.7513C26.2807 34.7029 26.9346 34.2126 26.9346 34.2126L28.7872 28.5013L20.832 25.8074ZM28.7872 27.747V26.885L20.6141 24.2988V25.0531L28.7872 27.747ZM24.7551 18.6953H28.2423V22.1436H24.7551V18.6953ZM28.2423 22.7901H24.7551V25.0531L28.2423 26.1307V22.7901ZM20.832 22.7901H24.1013V24.8376L20.832 23.76V22.7901ZM24.1013 18.6953H20.832V22.1436H24.1013V18.6953ZM15.8192 35.7212C14.6205 35.6817 14.0756 34.8591 14.0756 34.8591C14.0756 34.8591 14.4655 35.6966 15.8192 35.8289C16.4256 35.8882 17.2359 35.7212 17.2359 35.7212C17.2359 35.7212 17.6173 36.4755 18.7615 36.7988C19.5243 37.0143 20.0692 37.0143 20.5051 37.0143V36.5832C20.5051 36.5832 19.5243 36.5832 18.7615 36.3677C17.9987 36.1522 17.3449 35.3979 17.3449 35.3979C17.3449 35.3979 16.4385 35.7414 15.8192 35.7212ZM27.1525 34.8591C27.1525 34.8591 26.6077 35.6817 25.409 35.7212C24.7897 35.7414 23.8833 35.3979 23.8833 35.3979C23.8833 35.3979 23.2295 36.1522 22.4666 36.3677C21.7038 36.5832 20.7231 36.5832 20.7231 36.5832V37.0143C21.159 37.0143 21.7038 37.0143 22.4666 36.7988C23.6109 36.4755 23.9923 35.7212 23.9923 35.7212C23.9923 35.7212 24.8026 35.8882 25.409 35.8289C26.7626 35.6966 27.1525 34.8591 27.1525 34.8591Z" fill="white"/>
<path d="M19.742 13.5223V13.4145H19.633V13.5223H19.742ZM21.3766 13.5223H21.4856V13.4145H21.3766V13.5223ZM21.3766 14.2766H21.2676V14.3843H21.3766V14.2766ZM22.1394 14.2766V14.3843H22.2484V14.2766H22.1394ZM22.1394 12.4447V12.3369H22.0304V12.4447H22.1394ZM22.3574 12.4447H22.4663V12.3369H22.3574V12.4447ZM22.3574 14.2766H22.2484V14.3843H22.3574V14.2766ZM24.5368 14.2766H24.6458V14.1688H24.5368V14.2766ZM24.5368 15.8929V16.0007H24.6458V15.8929H24.5368ZM22.3574 15.8929V15.7852H22.2484V15.8929H22.3574ZM22.3574 18.0481V18.1559H22.4663V18.0481H22.3574ZM18.7612 18.0481H18.6522V18.1559H18.7612V18.0481ZM18.7612 15.8929H18.8702V15.7852H18.7612V15.8929ZM16.5817 15.8929H16.4727V16.0007H16.5817V15.8929ZM16.5817 14.2766V14.1688H16.4727V14.2766H16.5817ZM18.7612 14.2766V14.3843H18.8702V14.2766H18.7612ZM18.7612 12.4447V12.3369H18.6522V12.4447H18.7612ZM18.9792 12.4447H19.0881V12.3369H18.9792V12.4447ZM18.9792 14.2766H18.8702V14.3843H18.9792V14.2766ZM19.742 14.2766V14.3843H19.8509V14.2766H19.742ZM16.3638 18.6947H16.4727V18.5869H16.3638V18.6947ZM12.8766 18.6947V18.5869H12.7676V18.6947H12.8766ZM16.3638 22.1429V22.2507H16.4727V22.1429H16.3638ZM12.8766 22.1429H12.7676V22.2507H12.8766V22.1429ZM12.3317 27.7464H12.2227V27.8959L12.3662 27.8486L12.3317 27.7464ZM12.3317 26.8843L12.2985 26.7817L12.2227 26.8057V26.8843H12.3317ZM20.5048 25.0524L20.5393 25.1546L20.6138 25.1301V25.0524H20.5048ZM20.5048 24.2981H20.6138V24.1505L20.4716 24.1955L20.5048 24.2981ZM20.2868 35.2895V35.3973H20.3958V35.2895H20.2868ZM20.2868 25.8067H20.3958V25.6559L20.2515 25.7048L20.2868 25.8067ZM17.3445 34.2119L17.4216 34.1356L17.3612 34.0759L17.2881 34.1197L17.3445 34.2119ZM14.1843 34.2119L14.0805 34.2449L14.091 34.2772L14.1184 34.2977L14.1843 34.2119ZM12.3317 28.5007L12.2964 28.3988L12.1953 28.433L12.228 28.5336L12.3317 28.5007ZM12.8766 22.7895V22.6817H12.7676V22.7895H12.8766ZM16.3638 22.7895H16.4727V22.6817H16.3638V22.7895ZM12.8766 26.13H12.7676V26.2766L12.9091 26.2329L12.8766 26.13ZM16.3638 25.0524L16.3963 25.1553L16.4727 25.1317V25.0524H16.3638ZM20.2868 22.7895H20.3958V22.6817H20.2868V22.7895ZM17.0176 22.7895V22.6817H16.9086V22.7895H17.0176ZM20.2868 23.7593L20.3213 23.8615L20.3958 23.837V23.7593H20.2868ZM17.0176 24.8369H16.9086V24.9864L17.0521 24.9391L17.0176 24.8369ZM17.0176 18.6947V18.5869H16.9086V18.6947H17.0176ZM20.2868 18.6947H20.3958V18.5869H20.2868V18.6947ZM17.0176 22.1429H16.9086V22.2507H17.0176V22.1429ZM20.2868 22.1429V22.2507H20.3958V22.1429H20.2868ZM20.8317 35.2895H20.7227V35.3973H20.8317V35.2895ZM20.8317 25.8067L20.867 25.7048L20.7227 25.6559V25.8067H20.8317ZM23.774 34.2119L23.8305 34.1197L23.7574 34.0759L23.697 34.1356L23.774 34.2119ZM26.9343 34.2119L27.0001 34.2977L27.0275 34.2772L27.038 34.2449L26.9343 34.2119ZM28.7868 28.5007L28.8906 28.5336L28.9233 28.433L28.8222 28.3988L28.7868 28.5007ZM28.7868 26.8843H28.8958V26.8057L28.8201 26.7817L28.7868 26.8843ZM28.7868 27.7464L28.7524 27.8486L28.8958 27.8959V27.7464H28.7868ZM20.6138 24.2981L20.647 24.1955L20.5048 24.1505V24.2981H20.6138ZM20.6138 25.0524H20.5048V25.1301L20.5793 25.1546L20.6138 25.0524ZM28.242 18.6947H28.351V18.5869H28.242V18.6947ZM24.7548 18.6947V18.5869H24.6458V18.6947H24.7548ZM28.242 22.1429V22.2507H28.351V22.1429H28.242ZM24.7548 22.1429H24.6458V22.2507H24.7548V22.1429ZM24.7548 22.7895V22.6817H24.6458V22.7895H24.7548ZM28.242 22.7895H28.351V22.6817H28.242V22.7895ZM24.7548 25.0524H24.6458V25.1317L24.7223 25.1553L24.7548 25.0524ZM28.242 26.13L28.2095 26.2329L28.351 26.2766V26.13H28.242ZM24.101 22.7895H24.2099V22.6817H24.101V22.7895ZM20.8317 22.7895V22.6817H20.7227V22.7895H20.8317ZM24.101 24.8369L24.0665 24.9391L24.2099 24.9864V24.8369H24.101ZM20.8317 23.7593H20.7227V23.837L20.7973 23.8615L20.8317 23.7593ZM20.8317 18.6947V18.5869H20.7227V18.6947H20.8317ZM24.101 18.6947H24.2099V18.5869H24.101V18.6947ZM20.8317 22.1429H20.7227V22.2507H20.8317V22.1429ZM24.101 22.1429V22.2507H24.2099V22.1429H24.101ZM14.0753 34.8585L14.1665 34.7994L13.9763 34.9035L14.0753 34.8585ZM15.8189 35.7205L15.8153 35.8283L15.8189 35.7205ZM15.8189 35.8283L15.8082 35.9356L15.8189 35.8283ZM17.2356 35.7205L17.333 35.6723L17.2955 35.5981L17.2133 35.6151L17.2356 35.7205ZM20.5048 37.0136V37.1214H20.6138V37.0136H20.5048ZM20.5048 36.5826H20.6138V36.4748H20.5048V36.5826ZM17.3445 35.3973L17.4273 35.3272L17.3773 35.2695L17.3055 35.2966L17.3445 35.3973ZM25.4086 35.7205L25.4123 35.8283L25.4086 35.7205ZM27.1522 34.8585L27.2512 34.9035L27.0611 34.7994L27.1522 34.8585ZM23.883 35.3973L23.922 35.2966L23.8503 35.2695L23.8003 35.3272L23.883 35.3973ZM20.7227 36.5826V36.4748H20.6138V36.5826H20.7227ZM20.7227 37.0136H20.6138V37.1214H20.7227V37.0136ZM23.992 35.7205L24.0142 35.6151L23.932 35.5981L23.8945 35.6723L23.992 35.7205ZM25.4086 35.8283L25.4194 35.9356L25.4086 35.8283ZM20.5048 13.4145H19.742V13.63H20.5048V13.4145ZM20.6138 13.4145H20.5048V13.63H20.6138V13.4145ZM21.3766 13.4145H20.6138V13.63H21.3766V13.4145ZM21.4856 14.2766V13.5223H21.2676V14.2766H21.4856ZM22.1394 14.1688H21.3766V14.3843H22.1394V14.1688ZM22.0304 12.4447V14.2766H22.2484V12.4447H22.0304ZM22.3574 12.3369H22.1394V12.5524H22.3574V12.3369ZM22.4663 14.2766V12.4447H22.2484V14.2766H22.4663ZM24.5368 14.1688H22.3574V14.3843H24.5368V14.1688ZM24.6458 15.8929V14.2766H24.4279V15.8929H24.6458ZM22.3574 16.0007H24.5368V15.7852H22.3574V16.0007ZM22.4663 18.0481V15.8929H22.2484V18.0481H22.4663ZM20.6138 18.1559H22.3574V17.9404H20.6138V18.1559ZM20.5048 18.1559H20.6138V17.9404H20.5048V18.1559ZM18.7612 18.1559H20.5048V17.9404H18.7612V18.1559ZM18.6522 15.8929V18.0481H18.8702V15.8929H18.6522ZM16.5817 16.0007H18.7612V15.7852H16.5817V16.0007ZM16.4727 14.2766V15.8929H16.6907V14.2766H16.4727ZM18.7612 14.1688H16.5817V14.3843H18.7612V14.1688ZM18.6522 12.4447V14.2766H18.8702V12.4447H18.6522ZM18.9792 12.3369H18.7612V12.5524H18.9792V12.3369ZM19.0881 14.2766V12.4447H18.8702V14.2766H19.0881ZM19.742 14.1688H18.9792V14.3843H19.742V14.1688ZM19.633 13.5223V14.2766H19.8509V13.5223H19.633ZM16.3638 18.5869H12.8766V18.8024H16.3638V18.5869ZM16.4727 22.1429V18.6947H16.2548V22.1429H16.4727ZM12.8766 22.2507H16.3638V22.0352H12.8766V22.2507ZM12.7676 18.6947V22.1429H12.9856V18.6947H12.7676ZM12.4407 27.7464V26.8843H12.2227V27.7464H12.4407ZM20.4703 24.9502L12.2973 27.6442L12.3662 27.8486L20.5393 25.1546L20.4703 24.9502ZM20.3958 24.2981V25.0524H20.6138V24.2981H20.3958ZM12.3649 26.987L20.538 24.4007L20.4716 24.1955L12.2985 26.7817L12.3649 26.987ZM20.3958 35.2895V25.8067H20.1779V35.2895H20.3958ZM18.7313 35.1776C19.1212 35.2878 19.5097 35.3425 19.7998 35.3699C19.945 35.3835 20.0662 35.3904 20.1513 35.3938C20.1938 35.3955 20.2274 35.3964 20.2505 35.3968C20.262 35.397 20.271 35.397 20.2771 35.3973C20.2802 35.3973 20.2825 35.3973 20.2841 35.3973C20.285 35.3973 20.2856 35.3973 20.286 35.3973C20.2863 35.3973 20.2865 35.3973 20.2866 35.3973C20.2867 35.3973 20.2867 35.3973 20.2868 35.3973C20.2868 35.3973 20.2868 35.3973 20.2868 35.3973C20.2868 35.3973 20.2868 35.3973 20.2868 35.2895C20.2868 35.1817 20.2869 35.1817 20.2869 35.1817C20.2869 35.1817 20.2868 35.1817 20.2868 35.1817C20.2868 35.1817 20.2867 35.1817 20.2865 35.1817C20.2863 35.1817 20.2858 35.1817 20.2851 35.1817C20.2838 35.1817 20.2818 35.1817 20.2791 35.1817C20.2737 35.1817 20.2655 35.1815 20.2547 35.1813C20.233 35.1809 20.2011 35.18 20.1602 35.1785C20.0784 35.1751 19.9612 35.1686 19.8204 35.1552C19.5383 35.1287 19.164 35.0757 18.7912 34.9703L18.7313 35.1776ZM17.3445 34.2119C17.2675 34.2882 17.2675 34.2882 17.2675 34.2882C17.2675 34.2882 17.2676 34.2882 17.2676 34.2882C17.2676 34.2882 17.2677 34.2882 17.2677 34.2884C17.2678 34.2884 17.268 34.2886 17.2682 34.2889C17.2686 34.2893 17.2692 34.2897 17.2699 34.2906C17.2713 34.2919 17.2734 34.2938 17.2761 34.2964C17.2814 34.3016 17.2892 34.3091 17.2993 34.3184C17.3195 34.3373 17.3489 34.3643 17.3865 34.397C17.4616 34.4628 17.5697 34.5524 17.7022 34.649C17.9658 34.841 18.332 35.0647 18.7313 35.1776L18.7912 34.9703C18.4276 34.8677 18.0855 34.6604 17.8315 34.4753C17.7051 34.3832 17.6021 34.2979 17.5308 34.2356C17.4952 34.2044 17.4675 34.1792 17.449 34.1617C17.4397 34.1531 17.4327 34.1464 17.4281 34.1421C17.4258 34.1397 17.4241 34.1382 17.423 34.1371C17.4224 34.1365 17.422 34.1363 17.4218 34.1358C17.4217 34.1358 17.4216 34.1358 17.4216 34.1356C17.4216 34.1356 17.4216 34.1356 17.4216 34.1356C17.4216 34.1356 17.4216 34.1356 17.3445 34.2119ZM15.594 34.8582C16.0014 34.8841 16.4566 34.7412 16.8008 34.599C16.9748 34.527 17.1243 34.4537 17.2303 34.3981C17.2834 34.3705 17.3257 34.347 17.3549 34.3307C17.3695 34.3225 17.3808 34.3158 17.3886 34.3113C17.3925 34.3091 17.3955 34.3074 17.3976 34.3061C17.3986 34.3054 17.3994 34.305 17.4 34.3046C17.4003 34.3046 17.4005 34.3044 17.4007 34.3044C17.4007 34.3042 17.4008 34.3042 17.4009 34.3042C17.4009 34.3042 17.4009 34.3042 17.4009 34.3042C17.401 34.3042 17.401 34.3042 17.3445 34.2119C17.2881 34.1197 17.2881 34.1197 17.2881 34.1197C17.2881 34.1197 17.2881 34.1197 17.288 34.1197C17.288 34.1199 17.2879 34.1199 17.2877 34.1201C17.2873 34.1203 17.2867 34.1205 17.2858 34.1212C17.2841 34.122 17.2815 34.1236 17.2781 34.1257C17.2711 34.1296 17.2606 34.1356 17.2469 34.1434C17.2195 34.1589 17.1792 34.1811 17.1284 34.2076C17.0267 34.2608 16.8833 34.3313 16.7168 34.4001C16.3799 34.5393 15.9633 34.6658 15.6079 34.6432L15.594 34.8582ZM14.1843 34.2119C14.1184 34.2977 14.1185 34.2979 14.1185 34.2979C14.1185 34.2979 14.1185 34.2979 14.1186 34.2979C14.1186 34.2979 14.1187 34.2979 14.1187 34.2979C14.1189 34.2981 14.1191 34.2983 14.1193 34.2983C14.1197 34.2988 14.1203 34.2992 14.1211 34.2996C14.1226 34.3009 14.1247 34.3024 14.1274 34.3044C14.1329 34.3082 14.1408 34.3141 14.1511 34.3212C14.1716 34.3354 14.2013 34.3557 14.2393 34.3798C14.3151 34.4283 14.4241 34.4929 14.5576 34.5593C14.8234 34.6914 15.1924 34.8326 15.594 34.8582L15.6079 34.6432C15.2467 34.6201 14.9073 34.4919 14.6555 34.3669C14.5302 34.3046 14.428 34.2438 14.3574 34.1988C14.3222 34.1761 14.2949 34.1578 14.2766 34.1449C14.2675 34.1386 14.2607 34.1337 14.2562 34.1304C14.254 34.1289 14.2523 34.1276 14.2513 34.127C14.2508 34.1266 14.2504 34.1264 14.2502 34.1261C14.2501 34.1261 14.2501 34.1259 14.2501 34.1259C14.2501 34.1259 14.2501 34.1259 14.2501 34.1259C14.2501 34.1259 14.2501 34.1259 14.2501 34.1259C14.2501 34.1261 14.2501 34.1261 14.1843 34.2119ZM12.228 28.5336L14.0805 34.2449L14.2881 34.1789L12.4355 28.4678L12.228 28.5336ZM20.2515 25.7048L12.2964 28.3988L12.367 28.6026L20.3222 25.9087L20.2515 25.7048ZM12.8766 22.8973H16.3638V22.6817H12.8766V22.8973ZM12.9856 26.13V22.7895H12.7676V26.13H12.9856ZM16.3313 24.9496L12.8441 26.0272L12.9091 26.2329L16.3963 25.1553L16.3313 24.9496ZM16.2548 22.7895V25.0524H16.4727V22.7895H16.2548ZM20.2868 22.6817H17.0176V22.8973H20.2868V22.6817ZM20.3958 23.7593V22.7895H20.1779V23.7593H20.3958ZM17.0521 24.9391L20.3213 23.8615L20.2524 23.6571L16.9832 24.7347L17.0521 24.9391ZM16.9086 22.7895V24.8369H17.1266V22.7895H16.9086ZM17.0176 18.8024H20.2868V18.5869H17.0176V18.8024ZM17.1266 22.1429V18.6947H16.9086V22.1429H17.1266ZM20.2868 22.0352H17.0176V22.2507H20.2868V22.0352ZM20.1779 18.6947V22.1429H20.3958V18.6947H20.1779ZM20.9407 35.2895V25.8067H20.7227V35.2895H20.9407ZM22.3274 34.9703C21.9546 35.0757 21.5802 35.1287 21.2982 35.1552C21.1574 35.1686 21.0402 35.1751 20.9584 35.1785C20.9175 35.18 20.8855 35.1809 20.8639 35.1813C20.8531 35.1815 20.8449 35.1817 20.8395 35.1817C20.8368 35.1817 20.8347 35.1817 20.8334 35.1817C20.8328 35.1817 20.8323 35.1817 20.832 35.1817C20.8319 35.1817 20.8318 35.1817 20.8317 35.1817C20.8317 35.1817 20.8317 35.1817 20.8317 35.1817C20.8317 35.1817 20.8317 35.1817 20.8317 35.2895C20.8317 35.3973 20.8317 35.3973 20.8318 35.3973C20.8318 35.3973 20.8318 35.3973 20.8318 35.3973C20.8319 35.3973 20.8319 35.3973 20.832 35.3973C20.8321 35.3973 20.8323 35.3973 20.8325 35.3973C20.833 35.3973 20.8336 35.3973 20.8344 35.3973C20.8361 35.3973 20.8384 35.3973 20.8415 35.3973C20.8476 35.397 20.8565 35.397 20.8681 35.3968C20.8912 35.3964 20.9247 35.3955 20.9673 35.3938C21.0524 35.3904 21.1735 35.3835 21.3188 35.3699C21.6088 35.3425 21.9973 35.2878 22.3873 35.1776L22.3274 34.9703ZM23.774 34.2119C23.697 34.1356 23.697 34.1356 23.697 34.1356C23.697 34.1356 23.697 34.1356 23.697 34.1356C23.6969 34.1358 23.6969 34.1358 23.6967 34.1358C23.6965 34.1363 23.6961 34.1365 23.6956 34.1371C23.6945 34.1382 23.6928 34.1397 23.6905 34.1421C23.6859 34.1464 23.6789 34.1531 23.6696 34.1617C23.651 34.1792 23.6234 34.2044 23.5878 34.2356C23.5165 34.2979 23.4134 34.3832 23.2871 34.4753C23.0331 34.6604 22.691 34.8677 22.3274 34.9703L22.3873 35.1776C22.7865 35.0647 23.1528 34.841 23.4164 34.649C23.5489 34.5524 23.657 34.4628 23.7321 34.397C23.7697 34.3643 23.7991 34.3373 23.8193 34.3184C23.8294 34.3091 23.8372 34.3016 23.8425 34.2964C23.8452 34.2938 23.8472 34.2919 23.8487 34.2906C23.8494 34.2897 23.85 34.2893 23.8504 34.2889C23.8505 34.2886 23.8507 34.2884 23.8508 34.2884C23.8509 34.2882 23.8509 34.2882 23.851 34.2882C23.851 34.2882 23.851 34.2882 23.8511 34.2882C23.8511 34.2882 23.8511 34.2882 23.774 34.2119ZM25.5106 34.6432C25.1553 34.6658 24.7387 34.5393 24.4018 34.4001C24.2352 34.3313 24.0918 34.2608 23.9901 34.2076C23.9393 34.1811 23.8991 34.1589 23.8716 34.1434C23.858 34.1356 23.8475 34.1296 23.8405 34.1257C23.837 34.1236 23.8344 34.122 23.8327 34.1212C23.8319 34.1205 23.8313 34.1203 23.8309 34.1201C23.8307 34.1199 23.8306 34.1199 23.8305 34.1197C23.8305 34.1197 23.8305 34.1197 23.8305 34.1197C23.8305 34.1197 23.8305 34.1197 23.774 34.2119C23.7176 34.3042 23.7176 34.3042 23.7176 34.3042C23.7176 34.3042 23.7177 34.3042 23.7177 34.3042C23.7178 34.3042 23.7178 34.3042 23.7179 34.3044C23.7181 34.3044 23.7183 34.3046 23.7186 34.3046C23.7191 34.305 23.72 34.3054 23.721 34.3061C23.723 34.3074 23.7261 34.3091 23.7299 34.3113C23.7377 34.3158 23.7491 34.3225 23.7637 34.3307C23.7929 34.347 23.8352 34.3705 23.8883 34.3981C23.9943 34.4537 24.1438 34.527 24.3177 34.599C24.6619 34.7412 25.1172 34.8841 25.5246 34.8582L25.5106 34.6432ZM26.9343 34.2119C26.8684 34.1261 26.8685 34.1261 26.8685 34.1259C26.8685 34.1259 26.8685 34.1259 26.8685 34.1259C26.8685 34.1259 26.8684 34.1261 26.8683 34.1261C26.8681 34.1264 26.8678 34.1266 26.8673 34.127C26.8662 34.1276 26.8646 34.1289 26.8624 34.1304C26.8579 34.1337 26.851 34.1386 26.8419 34.1449C26.8237 34.1578 26.7964 34.1761 26.7611 34.1988C26.6906 34.2438 26.5884 34.3046 26.4631 34.3669C26.2112 34.4919 25.8719 34.6201 25.5106 34.6432L25.5246 34.8582C25.9262 34.8326 26.2951 34.6914 26.5609 34.5593C26.6945 34.4929 26.8034 34.4283 26.8793 34.3798C26.9172 34.3557 26.947 34.3354 26.9675 34.3212C26.9777 34.3141 26.9857 34.3082 26.9911 34.3044C26.9939 34.3024 26.996 34.3009 26.9975 34.2996C26.9983 34.2992 26.9989 34.2988 26.9993 34.2983C26.9995 34.2983 26.9997 34.2981 26.9998 34.2979C26.9999 34.2979 27 34.2979 27 34.2979C27 34.2979 27.0001 34.2979 27.0001 34.2979C27.0001 34.2979 27.0001 34.2977 26.9343 34.2119ZM28.6831 28.4678L26.8305 34.1789L27.038 34.2449L28.8906 28.5336L28.6831 28.4678ZM20.7964 25.9087L28.7515 28.6026L28.8222 28.3988L20.867 25.7048L20.7964 25.9087ZM28.6779 26.8843V27.7464H28.8958V26.8843H28.6779ZM20.5806 24.4007L28.7536 26.987L28.8201 26.7817L20.647 24.1955L20.5806 24.4007ZM20.7227 25.0524V24.2981H20.5048V25.0524H20.7227ZM28.8213 27.6442L20.6482 24.9502L20.5793 25.1546L28.7524 27.8486L28.8213 27.6442ZM28.242 18.5869H24.7548V18.8024H28.242V18.5869ZM28.351 22.1429V18.6947H28.133V22.1429H28.351ZM24.7548 22.2507H28.242V22.0352H24.7548V22.2507ZM24.6458 18.6947V22.1429H24.8638V18.6947H24.6458ZM24.7548 22.8973H28.242V22.6817H24.7548V22.8973ZM24.8638 25.0524V22.7895H24.6458V25.0524H24.8638ZM28.2745 26.0272L24.7873 24.9496L24.7223 25.1553L28.2095 26.2329L28.2745 26.0272ZM28.133 22.7895V26.13H28.351V22.7895H28.133ZM24.101 22.6817H20.8317V22.8973H24.101V22.6817ZM24.2099 24.8369V22.7895H23.992V24.8369H24.2099ZM20.7973 23.8615L24.0665 24.9391L24.1354 24.7347L20.8662 23.6571L20.7973 23.8615ZM20.7227 22.7895V23.7593H20.9407V22.7895H20.7227ZM20.8317 18.8024H24.101V18.5869H20.8317V18.8024ZM20.9407 22.1429V18.6947H20.7227V22.1429H20.9407ZM24.101 22.0352H20.8317V22.2507H24.101V22.0352ZM23.992 18.6947V22.1429H24.2099V18.6947H23.992ZM14.0753 34.8585C13.9841 34.9175 13.9842 34.9175 13.9842 34.9175C13.9842 34.9175 13.9843 34.9177 13.9843 34.9177C13.9843 34.9177 13.9844 34.9179 13.9845 34.9179C13.9846 34.9182 13.9848 34.9184 13.985 34.9188C13.9854 34.9195 13.986 34.9203 13.9867 34.9212C13.9881 34.9233 13.99 34.9261 13.9925 34.9296C13.9975 34.9367 14.0047 34.9466 14.0141 34.9589C14.0329 34.9835 14.0607 35.0179 14.0977 35.0591C14.1716 35.1414 14.2826 35.2507 14.4325 35.3613C14.7329 35.5824 15.1898 35.8076 15.8153 35.8283L15.8225 35.6128C15.2493 35.594 14.8344 35.3882 14.5627 35.1882C14.4266 35.088 14.3264 34.9893 14.2607 34.916C14.2278 34.8796 14.2037 34.8494 14.188 34.8289C14.1802 34.8188 14.1745 34.8108 14.1709 34.8059C14.1691 34.8033 14.1679 34.8014 14.1671 34.8003C14.1668 34.7998 14.1665 34.7994 14.1664 34.7994C14.1663 34.7992 14.1663 34.7992 14.1663 34.7992C14.1663 34.7992 14.1664 34.7992 14.1664 34.7992C14.1664 34.7994 14.1664 34.7994 14.1664 34.7994C14.1664 34.7994 14.1665 34.7994 14.0753 34.8585ZM15.8296 35.721C15.1758 35.6572 14.7607 35.424 14.5104 35.2119C14.3847 35.1054 14.2995 35.0035 14.2463 34.9292C14.2197 34.8919 14.2011 34.8617 14.1895 34.8414C14.1836 34.8313 14.1795 34.8238 14.1771 34.8188C14.1758 34.8164 14.175 34.8147 14.1745 34.8139C14.1743 34.8134 14.1742 34.8132 14.1741 34.813C14.1741 34.813 14.1741 34.813 14.1741 34.813C14.1742 34.8132 14.1742 34.8132 14.1742 34.8132C14.1742 34.8132 14.1742 34.8132 14.1742 34.8132C14.1743 34.8134 14.1743 34.8134 14.0753 34.8585C13.9763 34.9035 13.9764 34.9035 13.9764 34.9037C13.9764 34.9037 13.9764 34.9037 13.9765 34.9037C13.9765 34.9039 13.9766 34.9039 13.9766 34.9042C13.9767 34.9044 13.9769 34.9048 13.9771 34.905C13.9774 34.9059 13.9779 34.9067 13.9784 34.9078C13.9795 34.9102 13.981 34.9132 13.983 34.9169C13.9869 34.9244 13.9925 34.935 14 34.9479C14.0149 34.974 14.0374 35.0102 14.0684 35.0537C14.1306 35.1406 14.2276 35.2561 14.3686 35.3755C14.6516 35.6154 15.1084 35.8671 15.8082 35.9356L15.8296 35.721ZM17.2356 35.7205C17.2133 35.6151 17.2133 35.6151 17.2133 35.6151C17.2133 35.6151 17.2133 35.6151 17.2133 35.6151C17.2132 35.6151 17.2131 35.6151 17.2129 35.6151C17.2126 35.6151 17.2121 35.6154 17.2114 35.6154C17.2099 35.6158 17.2078 35.6162 17.2048 35.6167C17.199 35.6179 17.1903 35.6197 17.1789 35.6218C17.1562 35.6261 17.1228 35.6324 17.0808 35.6395C16.9967 35.6542 16.8782 35.6729 16.7411 35.6897C16.4653 35.7238 16.1206 35.7494 15.8296 35.721L15.8082 35.9356C16.1235 35.9664 16.4872 35.9382 16.7681 35.9035C16.9094 35.886 17.0314 35.8669 17.1182 35.8518C17.1616 35.8445 17.1963 35.838 17.2202 35.8335C17.2322 35.8311 17.2414 35.8294 17.2478 35.8281C17.251 35.8274 17.2534 35.827 17.2551 35.8266C17.2559 35.8264 17.2566 35.8264 17.257 35.8261C17.2573 35.8261 17.2574 35.8261 17.2576 35.8261C17.2576 35.8261 17.2577 35.8261 17.2577 35.8261C17.2578 35.8261 17.2578 35.8261 17.2578 35.8261C17.2578 35.8259 17.2578 35.8259 17.2356 35.7205ZM18.7912 36.6945C18.2383 36.5382 17.8722 36.2789 17.6452 36.0608C17.5315 35.9516 17.4525 35.8524 17.4023 35.7817C17.3772 35.7462 17.3594 35.7179 17.3481 35.699C17.3424 35.6893 17.3384 35.6822 17.3359 35.6776C17.3347 35.6755 17.3338 35.6738 17.3334 35.6729C17.3331 35.6725 17.333 35.6723 17.3329 35.672C17.3329 35.672 17.3329 35.672 17.3329 35.672C17.3329 35.672 17.3329 35.672 17.3329 35.6723C17.333 35.6723 17.333 35.6723 17.333 35.6723C17.333 35.6723 17.333 35.6723 17.2356 35.7205C17.1381 35.7688 17.1381 35.7688 17.1381 35.7688C17.1382 35.7688 17.1382 35.7688 17.1382 35.769C17.1383 35.769 17.1383 35.7692 17.1384 35.7692C17.1385 35.7695 17.1386 35.7697 17.1388 35.7701C17.1391 35.7707 17.1395 35.7714 17.14 35.7725C17.1411 35.7744 17.1425 35.777 17.1443 35.7804C17.148 35.7871 17.1533 35.7966 17.1603 35.8082C17.1743 35.8317 17.1952 35.8649 17.2238 35.9052C17.2809 35.9858 17.3687 36.0955 17.4934 36.2154C17.7431 36.4552 18.1399 36.7348 18.7313 36.9018L18.7912 36.6945ZM20.5048 36.9059C20.0715 36.9059 19.539 36.9059 18.7912 36.6945L18.7313 36.9018C19.5091 37.1214 20.0663 37.1214 20.5048 37.1214V36.9059ZM20.3958 36.5826V37.0136H20.6138V36.5826H20.3958ZM18.7313 36.4707C19.1228 36.5813 19.567 36.6358 19.9104 36.663C20.0827 36.6768 20.2308 36.6835 20.3361 36.6869C20.3887 36.6886 20.4306 36.6895 20.4595 36.6899C20.474 36.6901 20.4852 36.6901 20.4928 36.6904C20.4966 36.6904 20.4996 36.6904 20.5016 36.6904C20.5026 36.6904 20.5034 36.6904 20.5039 36.6904C20.5042 36.6904 20.5044 36.6904 20.5045 36.6904C20.5046 36.6904 20.5047 36.6904 20.5047 36.6904C20.5047 36.6904 20.5048 36.6904 20.5048 36.6904C20.5048 36.6904 20.5048 36.6904 20.5048 36.5826C20.5048 36.4748 20.5048 36.4748 20.5048 36.4748C20.5048 36.4748 20.5048 36.4748 20.5048 36.4748C20.5048 36.4748 20.5048 36.4748 20.5047 36.4748C20.5046 36.4748 20.5045 36.4748 20.5043 36.4748C20.5039 36.4748 20.5032 36.4748 20.5024 36.4748C20.5006 36.4748 20.4979 36.4748 20.4944 36.4748C20.4873 36.4748 20.4767 36.4746 20.4628 36.4744C20.4351 36.474 20.3944 36.4731 20.3432 36.4716C20.2407 36.4682 20.096 36.4615 19.9278 36.4483C19.59 36.4216 19.1624 36.3684 18.7912 36.2634L18.7313 36.4707ZM17.3445 35.3973C17.2618 35.4673 17.2618 35.4673 17.2618 35.4675C17.2618 35.4675 17.2619 35.4675 17.2619 35.4675C17.2619 35.4675 17.262 35.4675 17.262 35.4677C17.2622 35.4677 17.2623 35.4679 17.2625 35.4682C17.2629 35.4686 17.2635 35.4692 17.2642 35.4701C17.2656 35.4718 17.2677 35.474 17.2703 35.477C17.2757 35.483 17.2834 35.4917 17.2935 35.5026C17.3137 35.5244 17.3431 35.5557 17.3807 35.5938C17.4558 35.6699 17.564 35.7733 17.6966 35.8837C17.96 36.1031 18.3282 36.3567 18.7313 36.4707L18.7912 36.2634C18.4314 36.1619 18.0912 35.9307 17.837 35.719C17.7108 35.6139 17.6079 35.5154 17.5366 35.4432C17.5009 35.4072 17.4733 35.3779 17.4547 35.3576C17.4454 35.3475 17.4384 35.3397 17.4338 35.3345C17.4315 35.332 17.4298 35.33 17.4287 35.3287C17.4281 35.3281 17.4278 35.3276 17.4275 35.3274C17.4274 35.3272 17.4273 35.3272 17.4273 35.3272C17.4273 35.327 17.4273 35.327 17.4273 35.327C17.4273 35.3272 17.4273 35.3272 17.3445 35.3973ZM15.8153 35.8283C16.1423 35.8391 16.5371 35.7544 16.8431 35.6703C16.9976 35.6281 17.1323 35.585 17.2284 35.5526C17.2765 35.5365 17.315 35.5229 17.3417 35.5132C17.355 35.5085 17.3653 35.5046 17.3724 35.502C17.3759 35.5007 17.3786 35.4996 17.3805 35.499C17.3815 35.4988 17.3822 35.4983 17.3827 35.4981C17.3829 35.4981 17.3831 35.4981 17.3833 35.4979C17.3834 35.4979 17.3834 35.4979 17.3835 35.4979C17.3835 35.4979 17.3835 35.4979 17.3835 35.4979C17.3835 35.4979 17.3836 35.4979 17.3445 35.3973C17.3055 35.2966 17.3055 35.2966 17.3055 35.2966C17.3055 35.2966 17.3055 35.2966 17.3055 35.2966C17.3055 35.2966 17.3055 35.2966 17.3055 35.2966C17.3054 35.2966 17.3052 35.2968 17.3051 35.2968C17.3047 35.297 17.3041 35.2973 17.3033 35.2975C17.3017 35.2981 17.2993 35.299 17.296 35.3003C17.2895 35.3026 17.2798 35.3061 17.2671 35.3106C17.2418 35.3199 17.2046 35.333 17.1581 35.3486C17.0649 35.38 16.9344 35.4216 16.7848 35.4628C16.4828 35.5455 16.1148 35.6225 15.8225 35.6128L15.8153 35.8283ZM25.4123 35.8283C26.0378 35.8076 26.4946 35.5824 26.795 35.3613C26.945 35.2507 27.0559 35.1414 27.1298 35.0591C27.1668 35.0179 27.1946 34.9835 27.2134 34.9589C27.2228 34.9466 27.23 34.9367 27.235 34.9296C27.2375 34.9261 27.2395 34.9233 27.2409 34.9212C27.2415 34.9203 27.2421 34.9195 27.2425 34.9188C27.2427 34.9184 27.2429 34.9182 27.2431 34.9179C27.2431 34.9179 27.2432 34.9177 27.2432 34.9177C27.2433 34.9177 27.2433 34.9175 27.2433 34.9175C27.2434 34.9175 27.2434 34.9175 27.1522 34.8585C27.0611 34.7994 27.0611 34.7994 27.0611 34.7994C27.0611 34.7994 27.0612 34.7994 27.0612 34.7992C27.0612 34.7992 27.0612 34.7992 27.0612 34.7992C27.0612 34.7992 27.0612 34.7992 27.0611 34.7994C27.061 34.7994 27.0608 34.7998 27.0604 34.8003C27.0597 34.8014 27.0584 34.8033 27.0566 34.8059C27.053 34.8108 27.0473 34.8188 27.0395 34.8289C27.0239 34.8494 26.9997 34.8796 26.9669 34.916C26.9012 34.9893 26.801 35.088 26.6649 35.1882C26.3932 35.3882 25.9783 35.594 25.405 35.6128L25.4123 35.8283ZM23.883 35.3973C23.844 35.4979 23.844 35.4979 23.844 35.4979C23.844 35.4979 23.8441 35.4979 23.8441 35.4979C23.8441 35.4979 23.8442 35.4979 23.8442 35.4979C23.8444 35.4981 23.8446 35.4981 23.8448 35.4981C23.8454 35.4983 23.8461 35.4988 23.847 35.499C23.8489 35.4996 23.8516 35.5007 23.8551 35.502C23.8622 35.5046 23.8726 35.5085 23.8859 35.5132C23.9125 35.5229 23.951 35.5365 23.9991 35.5526C24.0953 35.585 24.23 35.6281 24.3845 35.6703C24.6905 35.7544 25.0852 35.8391 25.4123 35.8283L25.405 35.6128C25.1128 35.6225 24.7447 35.5455 24.4427 35.4628C24.2932 35.4216 24.1626 35.38 24.0695 35.3486C24.0229 35.333 23.9858 35.3199 23.9604 35.3106C23.9478 35.3061 23.938 35.3026 23.9315 35.3003C23.9283 35.299 23.9258 35.2981 23.9242 35.2975C23.9234 35.2973 23.9228 35.297 23.9225 35.2968C23.9223 35.2968 23.9222 35.2966 23.9221 35.2966C23.922 35.2966 23.922 35.2966 23.922 35.2966C23.922 35.2966 23.922 35.2966 23.922 35.2966C23.922 35.2966 23.922 35.2966 23.883 35.3973ZM22.4963 36.4707C22.8994 36.3567 23.2675 36.1031 23.5309 35.8837C23.6636 35.7733 23.7717 35.6699 23.8469 35.5938C23.8845 35.5557 23.9139 35.5244 23.934 35.5026C23.9441 35.4917 23.9519 35.483 23.9572 35.477C23.9599 35.474 23.9619 35.4718 23.9633 35.4701C23.9641 35.4692 23.9646 35.4686 23.965 35.4682C23.9652 35.4679 23.9654 35.4677 23.9655 35.4677C23.9656 35.4675 23.9656 35.4675 23.9656 35.4675C23.9657 35.4675 23.9657 35.4675 23.9657 35.4675C23.9657 35.4673 23.9657 35.4673 23.883 35.3973C23.8003 35.3272 23.8003 35.3272 23.8003 35.327C23.8003 35.327 23.8003 35.327 23.8003 35.3272C23.8002 35.3272 23.8001 35.3272 23.8 35.3274C23.7998 35.3276 23.7994 35.3281 23.7989 35.3287C23.7978 35.33 23.7961 35.332 23.7938 35.3345C23.7891 35.3397 23.7821 35.3475 23.7728 35.3576C23.7542 35.3779 23.7266 35.4072 23.691 35.4432C23.6197 35.5154 23.5167 35.6139 23.3905 35.719C23.1363 35.9307 22.7961 36.1619 22.4364 36.2634L22.4963 36.4707ZM20.7227 36.5826C20.7227 36.6904 20.7228 36.6904 20.7228 36.6904C20.7228 36.6904 20.7228 36.6904 20.7228 36.6904C20.7229 36.6904 20.7229 36.6904 20.723 36.6904C20.7232 36.6904 20.7234 36.6904 20.7237 36.6904C20.7242 36.6904 20.725 36.6904 20.726 36.6904C20.728 36.6904 20.7309 36.6904 20.7347 36.6904C20.7424 36.6901 20.7536 36.6901 20.768 36.6899C20.7969 36.6895 20.8388 36.6886 20.8915 36.6869C20.9967 36.6835 21.1449 36.6768 21.3172 36.663C21.6606 36.6358 22.1047 36.5813 22.4963 36.4707L22.4364 36.2634C22.0651 36.3684 21.6375 36.4216 21.2998 36.4483C21.1316 36.4615 20.9869 36.4682 20.8843 36.4716C20.8331 36.4731 20.7925 36.474 20.7647 36.4744C20.7509 36.4746 20.7402 36.4748 20.7332 36.4748C20.7296 36.4748 20.727 36.4748 20.7252 36.4748C20.7243 36.4748 20.7237 36.4748 20.7233 36.4748C20.7231 36.4748 20.7229 36.4748 20.7228 36.4748C20.7228 36.4748 20.7228 36.4748 20.7227 36.4748C20.7227 36.4748 20.7227 36.4748 20.7227 36.4748C20.7227 36.4748 20.7227 36.4748 20.7227 36.5826ZM20.8317 37.0136V36.5826H20.6138V37.0136H20.8317ZM22.4364 36.6945C21.6886 36.9059 21.156 36.9059 20.7227 36.9059V37.1214C21.1613 37.1214 21.7185 37.1214 22.4963 36.9018L22.4364 36.6945ZM23.992 35.7205C23.8945 35.6723 23.8945 35.6723 23.8946 35.6723C23.8946 35.6723 23.8946 35.6723 23.8946 35.6723C23.8946 35.672 23.8946 35.672 23.8946 35.672C23.8947 35.672 23.8946 35.672 23.8946 35.672C23.8946 35.6723 23.8944 35.6725 23.8942 35.6729C23.8937 35.6738 23.8929 35.6755 23.8916 35.6776C23.8891 35.6822 23.8851 35.6893 23.8794 35.699C23.8681 35.7179 23.8503 35.7462 23.8252 35.7817C23.7751 35.8524 23.696 35.9516 23.5823 36.0608C23.3553 36.2789 22.9893 36.5382 22.4364 36.6945L22.4963 36.9018C23.0876 36.7348 23.4844 36.4552 23.7342 36.2154C23.8589 36.0955 23.9467 35.9858 24.0038 35.9052C24.0323 35.8649 24.0532 35.8317 24.0673 35.8082C24.0743 35.7966 24.0795 35.7871 24.0832 35.7804C24.085 35.777 24.0865 35.7744 24.0875 35.7725C24.088 35.7714 24.0884 35.7707 24.0888 35.7701C24.0889 35.7697 24.0891 35.7695 24.0892 35.7692C24.0892 35.7692 24.0893 35.769 24.0893 35.769C24.0894 35.7688 24.0894 35.7688 24.0894 35.7688C24.0894 35.7688 24.0894 35.7688 23.992 35.7205ZM25.3979 35.721C25.1069 35.7494 24.7623 35.7238 24.4864 35.6897C24.3493 35.6729 24.2309 35.6542 24.1468 35.6395C24.1048 35.6324 24.0714 35.6261 24.0486 35.6218C24.0372 35.6197 24.0285 35.6179 24.0227 35.6167C24.0198 35.6162 24.0176 35.6158 24.0162 35.6154C24.0155 35.6154 24.0149 35.6151 24.0146 35.6151C24.0144 35.6151 24.0143 35.6151 24.0143 35.6151C24.0142 35.6151 24.0142 35.6151 24.0142 35.6151C24.0142 35.6151 24.0142 35.6151 23.992 35.7205C23.9697 35.8259 23.9697 35.8259 23.9698 35.8261C23.9698 35.8261 23.9698 35.8261 23.9698 35.8261C23.9699 35.8261 23.9699 35.8261 23.97 35.8261C23.9701 35.8261 23.9703 35.8261 23.9705 35.8261C23.971 35.8264 23.9716 35.8264 23.9724 35.8266C23.9741 35.827 23.9766 35.8274 23.9797 35.8281C23.9861 35.8294 23.9954 35.8311 24.0073 35.8335C24.0312 35.838 24.0659 35.8445 24.1093 35.8518C24.1961 35.8669 24.3181 35.886 24.4594 35.9035C24.7403 35.9382 25.104 35.9664 25.4194 35.9356L25.3979 35.721ZM27.1522 34.8585C27.0532 34.8134 27.0533 34.8134 27.0533 34.8132C27.0533 34.8132 27.0533 34.8132 27.0533 34.8132C27.0534 34.8132 27.0534 34.8132 27.0534 34.813C27.0534 34.813 27.0534 34.813 27.0534 34.813C27.0534 34.8132 27.0532 34.8134 27.053 34.8139C27.0526 34.8147 27.0517 34.8164 27.0505 34.8188C27.048 34.8238 27.0439 34.8313 27.0381 34.8414C27.0264 34.8617 27.0078 34.8919 26.9812 34.9292C26.928 35.0035 26.8429 35.1054 26.7172 35.2119C26.4668 35.424 26.0518 35.6572 25.3979 35.721L25.4194 35.9356C26.1192 35.8671 26.5759 35.6154 26.859 35.3755C27 35.2561 27.0969 35.1406 27.1591 35.0537C27.1902 35.0102 27.2126 34.974 27.2276 34.9479C27.2351 34.935 27.2407 34.9244 27.2446 34.9169C27.2465 34.9132 27.248 34.9102 27.2491 34.9078C27.2497 34.9067 27.2501 34.9059 27.2505 34.905C27.2507 34.9048 27.2508 34.9044 27.2509 34.9042C27.251 34.9039 27.251 34.9039 27.2511 34.9037C27.2511 34.9037 27.2511 34.9037 27.2512 34.9037C27.2512 34.9035 27.2512 34.9035 27.1522 34.8585Z" fill="white"/>
</g>
<defs>
<clipPath id="clip0">
<rect width="17" height="25" fill="white" transform="translate(12.1133 12.2295)"/>
</clipPath>
</defs>
</svg>
