<svg width="17" height="12" viewBox="0 0 17 12" fill="none" xmlns="http://www.w3.org/2000/svg">
<path d="M8.5 5.95581L0 1.93874V0.992635C0 0.713456 0.105143 0.478223 0.31543 0.286934C0.525716 0.0956445 0.77474 0 1.0625 0H15.9375C16.2253 0 16.4743 0.0956445 16.6846 0.286934C16.8949 0.478223 17 0.713456 17 0.992635V1.93874L8.5 5.95581ZM7.96875 6.94845H9.03125L17 3.08647V10.919C17 11.1878 16.8949 11.4205 16.6846 11.6169C16.4743 11.8134 16.2253 11.9116 15.9375 11.9116H1.0625C0.77474 11.9116 0.525716 11.8134 0.31543 11.6169C0.105143 11.4205 0 11.1878 0 10.919V3.08647L7.96875 6.94845Z" fill="#1B1B25"/>
</svg>
