<svg width="24" height="24" viewBox="0 0 24 24" fill="none" xmlns="http://www.w3.org/2000/svg">
<path d="M21.8999 18.7536L21.6732 18.5536C21.0302 17.9807 20.4673 17.3236 19.9999 16.6003C19.4894 15.602 19.1834 14.5117 19.0999 13.3936V10.1003C19.1043 8.344 18.4672 6.64658 17.3084 5.32691C16.1495 4.00724 14.5486 3.15617 12.8065 2.93359V2.07359C12.8065 1.83755 12.7128 1.61118 12.5459 1.44427C12.379 1.27736 12.1526 1.18359 11.9165 1.18359C11.6805 1.18359 11.4541 1.27736 11.2872 1.44427C11.1203 1.61118 11.0265 1.83755 11.0265 2.07359V2.94693C9.30004 3.18555 7.71852 4.04176 6.57489 5.357C5.43126 6.67223 4.80302 8.35736 4.80654 10.1003V13.3936C4.72304 14.5117 4.41705 15.602 3.90654 16.6003C3.44712 17.3218 2.89333 17.9788 2.25987 18.5536L2.0332 18.7536V20.6336H21.8999V18.7536Z" fill="#1B1B25"/>
<path d="M10.2139 21.6338C10.2723 22.0564 10.4817 22.4435 10.8034 22.7238C11.1251 23.004 11.5373 23.1584 11.9639 23.1584C12.3905 23.1584 12.8027 23.004 13.1243 22.7238C13.446 22.4435 13.6554 22.0564 13.7139 21.6338H10.2139Z" fill="#1B1B25"/>
</svg>
