<svg width="20" height="15" viewBox="0 0 20 15" fill="none" xmlns="http://www.w3.org/2000/svg">
<path d="M19 0.230469H1C0.447812 0.230469 0 0.678281 0 1.23047V13.2305C0 13.7827 0.447812 14.2305 1 14.2305H19C19.5522 14.2305 20 13.7827 20 13.2305V1.23047C20 0.678281 19.5522 0.230469 19 0.230469ZM5.5 9.47672V9.98047C5.5 10.1186 5.38812 10.2305 5.25 10.2305H4.75C4.61188 10.2305 4.5 10.1186 4.5 9.98047V9.47141C4.14719 9.45328 3.80406 9.33015 3.51969 9.11672C3.39781 9.02516 3.39156 8.84266 3.50187 8.73734L3.86906 8.38703C3.95562 8.30453 4.08437 8.30078 4.18563 8.36422C4.30656 8.43984 4.44375 8.48047 4.58625 8.48047H5.46469C5.66781 8.48047 5.83344 8.29547 5.83344 8.06828C5.83344 7.88234 5.72062 7.71859 5.55937 7.67047L4.15312 7.24859C3.57219 7.07422 3.16625 6.51672 3.16625 5.89266C3.16625 5.12641 3.76156 4.50391 4.49969 4.48422V3.98047C4.49969 3.84234 4.61156 3.73047 4.74969 3.73047H5.24969C5.38781 3.73047 5.49969 3.84234 5.49969 3.98047V4.48953C5.8525 4.50766 6.19562 4.63047 6.48 4.84422C6.60187 4.93578 6.60812 5.11828 6.49781 5.22359L6.13062 5.57391C6.04406 5.65641 5.91531 5.66016 5.81406 5.59672C5.69313 5.52078 5.55594 5.48047 5.41344 5.48047H4.535C4.33187 5.48047 4.16625 5.66547 4.16625 5.89266C4.16625 6.07859 4.27906 6.24234 4.44031 6.29047L5.84656 6.71234C6.4275 6.88672 6.83344 7.44422 6.83344 8.06828C6.83344 8.83484 6.23812 9.45703 5.5 9.47672ZM13 8.98047C13 9.11859 12.8881 9.23047 12.75 9.23047H9.25C9.11187 9.23047 9 9.11859 9 8.98047V8.48047C9 8.34234 9.11187 8.23047 9.25 8.23047H12.75C12.8881 8.23047 13 8.34234 13 8.48047V8.98047ZM18 8.98047C18 9.11859 17.8881 9.23047 17.75 9.23047H15.25C15.1119 9.23047 15 9.11859 15 8.98047V8.48047C15 8.34234 15.1119 8.23047 15.25 8.23047H17.75C17.8881 8.23047 18 8.34234 18 8.48047V8.98047ZM18 5.98047C18 6.11859 17.8881 6.23047 17.75 6.23047H9.25C9.11187 6.23047 9 6.11859 9 5.98047V5.48047C9 5.34234 9.11187 5.23047 9.25 5.23047H17.75C17.8881 5.23047 18 5.34234 18 5.48047V5.98047Z" fill="#00C5FF"/>
</svg>
