<svg width="20" height="20" viewBox="0 0 20 20" fill="none" xmlns="http://www.w3.org/2000/svg">
<path d="M9.1665 14.9998H10.8332V13.3332H9.1665V14.9998ZM9.99984 1.6665C8.90549 1.6665 7.82186 1.88205 6.81081 2.30084C5.79976 2.71963 4.8811 3.33346 4.10728 4.10728C2.54448 5.67008 1.6665 7.7897 1.6665 9.99984C1.6665 12.21 2.54448 14.3296 4.10728 15.8924C4.8811 16.6662 5.79976 17.28 6.81081 17.6988C7.82186 18.1176 8.90549 18.3332 9.99984 18.3332C12.21 18.3332 14.3296 17.4552 15.8924 15.8924C17.4552 14.3296 18.3332 12.21 18.3332 9.99984C18.3332 8.90549 18.1176 7.82186 17.6988 6.81081C17.28 5.79976 16.6662 4.8811 15.8924 4.10728C15.1186 3.33346 14.1999 2.71963 13.1889 2.30084C12.1778 1.88205 11.0942 1.6665 9.99984 1.6665ZM9.99984 16.6665C6.32484 16.6665 3.33317 13.6748 3.33317 9.99984C3.33317 6.32484 6.32484 3.33317 9.99984 3.33317C13.6748 3.33317 16.6665 6.32484 16.6665 9.99984C16.6665 13.6748 13.6748 16.6665 9.99984 16.6665ZM9.99984 4.99984C9.11578 4.99984 8.26794 5.35103 7.64281 5.97615C7.01769 6.60127 6.6665 7.44912 6.6665 8.33317H8.33317C8.33317 7.89114 8.50877 7.46722 8.82133 7.15466C9.13389 6.8421 9.55781 6.6665 9.99984 6.6665C10.4419 6.6665 10.8658 6.8421 11.1783 7.15466C11.4909 7.46722 11.6665 7.89114 11.6665 8.33317C11.6665 9.99984 9.1665 9.7915 9.1665 12.4998H10.8332C10.8332 10.6248 13.3332 10.4165 13.3332 8.33317C13.3332 7.44912 12.982 6.60127 12.3569 5.97615C11.7317 5.35103 10.8839 4.99984 9.99984 4.99984Z" fill="#00C5FF"/>
</svg>
