<svg width="20" height="14" viewBox="0 0 20 14" fill="none" xmlns="http://www.w3.org/2000/svg">
<path d="M19 -3.05176e-05H1C0.447812 -3.05176e-05 0 0.447782 0 0.999969V13C0 13.5522 0.447812 14 1 14H19C19.5522 14 20 13.5522 20 13V0.999969C20 0.447782 19.5522 -3.05176e-05 19 -3.05176e-05ZM5.5 9.24622V9.74997C5.5 9.88809 5.38812 9.99997 5.25 9.99997H4.75C4.61188 9.99997 4.5 9.88809 4.5 9.74997V9.24091C4.14719 9.22278 3.80406 9.09966 3.51969 8.88622C3.39781 8.79466 3.39156 8.61216 3.50187 8.50684L3.86906 8.15653C3.95562 8.07403 4.08437 8.07028 4.18563 8.13372C4.30656 8.20934 4.44375 8.24997 4.58625 8.24997H5.46469C5.66781 8.24997 5.83344 8.06497 5.83344 7.83778C5.83344 7.65184 5.72062 7.48809 5.55937 7.43997L4.15312 7.01809C3.57219 6.84372 3.16625 6.28622 3.16625 5.66216C3.16625 4.89591 3.76156 4.27341 4.49969 4.25372V3.74997C4.49969 3.61184 4.61156 3.49997 4.74969 3.49997H5.24969C5.38781 3.49997 5.49969 3.61184 5.49969 3.74997V4.25903C5.8525 4.27716 6.19562 4.39997 6.48 4.61372C6.60187 4.70528 6.60812 4.88778 6.49781 4.99309L6.13062 5.34341C6.04406 5.42591 5.91531 5.42966 5.81406 5.36622C5.69313 5.29028 5.55594 5.24997 5.41344 5.24997H4.535C4.33187 5.24997 4.16625 5.43497 4.16625 5.66216C4.16625 5.84809 4.27906 6.01184 4.44031 6.05997L5.84656 6.48184C6.4275 6.65622 6.83344 7.21372 6.83344 7.83778C6.83344 8.60434 6.23812 9.22653 5.5 9.24622ZM13 8.74997C13 8.88809 12.8881 8.99997 12.75 8.99997H9.25C9.11187 8.99997 9 8.88809 9 8.74997V8.24997C9 8.11184 9.11187 7.99997 9.25 7.99997H12.75C12.8881 7.99997 13 8.11184 13 8.24997V8.74997ZM18 8.74997C18 8.88809 17.8881 8.99997 17.75 8.99997H15.25C15.1119 8.99997 15 8.88809 15 8.74997V8.24997C15 8.11184 15.1119 7.99997 15.25 7.99997H17.75C17.8881 7.99997 18 8.11184 18 8.24997V8.74997ZM18 5.74997C18 5.88809 17.8881 5.99997 17.75 5.99997H9.25C9.11187 5.99997 9 5.88809 9 5.74997V5.24997C9 5.11184 9.11187 4.99997 9.25 4.99997H17.75C17.8881 4.99997 18 5.11184 18 5.24997V5.74997Z" fill="white"/>
</svg>
