<svg width="18" height="18" viewBox="0 0 18 18" fill="none" xmlns="http://www.w3.org/2000/svg">
<path d="M15.1457 11.5858C15.6864 10.301 15.8109 8.87914 15.5016 7.51999C15.1923 6.16084 14.4649 4.93279 13.4215 4.00851C12.3781 3.08422 11.0713 2.51018 9.68473 2.3671C8.2982 2.22401 6.90169 2.51907 5.69154 3.2108L4.86487 1.7633C6.12956 1.04048 7.56169 0.661935 9.01837 0.665445C10.475 0.668954 11.9053 1.05439 13.1665 1.7833C16.9082 3.9433 18.3415 8.5683 16.5974 12.425L17.7157 13.07L14.2449 14.915L14.1074 10.9866L15.1457 11.5858ZM2.85404 6.41413C2.31332 7.69888 2.18886 9.12078 2.49813 10.4799C2.80741 11.8391 3.53488 13.0671 4.57826 13.9914C5.62165 14.9157 6.92847 15.4897 8.315 15.6328C9.70154 15.7759 11.0981 15.4809 12.3082 14.7891L13.1349 16.2366C11.8702 16.9595 10.438 17.338 8.98137 17.3345C7.52469 17.331 6.0944 16.9455 4.8332 16.2166C1.09154 14.0566 -0.341797 9.43163 1.40237 5.57496L0.283203 4.9308L3.75404 3.0858L3.89154 7.01413L2.8532 6.41496L2.85404 6.41413Z" fill="white"/>
</svg>
