<svg width="18" height="18" viewBox="0 0 18 18" fill="none" xmlns="http://www.w3.org/2000/svg">
<path d="M1.39169 9.64889L0 11.0406L4.87091 13.1281L6.95943 18L8.35111 16.6083L7.65527 13.1281L10.916 9.86738L14.469 17.4498L15.7869 16.1319L14.6157 6.16868L17.3991 3.38432C17.5871 3.20274 17.737 2.98553 17.8402 2.74537C17.9434 2.50521 17.9977 2.24691 17.9999 1.98555C18.0022 1.72418 17.9524 1.46497 17.8534 1.22306C17.7544 0.981146 17.6083 0.761366 17.4235 0.576544C17.2386 0.391721 17.0189 0.245558 16.7769 0.146583C16.535 0.0476083 16.2758 -0.0021969 16.0145 7.43216e-05C15.7531 0.00234554 15.4948 0.0566478 15.2546 0.159812C15.0145 0.262976 14.7973 0.412936 14.6157 0.600942L11.7585 3.45814L1.79522 2.28593L0.550179 3.53195L8.07356 7.14404L4.87189 10.3457L1.39169 9.64889Z" fill="white"/>
</svg>
