<svg width="20" height="23" viewBox="0 0 20 23" fill="none" xmlns="http://www.w3.org/2000/svg">
<g clip-path="url(#clip0)">
<path fill-rule="evenodd" clip-rule="evenodd" d="M8.75 0C8.45413 0 8.21429 0.246093 8.21429 0.549662V0.916104C8.21429 1.21967 8.45413 1.46577 8.75 1.46577H9.55357V2.6469C9.24771 2.82068 8.83214 3.11094 8.45309 3.48178C7.94464 3.97919 7.41071 4.71086 7.41071 5.58824C7.41071 6.61271 7.90234 7.33812 8.56882 7.75033L2.67857 10.9932H4.50893L9.69782 8.13647C9.79859 8.1477 9.89957 8.15333 10 8.15333C10.1043 8.15333 10.2068 8.14873 10.3073 8.13926L15.4911 10.9932H17.3214L11.4409 7.75568C11.5043 7.71402 11.5663 7.6688 11.6267 7.61992C12.0824 7.25151 12.412 6.70828 12.6526 6.01712C12.7355 5.7789 12.6145 5.51678 12.3823 5.43169C12.1501 5.34662 11.8946 5.47077 11.8117 5.70901C11.6059 6.3004 11.3551 6.67327 11.0742 6.90033C10.893 7.0468 10.6818 7.14678 10.4275 7.19778L10 6.96239L9.5822 7.19243C8.87268 7.03649 8.30357 6.47803 8.30357 5.58824C8.30357 5.09145 8.61786 4.58638 9.06923 4.14478C9.51368 3.70998 10.0023 3.42394 10.1658 3.35683L10.4464 3.24165V2.93153V1.46577H11.25C11.5459 1.46577 11.7857 1.21967 11.7857 0.916104V0.549662C11.7857 0.246093 11.5459 0 11.25 0H8.75ZM1.96429 11.5429H0V22.3529H1.96429V11.5429ZM3.03571 11.5429H4.46429V22.3529H3.03571V11.5429ZM6.96429 11.5429H5.53571V22.3529H6.96429V11.5429ZM8.03571 22.3529V11.5429H9.46429V22.3529H8.03571ZM11.9643 22.3529V11.5429H10.5357V22.3529H11.9643ZM15.5357 11.5429H16.9643V22.3529H15.5357V11.5429ZM14.4643 11.5429H13.0357V22.3529H14.4643V11.5429ZM18.0357 11.5429H20V22.3529H18.0357V11.5429Z" fill="white"/>
</g>
<defs>
<clipPath id="clip0">
<rect width="20" height="22.3529" fill="white"/>
</clipPath>
</defs>
</svg>
