<svg width="20" height="15" viewBox="0 0 20 15" fill="none" xmlns="http://www.w3.org/2000/svg">
<path d="M13.3035 8.00005C12.7753 8.00005 12.2785 7.7188 12.0097 7.2688L10.0003 3.93755L7.9941 7.2688C7.72222 7.72192 7.22535 8.00317 6.69722 8.00317C6.5566 8.00317 6.41597 7.98442 6.2816 7.9438L2.00035 6.7188V12.2813C2.00035 12.7407 2.31285 13.1407 2.7566 13.25L9.51285 14.9407C9.8316 15.0188 10.166 15.0188 10.4816 14.9407L17.2441 13.25C17.6878 13.1375 18.0003 12.7375 18.0003 12.2813V6.7188L13.7191 7.94067C13.5847 7.9813 13.4441 8.00005 13.3035 8.00005ZM19.9472 4.4938L18.3378 1.2813C18.241 1.08755 18.0316 0.975049 17.816 1.00317L10.0003 2.00005L12.866 6.75317C12.9847 6.95005 13.2222 7.0438 13.4441 6.9813L19.6285 5.21567C19.9378 5.12505 20.0878 4.7813 19.9472 4.4938ZM1.66285 1.2813L0.0534711 4.4938C-0.0902789 4.7813 0.0628461 5.12505 0.369096 5.21255L6.55347 6.97817C6.77535 7.04067 7.01285 6.94692 7.1316 6.75005L10.0003 2.00005L2.1816 1.00317C1.96597 0.978174 1.75972 1.08755 1.66285 1.2813Z" fill="white"/>
</svg>
