<svg width="20" height="17" viewBox="0 0 20 17" fill="none" xmlns="http://www.w3.org/2000/svg">
<path fill-rule="evenodd" clip-rule="evenodd" d="M5.63877 0L6.26158 1H16C16.5523 1 17 1.44772 17 2V2.40488V3V3.6878V4.16732L18.0013 4.16866C18.5531 4.1694 19 4.6169 19 5.16866V6.9999H17V7.2878H20L16.2892 16.3779C16.1356 16.7541 15.7697 17 15.3634 17H1C0.447715 17 0 16.5523 0 16V0H5.63877Z" fill="#00C5FF"/>
<path fill-rule="evenodd" clip-rule="evenodd" d="M4.20032 4.18799V5.35628C4.20032 5.63242 3.97646 5.85628 3.70032 5.85628H2.50001L2.50018 12.3354L4.53389 7.10674C4.60863 6.91456 4.79368 6.78799 4.99988 6.78799H5.40296V5.7075C5.40296 5.43136 5.62682 5.2075 5.90296 5.2075C6.1791 5.2075 6.40296 5.43136 6.40296 5.7075V6.78799H7.69371V5.7075C7.69371 5.43136 7.91757 5.2075 8.19371 5.2075C8.46985 5.2075 8.69371 5.43136 8.69371 5.7075V6.78799H10.0726V5.7075C10.0726 5.43136 10.2964 5.2075 10.5726 5.2075C10.8487 5.2075 11.0726 5.43136 11.0726 5.7075V6.78799H12.3633V5.7075C12.3633 5.43136 12.5872 5.2075 12.8633 5.2075C13.1395 5.2075 13.3633 5.43136 13.3633 5.7075V6.78799H14.7422V5.7075C14.7422 5.43136 14.966 5.2075 15.2422 5.2075C15.5183 5.2075 15.7422 5.43136 15.7422 5.7075V6.78799H17V5.7075C17 5.43136 17.2239 5.2075 17.5 5.2075C17.7761 5.2075 18 5.43136 18 5.7075V6.78799H19.9998V7.78799H17.5H15.2422H12.8633H10.5726H8.19371H5.90296H5.34189L2.46624 15.1812C2.37903 15.4055 2.1445 15.5358 1.90804 15.4914C1.67159 15.4471 1.50025 15.2406 1.50024 15L1.5 5.35629C1.5 5.22203 1.55399 5.09341 1.64982 4.99938L3.35014 3.33109C3.44641 3.23663 3.57434 3.18703 3.70411 3.18799L4.20032 4.18799ZM4.20032 4.18799H19H19.5V3.18799H19H4.19966H3.70411" fill="black"/>
<mask id="mask0"  x="2" y="4" width="2" height="1">
<path d="M3.5 4L2.5 5H3.5V4Z" fill="white"/>
</mask>
<g mask="url(#mask0)">
<path d="M2.50015 4.99999L1.79304 4.29288L0.0859375 5.99999H2.50015V4.99999ZM3.50015 3.99999H4.50015V1.58578L2.79304 3.29288L3.50015 3.99999ZM3.50015 4.99999V5.99999H4.50015V4.99999H3.50015ZM3.20726 5.7071L4.20726 4.7071L2.79304 3.29288L1.79304 4.29288L3.20726 5.7071ZM2.50015 3.99999V4.99999H4.50015V3.99999H2.50015ZM3.50015 3.99999H2.50015V5.99999H3.50015V3.99999Z" fill="#00C5FF"/>
</g>
</svg>
