<svg width="18" height="18" viewBox="0 0 18 18" fill="none" xmlns="http://www.w3.org/2000/svg">
<path d="M14.1663 13.1667V14.8333C14.1663 15.0543 14.2541 15.2663 14.4104 15.4226C14.5667 15.5789 14.7787 15.6667 14.9997 15.6667C15.2207 15.6667 15.4327 15.5789 15.5889 15.4226C15.7452 15.2663 15.833 15.0543 15.833 14.8333V2.33333H4.16634V11.5H2.49967V1.5C2.49967 1.27899 2.58747 1.06702 2.74375 0.910745C2.90003 0.754464 3.11199 0.666667 3.33301 0.666667H16.6663C16.8874 0.666667 17.0993 0.754464 17.2556 0.910745C17.4119 1.06702 17.4997 1.27899 17.4997 1.5V14.8333C17.4997 15.4964 17.2363 16.1323 16.7674 16.6011C16.2986 17.0699 15.6627 17.3333 14.9997 17.3333H3.33301C2.66997 17.3333 2.03408 17.0699 1.56524 16.6011C1.0964 16.1323 0.833008 15.4964 0.833008 14.8333V13.1667H14.1663Z" fill="white"/>
</svg>
