<svg width="18" height="18" viewBox="0 0 18 18" fill="none" xmlns="http://www.w3.org/2000/svg">
<path d="M14.1668 13.1665V14.8332C14.1668 15.0542 14.2546 15.2661 14.4109 15.4224C14.5672 15.5787 14.7791 15.6665 15.0002 15.6665C15.2212 15.6665 15.4331 15.5787 15.5894 15.4224C15.7457 15.2661 15.8335 15.0542 15.8335 14.8332V2.33317H4.16683V11.4998H2.50016V1.49984C2.50016 1.27882 2.58796 1.06686 2.74424 0.910582C2.90052 0.754301 3.11248 0.666504 3.3335 0.666504H16.6668C16.8878 0.666504 17.0998 0.754301 17.2561 0.910582C17.4124 1.06686 17.5002 1.27882 17.5002 1.49984V14.8332C17.5002 15.4962 17.2368 16.1321 16.7679 16.6009C16.2991 17.0698 15.6632 17.3332 15.0002 17.3332H3.3335C2.67045 17.3332 2.03457 17.0698 1.56573 16.6009C1.09689 16.1321 0.833496 15.4962 0.833496 14.8332V13.1665H14.1668Z" fill="#00C5FF"/>
</svg>
