<svg width="16" height="17" viewBox="0 0 16 17" fill="none" xmlns="http://www.w3.org/2000/svg">
<path d="M13.9502 9.31459C13.9835 9.06459 14.0002 8.80625 14.0002 8.53125C14.0002 8.26459 13.9835 7.99792 13.9419 7.74792L15.6335 6.43125C15.7064 6.37117 15.7563 6.28767 15.7745 6.19498C15.7927 6.10228 15.7783 6.00614 15.7335 5.92292L14.1335 3.15625C14.0864 3.07256 14.0112 3.00823 13.9212 2.97468C13.8312 2.94112 13.7323 2.9405 13.6419 2.97292L11.6502 3.77292C11.2335 3.45625 10.7919 3.18959 10.3002 2.98959L10.0002 0.872919C9.98546 0.777527 9.93698 0.690592 9.86358 0.627899C9.79019 0.565207 9.69674 0.530915 9.60021 0.531252H6.40021C6.20021 0.531252 6.04188 0.672919 6.00855 0.872919L5.70855 2.98959C5.21688 3.18959 4.76688 3.46459 4.35855 3.77292L2.36688 2.97292C2.18355 2.90625 1.97521 2.97292 1.87521 3.15625L0.283548 5.92292C0.183548 6.09792 0.216881 6.31459 0.383547 6.43125L2.07521 7.74792C2.03355 7.99792 2.00021 8.27292 2.00021 8.53125C2.00021 8.78959 2.01688 9.06459 2.05855 9.31459L0.366881 10.6313C0.293984 10.6913 0.244176 10.7748 0.225941 10.8675C0.207707 10.9602 0.222175 11.0564 0.266881 11.1396L1.86688 13.9063C1.96688 14.0896 2.17521 14.1479 2.35855 14.0896L4.35021 13.2896C4.76688 13.6063 5.20855 13.8729 5.70021 14.0729L6.00022 16.1896C6.04188 16.3896 6.20021 16.5313 6.40021 16.5313H9.60021C9.80021 16.5313 9.96688 16.3896 9.99188 16.1896L10.2919 14.0729C10.7835 13.8729 11.2335 13.6063 11.6419 13.2896L13.6335 14.0896C13.8169 14.1563 14.0252 14.0896 14.1252 13.9063L15.7252 11.1396C15.8252 10.9563 15.7835 10.7479 15.6252 10.6313L13.9502 9.31459ZM8.00021 11.5313C6.35021 11.5313 5.00021 10.1813 5.00021 8.53125C5.00021 6.88125 6.35021 5.53125 8.00021 5.53125C9.65021 5.53125 11.0002 6.88125 11.0002 8.53125C11.0002 10.1813 9.65021 11.5313 8.00021 11.5313Z" fill="#00C5FF"/>
</svg>
