<svg width="16" height="16" viewBox="0 0 16 16" fill="none" xmlns="http://www.w3.org/2000/svg">
<path d="M13.9497 8.78335C13.9831 8.53335 13.9997 8.27502 13.9997 8.00002C13.9997 7.73335 13.9831 7.46669 13.9414 7.21669L15.6331 5.90002C15.706 5.83993 15.7558 5.75643 15.774 5.66374C15.7922 5.57105 15.7778 5.4749 15.7331 5.39169L14.1331 2.62502C14.086 2.54132 14.0107 2.477 13.9208 2.44344C13.8308 2.40989 13.7318 2.40926 13.6414 2.44168L11.6497 3.24168C11.2331 2.92502 10.7914 2.65835 10.2997 2.45835L9.99973 0.341684C9.98497 0.246293 9.93649 0.159357 9.86309 0.0966645C9.7897 0.033972 9.69625 -0.000319329 9.59973 1.772e-05H6.39973C6.19973 1.772e-05 6.04139 0.141684 6.00806 0.341684L5.70806 2.45835C5.21639 2.65835 4.76639 2.93335 4.35806 3.24168L2.36639 2.44168C2.18306 2.37502 1.97473 2.44168 1.87473 2.62502L0.283059 5.39169C0.183059 5.56668 0.216393 5.78335 0.383059 5.90002L2.07473 7.21669C2.03306 7.46669 1.99973 7.74169 1.99973 8.00002C1.99973 8.25835 2.01639 8.53335 2.05806 8.78335L0.366393 10.1C0.293496 10.1601 0.243687 10.2436 0.225453 10.3363C0.207219 10.429 0.221687 10.5251 0.266393 10.6084L1.86639 13.375C1.96639 13.5584 2.17473 13.6167 2.35806 13.5584L4.34973 12.7584C4.76639 13.075 5.20806 13.3417 5.69973 13.5417L5.99973 15.6584C6.04139 15.8584 6.19973 16 6.39973 16H9.59973C9.79973 16 9.96639 15.8584 9.99139 15.6584L10.2914 13.5417C10.7831 13.3417 11.2331 13.075 11.6414 12.7584L13.6331 13.5584C13.8164 13.625 14.0247 13.5584 14.1247 13.375L15.7247 10.6084C15.8247 10.425 15.7831 10.2167 15.6247 10.1L13.9497 8.78335ZM7.99973 11C6.34973 11 4.99973 9.65002 4.99973 8.00002C4.99973 6.35002 6.34973 5.00002 7.99973 5.00002C9.64973 5.00002 10.9997 6.35002 10.9997 8.00002C10.9997 9.65002 9.64973 11 7.99973 11Z" fill="white"/>
</svg>
