<svg width="18" height="18" viewBox="0 0 18 18" fill="none" xmlns="http://www.w3.org/2000/svg">
<path d="M8.16699 14H9.83366V12.3333H8.16699V14ZM9.00033 0.666656C7.90598 0.666656 6.82234 0.882205 5.8113 1.30099C4.80025 1.71978 3.88159 2.33361 3.10777 3.10743C1.54497 4.67024 0.666992 6.78985 0.666992 8.99999C0.666992 11.2101 1.54497 13.3297 3.10777 14.8925C3.88159 15.6664 4.80025 16.2802 5.8113 16.699C6.82234 17.1178 7.90598 17.3333 9.00033 17.3333C11.2105 17.3333 13.3301 16.4553 14.8929 14.8925C16.4557 13.3297 17.3337 11.2101 17.3337 8.99999C17.3337 7.90564 17.1181 6.82201 16.6993 5.81096C16.2805 4.79991 15.6667 3.88125 14.8929 3.10743C14.1191 2.33361 13.2004 1.71978 12.1894 1.30099C11.1783 0.882205 10.0947 0.666656 9.00033 0.666656ZM9.00033 15.6667C5.32533 15.6667 2.33366 12.675 2.33366 8.99999C2.33366 5.32499 5.32533 2.33332 9.00033 2.33332C12.6753 2.33332 15.667 5.32499 15.667 8.99999C15.667 12.675 12.6753 15.6667 9.00033 15.6667ZM9.00033 3.99999C8.11627 3.99999 7.26842 4.35118 6.6433 4.9763C6.01818 5.60142 5.66699 6.44927 5.66699 7.33332H7.33366C7.33366 6.8913 7.50925 6.46737 7.82182 6.15481C8.13438 5.84225 8.5583 5.66666 9.00033 5.66666C9.44235 5.66666 9.86628 5.84225 10.1788 6.15481C10.4914 6.46737 10.667 6.8913 10.667 7.33332C10.667 8.99999 8.16699 8.79166 8.16699 11.5H9.83366C9.83366 9.62499 12.3337 9.41666 12.3337 7.33332C12.3337 6.44927 11.9825 5.60142 11.3573 4.9763C10.7322 4.35118 9.88438 3.99999 9.00033 3.99999Z" fill="white"/>
</svg>
