<svg width="198" height="40" viewBox="0 0 198 40" fill="none" xmlns="http://www.w3.org/2000/svg">
<path fill-rule="evenodd" clip-rule="evenodd" d="M65.6272 29.4013L59.5604 15.3833H56.6913L50.6289 29.4013H53.7867L55.1191 26.26H61.1015L62.394 29.3795L65.6272 29.4013ZM59.969 23.5812H56.2072L58.0903 19.0743L59.969 23.5812ZM83.9521 27.1588L81.9713 25.1911C81.4665 25.6442 80.9054 26.0326 80.3013 26.3473C79.6642 26.656 78.9595 26.8058 78.2495 26.7835C77.6889 26.7876 77.134 26.6728 76.6228 26.4469C76.1115 26.221 75.6559 25.8894 75.2871 25.4747C74.9245 25.0656 74.6401 24.5956 74.4477 24.0873C74.2456 23.5466 74.1433 22.9748 74.1457 22.3988V22.3596C74.1421 21.7863 74.2444 21.2172 74.4477 20.6798C74.642 20.1731 74.9295 19.7057 75.296 19.3012C75.6682 18.8956 76.1242 18.5726 76.6334 18.3537C77.1427 18.1347 77.6936 18.0249 78.2495 18.0316C78.9176 18.0293 79.5772 18.1786 80.177 18.4678C80.7905 18.7741 81.3584 19.1617 81.8647 19.6197L83.8455 17.3771C83.52 17.0596 83.1696 16.7679 82.7974 16.5045C82.4119 16.2359 81.9979 16.0092 81.5627 15.8283C81.0832 15.6334 80.5846 15.4872 80.0748 15.392C79.4789 15.2825 78.8735 15.2299 78.2672 15.2349C77.2424 15.2226 76.2257 15.4141 75.2782 15.7978C74.4048 16.1558 73.6134 16.6825 72.951 17.3466C71.6161 18.7088 70.8765 20.5299 70.8902 22.4206V22.4599C70.8834 23.4197 71.069 24.3715 71.4365 25.2609C71.7822 26.1119 72.2985 26.886 72.9546 27.5373C73.6107 28.1886 74.3933 28.7038 75.256 29.0523C76.1715 29.4276 77.1553 29.6162 78.1473 29.6063C78.7717 29.6113 79.395 29.5558 80.0082 29.4406C80.5344 29.335 81.0458 29.168 81.5316 28.9432C81.9885 28.7303 82.4192 28.4669 82.8151 28.1579C83.2171 27.8416 83.5956 27.4975 83.9477 27.1282L83.9521 27.1588ZM100.891 29.4013V26.6788H93.2122V23.7295H99.8742V21.0114H93.2122V18.193H100.794V15.4705H90.1344V29.4013H100.891ZM121.539 29.4013V15.4793H118.186L114.468 21.3561L110.751 15.4793H107.393V29.4013H110.467V20.3657L114.406 26.2425H114.486L118.483 20.3046V29.4013H121.539ZM142.413 29.4013L136.351 15.4051H133.482L127.428 29.4013H130.621L131.914 26.2818H137.896L139.193 29.4013H142.413ZM136.755 23.5812H132.998L134.876 19.0743L136.755 23.5812ZM160.272 15.5011H156.914L153.214 25.2914L149.519 15.5011H146.082L151.802 29.4973H154.551L160.272 15.5011ZM177.93 29.4013V26.6788H170.251V23.7295H176.913V21.0114H170.251V18.193H177.833V15.4705H167.173V29.4013H177.93ZM197.001 29.4013V15.4793H193.928V24.0393L187.297 15.4793H184.428V29.4013H187.501V20.5446L194.35 29.4013H197.001Z" fill="#37414B"/>
<path fill-rule="evenodd" clip-rule="evenodd" d="M17.6009 21.0546V29.2525L15.176 30.6268V2.18942L18.6313 0.230469V21.6436L17.6009 21.0546ZM12.5423 18.1053V32.1189L10.1173 33.4933V5.06021L13.5771 3.10126V18.703L12.5423 18.1053ZM26.5369 18.1053V32.1189L28.9618 33.4933V5.06021L25.5065 3.10126V18.6986L26.5369 18.1053ZM21.4738 21.0546V29.2525L23.9032 30.6268V2.18942L20.4478 0.230469V21.6436L21.4782 21.0546H21.4738ZM36.6542 12.2023V37.8562L39.0791 39.2305V10.8018L35.6238 8.84284V12.8218L36.6542 12.2197V12.2023ZM31.5778 34.9854L34.0249 36.3815V7.93099L30.5696 5.97641V15.7493L31.5778 15.1647V34.9854ZM7.48806 15.156V34.9854L5.05422 36.3815V7.93099L8.514 5.97205V15.7537L7.48806 15.156ZM2.42496 37.8431L0 39.2174V10.8018L3.45534 8.84284V12.8218L2.42496 12.2241V37.8431Z" fill="#00CCFF"/>
</svg>
