<svg width="248" height="30" viewBox="0 0 248 30" fill="none" xmlns="http://www.w3.org/2000/svg">
<path fill-rule="evenodd" clip-rule="evenodd" d="M13.9415 1.91088e-08L11.6381 1.32923V14.6165L13.9415 15.9171V1.91088e-08ZM15.275 15.9171L17.8209 14.4796V1.46915L15.275 0V15.9171ZM3.87937 5.80666L6.54644 4.26755V11.7417L3.87937 10.2358V5.80666ZM7.75874 12.4262V3.56794L10.4258 2.02883V13.9321L7.75874 12.4262ZM21.7002 12.2892L19.0332 13.7951V2.16876L21.7002 3.70787V12.2892ZM22.9125 4.40746V11.6048L25.5796 10.0989V5.94658L22.9125 4.40746ZM29.2165 8.04537L26.7919 9.41437V6.64617L29.2165 8.04537ZM2.66707 6.50626L0 8.04537L2.66707 9.55126V6.50626Z" fill="#1AB8E6"/>
<mask id="mask0" x="0" y="7" width="30" height="23">
<path d="M14.6083 21.5695L0 29.9996V7.49902L29.2165 7.98421V29.9996L14.6083 21.5695Z" fill="#1AB8E6"/>
</mask>
<g mask="url(#mask0)">
<path d="M0 8.04492H1.93968V30.1816H0V8.04492Z" fill="#1AB8E6"/>
<path d="M5.81859 8.59082H3.87891V30.6669H5.81859V8.59082Z" fill="#1AB8E6"/>
<path d="M9.6975 8.95508H7.75781V31.0312H9.6975V8.95508Z" fill="#1AB8E6"/>
<path d="M13.5803 8.95508H11.6406V31.0312H13.5803V8.95508Z" fill="#1AB8E6"/>
<path d="M17.5803 6.77148H15.6406V28.8476H17.5803V6.77148Z" fill="#1AB8E6"/>
<path d="M21.4553 7.49902H19.5156V29.5751H21.4553V7.49902Z" fill="#1AB8E6"/>
<path d="M25.3381 7.86328H23.3984V29.9394H25.3381V7.86328Z" fill="#1AB8E6"/>
<path d="M27.2773 8.04492H29.217V29.939H27.2773V8.04492Z" fill="#1AB8E6"/>
</g>
<path d="M38 27.5227L45.5981 7.47727H50.1121L57.5981 27.5227H53.028L51.514 23.0588H44.028L42.4579 27.5227H38ZM47.785 12.4184L45.1776 19.7741H50.3645L47.8411 12.4184H47.785ZM84.4084 14.2152H80.1467C80.0159 13.2233 79.5299 12.3904 78.6888 11.7166C77.8477 11.0428 76.8757 10.7059 75.7729 10.7059C73.9224 10.7059 72.5206 11.4171 71.5673 12.8396C70.7449 14.0561 70.3336 15.6377 70.3336 17.5842C70.3336 19.4559 70.7449 20.9906 71.5673 22.1885C72.5392 23.5922 73.9411 24.2941 75.7729 24.2941C77.0813 24.2941 78.1374 23.873 78.9411 23.0307C79.6888 22.2446 80.1467 21.1684 80.3149 19.8021H84.5766C84.3523 22.2914 83.4364 24.2848 81.829 25.7821C80.2402 27.2607 78.2215 28 75.7729 28C72.7635 28 70.3523 26.9893 68.5392 24.9679C66.8009 23.0401 65.9318 20.5789 65.9318 17.5842C65.9318 14.5147 66.8009 12.0067 68.5392 10.0602C70.3336 8.02005 72.7449 7 75.7729 7C78.0533 7 79.9785 7.62701 81.5486 8.88102C83.1935 10.1912 84.1467 11.9693 84.4084 14.2152ZM95.0593 27.5227V7.47727H110.031V11.1832H99.4612V15.4786H109.162V18.9037H99.4612V23.8168H110.256V27.5227H95.0593ZM120.716 27.5227V7.47727H126.913L131.595 21.262H131.651L136.081 7.47727H142.277V27.5227H138.156V13.3168H138.1L133.193 27.5227H129.8L124.894 13.4572H124.838V27.5227H120.716ZM151.498 27.5227L159.096 7.47727H163.611L171.096 27.5227H166.526L165.012 23.0588H157.526L155.956 27.5227H151.498ZM161.283 12.4184L158.676 19.7741H163.863L161.339 12.4184H161.283ZM196.253 7.47727L189.608 27.5227H184.645L178.141 7.47727H182.683L187.141 21.5709H187.197L191.711 7.47727H196.253ZM205.436 27.5227V7.47727H220.408V11.1832H209.838V15.4786H219.539V18.9037H209.838V23.8168H220.633V27.5227H205.436ZM231.093 27.5227V7.47727H235.467L243.822 20.9251H243.878V7.47727H248V27.5227H243.598L235.271 14.1029H235.215V27.5227H231.093Z" fill="white"/>
</svg>
