<svg width="314" height="387" viewBox="0 0 314 387" fill="none" xmlns="http://www.w3.org/2000/svg">
<g opacity="0.4" filter="url(#filter0_d)">
<path d="M297.035 376.31C296.76 377.38 297.404 378.47 298.474 378.746C299.544 379.021 300.634 378.376 300.909 377.307L297.035 376.31ZM5.12748 13.5469C4.32509 14.306 4.29 15.5718 5.0491 16.3742L17.4194 29.45C18.1785 30.2524 19.4444 30.2875 20.2468 29.5284C21.0492 28.7693 21.0843 27.5034 20.3251 26.701L9.32931 15.0781L20.9522 4.0823C21.7546 3.32319 21.7897 2.05735 21.0306 1.25496C20.2715 0.452563 19.0056 0.41747 18.2032 1.17658L5.12748 13.5469ZM257.47 128.309L255.843 129.471L257.47 128.309ZM301.692 373.958C301.93 372.88 301.249 371.812 300.171 371.573C299.093 371.335 298.025 372.016 297.786 373.094L301.692 373.958ZM299.145 366.462C298.938 367.547 299.65 368.594 300.735 368.801C301.82 369.008 302.867 368.296 303.074 367.211L299.145 366.462ZM304.275 360.492C304.457 359.402 303.722 358.372 302.632 358.189C301.543 358.007 300.512 358.742 300.33 359.832L304.275 360.492ZM301.389 353.073C301.229 354.166 301.985 355.182 303.078 355.342C304.171 355.502 305.187 354.746 305.347 353.653L301.389 353.073ZM306.272 346.88C306.411 345.785 305.636 344.783 304.54 344.644C303.444 344.505 302.443 345.28 302.304 346.376L306.272 346.88ZM303.096 339.646C302.977 340.744 303.771 341.731 304.869 341.85C305.967 341.969 306.954 341.176 307.073 340.078L303.096 339.646ZM307.752 333.25C307.851 332.15 307.04 331.177 305.94 331.078C304.84 330.979 303.867 331.79 303.768 332.89L307.752 333.25ZM304.32 326.113C304.24 327.215 305.068 328.173 306.17 328.252C307.272 328.332 308.229 327.504 308.309 326.402L304.32 326.113ZM308.745 319.559C308.805 318.456 307.96 317.513 306.857 317.452C305.754 317.392 304.811 318.237 304.751 319.34L308.745 319.559ZM305.061 312.585C305.02 313.689 305.882 314.617 306.985 314.658C308.089 314.699 309.017 313.837 309.058 312.734L305.061 312.585ZM309.251 305.891C309.272 304.787 308.394 303.874 307.29 303.853C306.185 303.832 305.273 304.71 305.252 305.814L309.251 305.891ZM305.321 299.026C305.32 300.13 306.214 301.027 307.319 301.028C308.424 301.03 309.32 300.135 309.321 299.031L305.321 299.026ZM309.267 292.152C309.249 291.048 308.338 290.168 307.234 290.187C306.129 290.205 305.249 291.116 305.268 292.22L309.267 292.152ZM305.09 285.443C305.129 286.547 306.056 287.41 307.16 287.371C308.264 287.332 309.127 286.405 309.088 285.301L305.09 285.443ZM308.781 278.467C308.721 277.364 307.779 276.518 306.676 276.578C305.573 276.638 304.727 277.58 304.787 278.683L308.781 278.467ZM304.354 271.907C304.435 273.009 305.394 273.836 306.496 273.755C307.597 273.674 308.425 272.716 308.344 271.614L304.354 271.907ZM307.772 264.757C307.67 263.657 306.695 262.848 305.595 262.951C304.495 263.053 303.687 264.028 303.789 265.128L307.772 264.757ZM303.096 258.407C303.22 259.505 304.211 260.294 305.308 260.169C306.406 260.045 307.195 259.055 307.07 257.957L303.096 258.407ZM306.229 251.145C306.082 250.05 305.076 249.282 303.981 249.428C302.886 249.575 302.118 250.581 302.264 251.676L306.229 251.145ZM301.292 244.946C301.461 246.038 302.484 246.785 303.575 246.616C304.667 246.447 305.414 245.424 305.245 244.333L301.292 244.946ZM304.125 237.585C303.932 236.497 302.895 235.771 301.807 235.964C300.719 236.156 299.994 237.194 300.186 238.282L304.125 237.585ZM298.933 231.617C299.149 232.7 300.202 233.403 301.285 233.187C302.368 232.971 303.071 231.918 302.855 230.835L298.933 231.617ZM301.437 224.108C301.197 223.03 300.128 222.35 299.05 222.59C297.972 222.83 297.292 223.899 297.532 224.977L301.437 224.108ZM295.989 218.395C296.254 219.468 297.337 220.123 298.41 219.859C299.482 219.594 300.137 218.511 299.873 217.438L295.989 218.395ZM298.15 210.78C297.861 209.714 296.763 209.084 295.697 209.373C294.631 209.662 294.001 210.761 294.29 211.827L298.15 210.78ZM292.442 205.316C292.756 206.375 293.869 206.979 294.928 206.664C295.987 206.35 296.591 205.237 296.276 204.178L292.442 205.316ZM294.245 197.622C293.905 196.571 292.778 195.994 291.727 196.334C290.676 196.674 290.099 197.801 290.439 198.852L294.245 197.622ZM288.271 192.419C288.637 193.461 289.778 194.009 290.821 193.644C291.863 193.278 292.412 192.137 292.046 191.095L288.271 192.419ZM289.698 184.659C289.306 183.626 288.152 183.106 287.119 183.497C286.086 183.889 285.566 185.044 285.958 186.077L289.698 184.659ZM283.474 179.771C283.892 180.793 285.06 181.283 286.082 180.865C287.105 180.447 287.595 179.28 287.177 178.257L283.474 179.771ZM284.496 171.934C284.052 170.923 282.872 170.463 281.861 170.908C280.849 171.352 280.39 172.532 280.834 173.543L284.496 171.934ZM278.032 167.388C278.503 168.387 279.695 168.815 280.694 168.345C281.693 167.874 282.121 166.682 281.65 165.683L278.032 167.388ZM278.63 159.493C278.133 158.507 276.93 158.111 275.944 158.609C274.958 159.106 274.562 160.309 275.059 161.295L278.63 159.493ZM271.937 155.312C272.462 156.284 273.675 156.647 274.647 156.123C275.619 155.599 275.982 154.386 275.458 153.414L271.937 155.312ZM272.103 147.392C271.552 146.434 270.33 146.105 269.372 146.656C268.415 147.206 268.085 148.429 268.636 149.386L272.103 147.392ZM265.191 143.587C265.769 144.528 267 144.824 267.942 144.247C268.883 143.67 269.179 142.438 268.602 141.497L265.191 143.587ZM264.923 135.678C264.319 134.752 263.08 134.492 262.155 135.095C261.23 135.698 260.969 136.937 261.572 137.863L264.923 135.678ZM257.802 132.255C258.431 133.163 259.677 133.389 260.585 132.76C261.493 132.131 261.719 130.885 261.089 129.977L257.802 132.255ZM256.976 124.233C256.317 123.346 255.065 123.161 254.178 123.819C253.291 124.478 253.106 125.73 253.764 126.617L256.976 124.233ZM249.475 121.055C250.165 121.917 251.424 122.057 252.286 121.366C253.148 120.676 253.288 119.418 252.598 118.555L249.475 121.055ZM248.011 113.03C247.29 112.193 246.027 112.099 245.19 112.819C244.353 113.54 244.259 114.803 244.979 115.64L248.011 113.03ZM240.307 110.401C241.057 111.212 242.322 111.263 243.134 110.513C243.945 109.764 243.995 108.499 243.246 107.687L240.307 110.401ZM238.284 102.495C237.507 101.709 236.241 101.702 235.455 102.479C234.67 103.255 234.663 104.522 235.439 105.307L238.284 102.495ZM230.413 100.39C231.215 101.15 232.481 101.115 233.24 100.312C233.999 99.5101 233.964 98.2442 233.162 97.485L230.413 100.39ZM227.875 92.6428C227.049 91.9099 225.785 91.9857 225.052 92.8121C224.319 93.6386 224.395 94.9026 225.221 95.6355L227.875 92.6428ZM219.88 91.0469C220.729 91.7535 221.99 91.6381 222.697 90.7892C223.403 89.9402 223.288 88.6791 222.439 87.9725L219.88 91.0469ZM216.869 83.4781C215.999 82.7975 214.742 82.9511 214.061 83.8211C213.38 84.6911 213.534 85.9481 214.404 86.6286L216.869 83.4781ZM208.787 82.3667C209.676 83.0214 210.928 82.831 211.583 81.9414C212.238 81.0517 212.047 79.7998 211.158 79.1451L208.787 82.3667ZM205.335 74.9863C204.427 74.357 203.181 74.5828 202.552 75.4906C201.922 76.3984 202.148 77.6445 203.056 78.2737L205.335 74.9863ZM197.206 74.3368C198.131 74.941 199.37 74.6812 199.974 73.7565C200.579 72.8319 200.319 71.5925 199.394 70.9883L197.206 74.3368ZM193.351 67.1529C192.41 66.5733 191.178 66.8657 190.599 67.806C190.019 68.7463 190.312 69.9784 191.252 70.558L193.351 67.1529ZM185.207 66.9378C186.162 67.4934 187.386 67.1698 187.942 66.2151C188.497 65.2603 188.174 64.0361 187.219 63.4805L185.207 66.9378ZM180.985 59.9555C180.017 59.4236 178.801 59.7771 178.269 60.7451C177.737 61.7132 178.091 62.9292 179.059 63.4611L180.985 59.9555ZM172.839 60.139C173.82 60.648 175.027 60.2659 175.536 59.2855C176.045 58.3052 175.663 57.0979 174.683 56.5889L172.839 60.139ZM168.298 53.3664C167.306 52.8799 166.108 53.2894 165.621 54.2811C165.135 55.2727 165.544 56.471 166.536 56.9575L168.298 53.3664ZM160.16 53.9163C161.162 54.3809 162.351 53.9452 162.816 52.9431C163.28 51.941 162.845 50.752 161.842 50.2874L160.16 53.9163ZM155.342 47.3571C154.331 46.9137 153.151 47.3744 152.708 48.3861C152.264 49.3978 152.725 50.5773 153.737 51.0207L155.342 47.3571ZM147.223 48.2457C148.244 48.6682 149.413 48.1834 149.836 47.1629C150.259 46.1423 149.774 44.9725 148.753 44.5499L147.223 48.2457ZM142.129 41.8838C141.1 41.4815 139.94 41.9892 139.538 43.0179C139.135 44.0466 139.643 45.2067 140.672 45.609L142.129 41.8838ZM134.075 43.1015C135.111 43.4842 136.261 42.9544 136.644 41.9182C137.027 40.8821 136.497 39.7319 135.461 39.3492L134.075 43.1015ZM128.724 36.9323C127.681 36.5688 126.541 37.1198 126.177 38.1629C125.814 39.206 126.365 40.3461 127.408 40.7096L128.724 36.9323ZM120.722 38.4473C121.771 38.792 122.902 38.2207 123.246 37.1713C123.591 36.1219 123.02 34.9918 121.97 34.647L120.722 38.4473ZM115.172 32.4792C114.116 32.1527 112.996 32.7435 112.67 33.7987C112.343 34.854 112.934 35.974 113.989 36.3005L115.172 32.4792ZM107.201 34.2634C108.261 34.5719 109.371 33.9623 109.68 32.9017C109.988 31.8411 109.379 30.7312 108.318 30.4226L107.201 34.2634ZM101.46 28.4886C100.394 28.1975 99.2947 28.8253 99.0036 29.8909C98.7125 30.9564 99.3403 32.0561 100.406 32.3472L101.46 28.4886ZM93.5806 30.5414C94.6507 30.8154 95.7402 30.1701 96.0142 29.1C96.2882 28.03 95.6429 26.9404 94.5729 26.6664L93.5806 30.5414ZM87.6207 24.9446C86.5465 24.6875 85.4672 25.3499 85.2101 26.4241C84.953 27.4983 85.6154 28.5776 86.6896 28.8347L87.6207 24.9446ZM79.7966 27.2409C80.8746 27.4815 81.9436 26.8026 82.1841 25.7245C82.4247 24.6465 81.7458 23.5775 80.6677 23.337L79.7966 27.2409ZM73.7179 21.8412C72.6364 21.6169 71.5778 22.3118 71.3535 23.3934C71.1292 24.4749 71.8241 25.5335 72.9057 25.7578L73.7179 21.8412ZM65.9711 24.3738C67.0559 24.5819 68.104 23.8712 68.3121 22.7864C68.5202 21.7016 67.8095 20.6535 66.7247 20.4454L65.9711 24.3738ZM59.6821 19.1487C58.5943 18.9568 57.5569 19.683 57.365 20.7708C57.1731 21.8585 57.8993 22.8959 58.987 23.0879L59.6821 19.1487ZM51.9976 21.9079C53.0881 22.0837 54.1146 21.3422 54.2904 20.2517C54.4662 19.1612 53.7246 18.1347 52.6342 17.9589L51.9976 21.9079ZM45.577 16.8752C44.484 16.7157 43.4686 17.4724 43.3091 18.5654C43.1496 19.6584 43.9064 20.6737 44.9994 20.8332L45.577 16.8752ZM37.9881 19.8641C39.0834 20.007 40.0872 19.2349 40.2301 18.1397C40.373 17.0444 39.6009 16.0406 38.5057 15.8977L37.9881 19.8641ZM31.4203 15.0292C30.323 14.9035 29.3314 15.6911 29.2057 16.7885C29.0799 17.8859 29.8676 18.8775 30.965 19.0032L31.4203 15.0292ZM23.9564 18.2582C25.0557 18.3657 26.034 17.5617 26.1416 16.4624C26.2491 15.3631 25.4451 14.3847 24.3458 14.2772L23.9564 18.2582ZM17.2177 13.6451C16.1166 13.558 15.1534 14.3801 15.0663 15.4812C14.9792 16.5824 15.8013 17.5456 16.9024 17.6327L17.2177 13.6451ZM9.8401 17.1536C10.943 17.2143 11.8863 16.3693 11.9469 15.2664C12.0076 14.1635 11.1626 13.2203 10.0597 13.1596L9.8401 17.1536ZM298.972 376.809C300.909 377.307 300.909 377.307 300.909 377.306C300.909 377.306 300.909 377.306 300.909 377.306C300.909 377.306 300.909 377.306 300.909 377.306C300.909 377.306 300.909 377.305 300.909 377.305C300.91 377.304 300.91 377.303 300.91 377.301C300.911 377.299 300.912 377.295 300.913 377.289C300.916 377.279 300.92 377.265 300.924 377.246C300.934 377.208 300.948 377.153 300.966 377.08C301.002 376.935 301.055 376.72 301.122 376.439C301.257 375.875 301.452 375.043 301.692 373.958L297.786 373.094C297.551 374.156 297.362 374.965 297.232 375.506C297.168 375.777 297.118 375.98 297.084 376.115C297.067 376.182 297.055 376.233 297.046 376.265C297.042 376.282 297.039 376.294 297.037 376.301C297.036 376.305 297.036 376.307 297.035 376.309C297.035 376.31 297.035 376.31 297.035 376.311C297.035 376.311 297.035 376.311 297.035 376.311C297.035 376.311 297.035 376.311 297.035 376.311C297.035 376.311 297.035 376.311 297.035 376.311C297.035 376.311 297.035 376.31 298.972 376.809ZM303.074 367.211C303.451 365.233 303.857 362.987 304.275 360.492L300.33 359.832C299.917 362.296 299.517 364.512 299.145 366.462L303.074 367.211ZM305.347 353.653C305.659 351.518 305.97 349.258 306.272 346.88L302.304 346.376C302.005 348.728 301.698 350.963 301.389 353.073L305.347 353.653ZM307.073 340.078C307.311 337.88 307.539 335.602 307.752 333.25L303.768 332.89C303.558 335.218 303.332 337.472 303.096 339.646L307.073 340.078ZM308.309 326.402C308.471 324.176 308.617 321.894 308.745 319.559L304.751 319.34C304.624 321.651 304.48 323.91 304.32 326.113L308.309 326.402ZM309.058 312.734C309.141 310.494 309.206 308.212 309.251 305.891L305.252 305.814C305.207 308.111 305.143 310.369 305.061 312.585L309.058 312.734ZM309.321 299.031C309.324 296.77 309.307 294.476 309.267 292.152L305.268 292.22C305.307 294.519 305.324 296.789 305.321 299.026L309.321 299.031ZM309.088 285.301C309.008 283.048 308.906 280.769 308.781 278.467L304.787 278.683C304.911 280.96 305.011 283.214 305.09 285.443L309.088 285.301ZM308.344 271.614C308.177 269.348 307.987 267.061 307.772 264.757L303.789 265.128C304.002 267.406 304.19 269.666 304.354 271.907L308.344 271.614ZM307.07 257.957C306.815 255.701 306.535 253.43 306.229 251.145L302.264 251.676C302.567 253.934 302.843 256.178 303.096 258.407L307.07 257.957ZM305.245 244.333C304.897 242.095 304.525 239.845 304.125 237.585L300.186 238.282C300.581 240.513 300.949 242.735 301.292 244.946L305.245 244.333ZM302.855 230.835C302.41 228.601 301.937 226.358 301.437 224.108L297.532 224.977C298.026 227.197 298.493 229.411 298.933 231.617L302.855 230.835ZM299.873 217.438C299.327 215.224 298.754 213.004 298.15 210.78L294.29 211.827C294.885 214.021 295.451 216.21 295.989 218.395L299.873 217.438ZM296.276 204.178C295.629 201.995 294.952 199.809 294.245 197.622L290.439 198.852C291.136 201.008 291.803 203.163 292.442 205.316L296.276 204.178ZM292.046 191.095C291.294 188.949 290.511 186.804 289.698 184.659L285.958 186.077C286.759 188.19 287.53 190.304 288.271 192.419L292.046 191.095ZM287.177 178.257C286.315 176.147 285.421 174.039 284.496 171.934L280.834 173.543C281.745 175.616 282.625 177.693 283.474 179.771L287.177 178.257ZM281.65 165.683C280.676 163.615 279.669 161.552 278.63 159.493L275.059 161.295C276.082 163.322 277.073 165.353 278.032 167.388L281.65 165.683ZM275.458 153.414C274.373 151.4 273.254 149.393 272.103 147.392L268.636 149.386C269.769 151.355 270.869 153.331 271.937 155.312L275.458 153.414ZM268.602 141.497C267.408 139.549 266.182 137.609 264.923 135.678L261.572 137.863C262.811 139.763 264.017 141.671 265.191 143.587L268.602 141.497ZM261.089 129.977C260.434 129.031 259.77 128.087 259.098 127.146L255.843 129.471C256.504 130.397 257.157 131.325 257.802 132.255L261.089 129.977ZM259.098 127.146C258.398 126.167 257.691 125.195 256.976 124.233L253.764 126.617C254.465 127.56 255.158 128.512 255.843 129.471L259.098 127.146ZM252.598 118.555C251.097 116.681 249.568 114.839 248.011 113.03L244.979 115.64C246.505 117.413 248.004 119.218 249.475 121.055L252.598 118.555ZM243.246 107.687C241.618 105.924 239.963 104.193 238.284 102.495L235.439 105.307C237.087 106.974 238.71 108.671 240.307 110.401L243.246 107.687ZM233.162 97.485C231.422 95.839 229.66 94.2252 227.875 92.6428L225.221 95.6355C226.974 97.1897 228.705 98.7745 230.413 100.39L233.162 97.485ZM222.439 87.9725C220.602 86.4433 218.744 84.9454 216.869 83.4781L214.404 86.6286C216.249 88.0715 218.074 89.5441 219.88 91.0469L222.439 87.9725ZM211.158 79.1451C209.233 77.7287 207.291 76.3426 205.335 74.9863L203.056 78.2737C204.982 79.609 206.893 80.9731 208.787 82.3667L211.158 79.1451ZM199.394 70.9883C197.393 69.6805 195.378 68.4023 193.351 67.1529L191.252 70.558C193.249 71.7893 195.235 73.0487 197.206 74.3368L199.394 70.9883ZM187.219 63.4805C185.151 62.2771 183.072 61.1023 180.985 59.9555L179.059 63.4611C181.118 64.5925 183.168 65.7511 185.207 66.9378L187.219 63.4805ZM174.683 56.5889C172.56 55.4872 170.432 54.4132 168.298 53.3664L166.536 56.9575C168.643 57.9912 170.745 59.0515 172.839 60.139L174.683 56.5889ZM161.842 50.2874C159.678 49.2839 157.511 48.3073 155.342 47.3571L153.737 51.0207C155.88 51.9599 158.022 52.9249 160.16 53.9163L161.842 50.2874ZM148.753 44.5499C146.543 43.635 144.335 42.7466 142.129 41.8838L140.672 45.609C142.854 46.4624 145.038 47.341 147.223 48.2457L148.753 44.5499ZM135.461 39.3492C133.209 38.5177 130.963 37.7123 128.724 36.9323L127.408 40.7096C129.624 41.4817 131.847 42.2787 134.075 43.1015L135.461 39.3492ZM121.97 34.647C119.693 33.899 117.426 33.1766 115.172 32.4792L113.989 36.3005C116.222 36.9913 118.467 37.7066 120.722 38.4473L121.97 34.647ZM108.318 30.4226C106.015 29.7526 103.728 29.1083 101.46 28.4886L100.406 32.3472C102.653 32.9613 104.919 33.5997 107.201 34.2634L108.318 30.4226ZM94.5729 26.6664C92.2308 26.0667 89.9124 25.4931 87.6207 24.9446L86.6896 28.8347C88.9614 29.3785 91.2594 29.947 93.5806 30.5414L94.5729 26.6664ZM80.6677 23.337C78.3169 22.8124 75.9991 22.3142 73.7179 21.8412L72.9057 25.7578C75.1677 26.2269 77.4659 26.7208 79.7966 27.2409L80.6677 23.337ZM66.7247 20.4454C64.3279 19.9856 61.9788 19.554 59.6821 19.1487L58.987 23.0879C61.2647 23.4898 63.5943 23.9178 65.9711 24.3738L66.7247 20.4454ZM52.6342 17.9589C50.2091 17.568 47.8546 17.2075 45.577 16.8752L44.9994 20.8332C47.2578 21.1628 49.5927 21.5203 51.9976 21.9079L52.6342 17.9589ZM38.5057 15.8977C36.0242 15.5739 33.659 15.2857 31.4203 15.0292L30.965 19.0032C33.1835 19.2574 35.528 19.5431 37.9881 19.8641L38.5057 15.8977ZM24.3458 14.2772C21.7049 14.0189 19.3202 13.8114 17.2177 13.6451L16.9024 17.6327C18.9811 17.7971 21.3412 18.0024 23.9564 18.2582L24.3458 14.2772ZM10.0597 13.1596C8.92662 13.0973 8.05527 13.0577 7.46509 13.0335C7.17 13.0215 6.9452 13.0133 6.79311 13.0081C6.71706 13.0055 6.65919 13.0036 6.6198 13.0024C6.60011 13.0018 6.58504 13.0013 6.57462 13.001C6.56942 13.0009 6.56537 13.0008 6.5625 13.0007C6.56106 13.0006 6.55992 13.0006 6.55906 13.0006C6.55864 13.0006 6.55828 13.0006 6.558 13.0005C6.55787 13.0005 6.55775 13.0005 6.55764 13.0005C6.55759 13.0005 6.55753 13.0005 6.5575 13.0005C6.55744 13.0005 6.55739 13.0005 6.50196 14.9998C6.44654 16.999 6.4465 16.999 6.44646 16.999C6.44645 16.999 6.44641 16.999 6.4464 16.999C6.44637 16.999 6.44636 16.999 6.44636 16.999C6.44638 16.999 6.44646 16.999 6.44662 16.999C6.44694 16.999 6.44755 16.999 6.44846 16.999C6.45027 16.9991 6.45324 16.9992 6.45738 16.9993C6.46566 16.9995 6.47858 16.9999 6.49612 17.0005C6.53119 17.0016 6.58471 17.0033 6.65637 17.0057C6.79969 17.0106 7.01558 17.0185 7.30162 17.0302C7.8737 17.0536 8.72632 17.0924 9.8401 17.1536L10.0597 13.1596Z" fill="#115B86"/>
</g>
<defs>
<filter id="filter0_d" x="0.503906" y="0.629883" width="312.82" height="386.18" filterUnits="userSpaceOnUse" color-interpolation-filters="sRGB">
<feFlood flood-opacity="0" result="BackgroundImageFix"/>
<feColorMatrix in="SourceAlpha" type="matrix" values="0 0 0 0 0 0 0 0 0 0 0 0 0 0 0 0 0 0 127 0"/>
<feOffset dy="4"/>
<feGaussianBlur stdDeviation="2"/>
<feColorMatrix type="matrix" values="0 0 0 0 0 0 0 0 0 0 0 0 0 0 0 0 0 0 0.2 0"/>
<feBlend mode="normal" in2="BackgroundImageFix" result="effect1_dropShadow"/>
<feBlend mode="normal" in="SourceGraphic" in2="effect1_dropShadow" result="shape"/>
</filter>
</defs>
</svg>
