<svg width="259" height="33" viewBox="0 0 259 33" fill="none" xmlns="http://www.w3.org/2000/svg">
<path fill-rule="evenodd" clip-rule="evenodd" d="M13.9415 1L11.6381 2.32923V15.6165L13.9415 16.9171V1ZM15.275 16.9171L17.8209 15.4796V2.46915L15.275 1V16.9171ZM3.87937 6.80666L6.54644 5.26755V12.7417L3.87937 11.2358V6.80666ZM7.75874 13.4262V4.56794L10.4258 3.02883V14.9321L7.75874 13.4262ZM21.7002 13.2892L19.0332 14.7951V3.16876L21.7002 4.70787V13.2892ZM22.9125 5.40746V12.6048L25.5796 11.0989V6.94658L22.9125 5.40746ZM29.2165 9.04537L26.7919 10.4144V7.64617L29.2165 9.04537ZM2.66707 7.50626L0 9.04537L2.66707 10.5513V7.50626Z" fill="#1AB8E6"/>
<mask id="mask0" mask-type="alpha" maskUnits="userSpaceOnUse" x="0" y="8" width="30" height="23">
<path d="M14.6083 22.5695L0 30.9996V8.49902L29.2165 8.98421V30.9996L14.6083 22.5695Z" fill="#1AB8E6"/>
</mask>
<g mask="url(#mask0)">
<path d="M0 9.04492H1.93968V31.1816H0V9.04492Z" fill="#1AB8E6"/>
<path d="M5.81859 9.59082H3.87891V31.6669H5.81859V9.59082Z" fill="#1AB8E6"/>
<path d="M9.6975 9.95508H7.75781V32.0312H9.6975V9.95508Z" fill="#1AB8E6"/>
<path d="M13.5803 9.95508H11.6406V32.0312H13.5803V9.95508Z" fill="#1AB8E6"/>
<path d="M17.5803 7.77148H15.6406V29.8476H17.5803V7.77148Z" fill="#1AB8E6"/>
<path d="M21.4553 8.49902H19.5156V30.5751H21.4553V8.49902Z" fill="#1AB8E6"/>
<path d="M25.3381 8.86328H23.3984V30.9394H25.3381V8.86328Z" fill="#1AB8E6"/>
<path d="M27.2773 9.04492H29.217V30.939H27.2773V9.04492Z" fill="#1AB8E6"/>
</g>
<path d="M44.0258 27L51.3428 7.722H55.6898L62.8988 27H58.4978L57.0398 22.707H49.8308L48.3188 27H44.0258ZM53.4488 12.474L50.9378 19.548H55.9328L53.5028 12.474H53.4488ZM87.9972 14.202H83.8932C83.7672 13.248 83.2992 12.447 82.4892 11.799C81.6792 11.151 80.7432 10.827 79.6812 10.827C77.8992 10.827 76.5492 11.511 75.6312 12.879C74.8392 14.049 74.4432 15.57 74.4432 17.442C74.4432 19.242 74.8392 20.718 75.6312 21.87C76.5672 23.22 77.9172 23.895 79.6812 23.895C80.9412 23.895 81.9582 23.49 82.7322 22.68C83.4522 21.924 83.8932 20.889 84.0552 19.575H88.1592C87.9432 21.969 87.0612 23.886 85.5132 25.326C83.9832 26.748 82.0392 27.459 79.6812 27.459C76.7832 27.459 74.4612 26.487 72.7152 24.543C71.0412 22.689 70.2042 20.322 70.2042 17.442C70.2042 14.49 71.0412 12.078 72.7152 10.206C74.4432 8.244 76.7652 7.263 79.6812 7.263C81.8772 7.263 83.7312 7.866 85.2432 9.072C86.8272 10.332 87.7452 12.042 87.9972 14.202ZM97.5339 27V7.722H111.952V11.286H101.773V15.417H111.115V18.711H101.773V23.436H112.168V27H97.5339ZM121.522 27V7.722H127.489L131.998 20.979H132.052L136.318 7.722H142.285V27H138.316V13.338H138.262L133.537 27H130.27L125.545 13.473H125.491V27H121.522ZM150.445 27L157.762 7.722H162.109L169.318 27H164.917L163.459 22.707H156.25L154.738 27H150.445ZM159.868 12.474L157.357 19.548H162.352L159.922 12.474H159.868ZM192.823 7.722L186.424 27H181.645L175.381 7.722H179.755L184.048 21.276H184.102L188.449 7.722H192.823ZM200.947 27V7.722H215.365V11.286H205.186V15.417H214.528V18.711H205.186V23.436H215.581V27H200.947ZM224.935 27V7.722H229.147L237.193 20.655H237.247V7.722H241.216V27H236.977L228.958 14.094H228.904V27H224.935Z" fill="white"/>
</svg>
