<svg width="6" height="4" viewBox="0 0 6 4" fill="none" xmlns="http://www.w3.org/2000/svg">
    <path d="M1.35355 0.646447C1.15829 0.451184 0.841709 0.451184 0.646447 0.646447C0.451184 0.841709 0.451184 1.15829 0.646447 1.35355L1.35355 0.646447ZM3 3L2.64645 3.35355L3 3.70711L3.35355 3.35355L3 3ZM5.35355 1.35355C5.54882 1.15829 5.54882 0.841709 5.35355 0.646447C5.15829 0.451184 4.84171 0.451184 4.64645 0.646447L5.35355 1.35355ZM0.646447 1.35355L2.64645 3.35355L3.35355 2.64645L1.35355 0.646447L0.646447 1.35355ZM3.35355 3.35355L5.35355 1.35355L4.64645 0.646447L2.64645 2.64645L3.35355 3.35355Z" fill="#1B1B25"/>
</svg>