<svg width="62" height="62" viewBox="0 0 62 62" fill="none" xmlns="http://www.w3.org/2000/svg">
<path d="M54.1429 39.7791C62.9312 30.9903 62.9312 16.7411 54.1425 7.95274C45.3537 -0.83602 31.1049 -0.835598 22.3161 7.95274C13.5278 16.7415 13.5278 30.9903 22.3161 39.7787C31.1049 48.5674 45.3537 48.5674 54.1425 39.7791C54.1425 39.7791 54.1425 39.7791 54.1429 39.7791ZM50.6069 11.4883C57.4316 18.3285 57.4316 29.4024 50.6069 36.2431C57.4316 29.4024 57.4316 18.3285 50.6069 11.4883Z" fill="#ECECEC"/>
<path d="M3.75213 60.1116C4.72871 61.0877 6.31154 61.0877 7.28811 60.1116L19.6655 47.7337C20.6425 46.7576 20.6425 45.1743 19.6664 44.1978C19.6659 44.1973 19.6659 44.1973 19.6655 44.1969L17.8977 42.4291C16.9212 41.4521 15.3379 41.4521 14.3613 42.4283C14.3613 42.4283 14.3609 42.4287 14.3609 42.4291L1.98309 54.8065C1.00694 55.7831 1.00694 57.3659 1.98309 58.3425L3.75213 60.1116Z" fill="#1B1B25"/>
<path d="M55.0278 7.06837C45.7701 -2.215 30.7398 -2.23564 21.4564 7.02202C12.4992 15.9544 12.12 30.3419 20.5945 39.7339L18.7816 41.5468C17.3172 40.0815 14.9423 40.0815 13.4774 41.5464C13.4774 41.5464 13.477 41.5464 13.477 41.5468L1.09919 53.9242C-0.365675 55.389 -0.365675 57.7635 1.09877 59.2288C1.09877 59.2288 1.09919 59.2288 1.09919 59.2292L2.86697 60.997C4.33183 62.461 6.70586 62.461 8.17072 60.997L20.5481 48.6192C22.013 47.1547 22.0134 44.7799 20.5485 43.315L20.5481 43.3146L22.361 41.5017C32.088 50.2922 47.0993 49.5325 55.8894 39.806C64.3803 30.4105 64.0011 16.0042 55.0278 7.06837ZM18.7816 46.8501L6.40421 59.2279C5.91592 59.7158 5.1243 59.7158 4.63643 59.2279L2.86823 57.4589C2.38121 56.9706 2.38121 56.1802 2.86823 55.692L15.2461 43.3146C15.7402 42.8419 16.5192 42.8419 17.0138 43.3146L18.7816 45.0836C19.2686 45.5719 19.2686 46.3623 18.7816 46.8501ZM53.2609 38.8951C44.9608 47.1952 31.5032 47.1947 23.2032 38.8947C14.9027 30.5942 14.9031 17.1366 23.2036 8.83657C31.5036 0.536517 44.9608 0.536517 53.2609 8.83657C61.5479 17.1425 61.5479 30.5888 53.2609 38.8951Z" fill="#1B1B25"/>
</svg>
