<svg width="67" height="67" viewBox="0 0 67 67" fill="none" xmlns="http://www.w3.org/2000/svg">
<g clip-path="url(#clip0)">
<path d="M46.6408 52.9102H41.7187C38.2316 52.9102 35.3944 50.0731 35.3944 46.586C35.3944 40.9174 30.7827 36.3057 25.1141 36.3057H20.3596C19.2671 37.8625 18.2048 39.2317 17.3716 40.2615H25.1144C28.6016 40.2615 31.4387 43.0987 31.4387 46.586C31.4387 52.2544 36.0504 56.8661 41.7188 56.8661H49.6289C48.7956 55.8361 47.7332 54.4669 46.6408 52.9102Z" fill="black"/>
<mask id="mask0" x="16" y="34" width="18" height="24">
<rect x="16.75" y="34.7886" width="16.75" height="23.1923" fill="#C4C4C4"/>
</mask>
<g mask="url(#mask0)">
<path d="M46.6408 52.9102H41.7187C38.2316 52.9102 35.3944 50.0731 35.3944 46.586C35.3944 40.9174 30.7827 36.3057 25.1141 36.3057H20.3596C19.2671 37.8625 18.2048 39.2317 17.3716 40.2615H25.1144C28.6016 40.2615 31.4387 43.0987 31.4387 46.586C31.4387 52.2544 36.0504 56.8661 41.7188 56.8661H49.6289C48.7956 55.8361 47.7332 54.4669 46.6408 52.9102Z" fill="#1B1B25"/>
</g>
<path d="M55.7157 36.7334C55.0054 36.7334 54.4275 37.3113 54.4275 38.0216C54.4275 38.7319 55.0054 39.3098 55.7157 39.3098C56.426 39.3098 57.0038 38.7319 57.0038 38.0216C57.0038 37.3111 56.426 36.7334 55.7157 36.7334Z" fill="#1AB8E6"/>
<path d="M55.7157 36.7334C55.0054 36.7334 54.4275 37.3113 54.4275 38.0216C54.4275 38.7319 55.0054 39.3098 55.7157 39.3098C55.7157 39.3098 55.7157 38.7319 55.7157 38.0216C55.7157 37.3111 55.7157 36.7334 55.7157 36.7334Z" fill="#1B1B25"/>
<path d="M55.7173 26.7388C49.4958 26.7388 44.4343 31.8004 44.4343 38.0217C44.4343 41.1038 46.1155 45.1306 49.4309 49.9903C51.8029 53.4669 54.1441 56.0961 54.2425 56.2063C54.6179 56.6261 55.1542 56.8661 55.7174 56.8661C56.2806 56.8661 56.8169 56.6261 57.1923 56.2063C57.2908 56.0961 59.632 53.467 62.0039 49.9903C65.3194 45.1308 67.0005 41.1038 67.0005 38.0217C67.0003 31.8003 61.9387 26.7388 55.7173 26.7388ZM55.7173 43.2658C52.8257 43.2658 50.4733 40.9133 50.4733 38.0218C50.4733 35.1302 52.8258 32.7779 55.7173 32.7779C58.6087 32.7779 60.9612 35.1304 60.9612 38.0218C60.9612 40.9133 58.6089 43.2658 55.7173 43.2658Z" fill="#1AB8E6"/>
<path d="M44.4343 38.0217C44.4343 31.8004 49.4958 26.7388 55.7173 26.7388V32.7779C52.8258 32.7779 50.4733 35.1302 50.4733 38.0218C50.4733 40.9133 52.8257 43.2658 55.7173 43.2658L55.7174 56.8661C55.1542 56.8661 54.6179 56.6261 54.2425 56.2063C54.1441 56.0961 51.8029 53.4669 49.4309 49.9903C46.1155 45.1306 44.4343 41.1038 44.4343 38.0217Z" fill="#1B1B25"/>
<path d="M11.2813 19.0142C10.571 19.0142 9.99316 19.592 9.99316 20.3023C9.99316 21.0126 10.571 21.5905 11.2813 21.5905C11.9916 21.5905 12.5695 21.0126 12.5695 20.3023C12.5695 19.5919 11.9916 19.0142 11.2813 19.0142Z" fill="#1AB8E6"/>
<path d="M11.2813 19.0142C10.571 19.0142 9.99316 19.592 9.99316 20.3023C9.99316 21.0126 10.571 21.5905 11.2813 21.5905C11.2813 21.5905 11.2813 21.0126 11.2813 20.3023C11.2813 19.5919 11.2813 19.0142 11.2813 19.0142Z" fill="#1B1B25"/>
<path d="M11.2829 9.01904C5.0615 9.01904 0 14.0807 0 20.302C0 23.3841 1.68115 27.4109 4.99659 32.2706C7.36855 35.7472 9.70974 38.3764 9.80815 38.4866C10.1836 38.9064 10.7198 39.1464 11.2831 39.1464C11.8463 39.1464 12.3825 38.9064 12.758 38.4866C12.8565 38.3764 15.1977 35.7473 17.5695 32.2706C20.8851 27.411 22.5661 23.3841 22.5661 20.302C22.566 14.0805 17.5044 9.01904 11.2829 9.01904ZM11.2829 25.546C8.39134 25.546 6.03902 23.1936 6.03902 20.3021C6.03902 17.4105 8.39147 15.0582 11.2829 15.0582C14.1744 15.0582 16.5269 17.4106 16.5269 20.3021C16.5269 23.1936 14.1745 25.546 11.2829 25.546Z" fill="#1AB8E6"/>
<path d="M0 20.302C0 14.0807 5.0615 9.01904 11.2829 9.01904V15.0582C8.39147 15.0582 6.03902 17.4105 6.03902 20.3021C6.03902 23.1936 8.39134 25.546 11.2829 25.546L11.2831 39.1464C10.7198 39.1464 10.1836 38.9064 9.80815 38.4866C9.70974 38.3764 7.36855 35.7472 4.99659 32.2706C1.68115 27.4109 0 23.3841 0 20.302Z" fill="#1B1B25"/>
</g>
<defs>
<clipPath id="clip0">
<rect width="67" height="67" fill="white"/>
</clipPath>
</defs>
</svg>
