<svg width="250" height="174" viewBox="0 0 250 174" fill="none" xmlns="http://www.w3.org/2000/svg">
<g opacity="0.4" filter="url(#filter0_d)">
<path d="M4.13173 162.287C3.73749 163.319 4.25434 164.475 5.28616 164.869C6.31797 165.263 7.47402 164.747 7.86827 163.715L4.13173 162.287ZM244.209 20.6654C245.232 20.2489 245.724 19.082 245.308 18.0589L238.521 1.38724C238.105 0.364185 236.938 -0.127568 235.915 0.28888C234.892 0.705329 234.4 1.87228 234.816 2.89533L240.849 17.7146L226.03 23.747C225.007 24.1634 224.515 25.3304 224.931 26.3534C225.348 27.3765 226.515 27.8682 227.538 27.4518L244.209 20.6654ZM121.455 34.813L122.256 36.6457L121.455 34.813ZM9.10367 160.698C9.53513 159.681 9.06061 158.507 8.0438 158.076C7.02698 157.644 5.85292 158.119 5.42146 159.136L9.10367 160.698ZM8.22102 152.844C7.75652 153.846 8.19238 155.035 9.19453 155.5C10.1967 155.964 11.3856 155.528 11.8501 154.526L8.22102 152.844ZM14.7701 148.439C15.2605 147.45 14.8557 146.25 13.866 145.759C12.8762 145.269 11.6763 145.674 11.186 146.663L14.7701 148.439ZM14.2841 140.594C13.7704 141.572 14.1468 142.781 15.1247 143.294C16.1025 143.808 17.3117 143.432 17.8253 142.454L14.2841 140.594ZM21.0389 136.502C21.5747 135.536 21.226 134.319 20.2601 133.783C19.2942 133.247 18.0768 133.596 17.541 134.562L21.0389 136.502ZM20.9137 128.639C20.3565 129.593 20.6778 130.818 21.6315 131.375C22.5852 131.932 23.8101 131.611 24.3673 130.657L20.9137 128.639ZM27.8376 124.868C28.416 123.927 28.1222 122.695 27.1812 122.117C26.2403 121.538 25.0085 121.832 24.43 122.773L27.8376 124.868ZM28.081 116.982C27.4813 117.91 27.7472 119.148 28.6748 119.748C29.6025 120.347 30.8406 120.082 31.4402 119.154L28.081 116.982ZM35.1714 113.525C35.7922 112.611 35.555 111.367 34.6414 110.747C33.7279 110.126 32.4839 110.363 31.8631 111.277L35.1714 113.525ZM35.7756 105.662C35.1334 106.561 35.3413 107.81 36.24 108.453C37.1386 109.095 38.3878 108.887 39.03 107.988L35.7756 105.662ZM43.0153 102.551C43.6791 101.669 43.5015 100.415 42.6186 99.7509C41.7358 99.0871 40.482 99.2647 39.8182 100.148L43.0153 102.551ZM43.9957 94.7328C43.31 95.5988 43.4562 96.8566 44.3222 97.5423C45.1883 98.2279 46.4461 98.0817 47.1318 97.2157L43.9957 94.7328ZM51.3821 91.9866C52.0899 91.1386 51.9762 89.8774 51.1282 89.1696C50.2802 88.4618 49.019 88.5755 48.3112 89.4235L51.3821 91.9866ZM52.7636 84.231C52.0334 85.0597 52.1132 86.3235 52.942 87.0538C53.7708 87.784 55.0346 87.7041 55.7648 86.8753L52.7636 84.231ZM60.2837 81.8871C61.0367 81.0789 60.992 79.8134 60.1838 79.0604C59.3757 78.3075 58.1101 78.3522 57.3572 79.1604L60.2837 81.8871ZM62.0944 74.22C61.3184 75.0061 61.3265 76.2724 62.1126 77.0484C62.8987 77.8244 64.165 77.8162 64.941 77.0302L62.0944 74.22ZM69.7381 72.3138C70.5374 71.5514 70.5673 70.2854 69.8049 69.4861C69.0425 68.6868 67.7765 68.6569 66.9772 69.4193L69.7381 72.3138ZM72.0075 64.7684C71.1847 65.5054 71.1152 66.7698 71.8522 67.5926C72.5892 68.4153 73.8537 68.4848 74.6764 67.7478L72.0075 64.7684ZM79.7567 63.343C80.603 62.6332 80.7137 61.3717 80.0039 60.5254C79.2941 59.6791 78.0326 59.5685 77.1863 60.2783L79.7567 63.343ZM82.5141 55.9605C81.6442 56.6413 81.4908 57.8983 82.1715 58.7682C82.8522 59.638 84.1092 59.7914 84.9791 59.1107L82.5141 55.9605ZM90.3433 55.0625C91.2367 54.4129 91.4342 53.162 90.7846 52.2687C90.135 51.3754 88.8842 51.1778 87.9908 51.8274L90.3433 55.0625ZM93.6156 47.8915C92.6991 48.508 92.4559 49.7508 93.0724 50.6673C93.6889 51.5838 94.9316 51.827 95.8482 51.2105L93.6156 47.8915ZM101.492 47.5671C102.431 46.9858 102.721 45.7531 102.14 44.8139C101.559 43.8747 100.326 43.5845 99.3867 44.1658L101.492 47.5671ZM105.294 40.6673C104.333 41.2113 103.994 42.4316 104.538 43.3929C105.082 44.3542 106.303 44.6925 107.264 44.1484L105.294 40.6673ZM113.164 40.9644C114.146 40.4596 114.533 39.254 114.029 38.2715C113.524 37.289 112.318 36.9017 111.336 37.4065L113.164 40.9644ZM117.509 34.3944C116.507 34.8579 116.07 36.0465 116.533 37.0491C116.997 38.0517 118.185 38.4886 119.188 38.0251L117.509 34.3944ZM125.475 35.2607C126.492 34.8298 126.967 33.6559 126.536 32.6389C126.105 31.6219 124.931 31.1468 123.914 31.5777L125.475 35.2607ZM130.406 28.9127C129.379 29.3205 128.878 30.4832 129.285 31.5098C129.693 32.5363 130.856 33.0379 131.882 32.6302L130.406 28.9127ZM138.347 30.1501C139.383 29.7669 139.912 28.6164 139.529 27.5805C139.146 26.5445 137.995 26.0154 136.959 26.3986L138.347 30.1501ZM143.576 24.0438C142.531 24.401 141.973 25.5378 142.33 26.5831C142.688 27.6283 143.824 28.1861 144.87 27.8289L143.576 24.0438ZM151.45 25.6757C152.504 25.3462 153.092 24.2244 152.762 23.1701C152.433 22.1159 151.311 21.5283 150.257 21.8579L151.45 25.6757ZM156.999 19.8518C155.936 20.152 155.317 21.257 155.618 22.32C155.918 23.383 157.023 24.0015 158.086 23.7013L156.999 19.8518ZM164.773 21.9176C165.844 21.6487 166.495 20.5622 166.226 19.4909C165.957 18.4195 164.871 17.769 163.799 18.0379L164.773 21.9176ZM170.652 16.4295C169.572 16.6651 168.889 17.7309 169.124 18.81C169.36 19.8892 170.426 20.573 171.505 20.3375L170.652 16.4295ZM178.271 18.9751C179.357 18.775 180.075 17.7322 179.875 16.6459C179.675 15.5596 178.632 14.8412 177.546 15.0413L178.271 18.9751ZM184.478 13.8872C183.386 14.0495 182.632 15.0667 182.794 16.1593C182.956 17.2519 183.973 18.0061 185.066 17.8438L184.478 13.8872ZM191.934 16.953C193.032 16.8315 193.824 15.8431 193.702 14.7452C193.581 13.6473 192.592 12.8558 191.494 12.9772L191.934 16.953ZM198.505 12.3405C197.404 12.4183 196.573 13.3746 196.651 14.4765C196.729 15.5783 197.685 16.4084 198.787 16.3306L198.505 12.3405ZM205.684 15.9898C206.788 15.9593 207.659 15.0394 207.628 13.9353C207.598 12.8311 206.678 11.9608 205.574 11.9914L205.684 15.9898ZM212.63 11.9574C211.526 11.9368 210.614 12.8153 210.593 13.9197C210.573 15.024 211.451 15.9361 212.556 15.9567L212.63 11.9574ZM219.417 16.2573C220.519 16.3344 221.474 15.5035 221.551 14.4016C221.628 13.2998 220.797 12.3441 219.695 12.2671L219.417 16.2573ZM226.767 12.9621C225.671 12.8217 224.669 13.596 224.529 14.6917C224.389 15.7873 225.163 16.7893 226.259 16.9297L226.767 12.9621ZM232.988 18.0168C234.072 18.2311 235.124 17.5263 235.338 16.4427C235.552 15.3592 234.848 14.307 233.764 14.0928L232.988 18.0168ZM240.73 15.7825C239.671 15.4694 238.559 16.0743 238.245 17.1336C237.932 18.1928 238.537 19.3053 239.597 19.6184L240.73 15.7825ZM6 163.001C7.86827 163.715 7.86825 163.715 7.86823 163.715C7.86822 163.715 7.8682 163.715 7.86819 163.715C7.86818 163.715 7.86816 163.715 7.86816 163.715C7.86815 163.715 7.86816 163.715 7.8682 163.715C7.86828 163.715 7.86846 163.714 7.86874 163.714C7.8693 163.712 7.87027 163.71 7.87165 163.706C7.87441 163.699 7.87879 163.687 7.8848 163.672C7.89684 163.641 7.91539 163.593 7.94049 163.529C7.9907 163.401 8.06708 163.208 8.16982 162.952C8.37529 162.441 8.68613 161.682 9.10367 160.698L5.42146 159.136C4.99371 160.144 4.67327 160.926 4.45878 161.46C4.35154 161.726 4.27077 161.93 4.21632 162.069C4.1891 162.139 4.16845 162.192 4.15436 162.228C4.14731 162.247 4.14191 162.261 4.13814 162.27C4.13625 162.275 4.13477 162.279 4.13371 162.282C4.13317 162.283 4.13274 162.284 4.13241 162.285C4.13225 162.286 4.13211 162.286 4.132 162.286C4.13194 162.287 4.13189 162.287 4.13184 162.287C4.13182 162.287 4.13179 162.287 4.13178 162.287C4.13176 162.287 4.13173 162.287 6 163.001ZM11.8501 154.526C12.6886 152.717 13.6614 150.677 14.7701 148.439L11.186 146.663C10.0611 148.934 9.07337 151.005 8.22102 152.844L11.8501 154.526ZM17.8253 142.454C18.8201 140.56 19.8911 138.571 21.0389 136.502L17.541 134.562C16.3779 136.659 15.2925 138.674 14.2841 140.594L17.8253 142.454ZM24.3673 130.657C25.4675 128.775 26.624 126.842 27.8376 124.868L24.43 122.773C23.2003 124.773 22.0284 126.732 20.9137 128.639L24.3673 130.657ZM31.4402 119.154C32.6369 117.303 33.8805 115.424 35.1714 113.525L31.8631 111.277C30.5544 113.202 29.2938 115.106 28.081 116.982L31.4402 119.154ZM39.03 107.988C40.3171 106.187 41.6454 104.373 43.0153 102.551L39.8182 100.148C38.4284 101.996 37.081 103.836 35.7756 105.662L39.03 107.988ZM47.1318 97.2157C48.5108 95.4739 49.9275 93.7294 51.3821 91.9866L48.3112 89.4235C46.8339 91.1935 45.3955 92.9647 43.9957 94.7328L47.1318 97.2157ZM55.7648 86.8753C57.2358 85.2058 58.7421 83.5418 60.2837 81.8871L57.3572 79.1604C55.7895 80.8429 54.2584 82.5344 52.7636 84.231L55.7648 86.8753ZM64.941 77.0302C66.5064 75.4444 68.1054 73.8711 69.7381 72.3138L66.9772 69.4193C65.3148 71.0051 63.6872 72.6065 62.0944 74.22L64.941 77.0302ZM74.6764 67.7478C76.3374 66.2599 78.0308 64.7906 79.7567 63.343L77.1863 60.2783C75.4262 61.7544 73.7 63.2522 72.0075 64.7684L74.6764 67.7478ZM84.9791 59.1107C86.7357 57.7361 88.5237 56.3857 90.3433 55.0625L87.9908 51.8274C86.1323 53.1789 84.3068 54.5577 82.5141 55.9605L84.9791 59.1107ZM95.8482 51.2105C97.6986 49.9658 99.5798 48.7503 101.492 47.5671L99.3867 44.1658C97.4308 45.3762 95.5072 46.6192 93.6156 47.8915L95.8482 51.2105ZM107.264 44.1484C109.201 43.0524 111.167 41.9901 113.164 40.9644L111.336 37.4065C109.29 38.4573 107.276 39.5452 105.294 40.6673L107.264 44.1484ZM119.188 38.0251C120.203 37.5556 121.226 37.0957 122.256 36.6457L120.655 32.9802C119.598 33.4417 118.55 33.9131 117.509 34.3944L119.188 38.0251ZM122.256 36.6457C123.336 36.1741 124.409 35.7125 125.475 35.2607L123.914 31.5777C122.834 32.0353 121.748 32.5027 120.655 32.9802L122.256 36.6457ZM131.882 32.6302C134.068 31.7622 136.223 30.9361 138.347 30.1501L136.959 26.3986C134.805 27.1956 132.62 28.0331 130.406 28.9127L131.882 32.6302ZM144.87 27.8289C147.099 27.0671 149.292 26.3501 151.45 25.6757L150.257 21.8579C148.065 22.5428 145.839 23.2707 143.576 24.0438L144.87 27.8289ZM158.086 23.7013C160.358 23.0597 162.587 22.4661 164.773 21.9176L163.799 18.0379C161.576 18.596 159.309 19.1996 156.999 19.8518L158.086 23.7013ZM171.505 20.3375C173.813 19.8335 176.069 19.3807 178.271 18.9751L177.546 15.0413C175.301 15.4548 173.003 15.9162 170.652 16.4295L171.505 20.3375ZM185.066 17.8438C187.425 17.4936 189.714 17.1985 191.934 16.953L191.494 12.9772C189.225 13.2282 186.886 13.5297 184.478 13.8872L185.066 17.8438ZM198.787 16.3306C201.181 16.1615 203.48 16.0508 205.684 15.9898L205.574 11.9914C203.312 12.0539 200.956 12.1674 198.505 12.3405L198.787 16.3306ZM212.556 15.9567C214.985 16.0022 217.273 16.1076 219.417 16.2573L219.695 12.2671C217.484 12.1126 215.129 12.0042 212.63 11.9574L212.556 15.9567ZM226.259 16.9297C228.789 17.2539 231.034 17.6304 232.988 18.0168L233.764 14.0928C231.723 13.6892 229.389 13.2981 226.767 12.9621L226.259 16.9297ZM239.597 19.6184C240.651 19.93 241.437 20.1962 241.952 20.3811C242.21 20.4735 242.4 20.5457 242.521 20.593C242.581 20.6166 242.625 20.6341 242.651 20.6448C242.664 20.6501 242.673 20.6538 242.678 20.6557C242.68 20.6566 242.681 20.6571 242.681 20.6572C242.682 20.6572 242.681 20.6571 242.681 20.6569C242.681 20.6568 242.68 20.6567 242.68 20.6566C242.68 20.6565 242.68 20.6564 242.679 20.6563C242.679 20.6563 242.679 20.6562 242.679 20.6562C242.679 20.6561 242.679 20.656 243.455 18.813C244.232 16.9699 244.232 16.9698 244.232 16.9698C244.232 16.9697 244.231 16.9696 244.231 16.9696C244.231 16.9695 244.231 16.9693 244.23 16.9692C244.23 16.9689 244.229 16.9686 244.228 16.9683C244.227 16.9676 244.225 16.9669 244.223 16.966C244.218 16.9643 244.213 16.9621 244.207 16.9594C244.194 16.9542 244.177 16.9471 244.156 16.9385C244.113 16.9211 244.053 16.897 243.975 16.8668C243.82 16.8063 243.596 16.7213 243.304 16.6163C242.719 16.4063 241.86 16.1162 240.73 15.7825L239.597 19.6184Z" fill="#115B86"/>
</g>
<defs>
<filter id="filter0_d" x="0" y="0.140625" width="249.456" height="172.861" filterUnits="userSpaceOnUse" color-interpolation-filters="sRGB">
<feFlood flood-opacity="0" result="BackgroundImageFix"/>
<feColorMatrix in="SourceAlpha" type="matrix" values="0 0 0 0 0 0 0 0 0 0 0 0 0 0 0 0 0 0 127 0"/>
<feOffset dy="4"/>
<feGaussianBlur stdDeviation="2"/>
<feColorMatrix type="matrix" values="0 0 0 0 0 0 0 0 0 0 0 0 0 0 0 0 0 0 0.2 0"/>
<feBlend mode="normal" in2="BackgroundImageFix" result="effect1_dropShadow"/>
<feBlend mode="normal" in="SourceGraphic" in2="effect1_dropShadow" result="shape"/>
</filter>
</defs>
</svg>
