<svg width="290" height="408" viewBox="0 0 290 408" fill="none" xmlns="http://www.w3.org/2000/svg">
<g opacity="0.4" filter="url(#filter0_d)">
<path d="M6.53468 395.196C5.4316 395.139 4.49115 395.987 4.43415 397.09C4.37714 398.193 5.22518 399.134 6.32828 399.191L6.53468 395.196ZM214.077 0.00146422C212.973 -0.0407936 212.044 0.819725 212.001 1.92349L211.313 19.9103C211.271 21.0141 212.131 21.9431 213.235 21.9854C214.339 22.0276 215.268 21.1671 215.31 20.0633L215.922 4.07505L231.91 4.68717C233.014 4.72942 233.943 3.86891 233.985 2.76515C234.028 1.66138 233.167 0.732353 232.063 0.690096L214.077 0.00146422ZM263 267L264.805 267.861L263 267ZM214.78 5.91041C215.498 6.74899 216.761 6.84598 217.6 6.12705C218.438 5.40812 218.535 4.14551 217.816 3.30694L214.78 5.91041ZM222.426 8.88619C221.736 8.02344 220.477 7.88318 219.615 8.57292C218.752 9.26265 218.611 10.5212 219.301 11.3839L222.426 8.88619ZM223.636 16.9613C224.302 17.8422 225.557 18.0161 226.438 17.3497C227.319 16.6834 227.493 15.429 226.826 14.5481L223.636 16.9613ZM231.086 20.3259C230.442 19.429 229.192 19.2247 228.295 19.8695C227.398 20.5143 227.194 21.7641 227.839 22.6609L231.086 20.3259ZM231.917 28.4743C232.541 29.3858 233.785 29.6189 234.697 28.995C235.608 28.3711 235.841 27.1264 235.217 26.2149L231.917 28.4743ZM239.209 32.1894C238.606 31.2641 237.366 31.0031 236.441 31.6064C235.516 32.2096 235.255 33.4488 235.858 34.374L239.209 32.1894ZM239.664 40.3558C240.247 41.2943 241.48 41.5828 242.418 41.0002C243.357 40.4177 243.645 39.1846 243.062 38.2462L239.664 40.3558ZM246.781 44.3879C246.22 43.4368 244.993 43.121 244.042 43.6826C243.091 44.2441 242.775 45.4705 243.337 46.4216L246.781 44.3879ZM246.877 52.574C247.417 53.5375 248.636 53.8807 249.6 53.3405C250.563 52.8003 250.907 51.5814 250.366 50.6179L246.877 52.574ZM253.816 56.938C253.298 55.9625 252.087 55.5918 251.112 56.11C250.136 56.6282 249.766 57.839 250.284 58.8145L253.816 56.938ZM253.546 65.1303C254.042 66.1174 255.244 66.5159 256.231 66.0204C257.218 65.5248 257.617 64.3228 257.121 63.3356L253.546 65.1303ZM260.256 69.7655C259.783 68.767 258.591 68.3406 257.593 68.813C256.594 69.2854 256.168 70.4778 256.64 71.4762L260.256 69.7655ZM259.593 77.9137C260.041 78.9232 261.223 79.378 262.232 78.9296C263.242 78.4812 263.697 77.2993 263.248 76.2899L259.593 77.9137ZM266.091 82.9062C265.667 81.886 264.497 81.4023 263.477 81.8258C262.457 82.2493 261.973 83.4197 262.397 84.4398L266.091 82.9062ZM265.034 91.0234C265.431 92.0539 266.589 92.5668 267.62 92.169C268.65 91.7713 269.163 90.6135 268.765 89.583L265.034 91.0234ZM271.261 96.3024C270.89 95.262 269.745 94.7195 268.705 95.0907C267.665 95.4619 267.122 96.6061 267.493 97.6465L271.261 96.3024ZM269.787 104.355C270.131 105.404 271.26 105.977 272.31 105.634C273.36 105.29 273.933 104.161 273.589 103.111L269.787 104.355ZM275.737 109.989C275.422 108.93 274.309 108.327 273.25 108.642C272.191 108.957 271.588 110.07 271.903 111.129L275.737 109.989ZM273.821 117.922C274.107 118.989 275.203 119.623 276.27 119.338C277.337 119.053 277.971 117.956 277.686 116.889L273.821 117.922ZM279.446 123.869C279.191 122.794 278.113 122.129 277.038 122.384C275.964 122.639 275.299 123.717 275.553 124.791L279.446 123.869ZM277.086 131.71C277.309 132.792 278.367 133.488 279.449 133.265C280.53 133.042 281.227 131.985 281.004 130.903L277.086 131.71ZM282.347 137.954C282.157 136.866 281.121 136.139 280.033 136.329C278.945 136.519 278.217 137.556 278.407 138.644L282.347 137.954ZM279.521 145.64C279.678 146.734 280.691 147.493 281.785 147.336C282.878 147.18 283.637 146.166 283.481 145.073L279.521 145.64ZM284.39 152.21C284.267 151.112 283.278 150.321 282.181 150.443C281.083 150.565 280.292 151.555 280.414 152.652L284.39 152.21ZM281.083 159.683C281.17 160.784 282.134 161.606 283.235 161.519C284.336 161.432 285.158 160.469 285.071 159.368L281.083 159.683ZM285.522 166.579C285.471 165.476 284.535 164.622 283.432 164.673C282.329 164.724 281.475 165.659 281.526 166.763L285.522 166.579ZM281.733 173.802C281.747 174.907 282.653 175.791 283.758 175.777C284.862 175.763 285.746 174.856 285.732 173.751L281.733 173.802ZM285.702 180.961C285.726 179.857 284.849 178.942 283.745 178.919C282.641 178.896 281.727 179.772 281.703 180.877L285.702 180.961ZM281.434 187.938C281.373 189.041 282.217 189.984 283.32 190.045C284.423 190.106 285.367 189.262 285.428 188.159L281.434 187.938ZM284.907 195.332C285.006 194.232 284.194 193.26 283.094 193.161C281.994 193.062 281.022 193.874 280.923 194.974L284.907 195.332ZM280.165 202.024C280.028 203.12 280.805 204.119 281.901 204.257C282.997 204.394 283.997 203.617 284.134 202.521L280.165 202.024ZM283.12 209.621C283.295 208.531 282.553 207.504 281.462 207.329C280.372 207.154 279.345 207.896 279.17 208.987L283.12 209.621ZM277.924 215.968C277.711 217.052 278.417 218.104 279.5 218.317C280.584 218.53 281.636 217.824 281.849 216.74L277.924 215.968ZM280.343 223.755C280.593 222.679 279.924 221.604 278.848 221.354C277.773 221.103 276.698 221.773 276.447 222.848L280.343 223.755ZM274.723 229.715C274.435 230.782 275.067 231.879 276.133 232.167C277.2 232.454 278.298 231.823 278.585 230.756L274.723 229.715ZM276.596 237.664C276.92 236.608 276.326 235.489 275.27 235.166C274.214 234.842 273.095 235.436 272.771 236.492L276.596 237.664ZM270.585 243.216C270.226 244.261 270.782 245.399 271.826 245.758C272.871 246.117 274.009 245.561 274.368 244.517L270.585 243.216ZM271.915 251.283C272.308 250.251 271.791 249.095 270.759 248.701C269.727 248.308 268.571 248.825 268.177 249.857L271.915 251.283ZM265.551 256.417C265.124 257.435 265.603 258.607 266.622 259.035C267.64 259.462 268.812 258.982 269.24 257.964L265.551 256.417ZM266.349 264.556C266.809 263.552 266.367 262.365 265.363 261.906C264.358 261.446 263.172 261.888 262.712 262.892L266.349 264.556ZM259.678 269.251C259.185 270.24 259.587 271.44 260.576 271.933C261.565 272.425 262.766 272.023 263.258 271.034L259.678 269.251ZM260.04 277.228C260.566 276.257 260.205 275.043 259.233 274.517C258.262 273.991 257.048 274.352 256.522 275.324L260.04 277.228ZM253.168 281.271C252.608 282.224 252.927 283.449 253.88 284.008C254.832 284.568 256.058 284.249 256.617 283.296L253.168 281.271ZM252.976 289.258C253.568 288.325 253.292 287.089 252.36 286.497C251.427 285.905 250.192 286.181 249.599 287.113L252.976 289.258ZM245.838 292.812C245.214 293.723 245.446 294.967 246.357 295.592C247.268 296.217 248.513 295.984 249.138 295.073L245.838 292.812ZM245.088 300.763C245.744 299.875 245.556 298.623 244.667 297.966C243.779 297.31 242.527 297.498 241.87 298.387L245.088 300.763ZM237.715 303.809C237.028 304.674 237.172 305.932 238.036 306.619C238.901 307.306 240.159 307.163 240.846 306.298L237.715 303.809ZM236.409 311.684C237.126 310.844 237.026 309.582 236.186 308.865C235.346 308.148 234.084 308.247 233.367 309.087L236.409 311.684ZM228.836 314.21C228.09 315.024 228.146 316.289 228.96 317.035C229.775 317.781 231.04 317.726 231.786 316.911L228.836 314.21ZM226.989 321.97C227.763 321.182 227.751 319.916 226.963 319.142C226.174 318.368 224.908 318.38 224.134 319.168L226.989 321.97ZM219.255 323.971C218.455 324.732 218.424 325.998 219.185 326.798C219.946 327.599 221.212 327.63 222.013 326.869L219.255 323.971ZM216.888 331.583C217.713 330.849 217.787 329.584 217.053 328.759C216.319 327.934 215.055 327.86 214.229 328.594L216.888 331.583ZM209.033 333.064C208.184 333.77 208.068 335.031 208.774 335.88C209.481 336.729 210.742 336.845 211.591 336.139L209.033 333.064ZM206.173 340.499C207.045 339.82 207.201 338.563 206.523 337.692C205.844 336.82 204.587 336.664 203.716 337.343L206.173 340.499ZM198.234 341.473C197.342 342.123 197.146 343.374 197.796 344.267C198.447 345.159 199.698 345.356 200.591 344.705L198.234 341.473ZM194.906 348.716C195.818 348.093 196.052 346.849 195.429 345.936C194.807 345.024 193.562 344.79 192.65 345.413L194.906 348.716ZM186.928 349.194C185.997 349.79 185.726 351.026 186.321 351.957C186.916 352.888 188.153 353.159 189.083 352.564L186.928 349.194ZM183.163 356.23C184.11 355.662 184.418 354.434 183.851 353.486C183.283 352.539 182.054 352.231 181.107 352.799L183.163 356.23ZM175.18 356.236C174.217 356.777 173.874 357.996 174.415 358.959C174.956 359.923 176.175 360.265 177.138 359.724L175.18 356.236ZM171.014 363.051C171.992 362.537 172.368 361.328 171.854 360.35C171.34 359.373 170.131 358.997 169.153 359.511L171.014 363.051ZM163.054 362.613C162.063 363.101 161.655 364.299 162.143 365.29C162.631 366.281 163.829 366.689 164.821 366.202L163.054 362.613ZM158.521 369.201C159.524 368.739 159.963 367.551 159.502 366.547C159.04 365.544 157.852 365.105 156.848 365.567L158.521 369.201ZM150.594 368.351C149.58 368.788 149.111 369.964 149.548 370.979C149.985 371.993 151.161 372.462 152.176 372.025L150.594 368.351ZM145.741 374.702C146.766 374.29 147.263 373.125 146.851 372.1C146.439 371.075 145.275 370.578 144.25 370.99L145.741 374.702ZM137.852 373.474C136.817 373.861 136.293 375.014 136.681 376.048C137.068 377.083 138.221 377.607 139.255 377.219L137.852 373.474ZM132.727 379.581C133.77 379.217 134.32 378.077 133.956 377.034C133.592 375.991 132.452 375.44 131.409 375.805L132.727 379.581ZM124.884 378.001C123.834 378.341 123.258 379.469 123.599 380.52C123.94 381.571 125.068 382.146 126.119 381.805L124.884 378.001ZM119.499 383.874C120.557 383.556 121.156 382.441 120.838 381.383C120.52 380.325 119.404 379.726 118.347 380.044L119.499 383.874ZM111.74 381.957C110.676 382.253 110.053 383.355 110.349 384.42C110.645 385.484 111.748 386.106 112.812 385.81L111.74 381.957ZM106.088 387.608C107.158 387.333 107.803 386.243 107.528 385.173C107.254 384.104 106.164 383.459 105.094 383.733L106.088 387.608ZM98.4538 385.367C97.3787 385.621 96.7126 386.698 96.966 387.773C97.2195 388.848 98.2965 389.514 99.3716 389.261L98.4538 385.367ZM92.5652 390.796C93.645 390.563 94.3318 389.499 94.0992 388.419C93.8665 387.339 92.8026 386.653 91.7228 386.885L92.5652 390.796ZM84.9831 388.271C83.8991 388.483 83.1925 389.534 83.4047 390.618C83.617 391.702 84.6678 392.409 85.7518 392.196L84.9831 388.271ZM78.9537 393.463C80.0414 393.27 80.7672 392.233 80.5749 391.145C80.3825 390.057 79.3448 389.331 78.2571 389.524L78.9537 393.463ZM71.4623 390.662C70.3713 390.834 69.6268 391.859 69.7994 392.95C69.972 394.041 70.9963 394.785 72.0873 394.613L71.4623 390.662ZM65.1936 395.64C66.2875 395.487 67.0502 394.476 66.8972 393.382C66.7442 392.288 65.7334 391.525 64.6394 391.679L65.1936 395.64ZM57.8252 392.57C56.7287 392.704 55.9482 393.701 56.0819 394.798C56.2155 395.894 57.2128 396.675 58.3092 396.541L57.8252 392.57ZM51.4316 397.318C52.5302 397.204 53.3281 396.22 53.2137 395.122C53.0993 394.023 52.116 393.225 51.0174 393.34L51.4316 397.318ZM44.2077 393.988C43.1072 394.083 42.2922 395.052 42.3872 396.153C42.4822 397.253 43.4514 398.068 44.5518 397.973L44.2077 393.988ZM37.6183 398.509C38.7203 398.434 39.5527 397.48 39.4775 396.378C39.4023 395.276 38.4479 394.444 37.3459 394.519L37.6183 398.509ZM30.492 394.923C29.3887 394.978 28.5389 395.917 28.5937 397.02C28.6485 398.123 29.5873 398.973 30.6905 398.918L30.492 394.923ZM23.7135 399.197C24.8175 399.164 25.6857 398.242 25.6526 397.138C25.6195 396.034 24.6977 395.166 23.5936 395.199L23.7135 399.197ZM16.6693 395.332C15.5648 395.341 14.6765 396.244 14.6854 397.348C14.6942 398.453 15.5967 399.341 16.7012 399.332L16.6693 395.332ZM9.72272 399.296C10.8271 399.319 11.7403 398.441 11.7625 397.337C11.7847 396.233 10.9074 395.319 9.80306 395.297L9.72272 399.296ZM214 2C212.533 3.35907 212.533 3.35903 212.533 3.35898C212.533 3.35897 212.533 3.35893 212.533 3.35891C212.533 3.35887 212.533 3.35884 212.532 3.35883C212.532 3.3588 212.532 3.35883 212.533 3.35891C212.533 3.35907 212.533 3.35945 212.534 3.36004C212.535 3.36123 212.537 3.36329 212.539 3.36621C212.545 3.37206 212.553 3.38137 212.565 3.39412C212.588 3.41962 212.624 3.4589 212.672 3.51183C212.769 3.61769 212.914 3.77814 213.105 3.99214C213.487 4.42015 214.052 5.06233 214.78 5.91041L217.816 3.30694C217.071 2.43799 216.488 1.77584 216.089 1.32877C215.89 1.10523 215.736 0.93545 215.632 0.820468C215.579 0.762976 215.539 0.719182 215.512 0.689216C215.498 0.674233 215.487 0.662706 215.48 0.654652C215.476 0.650625 215.473 0.647467 215.471 0.645178C215.47 0.644034 215.469 0.643108 215.469 0.642399C215.468 0.642044 215.468 0.641744 215.468 0.641499C215.468 0.641376 215.468 0.641267 215.468 0.641171C215.467 0.641124 215.467 0.641062 215.467 0.641038C215.467 0.64098 215.467 0.640926 214 2ZM219.301 11.3839C220.602 13.0115 222.057 14.8743 223.636 16.9613L226.826 14.5481C225.225 12.4314 223.748 10.5404 222.426 8.88619L219.301 11.3839ZM227.839 22.6609C229.148 24.482 230.511 26.4214 231.917 28.4743L235.217 26.2149C233.794 24.1357 232.413 22.1712 231.086 20.3259L227.839 22.6609ZM235.858 34.374C237.107 36.2901 238.378 38.2849 239.664 40.3558L243.062 38.2462C241.761 36.1494 240.474 34.1295 239.209 32.1894L235.858 34.374ZM243.337 46.4216C244.513 48.4136 245.695 50.4651 246.877 52.574L250.366 50.6179C249.169 48.4823 247.972 46.4049 246.781 44.3879L243.337 46.4216ZM250.284 58.8145C251.377 60.8726 252.466 62.9784 253.546 65.1303L257.121 63.3356C256.027 61.1556 254.924 59.0225 253.816 56.938L250.284 58.8145ZM256.64 71.4762C257.637 73.5831 258.622 75.7294 259.593 77.9137L263.248 76.2899C262.265 74.0758 261.266 71.9005 260.256 69.7655L256.64 71.4762ZM262.397 84.4398C263.294 86.6012 264.174 88.7961 265.034 91.0234L268.765 89.583C267.893 87.3238 267.001 85.0977 266.091 82.9062L262.397 84.4398ZM267.493 97.6465C268.281 99.8539 269.047 102.09 269.787 104.355L273.589 103.111C272.837 100.812 272.06 98.5423 271.261 96.3024L267.493 97.6465ZM271.903 111.129C272.569 113.369 273.209 115.634 273.821 117.922L277.686 116.889C277.064 114.564 276.414 112.264 275.737 109.989L271.903 111.129ZM275.553 124.791C276.095 127.076 276.606 129.382 277.086 131.71L281.004 130.903C280.516 128.536 279.996 126.191 279.446 123.869L275.553 124.791ZM278.407 138.644C278.812 140.957 279.184 143.289 279.521 145.64L283.481 145.073C283.138 142.68 282.759 140.307 282.347 137.954L278.407 138.644ZM280.414 152.652C280.673 154.979 280.897 157.323 281.083 159.683L285.071 159.368C284.881 156.965 284.654 154.578 284.39 152.21L280.414 152.652ZM281.526 166.763C281.633 169.095 281.703 171.442 281.733 173.802L285.732 173.751C285.702 171.346 285.631 168.955 285.522 166.579L281.526 166.763ZM281.703 180.877C281.654 183.218 281.565 185.572 281.434 187.938L285.428 188.159C285.561 185.747 285.652 183.347 285.702 180.961L281.703 180.877ZM280.923 194.974C280.712 197.313 280.46 199.663 280.165 202.024L284.134 202.521C284.435 200.114 284.692 197.717 284.907 195.332L280.923 194.974ZM279.17 208.987C278.798 211.305 278.383 213.632 277.924 215.968L281.849 216.74C282.317 214.358 282.74 211.985 283.12 209.621L279.17 208.987ZM276.447 222.848C275.916 225.13 275.342 227.419 274.723 229.715L278.585 230.756C279.216 228.415 279.801 226.081 280.343 223.755L276.447 222.848ZM272.771 236.492C272.086 238.727 271.358 240.969 270.585 243.216L274.368 244.517C275.155 242.227 275.898 239.942 276.596 237.664L272.771 236.492ZM268.177 249.857C267.345 252.039 266.47 254.225 265.551 256.417L269.24 257.964C270.175 255.732 271.067 253.505 271.915 251.283L268.177 249.857ZM262.712 262.892C262.217 263.973 261.712 265.056 261.195 266.139L264.805 267.861C265.331 266.759 265.846 265.657 266.349 264.556L262.712 262.892ZM261.195 266.139C260.696 267.185 260.19 268.222 259.678 269.251L263.258 271.034C263.781 269.985 264.297 268.927 264.805 267.861L261.195 266.139ZM256.522 275.324C255.43 277.34 254.312 279.322 253.168 281.271L256.617 283.296C257.785 281.308 258.926 279.285 260.04 277.228L256.522 275.324ZM249.599 287.113C248.371 289.047 247.117 290.946 245.838 292.812L249.138 295.073C250.443 293.169 251.723 291.231 252.976 289.258L249.599 287.113ZM241.87 298.387C240.509 300.229 239.124 302.036 237.715 303.809L240.846 306.298C242.284 304.488 243.699 302.644 245.088 300.763L241.87 298.387ZM233.367 309.087C231.879 310.83 230.369 312.537 228.836 314.21L231.786 316.911C233.35 315.205 234.891 313.462 236.409 311.684L233.367 309.087ZM224.134 319.168C222.529 320.804 220.902 322.404 219.255 323.971L222.013 326.869C223.692 325.271 225.351 323.639 226.989 321.97L224.134 319.168ZM214.229 328.594C212.516 330.118 210.783 331.608 209.033 333.064L211.591 336.139C213.374 334.655 215.141 333.137 216.888 331.583L214.229 328.594ZM203.716 337.343C201.905 338.753 200.077 340.129 198.234 341.473L200.591 344.705C202.467 343.337 204.328 341.935 206.173 340.499L203.716 337.343ZM192.65 345.413C190.756 346.706 188.848 347.967 186.928 349.194L189.083 352.564C191.036 351.315 192.978 350.032 194.906 348.716L192.65 345.413ZM181.107 352.799C179.141 353.976 177.165 355.122 175.18 356.236L177.138 359.724C179.155 358.592 181.164 357.427 183.163 356.23L181.107 352.799ZM169.153 359.511C167.127 360.576 165.093 361.609 163.054 362.613L164.821 366.202C166.891 365.183 168.956 364.133 171.014 363.051L169.153 359.511ZM156.848 365.567C154.767 366.525 152.682 367.453 150.594 368.351L152.176 372.025C154.293 371.114 156.409 370.173 158.521 369.201L156.848 365.567ZM144.25 370.99C142.116 371.847 139.983 372.675 137.852 373.474L139.255 377.219C141.415 376.41 143.578 375.571 145.741 374.702L144.25 370.99ZM131.409 375.805C129.229 376.565 127.053 377.297 124.884 378.001L126.119 381.805C128.315 381.093 130.519 380.352 132.727 379.581L131.409 375.805ZM118.347 380.044C116.134 380.71 113.931 381.347 111.74 381.957L112.812 385.81C115.03 385.193 117.259 384.548 119.499 383.874L118.347 380.044ZM105.094 383.733C102.865 384.305 100.65 384.849 98.4538 385.367L99.3716 389.261C101.593 388.737 103.833 388.186 106.088 387.608L105.094 383.733ZM91.7228 386.885C89.4528 387.374 87.2052 387.836 84.9831 388.271L85.7518 392.196C87.9979 391.756 90.2701 391.29 92.5652 390.796L91.7228 386.885ZM78.2571 389.524C75.9588 389.93 73.6927 390.309 71.4623 390.662L72.0873 394.613C74.341 394.256 76.631 393.873 78.9537 393.463L78.2571 389.524ZM64.6394 391.679C62.3206 392.003 60.0477 392.299 57.8252 392.57L58.3092 396.541C60.5545 396.267 62.8508 395.968 65.1936 395.64L64.6394 391.679ZM51.0174 393.34C48.6777 393.583 46.4057 393.798 44.2077 393.988L44.5518 397.973C46.7726 397.782 49.0679 397.564 51.4316 397.318L51.0174 393.34ZM37.3459 394.519C34.9453 394.683 32.6573 394.816 30.492 394.923L30.6905 398.918C32.8797 398.81 35.1924 398.675 37.6183 398.509L37.3459 394.519ZM23.5936 395.199C21.024 395.276 18.7072 395.316 16.6693 395.332L16.7012 399.332C18.7672 399.316 21.1134 399.275 23.7135 399.197L23.5936 395.199ZM9.80306 395.297C8.72874 395.276 7.90677 395.25 7.35579 395.23C7.0803 395.22 6.87257 395.211 6.73494 395.205C6.66613 395.202 6.61484 395.2 6.58136 395.198C6.56463 395.197 6.55235 395.197 6.54456 395.196C6.54065 395.196 6.53789 395.196 6.53624 395.196C6.53543 395.196 6.53487 395.196 6.53461 395.196C6.53448 395.196 6.53442 395.196 6.53445 395.196C6.53445 395.196 6.53447 395.196 6.53452 395.196C6.53453 395.196 6.53458 395.196 6.53459 395.196C6.53464 395.196 6.53468 395.196 6.43148 397.193C6.32828 399.191 6.32834 399.191 6.32841 399.191C6.32843 399.191 6.3285 399.191 6.32856 399.191C6.32868 399.191 6.32881 399.191 6.32895 399.191C6.32924 399.191 6.32961 399.191 6.33005 399.191C6.33092 399.191 6.33207 399.191 6.33351 399.191C6.33639 399.191 6.34039 399.191 6.34553 399.191C6.3558 399.192 6.37056 399.193 6.38979 399.194C6.42826 399.195 6.48458 399.198 6.55846 399.201C6.70624 399.208 6.92428 399.217 7.21026 399.227C7.78221 399.248 8.62594 399.274 9.72272 399.296L9.80306 395.297Z" fill="#115B86"/>
</g>
<defs>
<filter id="filter0_d" x="0.429688" y="0" width="289.301" height="407.332" filterUnits="userSpaceOnUse" color-interpolation-filters="sRGB">
<feFlood flood-opacity="0" result="BackgroundImageFix"/>
<feColorMatrix in="SourceAlpha" type="matrix" values="0 0 0 0 0 0 0 0 0 0 0 0 0 0 0 0 0 0 127 0"/>
<feOffset dy="4"/>
<feGaussianBlur stdDeviation="2"/>
<feColorMatrix type="matrix" values="0 0 0 0 0 0 0 0 0 0 0 0 0 0 0 0 0 0 0.2 0"/>
<feBlend mode="normal" in2="BackgroundImageFix" result="effect1_dropShadow"/>
<feBlend mode="normal" in="SourceGraphic" in2="effect1_dropShadow" result="shape"/>
</filter>
</defs>
</svg>
