<svg width="62" height="62" viewBox="0 0 62 62" fill="none" xmlns="http://www.w3.org/2000/svg">
<path d="M59.4209 58.3505L52.8385 21.6262C52.5736 20.1478 51.2873 19.0716 49.7851 19.0716H38.8378C40.8904 17.0499 42.1659 14.2412 42.1659 11.1394C42.1659 4.99704 37.1689 0 31.0266 0C24.8843 0 19.887 4.99704 19.887 11.1394C19.887 14.2412 21.1626 17.0499 23.2151 19.0716H12.2679C10.7657 19.0716 9.47955 20.1478 9.21443 21.6262L2.63202 58.3505C2.47009 59.2547 2.71681 60.184 3.30641 60.8884C3.89581 61.5928 4.76708 61.9998 5.6855 61.9998H56.3675C57.2859 61.9998 58.1572 61.5928 58.7466 60.8884C59.3359 60.184 59.5829 59.2547 59.4209 58.3505ZM31.0266 6.20416C33.7479 6.20416 35.9618 8.41801 35.9618 11.1394C35.9618 13.8607 33.7479 16.0748 31.0266 16.0748C28.3052 16.0748 26.0912 13.8607 26.0912 11.1394C26.0912 8.41801 28.3052 6.20416 31.0266 6.20416ZM30.2159 48.0049C30.0544 48.3027 29.7425 48.4882 29.4038 48.4882H27.9404C27.6124 48.4882 27.3088 48.3143 27.143 48.0311L23.5214 41.8487L21.2054 44.2129V47.06C21.2054 47.8487 20.566 48.4882 19.7772 48.4882C18.9885 48.4882 18.349 47.8487 18.349 47.06V35.769C18.349 34.9803 18.9885 34.3408 19.7772 34.3408C20.566 34.3408 21.2054 34.9803 21.2054 35.769V40.623L26.7021 34.6397C26.877 34.4492 27.124 34.3408 27.3825 34.3408H28.6384C29.0094 34.3408 29.3442 34.5625 29.4892 34.904C29.634 35.2454 29.5605 35.6404 29.3029 35.907L25.4902 39.8507L30.1785 47.0602C30.3632 47.3445 30.3776 47.7069 30.2159 48.0049ZM44.2876 46.1209C44.2876 46.4017 44.1593 46.6685 43.9399 46.8437C43.37 47.2984 42.6191 47.7067 41.6872 48.0682C40.5514 48.5089 39.4014 48.7291 38.2371 48.7291C36.7572 48.7291 35.4677 48.4189 34.3671 47.7979C33.2673 47.1772 32.4403 46.2894 31.8871 45.1344C31.3337 43.9796 31.0572 42.7237 31.0572 41.366C31.0572 39.8929 31.366 38.5834 31.9837 37.4386C32.6012 36.2933 33.5051 35.4154 34.6955 34.8039C35.6022 34.3344 36.7315 34.0993 38.0826 34.0993C39.839 34.0993 41.2107 34.4678 42.1984 35.2045C42.6263 35.5236 42.988 35.8956 43.2835 36.3204C43.566 36.7263 43.6233 37.2477 43.4359 37.7051C43.2486 38.1628 42.8422 38.4947 42.356 38.5857L42.3527 38.5863C41.7831 38.6928 41.2057 38.4405 40.8974 37.95C40.7001 37.6361 40.4484 37.3674 40.143 37.1439C39.5927 36.7418 38.9059 36.5408 38.0826 36.5408C36.8343 36.5408 35.8418 36.9367 35.1056 37.7277C34.369 38.5193 34.0007 39.6934 34.0007 41.2502C34.0007 42.9295 34.3735 44.1887 35.1201 45.0283C35.8662 45.8677 36.844 46.2876 38.0538 46.2876C38.6519 46.2876 39.2519 46.1703 39.8534 45.9354C40.4546 45.7004 40.971 45.4157 41.4022 45.0815V43.2862H39.3228C38.6645 43.2862 38.1312 42.7526 38.1312 42.0946C38.1312 41.4363 38.6647 40.903 39.3228 40.903H43.3636C43.8739 40.903 44.2876 41.3168 44.2876 41.827V46.1209Z" fill="#1B1B25"/>
<path d="M52.8384 21.6264L59.4208 58.3507C59.5827 59.2549 59.3358 60.1842 58.7464 60.8886C58.7464 60.8886 51.6666 31.646 48.4374 27.1251C45.2083 22.6043 38.8376 19.0718 38.8376 19.0718H49.7849C51.2871 19.0718 52.5734 20.148 52.8384 21.6264Z" fill="#00C5FF"/>
</svg>
