<svg width="165" height="80" viewBox="0 0 165 80" fill="none" xmlns="http://www.w3.org/2000/svg">
<path d="M0.0273438 75.2733L5.93682 59.6951H9.44761L15.2699 75.2733H11.7154L10.5379 71.8042H4.71567L3.49452 75.2733H0.0273438ZM7.6377 63.5351L5.60972 69.2515H9.64386L7.68131 63.5351H7.6377ZM36.1216 64.9315H32.8071C32.7053 64.1606 32.3274 63.5133 31.6732 62.9897C31.019 62.466 30.2631 62.2042 29.4053 62.2042C27.9661 62.2042 26.8758 62.7569 26.1344 63.8624C25.4948 64.8079 25.1749 66.0369 25.1749 67.5497C25.1749 69.0042 25.4948 70.1969 26.1344 71.1279C26.8904 72.2188 27.9807 72.7642 29.4053 72.7642C30.423 72.7642 31.2443 72.4369 31.8694 71.7824C32.4509 71.1715 32.8071 70.3351 32.9379 69.2733H36.2525C36.078 71.2079 35.3657 72.7569 34.1155 73.9206C32.8798 75.0697 31.3097 75.6442 29.4053 75.6442C27.0648 75.6442 25.1895 74.8588 23.7793 73.2879C22.4274 71.7897 21.7514 69.8769 21.7514 67.5497C21.7514 65.1642 22.4274 63.2151 23.7793 61.7024C25.1749 60.1169 27.0503 59.3242 29.4053 59.3242C31.1789 59.3242 32.6763 59.8115 33.8974 60.786C35.1767 61.8042 35.9181 63.186 36.1216 64.9315ZM44.4054 75.2733V59.6951H56.0499V62.5751H47.829V65.9133H55.3739V68.5751H47.829V72.3933H56.2244V75.2733H44.4054ZM64.3603 75.2733V59.6951H69.1794L72.8211 70.4079H72.8647L76.31 59.6951H81.1292V75.2733H77.9237V64.2333H77.8801L74.064 75.2733H71.4255L67.6094 64.3424H67.5658V75.2733H64.3603ZM88.3011 75.2733L94.2105 59.6951H97.7213L103.544 75.2733H99.9892L98.8117 71.8042H92.9894L91.7683 75.2733H88.3011ZM95.9114 63.5351L93.8835 69.2515H97.9176L95.955 63.5351H95.9114ZM123.109 59.6951L117.941 75.2733H114.081L109.022 59.6951H112.555L116.022 70.6479H116.066L119.576 59.6951H123.109ZM130.252 75.2733V59.6951H141.896V62.5751H133.675V65.9133H141.22V68.5751H133.675V72.3933H142.071V75.2733H130.252ZM150.206 75.2733V59.6951H153.608L160.106 70.146H160.15V59.6951H163.356V75.2733H159.932L153.456 64.8442H153.412V75.2733H150.206Z" fill="#ECECEC"/>
<path fill-rule="evenodd" clip-rule="evenodd" d="M81.5929 2.86431e-08L78.1402 1.99245V21.9095L81.5929 23.8589V2.86431e-08ZM83.5918 23.8589L87.4079 21.7042V2.20218L83.5918 0V23.8589ZM66.5103 8.70389L70.5081 6.39684V17.6001L66.5103 15.3429V8.70389ZM72.3253 18.6262V5.34816L76.3231 3.04111V20.8835L72.3253 18.6262ZM93.2228 18.4209L89.225 20.6782V3.25085L93.2228 5.55791V18.4209ZM95.04 6.60656V17.3949L99.0378 15.1377V8.91362L95.04 6.60656ZM104.489 12.0596L100.855 14.1117V9.96227L104.489 12.0596ZM64.6931 9.75255L60.6953 12.0596L64.6931 14.3169V9.75255Z" fill="white"/>
<mask id="mask0" mask-type="alpha" maskUnits="userSpaceOnUse" x="60" y="11" width="45" height="34">
<path d="M82.5923 32.3321L60.6953 44.9685V11.2412L104.489 11.9685V44.9685L82.5923 32.3321Z" fill="#1AB8E6"/>
</mask>
<g mask="url(#mask0)">
<path d="M60.6953 12.0596H63.6028V45.2414H60.6953V12.0596Z" fill="white"/>
<path d="M69.4192 12.8779H66.5117V45.9688H69.4192V12.8779Z" fill="white"/>
<path d="M75.2317 13.4229H72.3242V46.5138H75.2317V13.4229Z" fill="white"/>
<path d="M81.0481 13.4229H78.1406V46.5138H81.0481V13.4229Z" fill="white"/>
<path d="M87.0442 10.1504H84.1367V43.2413H87.0442V10.1504Z" fill="white"/>
<path d="M92.8606 11.2412H89.9531V44.3321H92.8606V11.2412Z" fill="white"/>
<path d="M98.6731 11.7871H95.7656V44.878H98.6731V11.7871Z" fill="white"/>
<path d="M101.582 12.0596H104.49V44.8777H101.582V12.0596Z" fill="white"/>
</g>
</svg>
