<svg width="165" height="80" viewBox="0 0 165 80" fill="none" xmlns="http://www.w3.org/2000/svg">
<path d="M0.0292969 75.2728L5.93877 59.6946H9.44956L15.2718 75.2728H11.7174L10.5399 71.8037H4.71762L3.49648 75.2728H0.0292969ZM7.63965 63.5346L5.61168 69.251H9.64582L7.68326 63.5346H7.63965ZM36.1236 64.931H32.8091C32.7073 64.1601 32.3293 63.5128 31.6751 62.9892C31.0209 62.4655 30.265 62.2037 29.4073 62.2037C27.9681 62.2037 26.8778 62.7565 26.1364 63.8619C25.4967 64.8074 25.1769 66.0365 25.1769 67.5492C25.1769 69.0037 25.4967 70.1965 26.1364 71.1274C26.8923 72.2183 27.9826 72.7637 29.4073 72.7637C30.4249 72.7637 31.2463 72.4365 31.8714 71.7819C32.4529 71.171 32.8091 70.3346 32.9399 69.2728H36.2544C36.08 71.2074 35.3676 72.7565 34.1174 73.9201C32.8817 75.0692 31.3117 75.6437 29.4073 75.6437C27.0668 75.6437 25.1914 74.8583 23.7813 73.2874C22.4293 71.7892 21.7533 69.8765 21.7533 67.5492C21.7533 65.1637 22.4293 63.2146 23.7813 61.7019C25.1769 60.1165 27.0522 59.3237 29.4073 59.3237C31.1809 59.3237 32.6782 59.811 33.8994 60.7856C35.1787 61.8037 35.9201 63.1855 36.1236 64.931ZM44.4074 75.2728V59.6946H56.0519V62.5746H47.831V65.9128H55.3759V68.5746H47.831V72.3928H56.2263V75.2728H44.4074ZM64.3622 75.2728V59.6946H69.1814L72.823 70.4074H72.8666L76.312 59.6946H81.1312V75.2728H77.9257V64.2328H77.882L74.066 75.2728H71.4274L67.6113 64.3419H67.5677V75.2728H64.3622ZM88.303 75.2728L94.2125 59.6946H97.7233L103.546 75.2728H99.9911L98.8136 71.8037H92.9914L91.7702 75.2728H88.303ZM95.9134 63.5346L93.8854 69.251H97.9196L95.957 63.5346H95.9134ZM123.111 59.6946L117.943 75.2728H114.083L109.024 59.6946H112.557L116.024 70.6474H116.068L119.578 59.6946H123.111ZM130.254 75.2728V59.6946H141.898V62.5746H133.677V65.9128H141.222V68.5746H133.677V72.3928H142.072V75.2728H130.254ZM150.208 75.2728V59.6946H153.61L160.108 70.1455H160.152V59.6946H163.357V75.2728H159.934L153.457 64.8437H153.414V75.2728H150.208Z" fill="#ECECEC"/>
<path fill-rule="evenodd" clip-rule="evenodd" d="M81.5909 2.86431e-08L78.1383 1.99245V21.9095L81.5909 23.8589V2.86431e-08ZM83.5898 23.8589L87.4059 21.7042V2.20218L83.5898 0V23.8589ZM66.5083 8.70389L70.5061 6.39684V17.6001L66.5083 15.3429V8.70389ZM72.3233 18.6262V5.34816L76.3211 3.04111V20.8835L72.3233 18.6262ZM93.2209 18.4209L89.2231 20.6782V3.25085L93.2209 5.55791V18.4209ZM95.0381 6.60656V17.3949L99.0359 15.1377V8.91362L95.0381 6.60656ZM104.487 12.0596L100.853 14.1117V9.96227L104.487 12.0596ZM64.6912 9.75255L60.6934 12.0596L64.6912 14.3169V9.75255Z" fill="white"/>
<mask id="mask0" x="60" y="11" width="45" height="34">
<path d="M82.5904 32.3321L60.6934 44.9685V11.2412L104.487 11.9685V44.9685L82.5904 32.3321Z" fill="#1AB8E6"/>
</mask>
<g mask="url(#mask0)">
<path d="M60.6934 12.0596H63.6008V45.2414H60.6934V12.0596Z" fill="white"/>
<path d="M69.4163 12.8774H66.5088V45.9683H69.4163V12.8774Z" fill="white"/>
<path d="M75.2307 13.4233H72.3232V46.5143H75.2307V13.4233Z" fill="white"/>
<path d="M81.0462 13.4233H78.1387V46.5143H81.0462V13.4233Z" fill="white"/>
<path d="M87.0423 10.1504H84.1348V43.2413H87.0423V10.1504Z" fill="white"/>
<path d="M92.8577 11.2412H89.9502V44.3321H92.8577V11.2412Z" fill="white"/>
<path d="M98.6721 11.7866H95.7646V44.8775H98.6721V11.7866Z" fill="white"/>
<path d="M101.58 12.0596H104.488V44.8777H101.58V12.0596Z" fill="white"/>
</g>
</svg>
