<svg width="41" height="42" viewBox="0 0 41 42" fill="none" xmlns="http://www.w3.org/2000/svg">
<rect width="41" height="42" fill="black"/>
<g clip-path="url(#clip0)">
<path fill-rule="evenodd" clip-rule="evenodd" d="M20.5002 17.482V13.0898C20.5002 13.0898 20.4539 13.0898 20.4076 13.1356C20.3665 13.1762 20.1793 16.7174 20.138 17.5092C19.0647 17.6698 18.087 18.5277 17.5507 19.6781H13.9726C13.9726 19.6781 13.9264 19.6986 13.9263 19.7238C13.9261 19.7696 13.9726 19.8153 13.9726 19.8153L17.3729 20.1169C17.2112 20.5831 17.1205 21.085 17.1205 21.5996C17.1205 21.6149 17.1206 21.6302 17.1208 21.6454H3.23166C3.23166 21.6454 3.09277 21.6912 3.09277 21.8284C3.09277 21.9657 3.23166 22.0572 3.23166 22.0572L11.7791 22.9718C11.4074 23.136 11.1483 23.5046 11.1483 23.933C11.1483 24.5141 11.6251 24.9853 12.2131 24.9853C12.8012 24.9853 13.278 24.5141 13.278 23.933C13.278 23.5855 13.1076 23.2775 12.8449 23.0858L16.0584 23.4297H16.0094C16.0094 23.4297 16.0094 24.8023 15.9631 24.8938C15.9168 24.9853 15.8243 25.031 15.8243 25.031V25.0768H16.102V23.4344L16.1483 23.4393V25.0768H16.4261V25.397C16.4261 25.397 16.4261 25.6258 16.6576 25.6258C16.8891 25.6258 16.8891 25.397 16.8891 25.397V24.6193C16.8891 24.6193 16.8891 24.4362 16.6576 24.4362C16.4261 24.4362 16.4261 24.6193 16.4261 24.6193V25.031C16.4261 25.031 16.3335 24.9853 16.2872 24.8938C16.2442 24.8087 16.2411 23.6168 16.2409 23.4492L17.6387 23.5988C18.2456 24.6592 19.3134 25.3312 20.449 25.3508C20.4435 25.7223 20.432 26.1266 20.4076 26.1748C20.3613 26.2663 20.2687 26.3121 20.2687 26.3121V26.3578H20.5002H20.5465H20.778V26.3121C20.778 26.3121 20.6854 26.2663 20.6391 26.1748C20.6146 26.1265 20.6031 25.7215 20.5977 25.3496C21.7165 25.3129 22.7822 24.6454 23.3943 23.6003L24.8057 23.4492C24.8055 23.6168 24.8025 24.8087 24.7594 24.8938C24.7131 24.9853 24.6205 25.031 24.6205 25.031V24.6193C24.6205 24.6193 24.6205 24.4362 24.3891 24.4362C24.1576 24.4362 24.1576 24.6193 24.1576 24.6193V25.397C24.1576 25.397 24.1576 25.6258 24.3891 25.6258C24.6205 25.6258 24.6205 25.397 24.6205 25.397V25.0768H24.8983V23.4393L24.9446 23.4344V25.0768H25.2224V25.031C25.2224 25.031 25.1298 24.9853 25.0835 24.8938C25.0372 24.8023 25.0372 23.4297 25.0372 23.4297H24.9882L28.2018 23.0858C27.9391 23.2775 27.7687 23.5855 27.7687 23.933C27.7687 24.5141 28.2455 24.9853 28.8335 24.9853C29.4216 24.9853 29.8983 24.5141 29.8983 23.933C29.8983 23.5046 29.6393 23.136 29.2676 22.9718L37.815 22.0572C37.815 22.0572 37.9539 21.9657 37.9539 21.8284C37.9539 21.6912 37.815 21.6454 37.815 21.6454H23.9258C23.926 21.6302 23.9261 21.6149 23.9261 21.5996C23.9261 21.0852 23.833 20.5835 23.6674 20.1175L27.0741 19.8153C27.0741 19.8153 27.1205 19.7696 27.1204 19.7238C27.1203 19.6986 27.0741 19.6781 27.0741 19.6781H23.4851C22.9443 18.5441 21.9682 17.6943 20.9092 17.5165C20.8685 16.7394 20.6803 13.1764 20.6391 13.1356C20.5928 13.0898 20.5465 13.0898 20.5465 13.0898V17.4825C20.531 17.4821 20.5156 17.482 20.5002 17.482ZM12.2131 24.4362C12.4944 24.4362 12.7224 24.211 12.7224 23.933C12.7224 23.655 12.4944 23.4297 12.2131 23.4297C11.9319 23.4297 11.7039 23.655 11.7039 23.933C11.7039 24.211 11.9319 24.4362 12.2131 24.4362ZM15.315 25.4428V24.665C15.315 24.665 15.315 24.482 15.5465 24.482C15.778 24.482 15.778 24.665 15.778 24.665V25.4428C15.778 25.4428 15.778 25.6715 15.5465 25.6715C15.315 25.6715 15.315 25.4428 15.315 25.4428ZM19.7594 26.7238V25.9461C19.7594 25.9461 19.7594 25.763 19.9909 25.763C20.2224 25.763 20.2224 25.9461 20.2224 25.9461V26.7238C20.2224 26.7238 20.2224 26.9526 19.9909 26.9526C19.7594 26.9526 19.7594 26.7238 19.7594 26.7238ZM18.7872 20.1356C18.7872 20.1356 19.2093 20.2464 19.4817 20.2729C19.788 20.3026 20.2687 20.3186 20.2687 20.3186L20.315 21.1879C20.315 21.1879 19.8057 21.2794 19.2965 21.1421C18.689 20.9784 18.4168 20.7761 18.4168 20.7761L18.7872 20.1356ZM28.8335 24.4362C28.5522 24.4362 28.3243 24.211 28.3243 23.933C28.3243 23.655 28.5522 23.4297 28.8335 23.4297C29.1148 23.4297 29.3428 23.655 29.3428 23.933C29.3428 24.211 29.1148 24.4362 28.8335 24.4362ZM25.7317 25.4428V24.665C25.7317 24.665 25.7317 24.482 25.5002 24.482C25.2687 24.482 25.2687 24.665 25.2687 24.665V25.4428C25.2687 25.4428 25.2687 25.6715 25.5002 25.6715C25.7317 25.6715 25.7317 25.4428 25.7317 25.4428ZM21.2872 26.7238V25.9461C21.2872 25.9461 21.2872 25.763 21.0557 25.763C20.8243 25.763 20.8243 25.9461 20.8243 25.9461V26.7238C20.8243 26.7238 20.8243 26.9526 21.0557 26.9526C21.2872 26.9526 21.2872 26.7238 21.2872 26.7238ZM22.2594 20.1356C22.2594 20.1356 21.8373 20.2464 21.565 20.2729C21.2586 20.3026 20.778 20.3186 20.778 20.3186L20.7317 21.1879C20.7317 21.1879 21.2409 21.2794 21.7502 21.1421C22.3577 20.9784 22.6298 20.7761 22.6298 20.7761L22.2594 20.1356Z" fill="white"/>
<path d="M20.5001 13.0926H20.5464V13.0469L20.5001 13.0469V13.0926ZM20.5001 17.4848H20.4538V17.5305H20.5001V17.4848ZM20.4075 13.1384L20.3747 13.106L20.4075 13.1384ZM20.1379 17.5119L20.1447 17.5572L20.1821 17.5516L20.1841 17.5143L20.1379 17.5119ZM17.5506 19.6809V19.7266H17.5803L17.5927 19.7L17.5506 19.6809ZM13.9725 19.6809V19.6351H13.9626L13.9535 19.6391L13.9725 19.6809ZM13.9262 19.7266L13.8799 19.7264L13.9262 19.7266ZM13.9725 19.8181L13.9398 19.8505L13.9517 19.8622L13.9683 19.8637L13.9725 19.8181ZM17.3728 20.1197L17.4166 20.1345L17.4357 20.0793L17.3769 20.0741L17.3728 20.1197ZM17.1207 21.6482V21.6939H17.1675L17.167 21.6477L17.1207 21.6482ZM3.23157 21.6482V21.6024H3.22406L3.21693 21.6048L3.23157 21.6482ZM3.23157 22.0599L3.20589 22.098L3.21532 22.1042L3.22659 22.1054L3.23157 22.0599ZM11.779 22.9746L11.7979 23.0163L11.9542 22.9473L11.784 22.9291L11.779 22.9746ZM12.8448 23.0886L12.8498 23.0432L12.6795 23.0249L12.8173 23.1254L12.8448 23.0886ZM16.0583 23.4325V23.4783L16.0633 23.387L16.0583 23.4325ZM16.0093 23.4325V23.3867H15.9631V23.4325H16.0093ZM15.8242 25.0338L15.8034 24.9929L15.7779 25.0055V25.0338H15.8242ZM15.8242 25.0796H15.7779V25.1253H15.8242V25.0796ZM16.1019 25.0796V25.1253H16.1482V25.0796H16.1019ZM16.1019 23.4372L16.1069 23.3917L16.0556 23.3862V23.4372H16.1019ZM16.1482 23.4421H16.1945V23.401L16.1532 23.3966L16.1482 23.4421ZM16.1482 25.0796H16.1019V25.1253H16.1482V25.0796ZM16.426 25.0796H16.4723V25.0338H16.426V25.0796ZM16.6575 25.6286V25.5828V25.6286ZM16.426 25.0338L16.4053 25.0747L16.4723 25.1078V25.0338H16.426ZM16.2871 24.8966L16.2457 24.917L16.2871 24.8966ZM16.2408 23.452L16.2458 23.4065L16.1944 23.401L16.1945 23.4521L16.2408 23.452ZM17.6386 23.6016L17.6789 23.5791L17.6672 23.5587L17.6436 23.5561L17.6386 23.6016ZM20.4489 25.3536L20.4952 25.3543L20.4958 25.3087L20.4497 25.3079L20.4489 25.3536ZM20.2686 26.3149L20.2479 26.274L20.2223 26.2866V26.3149H20.2686ZM20.2686 26.3606H20.2223V26.4064H20.2686V26.3606ZM20.7779 26.3606V26.4064H20.8242V26.3606H20.7779ZM20.7779 26.3149H20.8242V26.2866L20.7986 26.274L20.7779 26.3149ZM20.5976 25.3524L20.596 25.3068L20.5506 25.3082L20.5513 25.3532L20.5976 25.3524ZM23.3943 23.6031L23.3893 23.5576L23.3659 23.5601L23.3542 23.5801L23.3943 23.6031ZM24.8056 23.452L24.8519 23.4521L24.852 23.401L24.8006 23.4065L24.8056 23.452ZM24.6205 25.0338H24.5742V25.1078L24.6412 25.0747L24.6205 25.0338ZM24.389 25.6286V25.5828V25.6286ZM24.6205 25.0796V25.0338H24.5742V25.0796H24.6205ZM24.8982 25.0796V25.1253H24.9445V25.0796H24.8982ZM24.8982 23.4421L24.8932 23.3966L24.8519 23.401V23.4421H24.8982ZM24.9445 23.4372H24.9908V23.3862L24.9395 23.3917L24.9445 23.4372ZM24.9445 25.0796H24.8982V25.1253H24.9445V25.0796ZM25.2223 25.0796V25.1253H25.2686V25.0796H25.2223ZM25.2223 25.0338H25.2686V25.0055L25.243 24.9929L25.2223 25.0338ZM25.0371 23.4325H25.0834V23.3867H25.0371V23.4325ZM24.9881 23.4325L24.9831 23.387L24.9881 23.4783V23.4325ZM28.2017 23.0886L28.2292 23.1254L28.3669 23.0249L28.1967 23.0432L28.2017 23.0886ZM29.2675 22.9746L29.2625 22.9291L29.0922 22.9473L29.2486 23.0163L29.2675 22.9746ZM37.8149 22.0599L37.8199 22.1054L37.8312 22.1042L37.8405 22.098L37.8149 22.0599ZM37.8149 21.6482L37.8295 21.6048L37.8224 21.6024H37.8149V21.6482ZM23.9257 21.6482L23.8794 21.6477L23.879 21.6939H23.9257V21.6482ZM23.6673 20.1203L23.6631 20.0747L23.6039 20.0799L23.6236 20.1354L23.6673 20.1203ZM27.074 19.8181L27.0781 19.8637L27.0948 19.8622L27.1067 19.8505L27.074 19.8181ZM27.1203 19.7266L27.1666 19.7264V19.7264L27.1203 19.7266ZM27.074 19.6809L27.093 19.6391L27.0839 19.6351H27.074V19.6809ZM23.485 19.6809L23.4431 19.7004L23.4556 19.7266H23.485V19.6809ZM20.9091 17.5192L20.8628 17.5216L20.8647 17.5582L20.9013 17.5644L20.9091 17.5192ZM20.639 13.1384L20.6062 13.1707V13.1707L20.639 13.1384ZM20.5464 13.0926V13.0469L20.5001 13.0469V13.0926H20.5464ZM20.5464 17.4852L20.5455 17.531L20.5927 17.5319V17.4852H20.5464ZM15.5464 25.6743V25.6286V25.6743ZM19.4816 20.2756L19.4861 20.2301L19.4816 20.2756ZM18.7871 20.1384L18.799 20.0942L18.7646 20.0851L18.7469 20.1157L18.7871 20.1384ZM20.2686 20.3214L20.3148 20.319L20.3126 20.2771L20.2702 20.2757L20.2686 20.3214ZM20.3149 21.1907L20.3231 21.2357L20.3632 21.2285L20.3611 21.1883L20.3149 21.1907ZM19.2964 21.1449L19.2842 21.1891L19.2964 21.1449ZM18.4168 20.7789L18.3766 20.7562L18.3563 20.7912L18.3889 20.8155L18.4168 20.7789ZM25.5001 25.6743V25.6286V25.6743ZM21.5649 20.2756L21.5604 20.2301L21.5649 20.2756ZM22.2593 20.1384L22.2995 20.1157L22.2818 20.0851L22.2475 20.0942L22.2593 20.1384ZM20.7779 20.3214L20.7763 20.2757L20.7339 20.2771L20.7317 20.319L20.7779 20.3214ZM20.7316 21.1907L20.6854 21.1883L20.6832 21.2285L20.7233 21.2357L20.7316 21.1907ZM21.7501 21.1449L21.7623 21.1891L21.7501 21.1449ZM22.6297 20.7789L22.6576 20.8155L22.6902 20.7912L22.6699 20.7562L22.6297 20.7789ZM20.4538 13.0926V17.4848H20.5464V13.0926H20.4538ZM20.4403 13.1707C20.4577 13.1534 20.4744 13.1455 20.4858 13.1418C20.4916 13.1399 20.496 13.139 20.4987 13.1386C20.5 13.1385 20.5008 13.1384 20.5011 13.1384C20.5012 13.1384 20.5012 13.1384 20.501 13.1384C20.501 13.1384 20.5008 13.1384 20.5007 13.1384C20.5006 13.1384 20.5005 13.1384 20.5005 13.1384C20.5004 13.1384 20.5003 13.1384 20.5003 13.1384H20.5002C20.5001 13.1384 20.5001 13.1384 20.5001 13.0926C20.5001 13.0469 20.5001 13.0469 20.5 13.0469C20.5 13.0469 20.4999 13.0469 20.4999 13.0469C20.4998 13.0469 20.4997 13.0469 20.4997 13.0469C20.4995 13.0469 20.4993 13.0469 20.4993 13.0469C20.4989 13.0469 20.4985 13.0469 20.498 13.0469C20.4972 13.0469 20.4961 13.047 20.4949 13.0471C20.4925 13.0472 20.4893 13.0475 20.4855 13.0481C20.4781 13.0491 20.4681 13.0511 20.4565 13.0549C20.4331 13.0626 20.4036 13.0776 20.3747 13.106L20.4403 13.1707ZM20.1841 17.5143C20.2047 17.1184 20.2618 16.0353 20.319 15.0461C20.3475 14.5515 20.3761 14.0805 20.4 13.7306C20.412 13.5557 20.4229 13.4113 20.4319 13.3095C20.4365 13.2586 20.4405 13.2187 20.4441 13.1913C20.4458 13.1774 20.4474 13.1674 20.4487 13.161C20.449 13.1595 20.4493 13.1583 20.4494 13.1574C20.4496 13.1565 20.4498 13.1561 20.4497 13.1561C20.4497 13.1561 20.4497 13.1564 20.4495 13.1568C20.4494 13.1572 20.4492 13.1579 20.4487 13.1588C20.4483 13.1596 20.4459 13.1651 20.4403 13.1707L20.3747 13.106C20.3684 13.1122 20.3654 13.1188 20.3643 13.1211C20.3629 13.1243 20.3618 13.1273 20.3612 13.1295C20.3598 13.134 20.3587 13.1389 20.3578 13.1435C20.3559 13.1529 20.3541 13.1652 20.3522 13.1797C20.3484 13.209 20.3443 13.2502 20.3397 13.3015C20.3306 13.4042 20.3196 13.5493 20.3077 13.7245C20.2836 14.0748 20.2551 14.5462 20.2266 15.0409C20.1694 16.0304 20.1123 17.1137 20.0916 17.5096L20.1841 17.5143ZM17.5927 19.7C18.1245 18.5593 19.0912 17.7149 20.1447 17.5572L20.1309 17.4667C19.0381 17.6303 18.0493 18.5017 17.5086 19.6617L17.5927 19.7ZM13.9725 19.7266H17.5506V19.6351H13.9725V19.7266ZM13.9725 19.7268C13.9725 19.7344 13.9691 19.7381 13.9699 19.737C13.9706 19.7362 13.9727 19.7341 13.9766 19.7313C13.9802 19.7287 13.9842 19.7264 13.9873 19.7247C13.9888 19.7239 13.9901 19.7233 13.9908 19.7229C13.9912 19.7227 13.9915 19.7226 13.9916 19.7226C13.9917 19.7225 13.9917 19.7225 13.9917 19.7225C13.9916 19.7225 13.9916 19.7225 13.9916 19.7226C13.9916 19.7226 13.9916 19.7226 13.9915 19.7226V19.7226V19.7226C13.9915 19.7226 13.9915 19.7226 13.9725 19.6809C13.9535 19.6391 13.9535 19.6391 13.9535 19.6391V19.6391C13.9535 19.6391 13.9535 19.6392 13.9534 19.6392C13.9534 19.6392 13.9534 19.6392 13.9533 19.6392C13.9532 19.6392 13.9532 19.6393 13.9531 19.6393C13.9529 19.6394 13.9527 19.6395 13.9524 19.6397C13.9518 19.6399 13.9511 19.6403 13.9502 19.6407C13.9484 19.6415 13.946 19.6427 13.9432 19.6442C13.9378 19.6472 13.9301 19.6516 13.9222 19.6572C13.9145 19.6627 13.9051 19.6705 13.897 19.6806C13.8893 19.6904 13.88 19.7061 13.8799 19.7264L13.9725 19.7268ZM13.9725 19.8181C14.0052 19.7857 14.0052 19.7857 14.0052 19.7857C14.0052 19.7857 14.0052 19.7857 14.0052 19.7857C14.0052 19.7857 14.0052 19.7858 14.0052 19.7858C14.0053 19.7858 14.0053 19.7858 14.0053 19.7858C14.0053 19.7858 14.0053 19.7858 14.0053 19.7858C14.0053 19.7858 14.0053 19.7858 14.0052 19.7857C14.005 19.7856 14.0047 19.7852 14.0043 19.7848C14.0034 19.7839 14.002 19.7824 14.0004 19.7804C13.9968 19.7765 13.9923 19.7708 13.9878 19.7641C13.9777 19.7492 13.9725 19.7358 13.9725 19.7268L13.8799 19.7264C13.8797 19.7632 13.8977 19.7955 13.9107 19.8149C13.9179 19.8254 13.9249 19.834 13.9301 19.8401C13.9328 19.8431 13.935 19.8456 13.9367 19.8473C13.9376 19.8482 13.9382 19.8489 13.9388 19.8495C13.9391 19.8497 13.9393 19.85 13.9394 19.8501C13.9395 19.8502 13.9396 19.8503 13.9396 19.8504C13.9397 19.8504 13.9397 19.8504 13.9397 19.8505C13.9397 19.8505 13.9398 19.8505 13.9398 19.8505C13.9398 19.8505 13.9398 19.8505 13.9398 19.8505C13.9398 19.8505 13.9398 19.8505 13.9725 19.8181ZM17.3769 20.0741L13.9767 19.7726L13.9683 19.8637L17.3687 20.1653L17.3769 20.0741ZM17.1668 21.6024C17.1668 21.0931 17.2565 20.5962 17.4166 20.1345L17.329 20.1048C17.1657 20.5756 17.0742 21.0825 17.0742 21.6024H17.1668ZM17.167 21.6477C17.1668 21.6326 17.1668 21.6176 17.1668 21.6024H17.0742C17.0742 21.6179 17.0743 21.6333 17.0744 21.6487L17.167 21.6477ZM3.23157 21.6939H17.1207V21.6024H3.23157V21.6939ZM3.13898 21.8312C3.13898 21.78 3.16418 21.7461 3.19177 21.7234C3.20573 21.7119 3.21988 21.7037 3.23057 21.6984C3.23587 21.6958 3.24017 21.6939 3.24297 21.6928C3.24437 21.6923 3.24539 21.6919 3.24595 21.6917C3.24623 21.6916 3.2464 21.6915 3.24645 21.6915C3.24647 21.6915 3.24646 21.6915 3.24642 21.6915C3.2464 21.6915 3.24638 21.6915 3.24634 21.6915C3.24632 21.6915 3.24631 21.6916 3.24628 21.6916C3.24627 21.6916 3.24625 21.6916 3.24625 21.6916C3.24623 21.6916 3.24621 21.6916 3.23157 21.6482C3.21693 21.6048 3.21691 21.6048 3.21689 21.6048C3.21688 21.6048 3.21686 21.6048 3.21685 21.6048C3.21682 21.6048 3.21679 21.6048 3.21675 21.6048C3.21668 21.6049 3.2166 21.6049 3.21652 21.6049C3.21635 21.605 3.21614 21.6051 3.2159 21.6051C3.21542 21.6053 3.21481 21.6055 3.21407 21.6058C3.2126 21.6063 3.21063 21.6071 3.20823 21.608C3.20344 21.6099 3.19689 21.6127 3.18917 21.6166C3.17382 21.6241 3.15325 21.636 3.13249 21.6531C3.09063 21.6875 3.04639 21.7451 3.04639 21.8312H3.13898ZM3.23157 22.0599C3.25725 22.0219 3.25727 22.0219 3.25728 22.0219C3.25728 22.0219 3.25729 22.0219 3.2573 22.0219C3.25731 22.0219 3.25732 22.0219 3.25733 22.0219C3.25735 22.0219 3.25736 22.022 3.25736 22.022C3.25737 22.022 3.25734 22.0219 3.25728 22.0219C3.25716 22.0218 3.25692 22.0217 3.25656 22.0214C3.25585 22.0209 3.25467 22.0201 3.2531 22.0189C3.24995 22.0166 3.24525 22.0131 3.23951 22.0084C3.22797 21.9989 3.21258 21.9849 3.19728 21.9673C3.16605 21.9313 3.13898 21.8844 3.13898 21.8312H3.04639C3.04639 21.9153 3.08876 21.9827 3.12698 22.0268C3.1464 22.0492 3.16573 22.0667 3.18023 22.0787C3.18751 22.0847 3.19366 22.0893 3.19811 22.0926C3.20034 22.0942 3.20214 22.0955 3.20346 22.0964C3.20412 22.0968 3.20466 22.0972 3.20507 22.0975C3.20527 22.0976 3.20544 22.0977 3.20558 22.0978C3.20565 22.0979 3.20571 22.0979 3.20576 22.0979C3.20579 22.098 3.20581 22.098 3.20583 22.098C3.20584 22.098 3.20586 22.098 3.20586 22.098C3.20588 22.098 3.20589 22.098 3.23157 22.0599ZM11.784 22.9291L3.23656 22.0145L3.22659 22.1054L11.774 23.0201L11.784 22.9291ZM11.1945 23.9358C11.1945 23.5261 11.4422 23.1735 11.7979 23.0163L11.7601 22.9328C11.3723 23.1041 11.1019 23.4887 11.1019 23.9358H11.1945ZM12.2131 24.9423C11.6505 24.9423 11.1945 24.4916 11.1945 23.9358H11.1019C11.1019 24.5422 11.5994 25.0338 12.2131 25.0338V24.9423ZM13.2316 23.9358C13.2316 24.4916 12.7756 24.9423 12.2131 24.9423V25.0338C12.8267 25.0338 13.3242 24.5422 13.3242 23.9358H13.2316ZM12.8173 23.1254C13.0687 23.3088 13.2316 23.6035 13.2316 23.9358H13.3242C13.3242 23.5732 13.1463 23.2517 12.8723 23.0518L12.8173 23.1254ZM16.0633 23.387L12.8498 23.0432L12.8398 23.1341L16.0534 23.478L16.0633 23.387ZM16.0093 23.4783H16.0583V23.3867H16.0093V23.4783ZM16.0044 24.917C16.0108 24.9044 16.0143 24.8873 16.0168 24.8726C16.0196 24.8559 16.0221 24.8353 16.0244 24.8116C16.029 24.7643 16.0328 24.7023 16.0361 24.6313C16.0426 24.4891 16.0469 24.3084 16.0498 24.1309C16.0528 23.9534 16.0542 23.7788 16.0549 23.6486C16.0553 23.5836 16.0555 23.5295 16.0556 23.4918C16.0556 23.4729 16.0556 23.4581 16.0556 23.448C16.0556 23.4429 16.0556 23.4391 16.0556 23.4364C16.0556 23.4352 16.0556 23.4341 16.0556 23.4335C16.0556 23.4331 16.0556 23.433 16.0556 23.4328C16.0556 23.4327 16.0556 23.4326 16.0556 23.4326C16.0556 23.4325 16.0556 23.4325 16.0556 23.4325C16.0556 23.4325 16.0556 23.4325 16.0093 23.4325C15.9631 23.4325 15.9631 23.4325 15.9631 23.4325C15.9631 23.4325 15.9631 23.4325 15.9631 23.4326C15.9631 23.4326 15.9631 23.4327 15.9631 23.4328C15.9631 23.4329 15.9631 23.4331 15.9631 23.4335C15.9631 23.4341 15.9631 23.4352 15.9631 23.4364C15.9631 23.439 15.9631 23.4428 15.9631 23.4479C15.9631 23.4579 15.963 23.4727 15.963 23.4915C15.9629 23.5292 15.9627 23.5831 15.9623 23.6482C15.9616 23.7781 15.9602 23.9524 15.9573 24.1295C15.9543 24.3066 15.9501 24.4863 15.9436 24.6271C15.9404 24.6976 15.9366 24.7578 15.9322 24.803C15.9301 24.8257 15.9279 24.8439 15.9256 24.8575C15.923 24.8729 15.921 24.8772 15.9217 24.8761L16.0044 24.917ZM15.8242 25.0338C15.8449 25.0747 15.8449 25.0747 15.8449 25.0747H15.845C15.845 25.0746 15.8451 25.0746 15.8451 25.0746C15.8453 25.0745 15.8454 25.0744 15.8456 25.0744C15.8458 25.0743 15.8462 25.0741 15.8468 25.0738C15.8477 25.0732 15.849 25.0726 15.8506 25.0717C15.8538 25.07 15.8582 25.0675 15.8636 25.0642C15.8743 25.0577 15.889 25.048 15.9052 25.0352C15.9372 25.0098 15.9773 24.9707 16.0044 24.917L15.9217 24.8761C15.9025 24.9139 15.8731 24.9434 15.8473 24.9638C15.8346 24.9739 15.8231 24.9814 15.8151 24.9862C15.8111 24.9887 15.8079 24.9905 15.8058 24.9916C15.8048 24.9922 15.8042 24.9925 15.8037 24.9927C15.8035 24.9929 15.8033 24.9929 15.8033 24.9929C15.8033 24.993 15.8033 24.993 15.8033 24.9929C15.8033 24.9929 15.8033 24.9929 15.8034 24.9929C15.8034 24.9929 15.8034 24.9929 15.8242 25.0338ZM15.8705 25.0796V25.0338H15.7779V25.0796H15.8705ZM16.1019 25.0338H15.8242V25.1253H16.1019V25.0338ZM16.0556 23.4372V25.0796H16.1482V23.4372H16.0556ZM16.1532 23.3966L16.1069 23.3917L16.0969 23.4826L16.1432 23.4876L16.1532 23.3966ZM16.1945 25.0796V23.4421H16.1019V25.0796H16.1945ZM16.426 25.0338H16.1482V25.1253H16.426V25.0338ZM16.4723 25.3998V25.0796H16.3797V25.3998H16.4723ZM16.6575 25.5828C16.6077 25.5828 16.5735 25.5707 16.5493 25.5547C16.5249 25.5387 16.508 25.5169 16.4964 25.4937C16.4845 25.4704 16.4784 25.4465 16.4753 25.428C16.4738 25.4189 16.4731 25.4114 16.4727 25.4064C16.4725 25.4038 16.4724 25.402 16.4723 25.4008C16.4723 25.4003 16.4723 25.3999 16.4723 25.3997C16.4723 25.3996 16.4723 25.3996 16.4723 25.3996C16.4723 25.3997 16.4723 25.3997 16.4723 25.3997C16.4723 25.3997 16.4723 25.3997 16.4723 25.3998C16.4723 25.3998 16.4723 25.3998 16.426 25.3998C16.3797 25.3998 16.3797 25.3998 16.3797 25.3999V25.4C16.3797 25.4001 16.3797 25.4002 16.3797 25.4004C16.3797 25.4006 16.3797 25.4008 16.3797 25.4012C16.3797 25.4019 16.3797 25.4028 16.3798 25.4039C16.3799 25.4061 16.38 25.4092 16.3803 25.4129C16.3808 25.4204 16.3818 25.4307 16.384 25.4431C16.3881 25.4675 16.3964 25.5008 16.4135 25.5347C16.4307 25.5686 16.4573 25.6041 16.498 25.6309C16.539 25.6579 16.5916 25.6743 16.6575 25.6743V25.5828ZM16.889 25.3998C16.8427 25.3998 16.8427 25.3998 16.8427 25.3998C16.8427 25.3997 16.8427 25.3997 16.8427 25.3997C16.8427 25.3997 16.8427 25.3997 16.8427 25.3996C16.8427 25.3996 16.8427 25.3996 16.8427 25.3997C16.8427 25.3999 16.8427 25.4003 16.8427 25.4008C16.8426 25.402 16.8425 25.4038 16.8423 25.4064C16.8419 25.4114 16.8412 25.4189 16.8397 25.428C16.8366 25.4465 16.8305 25.4704 16.8186 25.4937C16.8069 25.5169 16.7901 25.5387 16.7656 25.5547C16.7415 25.5707 16.7073 25.5828 16.6575 25.5828V25.6743C16.7234 25.6743 16.776 25.6579 16.817 25.6309C16.8577 25.6041 16.8843 25.5686 16.9015 25.5347C16.9186 25.5008 16.9269 25.4675 16.931 25.4431C16.9331 25.4307 16.9342 25.4204 16.9347 25.4129C16.935 25.4092 16.9351 25.4061 16.9352 25.4039C16.9353 25.4028 16.9353 25.4019 16.9353 25.4012C16.9353 25.4008 16.9353 25.4006 16.9353 25.4004C16.9353 25.4002 16.9353 25.4001 16.9353 25.4V25.3999C16.9353 25.3998 16.9353 25.3998 16.889 25.3998ZM16.8427 24.622V25.3998H16.9353V24.622H16.8427ZM16.6575 24.4848C16.7584 24.4848 16.8009 24.5233 16.8208 24.5548C16.8317 24.5719 16.8372 24.5894 16.84 24.6027C16.8414 24.6094 16.8421 24.6147 16.8424 24.6183C16.8426 24.6199 16.8427 24.6212 16.8427 24.6219C16.8427 24.6222 16.8427 24.6224 16.8427 24.6224C16.8427 24.6225 16.8427 24.6224 16.8427 24.6224C16.8427 24.6223 16.8427 24.6223 16.8427 24.6222V24.6221C16.8427 24.622 16.8427 24.622 16.889 24.622C16.9353 24.622 16.9353 24.622 16.9353 24.622C16.9353 24.6219 16.9353 24.6219 16.9353 24.6218C16.9353 24.6217 16.9353 24.6216 16.9353 24.6215C16.9353 24.6212 16.9353 24.6209 16.9353 24.6206C16.9353 24.6199 16.9352 24.6191 16.9352 24.6181C16.9351 24.6161 16.9349 24.6133 16.9346 24.6101C16.9341 24.6036 16.9329 24.5947 16.9306 24.5842C16.9263 24.5632 16.9174 24.5349 16.8993 24.5063C16.8613 24.4463 16.7881 24.3933 16.6575 24.3933V24.4848ZM16.426 24.622C16.4723 24.622 16.4723 24.622 16.4723 24.6221V24.6222C16.4723 24.6223 16.4723 24.6223 16.4723 24.6224C16.4723 24.6224 16.4723 24.6225 16.4723 24.6224C16.4723 24.6224 16.4723 24.6222 16.4723 24.6219C16.4723 24.6212 16.4724 24.6199 16.4726 24.6183C16.4729 24.6147 16.4736 24.6094 16.475 24.6027C16.4778 24.5894 16.4833 24.5719 16.4942 24.5548C16.5141 24.5233 16.5566 24.4848 16.6575 24.4848V24.3933C16.5269 24.3933 16.4537 24.4463 16.4157 24.5063C16.3976 24.5349 16.3887 24.5632 16.3843 24.5842C16.3821 24.5947 16.3809 24.6036 16.3804 24.6101C16.3801 24.6133 16.3799 24.6161 16.3798 24.6181C16.3798 24.6191 16.3797 24.6199 16.3797 24.6206C16.3797 24.6209 16.3797 24.6212 16.3797 24.6215C16.3797 24.6216 16.3797 24.6217 16.3797 24.6218C16.3797 24.6219 16.3797 24.6219 16.3797 24.622C16.3797 24.622 16.3797 24.622 16.426 24.622ZM16.4723 25.0338V24.622H16.3797V25.0338H16.4723ZM16.2457 24.917C16.2729 24.9707 16.313 25.0098 16.345 25.0352C16.3612 25.048 16.3758 25.0577 16.3866 25.0642C16.3919 25.0675 16.3964 25.07 16.3996 25.0717C16.4012 25.0726 16.4025 25.0732 16.4034 25.0738C16.404 25.0741 16.4043 25.0743 16.4046 25.0744C16.4048 25.0744 16.4049 25.0745 16.4051 25.0746C16.4051 25.0746 16.4052 25.0746 16.4052 25.0747H16.4053C16.4053 25.0747 16.4053 25.0747 16.426 25.0338C16.4468 24.9929 16.4468 24.9929 16.4468 24.9929C16.4468 24.9929 16.4468 24.9929 16.4468 24.9929C16.4468 24.993 16.4468 24.993 16.4468 24.9929C16.4468 24.9929 16.4467 24.9929 16.4465 24.9927C16.446 24.9925 16.4454 24.9922 16.4443 24.9916C16.4423 24.9905 16.4391 24.9887 16.4351 24.9862C16.427 24.9814 16.4156 24.9739 16.4029 24.9638C16.377 24.9434 16.3477 24.9139 16.3285 24.8761L16.2457 24.917ZM16.1945 23.4521C16.1946 23.536 16.1955 23.8761 16.2017 24.2061C16.2047 24.371 16.2092 24.5337 16.2156 24.6608C16.2187 24.7243 16.2224 24.7793 16.2268 24.8215C16.2289 24.8426 16.2313 24.861 16.2339 24.8761C16.2363 24.8894 16.2397 24.9051 16.2457 24.917L16.3285 24.8761C16.3292 24.8774 16.3275 24.8738 16.3251 24.8602C16.323 24.8483 16.3209 24.8323 16.3189 24.8124C16.3148 24.7724 16.3112 24.7191 16.3081 24.6563C16.3017 24.5306 16.2973 24.369 16.2943 24.2044C16.2881 23.8753 16.2872 23.5357 16.2871 23.452L16.1945 23.4521ZM17.6436 23.5561L16.2458 23.4065L16.2358 23.4975L17.6336 23.6471L17.6436 23.5561ZM20.4497 25.3079C19.3324 25.2886 18.2787 24.6271 17.6789 23.5791L17.5983 23.6241C18.2123 24.697 19.2943 25.3794 20.448 25.3994L20.4497 25.3079ZM20.4489 26.1981C20.4556 26.1849 20.4592 26.1667 20.4618 26.1508C20.4647 26.1329 20.4672 26.1105 20.4696 26.0848C20.4743 26.0333 20.4782 25.9658 20.4816 25.8888C20.4882 25.7346 20.4925 25.5402 20.4952 25.3543L20.4026 25.353C20.3999 25.5385 20.3956 25.732 20.3891 25.8849C20.3857 25.9614 20.3818 26.0273 20.3774 26.0767C20.3751 26.1014 20.3728 26.1214 20.3704 26.1363C20.3676 26.1533 20.3655 26.1582 20.3661 26.1571L20.4489 26.1981ZM20.2686 26.3149C20.2893 26.3558 20.2893 26.3558 20.2893 26.3558H20.2894C20.2894 26.3557 20.2895 26.3557 20.2895 26.3557C20.2897 26.3556 20.2898 26.3555 20.29 26.3555C20.2903 26.3553 20.2906 26.3551 20.2912 26.3548C20.2921 26.3543 20.2934 26.3537 20.295 26.3527C20.2982 26.351 20.3027 26.3485 20.3081 26.3452C20.3188 26.3387 20.3334 26.329 20.3496 26.3162C20.3817 26.2909 20.4218 26.2517 20.4489 26.1981L20.3661 26.1571C20.3469 26.195 20.3176 26.2244 20.2918 26.2449C20.2791 26.2549 20.2676 26.2624 20.2595 26.2673C20.2555 26.2697 20.2523 26.2716 20.2503 26.2727C20.2493 26.2732 20.2486 26.2736 20.2481 26.2738C20.248 26.274 20.2478 26.274 20.2478 26.274C20.2478 26.274 20.2478 26.274 20.2478 26.274C20.2478 26.274 20.2478 26.274 20.2479 26.274C20.2479 26.274 20.2479 26.274 20.2686 26.3149ZM20.3149 26.3606V26.3149H20.2223V26.3606H20.3149ZM20.5001 26.3149H20.2686V26.4064H20.5001V26.3149ZM20.5464 26.3149H20.5001V26.4064H20.5464V26.3149ZM20.7779 26.3149H20.5464V26.4064H20.7779V26.3149ZM20.7316 26.3149V26.3606H20.8242V26.3149H20.7316ZM20.5976 26.1981C20.6247 26.2517 20.6648 26.2909 20.6968 26.3162C20.7131 26.329 20.7277 26.3387 20.7384 26.3452C20.7438 26.3485 20.7482 26.351 20.7515 26.3527C20.753 26.3537 20.7543 26.3543 20.7553 26.3548C20.7558 26.3551 20.7562 26.3553 20.7565 26.3555C20.7567 26.3555 20.7568 26.3556 20.7569 26.3557C20.7569 26.3557 20.757 26.3557 20.757 26.3558H20.7571C20.7571 26.3558 20.7571 26.3558 20.7779 26.3149C20.7986 26.274 20.7986 26.274 20.7986 26.274C20.7987 26.274 20.7987 26.274 20.7987 26.274C20.7987 26.274 20.7987 26.274 20.7987 26.274C20.7987 26.274 20.7985 26.274 20.7983 26.2738C20.7979 26.2736 20.7972 26.2732 20.7962 26.2727C20.7942 26.2716 20.7909 26.2697 20.7869 26.2673C20.7789 26.2624 20.7674 26.2549 20.7547 26.2449C20.7289 26.2244 20.6995 26.195 20.6804 26.1571L20.5976 26.1981ZM20.5513 25.3532C20.554 25.5392 20.5582 25.7339 20.5649 25.8883C20.5682 25.9654 20.5721 26.033 20.5768 26.0847C20.5792 26.1104 20.5818 26.1329 20.5847 26.1508C20.5873 26.1666 20.5909 26.1849 20.5976 26.1981L20.6804 26.1571C20.6809 26.1582 20.6789 26.1533 20.6761 26.1363C20.6737 26.1213 20.6713 26.1013 20.6691 26.0765C20.6645 26.027 20.6607 25.961 20.6574 25.8844C20.6508 25.7312 20.6466 25.5376 20.6439 25.3518L20.5513 25.3532ZM23.3542 23.5801C22.7492 24.6132 21.6971 25.2705 20.596 25.3068L20.5991 25.3982C21.7355 25.3608 22.8151 24.6833 23.4343 23.6259L23.3542 23.5801ZM24.8006 23.4065L23.3893 23.5576L23.3993 23.6485L24.8106 23.4975L24.8006 23.4065ZM24.8007 24.917C24.8068 24.9051 24.8102 24.8894 24.8126 24.8761C24.8152 24.861 24.8176 24.8426 24.8197 24.8215C24.8241 24.7793 24.8278 24.7243 24.8309 24.6608C24.8373 24.5337 24.8418 24.371 24.8448 24.2061C24.851 23.8761 24.8518 23.536 24.8519 23.4521L24.7593 23.452C24.7593 23.5357 24.7584 23.8753 24.7522 24.2044C24.7492 24.369 24.7448 24.5306 24.7384 24.6563C24.7353 24.7191 24.7317 24.7724 24.7276 24.8124C24.7255 24.8323 24.7235 24.8483 24.7214 24.8602C24.719 24.8738 24.7173 24.8774 24.718 24.8761L24.8007 24.917ZM24.6205 25.0338C24.6412 25.0747 24.6412 25.0747 24.6412 25.0747H24.6413C24.6413 25.0746 24.6414 25.0746 24.6414 25.0746C24.6416 25.0745 24.6417 25.0744 24.6418 25.0744C24.6421 25.0743 24.6425 25.0741 24.643 25.0738C24.644 25.0732 24.6453 25.0726 24.6468 25.0717C24.6501 25.07 24.6545 25.0675 24.6599 25.0642C24.6706 25.0577 24.6853 25.048 24.7015 25.0352C24.7335 25.0098 24.7736 24.9707 24.8007 24.917L24.718 24.8761C24.6988 24.9139 24.6694 24.9434 24.6436 24.9638C24.6309 24.9739 24.6194 24.9814 24.6114 24.9862C24.6074 24.9887 24.6042 24.9905 24.6021 24.9916C24.6011 24.9922 24.6005 24.9925 24.6 24.9927C24.5998 24.9929 24.5996 24.9929 24.5996 24.9929C24.5996 24.993 24.5996 24.993 24.5996 24.9929C24.5996 24.9929 24.5996 24.9929 24.5997 24.9929C24.5997 24.9929 24.5997 24.9929 24.6205 25.0338ZM24.5742 24.622V25.0338H24.6668V24.622H24.5742ZM24.389 24.4848C24.4899 24.4848 24.5324 24.5233 24.5523 24.5548C24.5631 24.5719 24.5687 24.5894 24.5715 24.6027C24.5729 24.6094 24.5736 24.6147 24.5739 24.6183C24.5741 24.6199 24.5742 24.6212 24.5742 24.6219C24.5742 24.6222 24.5742 24.6224 24.5742 24.6224C24.5742 24.6225 24.5742 24.6224 24.5742 24.6224C24.5742 24.6223 24.5742 24.6223 24.5742 24.6222V24.6221C24.5742 24.622 24.5742 24.622 24.6205 24.622C24.6668 24.622 24.6668 24.622 24.6668 24.622C24.6668 24.6219 24.6668 24.6219 24.6668 24.6218C24.6668 24.6217 24.6668 24.6216 24.6668 24.6215C24.6668 24.6212 24.6668 24.6209 24.6668 24.6206C24.6668 24.6199 24.6667 24.6191 24.6667 24.6181C24.6666 24.6161 24.6664 24.6133 24.6661 24.6101C24.6655 24.6036 24.6643 24.5947 24.6621 24.5842C24.6578 24.5632 24.6489 24.5349 24.6307 24.5063C24.5928 24.4463 24.5195 24.3933 24.389 24.3933V24.4848ZM24.1575 24.622C24.2038 24.622 24.2038 24.622 24.2038 24.6221V24.6222C24.2038 24.6223 24.2038 24.6223 24.2038 24.6224C24.2038 24.6224 24.2038 24.6225 24.2038 24.6224C24.2038 24.6224 24.2038 24.6222 24.2038 24.6219C24.2038 24.6212 24.2039 24.6199 24.2041 24.6183C24.2043 24.6147 24.2051 24.6094 24.2065 24.6027C24.2093 24.5894 24.2148 24.5719 24.2256 24.5548C24.2455 24.5233 24.288 24.4848 24.389 24.4848V24.3933C24.2584 24.3933 24.1852 24.4463 24.1472 24.5063C24.1291 24.5349 24.1202 24.5632 24.1158 24.5842C24.1136 24.5947 24.1124 24.6036 24.1118 24.6101C24.1116 24.6133 24.1114 24.6161 24.1113 24.6181C24.1113 24.6191 24.1112 24.6199 24.1112 24.6206C24.1112 24.6209 24.1112 24.6212 24.1112 24.6215C24.1112 24.6216 24.1112 24.6217 24.1112 24.6218C24.1112 24.6219 24.1112 24.6219 24.1112 24.622C24.1112 24.622 24.1112 24.622 24.1575 24.622ZM24.2038 25.3998V24.622H24.1112V25.3998H24.2038ZM24.389 25.5828C24.3392 25.5828 24.305 25.5707 24.2808 25.5547C24.2564 25.5387 24.2395 25.5169 24.2279 25.4937C24.216 25.4704 24.2099 25.4465 24.2068 25.428C24.2053 25.4189 24.2045 25.4114 24.2042 25.4064C24.204 25.4038 24.2039 25.402 24.2038 25.4008C24.2038 25.4003 24.2038 25.3999 24.2038 25.3997C24.2038 25.3996 24.2038 25.3996 24.2038 25.3996C24.2038 25.3997 24.2038 25.3997 24.2038 25.3997C24.2038 25.3997 24.2038 25.3997 24.2038 25.3998C24.2038 25.3998 24.2038 25.3998 24.1575 25.3998C24.1112 25.3998 24.1112 25.3998 24.1112 25.3999V25.4C24.1112 25.4001 24.1112 25.4002 24.1112 25.4004C24.1112 25.4006 24.1112 25.4008 24.1112 25.4012C24.1112 25.4019 24.1112 25.4028 24.1113 25.4039C24.1114 25.4061 24.1115 25.4092 24.1118 25.4129C24.1123 25.4204 24.1133 25.4307 24.1155 25.4431C24.1195 25.4675 24.1279 25.5008 24.145 25.5347C24.1622 25.5686 24.1888 25.6041 24.2294 25.6309C24.2705 25.6579 24.323 25.6743 24.389 25.6743V25.5828ZM24.6205 25.3998C24.5742 25.3998 24.5742 25.3998 24.5742 25.3998C24.5742 25.3997 24.5742 25.3997 24.5742 25.3997C24.5742 25.3997 24.5742 25.3997 24.5742 25.3996C24.5742 25.3996 24.5742 25.3996 24.5742 25.3997C24.5742 25.3999 24.5742 25.4003 24.5742 25.4008C24.5741 25.402 24.574 25.4038 24.5738 25.4064C24.5734 25.4114 24.5727 25.4189 24.5712 25.428C24.5681 25.4465 24.5619 25.4704 24.5501 25.4937C24.5384 25.5169 24.5216 25.5387 24.4971 25.5547C24.473 25.5707 24.4388 25.5828 24.389 25.5828V25.6743C24.4549 25.6743 24.5075 25.6579 24.5485 25.6309C24.5892 25.6041 24.6157 25.5686 24.633 25.5347C24.6501 25.5008 24.6584 25.4675 24.6625 25.4431C24.6646 25.4307 24.6656 25.4204 24.6662 25.4129C24.6665 25.4092 24.6666 25.4061 24.6667 25.4039C24.6668 25.4028 24.6668 25.4019 24.6668 25.4012C24.6668 25.4008 24.6668 25.4006 24.6668 25.4004C24.6668 25.4002 24.6668 25.4001 24.6668 25.4V25.3999C24.6668 25.3998 24.6668 25.3998 24.6205 25.3998ZM24.5742 25.0796V25.3998H24.6668V25.0796H24.5742ZM24.8982 25.0338H24.6205V25.1253H24.8982V25.0338ZM24.8519 23.4421V25.0796H24.9445V23.4421H24.8519ZM24.9395 23.3917L24.8932 23.3966L24.9032 23.4876L24.9495 23.4826L24.9395 23.3917ZM24.9908 25.0796V23.4372H24.8982V25.0796H24.9908ZM25.2223 25.0338H24.9445V25.1253H25.2223V25.0338ZM25.176 25.0338V25.0796H25.2686V25.0338H25.176ZM25.042 24.917C25.0692 24.9707 25.1093 25.0098 25.1413 25.0352C25.1575 25.048 25.1721 25.0577 25.1829 25.0642C25.1882 25.0675 25.1927 25.07 25.1959 25.0717C25.1975 25.0726 25.1988 25.0732 25.1997 25.0738C25.2003 25.0741 25.2006 25.0743 25.2009 25.0744C25.2011 25.0744 25.2012 25.0745 25.2014 25.0746C25.2014 25.0746 25.2015 25.0746 25.2015 25.0747H25.2016C25.2016 25.0747 25.2016 25.0747 25.2223 25.0338C25.243 24.9929 25.243 24.9929 25.243 24.9929C25.2431 24.9929 25.2431 24.9929 25.2431 24.9929C25.2431 24.993 25.2431 24.993 25.2431 24.9929C25.2431 24.9929 25.243 24.9929 25.2428 24.9927C25.2423 24.9925 25.2417 24.9922 25.2406 24.9916C25.2386 24.9905 25.2354 24.9887 25.2314 24.9862C25.2233 24.9814 25.2118 24.9739 25.1992 24.9638C25.1733 24.9434 25.144 24.9139 25.1248 24.8761L25.042 24.917ZM25.0371 23.4325C24.9908 23.4325 24.9908 23.4325 24.9908 23.4325C24.9908 23.4325 24.9908 23.4325 24.9908 23.4326C24.9908 23.4326 24.9908 23.4327 24.9908 23.4328C24.9908 23.433 24.9908 23.4331 24.9908 23.4335C24.9908 23.4341 24.9908 23.4352 24.9908 23.4364C24.9908 23.4391 24.9908 23.4429 24.9908 23.448C24.9908 23.4581 24.9908 23.4729 24.9909 23.4918C24.991 23.5295 24.9912 23.5836 24.9916 23.6486C24.9923 23.7788 24.9937 23.9534 24.9967 24.1309C24.9995 24.3084 25.0039 24.4891 25.0104 24.6313C25.0137 24.7023 25.0175 24.7643 25.022 24.8116C25.0243 24.8353 25.0268 24.8559 25.0296 24.8726C25.0321 24.8873 25.0356 24.9044 25.042 24.917L25.1248 24.8761C25.1255 24.8772 25.1235 24.8729 25.1209 24.8575C25.1186 24.8439 25.1164 24.8257 25.1143 24.803C25.1099 24.7578 25.1061 24.6976 25.1029 24.6271C25.0964 24.4863 25.0921 24.3066 25.0892 24.1295C25.0863 23.9524 25.0849 23.7781 25.0842 23.6482C25.0838 23.5831 25.0836 23.5292 25.0835 23.4915C25.0834 23.4727 25.0834 23.4579 25.0834 23.4479C25.0834 23.4428 25.0834 23.439 25.0834 23.4364C25.0834 23.4352 25.0834 23.4341 25.0834 23.4335C25.0834 23.4331 25.0834 23.4329 25.0834 23.4328C25.0834 23.4327 25.0834 23.4326 25.0834 23.4326C25.0834 23.4325 25.0834 23.4325 25.0834 23.4325C25.0834 23.4325 25.0834 23.4325 25.0371 23.4325ZM24.9881 23.4783H25.0371V23.3867H24.9881V23.4783ZM28.1967 23.0432L24.9831 23.387L24.993 23.478L28.2067 23.1341L28.1967 23.0432ZM27.8149 23.9358C27.8149 23.6035 27.9778 23.3088 28.2292 23.1254L28.1742 23.0518C27.9002 23.2517 27.7223 23.5732 27.7223 23.9358H27.8149ZM28.8334 24.9423C28.2709 24.9423 27.8149 24.4916 27.8149 23.9358H27.7223C27.7223 24.5422 28.2198 25.0338 28.8334 25.0338V24.9423ZM29.8519 23.9358C29.8519 24.4916 29.3959 24.9423 28.8334 24.9423V25.0338C29.447 25.0338 29.9445 24.5422 29.9445 23.9358H29.8519ZM29.2486 23.0163C29.6043 23.1735 29.8519 23.5261 29.8519 23.9358H29.9445C29.9445 23.4887 29.6742 23.1041 29.2864 22.9328L29.2486 23.0163ZM37.8099 22.0145L29.2625 22.9291L29.2724 23.0201L37.8199 22.1054L37.8099 22.0145ZM37.9075 21.8312C37.9075 21.8844 37.8805 21.9313 37.8492 21.9673C37.8339 21.9849 37.8185 21.9989 37.8069 22.0084C37.8012 22.0131 37.7966 22.0166 37.7934 22.0189C37.7918 22.0201 37.7906 22.0209 37.7899 22.0214C37.7895 22.0217 37.7893 22.0218 37.7892 22.0219C37.7892 22.0219 37.7891 22.022 37.7891 22.022C37.7891 22.022 37.7892 22.0219 37.7892 22.0219C37.7892 22.0219 37.7892 22.0219 37.7892 22.0219V22.0219C37.7892 22.0219 37.7892 22.0219 37.8149 22.0599C37.8405 22.098 37.8405 22.098 37.8406 22.098C37.8406 22.098 37.8406 22.098 37.8406 22.098C37.8406 22.098 37.8406 22.098 37.8407 22.0979C37.8407 22.0979 37.8408 22.0979 37.8409 22.0978C37.841 22.0977 37.8412 22.0976 37.8414 22.0975C37.8418 22.0972 37.8423 22.0968 37.843 22.0964C37.8443 22.0955 37.8461 22.0942 37.8483 22.0926C37.8528 22.0893 37.859 22.0847 37.8662 22.0787C37.8807 22.0667 37.9001 22.0492 37.9195 22.0268C37.9577 21.9827 38.0001 21.9153 38.0001 21.8312H37.9075ZM37.8149 21.6482C37.8003 21.6916 37.8003 21.6916 37.8002 21.6916V21.6916C37.8002 21.6916 37.8002 21.6915 37.8001 21.6915C37.8001 21.6915 37.8001 21.6915 37.8001 21.6915C37.8 21.6915 37.8 21.6915 37.8 21.6915C37.8001 21.6915 37.8003 21.6916 37.8005 21.6917C37.8011 21.6919 37.8021 21.6923 37.8035 21.6928C37.8063 21.694 37.8106 21.6958 37.8159 21.6984C37.8266 21.7037 37.8407 21.7119 37.8547 21.7234C37.8823 21.7461 37.9075 21.78 37.9075 21.8312H38.0001C38.0001 21.7451 37.9558 21.6875 37.914 21.6531C37.8932 21.636 37.8727 21.6241 37.8573 21.6166C37.8496 21.6127 37.843 21.6099 37.8382 21.608C37.8358 21.6071 37.8339 21.6063 37.8324 21.6058C37.8317 21.6055 37.831 21.6053 37.8305 21.6051C37.8304 21.6051 37.8301 21.605 37.83 21.6049C37.8299 21.6049 37.8298 21.6049 37.8297 21.6048C37.8297 21.6048 37.8296 21.6048 37.8296 21.6048C37.8296 21.6048 37.8296 21.6048 37.8296 21.6048C37.8295 21.6048 37.8295 21.6048 37.8149 21.6482ZM23.9257 21.6939H37.8149V21.6024H23.9257V21.6939ZM23.8797 21.6024C23.8797 21.6175 23.8796 21.6326 23.8794 21.6477L23.972 21.6487C23.9722 21.6333 23.9723 21.6179 23.9723 21.6024H23.8797ZM23.6236 20.1354C23.7876 20.5969 23.8797 21.0934 23.8797 21.6024H23.9723C23.9723 21.0825 23.8782 20.5758 23.711 20.1051L23.6236 20.1354ZM27.0698 19.7726L23.6631 20.0747L23.6715 20.1658L27.0781 19.8637L27.0698 19.7726ZM27.074 19.7268C27.074 19.7358 27.0688 19.7492 27.0587 19.7641C27.0542 19.7708 27.0496 19.7765 27.0461 19.7804C27.0444 19.7824 27.043 19.7839 27.0422 19.7848C27.0418 19.7852 27.0415 19.7856 27.0413 19.7857C27.0412 19.7858 27.0412 19.7858 27.0412 19.7858C27.0412 19.7858 27.0412 19.7858 27.0412 19.7858C27.0412 19.7858 27.0412 19.7858 27.0413 19.7858C27.0413 19.7858 27.0413 19.7857 27.0413 19.7857C27.0413 19.7857 27.0413 19.7857 27.0413 19.7857C27.0413 19.7857 27.0413 19.7857 27.074 19.8181C27.1067 19.8505 27.1067 19.8505 27.1067 19.8505C27.1067 19.8505 27.1067 19.8505 27.1067 19.8505C27.1067 19.8505 27.1068 19.8505 27.1068 19.8505C27.1068 19.8504 27.1068 19.8504 27.1068 19.8504C27.1068 19.8503 27.1069 19.8502 27.107 19.8501C27.1072 19.85 27.1074 19.8497 27.1077 19.8495C27.1082 19.8489 27.1089 19.8482 27.1098 19.8473C27.1115 19.8456 27.1137 19.8431 27.1164 19.8401C27.1216 19.8341 27.1286 19.8254 27.1357 19.8149C27.1488 19.7955 27.1668 19.7632 27.1666 19.7264L27.074 19.7268ZM27.074 19.6809C27.055 19.7226 27.055 19.7226 27.055 19.7226V19.7226V19.7226C27.0549 19.7226 27.0549 19.7226 27.0549 19.7226C27.0549 19.7225 27.0549 19.7225 27.0548 19.7225C27.0548 19.7225 27.0548 19.7225 27.0549 19.7226C27.055 19.7226 27.0553 19.7227 27.0556 19.7229C27.0564 19.7233 27.0577 19.7239 27.0592 19.7247C27.0623 19.7264 27.0663 19.7287 27.0699 19.7313C27.0738 19.7341 27.0759 19.7362 27.0766 19.737C27.0774 19.7381 27.074 19.7344 27.074 19.7268L27.1666 19.7264C27.1665 19.7061 27.1572 19.6904 27.1494 19.6806C27.1414 19.6705 27.1319 19.6627 27.1243 19.6572C27.1164 19.6516 27.1087 19.6472 27.1032 19.6442C27.1005 19.6427 27.098 19.6415 27.0963 19.6407C27.0954 19.6403 27.0946 19.6399 27.0941 19.6397C27.0938 19.6395 27.0936 19.6394 27.0934 19.6393C27.0932 19.6393 27.0932 19.6392 27.0931 19.6392C27.093 19.6392 27.0931 19.6392 27.0931 19.6392C27.093 19.6392 27.093 19.6391 27.093 19.6391V19.6391C27.093 19.6391 27.093 19.6391 27.074 19.6809ZM23.485 19.7266H27.074V19.6351H23.485V19.7266ZM20.9013 17.5644C21.9417 17.7391 22.9069 18.576 23.4431 19.7004L23.5269 19.6614C22.9816 18.5178 21.9947 17.6552 20.9168 17.4741L20.9013 17.5644ZM20.6062 13.1707C20.6005 13.1651 20.5981 13.1596 20.5978 13.1588C20.5973 13.1578 20.597 13.1571 20.5969 13.1568C20.5968 13.1564 20.5968 13.1561 20.5968 13.1561C20.5967 13.1561 20.5968 13.1565 20.597 13.1574C20.5972 13.1583 20.5975 13.1595 20.5979 13.1611C20.5991 13.1675 20.6006 13.1776 20.6024 13.1915C20.606 13.2192 20.6101 13.2592 20.6146 13.3105C20.6238 13.4128 20.6346 13.558 20.6467 13.7339C20.6707 14.0856 20.6993 14.5589 20.7281 15.0553C20.7853 16.0482 20.8425 17.1331 20.8628 17.5216L20.9553 17.5169C20.935 17.1284 20.8778 16.0432 20.8205 15.0501C20.7918 14.5536 20.7631 14.0799 20.7391 13.7277C20.727 13.5517 20.7161 13.4058 20.7068 13.3024C20.7023 13.2509 20.698 13.2094 20.6943 13.18C20.6924 13.1654 20.6905 13.153 20.6887 13.1436C20.6878 13.139 20.6867 13.1341 20.6854 13.1296C20.6846 13.1274 20.6836 13.1244 20.6822 13.1212C20.6811 13.1189 20.6781 13.1123 20.6718 13.106L20.6062 13.1707ZM20.5464 13.0926C20.5464 13.1384 20.5464 13.1384 20.5463 13.1384H20.5462C20.5462 13.1384 20.5461 13.1384 20.546 13.1384C20.5459 13.1384 20.5458 13.1384 20.5457 13.1384C20.5456 13.1384 20.5455 13.1384 20.5455 13.1384C20.5453 13.1384 20.5453 13.1384 20.5454 13.1384C20.5456 13.1384 20.5465 13.1385 20.5478 13.1386C20.5505 13.139 20.5549 13.1399 20.5606 13.1418C20.572 13.1455 20.5888 13.1534 20.6062 13.1707L20.6718 13.106C20.6429 13.0776 20.6133 13.0626 20.59 13.0549C20.5783 13.0511 20.5684 13.0491 20.5609 13.0481C20.5571 13.0475 20.554 13.0472 20.5516 13.0471C20.5504 13.047 20.5493 13.0469 20.5484 13.0469C20.548 13.0469 20.5476 13.0469 20.5472 13.0469C20.5471 13.0469 20.5469 13.0469 20.5468 13.0469C20.5468 13.0469 20.5467 13.0469 20.5466 13.0469C20.5466 13.0469 20.5465 13.0469 20.5465 13.0469V13.0469C20.5464 13.0469 20.5464 13.0469 20.5464 13.0926ZM20.5927 17.4852V13.0926H20.5001V17.4852H20.5927ZM20.5001 17.5305C20.5152 17.5305 20.5304 17.5307 20.5455 17.531L20.5473 17.4395C20.5316 17.4392 20.5158 17.439 20.5001 17.439V17.5305ZM12.676 23.9358C12.676 24.1884 12.4687 24.3933 12.2131 24.3933V24.4848C12.5199 24.4848 12.7686 24.239 12.7686 23.9358H12.676ZM12.2131 23.4783C12.4687 23.4783 12.676 23.6831 12.676 23.9358H12.7686C12.7686 23.6325 12.5199 23.3867 12.2131 23.3867V23.4783ZM11.7501 23.9358C11.7501 23.6831 11.9574 23.4783 12.2131 23.4783V23.3867C11.9062 23.3867 11.6575 23.6325 11.6575 23.9358H11.7501ZM12.2131 24.3933C11.9574 24.3933 11.7501 24.1884 11.7501 23.9358H11.6575C11.6575 24.239 11.9062 24.4848 12.2131 24.4848V24.3933ZM15.2686 24.6678V25.4456H15.3612V24.6678H15.2686ZM15.5464 24.439C15.4158 24.439 15.3426 24.492 15.3046 24.552C15.2865 24.5807 15.2776 24.609 15.2732 24.6299C15.271 24.6404 15.2698 24.6493 15.2693 24.6559C15.269 24.6591 15.2688 24.6618 15.2687 24.6639C15.2687 24.6649 15.2686 24.6657 15.2686 24.6663C15.2686 24.6667 15.2686 24.667 15.2686 24.6672C15.2686 24.6673 15.2686 24.6674 15.2686 24.6675C15.2686 24.6676 15.2686 24.6676 15.2686 24.6677C15.2686 24.6678 15.2686 24.6678 15.3149 24.6678C15.3612 24.6678 15.3612 24.6678 15.3612 24.6679V24.668C15.3612 24.6681 15.3612 24.6681 15.3612 24.6682C15.3612 24.6682 15.3612 24.6683 15.3612 24.6682C15.3612 24.6682 15.3612 24.668 15.3612 24.6676C15.3612 24.667 15.3613 24.6657 15.3615 24.664C15.3618 24.6605 15.3625 24.6552 15.3639 24.6485C15.3667 24.6351 15.3722 24.6176 15.383 24.6005C15.403 24.5691 15.4455 24.5305 15.5464 24.5305V24.439ZM15.7779 24.6678C15.8242 24.6678 15.8242 24.6678 15.8242 24.6677C15.8242 24.6676 15.8242 24.6676 15.8242 24.6675C15.8242 24.6674 15.8242 24.6673 15.8242 24.6672C15.8242 24.667 15.8242 24.6667 15.8242 24.6663C15.8242 24.6657 15.8241 24.6649 15.8241 24.6639C15.824 24.6618 15.8238 24.6591 15.8235 24.6559C15.823 24.6493 15.8218 24.6404 15.8195 24.6299C15.8152 24.609 15.8063 24.5807 15.7881 24.552C15.7502 24.492 15.6769 24.439 15.5464 24.439V24.5305C15.6473 24.5305 15.6898 24.5691 15.7097 24.6005C15.7206 24.6176 15.7261 24.6351 15.7289 24.6485C15.7303 24.6552 15.731 24.6605 15.7313 24.664C15.7315 24.6657 15.7316 24.667 15.7316 24.6676C15.7316 24.668 15.7316 24.6682 15.7316 24.6682C15.7316 24.6683 15.7316 24.6682 15.7316 24.6682C15.7316 24.6681 15.7316 24.6681 15.7316 24.668V24.6679C15.7316 24.6678 15.7316 24.6678 15.7779 24.6678ZM15.8242 25.4456V24.6678H15.7316V25.4456H15.8242ZM15.5464 25.7201C15.6123 25.7201 15.6649 25.7036 15.7059 25.6766C15.7466 25.6498 15.7731 25.6144 15.7904 25.5804C15.8075 25.5466 15.8158 25.5133 15.8199 25.4889C15.822 25.4765 15.8231 25.4662 15.8236 25.4587C15.8239 25.4549 15.824 25.4519 15.8241 25.4497C15.8242 25.4486 15.8242 25.4477 15.8242 25.4469C15.8242 25.4466 15.8242 25.4463 15.8242 25.4461C15.8242 25.4459 15.8242 25.4458 15.8242 25.4458V25.4457C15.8242 25.4456 15.8242 25.4456 15.7779 25.4456C15.7316 25.4456 15.7316 25.4456 15.7316 25.4456C15.7316 25.4455 15.7316 25.4455 15.7316 25.4455C15.7316 25.4455 15.7316 25.4455 15.7316 25.4454C15.7316 25.4454 15.7316 25.4454 15.7316 25.4455C15.7316 25.4457 15.7316 25.446 15.7316 25.4466C15.7315 25.4478 15.7314 25.4496 15.7312 25.4522C15.7308 25.4572 15.7301 25.4647 15.7286 25.4738C15.7255 25.4922 15.7193 25.5161 15.7075 25.5395C15.6958 25.5627 15.679 25.5845 15.6545 25.6005C15.6304 25.6164 15.5962 25.6286 15.5464 25.6286V25.7201ZM15.3149 25.4456C15.2686 25.4456 15.2686 25.4456 15.2686 25.4457V25.4458C15.2686 25.4458 15.2686 25.4459 15.2686 25.4461C15.2686 25.4463 15.2686 25.4466 15.2686 25.4469C15.2686 25.4477 15.2686 25.4486 15.2687 25.4497C15.2688 25.4519 15.2689 25.4549 15.2692 25.4587C15.2697 25.4662 15.2707 25.4765 15.2729 25.4889C15.2769 25.5133 15.2853 25.5466 15.3024 25.5804C15.3196 25.6144 15.3462 25.6498 15.3868 25.6766C15.4279 25.7036 15.4805 25.7201 15.5464 25.7201V25.6286C15.4966 25.6286 15.4624 25.6164 15.4382 25.6005C15.4138 25.5845 15.3969 25.5627 15.3853 25.5395C15.3734 25.5161 15.3673 25.4922 15.3642 25.4738C15.3627 25.4647 15.3619 25.4572 15.3616 25.4522C15.3614 25.4496 15.3613 25.4478 15.3612 25.4466C15.3612 25.446 15.3612 25.4457 15.3612 25.4455C15.3612 25.4454 15.3612 25.4454 15.3612 25.4454C15.3612 25.4455 15.3612 25.4455 15.3612 25.4455C15.3612 25.4455 15.3612 25.4455 15.3612 25.4456C15.3612 25.4456 15.3612 25.4456 15.3149 25.4456ZM19.7131 25.9488V26.7266H19.8056V25.9488H19.7131ZM19.9908 25.7201C19.8603 25.7201 19.787 25.7731 19.7491 25.8331C19.7309 25.8617 19.722 25.89 19.7177 25.911C19.7155 25.9215 19.7143 25.9304 19.7137 25.9369C19.7134 25.9401 19.7132 25.9429 19.7131 25.9449C19.7131 25.9459 19.7131 25.9467 19.7131 25.9474C19.7131 25.9477 19.7131 25.948 19.7131 25.9483C19.7131 25.9484 19.7131 25.9485 19.7131 25.9486C19.7131 25.9487 19.7131 25.9487 19.7131 25.9487C19.7131 25.9488 19.7131 25.9488 19.7593 25.9488C19.8056 25.9488 19.8056 25.9488 19.8056 25.9489V25.949C19.8056 25.9491 19.8056 25.9491 19.8056 25.9492C19.8056 25.9492 19.8056 25.949 19.8056 25.9487C19.8056 25.948 19.8057 25.9467 19.8059 25.9451C19.8062 25.9415 19.8069 25.9362 19.8083 25.9295C19.8111 25.9162 19.8167 25.8987 19.8275 25.8816C19.8474 25.8501 19.8899 25.8116 19.9908 25.8116V25.7201ZM20.2223 25.9488C20.2686 25.9488 20.2686 25.9488 20.2686 25.9487C20.2686 25.9487 20.2686 25.9487 20.2686 25.9486C20.2686 25.9485 20.2686 25.9484 20.2686 25.9483C20.2686 25.948 20.2686 25.9477 20.2686 25.9474C20.2686 25.9467 20.2685 25.9459 20.2685 25.9449C20.2684 25.9429 20.2682 25.9401 20.268 25.9369C20.2674 25.9304 20.2662 25.9215 20.264 25.911C20.2596 25.89 20.2507 25.8617 20.2326 25.8331C20.1946 25.7731 20.1214 25.7201 19.9908 25.7201V25.8116C20.0918 25.8116 20.1343 25.8501 20.1542 25.8816C20.165 25.8987 20.1705 25.9162 20.1733 25.9295C20.1747 25.9362 20.1755 25.9415 20.1757 25.9451C20.1759 25.9467 20.176 25.948 20.176 25.9487C20.176 25.949 20.176 25.9492 20.176 25.9492C20.176 25.9491 20.176 25.9491 20.176 25.949V25.9489C20.176 25.9488 20.176 25.9488 20.2223 25.9488ZM20.2686 26.7266V25.9488H20.176V26.7266H20.2686ZM19.9908 27.0011C20.0568 27.0011 20.1093 26.9847 20.1504 26.9577C20.191 26.9309 20.2176 26.8954 20.2348 26.8615C20.2519 26.8276 20.2603 26.7943 20.2643 26.7699C20.2665 26.7575 20.2675 26.7472 20.2681 26.7397C20.2683 26.736 20.2684 26.7329 20.2685 26.7307C20.2686 26.7296 20.2686 26.7287 20.2686 26.728C20.2686 26.7276 20.2686 26.7273 20.2686 26.7272C20.2686 26.727 20.2686 26.7269 20.2686 26.7268V26.7267C20.2686 26.7266 20.2686 26.7266 20.2223 26.7266C20.176 26.7266 20.176 26.7266 20.176 26.7266C20.176 26.7265 20.176 26.7265 20.176 26.7265C20.176 26.7265 20.176 26.7265 20.176 26.7264C20.176 26.7264 20.176 26.7264 20.176 26.7265C20.176 26.7267 20.176 26.7271 20.176 26.7276C20.1759 26.7288 20.1758 26.7306 20.1756 26.7332C20.1753 26.7382 20.1745 26.7457 20.173 26.7548C20.1699 26.7733 20.1638 26.7972 20.1519 26.8205C20.1403 26.8437 20.1234 26.8655 20.099 26.8815C20.0748 26.8975 20.0406 26.9096 19.9908 26.9096V27.0011ZM19.7593 26.7266C19.7131 26.7266 19.7131 26.7266 19.7131 26.7267V26.7268C19.7131 26.7269 19.7131 26.727 19.7131 26.7272C19.7131 26.7273 19.7131 26.7276 19.7131 26.728C19.7131 26.7287 19.7131 26.7296 19.7131 26.7307C19.7132 26.7329 19.7133 26.736 19.7136 26.7397C19.7142 26.7472 19.7152 26.7575 19.7173 26.7699C19.7214 26.7943 19.7297 26.8276 19.7468 26.8615C19.7641 26.8954 19.7906 26.9309 19.8313 26.9577C19.8723 26.9847 19.9249 27.0011 19.9908 27.0011V26.9096C19.941 26.9096 19.9068 26.8975 19.8827 26.8815C19.8582 26.8655 19.8414 26.8437 19.8297 26.8205C19.8179 26.7972 19.8118 26.7733 19.8086 26.7548C19.8071 26.7457 19.8064 26.7382 19.806 26.7332C19.8058 26.7306 19.8057 26.7288 19.8056 26.7276C19.8056 26.7271 19.8056 26.7267 19.8056 26.7265C19.8056 26.7264 19.8056 26.7264 19.8056 26.7264C19.8056 26.7265 19.8056 26.7265 19.8056 26.7265C19.8056 26.7265 19.8056 26.7265 19.8056 26.7266C19.8056 26.7266 19.8056 26.7266 19.7593 26.7266ZM19.4861 20.2301C19.353 20.2172 19.1817 20.1834 19.0424 20.1525C18.9731 20.1371 18.9121 20.1225 18.8685 20.1117C18.8468 20.1064 18.8293 20.102 18.8174 20.0989C18.8114 20.0974 18.8068 20.0962 18.8037 20.0954C18.8021 20.095 18.8009 20.0947 18.8002 20.0945C18.7998 20.0944 18.7994 20.0943 18.7993 20.0942C18.7992 20.0942 18.7992 20.0942 18.7991 20.0942V20.0942C18.799 20.0942 18.799 20.0942 18.799 20.0942C18.799 20.0942 18.799 20.0942 18.7871 20.1384C18.7753 20.1826 18.7753 20.1826 18.7753 20.1826C18.7753 20.1826 18.7753 20.1826 18.7754 20.1826C18.7754 20.1826 18.7755 20.1827 18.7755 20.1827C18.7758 20.1827 18.7761 20.1828 18.7766 20.1829C18.7774 20.1832 18.7786 20.1835 18.7802 20.1839C18.7834 20.1847 18.7881 20.1859 18.7943 20.1875C18.8064 20.1906 18.8241 20.1951 18.8461 20.2005C18.8903 20.2114 18.9518 20.2261 19.0221 20.2417C19.1619 20.2728 19.3379 20.3077 19.477 20.3212L19.4861 20.2301ZM20.2686 20.3214C20.2702 20.2757 20.2702 20.2757 20.2702 20.2757H20.2701C20.27 20.2757 20.2699 20.2757 20.2698 20.2757C20.2696 20.2756 20.2693 20.2756 20.2688 20.2756C20.2679 20.2756 20.2666 20.2755 20.2647 20.2755C20.2612 20.2754 20.2559 20.2752 20.2491 20.2749C20.2354 20.2744 20.2155 20.2737 20.1905 20.2727C20.1408 20.2707 20.0713 20.2678 19.9923 20.264C19.834 20.2562 19.6381 20.2448 19.4861 20.2301L19.477 20.3212C19.6314 20.3361 19.8292 20.3476 19.9877 20.3554C20.0671 20.3592 20.1369 20.3622 20.1868 20.3641C20.2118 20.3651 20.2318 20.3659 20.2456 20.3664C20.2526 20.3666 20.2579 20.3668 20.2615 20.3669C20.2633 20.367 20.2647 20.367 20.2656 20.3671C20.2661 20.3671 20.2665 20.3671 20.2667 20.3671C20.2668 20.3671 20.2668 20.3671 20.2669 20.3671H20.267C20.267 20.3671 20.267 20.3671 20.2686 20.3214ZM20.3611 21.1883L20.3148 20.319L20.2224 20.3238L20.2687 21.1931L20.3611 21.1883ZM19.2842 21.1891C19.5447 21.2593 19.8043 21.2708 19.9981 21.265C20.095 21.2621 20.1759 21.2548 20.2328 21.2483C20.2612 21.245 20.2836 21.2419 20.299 21.2396C20.3067 21.2384 20.3126 21.2375 20.3167 21.2368C20.3187 21.2364 20.3203 21.2362 20.3214 21.236C20.3219 21.2359 20.3223 21.2358 20.3227 21.2358C20.3228 21.2358 20.323 21.2357 20.323 21.2357C20.323 21.2357 20.323 21.2357 20.3231 21.2357C20.3231 21.2357 20.3231 21.2357 20.3231 21.2357C20.3231 21.2357 20.3231 21.2357 20.3149 21.1907C20.3067 21.1457 20.3067 21.1456 20.3067 21.1456C20.3067 21.1456 20.3067 21.1457 20.3066 21.1457C20.3066 21.1457 20.3065 21.1457 20.3064 21.1457C20.3062 21.1457 20.3059 21.1458 20.3055 21.1459C20.3046 21.146 20.3032 21.1462 20.3014 21.1465C20.2978 21.1471 20.2923 21.148 20.2851 21.1491C20.2706 21.1513 20.2493 21.1542 20.222 21.1574C20.1674 21.1637 20.0892 21.1707 19.9952 21.1735C19.8069 21.1792 19.5573 21.1678 19.3086 21.1008L19.2842 21.1891ZM18.4168 20.7789C18.3889 20.8155 18.389 20.8155 18.389 20.8155C18.389 20.8155 18.389 20.8155 18.389 20.8155C18.389 20.8155 18.3891 20.8156 18.3891 20.8156C18.3892 20.8156 18.3893 20.8157 18.3893 20.8158C18.3895 20.8159 18.3898 20.8161 18.3901 20.8163C18.3908 20.8168 18.3918 20.8175 18.393 20.8184C18.3954 20.8201 18.3989 20.8225 18.4034 20.8256C18.4126 20.8319 18.4262 20.8408 18.4443 20.8519C18.4806 20.8742 18.5348 20.9053 18.608 20.9414C18.7547 21.0138 18.9775 21.1064 19.2842 21.1891L19.3086 21.1008C19.0078 21.0197 18.7907 20.9293 18.6494 20.8596C18.5788 20.8247 18.527 20.795 18.4932 20.7742C18.4763 20.7638 18.4639 20.7557 18.4558 20.7502C18.4518 20.7475 18.4489 20.7454 18.4469 20.7441C18.446 20.7434 18.4454 20.7429 18.445 20.7426C18.4448 20.7425 18.4446 20.7424 18.4446 20.7423C18.4445 20.7423 18.4445 20.7423 18.4445 20.7423V20.7423C18.4445 20.7423 18.4445 20.7423 18.4445 20.7423C18.4445 20.7423 18.4446 20.7423 18.4168 20.7789ZM18.7469 20.1157L18.3766 20.7562L18.4569 20.8016L18.8273 20.1611L18.7469 20.1157ZM28.2779 23.9358C28.2779 24.239 28.5266 24.4848 28.8334 24.4848V24.3933C28.5778 24.3933 28.3705 24.1884 28.3705 23.9358H28.2779ZM28.8334 23.3867C28.5266 23.3867 28.2779 23.6325 28.2779 23.9358H28.3705C28.3705 23.6831 28.5778 23.4783 28.8334 23.4783V23.3867ZM29.389 23.9358C29.389 23.6325 29.1403 23.3867 28.8334 23.3867V23.4783C29.0891 23.4783 29.2964 23.6831 29.2964 23.9358H29.389ZM28.8334 24.4848C29.1403 24.4848 29.389 24.239 29.389 23.9358H29.2964C29.2964 24.1884 29.0891 24.3933 28.8334 24.3933V24.4848ZM25.6853 24.6678V25.4456H25.7779V24.6678H25.6853ZM25.5001 24.5305C25.601 24.5305 25.6435 24.5691 25.6634 24.6005C25.6743 24.6176 25.6798 24.6351 25.6826 24.6485C25.684 24.6552 25.6847 24.6605 25.685 24.664C25.6852 24.6657 25.6853 24.667 25.6853 24.6676C25.6853 24.668 25.6853 24.6682 25.6853 24.6682C25.6853 24.6683 25.6853 24.6682 25.6853 24.6682C25.6853 24.6681 25.6853 24.6681 25.6853 24.668V24.6679C25.6853 24.6678 25.6853 24.6678 25.7316 24.6678C25.7779 24.6678 25.7779 24.6678 25.7779 24.6677C25.7779 24.6676 25.7779 24.6676 25.7779 24.6675C25.7779 24.6674 25.7779 24.6673 25.7779 24.6672C25.7779 24.667 25.7779 24.6667 25.7779 24.6663C25.7779 24.6657 25.7778 24.6649 25.7778 24.6639C25.7777 24.6618 25.7775 24.6591 25.7772 24.6559C25.7767 24.6493 25.7755 24.6404 25.7732 24.6299C25.7689 24.609 25.76 24.5807 25.7418 24.552C25.7039 24.492 25.6306 24.439 25.5001 24.439V24.5305ZM25.2686 24.6678C25.3149 24.6678 25.3149 24.6678 25.3149 24.6679V24.668C25.3149 24.6681 25.3149 24.6681 25.3149 24.6682C25.3149 24.6682 25.3149 24.6683 25.3149 24.6682C25.3149 24.6682 25.3149 24.668 25.3149 24.6676C25.3149 24.667 25.315 24.6657 25.3152 24.664C25.3155 24.6605 25.3162 24.6552 25.3176 24.6485C25.3204 24.6351 25.3259 24.6176 25.3368 24.6005C25.3567 24.5691 25.3992 24.5305 25.5001 24.5305V24.439C25.3695 24.439 25.2963 24.492 25.2583 24.552C25.2402 24.5807 25.2313 24.609 25.2269 24.6299C25.2247 24.6404 25.2235 24.6493 25.223 24.6559C25.2227 24.6591 25.2225 24.6618 25.2224 24.6639C25.2224 24.6649 25.2223 24.6657 25.2223 24.6663C25.2223 24.6667 25.2223 24.667 25.2223 24.6672C25.2223 24.6673 25.2223 24.6674 25.2223 24.6675C25.2223 24.6676 25.2223 24.6676 25.2223 24.6677C25.2223 24.6678 25.2223 24.6678 25.2686 24.6678ZM25.3149 25.4456V24.6678H25.2223V25.4456H25.3149ZM25.5001 25.6286C25.4503 25.6286 25.4161 25.6164 25.3919 25.6005C25.3675 25.5845 25.3506 25.5627 25.339 25.5395C25.3271 25.5161 25.321 25.4922 25.3179 25.4738C25.3164 25.4647 25.3156 25.4572 25.3153 25.4522C25.3151 25.4496 25.315 25.4478 25.3149 25.4466C25.3149 25.446 25.3149 25.4457 25.3149 25.4455C25.3149 25.4454 25.3149 25.4454 25.3149 25.4454C25.3149 25.4455 25.3149 25.4455 25.3149 25.4455C25.3149 25.4455 25.3149 25.4455 25.3149 25.4456C25.3149 25.4456 25.3149 25.4456 25.2686 25.4456C25.2223 25.4456 25.2223 25.4456 25.2223 25.4457V25.4458C25.2223 25.4458 25.2223 25.4459 25.2223 25.4461C25.2223 25.4463 25.2223 25.4466 25.2223 25.4469C25.2223 25.4477 25.2223 25.4486 25.2224 25.4497C25.2225 25.4519 25.2226 25.4549 25.2229 25.4587C25.2234 25.4662 25.2244 25.4765 25.2266 25.4889C25.2306 25.5133 25.239 25.5466 25.2561 25.5804C25.2733 25.6144 25.2999 25.6498 25.3405 25.6766C25.3816 25.7036 25.4342 25.7201 25.5001 25.7201V25.6286ZM25.7316 25.4456C25.6853 25.4456 25.6853 25.4456 25.6853 25.4456C25.6853 25.4455 25.6853 25.4455 25.6853 25.4455C25.6853 25.4455 25.6853 25.4455 25.6853 25.4454C25.6853 25.4454 25.6853 25.4454 25.6853 25.4455C25.6853 25.4457 25.6853 25.446 25.6853 25.4466C25.6852 25.4478 25.6851 25.4496 25.6849 25.4522C25.6845 25.4572 25.6838 25.4647 25.6823 25.4738C25.6792 25.4922 25.673 25.5161 25.6612 25.5395C25.6495 25.5627 25.6327 25.5845 25.6082 25.6005C25.5841 25.6164 25.5499 25.6286 25.5001 25.6286V25.7201C25.566 25.7201 25.6186 25.7036 25.6596 25.6766C25.7003 25.6498 25.7268 25.6144 25.7441 25.5804C25.7612 25.5466 25.7695 25.5133 25.7736 25.4889C25.7757 25.4765 25.7768 25.4662 25.7773 25.4587C25.7776 25.4549 25.7777 25.4519 25.7778 25.4497C25.7779 25.4486 25.7779 25.4477 25.7779 25.4469C25.7779 25.4466 25.7779 25.4463 25.7779 25.4461C25.7779 25.4459 25.7779 25.4458 25.7779 25.4458V25.4457C25.7779 25.4456 25.7779 25.4456 25.7316 25.4456ZM21.2408 25.9488V26.7266H21.3334V25.9488H21.2408ZM21.0556 25.8116C21.1566 25.8116 21.1991 25.8501 21.219 25.8816C21.2298 25.8987 21.2354 25.9162 21.2381 25.9295C21.2395 25.9362 21.2403 25.9415 21.2405 25.9451C21.2407 25.9467 21.2408 25.948 21.2408 25.9487C21.2408 25.949 21.2408 25.9492 21.2408 25.9492C21.2408 25.9491 21.2408 25.9491 21.2408 25.949V25.9489C21.2408 25.9488 21.2408 25.9488 21.2871 25.9488C21.3334 25.9488 21.3334 25.9488 21.3334 25.9487C21.3334 25.9487 21.3334 25.9487 21.3334 25.9486C21.3334 25.9485 21.3334 25.9484 21.3334 25.9483C21.3334 25.948 21.3334 25.9477 21.3334 25.9474C21.3334 25.9467 21.3333 25.9459 21.3333 25.9449C21.3332 25.9429 21.333 25.9401 21.3328 25.9369C21.3322 25.9304 21.331 25.9215 21.3288 25.911C21.3244 25.89 21.3155 25.8617 21.2974 25.8331C21.2594 25.7731 21.1862 25.7201 21.0556 25.7201V25.8116ZM20.8242 25.9488C20.8705 25.9488 20.8705 25.9488 20.8705 25.9489V25.949C20.8705 25.9491 20.8705 25.9491 20.8705 25.9492C20.8705 25.9492 20.8705 25.949 20.8705 25.9487C20.8705 25.948 20.8706 25.9467 20.8707 25.9451C20.871 25.9415 20.8718 25.9362 20.8731 25.9295C20.8759 25.9162 20.8815 25.8987 20.8923 25.8816C20.9122 25.8501 20.9547 25.8116 21.0556 25.8116V25.7201C20.9251 25.7201 20.8518 25.7731 20.8139 25.8331C20.7957 25.8617 20.7868 25.89 20.7825 25.911C20.7803 25.9215 20.7791 25.9304 20.7785 25.9369C20.7782 25.9401 20.7781 25.9429 20.778 25.9449C20.778 25.9459 20.7779 25.9467 20.7779 25.9474C20.7779 25.9477 20.7779 25.948 20.7779 25.9483C20.7779 25.9484 20.7779 25.9485 20.7779 25.9486C20.7779 25.9487 20.7779 25.9487 20.7779 25.9487C20.7779 25.9488 20.7779 25.9488 20.8242 25.9488ZM20.8705 26.7266V25.9488H20.7779V26.7266H20.8705ZM21.0556 26.9096C21.0058 26.9096 20.9717 26.8975 20.9475 26.8815C20.923 26.8655 20.9062 26.8437 20.8945 26.8205C20.8827 26.7972 20.8766 26.7733 20.8734 26.7548C20.8719 26.7457 20.8712 26.7382 20.8708 26.7332C20.8706 26.7306 20.8706 26.7288 20.8705 26.7276C20.8705 26.7271 20.8705 26.7267 20.8705 26.7265C20.8705 26.7264 20.8705 26.7264 20.8705 26.7264C20.8705 26.7265 20.8705 26.7265 20.8705 26.7265C20.8705 26.7265 20.8705 26.7265 20.8705 26.7266C20.8705 26.7266 20.8705 26.7266 20.8242 26.7266C20.7779 26.7266 20.7779 26.7266 20.7779 26.7267V26.7268C20.7779 26.7269 20.7779 26.727 20.7779 26.7272C20.7779 26.7273 20.7779 26.7276 20.7779 26.728C20.7779 26.7287 20.7779 26.7296 20.778 26.7307C20.7781 26.7329 20.7781 26.736 20.7784 26.7397C20.779 26.7472 20.78 26.7575 20.7821 26.7699C20.7862 26.7943 20.7945 26.8276 20.8117 26.8615C20.8289 26.8954 20.8555 26.9309 20.8961 26.9577C20.9371 26.9847 20.9897 27.0011 21.0556 27.0011V26.9096ZM21.2871 26.7266C21.2408 26.7266 21.2408 26.7266 21.2408 26.7266C21.2408 26.7265 21.2408 26.7265 21.2408 26.7265C21.2408 26.7265 21.2408 26.7265 21.2408 26.7264C21.2408 26.7264 21.2408 26.7264 21.2408 26.7265C21.2408 26.7267 21.2408 26.7271 21.2408 26.7276C21.2407 26.7288 21.2406 26.7306 21.2405 26.7332C21.2401 26.7382 21.2393 26.7457 21.2379 26.7548C21.2347 26.7733 21.2286 26.7972 21.2168 26.8205C21.2051 26.8437 21.1882 26.8655 21.1638 26.8815C21.1396 26.8975 21.1055 26.9096 21.0556 26.9096V27.0011C21.1216 27.0011 21.1742 26.9847 21.2152 26.9577C21.2558 26.9309 21.2824 26.8954 21.2996 26.8615C21.3168 26.8276 21.3251 26.7943 21.3292 26.7699C21.3313 26.7575 21.3323 26.7472 21.3329 26.7397C21.3331 26.736 21.3332 26.7329 21.3333 26.7307C21.3334 26.7296 21.3334 26.7287 21.3334 26.728C21.3334 26.7276 21.3334 26.7273 21.3334 26.7272C21.3334 26.727 21.3334 26.7269 21.3334 26.7268V26.7267C21.3334 26.7266 21.3334 26.7266 21.2871 26.7266ZM21.5694 20.3212C21.7086 20.3077 21.8845 20.2728 22.0243 20.2417C22.0946 20.2261 22.1562 20.2114 22.2004 20.2005C22.2224 20.1951 22.2401 20.1906 22.2522 20.1875C22.2583 20.1859 22.2631 20.1847 22.2663 20.1839C22.2679 20.1835 22.2691 20.1832 22.2699 20.1829C22.2704 20.1828 22.2706 20.1827 22.2709 20.1827C22.271 20.1827 22.2711 20.1826 22.2711 20.1826C22.2712 20.1826 22.2712 20.1826 22.2712 20.1826C22.2712 20.1826 22.2712 20.1826 22.2593 20.1384C22.2475 20.0942 22.2475 20.0942 22.2475 20.0942C22.2475 20.0942 22.2475 20.0942 22.2474 20.0942V20.0942C22.2473 20.0942 22.2473 20.0942 22.2472 20.0942C22.247 20.0943 22.2467 20.0944 22.2463 20.0945C22.2455 20.0947 22.2443 20.095 22.2428 20.0954C22.2397 20.0962 22.2351 20.0974 22.2291 20.0989C22.2171 20.102 22.1997 20.1064 22.178 20.1117C22.1343 20.1225 22.0734 20.1371 22.0041 20.1525C21.8648 20.1834 21.6935 20.2172 21.5604 20.2301L21.5694 20.3212ZM20.7779 20.3214C20.7794 20.3671 20.7794 20.3671 20.7794 20.3671H20.7795C20.7796 20.3671 20.7797 20.3671 20.7798 20.3671C20.78 20.3671 20.7804 20.3671 20.7808 20.3671C20.7818 20.367 20.7831 20.367 20.785 20.3669C20.7886 20.3668 20.7939 20.3666 20.8008 20.3664C20.8146 20.3659 20.8346 20.3651 20.8596 20.3641C20.9095 20.3622 20.9793 20.3592 21.0588 20.3554C21.2173 20.3476 21.4151 20.3361 21.5694 20.3212L21.5604 20.2301C21.4083 20.2449 21.2125 20.2562 21.0542 20.264C20.9752 20.2678 20.9056 20.2707 20.8559 20.2727C20.831 20.2737 20.8111 20.2744 20.7974 20.2749C20.7906 20.2752 20.7853 20.2754 20.7818 20.2755C20.7799 20.2755 20.7786 20.2756 20.7777 20.2756C20.7772 20.2756 20.7768 20.2756 20.7767 20.2757C20.7766 20.2757 20.7765 20.2757 20.7764 20.2757H20.7763C20.7763 20.2757 20.7763 20.2757 20.7779 20.3214ZM20.7778 21.1931L20.8241 20.3238L20.7317 20.319L20.6854 21.1883L20.7778 21.1931ZM21.7379 21.1008C21.4892 21.1678 21.2395 21.1792 21.0513 21.1735C20.9573 21.1707 20.8791 21.1637 20.8244 21.1574C20.7972 21.1542 20.7758 21.1513 20.7614 21.1491C20.7542 21.148 20.7487 21.1471 20.7451 21.1465C20.7432 21.1462 20.7418 21.146 20.741 21.1459C20.7406 21.1458 20.7403 21.1457 20.7401 21.1457C20.74 21.1457 20.7399 21.1457 20.7399 21.1457C20.7398 21.1457 20.7398 21.1456 20.7398 21.1456C20.7398 21.1457 20.7398 21.1457 20.7316 21.1907C20.7233 21.2357 20.7233 21.2357 20.7233 21.2357C20.7233 21.2357 20.7233 21.2357 20.7233 21.2357C20.7234 21.2357 20.7234 21.2357 20.7234 21.2357C20.7235 21.2357 20.7237 21.2358 20.7238 21.2358C20.7242 21.2358 20.7245 21.2359 20.7251 21.236C20.7262 21.2362 20.7278 21.2364 20.7298 21.2368C20.7339 21.2375 20.7398 21.2384 20.7475 21.2396C20.7629 21.2419 20.7853 21.245 20.8137 21.2483C20.8706 21.2548 20.9515 21.2621 21.0484 21.265C21.2421 21.2708 21.5018 21.2593 21.7623 21.1891L21.7379 21.1008ZM22.6297 20.7789C22.6018 20.7423 22.6019 20.7423 22.6019 20.7423C22.6019 20.7423 22.6019 20.7423 22.6019 20.7423V20.7423C22.6019 20.7423 22.6019 20.7423 22.6018 20.7423C22.6018 20.7424 22.6017 20.7425 22.6015 20.7426C22.6011 20.7429 22.6005 20.7434 22.5995 20.7441C22.5976 20.7454 22.5947 20.7475 22.5906 20.7502C22.5826 20.7557 22.5702 20.7638 22.5532 20.7742C22.5194 20.795 22.4677 20.8247 22.397 20.8596C22.2557 20.9293 22.0387 21.0197 21.7379 21.1008L21.7623 21.1891C22.069 21.1064 22.2918 21.0138 22.4384 20.9414C22.5117 20.9053 22.5659 20.8742 22.6021 20.8519C22.6203 20.8408 22.6339 20.8319 22.643 20.8256C22.6476 20.8225 22.6511 20.8201 22.6535 20.8184C22.6547 20.8175 22.6556 20.8168 22.6564 20.8163C22.6567 20.8161 22.6569 20.8159 22.6571 20.8158C22.6572 20.8157 22.6573 20.8156 22.6574 20.8156C22.6574 20.8156 22.6575 20.8155 22.6575 20.8155C22.6575 20.8155 22.6575 20.8155 22.6575 20.8155C22.6575 20.8155 22.6576 20.8155 22.6297 20.7789ZM22.2192 20.1611L22.5895 20.8016L22.6699 20.7562L22.2995 20.1157L22.2192 20.1611Z" fill="white"/>
</g>
<defs>
<clipPath id="clip0">
<rect width="35" height="14" fill="white" transform="translate(3 13)"/>
</clipPath>
</defs>
</svg>
