<svg width="48" height="20" viewBox="0 0 48 20" fill="none" xmlns="http://www.w3.org/2000/svg">
<g clip-path="url(#clip0)">
<path fill-rule="evenodd" clip-rule="evenodd" d="M24 6.40342V0.128906C24 0.128906 23.9365 0.128909 23.873 0.194267C23.8166 0.252314 23.5598 5.3111 23.5032 6.44221C22.0313 6.67169 20.6905 7.89731 19.955 9.54067H15.0478C15.0478 9.54067 14.9845 9.56994 14.9843 9.60603C14.9841 9.67139 15.0478 9.73675 15.0478 9.73675L19.7111 10.1676C19.4894 10.8336 19.365 11.5505 19.365 12.2858C19.365 12.3076 19.3652 12.3294 19.3654 12.3511H0.317429C0.317429 12.3511 0.126953 12.4165 0.126953 12.6126C0.126953 12.8086 0.317429 12.9394 0.317429 12.9394L12.0396 14.246C11.5298 14.4805 11.1746 15.0071 11.1746 15.6191C11.1746 16.4493 11.8284 17.1224 12.6349 17.1224C13.4414 17.1224 14.0952 16.4493 14.0952 15.6191C14.0952 15.1228 13.8616 14.6826 13.5013 14.4089L17.9084 14.9001H17.8412C17.8412 14.9001 17.8412 16.8609 17.7777 16.9917C17.7143 17.1224 17.5873 17.1877 17.5873 17.1877V17.2531H17.9682V14.9068L18.0317 14.9139V17.2531H18.4127V17.7106C18.4127 17.7106 18.4127 18.0374 18.7301 18.0374C19.0476 18.0374 19.0476 17.7106 19.0476 17.7106V16.5995C19.0476 16.5995 19.0476 16.3381 18.7301 16.3381C18.4127 16.3381 18.4127 16.5995 18.4127 16.5995V17.1877C18.4127 17.1877 18.2857 17.1224 18.2222 16.9917C18.1631 16.8701 18.159 15.1675 18.1587 14.928L20.0756 15.1417C20.908 16.6566 22.3724 17.6165 23.9297 17.6446C23.9223 18.1753 23.9065 18.7528 23.873 18.8217C23.8095 18.9524 23.6825 19.0178 23.6825 19.0178V19.0832H24H24.0635H24.3809V19.0178C24.3809 19.0178 24.2539 18.9524 24.1904 18.8217C24.1569 18.7527 24.1412 18.1741 24.1337 17.6429C25.668 17.5903 27.1296 16.6369 27.9691 15.1438L29.9047 14.928C29.9045 15.1675 29.9003 16.8701 29.8412 16.9917C29.7777 17.1224 29.6508 17.1877 29.6508 17.1877V16.5995C29.6508 16.5995 29.6508 16.3381 29.3333 16.3381C29.0158 16.3381 29.0158 16.5995 29.0158 16.5995V17.7106C29.0158 17.7106 29.0158 18.0374 29.3333 18.0374C29.6508 18.0374 29.6508 17.7106 29.6508 17.7106V17.2531H30.0317V14.9139L30.0952 14.9068V17.2531H30.4762V17.1877C30.4762 17.1877 30.3492 17.1224 30.2857 16.9917C30.2222 16.8609 30.2222 14.9001 30.2222 14.9001H30.155L34.5621 14.4089C34.2019 14.6826 33.9682 15.1228 33.9682 15.6191C33.9682 16.4493 34.6221 17.1224 35.4285 17.1224C36.235 17.1224 36.8889 16.4493 36.8889 15.6191C36.8889 15.0071 36.5336 14.4805 36.0238 14.246L47.746 12.9394C47.746 12.9394 47.9365 12.8086 47.9365 12.6126C47.9365 12.4165 47.746 12.3511 47.746 12.3511H28.698C28.6983 12.3294 28.6984 12.3076 28.6984 12.2858C28.6984 11.5508 28.5706 10.8342 28.3436 10.1684L33.0156 9.73675C33.0156 9.73675 33.0793 9.67139 33.0791 9.60603C33.0789 9.56994 33.0156 9.54067 33.0156 9.54067H28.0936C27.352 7.92076 26.0133 6.70675 24.5609 6.45265C24.5051 5.34259 24.247 0.252494 24.1904 0.194268C24.127 0.12891 24.0635 0.128907 24.0635 0.128907V6.40406C24.0423 6.40363 24.0212 6.40342 24 6.40342ZM12.6349 16.3381C13.0207 16.3381 13.3333 16.0162 13.3333 15.6191C13.3333 15.222 13.0207 14.9001 12.6349 14.9001C12.2492 14.9001 11.9365 15.222 11.9365 15.6191C11.9365 16.0162 12.2492 16.3381 12.6349 16.3381ZM16.8889 17.776V16.6649C16.8889 16.6649 16.8889 16.4034 17.2063 16.4034C17.5238 16.4034 17.5238 16.6649 17.5238 16.6649V17.776C17.5238 17.776 17.5238 18.1028 17.2063 18.1028C16.8889 18.1028 16.8889 17.776 16.8889 17.776ZM22.9841 19.606V18.4949C22.9841 18.4949 22.9841 18.2335 23.3016 18.2335C23.619 18.2335 23.619 18.4949 23.619 18.4949V19.606C23.619 19.606 23.619 19.9328 23.3016 19.9328C22.9841 19.9328 22.9841 19.606 22.9841 19.606ZM21.6508 10.1943C21.6508 10.1943 22.2297 10.3526 22.6031 10.3903C23.0233 10.4328 23.6825 10.4557 23.6825 10.4557L23.746 11.6975C23.746 11.6975 23.0476 11.8283 22.3492 11.6322C21.516 11.3983 21.1428 11.1093 21.1428 11.1093L21.6508 10.1943ZM35.4285 16.3381C35.0428 16.3381 34.7301 16.0162 34.7301 15.6191C34.7301 15.222 35.0428 14.9001 35.4285 14.9001C35.8143 14.9001 36.1269 15.222 36.1269 15.6191C36.1269 16.0162 35.8143 16.3381 35.4285 16.3381ZM31.1746 17.776V16.6649C31.1746 16.6649 31.1746 16.4034 30.8571 16.4034C30.5396 16.4034 30.5396 16.6649 30.5396 16.6649V17.776C30.5396 17.776 30.5396 18.1028 30.8571 18.1028C31.1746 18.1028 31.1746 17.776 31.1746 17.776ZM25.0793 19.606V18.4949C25.0793 18.4949 25.0793 18.2335 24.7619 18.2335C24.4444 18.2335 24.4444 18.4949 24.4444 18.4949V19.606C24.4444 19.606 24.4444 19.9328 24.7619 19.9328C25.0793 19.9328 25.0793 19.606 25.0793 19.606ZM26.4127 10.1943C26.4127 10.1943 25.8337 10.3526 25.4603 10.3903C25.0401 10.4328 24.3809 10.4557 24.3809 10.4557L24.3174 11.6975C24.3174 11.6975 25.0158 11.8283 25.7143 11.6322C26.5474 11.3983 26.9206 11.1093 26.9206 11.1093L26.4127 10.1943Z" fill="white"/>
<path d="M24 0.131768H24.0635V0.0664062L24 0.0664085V0.131768ZM24 6.40628H23.9365V6.47164H24V6.40628ZM23.873 0.197128L23.828 0.150911L23.873 0.197128ZM23.5032 6.44508L23.5126 6.5097L23.5639 6.50172L23.5666 6.44845L23.5032 6.44508ZM19.955 9.54353V9.60889H19.9957L20.0127 9.57088L19.955 9.54353ZM15.0479 9.54353V9.47817H15.0343L15.0218 9.4839L15.0479 9.54353ZM14.9844 9.60889L14.9209 9.60863L14.9844 9.60889ZM15.0479 9.73961L15.003 9.78591L15.0193 9.80259L15.0421 9.80471L15.0479 9.73961ZM19.7111 10.1704L19.7712 10.1916L19.7974 10.1128L19.7168 10.1053L19.7111 10.1704ZM19.3654 12.354V12.4194H19.4296L19.4289 12.3533L19.3654 12.354ZM0.317445 12.354V12.2886H0.307141L0.297367 12.292L0.317445 12.354ZM0.317445 12.9422L0.282226 12.9966L0.295158 13.0055L0.310609 13.0072L0.317445 12.9422ZM12.0397 14.2489L12.0656 14.3085L12.2799 14.2099L12.0465 14.1839L12.0397 14.2489ZM13.5013 14.4118L13.5082 14.3468L13.2747 14.3208L13.4636 14.4643L13.5013 14.4118ZM17.9084 14.903V14.9684L17.9153 14.838L17.9084 14.903ZM17.8413 14.903V14.8377H17.7778V14.903H17.8413ZM17.5873 17.1906L17.5588 17.1322L17.5238 17.1502V17.1906H17.5873ZM17.5873 17.256H17.5238V17.3213H17.5873V17.256ZM17.9682 17.256V17.3213H18.0317V17.256H17.9682ZM17.9682 14.9097L17.9751 14.8447L17.9047 14.8369V14.9097H17.9682ZM18.0317 14.9167H18.0952V14.858L18.0386 14.8518L18.0317 14.9167ZM18.0317 17.256H17.9682V17.3213H18.0317V17.256ZM18.4127 17.256H18.4762V17.1906H18.4127V17.256ZM18.7301 18.0403V17.9749V18.0403ZM18.4127 17.1906L18.3842 17.249L18.4762 17.2963V17.1906H18.4127ZM18.2222 16.9945L18.1654 17.0238L18.2222 16.9945ZM18.1587 14.9309L18.1656 14.8659L18.0951 14.858L18.0952 14.931L18.1587 14.9309ZM20.0757 15.1446L20.1309 15.1124L20.1149 15.0833L20.0825 15.0796L20.0757 15.1446ZM23.9298 17.6475L23.9933 17.6484L23.9941 17.5833L23.9309 17.5821L23.9298 17.6475ZM23.6825 19.0207L23.6541 18.9622L23.619 18.9803V19.0207H23.6825ZM23.6825 19.086H23.619V19.1514H23.6825V19.086ZM24.3809 19.086V19.1514H24.4444V19.086H24.3809ZM24.3809 19.0207H24.4444V18.9803L24.4094 18.9622L24.3809 19.0207ZM24.1337 17.6458L24.1315 17.5805L24.0693 17.5826L24.0702 17.6468L24.1337 17.6458ZM27.9691 15.1467L27.9623 15.0817L27.9303 15.0852L27.9141 15.1139L27.9691 15.1467ZM29.9047 14.9309L29.9682 14.931L29.9684 14.858L29.8979 14.8659L29.9047 14.9309ZM29.6508 17.1906H29.5873V17.2963L29.6792 17.249L29.6508 17.1906ZM29.3333 18.0403V17.9749V18.0403ZM29.6508 17.256V17.1906H29.5873V17.256H29.6508ZM30.0317 17.256V17.3213H30.0952V17.256H30.0317ZM30.0317 14.9167L30.0249 14.8518L29.9682 14.858V14.9167H30.0317ZM30.0952 14.9097H30.1587V14.8369L30.0884 14.8447L30.0952 14.9097ZM30.0952 17.256H30.0317V17.3213H30.0952V17.256ZM30.4762 17.256V17.3213H30.5397V17.256H30.4762ZM30.4762 17.1906H30.5397V17.1502L30.5046 17.1322L30.4762 17.1906ZM30.2222 14.903H30.2857V14.8377H30.2222V14.903ZM30.155 14.903L30.1482 14.838L30.155 14.9684V14.903ZM34.5621 14.4118L34.5999 14.4643L34.7888 14.3208L34.5553 14.3468L34.5621 14.4118ZM36.0239 14.2489L36.017 14.1839L35.7835 14.2099L35.998 14.3085L36.0239 14.2489ZM47.746 12.9422L47.7529 13.0072L47.7684 13.0055L47.7812 12.9966L47.746 12.9422ZM47.746 12.354L47.7661 12.292L47.7563 12.2886H47.746V12.354ZM28.698 12.354L28.6345 12.3533L28.6339 12.4194H28.698V12.354ZM28.3436 10.1712L28.3379 10.1061L28.2566 10.1136L28.2837 10.1929L28.3436 10.1712ZM33.0156 9.73961L33.0213 9.80471L33.0442 9.80259L33.0604 9.78591L33.0156 9.73961ZM33.0791 9.60889L33.1426 9.60865V9.60863L33.0791 9.60889ZM33.0156 9.54353L33.0416 9.4839L33.0292 9.47817H33.0156V9.54353ZM28.0936 9.54353L28.0362 9.5714L28.0533 9.60889H28.0936V9.54353ZM24.5609 6.45551L24.4974 6.45888L24.5 6.51118L24.5502 6.51995L24.5609 6.45551ZM24.1905 0.19713L24.1455 0.243345V0.243347L24.1905 0.19713ZM24.0635 0.131769V0.0664095L24 0.0664072V0.131769H24.0635ZM24.0635 6.40692L24.0622 6.47227L24.127 6.47356V6.40692H24.0635ZM17.2063 18.1056V18.0403V18.1056ZM22.6032 10.3932L22.6094 10.3282L22.6032 10.3932ZM21.6508 10.1971L21.667 10.134L21.6199 10.121L21.5957 10.1647L21.6508 10.1971ZM23.6825 10.4586L23.7459 10.4551L23.7428 10.3953L23.6847 10.3932L23.6825 10.4586ZM23.746 11.7004L23.7573 11.7647L23.8123 11.7544L23.8094 11.697L23.746 11.7004ZM22.3492 11.635L22.3324 11.6981L22.3492 11.635ZM21.1428 11.1122L21.0877 11.0797L21.0599 11.1298L21.1046 11.1644L21.1428 11.1122ZM30.8571 18.1056V18.0403V18.1056ZM25.4603 10.3932L25.4541 10.3282L25.4603 10.3932ZM26.4127 10.1971L26.4678 10.1647L26.4435 10.121L26.3964 10.134L26.4127 10.1971ZM24.3809 10.4586L24.3788 10.3932L24.3206 10.3953L24.3176 10.4551L24.3809 10.4586ZM24.3174 11.7004L24.2541 11.697L24.2512 11.7544L24.3061 11.7647L24.3174 11.7004ZM25.7143 11.635L25.731 11.6981L25.7143 11.635ZM26.9206 11.1122L26.9588 11.1644L27.0035 11.1298L26.9757 11.0797L26.9206 11.1122ZM23.9365 0.131768V6.40628H24.0635V0.131768H23.9365ZM23.918 0.243345C23.9418 0.21865 23.9648 0.207289 23.9804 0.201944C23.9883 0.199234 23.9944 0.198023 23.9981 0.197492C23.9999 0.197228 24.001 0.197135 24.0014 0.19711C24.0015 0.197098 24.0015 0.197102 24.0013 0.197109C24.0013 0.197113 24.001 0.197118 24.0009 0.197121C24.0007 0.197123 24.0006 0.197125 24.0005 0.197126C24.0004 0.197126 24.0002 0.197127 24.0002 0.197127H24.0001C24 0.197127 24 0.197127 24 0.131768C24 0.0664085 24 0.0664085 23.9999 0.0664086C23.9999 0.0664087 23.9997 0.0664089 23.9997 0.0664091C23.9996 0.0664094 23.9995 0.06641 23.9995 0.0664108C23.9992 0.0664124 23.999 0.066415 23.9988 0.0664188C23.9983 0.0664264 23.9978 0.0664389 23.9972 0.0664585C23.996 0.0664979 23.9945 0.066566 23.9929 0.0666812C23.9896 0.0669113 23.9853 0.0673304 23.98 0.0680873C23.9698 0.0695993 23.9562 0.0724736 23.9402 0.0779338C23.9082 0.0889299 23.8677 0.110249 23.828 0.150911L23.918 0.243345ZM23.5666 6.44845C23.5949 5.88292 23.6733 4.33559 23.7516 2.92242C23.7907 2.21581 23.83 1.54295 23.8627 1.04321C23.8792 0.793272 23.8941 0.587021 23.9065 0.441615C23.9127 0.368799 23.9183 0.311917 23.9232 0.272658C23.9256 0.252874 23.9277 0.238634 23.9295 0.229453C23.9299 0.227242 23.9303 0.225536 23.9305 0.22427C23.9308 0.222957 23.931 0.222419 23.9309 0.222462C23.9309 0.222504 23.9309 0.222841 23.9306 0.223408C23.9305 0.223949 23.9301 0.224962 23.9295 0.226297C23.929 0.227501 23.9257 0.235366 23.918 0.243345L23.828 0.150911C23.8194 0.159796 23.8152 0.169181 23.8138 0.172504C23.8118 0.177063 23.8104 0.18133 23.8095 0.184494C23.8076 0.190892 23.8061 0.197867 23.8048 0.204445C23.8023 0.21788 23.7997 0.23548 23.7972 0.256212C23.792 0.297986 23.7863 0.356845 23.78 0.430121C23.7675 0.576896 23.7525 0.784223 23.7361 1.03438C23.7031 1.53484 23.664 2.20825 23.6249 2.91498C23.5465 4.32851 23.4682 5.87612 23.4397 6.44172L23.5666 6.44845ZM20.0127 9.57088C20.7421 7.9413 22.0678 6.73497 23.5126 6.5097L23.4937 6.38046C21.9949 6.61414 20.639 7.85905 19.8974 9.51619L20.0127 9.57088ZM15.0479 9.60889H19.955V9.47817H15.0479V9.60889ZM15.0479 9.60915C15.0479 9.62008 15.0432 9.62534 15.0443 9.6238C15.0452 9.62255 15.0481 9.6196 15.0534 9.6156C15.0584 9.61186 15.0639 9.60858 15.0682 9.60616C15.0702 9.605 15.072 9.60412 15.073 9.6036C15.0735 9.60334 15.0739 9.60317 15.074 9.60309C15.0741 9.60305 15.0741 9.60304 15.0741 9.60305C15.074 9.60306 15.074 9.60308 15.074 9.60309C15.074 9.6031 15.074 9.60312 15.0739 9.60313V9.60314V9.60316C15.0739 9.60316 15.0739 9.60317 15.0479 9.54353C15.0218 9.4839 15.0218 9.48391 15.0218 9.48391V9.48393C15.0218 9.48394 15.0218 9.48395 15.0217 9.48395C15.0217 9.48398 15.0217 9.48399 15.0216 9.48402C15.0214 9.48407 15.0214 9.48412 15.0212 9.48419C15.0209 9.48432 15.0207 9.48446 15.0203 9.48466C15.0195 9.48502 15.0185 9.48552 15.0173 9.48612C15.0148 9.48734 15.0115 9.48904 15.0077 9.49118C15.0002 9.49538 14.9897 9.50167 14.9789 9.50976C14.9684 9.51759 14.9554 9.52871 14.9444 9.54312C14.9337 9.55721 14.921 9.57965 14.9209 9.60863L15.0479 9.60915ZM15.0479 9.73961C15.0927 9.69331 15.0927 9.69331 15.0927 9.69332C15.0927 9.69332 15.0927 9.69334 15.0927 9.69335C15.0927 9.69336 15.0927 9.69338 15.0927 9.69339C15.0928 9.6934 15.0928 9.69343 15.0928 9.69344C15.0928 9.69347 15.0928 9.69348 15.0928 9.69349C15.0928 9.69349 15.0928 9.69343 15.0927 9.69332C15.0924 9.69309 15.092 9.69264 15.0914 9.69199C15.0903 9.69068 15.0884 9.68857 15.0861 9.68577C15.0813 9.6801 15.075 9.672 15.0688 9.66246C15.055 9.64121 15.0479 9.622 15.0479 9.60915L14.9209 9.60863C14.9206 9.66114 14.9453 9.7073 14.9632 9.73506C14.9729 9.75003 14.9826 9.76236 14.9897 9.771C14.9934 9.77534 14.9964 9.77884 14.9987 9.78136C15 9.78262 15.0009 9.78364 15.0016 9.78441C15.002 9.78479 15.0023 9.7851 15.0025 9.78535C15.0027 9.78548 15.0028 9.7856 15.0028 9.78569C15.0029 9.78573 15.0029 9.78578 15.0029 9.78582C15.0029 9.78583 15.003 9.78585 15.003 9.78587C15.003 9.78587 15.003 9.78589 15.003 9.7859C15.003 9.78591 15.003 9.78591 15.0479 9.73961ZM19.7168 10.1053L15.0536 9.67451L15.0421 9.80471L19.7055 10.2355L19.7168 10.1053ZM19.4286 12.2886C19.4286 11.561 19.5516 10.8512 19.7712 10.1916L19.651 10.1492C19.4272 10.8218 19.3016 11.5458 19.3016 12.2886H19.4286ZM19.4289 12.3533C19.4287 12.3318 19.4286 12.3102 19.4286 12.2886H19.3016C19.3016 12.3107 19.3017 12.3327 19.302 12.3547L19.4289 12.3533ZM0.317445 12.4194H19.3654V12.2886H0.317445V12.4194ZM0.190461 12.6154C0.190461 12.5423 0.225021 12.4938 0.262853 12.4614C0.282005 12.445 0.301414 12.4333 0.316077 12.4257C0.323338 12.422 0.329235 12.4194 0.333082 12.4178C0.334999 12.417 0.33639 12.4164 0.337163 12.4161C0.337549 12.416 0.33778 12.4159 0.337845 12.4159C0.337877 12.4159 0.337866 12.4159 0.337813 12.4159C0.337786 12.4159 0.33775 12.4159 0.337701 12.4159C0.337677 12.4159 0.337651 12.416 0.33762 12.416C0.337605 12.416 0.337581 12.416 0.337573 12.416C0.337549 12.416 0.337522 12.416 0.317445 12.354C0.297367 12.292 0.297339 12.292 0.297311 12.292C0.297301 12.292 0.297272 12.292 0.297252 12.292C0.297211 12.292 0.297167 12.2921 0.29712 12.2921C0.297024 12.2921 0.296918 12.2921 0.2968 12.2922C0.296564 12.2923 0.29628 12.2924 0.295953 12.2925C0.295296 12.2927 0.294457 12.293 0.293449 12.2934C0.291432 12.2942 0.28873 12.2952 0.285438 12.2966C0.278868 12.2993 0.269885 12.3034 0.259289 12.3088C0.238237 12.3196 0.210028 12.3366 0.18156 12.361C0.124154 12.4102 0.0634766 12.4925 0.0634766 12.6154H0.190461ZM0.317445 12.9422C0.352664 12.8878 0.352682 12.8879 0.352697 12.8879C0.352702 12.8879 0.352717 12.8879 0.352727 12.8879C0.352745 12.8879 0.35276 12.8879 0.352773 12.8879C0.352797 12.8879 0.352811 12.888 0.352815 12.888C0.35282 12.888 0.352782 12.8879 0.352701 12.8879C0.352539 12.8878 0.352207 12.8875 0.351717 12.8872C0.350734 12.8865 0.34912 12.8853 0.346965 12.8836C0.342649 12.8804 0.3362 12.8753 0.32833 12.8685C0.312504 12.8549 0.291395 12.835 0.270414 12.8098C0.227591 12.7584 0.190461 12.6914 0.190461 12.6154H0.0634766C0.0634766 12.7356 0.121584 12.8319 0.174 12.8949C0.200637 12.9269 0.227148 12.9519 0.247036 12.9689C0.257023 12.9775 0.265455 12.9842 0.271555 12.9888C0.274609 12.9911 0.277087 12.993 0.278895 12.9943C0.279799 12.9949 0.280537 12.9954 0.281096 12.9958C0.281375 12.996 0.28161 12.9962 0.281799 12.9963C0.281893 12.9964 0.281977 12.9964 0.282048 12.9965C0.282084 12.9965 0.282115 12.9965 0.282146 12.9966C0.28216 12.9966 0.28218 12.9966 0.282188 12.9966C0.282207 12.9966 0.282226 12.9966 0.317445 12.9422ZM12.0465 14.1839L0.32428 12.8772L0.310609 13.0072L12.0328 14.3139L12.0465 14.1839ZM11.2381 15.622C11.2381 15.0367 11.5778 14.5329 12.0656 14.3085L12.0137 14.1892C11.4819 14.4339 11.1111 14.9833 11.1111 15.622H11.2381ZM12.6349 17.0599C11.8635 17.0599 11.2381 16.4161 11.2381 15.622H11.1111C11.1111 16.4882 11.7933 17.1906 12.6349 17.1906V17.0599ZM14.0317 15.622C14.0317 16.4161 13.4063 17.0599 12.6349 17.0599V17.1906C13.4764 17.1906 14.1587 16.4882 14.1587 15.622H14.0317ZM13.4636 14.4643C13.8084 14.7263 14.0317 15.1473 14.0317 15.622H14.1587C14.1587 15.1041 13.9148 14.6447 13.539 14.3592L13.4636 14.4643ZM17.9153 14.838L13.5082 14.3468L13.4945 14.4767L17.9017 14.968L17.9153 14.838ZM17.8413 14.9684H17.9084V14.8377H17.8413V14.9684ZM17.8345 17.0238C17.8433 17.0058 17.8481 16.9813 17.8515 16.9603C17.8553 16.9365 17.8588 16.9071 17.862 16.8732C17.8682 16.8056 17.8734 16.717 17.878 16.6156C17.8868 16.4124 17.8928 16.1543 17.8967 15.9008C17.9008 15.6472 17.9027 15.3978 17.9037 15.2118C17.9042 15.1188 17.9045 15.0416 17.9046 14.9877C17.9047 14.9607 17.9047 14.9396 17.9047 14.9251C17.9047 14.9179 17.9047 14.9124 17.9047 14.9086C17.9047 14.9068 17.9047 14.9054 17.9047 14.9044C17.9047 14.9039 17.9047 14.9037 17.9047 14.9034C17.9047 14.9033 17.9047 14.9031 17.9047 14.9031C17.9047 14.903 17.9047 14.903 17.9047 14.903C17.9047 14.903 17.9047 14.903 17.8413 14.903C17.7778 14.903 17.7778 14.903 17.7778 14.903C17.7778 14.903 17.7778 14.903 17.7778 14.9031C17.7778 14.9031 17.7778 14.9033 17.7778 14.9034C17.7778 14.9035 17.7778 14.9039 17.7778 14.9044C17.7778 14.9054 17.7778 14.9068 17.7778 14.9086C17.7778 14.9123 17.7778 14.9178 17.7778 14.925C17.7778 14.9394 17.7778 14.9604 17.7776 14.9873C17.7775 15.0412 17.7773 15.1182 17.7767 15.2111C17.7757 15.3967 17.7738 15.6458 17.7699 15.8987C17.7658 16.1518 17.76 16.4084 17.7511 16.6095C17.7466 16.7103 17.7414 16.7963 17.7355 16.8609C17.7326 16.8933 17.7295 16.9194 17.7263 16.9387C17.7228 16.9608 17.7201 16.9669 17.721 16.9652L17.8345 17.0238ZM17.5873 17.1906C17.6157 17.249 17.6157 17.249 17.6157 17.249H17.6159C17.6159 17.2489 17.616 17.2489 17.616 17.2489C17.6162 17.2488 17.6164 17.2486 17.6166 17.2486C17.617 17.2484 17.6175 17.2481 17.6183 17.2477C17.6195 17.2469 17.6213 17.246 17.6235 17.2447C17.6279 17.2422 17.634 17.2387 17.6414 17.234C17.6561 17.2247 17.6762 17.2109 17.6984 17.1926C17.7423 17.1563 17.7973 17.1004 17.8345 17.0238L17.721 16.9652C17.6947 17.0194 17.6545 17.0614 17.619 17.0906C17.6016 17.105 17.5859 17.1157 17.5748 17.1226C17.5694 17.1261 17.5649 17.1288 17.5621 17.1303C17.5607 17.1311 17.5599 17.1316 17.5592 17.1319C17.559 17.1322 17.5587 17.1322 17.5587 17.1322C17.5587 17.1323 17.5587 17.1323 17.5587 17.1322C17.5587 17.1322 17.5587 17.1322 17.5588 17.1322C17.5588 17.1322 17.5588 17.1322 17.5873 17.1906ZM17.6508 17.256V17.1906H17.5238V17.256H17.6508ZM17.9682 17.1906H17.5873V17.3213H17.9682V17.1906ZM17.9047 14.9097V17.256H18.0317V14.9097H17.9047ZM18.0386 14.8518L17.9751 14.8447L17.9614 14.9746L18.0249 14.9817L18.0386 14.8518ZM18.0952 17.256V14.9167H17.9682V17.256H18.0952ZM18.4127 17.1906H18.0317V17.3213H18.4127V17.1906ZM18.4762 17.7135V17.256H18.3492V17.7135H18.4762ZM18.7301 17.9749C18.6618 17.9749 18.615 17.9575 18.5818 17.9348C18.5483 17.9119 18.5252 17.8808 18.5092 17.8476C18.4929 17.8143 18.4846 17.7801 18.4802 17.7537C18.4782 17.7408 18.4772 17.7301 18.4767 17.7229C18.4764 17.7192 18.4763 17.7166 18.4762 17.7149C18.4762 17.7141 18.4762 17.7136 18.4762 17.7133C18.4762 17.7132 18.4762 17.7132 18.4762 17.7132C18.4762 17.7133 18.4762 17.7133 18.4762 17.7133C18.4762 17.7133 18.4762 17.7133 18.4762 17.7135C18.4762 17.7135 18.4762 17.7135 18.4127 17.7135C18.3492 17.7135 18.3492 17.7135 18.3492 17.7136V17.7137C18.3492 17.7139 18.3492 17.714 18.3492 17.7143C18.3492 17.7145 18.3492 17.7149 18.3492 17.7154C18.3492 17.7165 18.3492 17.7178 18.3493 17.7194C18.3494 17.7225 18.3496 17.7268 18.35 17.7322C18.3507 17.7429 18.3521 17.7577 18.355 17.7753C18.3606 17.8102 18.372 17.8578 18.3955 17.9061C18.4192 17.9546 18.4556 18.0052 18.5113 18.0435C18.5676 18.0821 18.6397 18.1056 18.7301 18.1056V17.9749ZM19.0476 17.7135C18.9841 17.7135 18.9841 17.7135 18.9841 17.7135C18.9841 17.7133 18.9841 17.7133 18.9841 17.7133C18.9841 17.7133 18.9841 17.7133 18.9841 17.7132C18.9841 17.7132 18.9841 17.7132 18.9841 17.7133C18.9841 17.7136 18.9841 17.7141 18.9841 17.7149C18.984 17.7166 18.9839 17.7192 18.9836 17.7229C18.9831 17.7301 18.9821 17.7408 18.98 17.7537C18.9757 17.7801 18.9674 17.8143 18.9511 17.8476C18.9351 17.8808 18.912 17.9119 18.8785 17.9348C18.8453 17.9575 18.7985 17.9749 18.7301 17.9749V18.1056C18.8206 18.1056 18.8927 18.0821 18.9489 18.0435C19.0047 18.0052 19.0411 17.9546 19.0647 17.9061C19.0882 17.8578 19.0997 17.8102 19.1053 17.7753C19.1082 17.7577 19.1096 17.7429 19.1103 17.7322C19.1107 17.7268 19.1108 17.7225 19.111 17.7194C19.1111 17.7178 19.1111 17.7165 19.1111 17.7154C19.1111 17.7149 19.1111 17.7145 19.1111 17.7143C19.1111 17.714 19.1111 17.7139 19.1111 17.7137V17.7136C19.1111 17.7135 19.1111 17.7135 19.0476 17.7135ZM18.9841 16.6024V17.7135H19.1111V16.6024H18.9841ZM18.7301 16.4063C18.8686 16.4063 18.9268 16.4613 18.9541 16.5063C18.969 16.5307 18.9766 16.5557 18.9804 16.5748C18.9823 16.5843 18.9833 16.5919 18.9837 16.597C18.984 16.5994 18.9841 16.6012 18.9841 16.6021C18.9841 16.6026 18.9841 16.6029 18.9841 16.6029C18.9841 16.603 18.9841 16.6029 18.9841 16.6029C18.9841 16.6027 18.9841 16.6028 18.9841 16.6026V16.6025C18.9841 16.6024 18.9841 16.6024 19.0476 16.6024C19.1111 16.6024 19.1111 16.6024 19.1111 16.6022C19.1111 16.6021 19.1111 16.6021 19.1111 16.602C19.1111 16.6018 19.1111 16.6017 19.1111 16.6016C19.1111 16.6012 19.1111 16.6008 19.1111 16.6003C19.1111 16.5994 19.111 16.5982 19.111 16.5967C19.1108 16.5939 19.1106 16.5899 19.1102 16.5854C19.1094 16.576 19.1078 16.5633 19.1047 16.5482C19.0988 16.5183 19.0866 16.4779 19.0617 16.437C19.0096 16.3512 18.9092 16.2756 18.7301 16.2756V16.4063ZM18.4127 16.6024C18.4762 16.6024 18.4762 16.6024 18.4762 16.6025V16.6026C18.4762 16.6028 18.4762 16.6027 18.4762 16.6029C18.4762 16.6029 18.4762 16.603 18.4762 16.6029C18.4762 16.6029 18.4762 16.6026 18.4762 16.6021C18.4762 16.6012 18.4763 16.5994 18.4766 16.597C18.4769 16.5919 18.478 16.5843 18.4799 16.5748C18.4837 16.5557 18.4913 16.5307 18.5061 16.5063C18.5334 16.4613 18.5917 16.4063 18.7301 16.4063V16.2756C18.5511 16.2756 18.4507 16.3512 18.3986 16.437C18.3737 16.4779 18.3615 16.5183 18.3555 16.5482C18.3525 16.5633 18.3508 16.576 18.3501 16.5854C18.3497 16.5899 18.3494 16.5939 18.3493 16.5967C18.3493 16.5982 18.3492 16.5994 18.3492 16.6003C18.3492 16.6008 18.3492 16.6012 18.3492 16.6016C18.3492 16.6017 18.3492 16.6018 18.3492 16.602C18.3492 16.6021 18.3492 16.6021 18.3492 16.6022C18.3492 16.6024 18.3492 16.6024 18.4127 16.6024ZM18.4762 17.1906V16.6024H18.3492V17.1906H18.4762ZM18.1654 17.0238C18.2027 17.1004 18.2576 17.1563 18.3016 17.1926C18.3238 17.2109 18.3439 17.2247 18.3586 17.234C18.366 17.2387 18.372 17.2422 18.3765 17.2447C18.3786 17.246 18.3804 17.2469 18.3817 17.2477C18.3825 17.2481 18.383 17.2484 18.3833 17.2486C18.3836 17.2486 18.3837 17.2488 18.384 17.2489C18.384 17.2489 18.3841 17.2489 18.3841 17.249H18.3842C18.3842 17.249 18.3842 17.249 18.4127 17.1906C18.4411 17.1322 18.4411 17.1322 18.4411 17.1322C18.4413 17.1322 18.4413 17.1322 18.4413 17.1322C18.4413 17.1323 18.4413 17.1323 18.4413 17.1322C18.4413 17.1322 18.441 17.1322 18.4407 17.1319C18.4401 17.1316 18.4392 17.1311 18.4378 17.1303C18.435 17.1288 18.4306 17.1261 18.4251 17.1226C18.4141 17.1157 18.3983 17.105 18.3809 17.0906C18.3455 17.0614 18.3053 17.0194 18.279 16.9652L18.1654 17.0238ZM18.0952 14.931C18.0953 15.0509 18.0965 15.5367 18.105 16.0081C18.1092 16.2438 18.1153 16.4762 18.124 16.6578C18.1284 16.7484 18.1334 16.8271 18.1394 16.8873C18.1423 16.9174 18.1456 16.9438 18.1492 16.9652C18.1525 16.9843 18.1572 17.0067 18.1654 17.0238L18.279 16.9652C18.2799 16.9672 18.2776 16.962 18.2743 16.9426C18.2713 16.9256 18.2686 16.9028 18.2658 16.8743C18.2602 16.8171 18.2552 16.7411 18.2509 16.6512C18.2421 16.4718 18.2362 16.2409 18.232 16.0058C18.2235 15.5356 18.2223 15.0505 18.2222 14.9309L18.0952 14.931ZM20.0825 15.0796L18.1656 14.8659L18.1519 14.9958L20.0688 15.2095L20.0825 15.0796ZM23.9309 17.5821C22.3986 17.5545 20.9535 16.6095 20.1309 15.1124L20.0204 15.1767C20.8625 16.7094 22.3463 17.6843 23.9286 17.7128L23.9309 17.5821ZM23.9298 18.8539C23.9389 18.835 23.9439 18.809 23.9474 18.7863C23.9515 18.7608 23.9549 18.7288 23.9582 18.692C23.9646 18.6184 23.97 18.522 23.9746 18.412C23.9837 18.1918 23.9896 17.914 23.9933 17.6484L23.8663 17.6465C23.8626 17.9116 23.8567 18.188 23.8477 18.4064C23.8432 18.5157 23.8378 18.6098 23.8317 18.6804C23.8286 18.7157 23.8254 18.7443 23.8221 18.7656C23.8183 18.7898 23.8155 18.7969 23.8162 18.7953L23.9298 18.8539ZM23.6825 19.0207C23.711 19.0791 23.711 19.0791 23.711 19.0791H23.7111C23.7111 19.079 23.7112 19.079 23.7112 19.079C23.7115 19.0788 23.7116 19.0787 23.7119 19.0787C23.7122 19.0784 23.7127 19.0782 23.7135 19.0778C23.7148 19.077 23.7166 19.0761 23.7187 19.0748C23.7232 19.0723 23.7293 19.0688 23.7366 19.0641C23.7513 19.0548 23.7714 19.0409 23.7936 19.0226C23.8376 18.9864 23.8926 18.9305 23.9298 18.8539L23.8162 18.7953C23.79 18.8494 23.7497 18.8915 23.7143 18.9207C23.6969 18.935 23.6811 18.9458 23.6701 18.9527C23.6646 18.9562 23.6602 18.9588 23.6574 18.9604C23.656 18.9612 23.6551 18.9617 23.6545 18.962C23.6542 18.9622 23.6539 18.9622 23.6539 18.9622C23.6539 18.9624 23.6539 18.9624 23.6539 18.9622C23.6539 18.9622 23.654 18.9622 23.6541 18.9622C23.6541 18.9622 23.6541 18.9622 23.6825 19.0207ZM23.746 19.086V19.0207H23.619V19.086H23.746ZM24 19.0207H23.6825V19.1514H24V19.0207ZM24.0635 19.0207H24V19.1514H24.0635V19.0207ZM24.3809 19.0207H24.0635V19.1514H24.3809V19.0207ZM24.3174 19.0207V19.086H24.4444V19.0207H24.3174ZM24.1337 18.8539C24.1709 18.9305 24.2259 18.9864 24.2698 19.0226C24.292 19.0409 24.3121 19.0548 24.3268 19.0641C24.3342 19.0688 24.3403 19.0723 24.3447 19.0748C24.3469 19.0761 24.3487 19.077 24.35 19.0778C24.3507 19.0782 24.3512 19.0784 24.3516 19.0787C24.3519 19.0787 24.352 19.0788 24.3522 19.079C24.3522 19.079 24.3524 19.079 24.3524 19.0791H24.3525C24.3525 19.0791 24.3525 19.0791 24.3809 19.0207C24.4094 18.9622 24.4094 18.9622 24.4094 18.9622C24.4095 18.9622 24.4095 18.9622 24.4095 18.9622C24.4095 18.9624 24.4095 18.9624 24.4095 18.9622C24.4095 18.9622 24.4093 18.9622 24.409 18.962C24.4084 18.9617 24.4075 18.9612 24.4061 18.9604C24.4033 18.9588 24.3988 18.9562 24.3934 18.9527C24.3823 18.9458 24.3666 18.935 24.3492 18.9207C24.3138 18.8915 24.2735 18.8494 24.2472 18.7953L24.1337 18.8539ZM24.0702 17.6468C24.0739 17.9126 24.0797 18.1907 24.0889 18.4112C24.0934 18.5214 24.0988 18.618 24.1053 18.6919C24.1084 18.7286 24.112 18.7607 24.116 18.7863C24.1196 18.8089 24.1246 18.835 24.1337 18.8539L24.2472 18.7953C24.248 18.7969 24.2452 18.7898 24.2414 18.7656C24.2381 18.7442 24.2348 18.7156 24.2317 18.6801C24.2255 18.6094 24.2203 18.5152 24.2157 18.4058C24.2067 18.1869 24.2009 17.9103 24.1972 17.6448L24.0702 17.6468ZM27.9141 15.1139C27.0844 16.5897 25.6416 17.5288 24.1315 17.5805L24.1357 17.7111C25.6943 17.6578 27.1748 16.6899 28.0241 15.1794L27.9141 15.1139ZM29.8979 14.8659L27.9623 15.0817L27.976 15.2116L29.9116 14.9958L29.8979 14.8659ZM29.898 17.0238C29.9063 17.0067 29.911 16.9843 29.9143 16.9652C29.9178 16.9438 29.9211 16.9174 29.924 16.8873C29.93 16.8271 29.9351 16.7484 29.9394 16.6578C29.9482 16.4762 29.9543 16.2438 29.9585 16.0081C29.967 15.5367 29.9681 15.0509 29.9682 14.931L29.8413 14.9309C29.8411 15.0505 29.84 15.5356 29.8315 16.0058C29.8273 16.2409 29.8213 16.4718 29.8126 16.6512C29.8082 16.7411 29.8033 16.8171 29.7977 16.8743C29.7949 16.9028 29.7921 16.9256 29.7892 16.9426C29.7859 16.962 29.7836 16.9672 29.7845 16.9652L29.898 17.0238ZM29.6508 17.1906C29.6792 17.249 29.6792 17.249 29.6792 17.249H29.6793C29.6793 17.2489 29.6795 17.2489 29.6795 17.2489C29.6797 17.2488 29.6799 17.2486 29.6801 17.2486C29.6805 17.2484 29.681 17.2481 29.6818 17.2477C29.683 17.2469 29.6848 17.246 29.687 17.2447C29.6914 17.2422 29.6975 17.2387 29.7049 17.234C29.7196 17.2247 29.7397 17.2109 29.7619 17.1926C29.8058 17.1563 29.8608 17.1004 29.898 17.0238L29.7845 16.9652C29.7582 17.0194 29.718 17.0614 29.6825 17.0906C29.6651 17.105 29.6494 17.1157 29.6383 17.1226C29.6329 17.1261 29.6284 17.1288 29.6256 17.1303C29.6242 17.1311 29.6233 17.1316 29.6227 17.1319C29.6225 17.1322 29.6222 17.1322 29.6222 17.1322C29.6222 17.1323 29.6222 17.1323 29.6222 17.1322C29.6222 17.1322 29.6222 17.1322 29.6223 17.1322C29.6223 17.1322 29.6223 17.1322 29.6508 17.1906ZM29.5873 16.6024V17.1906H29.7143V16.6024H29.5873ZM29.3333 16.4063C29.4717 16.4063 29.53 16.4613 29.5573 16.5063C29.5722 16.5307 29.5798 16.5557 29.5836 16.5748C29.5855 16.5843 29.5865 16.5919 29.5869 16.597C29.5872 16.5994 29.5873 16.6012 29.5873 16.6021C29.5873 16.6026 29.5873 16.6029 29.5873 16.6029C29.5873 16.603 29.5873 16.6029 29.5873 16.6029C29.5873 16.6027 29.5873 16.6028 29.5873 16.6026V16.6025C29.5873 16.6024 29.5873 16.6024 29.6508 16.6024C29.7143 16.6024 29.7143 16.6024 29.7143 16.6022C29.7143 16.6021 29.7143 16.6021 29.7143 16.602C29.7143 16.6018 29.7143 16.6017 29.7143 16.6016C29.7143 16.6012 29.7143 16.6008 29.7143 16.6003C29.7143 16.5994 29.7141 16.5982 29.7141 16.5967C29.714 16.5939 29.7138 16.5899 29.7134 16.5854C29.7126 16.576 29.711 16.5633 29.7079 16.5482C29.702 16.5183 29.6898 16.4779 29.6649 16.437C29.6128 16.3512 29.5124 16.2756 29.3333 16.2756V16.4063ZM29.0159 16.6024C29.0793 16.6024 29.0793 16.6024 29.0793 16.6025V16.6026C29.0793 16.6028 29.0793 16.6027 29.0793 16.6029C29.0793 16.6029 29.0793 16.603 29.0793 16.6029C29.0793 16.6029 29.0793 16.6026 29.0793 16.6021C29.0793 16.6012 29.0795 16.5994 29.0797 16.597C29.0801 16.5919 29.0811 16.5843 29.083 16.5748C29.0868 16.5557 29.0945 16.5307 29.1093 16.5063C29.1366 16.4613 29.1949 16.4063 29.3333 16.4063V16.2756C29.1543 16.2756 29.0538 16.3512 29.0018 16.437C28.9769 16.4779 28.9647 16.5183 28.9587 16.5482C28.9557 16.5633 28.954 16.576 28.9533 16.5854C28.9529 16.5899 28.9526 16.5939 28.9525 16.5967C28.9525 16.5982 28.9524 16.5994 28.9524 16.6003C28.9524 16.6008 28.9524 16.6012 28.9524 16.6016C28.9524 16.6017 28.9524 16.6018 28.9524 16.602C28.9524 16.6021 28.9524 16.6021 28.9524 16.6022C28.9524 16.6024 28.9524 16.6024 29.0159 16.6024ZM29.0793 17.7135V16.6024H28.9524V17.7135H29.0793ZM29.3333 17.9749C29.265 17.9749 29.2181 17.9575 29.185 17.9348C29.1515 17.9119 29.1284 17.8808 29.1124 17.8476C29.0961 17.8143 29.0877 17.7801 29.0834 17.7537C29.0814 17.7408 29.0804 17.7301 29.0799 17.7229C29.0796 17.7192 29.0795 17.7166 29.0793 17.7149C29.0793 17.7141 29.0793 17.7136 29.0793 17.7133C29.0793 17.7132 29.0793 17.7132 29.0793 17.7132C29.0793 17.7133 29.0793 17.7133 29.0793 17.7133C29.0793 17.7133 29.0793 17.7133 29.0793 17.7135C29.0793 17.7135 29.0793 17.7135 29.0159 17.7135C28.9524 17.7135 28.9524 17.7135 28.9524 17.7136V17.7137C28.9524 17.7139 28.9524 17.714 28.9524 17.7143C28.9524 17.7145 28.9524 17.7149 28.9524 17.7154C28.9524 17.7165 28.9524 17.7178 28.9525 17.7194C28.9526 17.7225 28.9527 17.7268 28.9531 17.7322C28.9539 17.7429 28.9553 17.7577 28.9582 17.7753C28.9638 17.8102 28.9752 17.8578 28.9987 17.9061C29.0223 17.9546 29.0588 18.0052 29.1145 18.0435C29.1708 18.0821 29.2429 18.1056 29.3333 18.1056V17.9749ZM29.6508 17.7135C29.5873 17.7135 29.5873 17.7135 29.5873 17.7135C29.5873 17.7133 29.5873 17.7133 29.5873 17.7133C29.5873 17.7133 29.5873 17.7133 29.5873 17.7132C29.5873 17.7132 29.5873 17.7132 29.5873 17.7133C29.5873 17.7136 29.5873 17.7141 29.5873 17.7149C29.5872 17.7166 29.587 17.7192 29.5868 17.7229C29.5863 17.7301 29.5853 17.7408 29.5832 17.7537C29.5789 17.7801 29.5705 17.8143 29.5543 17.8476C29.5383 17.8808 29.5152 17.9119 29.4816 17.9348C29.4485 17.9575 29.4016 17.9749 29.3333 17.9749V18.1056C29.4237 18.1056 29.4959 18.0821 29.5521 18.0435C29.6079 18.0052 29.6443 17.9546 29.6679 17.9061C29.6914 17.8578 29.7028 17.8102 29.7084 17.7753C29.7113 17.7577 29.7127 17.7429 29.7135 17.7322C29.7139 17.7268 29.714 17.7225 29.7141 17.7194C29.7143 17.7178 29.7143 17.7165 29.7143 17.7154C29.7143 17.7149 29.7143 17.7145 29.7143 17.7143C29.7143 17.714 29.7143 17.7139 29.7143 17.7137V17.7136C29.7143 17.7135 29.7143 17.7135 29.6508 17.7135ZM29.5873 17.256V17.7135H29.7143V17.256H29.5873ZM30.0317 17.1906H29.6508V17.3213H30.0317V17.1906ZM29.9682 14.9167V17.256H30.0952V14.9167H29.9682ZM30.0884 14.8447L30.0249 14.8518L30.0386 14.9817L30.1021 14.9746L30.0884 14.8447ZM30.1587 17.256V14.9097H30.0317V17.256H30.1587ZM30.4762 17.1906H30.0952V17.3213H30.4762V17.1906ZM30.4127 17.1906V17.256H30.5397V17.1906H30.4127ZM30.2289 17.0238C30.2661 17.1004 30.3211 17.1563 30.3651 17.1926C30.3873 17.2109 30.4073 17.2247 30.4221 17.234C30.4294 17.2387 30.4355 17.2422 30.44 17.2447C30.4421 17.246 30.4439 17.2469 30.4452 17.2477C30.446 17.2481 30.4465 17.2484 30.4468 17.2486C30.4471 17.2486 30.4472 17.2488 30.4475 17.2489C30.4475 17.2489 30.4476 17.2489 30.4476 17.249H30.4477C30.4477 17.249 30.4477 17.249 30.4762 17.1906C30.5046 17.1322 30.5046 17.1322 30.5046 17.1322C30.5047 17.1322 30.5047 17.1322 30.5047 17.1322C30.5047 17.1323 30.5047 17.1323 30.5047 17.1322C30.5047 17.1322 30.5045 17.1322 30.5042 17.1319C30.5036 17.1316 30.5027 17.1311 30.5013 17.1303C30.4985 17.1288 30.4941 17.1261 30.4886 17.1226C30.4776 17.1157 30.4618 17.105 30.4444 17.0906C30.409 17.0614 30.3687 17.0194 30.3425 16.9652L30.2289 17.0238ZM30.2222 14.903C30.1587 14.903 30.1587 14.903 30.1587 14.903C30.1587 14.903 30.1587 14.903 30.1587 14.9031C30.1587 14.9031 30.1587 14.9033 30.1587 14.9034C30.1587 14.9037 30.1587 14.9039 30.1587 14.9044C30.1587 14.9054 30.1587 14.9068 30.1587 14.9086C30.1587 14.9124 30.1587 14.9179 30.1587 14.9251C30.1587 14.9396 30.1587 14.9607 30.1588 14.9877C30.159 15.0416 30.1592 15.1188 30.1597 15.2118C30.1607 15.3978 30.1626 15.6472 30.1667 15.9008C30.1707 16.1543 30.1766 16.4124 30.1855 16.6156C30.1901 16.717 30.1953 16.8056 30.2015 16.8732C30.2047 16.9071 30.2081 16.9365 30.2119 16.9603C30.2153 16.9813 30.2202 17.0058 30.2289 17.0238L30.3425 16.9652C30.3433 16.9669 30.3407 16.9608 30.3371 16.9387C30.334 16.9194 30.3309 16.8933 30.328 16.8609C30.322 16.7963 30.3168 16.7103 30.3124 16.6095C30.3035 16.4084 30.2976 16.1518 30.2936 15.8987C30.2896 15.6458 30.2877 15.3967 30.2867 15.2111C30.2862 15.1182 30.286 15.0412 30.2858 14.9873C30.2857 14.9604 30.2857 14.9394 30.2857 14.925C30.2857 14.9178 30.2857 14.9123 30.2857 14.9086C30.2857 14.9068 30.2857 14.9054 30.2857 14.9044C30.2857 14.9039 30.2857 14.9035 30.2857 14.9034C30.2857 14.9033 30.2857 14.9031 30.2857 14.9031C30.2857 14.903 30.2857 14.903 30.2857 14.903C30.2857 14.903 30.2857 14.903 30.2222 14.903ZM30.155 14.9684H30.2222V14.8377H30.155V14.9684ZM34.5553 14.3468L30.1482 14.838L30.1618 14.968L34.569 14.4767L34.5553 14.3468ZM34.0317 15.622C34.0317 15.1473 34.2551 14.7263 34.5999 14.4643L34.5244 14.3592C34.1487 14.6447 33.9047 15.1041 33.9047 15.622H34.0317ZM35.4286 17.0599C34.6571 17.0599 34.0317 16.4161 34.0317 15.622H33.9047C33.9047 16.4882 34.587 17.1906 35.4286 17.1906V17.0599ZM36.8254 15.622C36.8254 16.4161 36.2 17.0599 35.4286 17.0599V17.1906C36.2701 17.1906 36.9524 16.4882 36.9524 15.622H36.8254ZM35.998 14.3085C36.4857 14.5329 36.8254 15.0367 36.8254 15.622H36.9524C36.9524 14.9833 36.5816 14.4339 36.0498 14.1892L35.998 14.3085ZM47.7392 12.8772L36.017 14.1839L36.0306 14.3139L47.7529 13.0072L47.7392 12.8772ZM47.873 12.6154C47.873 12.6914 47.8359 12.7584 47.793 12.8098C47.772 12.835 47.751 12.855 47.7351 12.8685C47.7272 12.8753 47.7209 12.8804 47.7166 12.8836C47.7144 12.8853 47.7127 12.8865 47.7117 12.8872C47.7112 12.8875 47.711 12.8878 47.7107 12.8879C47.7107 12.8879 47.7106 12.888 47.7106 12.888C47.7106 12.888 47.7107 12.8879 47.7107 12.8879C47.7107 12.8879 47.7107 12.8879 47.7107 12.8879V12.8879C47.7108 12.8879 47.7108 12.8878 47.746 12.9422C47.7812 12.9966 47.7812 12.9966 47.7813 12.9966C47.7813 12.9966 47.7813 12.9966 47.7813 12.9966C47.7813 12.9965 47.7813 12.9965 47.7814 12.9965C47.7814 12.9964 47.7816 12.9964 47.7817 12.9963C47.7818 12.9962 47.7821 12.996 47.7823 12.9958C47.783 12.9954 47.7836 12.9949 47.7846 12.9943C47.7864 12.993 47.7888 12.9911 47.7919 12.9888C47.798 12.9842 47.8065 12.9775 47.8164 12.9689C47.8363 12.9519 47.8628 12.9269 47.8895 12.8949C47.9418 12.8319 48 12.7356 48 12.6154H47.873ZM47.746 12.354C47.7259 12.416 47.726 12.416 47.7258 12.416V12.416C47.7258 12.416 47.7258 12.4159 47.7257 12.4159C47.7257 12.4159 47.7257 12.4159 47.7257 12.4159C47.7256 12.4159 47.7256 12.4159 47.7256 12.4159C47.7257 12.4159 47.7259 12.416 47.7263 12.4161C47.7271 12.4164 47.7285 12.417 47.7304 12.4178C47.7342 12.4194 47.7402 12.422 47.7474 12.4257C47.762 12.4333 47.7814 12.445 47.8006 12.4614C47.8385 12.4938 47.873 12.5423 47.873 12.6154H48C48 12.4925 47.9393 12.4102 47.8819 12.361C47.8534 12.3366 47.8253 12.3196 47.8042 12.3088C47.7936 12.3034 47.7846 12.2993 47.778 12.2966C47.7747 12.2952 47.772 12.2942 47.77 12.2934C47.769 12.293 47.7681 12.2927 47.7675 12.2925C47.7672 12.2924 47.7668 12.2923 47.7667 12.2922C47.7666 12.2921 47.7665 12.2921 47.7663 12.2921C47.7663 12.2921 47.7662 12.292 47.7662 12.292C47.7662 12.292 47.7662 12.292 47.7662 12.292C47.7661 12.292 47.7661 12.292 47.746 12.354ZM28.698 12.4194H47.746V12.2886H28.698V12.4194ZM28.6349 12.2886C28.6349 12.3102 28.6348 12.3318 28.6345 12.3533L28.7615 12.3547C28.7618 12.3327 28.7619 12.3107 28.7619 12.2886H28.6349ZM28.2837 10.1929C28.5086 10.8521 28.6349 11.5615 28.6349 12.2886H28.7619C28.7619 11.5459 28.6329 10.822 28.4035 10.1496L28.2837 10.1929ZM33.0099 9.67451L28.3379 10.1061L28.3493 10.2363L33.0213 9.80471L33.0099 9.67451ZM33.0156 9.60915C33.0156 9.622 33.0085 9.64122 32.9947 9.66246C32.9884 9.672 32.9822 9.6801 32.9774 9.68577C32.9751 9.68857 32.9732 9.69068 32.972 9.69199C32.9714 9.69264 32.971 9.6931 32.9708 9.69332C32.9706 9.69343 32.9706 9.69349 32.9706 9.69349C32.9706 9.69349 32.9706 9.69347 32.9706 9.69344C32.9706 9.69343 32.9706 9.6934 32.9708 9.69339C32.9708 9.69338 32.9708 9.69336 32.9708 9.69335C32.9708 9.69334 32.9708 9.69334 32.9708 9.69332C32.9708 9.69332 32.9708 9.69331 33.0156 9.73961C33.0604 9.78591 33.0604 9.78591 33.0604 9.7859C33.0604 9.78589 33.0604 9.78587 33.0604 9.78587C33.0604 9.78585 33.0606 9.78583 33.0606 9.78582C33.0606 9.78578 33.0606 9.78573 33.0607 9.78569C33.0607 9.7856 33.0608 9.78548 33.0609 9.78536C33.0612 9.7851 33.0614 9.78479 33.0618 9.78441C33.0626 9.78364 33.0635 9.78262 33.0647 9.78136C33.067 9.77884 33.0701 9.77534 33.0738 9.771C33.0809 9.76237 33.0905 9.75003 33.1003 9.73506C33.1182 9.7073 33.1428 9.66114 33.1426 9.60865L33.0156 9.60915ZM33.0156 9.54353C32.9896 9.60317 32.9896 9.60316 32.9896 9.60316V9.60314V9.60313C32.9894 9.60312 32.9894 9.6031 32.9894 9.60309C32.9894 9.60308 32.9894 9.60306 32.9893 9.60305C32.9893 9.60304 32.9893 9.60305 32.9894 9.60309C32.9896 9.60317 32.9899 9.60334 32.9905 9.6036C32.9915 9.60412 32.9933 9.605 32.9953 9.60616C32.9996 9.60858 33.0051 9.61186 33.01 9.6156C33.0154 9.6196 33.0183 9.62255 33.0192 9.6238C33.0203 9.62534 33.0156 9.62008 33.0156 9.60915L33.1426 9.60863C33.1425 9.57965 33.1298 9.55721 33.1191 9.54312C33.108 9.52871 33.0951 9.51759 33.0846 9.50976C33.0738 9.50167 33.0632 9.49538 33.0557 9.49118C33.0519 9.48904 33.0486 9.48734 33.0462 9.48612C33.0449 9.48552 33.0439 9.48502 33.0432 9.48466C33.0428 9.48448 33.0425 9.48432 33.0423 9.48419C33.042 9.48412 33.042 9.48407 33.0419 9.48402C33.0418 9.484 33.0418 9.48398 33.0418 9.48395C33.0416 9.48395 33.0416 9.48394 33.0416 9.48393V9.48391C33.0416 9.48391 33.0416 9.4839 33.0156 9.54353ZM28.0936 9.60889H33.0156V9.47817H28.0936V9.60889ZM24.5502 6.51995C25.977 6.76955 27.3008 7.96522 28.0362 9.5714L28.1511 9.51568C27.4032 7.88203 26.0498 6.64969 24.5714 6.39108L24.5502 6.51995ZM24.1455 0.243347C24.1378 0.235349 24.1345 0.227462 24.134 0.226272C24.1333 0.22494 24.1329 0.223931 24.1328 0.223393C24.1326 0.22283 24.1326 0.222497 24.1326 0.222461C24.1324 0.222428 24.1327 0.222979 24.1329 0.224305C24.1332 0.225586 24.1336 0.227308 24.1341 0.229535C24.1357 0.238785 24.1379 0.253121 24.1403 0.273023C24.1453 0.312519 24.1508 0.369739 24.1571 0.442972C24.1696 0.589212 24.1845 0.79662 24.201 1.04787C24.234 1.55025 24.2733 2.22638 24.3126 2.9356C24.3911 4.35398 24.4696 5.90387 24.4974 6.45888L24.6242 6.45215C24.5964 5.89709 24.518 4.34691 24.4393 2.92816C24.4001 2.21883 24.3607 1.54214 24.3277 1.03906C24.3112 0.787579 24.2962 0.579098 24.2835 0.431493C24.2773 0.357803 24.2715 0.298611 24.2663 0.256606C24.2637 0.235757 24.2612 0.21807 24.2586 0.204576C24.2574 0.197968 24.2559 0.190972 24.2541 0.18456C24.2531 0.181389 24.2517 0.177114 24.2498 0.172549C24.2482 0.169232 24.244 0.159819 24.2354 0.150913L24.1455 0.243347ZM24.0635 0.131769C24.0635 0.197128 24.0635 0.197128 24.0633 0.197128H24.0632C24.0632 0.197127 24.0631 0.197127 24.063 0.197127C24.0628 0.197126 24.0627 0.197125 24.0626 0.197122C24.0625 0.197118 24.0622 0.197114 24.0622 0.19711C24.062 0.197104 24.062 0.197098 24.0621 0.197111C24.0625 0.197136 24.0636 0.197228 24.0654 0.197493C24.0691 0.198024 24.0752 0.199234 24.083 0.201945C24.0986 0.207289 24.1216 0.218651 24.1455 0.243345L24.2354 0.150913C24.1958 0.11025 24.1553 0.088931 24.1233 0.0779348C24.1073 0.0724746 24.0937 0.0696004 24.0834 0.0680882C24.0782 0.0673313 24.0739 0.0669124 24.0706 0.0666822C24.0689 0.066567 24.0674 0.0664989 24.0663 0.0664596C24.0656 0.0664398 24.0651 0.0664274 24.0646 0.0664198C24.0645 0.0664161 24.0642 0.0664134 24.064 0.0664119C24.064 0.066411 24.0639 0.0664104 24.0637 0.06641C24.0637 0.0664099 24.0636 0.0664098 24.0636 0.0664097V0.0664095C24.0635 0.0664095 24.0635 0.0664095 24.0635 0.131769ZM24.127 6.40692V0.131769H24V6.40692H24.127ZM24 6.47164C24.0207 6.47164 24.0415 6.47185 24.0622 6.47227L24.0647 6.34157C24.0432 6.34114 24.0216 6.34092 24 6.34092V6.47164ZM13.2698 15.622C13.2698 15.9829 12.9855 16.2756 12.6349 16.2756V16.4063C13.0557 16.4063 13.3968 16.0552 13.3968 15.622H13.2698ZM12.6349 14.9684C12.9855 14.9684 13.2698 15.2611 13.2698 15.622H13.3968C13.3968 15.1888 13.0557 14.8377 12.6349 14.8377V14.9684ZM12 15.622C12 15.2611 12.2843 14.9684 12.6349 14.9684V14.8377C12.2141 14.8377 11.873 15.1888 11.873 15.622H12ZM12.6349 16.2756C12.2843 16.2756 12 15.9829 12 15.622H11.873C11.873 16.0552 12.2141 16.4063 12.6349 16.4063V16.2756ZM16.8254 16.6677V17.7788H16.9524V16.6677H16.8254ZM17.2063 16.3409C17.0273 16.3409 16.9268 16.4166 16.8748 16.5024C16.8499 16.5433 16.8377 16.5837 16.8317 16.6136C16.8287 16.6286 16.827 16.6413 16.8263 16.6507C16.8259 16.6553 16.8256 16.6592 16.8255 16.6621C16.8255 16.6635 16.8254 16.6647 16.8254 16.6656C16.8254 16.6661 16.8254 16.6665 16.8254 16.6669C16.8254 16.6671 16.8254 16.6672 16.8254 16.6673C16.8254 16.6675 16.8254 16.6675 16.8254 16.6676C16.8254 16.6677 16.8254 16.6677 16.8889 16.6677C16.9524 16.6677 16.9524 16.6677 16.9524 16.6678V16.668C16.9524 16.6681 16.9524 16.6681 16.9524 16.6682C16.9524 16.6682 16.9524 16.6684 16.9524 16.6682C16.9524 16.6682 16.9524 16.668 16.9524 16.6675C16.9524 16.6665 16.9525 16.6647 16.9527 16.6624C16.9531 16.6573 16.9541 16.6497 16.956 16.6401C16.9599 16.6211 16.9675 16.5961 16.9823 16.5716C17.0096 16.5267 17.0679 16.4716 17.2063 16.4716V16.3409ZM17.5238 16.6677C17.5873 16.6677 17.5873 16.6677 17.5873 16.6676C17.5873 16.6675 17.5873 16.6675 17.5873 16.6673C17.5873 16.6672 17.5873 16.6671 17.5873 16.6669C17.5873 16.6665 17.5873 16.6661 17.5873 16.6656C17.5873 16.6647 17.5872 16.6635 17.5872 16.6621C17.587 16.6592 17.5868 16.6553 17.5864 16.6507C17.5856 16.6413 17.584 16.6286 17.5809 16.6136C17.575 16.5837 17.5628 16.5433 17.5379 16.5024C17.4858 16.4166 17.3854 16.3409 17.2063 16.3409V16.4716C17.3447 16.4716 17.403 16.5267 17.4303 16.5716C17.4452 16.5961 17.4528 16.6211 17.4566 16.6401C17.4585 16.6497 17.4595 16.6573 17.4599 16.6624C17.4602 16.6647 17.4603 16.6665 17.4603 16.6675C17.4603 16.668 17.4603 16.6682 17.4603 16.6682C17.4603 16.6684 17.4603 16.6682 17.4603 16.6682C17.4603 16.6681 17.4603 16.6681 17.4603 16.668V16.6678C17.4603 16.6677 17.4603 16.6677 17.5238 16.6677ZM17.5873 17.7788V16.6677H17.4603V17.7788H17.5873ZM17.2063 18.171C17.2967 18.171 17.3689 18.1475 17.4251 18.1089C17.4809 18.0706 17.5173 18.02 17.5409 17.9715C17.5644 17.9231 17.5759 17.8756 17.5814 17.8407C17.5844 17.823 17.5858 17.8082 17.5865 17.7975C17.5869 17.7922 17.587 17.7878 17.5872 17.7847C17.5873 17.7831 17.5873 17.7818 17.5873 17.7808C17.5873 17.7803 17.5873 17.7799 17.5873 17.7796C17.5873 17.7794 17.5873 17.7792 17.5873 17.7791V17.779C17.5873 17.7788 17.5873 17.7788 17.5238 17.7788C17.4603 17.7788 17.4603 17.7788 17.4603 17.7788C17.4603 17.7787 17.4603 17.7787 17.4603 17.7787C17.4603 17.7787 17.4603 17.7787 17.4603 17.7786C17.4603 17.7786 17.4603 17.7786 17.4603 17.7787C17.4603 17.779 17.4603 17.7795 17.4603 17.7803C17.4602 17.782 17.46 17.7846 17.4598 17.7882C17.4593 17.7954 17.4583 17.8062 17.4562 17.8191C17.4519 17.8455 17.4435 17.8796 17.4273 17.9129C17.4113 17.9461 17.3882 17.9773 17.3547 18.0001C17.3215 18.0229 17.2747 18.0403 17.2063 18.0403V18.171ZM16.8889 17.7788C16.8254 17.7788 16.8254 17.7788 16.8254 17.779V17.7791C16.8254 17.7792 16.8254 17.7794 16.8254 17.7796C16.8254 17.7799 16.8254 17.7803 16.8254 17.7808C16.8254 17.7818 16.8254 17.7831 16.8255 17.7847C16.8256 17.7878 16.8258 17.7922 16.8261 17.7975C16.8269 17.8082 16.8283 17.823 16.8312 17.8407C16.8368 17.8756 16.8482 17.9231 16.8717 17.9715C16.8953 18.02 16.9318 18.0706 16.9875 18.1089C17.0438 18.1475 17.1159 18.171 17.2063 18.171V18.0403C17.138 18.0403 17.0912 18.0229 17.058 18.0001C17.0245 17.9773 17.0014 17.9461 16.9854 17.9129C16.9691 17.8796 16.9607 17.8455 16.9564 17.8191C16.9544 17.8062 16.9534 17.7954 16.9529 17.7882C16.9526 17.7846 16.9525 17.782 16.9524 17.7803C16.9524 17.7795 16.9524 17.779 16.9524 17.7787C16.9524 17.7786 16.9524 17.7786 16.9524 17.7786C16.9524 17.7787 16.9524 17.7787 16.9524 17.7787C16.9524 17.7787 16.9524 17.7787 16.9524 17.7788C16.9524 17.7788 16.9524 17.7788 16.8889 17.7788ZM22.9206 18.4978V19.6089H23.0476V18.4978H22.9206ZM23.3016 18.171C23.1225 18.171 23.0221 18.2467 22.97 18.3324C22.9451 18.3733 22.9329 18.4137 22.927 18.4437C22.9239 18.4587 22.9223 18.4714 22.9215 18.4808C22.9211 18.4854 22.9209 18.4893 22.9207 18.4922C22.9207 18.4936 22.9206 18.4948 22.9206 18.4957C22.9206 18.4962 22.9206 18.4966 22.9206 18.497C22.9206 18.4971 22.9206 18.4973 22.9206 18.4974C22.9206 18.4975 22.9206 18.4975 22.9206 18.4977C22.9206 18.4978 22.9206 18.4978 22.9841 18.4978C23.0476 18.4978 23.0476 18.4978 23.0476 18.4979V18.498C23.0476 18.4982 23.0476 18.4982 23.0476 18.4983C23.0476 18.4983 23.0476 18.498 23.0476 18.4975C23.0476 18.4966 23.0477 18.4948 23.048 18.4924C23.0484 18.4873 23.0494 18.4797 23.0513 18.4702C23.0551 18.4511 23.0627 18.4261 23.0776 18.4017C23.1049 18.3567 23.1632 18.3017 23.3016 18.3017V18.171ZM23.619 18.4978C23.6825 18.4978 23.6825 18.4978 23.6825 18.4977C23.6825 18.4975 23.6825 18.4975 23.6825 18.4974C23.6825 18.4973 23.6825 18.4971 23.6825 18.497C23.6825 18.4966 23.6825 18.4962 23.6825 18.4957C23.6825 18.4948 23.6824 18.4936 23.6824 18.4922C23.6823 18.4893 23.682 18.4854 23.6816 18.4808C23.6809 18.4714 23.6792 18.4587 23.6762 18.4437C23.6702 18.4137 23.658 18.3733 23.6331 18.3324C23.5811 18.2467 23.4806 18.171 23.3016 18.171V18.3017C23.44 18.3017 23.4983 18.3567 23.5256 18.4017C23.5404 18.4261 23.548 18.4511 23.5519 18.4702C23.5538 18.4797 23.5548 18.4873 23.5552 18.4924C23.5554 18.4948 23.5555 18.4966 23.5555 18.4975C23.5555 18.498 23.5555 18.4983 23.5555 18.4983C23.5555 18.4982 23.5555 18.4982 23.5555 18.498V18.4979C23.5555 18.4978 23.5555 18.4978 23.619 18.4978ZM23.6825 19.6089V18.4978H23.5555V19.6089H23.6825ZM23.3016 20.0011C23.392 20.0011 23.4641 19.9775 23.5204 19.939C23.5761 19.9007 23.6126 19.8501 23.6362 19.8016C23.6597 19.7532 23.6711 19.7056 23.6767 19.6707C23.6796 19.6531 23.681 19.6383 23.6818 19.6276C23.6821 19.6222 23.6823 19.6179 23.6824 19.6148C23.6825 19.6132 23.6825 19.6119 23.6825 19.6109C23.6825 19.6103 23.6825 19.6099 23.6825 19.6097C23.6825 19.6094 23.6825 19.6093 23.6825 19.6092V19.609C23.6825 19.6089 23.6825 19.6089 23.619 19.6089C23.5555 19.6089 23.5555 19.6089 23.5555 19.6089C23.5555 19.6088 23.5555 19.6088 23.5555 19.6088C23.5555 19.6088 23.5555 19.6088 23.5555 19.6086C23.5555 19.6086 23.5555 19.6086 23.5555 19.6088C23.5555 19.609 23.5555 19.6095 23.5555 19.6103C23.5554 19.612 23.5553 19.6146 23.555 19.6183C23.5545 19.6255 23.5535 19.6362 23.5515 19.6492C23.5472 19.6756 23.5388 19.7097 23.5225 19.743C23.5065 19.7762 23.4834 19.8073 23.4499 19.8302C23.4167 19.8529 23.3699 19.8703 23.3016 19.8703V20.0011ZM22.9841 19.6089C22.9206 19.6089 22.9206 19.6089 22.9206 19.609V19.6092C22.9206 19.6093 22.9206 19.6094 22.9206 19.6097C22.9206 19.6099 22.9206 19.6103 22.9206 19.6109C22.9206 19.6119 22.9206 19.6132 22.9207 19.6148C22.9209 19.6179 22.921 19.6222 22.9214 19.6276C22.9221 19.6383 22.9235 19.6531 22.9265 19.6707C22.932 19.7056 22.9435 19.7532 22.967 19.8016C22.9906 19.8501 23.027 19.9007 23.0828 19.939C23.139 19.9775 23.2112 20.0011 23.3016 20.0011V19.8703C23.2333 19.8703 23.1864 19.8529 23.1533 19.8302C23.1197 19.8073 23.0966 19.7762 23.0806 19.743C23.0644 19.7097 23.056 19.6756 23.0517 19.6492C23.0496 19.6362 23.0486 19.6255 23.0481 19.6183C23.0479 19.6146 23.0477 19.612 23.0476 19.6103C23.0476 19.6095 23.0476 19.609 23.0476 19.6088C23.0476 19.6086 23.0476 19.6086 23.0476 19.6086C23.0476 19.6088 23.0476 19.6088 23.0476 19.6088C23.0476 19.6088 23.0476 19.6088 23.0476 19.6089C23.0476 19.6089 23.0476 19.6089 22.9841 19.6089ZM22.6094 10.3282C22.4268 10.3097 22.1919 10.2615 22.0009 10.2172C21.9058 10.1952 21.8222 10.1744 21.7624 10.1591C21.7326 10.1514 21.7087 10.1451 21.6923 10.1407C21.684 10.1385 21.6777 10.1368 21.6735 10.1357C21.6713 10.1351 21.6697 10.1347 21.6687 10.1344C21.6682 10.1342 21.6677 10.1341 21.6674 10.1341C21.6673 10.134 21.6673 10.134 21.6672 10.134V10.134C21.667 10.134 21.667 10.134 21.667 10.134C21.667 10.134 21.667 10.134 21.6508 10.1971C21.6345 10.2603 21.6345 10.2603 21.6345 10.2603C21.6345 10.2603 21.6345 10.2603 21.6346 10.2603C21.6346 10.2604 21.6348 10.2604 21.6349 10.2604C21.6353 10.2605 21.6357 10.2606 21.6363 10.2608C21.6374 10.2611 21.6391 10.2615 21.6413 10.2621C21.6457 10.2633 21.6522 10.2651 21.6606 10.2673C21.6772 10.2717 21.7014 10.2781 21.7317 10.2859C21.7922 10.3014 21.8767 10.3225 21.9731 10.3448C22.1648 10.3892 22.4061 10.439 22.5969 10.4583L22.6094 10.3282ZM23.6825 10.4586C23.6847 10.3932 23.6847 10.3932 23.6847 10.3932H23.6846C23.6844 10.3932 23.6843 10.3932 23.6842 10.3932C23.6839 10.3932 23.6834 10.3932 23.6828 10.3932C23.6815 10.3931 23.6797 10.3931 23.6772 10.393C23.6724 10.3928 23.6651 10.3925 23.6557 10.3922C23.6369 10.3915 23.6096 10.3904 23.5755 10.389C23.5073 10.3862 23.4119 10.382 23.3036 10.3765C23.0865 10.3655 22.8179 10.3492 22.6094 10.3282L22.5969 10.4583C22.8086 10.4796 23.0799 10.496 23.2973 10.5071C23.4062 10.5126 23.502 10.5168 23.5704 10.5196C23.6047 10.521 23.6321 10.5221 23.651 10.5228C23.6606 10.5232 23.6678 10.5234 23.6727 10.5236C23.6753 10.5237 23.6772 10.5238 23.6785 10.5238C23.6791 10.5238 23.6796 10.5239 23.6799 10.5239C23.68 10.5239 23.6801 10.5239 23.6802 10.5239H23.6804C23.6804 10.5239 23.6804 10.5239 23.6825 10.4586ZM23.8094 11.697L23.7459 10.4551L23.6192 10.462L23.6827 11.7038L23.8094 11.697ZM22.3324 11.6981C22.6898 11.7984 23.0458 11.8149 23.3115 11.8066C23.4444 11.8024 23.5554 11.792 23.6334 11.7827C23.6724 11.778 23.7031 11.7735 23.7242 11.7703C23.7347 11.7686 23.7428 11.7672 23.7484 11.7663C23.7512 11.7658 23.7534 11.7654 23.7549 11.7652C23.7557 11.765 23.7562 11.7649 23.7567 11.7648C23.7568 11.7648 23.7571 11.7648 23.7572 11.7647C23.7572 11.7647 23.7572 11.7647 23.7573 11.7647C23.7573 11.7647 23.7573 11.7647 23.7573 11.7647C23.7573 11.7647 23.7573 11.7647 23.746 11.7004C23.7347 11.6361 23.7347 11.6361 23.7347 11.6361C23.7347 11.6361 23.7347 11.6361 23.7346 11.6361C23.7346 11.6361 23.7345 11.6361 23.7343 11.6361C23.7341 11.6362 23.7337 11.6363 23.7331 11.6364C23.7319 11.6366 23.73 11.6369 23.7275 11.6374C23.7225 11.6382 23.715 11.6395 23.7051 11.641C23.6853 11.6441 23.656 11.6483 23.6186 11.6528C23.5437 11.6618 23.4364 11.6719 23.3075 11.6759C23.0494 11.684 22.707 11.6677 22.366 11.572L22.3324 11.6981ZM21.1428 11.1122C21.1046 11.1644 21.1047 11.1644 21.1047 11.1644C21.1047 11.1644 21.1047 11.1644 21.1047 11.1645C21.1047 11.1645 21.1049 11.1645 21.1049 11.1646C21.105 11.1646 21.1051 11.1647 21.1053 11.1648C21.1055 11.165 21.1059 11.1653 21.1063 11.1657C21.1073 11.1663 21.1086 11.1673 21.1102 11.1685C21.1135 11.171 21.1183 11.1745 21.1246 11.1789C21.1371 11.1878 21.1558 11.2006 21.1807 11.2165C21.2303 11.2483 21.3047 11.2927 21.4052 11.3444C21.6063 11.4477 21.9119 11.58 22.3324 11.6981L22.366 11.572C21.9534 11.4562 21.6557 11.327 21.462 11.2274C21.3651 11.1776 21.2941 11.1352 21.2477 11.1055C21.2245 11.0906 21.2075 11.079 21.1964 11.0711C21.1908 11.0672 21.1869 11.0643 21.1842 11.0624C21.183 11.0614 21.1821 11.0608 21.1816 11.0603C21.1813 11.0601 21.1811 11.06 21.1811 11.0599C21.1809 11.0599 21.1809 11.0599 21.1809 11.0599V11.0599C21.1809 11.0599 21.1809 11.0599 21.1809 11.0599C21.1809 11.0599 21.1811 11.0599 21.1428 11.1122ZM21.5957 10.1647L21.0877 11.0797L21.198 11.1446L21.7059 10.2296L21.5957 10.1647ZM34.6666 15.622C34.6666 16.0552 35.0077 16.4063 35.4286 16.4063V16.2756C35.0779 16.2756 34.7936 15.9829 34.7936 15.622H34.6666ZM35.4286 14.8377C35.0077 14.8377 34.6666 15.1888 34.6666 15.622H34.7936C34.7936 15.2611 35.0779 14.9684 35.4286 14.9684V14.8377ZM36.1905 15.622C36.1905 15.1888 35.8494 14.8377 35.4286 14.8377V14.9684C35.7792 14.9684 36.0635 15.2611 36.0635 15.622H36.1905ZM35.4286 16.4063C35.8494 16.4063 36.1905 16.0552 36.1905 15.622H36.0635C36.0635 15.9829 35.7792 16.2756 35.4286 16.2756V16.4063ZM31.1111 16.6677V17.7788H31.2381V16.6677H31.1111ZM30.8571 16.4716C30.9955 16.4716 31.0538 16.5267 31.0811 16.5716C31.096 16.5961 31.1036 16.6211 31.1074 16.6401C31.1093 16.6497 31.1103 16.6573 31.1107 16.6624C31.111 16.6647 31.1111 16.6665 31.1111 16.6675C31.1111 16.668 31.1111 16.6682 31.1111 16.6682C31.1111 16.6684 31.1111 16.6682 31.1111 16.6682C31.1111 16.6681 31.1111 16.6681 31.1111 16.668V16.6678C31.1111 16.6677 31.1111 16.6677 31.1746 16.6677C31.2381 16.6677 31.2381 16.6677 31.2381 16.6676C31.2381 16.6675 31.2381 16.6675 31.2381 16.6673C31.2381 16.6672 31.2381 16.6671 31.2381 16.6669C31.2381 16.6665 31.2381 16.6661 31.2381 16.6656C31.2381 16.6647 31.2379 16.6635 31.2379 16.6621C31.2378 16.6592 31.2376 16.6553 31.2372 16.6507C31.2364 16.6413 31.2348 16.6286 31.2317 16.6136C31.2258 16.5837 31.2136 16.5433 31.1887 16.5024C31.1366 16.4166 31.0362 16.3409 30.8571 16.3409V16.4716ZM30.5397 16.6677C30.6032 16.6677 30.6032 16.6677 30.6032 16.6678V16.668C30.6032 16.6681 30.6032 16.6681 30.6032 16.6682C30.6032 16.6682 30.6032 16.6684 30.6032 16.6682C30.6032 16.6682 30.6032 16.668 30.6032 16.6675C30.6032 16.6665 30.6033 16.6647 30.6035 16.6624C30.6039 16.6573 30.6049 16.6497 30.6068 16.6401C30.6107 16.6211 30.6183 16.5961 30.6331 16.5716C30.6604 16.5267 30.7187 16.4716 30.8571 16.4716V16.3409C30.6781 16.3409 30.5776 16.4166 30.5256 16.5024C30.5007 16.5433 30.4885 16.5837 30.4825 16.6136C30.4795 16.6286 30.4778 16.6413 30.4771 16.6507C30.4767 16.6553 30.4764 16.6592 30.4763 16.6621C30.4763 16.6635 30.4762 16.6647 30.4762 16.6656C30.4762 16.6661 30.4762 16.6665 30.4762 16.6669C30.4762 16.6671 30.4762 16.6672 30.4762 16.6673C30.4762 16.6675 30.4762 16.6675 30.4762 16.6676C30.4762 16.6677 30.4762 16.6677 30.5397 16.6677ZM30.6032 17.7788V16.6677H30.4762V17.7788H30.6032ZM30.8571 18.0403C30.7888 18.0403 30.742 18.0229 30.7088 18.0001C30.6753 17.9773 30.6522 17.9461 30.6362 17.9129C30.6199 17.8796 30.6115 17.8455 30.6072 17.8191C30.6052 17.8062 30.6042 17.7954 30.6037 17.7882C30.6034 17.7846 30.6033 17.782 30.6032 17.7803C30.6032 17.7795 30.6032 17.779 30.6032 17.7787C30.6032 17.7786 30.6032 17.7786 30.6032 17.7786C30.6032 17.7787 30.6032 17.7787 30.6032 17.7787C30.6032 17.7787 30.6032 17.7787 30.6032 17.7788C30.6032 17.7788 30.6032 17.7788 30.5397 17.7788C30.4762 17.7788 30.4762 17.7788 30.4762 17.779V17.7791C30.4762 17.7792 30.4762 17.7794 30.4762 17.7796C30.4762 17.7799 30.4762 17.7803 30.4762 17.7808C30.4762 17.7818 30.4762 17.7831 30.4763 17.7847C30.4764 17.7878 30.4766 17.7922 30.4769 17.7975C30.4777 17.8082 30.4791 17.823 30.482 17.8407C30.4876 17.8756 30.499 17.9231 30.5225 17.9715C30.5461 18.02 30.5826 18.0706 30.6383 18.1089C30.6946 18.1475 30.7667 18.171 30.8571 18.171V18.0403ZM31.1746 17.7788C31.1111 17.7788 31.1111 17.7788 31.1111 17.7788C31.1111 17.7787 31.1111 17.7787 31.1111 17.7787C31.1111 17.7787 31.1111 17.7787 31.1111 17.7786C31.1111 17.7786 31.1111 17.7786 31.1111 17.7787C31.1111 17.779 31.1111 17.7795 31.1111 17.7803C31.111 17.782 31.1108 17.7846 31.1106 17.7882C31.1101 17.7954 31.1091 17.8062 31.107 17.8191C31.1027 17.8455 31.0943 17.8796 31.0781 17.9129C31.0621 17.9461 31.039 17.9773 31.0054 18.0001C30.9723 18.0229 30.9254 18.0403 30.8571 18.0403V18.171C30.9475 18.171 31.0197 18.1475 31.0759 18.1089C31.1317 18.0706 31.1681 18.02 31.1917 17.9715C31.2152 17.9231 31.2266 17.8756 31.2322 17.8407C31.2352 17.823 31.2366 17.8082 31.2373 17.7975C31.2377 17.7922 31.2378 17.7878 31.2379 17.7847C31.2381 17.7831 31.2381 17.7818 31.2381 17.7808C31.2381 17.7803 31.2381 17.7799 31.2381 17.7796C31.2381 17.7794 31.2381 17.7792 31.2381 17.7791V17.779C31.2381 17.7788 31.2381 17.7788 31.1746 17.7788ZM25.0159 18.4978V19.6089H25.1428V18.4978H25.0159ZM24.7619 18.3017C24.9003 18.3017 24.9586 18.3567 24.9859 18.4017C25.0007 18.4261 25.0084 18.4511 25.0122 18.4702C25.0141 18.4797 25.0151 18.4873 25.0155 18.4924C25.0157 18.4948 25.0159 18.4966 25.0159 18.4975C25.0159 18.498 25.0159 18.4983 25.0159 18.4983C25.0159 18.4982 25.0159 18.4982 25.0159 18.498V18.4979C25.0159 18.4978 25.0159 18.4978 25.0793 18.4978C25.1428 18.4978 25.1428 18.4978 25.1428 18.4977C25.1428 18.4975 25.1428 18.4975 25.1428 18.4974C25.1428 18.4973 25.1428 18.4971 25.1428 18.497C25.1428 18.4966 25.1428 18.4962 25.1428 18.4957C25.1428 18.4948 25.1427 18.4936 25.1427 18.4922C25.1426 18.4893 25.1423 18.4854 25.142 18.4808C25.1412 18.4714 25.1395 18.4587 25.1365 18.4437C25.1305 18.4137 25.1183 18.3733 25.0934 18.3324C25.0414 18.2467 24.9409 18.171 24.7619 18.171V18.3017ZM24.4444 18.4978C24.5079 18.4978 24.5079 18.4978 24.5079 18.4979V18.498C24.5079 18.4982 24.5079 18.4982 24.5079 18.4983C24.5079 18.4983 24.5079 18.498 24.5079 18.4975C24.5079 18.4966 24.508 18.4948 24.5083 18.4924C24.5087 18.4873 24.5097 18.4797 24.5116 18.4702C24.5154 18.4511 24.523 18.4261 24.5379 18.4017C24.5652 18.3567 24.6235 18.3017 24.7619 18.3017V18.171C24.5828 18.171 24.4824 18.2467 24.4303 18.3324C24.4054 18.3733 24.3933 18.4137 24.3873 18.4437C24.3842 18.4587 24.3826 18.4714 24.3818 18.4808C24.3814 18.4854 24.3812 18.4893 24.3811 18.4922C24.3811 18.4936 24.3809 18.4948 24.3809 18.4957C24.3809 18.4962 24.3809 18.4966 24.3809 18.497C24.3809 18.4971 24.3809 18.4973 24.3809 18.4974C24.3809 18.4975 24.3809 18.4975 24.3809 18.4977C24.3809 18.4978 24.3809 18.4978 24.4444 18.4978ZM24.5079 19.6089V18.4978H24.3809V19.6089H24.5079ZM24.7619 19.8703C24.6936 19.8703 24.6467 19.8529 24.6136 19.8302C24.58 19.8073 24.5569 19.7762 24.5409 19.743C24.5247 19.7097 24.5163 19.6756 24.512 19.6492C24.51 19.6362 24.5089 19.6255 24.5084 19.6183C24.5082 19.6146 24.508 19.612 24.5079 19.6103C24.5079 19.6095 24.5079 19.609 24.5079 19.6088C24.5079 19.6086 24.5079 19.6086 24.5079 19.6086C24.5079 19.6088 24.5079 19.6088 24.5079 19.6088C24.5079 19.6088 24.5079 19.6088 24.5079 19.6089C24.5079 19.6089 24.5079 19.6089 24.4444 19.6089C24.3809 19.6089 24.3809 19.6089 24.3809 19.609V19.6092C24.3809 19.6093 24.3809 19.6094 24.3809 19.6097C24.3809 19.6099 24.3809 19.6103 24.3809 19.6109C24.3809 19.6119 24.3809 19.6132 24.3811 19.6148C24.3812 19.6179 24.3813 19.6222 24.3817 19.6276C24.3825 19.6383 24.3839 19.6531 24.3868 19.6707C24.3924 19.7056 24.4038 19.7532 24.4273 19.8016C24.4509 19.8501 24.4873 19.9007 24.5431 19.939C24.5993 19.9775 24.6715 20.0011 24.7619 20.0011V19.8703ZM25.0793 19.6089C25.0159 19.6089 25.0159 19.6089 25.0159 19.6089C25.0159 19.6088 25.0159 19.6088 25.0159 19.6088C25.0159 19.6088 25.0159 19.6088 25.0159 19.6086C25.0159 19.6086 25.0159 19.6086 25.0159 19.6088C25.0159 19.609 25.0159 19.6095 25.0159 19.6103C25.0157 19.612 25.0156 19.6146 25.0153 19.6183C25.0148 19.6255 25.0138 19.6362 25.0118 19.6492C25.0075 19.6756 24.9991 19.7097 24.9828 19.743C24.9668 19.7762 24.9437 19.8073 24.9102 19.8302C24.8771 19.8529 24.8302 19.8703 24.7619 19.8703V20.0011C24.8523 20.0011 24.9244 19.9775 24.9807 19.939C25.0364 19.9007 25.0729 19.8501 25.0965 19.8016C25.12 19.7532 25.1314 19.7056 25.137 19.6707C25.1399 19.6531 25.1413 19.6383 25.1421 19.6276C25.1425 19.6222 25.1426 19.6179 25.1427 19.6148C25.1428 19.6132 25.1428 19.6119 25.1428 19.6109C25.1428 19.6103 25.1428 19.6099 25.1428 19.6097C25.1428 19.6094 25.1428 19.6093 25.1428 19.6092V19.609C25.1428 19.6089 25.1428 19.6089 25.0793 19.6089ZM25.4665 10.4583C25.6574 10.439 25.8987 10.3892 26.0904 10.3448C26.1868 10.3225 26.2712 10.3014 26.3318 10.2859C26.362 10.2781 26.3863 10.2717 26.4029 10.2673C26.4113 10.2651 26.4178 10.2633 26.4222 10.2621C26.4244 10.2615 26.426 10.2611 26.4272 10.2608C26.4278 10.2606 26.4282 10.2605 26.4286 10.2604C26.4287 10.2604 26.4288 10.2604 26.4288 10.2603C26.4289 10.2603 26.4289 10.2603 26.4289 10.2603C26.4289 10.2603 26.4289 10.2603 26.4127 10.1971C26.3964 10.134 26.3964 10.134 26.3964 10.134C26.3964 10.134 26.3964 10.134 26.3963 10.134V10.134C26.3962 10.134 26.3962 10.134 26.396 10.1341C26.3958 10.1341 26.3953 10.1342 26.3948 10.1344C26.3938 10.1347 26.3921 10.1351 26.39 10.1357C26.3858 10.1368 26.3794 10.1385 26.3712 10.1407C26.3548 10.1451 26.3309 10.1514 26.3011 10.1591C26.2413 10.1744 26.1577 10.1952 26.0626 10.2173C25.8716 10.2615 25.6367 10.3097 25.4541 10.3282L25.4665 10.4583ZM24.3809 10.4586C24.3831 10.5239 24.3831 10.5239 24.3831 10.5239H24.3832C24.3833 10.5239 24.3835 10.5239 24.3836 10.5239C24.3839 10.5239 24.3844 10.5238 24.385 10.5238C24.3863 10.5238 24.3882 10.5237 24.3907 10.5236C24.3957 10.5234 24.4029 10.5232 24.4124 10.5228C24.4313 10.5221 24.4588 10.521 24.4931 10.5196C24.5615 10.5168 24.6573 10.5126 24.7662 10.5071C24.9836 10.496 25.2548 10.4797 25.4665 10.4583L25.4541 10.3282C25.2456 10.3492 24.977 10.3655 24.7599 10.3765C24.6515 10.382 24.5562 10.3862 24.488 10.389C24.4538 10.3904 24.4265 10.3915 24.4077 10.3922C24.3983 10.3925 24.3911 10.3928 24.3863 10.393C24.3837 10.3931 24.382 10.3931 24.3807 10.3932C24.38 10.3932 24.3795 10.3932 24.3793 10.3932C24.3792 10.3932 24.379 10.3932 24.3789 10.3932H24.3788C24.3788 10.3932 24.3788 10.3932 24.3809 10.4586ZM24.3808 11.7038L24.4443 10.462L24.3176 10.4551L24.2541 11.697L24.3808 11.7038ZM25.6975 11.572C25.3564 11.6677 25.0141 11.684 24.7559 11.6759C24.627 11.6719 24.5197 11.6618 24.4448 11.6528C24.4075 11.6483 24.3781 11.6441 24.3583 11.641C24.3484 11.6395 24.3409 11.6382 24.336 11.6374C24.3334 11.6369 24.3315 11.6366 24.3304 11.6364C24.3298 11.6363 24.3294 11.6362 24.3291 11.6361C24.329 11.6361 24.3289 11.6361 24.3289 11.6361C24.3287 11.6361 24.3287 11.6361 24.3287 11.6361C24.3287 11.6361 24.3287 11.6361 24.3174 11.7004C24.3061 11.7647 24.3061 11.7647 24.3061 11.7647C24.3061 11.7647 24.3061 11.7647 24.3061 11.7647C24.3063 11.7647 24.3063 11.7647 24.3063 11.7647C24.3064 11.7648 24.3067 11.7648 24.3068 11.7648C24.3073 11.7649 24.3078 11.765 24.3086 11.7652C24.3101 11.7654 24.3122 11.7658 24.315 11.7663C24.3206 11.7672 24.3287 11.7686 24.3393 11.7703C24.3604 11.7735 24.3911 11.778 24.4301 11.7827C24.508 11.792 24.619 11.8024 24.752 11.8066C25.0176 11.8149 25.3737 11.7984 25.731 11.6981L25.6975 11.572ZM26.9206 11.1122C26.8824 11.0599 26.8825 11.0599 26.8825 11.0599C26.8825 11.0599 26.8825 11.0599 26.8825 11.0599V11.0599C26.8825 11.0599 26.8825 11.0599 26.8824 11.0599C26.8824 11.06 26.8821 11.0601 26.8819 11.0603C26.8814 11.0608 26.8805 11.0615 26.8792 11.0624C26.8766 11.0643 26.8726 11.0672 26.867 11.0711C26.856 11.079 26.839 11.0906 26.8157 11.1055C26.7694 11.1352 26.6984 11.1776 26.6015 11.2274C26.4077 11.327 26.1101 11.4562 25.6975 11.572L25.731 11.6981C26.1516 11.58 26.4571 11.4477 26.6583 11.3444C26.7587 11.2927 26.8331 11.2483 26.8828 11.2165C26.9077 11.2006 26.9263 11.1878 26.9389 11.1789C26.9451 11.1745 26.95 11.171 26.9533 11.1685C26.9549 11.1673 26.9562 11.1663 26.9572 11.1657C26.9576 11.1653 26.958 11.165 26.9582 11.1648C26.9583 11.1647 26.9585 11.1646 26.9586 11.1646C26.9586 11.1645 26.9587 11.1645 26.9587 11.1645C26.9587 11.1644 26.9587 11.1644 26.9587 11.1644C26.9587 11.1644 26.9588 11.1644 26.9206 11.1122ZM26.3576 10.2296L26.8655 11.1446L26.9757 11.0797L26.4678 10.1647L26.3576 10.2296Z" fill="white"/>
</g>
<defs>
<clipPath id="clip0">
<rect width="48" height="20" fill="white"/>
</clipPath>
</defs>
</svg>
