<svg width="41" height="42" viewBox="0 0 41 42" fill="none" xmlns="http://www.w3.org/2000/svg">
<rect width="41" height="42" fill="black"/>
<g clip-path="url(#clip0)">
<path fill-rule="evenodd" clip-rule="evenodd" d="M20.4986 18.4314V14.0898C20.4986 14.0898 20.455 14.0898 20.4113 14.1351C20.3726 14.1752 20.196 17.6756 20.1571 18.4582C19.1452 18.617 18.2234 19.4651 17.7177 20.6022H14.344C14.344 20.6022 14.3005 20.6224 14.3004 20.6474C14.3002 20.6926 14.344 20.7379 14.344 20.7379L17.55 21.0359C17.3976 21.4968 17.3121 21.9929 17.3121 22.5016C17.3121 22.5167 17.3122 22.5318 17.3124 22.5468H4.21689C4.21689 22.5468 4.08594 22.5921 4.08594 22.7277C4.08594 22.8634 4.21689 22.9539 4.21689 22.9539L12.2759 23.858C11.9254 24.0203 11.6812 24.3846 11.6812 24.8081C11.6812 25.3825 12.1307 25.8482 12.6851 25.8482C13.2396 25.8482 13.6891 25.3825 13.6891 24.8081C13.6891 24.4646 13.5285 24.1601 13.2808 23.9707L16.3107 24.3106H16.2645C16.2645 24.3106 16.2645 25.6673 16.2209 25.7578C16.1772 25.8482 16.0899 25.8935 16.0899 25.8935V25.9387H16.3518V24.3152L16.3955 24.3201V25.9387H16.6574V26.2552C16.6574 26.2552 16.6574 26.4814 16.8756 26.4814C17.0939 26.4814 17.0939 26.2552 17.0939 26.2552V25.4864C17.0939 25.4864 17.0939 25.3055 16.8756 25.3055C16.6574 25.3055 16.6574 25.4864 16.6574 25.4864V25.8935C16.6574 25.8935 16.5701 25.8482 16.5264 25.7578C16.4858 25.6737 16.4829 24.4956 16.4828 24.3299L17.8007 24.4777C18.3729 25.526 19.3797 26.1901 20.4504 26.2096C20.4452 26.5768 20.4344 26.9764 20.4113 27.0241C20.3677 27.1145 20.2804 27.1597 20.2804 27.1597V27.205H20.4986H20.5423H20.7605V27.1597C20.7605 27.1597 20.6732 27.1145 20.6296 27.0241C20.6065 26.9763 20.5957 26.576 20.5906 26.2084C21.6454 26.172 22.6503 25.5123 23.2274 24.4792L24.5582 24.3299C24.558 24.4956 24.5551 25.6737 24.5145 25.7578C24.4709 25.8482 24.3836 25.8935 24.3836 25.8935V25.4864C24.3836 25.4864 24.3836 25.3055 24.1653 25.3055C23.947 25.3055 23.947 25.4864 23.947 25.4864V26.2552C23.947 26.2552 23.947 26.4814 24.1653 26.4814C24.3836 26.4814 24.3836 26.2552 24.3836 26.2552V25.9387H24.6455V24.3201L24.6891 24.3152V25.9387H24.951V25.8935C24.951 25.8935 24.8637 25.8482 24.8201 25.7578C24.7764 25.6673 24.7764 24.3106 24.7764 24.3106H24.7302L27.7601 23.9707C27.5124 24.1601 27.3518 24.4646 27.3518 24.8081C27.3518 25.3825 27.8013 25.8482 28.3558 25.8482C28.9102 25.8482 29.3597 25.3825 29.3597 24.8081C29.3597 24.3846 29.1155 24.0203 28.765 23.858L36.824 22.9539C36.824 22.9539 36.955 22.8634 36.955 22.7277C36.955 22.5921 36.824 22.5468 36.824 22.5468H23.7285C23.7287 22.5318 23.7288 22.5167 23.7288 22.5016C23.7288 21.9931 23.641 21.4972 23.4849 21.0365L26.6969 20.7379C26.6969 20.7379 26.7407 20.6926 26.7405 20.6474C26.7404 20.6224 26.6969 20.6022 26.6969 20.6022H23.313C22.8031 19.4813 21.8828 18.6413 20.8842 18.4655C20.8459 17.6974 20.6684 14.1754 20.6296 14.1351C20.5859 14.0898 20.5423 14.0898 20.5423 14.0898V18.4318C20.5277 18.4315 20.5132 18.4314 20.4986 18.4314ZM12.6851 25.3055C12.9504 25.3055 13.1653 25.0828 13.1653 24.8081C13.1653 24.5333 12.9504 24.3106 12.6851 24.3106C12.42 24.3106 12.205 24.5333 12.205 24.8081C12.205 25.0828 12.42 25.3055 12.6851 25.3055ZM15.6097 26.3005V25.5317C15.6097 25.5317 15.6097 25.3508 15.828 25.3508C16.0463 25.3508 16.0463 25.5317 16.0463 25.5317V26.3005C16.0463 26.3005 16.0463 26.5266 15.828 26.5266C15.6097 26.5266 15.6097 26.3005 15.6097 26.3005ZM19.8002 27.5668V26.7979C19.8002 26.7979 19.8002 26.617 20.0185 26.617C20.2367 26.617 20.2367 26.7979 20.2367 26.7979V27.5668C20.2367 27.5668 20.2367 27.7929 20.0185 27.7929C19.8002 27.7929 19.8002 27.5668 19.8002 27.5668ZM18.8836 21.0544C18.8836 21.0544 19.2816 21.164 19.5383 21.1901C19.8272 21.2195 20.2804 21.2353 20.2804 21.2353L20.324 22.0946C20.324 22.0946 19.8439 22.185 19.3637 22.0494C18.7909 21.8875 18.5343 21.6876 18.5343 21.6876L18.8836 21.0544ZM28.3558 25.3055C28.0906 25.3055 27.8756 25.0828 27.8756 24.8081C27.8756 24.5333 28.0906 24.3106 28.3558 24.3106C28.621 24.3106 28.8359 24.5333 28.8359 24.8081C28.8359 25.0828 28.621 25.3055 28.3558 25.3055ZM25.4312 26.3005V25.5317C25.4312 25.5317 25.4312 25.3508 25.2129 25.3508C24.9947 25.3508 24.9947 25.5317 24.9947 25.5317V26.3005C24.9947 26.3005 24.9947 26.5266 25.2129 26.5266C25.4312 26.5266 25.4312 26.3005 25.4312 26.3005ZM21.2407 27.5668V26.7979C21.2407 26.7979 21.2407 26.617 21.0224 26.617C20.8042 26.617 20.8042 26.7979 20.8042 26.7979V27.5668C20.8042 27.5668 20.8042 27.7929 21.0224 27.7929C21.2407 27.7929 21.2407 27.5668 21.2407 27.5668ZM22.1574 21.0544C22.1574 21.0544 21.7594 21.164 21.5026 21.1901C21.2137 21.2195 20.7605 21.2353 20.7605 21.2353L20.7169 22.0946C20.7169 22.0946 21.197 22.185 21.6772 22.0494C22.25 21.8875 22.5066 21.6876 22.5066 21.6876L22.1574 21.0544Z" fill="white"/>
<path d="M20.4993 14.0901H20.543V14.0449L20.4993 14.0449V14.0901ZM20.4993 18.4317H20.4557V18.4769H20.4993V18.4317ZM20.412 14.1354L20.3811 14.1034L20.412 14.1354ZM20.1578 18.4585L20.1643 18.5033L20.1995 18.4977L20.2014 18.4609L20.1578 18.4585ZM17.7184 20.6025V20.6477H17.7463L17.758 20.6214L17.7184 20.6025ZM14.3447 20.6025V20.5573H14.3354L14.3268 20.5612L14.3447 20.6025ZM14.3011 20.6477L14.2574 20.6475L14.3011 20.6477ZM14.3447 20.7382L14.3139 20.7702L14.3251 20.7817L14.3408 20.7832L14.3447 20.7382ZM17.5507 21.0362L17.592 21.0509L17.6101 20.9964L17.5546 20.9912L17.5507 21.0362ZM17.3131 22.5471V22.5924H17.3572L17.3567 22.5467L17.3131 22.5471ZM4.21757 22.5471V22.5019H4.21049L4.20377 22.5042L4.21757 22.5471ZM4.21757 22.9542L4.19336 22.9918L4.20225 22.9979L4.21287 22.9991L4.21757 22.9542ZM12.2766 23.8583L12.2944 23.8995L12.4418 23.8313L12.2813 23.8133L12.2766 23.8583ZM13.2815 23.971L13.2862 23.926L13.1257 23.908L13.2556 24.0073L13.2815 23.971ZM16.3114 24.3109V24.3561L16.3161 24.2659L16.3114 24.3109ZM16.2652 24.3109V24.2657H16.2215V24.3109H16.2652ZM16.0906 25.8938L16.071 25.8533L16.0469 25.8658V25.8938H16.0906ZM16.0906 25.939H16.0469V25.9842H16.0906V25.939ZM16.3525 25.939V25.9842H16.3961V25.939H16.3525ZM16.3525 24.3155L16.3572 24.2706L16.3088 24.2651V24.3155H16.3525ZM16.3961 24.3204H16.4398V24.2798L16.4009 24.2754L16.3961 24.3204ZM16.3961 25.939H16.3525V25.9842H16.3961V25.939ZM16.658 25.939H16.7017V25.8938H16.658V25.939ZM16.8763 26.4817V26.4365V26.4817ZM16.658 25.8938L16.6385 25.9342L16.7017 25.9669V25.8938H16.658ZM16.5271 25.7581L16.4881 25.7783L16.5271 25.7581ZM16.4834 24.3302L16.4882 24.2852L16.4397 24.2798L16.4398 24.3303L16.4834 24.3302ZM17.8013 24.478L17.8393 24.4558L17.8283 24.4356L17.8061 24.4331L17.8013 24.478ZM20.451 26.2099L20.4947 26.2105L20.4953 26.1655L20.4518 26.1646L20.451 26.2099ZM20.2811 27.16L20.2615 27.1196L20.2374 27.1321V27.16H20.2811ZM20.2811 27.2053H20.2374V27.2505H20.2811V27.2053ZM20.7612 27.2053V27.2505H20.8049V27.2053H20.7612ZM20.7612 27.16H20.8049V27.1321L20.7808 27.1196L20.7612 27.16ZM20.5912 26.2087L20.5898 26.1636L20.547 26.165L20.5476 26.2094L20.5912 26.2087ZM23.2281 24.4795L23.2234 24.4345L23.2014 24.437L23.1903 24.4568L23.2281 24.4795ZM24.5588 24.3302L24.6025 24.3303L24.6026 24.2798L24.5541 24.2852L24.5588 24.3302ZM24.3842 25.8938H24.3406V25.9669L24.4038 25.9342L24.3842 25.8938ZM24.166 26.4817V26.4365V26.4817ZM24.3842 25.939V25.8938H24.3406V25.939H24.3842ZM24.6461 25.939V25.9842H24.6898V25.939H24.6461ZM24.6461 24.3204L24.6414 24.2754L24.6025 24.2798V24.3204H24.6461ZM24.6898 24.3155H24.7334V24.2651L24.6851 24.2706L24.6898 24.3155ZM24.6898 25.939H24.6461V25.9842H24.6898V25.939ZM24.9517 25.939V25.9842H24.9953V25.939H24.9517ZM24.9517 25.8938H24.9953V25.8658L24.9713 25.8533L24.9517 25.8938ZM24.7771 24.3109H24.8207V24.2657H24.7771V24.3109ZM24.7309 24.3109L24.7262 24.2659L24.7309 24.3561V24.3109ZM27.7608 23.971L27.7867 24.0073L27.9166 23.908L27.7561 23.926L27.7608 23.971ZM28.7657 23.8583L28.761 23.8133L28.6005 23.8313L28.7479 23.8995L28.7657 23.8583ZM36.8247 22.9542L36.8294 22.9991L36.8401 22.9979L36.8489 22.9918L36.8247 22.9542ZM36.8247 22.5471L36.8385 22.5042L36.8318 22.5019H36.8247V22.5471ZM23.7292 22.5471L23.6856 22.5467L23.6851 22.5924H23.7292V22.5471ZM23.4856 21.0368L23.4816 20.9918L23.4258 20.997L23.4443 21.0518L23.4856 21.0368ZM26.6976 20.7382L26.7015 20.7832L26.7172 20.7817L26.7284 20.7702L26.6976 20.7382ZM26.7412 20.6477L26.7849 20.6475V20.6475L26.7412 20.6477ZM26.6976 20.6025L26.7155 20.5612L26.7069 20.5573H26.6976V20.6025ZM23.3137 20.6025L23.2742 20.6218L23.286 20.6477H23.3137V20.6025ZM20.8849 18.4658L20.8413 18.4681L20.8431 18.5043L20.8776 18.5104L20.8849 18.4658ZM20.6303 14.1354L20.5994 14.1674V14.1674L20.6303 14.1354ZM20.543 14.0901V14.0449L20.4993 14.0449V14.0901H20.543ZM20.543 18.4321L20.5421 18.4774L20.5866 18.4783V18.4321H20.543ZM15.8287 26.5269V26.4817V26.5269ZM19.539 21.1904L19.5433 21.1454L19.539 21.1904ZM18.8842 21.0547L18.8954 21.011L18.863 21.0021L18.8463 21.0323L18.8842 21.0547ZM20.2811 21.2356L20.3246 21.2332L20.3225 21.1918L20.2825 21.1904L20.2811 21.2356ZM20.3247 22.0949L20.3325 22.1394L20.3703 22.1323L20.3683 22.0925L20.3247 22.0949ZM19.3644 22.0497L19.3529 22.0933L19.3644 22.0497ZM18.535 21.6879L18.4971 21.6654L18.478 21.7L18.5088 21.724L18.535 21.6879ZM25.2136 26.5269V26.4817V26.5269ZM21.5033 21.1904L21.499 21.1454L21.5033 21.1904ZM22.158 21.0547L22.1959 21.0323L22.1793 21.0021L22.1469 21.011L22.158 21.0547ZM20.7612 21.2356L20.7597 21.1904L20.7198 21.1918L20.7177 21.2332L20.7612 21.2356ZM20.7176 22.0949L20.674 22.0925L20.672 22.1323L20.7098 22.1394L20.7176 22.0949ZM21.6779 22.0497L21.6894 22.0933L21.6779 22.0497ZM22.5073 21.6879L22.5335 21.724L22.5643 21.7L22.5451 21.6654L22.5073 21.6879ZM20.4557 14.0901V18.4317H20.543V14.0901H20.4557ZM20.4429 14.1674C20.4593 14.1503 20.4751 14.1424 20.4859 14.1387C20.4913 14.1368 20.4955 14.136 20.498 14.1356C20.4992 14.1354 20.5 14.1354 20.5003 14.1354C20.5004 14.1354 20.5004 14.1354 20.5002 14.1354C20.5002 14.1354 20.5 14.1354 20.4999 14.1354C20.4998 14.1354 20.4998 14.1354 20.4997 14.1354C20.4996 14.1354 20.4995 14.1354 20.4995 14.1354H20.4994C20.4993 14.1354 20.4993 14.1354 20.4993 14.0901C20.4993 14.0449 20.4993 14.0449 20.4992 14.0449C20.4992 14.0449 20.4991 14.0449 20.4991 14.0449C20.4991 14.0449 20.499 14.0449 20.499 14.0449C20.4988 14.0449 20.4986 14.0449 20.4985 14.0449C20.4982 14.0449 20.4978 14.0449 20.4974 14.045C20.4966 14.045 20.4956 14.045 20.4944 14.0451C20.4922 14.0453 20.4892 14.0456 20.4856 14.0461C20.4785 14.0471 20.4692 14.0491 20.4582 14.0529C20.4362 14.0605 20.4083 14.0753 20.3811 14.1034L20.4429 14.1674ZM20.2014 18.4609C20.2208 18.0696 20.2747 16.9989 20.3286 16.0211C20.3554 15.5322 20.3824 15.0666 20.4049 14.7208C20.4163 14.5479 20.4265 14.4052 20.4351 14.3045C20.4393 14.2542 20.4432 14.2148 20.4465 14.1876C20.4482 14.1739 20.4496 14.1641 20.4509 14.1577C20.4511 14.1562 20.4514 14.155 20.4516 14.1542C20.4517 14.1532 20.4519 14.1529 20.4518 14.1529C20.4518 14.1529 20.4518 14.1532 20.4516 14.1536C20.4516 14.1539 20.4513 14.1546 20.4509 14.1556C20.4505 14.1564 20.4482 14.1618 20.4429 14.1674L20.3811 14.1034C20.3752 14.1095 20.3723 14.116 20.3713 14.1183C20.3699 14.1215 20.369 14.1244 20.3684 14.1266C20.3671 14.1311 20.366 14.1359 20.3651 14.1404C20.3634 14.1497 20.3616 14.1619 20.3599 14.1763C20.3563 14.2052 20.3524 14.2459 20.3481 14.2966C20.3395 14.3981 20.3292 14.5416 20.3179 14.7147C20.2952 15.061 20.2683 15.5269 20.2414 16.016C20.1876 16.994 20.1337 18.0649 20.1141 18.4562L20.2014 18.4609ZM17.758 20.6214C18.2595 19.4938 19.1709 18.6591 20.1643 18.5033L20.1512 18.4138C19.1208 18.5755 18.1886 19.4369 17.6788 20.5836L17.758 20.6214ZM14.3447 20.6477H17.7184V20.5573H14.3447V20.6477ZM14.3447 20.6479C14.3447 20.6554 14.3415 20.6591 14.3423 20.658C14.3429 20.6572 14.3449 20.6551 14.3486 20.6523C14.352 20.6498 14.3557 20.6475 14.3587 20.6458C14.3601 20.645 14.3613 20.6444 14.362 20.644C14.3624 20.6439 14.3626 20.6437 14.3627 20.6437C14.3628 20.6437 14.3628 20.6437 14.3628 20.6437C14.3627 20.6437 14.3627 20.6437 14.3627 20.6437C14.3627 20.6437 14.3627 20.6437 14.3626 20.6437V20.6437V20.6437C14.3626 20.6437 14.3626 20.6437 14.3447 20.6025C14.3268 20.5612 14.3268 20.5612 14.3268 20.5612V20.5612C14.3268 20.5612 14.3268 20.5613 14.3267 20.5613C14.3267 20.5613 14.3267 20.5613 14.3267 20.5613C14.3266 20.5613 14.3266 20.5614 14.3264 20.5614C14.3262 20.5615 14.326 20.5616 14.3258 20.5617C14.3253 20.562 14.3246 20.5623 14.3237 20.5628C14.322 20.5636 14.3198 20.5648 14.3171 20.5663C14.312 20.5692 14.3047 20.5735 14.2973 20.5791C14.2901 20.5845 14.2812 20.5922 14.2736 20.6022C14.2662 20.6119 14.2575 20.6275 14.2574 20.6475L14.3447 20.6479ZM14.3447 20.7382C14.3755 20.7061 14.3755 20.7061 14.3755 20.7061C14.3755 20.7061 14.3755 20.7061 14.3755 20.7061C14.3755 20.7062 14.3755 20.7062 14.3755 20.7062C14.3756 20.7062 14.3756 20.7062 14.3756 20.7062C14.3756 20.7062 14.3756 20.7062 14.3756 20.7062C14.3756 20.7062 14.3756 20.7062 14.3755 20.7061C14.3754 20.706 14.3751 20.7057 14.3747 20.7052C14.3739 20.7043 14.3726 20.7028 14.371 20.7009C14.3677 20.697 14.3634 20.6914 14.3591 20.6848C14.3496 20.6701 14.3447 20.6568 14.3447 20.6479L14.2574 20.6475C14.2573 20.6839 14.2742 20.7158 14.2865 20.735C14.2932 20.7454 14.2999 20.7539 14.3047 20.7599C14.3073 20.7629 14.3094 20.7653 14.3109 20.767C14.3118 20.7679 14.3124 20.7686 14.313 20.7692C14.3132 20.7694 14.3134 20.7696 14.3136 20.7698C14.3136 20.7699 14.3137 20.77 14.3137 20.77C14.3138 20.7701 14.3138 20.7701 14.3138 20.7701C14.3138 20.7701 14.3139 20.7701 14.3139 20.7702C14.3139 20.7702 14.3139 20.7702 14.3139 20.7702C14.3139 20.7702 14.3139 20.7702 14.3447 20.7382ZM17.5546 20.9912L14.3487 20.6931L14.3408 20.7832L17.5469 21.0813L17.5546 20.9912ZM17.3565 22.5019C17.3565 21.9984 17.4411 21.5073 17.592 21.0509L17.5094 21.0216C17.3555 21.4869 17.2692 21.9879 17.2692 22.5019H17.3565ZM17.3567 22.5467C17.3565 22.5318 17.3565 22.5169 17.3565 22.5019H17.2692C17.2692 22.5172 17.2692 22.5324 17.2694 22.5476L17.3567 22.5467ZM4.21757 22.5924H17.3131V22.5019H4.21757V22.5924ZM4.13027 22.728C4.13027 22.6774 4.15403 22.6439 4.18004 22.6215C4.19321 22.6101 4.20655 22.602 4.21663 22.5968C4.22162 22.5942 4.22568 22.5924 4.22832 22.5913C4.22964 22.5907 4.2306 22.5903 4.23113 22.5901C4.23139 22.59 4.23155 22.59 4.2316 22.59C4.23162 22.59 4.23161 22.59 4.23158 22.59C4.23156 22.59 4.23153 22.59 4.2315 22.59C4.23148 22.59 4.23146 22.59 4.23144 22.59C4.23143 22.59 4.23142 22.59 4.23141 22.59C4.23139 22.59 4.23138 22.59 4.21757 22.5471C4.20377 22.5042 4.20375 22.5042 4.20373 22.5042C4.20372 22.5042 4.2037 22.5043 4.20369 22.5043C4.20366 22.5043 4.20363 22.5043 4.2036 22.5043C4.20353 22.5043 4.20346 22.5043 4.20338 22.5044C4.20322 22.5044 4.20302 22.5045 4.2028 22.5046C4.20234 22.5047 4.20177 22.505 4.20107 22.5052C4.19969 22.5057 4.19783 22.5065 4.19557 22.5074C4.19105 22.5093 4.18487 22.5121 4.17759 22.5159C4.16312 22.5234 4.14372 22.5351 4.12415 22.552C4.08468 22.586 4.04297 22.643 4.04297 22.728H4.13027ZM4.21757 22.9542C4.24178 22.9165 4.2418 22.9165 4.24181 22.9165C4.24181 22.9165 4.24182 22.9166 4.24183 22.9166C4.24184 22.9166 4.24185 22.9166 4.24186 22.9166C4.24188 22.9166 4.24189 22.9166 4.24189 22.9166C4.24189 22.9166 4.24187 22.9166 4.24181 22.9165C4.2417 22.9165 4.24147 22.9163 4.24113 22.9161C4.24046 22.9156 4.23935 22.9148 4.23787 22.9136C4.2349 22.9114 4.23047 22.9078 4.22506 22.9032C4.21418 22.8938 4.19966 22.88 4.18524 22.8625C4.1558 22.827 4.13027 22.7806 4.13027 22.728H4.04297C4.04297 22.8112 4.08292 22.8778 4.11895 22.9214C4.13727 22.9435 4.15549 22.9608 4.16917 22.9726C4.17603 22.9786 4.18183 22.9832 4.18602 22.9864C4.18812 22.988 4.18983 22.9893 4.19107 22.9902C4.19169 22.9906 4.1922 22.991 4.19258 22.9912C4.19277 22.9914 4.19294 22.9915 4.19307 22.9916C4.19313 22.9916 4.19319 22.9917 4.19324 22.9917C4.19326 22.9917 4.19328 22.9917 4.1933 22.9917C4.19331 22.9918 4.19333 22.9918 4.19333 22.9918C4.19335 22.9918 4.19336 22.9918 4.21757 22.9542ZM12.2813 23.8133L4.22227 22.9092L4.21287 22.9991L12.2719 23.9032L12.2813 23.8133ZM11.7255 24.8084C11.7255 24.4034 11.9591 24.0548 12.2944 23.8995L12.2588 23.817C11.8931 23.9863 11.6382 24.3664 11.6382 24.8084H11.7255ZM12.6858 25.8033C12.1555 25.8033 11.7255 25.3578 11.7255 24.8084H11.6382C11.6382 25.4078 12.1072 25.8938 12.6858 25.8938V25.8033ZM13.6461 24.8084C13.6461 25.3578 13.2162 25.8033 12.6858 25.8033V25.8938C13.2644 25.8938 13.7334 25.4078 13.7334 24.8084H13.6461ZM13.2556 24.0073C13.4926 24.1886 13.6461 24.4799 13.6461 24.8084H13.7334C13.7334 24.45 13.5657 24.1322 13.3074 23.9346L13.2556 24.0073ZM16.3161 24.2659L13.2862 23.926L13.2768 24.0159L16.3067 24.3558L16.3161 24.2659ZM16.2652 24.3561H16.3114V24.2657H16.2652V24.3561ZM16.2606 25.7783C16.2666 25.7659 16.2699 25.7489 16.2723 25.7344C16.2749 25.7179 16.2772 25.6976 16.2794 25.6741C16.2837 25.6274 16.2873 25.5661 16.2904 25.4959C16.2965 25.3553 16.3006 25.1767 16.3033 25.0013C16.3061 24.8258 16.3074 24.6532 16.3081 24.5245C16.3085 24.4602 16.3087 24.4068 16.3088 24.3695C16.3088 24.3508 16.3088 24.3362 16.3088 24.3262C16.3088 24.3212 16.3088 24.3174 16.3088 24.3148C16.3088 24.3135 16.3088 24.3125 16.3088 24.3119C16.3088 24.3115 16.3088 24.3113 16.3088 24.3112C16.3088 24.3111 16.3088 24.311 16.3088 24.311C16.3088 24.3109 16.3088 24.3109 16.3088 24.3109C16.3088 24.3109 16.3088 24.3109 16.2652 24.3109C16.2215 24.3109 16.2215 24.3109 16.2215 24.3109C16.2215 24.3109 16.2215 24.3109 16.2215 24.311C16.2215 24.311 16.2215 24.3111 16.2215 24.3112C16.2215 24.3113 16.2215 24.3115 16.2215 24.3119C16.2215 24.3125 16.2215 24.3135 16.2215 24.3148C16.2215 24.3173 16.2215 24.3211 16.2215 24.3261C16.2215 24.336 16.2215 24.3506 16.2215 24.3692C16.2214 24.4065 16.2212 24.4598 16.2208 24.5241C16.2201 24.6525 16.2188 24.8248 16.2161 24.9998C16.2133 25.175 16.2093 25.3525 16.2032 25.4917C16.2001 25.5614 16.1966 25.621 16.1925 25.6656C16.1905 25.6881 16.1884 25.7061 16.1862 25.7195C16.1837 25.7347 16.1819 25.739 16.1825 25.7378L16.2606 25.7783ZM16.0906 25.8938C16.1101 25.9342 16.1101 25.9342 16.1101 25.9342H16.1102C16.1102 25.9341 16.1103 25.9341 16.1103 25.9341C16.1105 25.934 16.1106 25.9339 16.1108 25.9339C16.111 25.9337 16.1114 25.9336 16.1119 25.9333C16.1128 25.9327 16.114 25.9321 16.1155 25.9312C16.1185 25.9295 16.1227 25.927 16.1278 25.9238C16.1379 25.9174 16.1517 25.9078 16.167 25.8951C16.1972 25.8701 16.235 25.8313 16.2606 25.7783L16.1825 25.7378C16.1644 25.7753 16.1368 25.8044 16.1124 25.8246C16.1005 25.8345 16.0896 25.8419 16.082 25.8467C16.0783 25.8492 16.0752 25.851 16.0733 25.8521C16.0723 25.8526 16.0717 25.853 16.0713 25.8531C16.0711 25.8533 16.0709 25.8533 16.0709 25.8533C16.0709 25.8534 16.0709 25.8534 16.0709 25.8533C16.0709 25.8533 16.0709 25.8533 16.071 25.8533C16.071 25.8533 16.071 25.8533 16.0906 25.8938ZM16.1342 25.939V25.8938H16.0469V25.939H16.1342ZM16.3525 25.8938H16.0906V25.9842H16.3525V25.8938ZM16.3088 24.3155V25.939H16.3961V24.3155H16.3088ZM16.4009 24.2754L16.3572 24.2706L16.3478 24.3605L16.3914 24.3653L16.4009 24.2754ZM16.4398 25.939V24.3204H16.3525V25.939H16.4398ZM16.658 25.8938H16.3961V25.9842H16.658V25.8938ZM16.7017 26.2556V25.939H16.6144V26.2556H16.7017ZM16.8763 26.4365C16.8293 26.4365 16.7971 26.4244 16.7743 26.4087C16.7513 26.3929 16.7354 26.3713 16.7244 26.3484C16.7132 26.3253 16.7075 26.3017 16.7045 26.2834C16.7031 26.2745 16.7024 26.267 16.702 26.2621C16.7019 26.2595 16.7018 26.2577 16.7017 26.2565C16.7017 26.256 16.7017 26.2556 16.7017 26.2555C16.7017 26.2554 16.7017 26.2554 16.7017 26.2554C16.7017 26.2555 16.7017 26.2555 16.7017 26.2555C16.7017 26.2555 16.7017 26.2555 16.7017 26.2556C16.7017 26.2556 16.7017 26.2556 16.658 26.2556C16.6144 26.2556 16.6144 26.2556 16.6144 26.2556V26.2557C16.6144 26.2558 16.6144 26.2559 16.6144 26.2561C16.6144 26.2563 16.6144 26.2565 16.6144 26.2569C16.6144 26.2576 16.6144 26.2585 16.6145 26.2596C16.6146 26.2618 16.6147 26.2648 16.6149 26.2685C16.6154 26.2759 16.6164 26.2861 16.6184 26.2983C16.6223 26.3225 16.6301 26.3554 16.6463 26.3889C16.6625 26.4224 16.6876 26.4574 16.7259 26.4839C16.7646 26.5106 16.8141 26.5269 16.8763 26.5269V26.4365ZM17.0946 26.2556C17.0509 26.2556 17.0509 26.2556 17.0509 26.2556C17.0509 26.2555 17.0509 26.2555 17.0509 26.2555C17.0509 26.2555 17.0509 26.2555 17.0509 26.2554C17.0509 26.2554 17.0509 26.2554 17.0509 26.2555C17.0509 26.2556 17.0509 26.256 17.0509 26.2565C17.0508 26.2577 17.0507 26.2595 17.0506 26.2621C17.0502 26.267 17.0495 26.2745 17.0481 26.2834C17.0451 26.3017 17.0394 26.3253 17.0282 26.3484C17.0172 26.3713 17.0013 26.3929 16.9783 26.4087C16.9555 26.4244 16.9233 26.4365 16.8763 26.4365V26.5269C16.9385 26.5269 16.988 26.5106 17.0267 26.4839C17.065 26.4574 17.0901 26.4224 17.1063 26.3889C17.1225 26.3554 17.1303 26.3225 17.1342 26.2983C17.1362 26.2861 17.1372 26.2759 17.1377 26.2685C17.1379 26.2648 17.138 26.2618 17.1381 26.2596C17.1382 26.2585 17.1382 26.2576 17.1382 26.2569C17.1382 26.2565 17.1382 26.2563 17.1382 26.2561C17.1382 26.2559 17.1382 26.2558 17.1382 26.2557V26.2556C17.1382 26.2556 17.1382 26.2556 17.0946 26.2556ZM17.0509 25.4867V26.2556H17.1382V25.4867H17.0509ZM16.8763 25.3511C16.9715 25.3511 17.0115 25.3891 17.0303 25.4203C17.0405 25.4372 17.0458 25.4544 17.0484 25.4676C17.0497 25.4743 17.0504 25.4795 17.0506 25.483C17.0508 25.4847 17.0509 25.4859 17.0509 25.4866C17.0509 25.4869 17.0509 25.4871 17.0509 25.4871C17.0509 25.4872 17.0509 25.4871 17.0509 25.4871C17.0509 25.487 17.0509 25.487 17.0509 25.4869V25.4868C17.0509 25.4867 17.0509 25.4867 17.0946 25.4867C17.1382 25.4867 17.1382 25.4867 17.1382 25.4866C17.1382 25.4866 17.1382 25.4866 17.1382 25.4865C17.1382 25.4864 17.1382 25.4863 17.1382 25.4862C17.1382 25.4859 17.1382 25.4856 17.1382 25.4853C17.1382 25.4847 17.1381 25.4838 17.1381 25.4828C17.138 25.4809 17.1379 25.4781 17.1376 25.475C17.1371 25.4685 17.1359 25.4597 17.1338 25.4493C17.1297 25.4286 17.1214 25.4006 17.1042 25.3723C17.0684 25.313 16.9994 25.2606 16.8763 25.2606V25.3511ZM16.658 25.4867C16.7017 25.4867 16.7017 25.4867 16.7017 25.4868V25.4869C16.7017 25.487 16.7017 25.487 16.7017 25.4871C16.7017 25.4871 16.7017 25.4872 16.7017 25.4871C16.7017 25.4871 16.7017 25.4869 16.7017 25.4866C16.7017 25.4859 16.7018 25.4847 16.702 25.483C16.7022 25.4795 16.7029 25.4743 16.7042 25.4676C16.7068 25.4544 16.7121 25.4372 16.7223 25.4203C16.7411 25.3891 16.7811 25.3511 16.8763 25.3511V25.2606C16.7532 25.2606 16.6841 25.313 16.6484 25.3723C16.6312 25.4006 16.6229 25.4286 16.6188 25.4493C16.6167 25.4597 16.6155 25.4685 16.615 25.475C16.6147 25.4781 16.6146 25.4809 16.6145 25.4828C16.6145 25.4838 16.6144 25.4847 16.6144 25.4853C16.6144 25.4856 16.6144 25.4859 16.6144 25.4862C16.6144 25.4863 16.6144 25.4864 16.6144 25.4865C16.6144 25.4866 16.6144 25.4866 16.6144 25.4866C16.6144 25.4867 16.6144 25.4867 16.658 25.4867ZM16.7017 25.8938V25.4867H16.6144V25.8938H16.7017ZM16.4881 25.7783C16.5136 25.8313 16.5515 25.8701 16.5817 25.8951C16.5969 25.9078 16.6107 25.9174 16.6209 25.9238C16.6259 25.927 16.6301 25.9295 16.6332 25.9312C16.6346 25.9321 16.6359 25.9327 16.6367 25.9333C16.6373 25.9336 16.6376 25.9337 16.6379 25.9339C16.6381 25.9339 16.6381 25.934 16.6383 25.9341C16.6383 25.9341 16.6384 25.9341 16.6384 25.9342H16.6385C16.6385 25.9342 16.6385 25.9342 16.658 25.8938C16.6776 25.8533 16.6776 25.8533 16.6776 25.8533C16.6777 25.8533 16.6777 25.8533 16.6777 25.8533C16.6777 25.8534 16.6777 25.8534 16.6777 25.8533C16.6777 25.8533 16.6775 25.8533 16.6773 25.8531C16.6769 25.853 16.6763 25.8526 16.6753 25.8521C16.6734 25.851 16.6704 25.8492 16.6666 25.8467C16.659 25.8419 16.6482 25.8345 16.6362 25.8246C16.6119 25.8044 16.5842 25.7753 16.5661 25.7378L16.4881 25.7783ZM16.4398 24.3303C16.4399 24.4132 16.4407 24.7494 16.4465 25.0756C16.4494 25.2386 16.4536 25.3995 16.4596 25.5251C16.4626 25.5878 16.4661 25.6422 16.4702 25.6839C16.4722 25.7047 16.4745 25.723 16.4769 25.7378C16.4792 25.751 16.4824 25.7665 16.4881 25.7783L16.5661 25.7378C16.5667 25.7392 16.5652 25.7356 16.5629 25.7222C16.5609 25.7104 16.559 25.6946 16.557 25.6749C16.5532 25.6353 16.5498 25.5827 16.5468 25.5206C16.5408 25.3964 16.5367 25.2366 16.5338 25.0739C16.528 24.7486 16.5272 24.4129 16.5271 24.3302L16.4398 24.3303ZM17.8061 24.4331L16.4882 24.2852L16.4787 24.3751L17.7966 24.523L17.8061 24.4331ZM20.4518 26.1646C19.3984 26.1456 18.4049 25.4917 17.8393 24.4558L17.7634 24.5003C18.3423 25.5608 19.3624 26.2354 20.4503 26.2551L20.4518 26.1646ZM20.451 27.0446C20.4573 27.0316 20.4607 27.0136 20.4632 26.9979C20.466 26.9802 20.4683 26.9581 20.4706 26.9327C20.475 26.8817 20.4787 26.815 20.4819 26.7389C20.4881 26.5865 20.4922 26.3943 20.4947 26.2105L20.4074 26.2092C20.4049 26.3927 20.4008 26.5839 20.3946 26.735C20.3915 26.8106 20.3878 26.8758 20.3836 26.9246C20.3815 26.949 20.3793 26.9688 20.377 26.9836C20.3744 27.0003 20.3725 27.0052 20.373 27.0041L20.451 27.0446ZM20.2811 27.16C20.3006 27.2005 20.3006 27.2005 20.3006 27.2005H20.3007C20.3007 27.2004 20.3008 27.2004 20.3008 27.2004C20.301 27.2003 20.3011 27.2002 20.3012 27.2002C20.3015 27.2 20.3018 27.1998 20.3024 27.1996C20.3032 27.199 20.3045 27.1984 20.3059 27.1975C20.309 27.1958 20.3132 27.1933 20.3183 27.1901C20.3284 27.1837 20.3422 27.1741 20.3575 27.1614C20.3877 27.1363 20.4255 27.0976 20.451 27.0446L20.373 27.0041C20.3549 27.0416 20.3272 27.0707 20.3029 27.0908C20.2909 27.1008 20.2801 27.1082 20.2725 27.113C20.2688 27.1155 20.2657 27.1173 20.2638 27.1183C20.2628 27.1189 20.2622 27.1192 20.2618 27.1194C20.2616 27.1196 20.2614 27.1196 20.2614 27.1196C20.2614 27.1197 20.2614 27.1197 20.2614 27.1196C20.2614 27.1196 20.2614 27.1196 20.2615 27.1196C20.2615 27.1196 20.2615 27.1196 20.2811 27.16ZM20.3247 27.2053V27.16H20.2374V27.2053H20.3247ZM20.4993 27.16H20.2811V27.2505H20.4993V27.16ZM20.543 27.16H20.4993V27.2505H20.543V27.16ZM20.7612 27.16H20.543V27.2505H20.7612V27.16ZM20.7176 27.16V27.2053H20.8049V27.16H20.7176ZM20.5912 27.0446C20.6168 27.0976 20.6546 27.1363 20.6848 27.1614C20.7001 27.1741 20.7139 27.1837 20.724 27.1901C20.7291 27.1933 20.7333 27.1958 20.7363 27.1975C20.7378 27.1984 20.739 27.199 20.7399 27.1996C20.7404 27.1998 20.7408 27.2 20.7411 27.2002C20.7412 27.2002 20.7413 27.2003 20.7415 27.2004C20.7415 27.2004 20.7416 27.2004 20.7416 27.2005H20.7417C20.7417 27.2005 20.7417 27.2005 20.7612 27.16C20.7808 27.1196 20.7808 27.1196 20.7808 27.1196C20.7809 27.1196 20.7809 27.1196 20.7809 27.1196C20.7809 27.1197 20.7809 27.1197 20.7809 27.1196C20.7809 27.1196 20.7807 27.1196 20.7805 27.1194C20.7801 27.1192 20.7795 27.1189 20.7785 27.1183C20.7766 27.1173 20.7735 27.1155 20.7698 27.113C20.7622 27.1082 20.7514 27.1008 20.7394 27.0908C20.715 27.0707 20.6874 27.0416 20.6693 27.0041L20.5912 27.0446ZM20.5476 26.2094C20.5501 26.3933 20.5541 26.5858 20.5604 26.7384C20.5636 26.8146 20.5672 26.8815 20.5717 26.9326C20.5739 26.958 20.5763 26.9801 20.5791 26.9979C20.5816 27.0135 20.585 27.0316 20.5912 27.0446L20.6693 27.0041C20.6698 27.0052 20.6679 27.0003 20.6653 26.9836C20.663 26.9687 20.6607 26.9489 20.6586 26.9244C20.6544 26.8755 20.6508 26.8103 20.6476 26.7346C20.6414 26.5832 20.6374 26.3918 20.6349 26.2081L20.5476 26.2094ZM23.1903 24.4568C22.6199 25.478 21.628 26.1277 20.5898 26.1636L20.5926 26.2539C21.6642 26.217 22.682 25.5473 23.2659 24.5021L23.1903 24.4568ZM24.5541 24.2852L23.2234 24.4345L23.2328 24.5244L24.5636 24.3751L24.5541 24.2852ZM24.5542 25.7783C24.5599 25.7665 24.5631 25.751 24.5654 25.7378C24.5678 25.723 24.5701 25.7047 24.5721 25.6839C24.5762 25.6422 24.5797 25.5878 24.5827 25.5251C24.5887 25.3995 24.5929 25.2386 24.5958 25.0756C24.6016 24.7494 24.6024 24.4132 24.6025 24.3303L24.5152 24.3302C24.5151 24.4129 24.5143 24.7486 24.5085 25.0739C24.5056 25.2366 24.5015 25.3964 24.4955 25.5206C24.4925 25.5827 24.4891 25.6353 24.4852 25.6749C24.4833 25.6946 24.4814 25.7104 24.4794 25.7222C24.4771 25.7356 24.4756 25.7392 24.4762 25.7378L24.5542 25.7783ZM24.3842 25.8938C24.4038 25.9342 24.4038 25.9342 24.4038 25.9342H24.4039C24.4039 25.9341 24.404 25.9341 24.404 25.9341C24.4041 25.934 24.4042 25.9339 24.4044 25.9339C24.4047 25.9337 24.405 25.9336 24.4055 25.9333C24.4064 25.9327 24.4076 25.9321 24.4091 25.9312C24.4122 25.9295 24.4164 25.927 24.4214 25.9238C24.4316 25.9174 24.4453 25.9078 24.4606 25.8951C24.4908 25.8701 24.5286 25.8313 24.5542 25.7783L24.4762 25.7378C24.4581 25.7753 24.4304 25.8044 24.4061 25.8246C24.3941 25.8345 24.3833 25.8419 24.3757 25.8467C24.3719 25.8492 24.3689 25.851 24.367 25.8521C24.366 25.8526 24.3654 25.853 24.3649 25.8531C24.3648 25.8533 24.3646 25.8533 24.3646 25.8533C24.3646 25.8534 24.3646 25.8534 24.3646 25.8533C24.3646 25.8533 24.3646 25.8533 24.3647 25.8533C24.3647 25.8533 24.3647 25.8533 24.3842 25.8938ZM24.3406 25.4867V25.8938H24.4279V25.4867H24.3406ZM24.166 25.3511C24.2611 25.3511 24.3012 25.3891 24.32 25.4203C24.3302 25.4372 24.3354 25.4544 24.3381 25.4676C24.3394 25.4743 24.3401 25.4795 24.3403 25.483C24.3405 25.4847 24.3406 25.4859 24.3406 25.4866C24.3406 25.4869 24.3406 25.4871 24.3406 25.4871C24.3406 25.4872 24.3406 25.4871 24.3406 25.4871C24.3406 25.487 24.3406 25.487 24.3406 25.4869V25.4868C24.3406 25.4867 24.3406 25.4867 24.3842 25.4867C24.4279 25.4867 24.4279 25.4867 24.4279 25.4866C24.4279 25.4866 24.4279 25.4866 24.4279 25.4865C24.4279 25.4864 24.4279 25.4863 24.4279 25.4862C24.4279 25.4859 24.4279 25.4856 24.4279 25.4853C24.4279 25.4847 24.4278 25.4838 24.4278 25.4828C24.4277 25.4809 24.4275 25.4781 24.4273 25.475C24.4268 25.4685 24.4256 25.4597 24.4235 25.4493C24.4194 25.4286 24.411 25.4006 24.3939 25.3723C24.3581 25.313 24.2891 25.2606 24.166 25.2606V25.3511ZM23.9477 25.4867C23.9914 25.4867 23.9914 25.4867 23.9914 25.4868V25.4869C23.9914 25.487 23.9914 25.487 23.9914 25.4871C23.9914 25.4871 23.9914 25.4872 23.9914 25.4871C23.9914 25.4871 23.9914 25.4869 23.9914 25.4866C23.9914 25.4859 23.9915 25.4847 23.9916 25.483C23.9919 25.4795 23.9926 25.4743 23.9939 25.4676C23.9965 25.4544 24.0018 25.4372 24.012 25.4203C24.0308 25.3891 24.0708 25.3511 24.166 25.3511V25.2606C24.0429 25.2606 23.9738 25.313 23.938 25.3723C23.9209 25.4006 23.9125 25.4286 23.9084 25.4493C23.9063 25.4597 23.9052 25.4685 23.9047 25.475C23.9044 25.4781 23.9043 25.4809 23.9042 25.4828C23.9042 25.4838 23.9041 25.4847 23.9041 25.4853C23.9041 25.4856 23.9041 25.4859 23.9041 25.4862C23.9041 25.4863 23.9041 25.4864 23.9041 25.4865C23.9041 25.4866 23.9041 25.4866 23.9041 25.4866C23.9041 25.4867 23.9041 25.4867 23.9477 25.4867ZM23.9914 26.2556V25.4867H23.9041V26.2556H23.9914ZM24.166 26.4365C24.119 26.4365 24.0868 26.4244 24.064 26.4087C24.041 26.3929 24.0251 26.3713 24.0141 26.3484C24.0029 26.3253 23.9971 26.3017 23.9942 26.2834C23.9928 26.2745 23.9921 26.267 23.9917 26.2621C23.9916 26.2595 23.9915 26.2577 23.9914 26.2565C23.9914 26.256 23.9914 26.2556 23.9914 26.2555C23.9914 26.2554 23.9914 26.2554 23.9914 26.2554C23.9914 26.2555 23.9914 26.2555 23.9914 26.2555C23.9914 26.2555 23.9914 26.2555 23.9914 26.2556C23.9914 26.2556 23.9914 26.2556 23.9477 26.2556C23.9041 26.2556 23.9041 26.2556 23.9041 26.2556V26.2557C23.9041 26.2558 23.9041 26.2559 23.9041 26.2561C23.9041 26.2563 23.9041 26.2565 23.9041 26.2569C23.9041 26.2576 23.9041 26.2585 23.9042 26.2596C23.9043 26.2618 23.9043 26.2648 23.9046 26.2685C23.9051 26.2759 23.9061 26.2861 23.9081 26.2983C23.9119 26.3225 23.9198 26.3554 23.9359 26.3889C23.9522 26.4224 23.9772 26.4574 24.0156 26.4839C24.0542 26.5106 24.1038 26.5269 24.166 26.5269V26.4365ZM24.3842 26.2556C24.3406 26.2556 24.3406 26.2556 24.3406 26.2556C24.3406 26.2555 24.3406 26.2555 24.3406 26.2555C24.3406 26.2555 24.3406 26.2555 24.3406 26.2554C24.3406 26.2554 24.3406 26.2554 24.3406 26.2555C24.3406 26.2556 24.3406 26.256 24.3406 26.2565C24.3405 26.2577 24.3404 26.2595 24.3402 26.2621C24.3399 26.267 24.3392 26.2745 24.3378 26.2834C24.3348 26.3017 24.3291 26.3253 24.3179 26.3484C24.3069 26.3713 24.291 26.3929 24.268 26.4087C24.2452 26.4244 24.2129 26.4365 24.166 26.4365V26.5269C24.2281 26.5269 24.2777 26.5106 24.3164 26.4839C24.3547 26.4574 24.3798 26.4224 24.396 26.3889C24.4122 26.3554 24.42 26.3225 24.4239 26.2983C24.4259 26.2861 24.4268 26.2759 24.4274 26.2685C24.4276 26.2648 24.4277 26.2618 24.4278 26.2596C24.4279 26.2585 24.4279 26.2576 24.4279 26.2569C24.4279 26.2565 24.4279 26.2563 24.4279 26.2561C24.4279 26.2559 24.4279 26.2558 24.4279 26.2557V26.2556C24.4279 26.2556 24.4279 26.2556 24.3842 26.2556ZM24.3406 25.939V26.2556H24.4279V25.939H24.3406ZM24.6461 25.8938H24.3842V25.9842H24.6461V25.8938ZM24.6025 24.3204V25.939H24.6898V24.3204H24.6025ZM24.6851 24.2706L24.6414 24.2754L24.6509 24.3653L24.6945 24.3605L24.6851 24.2706ZM24.7334 25.939V24.3155H24.6461V25.939H24.7334ZM24.9517 25.8938H24.6898V25.9842H24.9517V25.8938ZM24.908 25.8938V25.939H24.9953V25.8938H24.908ZM24.7817 25.7783C24.8073 25.8313 24.8451 25.8701 24.8753 25.8951C24.8906 25.9078 24.9044 25.9174 24.9145 25.9238C24.9196 25.927 24.9238 25.9295 24.9268 25.9312C24.9283 25.9321 24.9295 25.9327 24.9304 25.9333C24.9309 25.9336 24.9313 25.9337 24.9315 25.9339C24.9317 25.9339 24.9318 25.934 24.932 25.9341C24.932 25.9341 24.9321 25.9341 24.9321 25.9342H24.9321C24.9321 25.9342 24.9321 25.9342 24.9517 25.8938C24.9713 25.8533 24.9713 25.8533 24.9713 25.8533C24.9713 25.8533 24.9713 25.8533 24.9713 25.8533C24.9713 25.8534 24.9713 25.8534 24.9713 25.8533C24.9713 25.8533 24.9712 25.8533 24.971 25.8531C24.9706 25.853 24.9699 25.8526 24.969 25.8521C24.9671 25.851 24.964 25.8492 24.9603 25.8467C24.9527 25.8419 24.9418 25.8345 24.9299 25.8246C24.9055 25.8044 24.8778 25.7753 24.8598 25.7378L24.7817 25.7783ZM24.7771 24.3109C24.7334 24.3109 24.7334 24.3109 24.7334 24.3109C24.7334 24.3109 24.7334 24.3109 24.7334 24.311C24.7334 24.311 24.7334 24.3111 24.7334 24.3112C24.7334 24.3113 24.7334 24.3115 24.7334 24.3119C24.7334 24.3125 24.7334 24.3135 24.7334 24.3148C24.7334 24.3174 24.7334 24.3212 24.7334 24.3262C24.7334 24.3362 24.7334 24.3508 24.7335 24.3695C24.7336 24.4068 24.7338 24.4602 24.7341 24.5245C24.7348 24.6532 24.7361 24.8258 24.7389 25.0013C24.7416 25.1767 24.7458 25.3553 24.7519 25.4959C24.755 25.5661 24.7586 25.6274 24.7629 25.6741C24.765 25.6976 24.7674 25.7179 24.77 25.7344C24.7724 25.7489 24.7757 25.7659 24.7817 25.7783L24.8598 25.7378C24.8604 25.739 24.8585 25.7347 24.8561 25.7195C24.8539 25.7061 24.8518 25.6881 24.8498 25.6656C24.8457 25.621 24.8421 25.5614 24.8391 25.4917C24.833 25.3525 24.8289 25.175 24.8262 24.9998C24.8235 24.8248 24.8221 24.6525 24.8214 24.5241C24.8211 24.4598 24.8209 24.4065 24.8208 24.3692C24.8207 24.3506 24.8207 24.336 24.8207 24.3261C24.8207 24.3211 24.8207 24.3173 24.8207 24.3148C24.8207 24.3135 24.8207 24.3125 24.8207 24.3119C24.8207 24.3115 24.8207 24.3113 24.8207 24.3112C24.8207 24.3111 24.8207 24.311 24.8207 24.311C24.8207 24.3109 24.8207 24.3109 24.8207 24.3109C24.8207 24.3109 24.8207 24.3109 24.7771 24.3109ZM24.7309 24.3561H24.7771V24.2657H24.7309V24.3561ZM27.7561 23.926L24.7262 24.2659L24.7355 24.3558L27.7655 24.0159L27.7561 23.926ZM27.3961 24.8084C27.3961 24.4799 27.5497 24.1886 27.7867 24.0073L27.7349 23.9346C27.4765 24.1322 27.3088 24.45 27.3088 24.8084H27.3961ZM28.3565 25.8033C27.8261 25.8033 27.3961 25.3578 27.3961 24.8084H27.3088C27.3088 25.4078 27.7779 25.8938 28.3565 25.8938V25.8033ZM29.3168 24.8084C29.3168 25.3578 28.8868 25.8033 28.3565 25.8033V25.8938C28.935 25.8938 29.4041 25.4078 29.4041 24.8084H29.3168ZM28.7479 23.8995C29.0832 24.0548 29.3168 24.4034 29.3168 24.8084H29.4041C29.4041 24.3664 29.1492 23.9863 28.7835 23.817L28.7479 23.8995ZM36.82 22.9092L28.761 23.8133L28.7704 23.9032L36.8294 22.9991L36.82 22.9092ZM36.912 22.728C36.912 22.7806 36.8865 22.827 36.857 22.8625C36.8426 22.88 36.8281 22.8938 36.8172 22.9032C36.8118 22.9078 36.8074 22.9114 36.8045 22.9136C36.803 22.9148 36.8018 22.9156 36.8011 22.9161C36.8008 22.9163 36.8006 22.9165 36.8004 22.9165C36.8004 22.9166 36.8004 22.9166 36.8004 22.9166C36.8004 22.9166 36.8004 22.9166 36.8004 22.9166C36.8004 22.9166 36.8004 22.9166 36.8004 22.9166V22.9165C36.8005 22.9165 36.8005 22.9165 36.8247 22.9542C36.8489 22.9918 36.8489 22.9918 36.849 22.9918C36.849 22.9918 36.849 22.9918 36.849 22.9917C36.849 22.9917 36.849 22.9917 36.8491 22.9917C36.8491 22.9917 36.8492 22.9916 36.8492 22.9916C36.8493 22.9915 36.8495 22.9914 36.8497 22.9912C36.8501 22.991 36.8506 22.9906 36.8512 22.9902C36.8525 22.9893 36.8541 22.988 36.8562 22.9864C36.8604 22.9832 36.8663 22.9786 36.8731 22.9726C36.8868 22.9608 36.905 22.9435 36.9234 22.9214C36.9593 22.8778 36.9993 22.8112 36.9993 22.728H36.912ZM36.8247 22.5471C36.8109 22.59 36.8109 22.59 36.8108 22.59V22.59C36.8108 22.59 36.8108 22.59 36.8107 22.59C36.8107 22.59 36.8107 22.59 36.8107 22.59C36.8107 22.59 36.8107 22.59 36.8107 22.59C36.8107 22.59 36.8109 22.59 36.8112 22.5901C36.8117 22.5903 36.8127 22.5907 36.814 22.5913C36.8166 22.5924 36.8207 22.5942 36.8257 22.5968C36.8357 22.602 36.8491 22.6101 36.8622 22.6215C36.8883 22.6439 36.912 22.6774 36.912 22.728H36.9993C36.9993 22.643 36.9576 22.586 36.9181 22.552C36.8986 22.5351 36.8792 22.5234 36.8647 22.5159C36.8574 22.5121 36.8512 22.5093 36.8467 22.5074C36.8444 22.5065 36.8426 22.5057 36.8412 22.5052C36.8405 22.505 36.8399 22.5047 36.8395 22.5046C36.8393 22.5045 36.839 22.5044 36.8389 22.5044C36.8389 22.5043 36.8388 22.5043 36.8387 22.5043C36.8387 22.5043 36.8386 22.5043 36.8386 22.5043C36.8386 22.5043 36.8386 22.5042 36.8386 22.5042C36.8385 22.5042 36.8385 22.5042 36.8247 22.5471ZM23.7292 22.5924H36.8247V22.5019H23.7292V22.5924ZM23.6858 22.5019C23.6858 22.5169 23.6857 22.5318 23.6856 22.5467L23.7729 22.5476C23.773 22.5324 23.7731 22.5172 23.7731 22.5019H23.6858ZM23.4443 21.0518C23.599 21.508 23.6858 21.9988 23.6858 22.5019H23.7731C23.7731 21.988 23.6844 21.4871 23.5268 21.0218L23.4443 21.0518ZM26.6936 20.6931L23.4816 20.9918L23.4895 21.0819L26.7015 20.7832L26.6936 20.6931ZM26.6976 20.6479C26.6976 20.6568 26.6927 20.6701 26.6831 20.6848C26.6789 20.6914 26.6746 20.697 26.6713 20.7009C26.6697 20.7028 26.6684 20.7043 26.6676 20.7052C26.6672 20.7057 26.6669 20.706 26.6667 20.7061C26.6666 20.7062 26.6666 20.7062 26.6666 20.7062C26.6666 20.7062 26.6666 20.7062 26.6666 20.7062C26.6666 20.7062 26.6666 20.7062 26.6667 20.7062C26.6667 20.7062 26.6667 20.7062 26.6667 20.7061C26.6667 20.7061 26.6667 20.7061 26.6667 20.7061C26.6667 20.7061 26.6667 20.7061 26.6976 20.7382C26.7284 20.7702 26.7284 20.7702 26.7284 20.7702C26.7284 20.7702 26.7284 20.7702 26.7284 20.7702C26.7284 20.7701 26.7285 20.7701 26.7285 20.7701C26.7285 20.7701 26.7285 20.7701 26.7285 20.77C26.7285 20.77 26.7286 20.7699 26.7287 20.7698C26.7289 20.7696 26.7291 20.7694 26.7293 20.7692C26.7299 20.7686 26.7305 20.7679 26.7313 20.767C26.7329 20.7653 26.735 20.7629 26.7375 20.7599C26.7424 20.7539 26.7491 20.7454 26.7558 20.735C26.7681 20.7158 26.785 20.6839 26.7849 20.6475L26.6976 20.6479ZM26.6976 20.6025C26.6797 20.6437 26.6797 20.6437 26.6797 20.6437V20.6437V20.6437C26.6796 20.6437 26.6796 20.6437 26.6796 20.6437C26.6796 20.6437 26.6796 20.6437 26.6795 20.6437C26.6795 20.6437 26.6795 20.6437 26.6796 20.6437C26.6797 20.6437 26.6799 20.6439 26.6803 20.644C26.681 20.6444 26.6822 20.645 26.6836 20.6458C26.6866 20.6475 26.6903 20.6498 26.6937 20.6523C26.6974 20.6551 26.6994 20.6572 26.7 20.658C26.7008 20.6591 26.6976 20.6554 26.6976 20.6479L26.7849 20.6475C26.7848 20.6275 26.776 20.6119 26.7687 20.6022C26.7611 20.5922 26.7522 20.5845 26.745 20.5791C26.7375 20.5735 26.7303 20.5692 26.7251 20.5663C26.7225 20.5648 26.7203 20.5636 26.7186 20.5628C26.7177 20.5623 26.717 20.562 26.7165 20.5617C26.7162 20.5616 26.7161 20.5615 26.7159 20.5614C26.7157 20.5614 26.7157 20.5613 26.7156 20.5613C26.7155 20.5613 26.7155 20.5613 26.7155 20.5613C26.7155 20.5613 26.7155 20.5612 26.7155 20.5612V20.5612C26.7155 20.5612 26.7154 20.5612 26.6976 20.6025ZM23.3137 20.6477H26.6976V20.5573H23.3137V20.6477ZM20.8776 18.5104C21.8585 18.6831 22.7686 19.5104 23.2742 20.6218L23.3532 20.5832C22.839 19.4528 21.9085 18.6001 20.8922 18.4212L20.8776 18.5104ZM20.5994 14.1674C20.594 14.1618 20.5918 14.1564 20.5914 14.1555C20.591 14.1546 20.5907 14.1539 20.5906 14.1535C20.5905 14.1532 20.5905 14.1529 20.5905 14.1529C20.5904 14.1529 20.5905 14.1533 20.5907 14.1542C20.5909 14.1551 20.5912 14.1563 20.5915 14.1578C20.5926 14.1642 20.5941 14.1741 20.5958 14.1879C20.5992 14.2152 20.603 14.2548 20.6073 14.3055C20.6159 14.4067 20.6262 14.5502 20.6375 14.724C20.6602 15.0716 20.6872 15.5395 20.7143 16.0302C20.7682 17.0116 20.8222 18.0841 20.8413 18.4681L20.9285 18.4634C20.9094 18.0794 20.8554 17.0068 20.8014 16.0251C20.7744 15.5343 20.7473 15.066 20.7246 14.7179C20.7133 14.5439 20.703 14.3997 20.6943 14.2975C20.69 14.2465 20.686 14.2056 20.6824 14.1765C20.6806 14.1621 20.6789 14.1499 20.6771 14.1405C20.6763 14.136 20.6752 14.1311 20.674 14.1267C20.6733 14.1245 20.6723 14.1215 20.671 14.1184C20.67 14.1161 20.6671 14.1096 20.6612 14.1034L20.5994 14.1674ZM20.543 14.0901C20.543 14.1354 20.543 14.1354 20.5429 14.1354H20.5428C20.5428 14.1354 20.5427 14.1354 20.5426 14.1354C20.5425 14.1354 20.5424 14.1354 20.5424 14.1354C20.5423 14.1354 20.5421 14.1354 20.5421 14.1354C20.5419 14.1354 20.5419 14.1354 20.542 14.1354C20.5423 14.1354 20.5431 14.1354 20.5443 14.1356C20.5468 14.136 20.551 14.1368 20.5564 14.1387C20.5672 14.1424 20.583 14.1503 20.5994 14.1674L20.6612 14.1034C20.6339 14.0753 20.6061 14.0605 20.5841 14.0529C20.5731 14.0491 20.5637 14.0471 20.5567 14.0461C20.5531 14.0456 20.5501 14.0453 20.5479 14.0451C20.5467 14.045 20.5457 14.045 20.5449 14.045C20.5445 14.0449 20.5441 14.0449 20.5438 14.0449C20.5437 14.0449 20.5435 14.0449 20.5433 14.0449C20.5433 14.0449 20.5432 14.0449 20.5431 14.0449C20.5431 14.0449 20.5431 14.0449 20.5431 14.0449V14.0449C20.543 14.0449 20.543 14.0449 20.543 14.0901ZM20.5866 18.4321V14.0901H20.4993V18.4321H20.5866ZM20.4993 18.4769C20.5135 18.4769 20.5279 18.4771 20.5421 18.4774L20.5438 18.3869C20.529 18.3866 20.5142 18.3865 20.4993 18.3865V18.4769ZM13.1223 24.8084C13.1223 25.0581 12.9269 25.2606 12.6858 25.2606V25.3511C12.9751 25.3511 13.2096 25.1081 13.2096 24.8084H13.1223ZM12.6858 24.3561C12.9269 24.3561 13.1223 24.5586 13.1223 24.8084H13.2096C13.2096 24.5086 12.9751 24.2657 12.6858 24.2657V24.3561ZM12.2493 24.8084C12.2493 24.5586 12.4447 24.3561 12.6858 24.3561V24.2657C12.3965 24.2657 12.162 24.5086 12.162 24.8084H12.2493ZM12.6858 25.2606C12.4447 25.2606 12.2493 25.0581 12.2493 24.8084H12.162C12.162 25.1081 12.3965 25.3511 12.6858 25.3511V25.2606ZM15.5668 25.532V26.3008H15.6541V25.532H15.5668ZM15.8287 25.3058C15.7056 25.3058 15.6365 25.3582 15.6007 25.4175C15.5836 25.4459 15.5752 25.4738 15.5711 25.4945C15.569 25.5049 15.5679 25.5137 15.5674 25.5202C15.5671 25.5234 15.567 25.5261 15.5669 25.5281C15.5669 25.5291 15.5668 25.5299 15.5668 25.5305C15.5668 25.5309 15.5668 25.5311 15.5668 25.5314C15.5668 25.5315 15.5668 25.5316 15.5668 25.5317C15.5668 25.5318 15.5668 25.5318 15.5668 25.5319C15.5668 25.532 15.5668 25.532 15.6104 25.532C15.6541 25.532 15.6541 25.532 15.6541 25.532V25.5321C15.6541 25.5322 15.6541 25.5322 15.6541 25.5323C15.6541 25.5323 15.6541 25.5324 15.6541 25.5323C15.6541 25.5323 15.6541 25.5321 15.6541 25.5318C15.6541 25.5311 15.6542 25.5299 15.6543 25.5282C15.6546 25.5247 15.6553 25.5195 15.6566 25.5129C15.6592 25.4997 15.6645 25.4824 15.6747 25.4655C15.6935 25.4344 15.7335 25.3963 15.8287 25.3963V25.3058ZM16.0469 25.532C16.0906 25.532 16.0906 25.532 16.0906 25.5319C16.0906 25.5318 16.0906 25.5318 16.0906 25.5317C16.0906 25.5316 16.0906 25.5315 16.0906 25.5314C16.0906 25.5311 16.0906 25.5309 16.0906 25.5305C16.0906 25.5299 16.0905 25.5291 16.0905 25.5281C16.0904 25.5261 16.0902 25.5234 16.09 25.5202C16.0895 25.5137 16.0883 25.5049 16.0862 25.4945C16.0821 25.4738 16.0737 25.4459 16.0566 25.4175C16.0208 25.3582 15.9518 25.3058 15.8287 25.3058V25.3963C15.9238 25.3963 15.9639 25.4344 15.9827 25.4655C15.9929 25.4824 15.9981 25.4997 16.0008 25.5129C16.0021 25.5195 16.0028 25.5247 16.003 25.5282C16.0032 25.5299 16.0033 25.5311 16.0033 25.5318C16.0033 25.5321 16.0033 25.5323 16.0033 25.5323C16.0033 25.5324 16.0033 25.5323 16.0033 25.5323C16.0033 25.5322 16.0033 25.5322 16.0033 25.5321V25.532C16.0033 25.532 16.0033 25.532 16.0469 25.532ZM16.0906 26.3008V25.532H16.0033V26.3008H16.0906ZM15.8287 26.5721C15.8908 26.5721 15.9404 26.5558 15.9791 26.5292C16.0174 26.5027 16.0425 26.4677 16.0587 26.4341C16.0749 26.4006 16.0827 26.3677 16.0866 26.3436C16.0886 26.3313 16.0895 26.3211 16.0901 26.3137C16.0903 26.31 16.0904 26.307 16.0905 26.3048C16.0906 26.3038 16.0906 26.3029 16.0906 26.3021C16.0906 26.3018 16.0906 26.3015 16.0906 26.3013C16.0906 26.3011 16.0906 26.301 16.0906 26.301V26.3009C16.0906 26.3008 16.0906 26.3008 16.0469 26.3008C16.0033 26.3008 16.0033 26.3008 16.0033 26.3008C16.0033 26.3007 16.0033 26.3007 16.0033 26.3007C16.0033 26.3007 16.0033 26.3007 16.0033 26.3006C16.0033 26.3006 16.0033 26.3006 16.0033 26.3007C16.0033 26.3009 16.0033 26.3012 16.0033 26.3018C16.0032 26.3029 16.0031 26.3048 16.0029 26.3073C16.0026 26.3123 16.0019 26.3197 16.0005 26.3286C15.9975 26.3469 15.9918 26.3705 15.9806 26.3936C15.9696 26.4166 15.9537 26.4381 15.9306 26.4539C15.9079 26.4696 15.8756 26.4817 15.8287 26.4817V26.5721ZM15.6104 26.3008C15.5668 26.3008 15.5668 26.3008 15.5668 26.3009V26.301C15.5668 26.301 15.5668 26.3011 15.5668 26.3013C15.5668 26.3015 15.5668 26.3018 15.5668 26.3021C15.5668 26.3029 15.5668 26.3038 15.5669 26.3048C15.567 26.307 15.567 26.31 15.5673 26.3137C15.5678 26.3211 15.5688 26.3313 15.5708 26.3436C15.5746 26.3677 15.5825 26.4006 15.5986 26.4341C15.6149 26.4677 15.6399 26.5027 15.6783 26.5292C15.7169 26.5558 15.7665 26.5721 15.8287 26.5721V26.4817C15.7817 26.4817 15.7495 26.4696 15.7267 26.4539C15.7037 26.4381 15.6878 26.4166 15.6768 26.3936C15.6656 26.3705 15.6598 26.3469 15.6569 26.3286C15.6555 26.3197 15.6548 26.3123 15.6544 26.3073C15.6543 26.3048 15.6542 26.3029 15.6541 26.3018C15.6541 26.3012 15.6541 26.3009 15.6541 26.3007C15.6541 26.3006 15.6541 26.3006 15.6541 26.3006C15.6541 26.3007 15.6541 26.3007 15.6541 26.3007C15.6541 26.3007 15.6541 26.3007 15.6541 26.3008C15.6541 26.3008 15.6541 26.3008 15.6104 26.3008ZM19.7573 26.7982V27.5671H19.8446V26.7982H19.7573ZM20.0192 26.5721C19.8961 26.5721 19.827 26.6245 19.7912 26.6838C19.7741 26.7121 19.7657 26.7401 19.7616 26.7608C19.7595 26.7712 19.7584 26.78 19.7579 26.7865C19.7576 26.7897 19.7574 26.7924 19.7573 26.7944C19.7573 26.7954 19.7573 26.7962 19.7573 26.7968C19.7573 26.7972 19.7573 26.7974 19.7573 26.7977C19.7573 26.7978 19.7573 26.7979 19.7573 26.798C19.7573 26.7981 19.7573 26.7981 19.7573 26.7982C19.7573 26.7982 19.7573 26.7982 19.8009 26.7982C19.8446 26.7982 19.8446 26.7982 19.8446 26.7983V26.7984C19.8446 26.7985 19.8446 26.7985 19.8446 26.7986C19.8446 26.7986 19.8446 26.7984 19.8446 26.7981C19.8446 26.7974 19.8446 26.7962 19.8448 26.7945C19.8451 26.791 19.8458 26.7858 19.8471 26.7792C19.8497 26.766 19.8549 26.7487 19.8652 26.7318C19.8839 26.7007 19.924 26.6626 20.0192 26.6626V26.5721ZM20.2374 26.7982C20.2811 26.7982 20.2811 26.7982 20.2811 26.7982C20.2811 26.7981 20.2811 26.7981 20.2811 26.798C20.2811 26.7979 20.2811 26.7978 20.2811 26.7977C20.2811 26.7974 20.2811 26.7972 20.2811 26.7968C20.2811 26.7962 20.281 26.7954 20.281 26.7944C20.2809 26.7924 20.2807 26.7897 20.2805 26.7865C20.2799 26.78 20.2788 26.7712 20.2767 26.7608C20.2726 26.7401 20.2642 26.7121 20.2471 26.6838C20.2113 26.6245 20.1423 26.5721 20.0192 26.5721V26.6626C20.1143 26.6626 20.1544 26.7007 20.1732 26.7318C20.1834 26.7487 20.1886 26.766 20.1912 26.7792C20.1925 26.7858 20.1932 26.791 20.1935 26.7945C20.1937 26.7962 20.1938 26.7974 20.1938 26.7981C20.1938 26.7984 20.1938 26.7986 20.1938 26.7986C20.1938 26.7985 20.1938 26.7985 20.1938 26.7984V26.7983C20.1938 26.7982 20.1938 26.7982 20.2374 26.7982ZM20.2811 27.5671V26.7982H20.1938V27.5671H20.2811ZM20.0192 27.8384C20.0813 27.8384 20.1309 27.8221 20.1696 27.7954C20.2079 27.7689 20.233 27.7339 20.2492 27.7004C20.2653 27.6669 20.2732 27.634 20.277 27.6098C20.2791 27.5976 20.28 27.5874 20.2805 27.58C20.2808 27.5763 20.2809 27.5733 20.281 27.5711C20.2811 27.57 20.2811 27.5691 20.2811 27.5684C20.2811 27.5681 20.2811 27.5678 20.2811 27.5676C20.2811 27.5674 20.2811 27.5673 20.2811 27.5672V27.5672C20.2811 27.5671 20.2811 27.5671 20.2374 27.5671C20.1938 27.5671 20.1938 27.5671 20.1938 27.5671C20.1938 27.567 20.1938 27.567 20.1938 27.567C20.1938 27.567 20.1938 27.567 20.1938 27.5669C20.1938 27.5669 20.1938 27.5669 20.1938 27.567C20.1938 27.5672 20.1938 27.5675 20.1938 27.5681C20.1937 27.5692 20.1936 27.571 20.1934 27.5736C20.1931 27.5786 20.1924 27.586 20.191 27.5949C20.188 27.6132 20.1822 27.6368 20.1711 27.6599C20.1601 27.6828 20.1442 27.7044 20.1211 27.7202C20.0983 27.7359 20.0661 27.748 20.0192 27.748V27.8384ZM19.8009 27.5671C19.7573 27.5671 19.7573 27.5671 19.7573 27.5672V27.5672C19.7573 27.5673 19.7573 27.5674 19.7573 27.5676C19.7573 27.5678 19.7573 27.5681 19.7573 27.5684C19.7573 27.5691 19.7573 27.57 19.7573 27.5711C19.7574 27.5733 19.7575 27.5763 19.7578 27.58C19.7583 27.5874 19.7593 27.5976 19.7613 27.6098C19.7651 27.634 19.773 27.6669 19.7891 27.7004C19.8054 27.7339 19.8304 27.7689 19.8687 27.7954C19.9074 27.8221 19.957 27.8384 20.0192 27.8384V27.748C19.9722 27.748 19.94 27.7359 19.9172 27.7202C19.8941 27.7044 19.8783 27.6828 19.8673 27.6599C19.8561 27.6368 19.8503 27.6132 19.8473 27.5949C19.846 27.586 19.8453 27.5786 19.8449 27.5736C19.8447 27.571 19.8446 27.5692 19.8446 27.5681C19.8446 27.5675 19.8446 27.5672 19.8446 27.567C19.8446 27.5669 19.8446 27.5669 19.8446 27.5669C19.8446 27.567 19.8446 27.567 19.8446 27.567C19.8446 27.567 19.8446 27.567 19.8446 27.5671C19.8446 27.5671 19.8446 27.5671 19.8009 27.5671ZM19.5433 21.1454C19.4177 21.1326 19.2562 21.0992 19.1249 21.0686C19.0595 21.0534 19.0021 21.039 18.961 21.0284C18.9405 21.0231 18.924 21.0187 18.9128 21.0157C18.9071 21.0142 18.9027 21.013 18.8999 21.0122C18.8984 21.0118 18.8972 21.0115 18.8965 21.0113C18.8962 21.0112 18.8958 21.0111 18.8957 21.0111C18.8956 21.0111 18.8956 21.0111 18.8955 21.011V21.011C18.8954 21.011 18.8954 21.011 18.8954 21.011C18.8954 21.011 18.8954 21.011 18.8842 21.0547C18.8731 21.0984 18.8731 21.0984 18.8731 21.0984C18.8731 21.0985 18.8731 21.0985 18.8731 21.0985C18.8731 21.0985 18.8732 21.0985 18.8733 21.0985C18.8736 21.0986 18.8738 21.0987 18.8743 21.0988C18.8751 21.099 18.8762 21.0993 18.8777 21.0997C18.8807 21.1005 18.8852 21.1017 18.891 21.1033C18.9024 21.1063 18.9191 21.1108 18.9398 21.1161C18.9815 21.1269 19.0395 21.1415 19.1058 21.1569C19.2376 21.1876 19.4035 21.2221 19.5347 21.2354L19.5433 21.1454ZM20.2811 21.2356C20.2825 21.1904 20.2825 21.1904 20.2825 21.1904H20.2825C20.2824 21.1904 20.2823 21.1904 20.2822 21.1904C20.282 21.1904 20.2817 21.1904 20.2812 21.1904C20.2804 21.1903 20.2791 21.1903 20.2774 21.1902C20.2741 21.1901 20.2691 21.1899 20.2626 21.1897C20.2497 21.1892 20.2309 21.1885 20.2075 21.1875C20.1606 21.1856 20.095 21.1827 20.0206 21.1789C19.8713 21.1712 19.6866 21.16 19.5433 21.1454L19.5347 21.2354C19.6803 21.2502 19.8667 21.2616 20.0162 21.2692C20.0911 21.273 20.1569 21.2759 20.204 21.2779C20.2275 21.2789 20.2464 21.2796 20.2594 21.2801C20.266 21.2803 20.2709 21.2805 20.2743 21.2806C20.2761 21.2807 20.2774 21.2807 20.2783 21.2808C20.2787 21.2808 20.2791 21.2808 20.2792 21.2808C20.2793 21.2808 20.2794 21.2808 20.2795 21.2808H20.2796C20.2796 21.2808 20.2796 21.2808 20.2811 21.2356ZM20.3683 22.0925L20.3246 21.2332L20.2375 21.238L20.2811 22.0973L20.3683 22.0925ZM19.3529 22.0933C19.5985 22.1627 19.8433 22.1741 20.026 22.1684C20.1174 22.1655 20.1937 22.1583 20.2473 22.1518C20.2741 22.1486 20.2952 22.1455 20.3097 22.1432C20.3169 22.1421 20.3225 22.1411 20.3264 22.1405C20.3283 22.1401 20.3298 22.1399 20.3308 22.1397C20.3313 22.1396 20.3317 22.1395 20.332 22.1395C20.3321 22.1395 20.3323 22.1394 20.3324 22.1394C20.3324 22.1394 20.3324 22.1394 20.3325 22.1394C20.3325 22.1394 20.3325 22.1394 20.3325 22.1394C20.3325 22.1394 20.3325 22.1394 20.3247 22.0949C20.3169 22.0504 20.3169 22.0504 20.3169 22.0504C20.3169 22.0504 20.3169 22.0504 20.3169 22.0504C20.3169 22.0504 20.3168 22.0504 20.3167 22.0504C20.3165 22.0505 20.3162 22.0505 20.3158 22.0506C20.315 22.0507 20.3137 22.051 20.312 22.0513C20.3086 22.0519 20.3034 22.0527 20.2966 22.0538C20.283 22.0559 20.2628 22.0589 20.2371 22.062C20.1856 22.0682 20.1119 22.0752 20.0233 22.078C19.8458 22.0835 19.6104 22.0723 19.3759 22.006L19.3529 22.0933ZM18.535 21.6879C18.5088 21.724 18.5088 21.724 18.5088 21.724C18.5088 21.724 18.5088 21.7241 18.5088 21.7241C18.5088 21.7241 18.5089 21.7241 18.5089 21.7241C18.509 21.7242 18.5091 21.7242 18.5092 21.7243C18.5094 21.7244 18.5096 21.7246 18.5099 21.7249C18.5106 21.7254 18.5115 21.726 18.5126 21.7269C18.5149 21.7286 18.5182 21.731 18.5225 21.7341C18.5311 21.7402 18.5439 21.749 18.561 21.76C18.5952 21.782 18.6463 21.8128 18.7154 21.8485C18.8537 21.9201 19.0637 22.0116 19.3529 22.0933L19.3759 22.006C19.0923 21.9259 18.8876 21.8365 18.7544 21.7676C18.6878 21.7332 18.639 21.7038 18.6071 21.6832C18.5912 21.673 18.5795 21.6649 18.5719 21.6595C18.568 21.6568 18.5653 21.6547 18.5635 21.6534C18.5626 21.6528 18.562 21.6523 18.5617 21.652C18.5615 21.6519 18.5613 21.6518 18.5613 21.6517C18.5612 21.6517 18.5612 21.6517 18.5612 21.6517V21.6517C18.5612 21.6517 18.5612 21.6517 18.5612 21.6517C18.5612 21.6517 18.5613 21.6517 18.535 21.6879ZM18.8463 21.0323L18.4971 21.6654L18.5729 21.7103L18.9221 21.0772L18.8463 21.0323ZM27.8326 24.8084C27.8326 25.1081 28.0671 25.3511 28.3565 25.3511V25.2606C28.1154 25.2606 27.9199 25.0581 27.9199 24.8084H27.8326ZM28.3565 24.2657C28.0671 24.2657 27.8326 24.5086 27.8326 24.8084H27.9199C27.9199 24.5586 28.1154 24.3561 28.3565 24.3561V24.2657ZM28.8803 24.8084C28.8803 24.5086 28.6458 24.2657 28.3565 24.2657V24.3561C28.5975 24.3561 28.793 24.5586 28.793 24.8084H28.8803ZM28.3565 25.3511C28.6458 25.3511 28.8803 25.1081 28.8803 24.8084H28.793C28.793 25.0581 28.5975 25.2606 28.3565 25.2606V25.3511ZM25.3882 25.532V26.3008H25.4755V25.532H25.3882ZM25.2136 25.3963C25.3088 25.3963 25.3488 25.4344 25.3676 25.4655C25.3778 25.4824 25.3831 25.4997 25.3857 25.5129C25.387 25.5195 25.3877 25.5247 25.3879 25.5282C25.3881 25.5299 25.3882 25.5311 25.3882 25.5318C25.3882 25.5321 25.3882 25.5323 25.3882 25.5323C25.3882 25.5324 25.3882 25.5323 25.3882 25.5323C25.3882 25.5322 25.3882 25.5322 25.3882 25.5321V25.532C25.3882 25.532 25.3882 25.532 25.4319 25.532C25.4755 25.532 25.4755 25.532 25.4755 25.5319C25.4755 25.5318 25.4755 25.5318 25.4755 25.5317C25.4755 25.5316 25.4755 25.5315 25.4755 25.5314C25.4755 25.5311 25.4755 25.5309 25.4755 25.5305C25.4755 25.5299 25.4754 25.5291 25.4754 25.5281C25.4753 25.5261 25.4752 25.5234 25.4749 25.5202C25.4744 25.5137 25.4732 25.5049 25.4711 25.4945C25.467 25.4738 25.4587 25.4459 25.4415 25.4175C25.4058 25.3582 25.3367 25.3058 25.2136 25.3058V25.3963ZM24.9953 25.532C25.039 25.532 25.039 25.532 25.039 25.532V25.5321C25.039 25.5322 25.039 25.5322 25.039 25.5323C25.039 25.5323 25.039 25.5324 25.039 25.5323C25.039 25.5323 25.039 25.5321 25.039 25.5318C25.039 25.5311 25.0391 25.5299 25.0393 25.5282C25.0395 25.5247 25.0402 25.5195 25.0415 25.5129C25.0441 25.4997 25.0494 25.4824 25.0596 25.4655C25.0784 25.4344 25.1184 25.3963 25.2136 25.3963V25.3058C25.0905 25.3058 25.0215 25.3582 24.9857 25.4175C24.9685 25.4459 24.9602 25.4738 24.9561 25.4945C24.954 25.5049 24.9528 25.5137 24.9523 25.5202C24.952 25.5234 24.9519 25.5261 24.9518 25.5281C24.9518 25.5291 24.9517 25.5299 24.9517 25.5305C24.9517 25.5309 24.9517 25.5311 24.9517 25.5314C24.9517 25.5315 24.9517 25.5316 24.9517 25.5317C24.9517 25.5318 24.9517 25.5318 24.9517 25.5319C24.9517 25.532 24.9517 25.532 24.9953 25.532ZM25.039 26.3008V25.532H24.9517V26.3008H25.039ZM25.2136 26.4817C25.1666 26.4817 25.1344 26.4696 25.1116 26.4539C25.0886 26.4381 25.0727 26.4166 25.0617 26.3936C25.0505 26.3705 25.0448 26.3469 25.0418 26.3286C25.0404 26.3197 25.0397 26.3123 25.0393 26.3073C25.0392 26.3048 25.0391 26.3029 25.039 26.3018C25.039 26.3012 25.039 26.3009 25.039 26.3007C25.039 26.3006 25.039 26.3006 25.039 26.3006C25.039 26.3007 25.039 26.3007 25.039 26.3007C25.039 26.3007 25.039 26.3007 25.039 26.3008C25.039 26.3008 25.039 26.3008 24.9953 26.3008C24.9517 26.3008 24.9517 26.3008 24.9517 26.3009V26.301C24.9517 26.301 24.9517 26.3011 24.9517 26.3013C24.9517 26.3015 24.9517 26.3018 24.9517 26.3021C24.9517 26.3029 24.9517 26.3038 24.9518 26.3048C24.9519 26.307 24.952 26.31 24.9522 26.3137C24.9527 26.3211 24.9537 26.3313 24.9557 26.3436C24.9596 26.3677 24.9674 26.4006 24.9836 26.4341C24.9998 26.4677 25.0249 26.5027 25.0632 26.5292C25.1019 26.5558 25.1514 26.5721 25.2136 26.5721V26.4817ZM25.4319 26.3008C25.3882 26.3008 25.3882 26.3008 25.3882 26.3008C25.3882 26.3007 25.3882 26.3007 25.3882 26.3007C25.3882 26.3007 25.3882 26.3007 25.3882 26.3006C25.3882 26.3006 25.3882 26.3006 25.3882 26.3007C25.3882 26.3009 25.3882 26.3012 25.3882 26.3018C25.3881 26.3029 25.388 26.3048 25.3879 26.3073C25.3875 26.3123 25.3868 26.3197 25.3854 26.3286C25.3824 26.3469 25.3767 26.3705 25.3655 26.3936C25.3545 26.4166 25.3386 26.4381 25.3156 26.4539C25.2928 26.4696 25.2606 26.4817 25.2136 26.4817V26.5721C25.2758 26.5721 25.3253 26.5558 25.364 26.5292C25.4023 26.5027 25.4274 26.4677 25.4436 26.4341C25.4598 26.4006 25.4676 26.3677 25.4715 26.3436C25.4735 26.3313 25.4745 26.3211 25.475 26.3137C25.4752 26.31 25.4753 26.307 25.4754 26.3048C25.4755 26.3038 25.4755 26.3029 25.4755 26.3021C25.4755 26.3018 25.4755 26.3015 25.4755 26.3013C25.4755 26.3011 25.4755 26.301 25.4755 26.301V26.3009C25.4755 26.3008 25.4755 26.3008 25.4319 26.3008ZM21.1977 26.7982V27.5671H21.285V26.7982H21.1977ZM21.0231 26.6626C21.1183 26.6626 21.1584 26.7007 21.1771 26.7318C21.1873 26.7487 21.1926 26.766 21.1952 26.7792C21.1965 26.7858 21.1972 26.791 21.1975 26.7945C21.1976 26.7962 21.1977 26.7974 21.1977 26.7981C21.1977 26.7984 21.1977 26.7986 21.1977 26.7986C21.1977 26.7985 21.1977 26.7985 21.1977 26.7984V26.7983C21.1977 26.7982 21.1977 26.7982 21.2414 26.7982C21.285 26.7982 21.285 26.7982 21.285 26.7982C21.285 26.7981 21.285 26.7981 21.285 26.798C21.285 26.7979 21.285 26.7978 21.285 26.7977C21.285 26.7974 21.285 26.7972 21.285 26.7968C21.285 26.7962 21.2849 26.7954 21.2849 26.7944C21.2849 26.7924 21.2847 26.7897 21.2844 26.7865C21.2839 26.78 21.2828 26.7712 21.2807 26.7608C21.2766 26.7401 21.2682 26.7121 21.2511 26.6838C21.2153 26.6245 21.1462 26.5721 21.0231 26.5721V26.6626ZM20.8049 26.7982C20.8485 26.7982 20.8485 26.7982 20.8485 26.7983V26.7984C20.8485 26.7985 20.8485 26.7985 20.8485 26.7986C20.8485 26.7986 20.8485 26.7984 20.8485 26.7981C20.8485 26.7974 20.8486 26.7962 20.8488 26.7945C20.849 26.791 20.8497 26.7858 20.8511 26.7792C20.8537 26.766 20.8589 26.7487 20.8691 26.7318C20.8879 26.7007 20.928 26.6626 21.0231 26.6626V26.5721C20.9 26.5721 20.831 26.6245 20.7952 26.6838C20.7781 26.7121 20.7697 26.7401 20.7656 26.7608C20.7635 26.7712 20.7624 26.78 20.7618 26.7865C20.7616 26.7897 20.7614 26.7924 20.7613 26.7944C20.7613 26.7954 20.7612 26.7962 20.7612 26.7968C20.7612 26.7972 20.7612 26.7974 20.7612 26.7977C20.7612 26.7978 20.7612 26.7979 20.7612 26.798C20.7612 26.7981 20.7612 26.7981 20.7612 26.7982C20.7612 26.7982 20.7612 26.7982 20.8049 26.7982ZM20.8485 27.5671V26.7982H20.7612V27.5671H20.8485ZM21.0231 27.748C20.9762 27.748 20.9439 27.7359 20.9212 27.7202C20.8981 27.7044 20.8822 27.6828 20.8712 27.6599C20.86 27.6368 20.8543 27.6132 20.8513 27.5949C20.8499 27.586 20.8492 27.5786 20.8489 27.5736C20.8487 27.571 20.8486 27.5692 20.8485 27.5681C20.8485 27.5675 20.8485 27.5672 20.8485 27.567C20.8485 27.5669 20.8485 27.5669 20.8485 27.5669C20.8485 27.567 20.8485 27.567 20.8485 27.567C20.8485 27.567 20.8485 27.567 20.8485 27.5671C20.8485 27.5671 20.8485 27.5671 20.8049 27.5671C20.7612 27.5671 20.7612 27.5671 20.7612 27.5672V27.5672C20.7612 27.5673 20.7612 27.5674 20.7612 27.5676C20.7612 27.5678 20.7612 27.5681 20.7612 27.5684C20.7612 27.5691 20.7612 27.57 20.7613 27.5711C20.7614 27.5733 20.7615 27.5763 20.7617 27.58C20.7623 27.5874 20.7632 27.5976 20.7652 27.6098C20.7691 27.634 20.7769 27.6669 20.7931 27.7004C20.8093 27.7339 20.8344 27.7689 20.8727 27.7954C20.9114 27.8221 20.961 27.8384 21.0231 27.8384V27.748ZM21.2414 27.5671C21.1977 27.5671 21.1977 27.5671 21.1977 27.5671C21.1977 27.567 21.1977 27.567 21.1977 27.567C21.1977 27.567 21.1977 27.567 21.1977 27.5669C21.1977 27.5669 21.1977 27.5669 21.1977 27.567C21.1977 27.5672 21.1977 27.5675 21.1977 27.5681C21.1976 27.5692 21.1976 27.571 21.1974 27.5736C21.197 27.5786 21.1963 27.586 21.1949 27.5949C21.192 27.6132 21.1862 27.6368 21.175 27.6599C21.164 27.6828 21.1481 27.7044 21.1251 27.7202C21.1023 27.7359 21.0701 27.748 21.0231 27.748V27.8384C21.0853 27.8384 21.1349 27.8221 21.1735 27.7954C21.2119 27.7689 21.2369 27.7339 21.2532 27.7004C21.2693 27.6669 21.2772 27.634 21.281 27.6098C21.283 27.5976 21.284 27.5874 21.2845 27.58C21.2848 27.5763 21.2849 27.5733 21.2849 27.5711C21.285 27.57 21.285 27.5691 21.285 27.5684C21.285 27.5681 21.285 27.5678 21.285 27.5676C21.285 27.5674 21.285 27.5673 21.285 27.5672V27.5672C21.285 27.5671 21.285 27.5671 21.2414 27.5671ZM21.5076 21.2354C21.6388 21.2221 21.8046 21.1876 21.9365 21.1569C22.0027 21.1415 22.0608 21.1269 22.1024 21.1161C22.1232 21.1108 22.1399 21.1063 22.1513 21.1033C22.1571 21.1017 22.1615 21.1005 22.1646 21.0997C22.1661 21.0993 22.1672 21.099 22.168 21.0988C22.1684 21.0987 22.1687 21.0986 22.169 21.0985C22.169 21.0985 22.1691 21.0985 22.1691 21.0985C22.1692 21.0985 22.1692 21.0985 22.1692 21.0984C22.1692 21.0984 22.1692 21.0984 22.158 21.0547C22.1469 21.011 22.1469 21.011 22.1469 21.011C22.1469 21.011 22.1469 21.011 22.1468 21.011V21.011C22.1467 21.0111 22.1467 21.0111 22.1466 21.0111C22.1464 21.0111 22.1461 21.0112 22.1457 21.0113C22.145 21.0115 22.1439 21.0118 22.1424 21.0122C22.1395 21.013 22.1352 21.0142 22.1295 21.0157C22.1182 21.0187 22.1018 21.0231 22.0813 21.0284C22.0402 21.039 21.9827 21.0534 21.9174 21.0687C21.7861 21.0992 21.6245 21.1326 21.499 21.1454L21.5076 21.2354ZM20.7612 21.2356C20.7627 21.2808 20.7627 21.2808 20.7627 21.2808H20.7628C20.7629 21.2808 20.763 21.2808 20.7631 21.2808C20.7632 21.2808 20.7636 21.2808 20.764 21.2808C20.7649 21.2808 20.7662 21.2807 20.7679 21.2806C20.7713 21.2805 20.7763 21.2803 20.7829 21.2801C20.7959 21.2796 20.8147 21.2789 20.8383 21.2779C20.8854 21.2759 20.9512 21.273 21.0261 21.2692C21.1756 21.2616 21.362 21.2502 21.5076 21.2354L21.499 21.1454C21.3557 21.16 21.171 21.1712 21.0217 21.1789C20.9473 21.1827 20.8817 21.1856 20.8348 21.1875C20.8113 21.1885 20.7926 21.1892 20.7796 21.1897C20.7732 21.1899 20.7682 21.1901 20.7649 21.1902C20.7631 21.1903 20.7619 21.1904 20.761 21.1904C20.7606 21.1904 20.7603 21.1904 20.7601 21.1904C20.76 21.1904 20.7599 21.1904 20.7598 21.1904H20.7597C20.7597 21.1904 20.7597 21.1904 20.7612 21.2356ZM20.7611 22.0973L20.8048 21.238L20.7177 21.2332L20.674 22.0925L20.7611 22.0973ZM21.6664 22.006C21.4319 22.0723 21.1965 22.0835 21.019 22.078C20.9304 22.0752 20.8566 22.0682 20.8051 22.062C20.7795 22.0589 20.7593 22.0559 20.7457 22.0538C20.7389 22.0527 20.7337 22.0519 20.7303 22.0513C20.7286 22.051 20.7273 22.0507 20.7265 22.0506C20.726 22.0505 20.7258 22.0505 20.7256 22.0504C20.7255 22.0504 20.7254 22.0504 20.7254 22.0504C20.7253 22.0504 20.7253 22.0504 20.7253 22.0504C20.7253 22.0504 20.7253 22.0504 20.7176 22.0949C20.7098 22.1394 20.7098 22.1394 20.7098 22.1394C20.7098 22.1394 20.7098 22.1394 20.7098 22.1394C20.7099 22.1394 20.7099 22.1394 20.7099 22.1394C20.71 22.1394 20.7101 22.1395 20.7102 22.1395C20.7106 22.1395 20.7109 22.1396 20.7115 22.1397C20.7125 22.1399 20.714 22.1401 20.7159 22.1405C20.7198 22.1411 20.7253 22.1421 20.7326 22.1432C20.7471 22.1455 20.7682 22.1486 20.795 22.1518C20.8486 22.1583 20.9249 22.1655 21.0163 22.1684C21.1989 22.1741 21.4437 22.1627 21.6894 22.0933L21.6664 22.006ZM22.5073 21.6879C22.481 21.6517 22.4811 21.6517 22.4811 21.6517C22.4811 21.6517 22.4811 21.6517 22.4811 21.6517V21.6517C22.4811 21.6517 22.4811 21.6517 22.481 21.6517C22.481 21.6518 22.4808 21.6519 22.4806 21.652C22.4803 21.6523 22.4797 21.6528 22.4788 21.6534C22.477 21.6547 22.4743 21.6568 22.4704 21.6595C22.4628 21.6649 22.4511 21.673 22.4351 21.6832C22.4033 21.7038 22.3545 21.7332 22.2879 21.7676C22.1546 21.8365 21.95 21.9259 21.6664 22.006L21.6894 22.0933C21.9786 22.0116 22.1886 21.9201 22.3269 21.8485C22.3959 21.8128 22.4471 21.782 22.4812 21.76C22.4983 21.749 22.5112 21.7402 22.5198 21.7341C22.5241 21.731 22.5274 21.7286 22.5297 21.7269C22.5308 21.726 22.5317 21.7254 22.5324 21.7249C22.5327 21.7246 22.5329 21.7244 22.5331 21.7243C22.5332 21.7242 22.5333 21.7242 22.5334 21.7241C22.5334 21.7241 22.5334 21.7241 22.5334 21.7241C22.5334 21.7241 22.5334 21.724 22.5334 21.724C22.5334 21.724 22.5335 21.724 22.5073 21.6879ZM22.1202 21.0772L22.4694 21.7103L22.5451 21.6654L22.1959 21.0323L22.1202 21.0772Z" fill="white"/>
</g>
<defs>
<clipPath id="clip0">
<rect width="33" height="13.8387" fill="white" transform="translate(4 14)"/>
</clipPath>
</defs>
</svg>
