<svg width="40" height="20" viewBox="0 0 40 20" fill="none" xmlns="http://www.w3.org/2000/svg">
<path fill-rule="evenodd" clip-rule="evenodd" d="M9.58899 3.83508H3.69858V5.06796H9.58899V6.16385H8.35612V11.9173H2.32872V2.73919H4.93146V1.78029L8.35612 0.273438V2.73919H9.58899V3.83508ZM12.6027 5.88988V8.90357H18.2191V5.88988H12.6027ZM12.6027 9.86248V12.8762H18.2191V9.86248H12.6027ZM19.452 8.90357V5.88988H25.0684V8.90357H19.452ZM19.452 9.86248V12.8762H25.0684V9.86248H19.452ZM26.3013 8.90357V5.88988H31.9178V8.90357H26.3013ZM26.3013 9.86248V12.8762H30.6849L31.9178 11.7803V9.86248H26.3013ZM11.2328 14.52L10.2739 13.1501H0.273926V14.52L3.83557 19.7255H36.7123V18.3556L36.0274 17.6707L39.726 12.1912H35.2054L31.5068 14.52H11.2328Z" fill="white"/>
<path d="M3.69836 3.83408V3.69709H3.56138V3.83408H3.69836ZM9.58877 3.83408V3.97106H9.72576V3.83408H9.58877ZM3.69836 5.06695H3.56138V5.20394H3.69836V5.06695ZM9.58877 5.06695H9.72576V4.92997H9.58877V5.06695ZM9.58877 6.16284V6.29983H9.72576V6.16284H9.58877ZM8.3559 6.16284V6.02586H8.21891V6.16284H8.3559ZM8.3559 11.9163V12.0533H8.49288V11.9163H8.3559ZM2.3285 11.9163H2.19151V12.0533H2.3285V11.9163ZM2.3285 2.73819V2.6012H2.19151V2.73819H2.3285ZM4.93124 2.73819V2.87517H5.06823V2.73819H4.93124ZM4.93124 1.77928L4.87606 1.6539L4.79425 1.6899V1.77928H4.93124ZM8.3559 0.272434H8.49288V0.0625L8.30072 0.147048L8.3559 0.272434ZM8.3559 2.73819H8.21891V2.87517H8.3559V2.73819ZM9.58877 2.73819H9.72576V2.6012H9.58877V2.73819ZM12.6025 8.90257H12.4655V9.03956H12.6025V8.90257ZM12.6025 5.88887V5.75189H12.4655V5.88887H12.6025ZM18.2189 8.90257V9.03956H18.3559V8.90257H18.2189ZM18.2189 5.88887H18.3559V5.75189H18.2189V5.88887ZM12.6025 12.8752H12.4655V13.0122H12.6025V12.8752ZM12.6025 9.86147V9.72449H12.4655V9.86147H12.6025ZM18.2189 12.8752V13.0122H18.3559V12.8752H18.2189ZM18.2189 9.86147H18.3559V9.72449H18.2189V9.86147ZM19.4518 5.88887V5.75189H19.3148V5.88887H19.4518ZM19.4518 8.90257H19.3148V9.03956H19.4518V8.90257ZM25.0682 5.88887H25.2052V5.75189H25.0682V5.88887ZM25.0682 8.90257V9.03956H25.2052V8.90257H25.0682ZM19.4518 12.8752H19.3148V13.0122H19.4518V12.8752ZM19.4518 9.86147V9.72449H19.3148V9.86147H19.4518ZM25.0682 12.8752V13.0122H25.2052V12.8752H25.0682ZM25.0682 9.86147H25.2052V9.72449H25.0682V9.86147ZM26.3011 5.88887V5.75189H26.1641V5.88887H26.3011ZM26.3011 8.90257H26.1641V9.03956H26.3011V8.90257ZM31.9175 5.88887H32.0545V5.75189H31.9175V5.88887ZM31.9175 8.90257V9.03956H32.0545V8.90257H31.9175ZM26.3011 12.8752H26.1641V13.0122H26.3011V12.8752ZM26.3011 9.86147V9.72449H26.1641V9.86147H26.3011ZM30.6847 12.8752V13.0122H30.7367L30.7756 12.9776L30.6847 12.8752ZM31.9175 11.7793L32.0085 11.8817L32.0545 11.8408V11.7793H31.9175ZM31.9175 9.86147H32.0545V9.72449H31.9175V9.86147ZM10.2737 13.1491L10.3859 13.0706L10.345 13.0122H10.2737V13.1491ZM11.2326 14.519L11.1204 14.5976L11.1613 14.656H11.2326V14.519ZM0.273705 13.1491V13.0122H0.136719V13.1491H0.273705ZM0.273705 14.519H0.136719V14.5614L0.160649 14.5963L0.273705 14.519ZM3.83535 19.7245L3.72228 19.8018L3.7631 19.8615H3.83535V19.7245ZM36.7121 19.7245V19.8615H36.8491V19.7245H36.7121ZM36.7121 18.3546H36.8491V18.2979L36.8091 18.2577L36.7121 18.3546ZM36.0271 17.6697L35.9137 17.5931L35.8504 17.6867L35.9301 17.7666L36.0271 17.6697ZM39.7258 12.1902L39.8392 12.2669L39.9836 12.0533H39.7258V12.1902ZM35.2052 12.1902V12.0533H35.1658L35.1323 12.0743L35.2052 12.1902ZM31.5066 14.519V14.656H31.546L31.5795 14.6349L31.5066 14.519ZM3.69836 3.97106H9.58877V3.69709H3.69836V3.97106ZM3.83535 5.06695V3.83408H3.56138V5.06695H3.83535ZM9.58877 4.92997H3.69836V5.20394H9.58877V4.92997ZM9.72576 6.16284V5.06695H9.45179V6.16284H9.72576ZM8.3559 6.29983H9.58877V6.02586H8.3559V6.29983ZM8.49288 11.9163V6.16284H8.21891V11.9163H8.49288ZM2.3285 12.0533H8.3559V11.7793H2.3285V12.0533ZM2.19151 2.73819V11.9163H2.46549V2.73819H2.19151ZM4.93124 2.6012H2.3285V2.87517H4.93124V2.6012ZM4.79425 1.77928V2.73819H5.06823V1.77928H4.79425ZM8.30072 0.147048L4.87606 1.6539L4.98642 1.90467L8.41108 0.397821L8.30072 0.147048ZM8.49288 2.73819V0.272434H8.21891V2.73819H8.49288ZM9.58877 2.6012H8.3559V2.87517H9.58877V2.6012ZM9.72576 3.83408V2.73819H9.45179V3.83408H9.72576ZM12.7395 8.90257V5.88887H12.4655V8.90257H12.7395ZM18.2189 8.76558H12.6025V9.03956H18.2189V8.76558ZM18.0819 5.88887V8.90257H18.3559V5.88887H18.0819ZM12.6025 6.02586H18.2189V5.75189H12.6025V6.02586ZM12.7395 12.8752V9.86147H12.4655V12.8752H12.7395ZM18.2189 12.7382H12.6025V13.0122H18.2189V12.7382ZM18.0819 9.86147V12.8752H18.3559V9.86147H18.0819ZM12.6025 9.99846H18.2189V9.72449H12.6025V9.99846ZM19.3148 5.88887V8.90257H19.5888V5.88887H19.3148ZM25.0682 5.75189H19.4518V6.02586H25.0682V5.75189ZM25.2052 8.90257V5.88887H24.9312V8.90257H25.2052ZM19.4518 9.03956H25.0682V8.76558H19.4518V9.03956ZM19.5888 12.8752V9.86147H19.3148V12.8752H19.5888ZM25.0682 12.7382H19.4518V13.0122H25.0682V12.7382ZM24.9312 9.86147V12.8752H25.2052V9.86147H24.9312ZM19.4518 9.99846H25.0682V9.72449H19.4518V9.99846ZM26.1641 5.88887V8.90257H26.4381V5.88887H26.1641ZM31.9175 5.75189H26.3011V6.02586H31.9175V5.75189ZM32.0545 8.90257V5.88887H31.7806V8.90257H32.0545ZM26.3011 9.03956H31.9175V8.76558H26.3011V9.03956ZM26.4381 12.8752V9.86147H26.1641V12.8752H26.4381ZM30.6847 12.7382H26.3011V13.0122H30.6847V12.7382ZM31.8266 11.6769L30.5937 12.7728L30.7756 12.9776L32.0085 11.8817L31.8266 11.6769ZM31.7806 9.86147V11.7793H32.0545V9.86147H31.7806ZM26.3011 9.99846H31.9175V9.72449H26.3011V9.99846ZM10.1615 13.2277L11.1204 14.5976L11.3448 14.4405L10.3859 13.0706L10.1615 13.2277ZM0.273705 13.2861H10.2737V13.0122H0.273705V13.2861ZM0.410691 14.519V13.1491H0.136719V14.519H0.410691ZM3.94842 19.6471L0.38676 14.4417L0.160649 14.5963L3.72228 19.8018L3.94842 19.6471ZM36.7121 19.5875H3.83535V19.8615H36.7121V19.5875ZM36.5751 18.3546V19.7245H36.8491V18.3546H36.5751ZM35.9301 17.7666L36.6151 18.4515L36.8091 18.2577L36.1241 17.5728L35.9301 17.7666ZM39.6123 12.1136L35.9137 17.5931L36.1406 17.7463L39.8392 12.2669L39.6123 12.1136ZM35.2052 12.3272H39.7258V12.0533H35.2052V12.3272ZM31.5795 14.6349L35.2781 12.3062L35.1323 12.0743L31.4337 14.4031L31.5795 14.6349ZM11.2326 14.656H31.5066V14.382H11.2326V14.656Z" fill="white"/>
</svg>
