<svg width="41" height="42" viewBox="0 0 41 42" fill="none" xmlns="http://www.w3.org/2000/svg">
<rect width="41" height="42" fill="black"/>
<path fill-rule="evenodd" clip-rule="evenodd" d="M19.628 9.29243H20.3909H20.4998H21.2626V10.0467H22.0255V8.21484H22.2434V10.0467H24.4229V11.6631H22.2434V13.8183H20.4998H20.3909H18.6473V11.6631H16.4678V10.0467H18.6473V8.21484H18.8652V10.0467H19.628V9.29243ZM12.7626 14.4648H16.2498V17.9131H12.7626V14.4648ZM12.2178 22.6545V23.5166L20.3909 20.8226V20.0683L12.2178 22.6545ZM20.1729 21.5769V31.0597C20.1729 31.0597 19.4101 31.0597 18.6473 30.8442C17.8844 30.6286 17.2306 29.9821 17.2306 29.9821C17.2306 29.9821 16.2498 30.5694 15.487 30.5209C14.7242 30.4724 14.0703 29.9821 14.0703 29.9821L12.2178 24.2709L20.1729 21.5769ZM16.2498 18.5597H12.7626V21.9002L16.2498 20.8226V18.5597ZM16.9037 18.5597H20.1729V19.5295L16.9037 20.6071V18.5597ZM20.1729 14.4648H16.9037V17.9131H20.1729V14.4648ZM20.7178 21.5769V31.0597C20.7178 31.0597 21.4806 31.0597 22.2434 30.8442C23.0062 30.6286 23.6601 29.9821 23.6601 29.9821C23.6601 29.9821 24.6409 30.5694 25.4037 30.5209C26.1665 30.4724 26.8203 29.9821 26.8203 29.9821L28.6729 24.2709L20.7178 21.5769ZM28.6729 23.5166V22.6545L20.4998 20.0683V20.8226L28.6729 23.5166ZM24.6409 14.4648H28.128V17.9131H24.6409V14.4648ZM28.128 18.5597H24.6409V20.8226L28.128 21.9002V18.5597ZM20.7178 18.5597H23.987V20.6071L20.7178 19.5295V18.5597ZM23.987 14.4648H20.7178V17.9131H23.987V14.4648ZM15.705 31.4907C14.5062 31.4513 13.9614 30.6286 13.9614 30.6286C13.9614 30.6286 14.3513 31.4661 15.705 31.5985C16.3113 31.6577 17.1216 31.4907 17.1216 31.4907C17.1216 31.4907 17.503 32.245 18.6473 32.5683C19.4101 32.7838 19.955 32.7838 20.3909 32.7838V32.3528C20.3909 32.3528 19.4101 32.3528 18.6473 32.1373C17.8844 31.9217 17.2306 31.1674 17.2306 31.1674C17.2306 31.1674 16.3243 31.511 15.705 31.4907ZM27.0383 30.6286C27.0383 30.6286 26.4934 31.4513 25.2947 31.4907C24.6754 31.511 23.7691 31.1674 23.7691 31.1674C23.7691 31.1674 23.1152 31.9217 22.3524 32.1373C21.5896 32.3528 20.6088 32.3528 20.6088 32.3528V32.7838C21.0447 32.7838 21.5896 32.7838 22.3524 32.5683C23.4966 32.245 23.878 31.4907 23.878 31.4907C23.878 31.4907 24.6883 31.6577 25.2947 31.5985C26.6484 31.4661 27.0383 30.6286 27.0383 30.6286Z" fill="white"/>
<path d="M19.6277 9.29472V9.18696H19.5187V9.29472H19.6277ZM21.2623 9.29472H21.3713V9.18696H21.2623V9.29472ZM21.2623 10.049H21.1534V10.1568H21.2623V10.049ZM22.0252 10.049V10.1568H22.1341V10.049H22.0252ZM22.0252 8.21713V8.10938H21.9162V8.21713H22.0252ZM22.2431 8.21713H22.3521V8.10938H22.2431V8.21713ZM22.2431 10.049H22.1341V10.1568H22.2431V10.049ZM24.4226 10.049H24.5316V9.94127H24.4226V10.049ZM24.4226 11.6654V11.7732H24.5316V11.6654H24.4226ZM22.2431 11.6654V11.5577H22.1341V11.6654H22.2431ZM22.2431 13.8206V13.9283H22.3521V13.8206H22.2431ZM18.6469 13.8206H18.538V13.9283H18.6469V13.8206ZM18.6469 11.6654H18.7559V11.5577H18.6469V11.6654ZM16.4675 11.6654H16.3585V11.7732H16.4675V11.6654ZM16.4675 10.049V9.94127H16.3585V10.049H16.4675ZM18.6469 10.049V10.1568H18.7559V10.049H18.6469ZM18.6469 8.21713V8.10938H18.538V8.21713H18.6469ZM18.8649 8.21713H18.9739V8.10938H18.8649V8.21713ZM18.8649 10.049H18.7559V10.1568H18.8649V10.049ZM19.6277 10.049V10.1568H19.7367V10.049H19.6277ZM16.2495 14.4671H16.3585V14.3594H16.2495V14.4671ZM12.7623 14.4671V14.3594H12.6534V14.4671H12.7623ZM16.2495 17.9154V18.0232H16.3585V17.9154H16.2495ZM12.7623 17.9154H12.6534V18.0232H12.7623V17.9154ZM12.2175 23.5189H12.1085V23.6684L12.2519 23.6211L12.2175 23.5189ZM12.2175 22.6568L12.1842 22.5542L12.1085 22.5781V22.6568H12.2175ZM20.3905 20.8249L20.425 20.9271L20.4995 20.9026V20.8249H20.3905ZM20.3905 20.0706H20.4995V19.923L20.3573 19.968L20.3905 20.0706ZM20.1726 31.062V31.1697H20.2816V31.062H20.1726ZM20.1726 21.5792H20.2816V21.4284L20.1373 21.4773L20.1726 21.5792ZM17.2303 29.9844L17.3073 29.9081L17.2469 29.8484L17.1738 29.8921L17.2303 29.9844ZM14.07 29.9844L13.9663 30.0173L13.9768 30.0497L14.0042 30.0702L14.07 29.9844ZM12.2175 24.2732L12.1822 24.1712L12.0811 24.2055L12.1137 24.3061L12.2175 24.2732ZM12.7623 18.562V18.4542H12.6534V18.562H12.7623ZM16.2495 18.562H16.3585V18.4542H16.2495V18.562ZM12.7623 21.9025H12.6534V22.0491L12.7948 22.0053L12.7623 21.9025ZM16.2495 20.8249L16.282 20.9277L16.3585 20.9041V20.8249H16.2495ZM20.1726 18.562H20.2816V18.4542H20.1726V18.562ZM16.9034 18.562V18.4542H16.7944V18.562H16.9034ZM20.1726 19.5318L20.207 19.634L20.2816 19.6095V19.5318H20.1726ZM16.9034 20.6094H16.7944V20.7589L16.9378 20.7116L16.9034 20.6094ZM16.9034 14.4671V14.3594H16.7944V14.4671H16.9034ZM20.1726 14.4671H20.2816V14.3594H20.1726V14.4671ZM16.9034 17.9154H16.7944V18.0232H16.9034V17.9154ZM20.1726 17.9154V18.0232H20.2816V17.9154H20.1726ZM20.7175 31.062H20.6085V31.1697H20.7175V31.062ZM20.7175 21.5792L20.7528 21.4773L20.6085 21.4284V21.5792H20.7175ZM23.6598 29.9844L23.7162 29.8921L23.6431 29.8484L23.5827 29.9081L23.6598 29.9844ZM26.82 29.9844L26.8859 30.0702L26.9133 30.0497L26.9238 30.0173L26.82 29.9844ZM28.6726 24.2732L28.7764 24.3061L28.809 24.2055L28.7079 24.1712L28.6726 24.2732ZM28.6726 22.6568H28.7816V22.5781L28.7058 22.5542L28.6726 22.6568ZM28.6726 23.5189L28.6381 23.6211L28.7816 23.6684V23.5189H28.6726ZM20.4995 20.0706L20.5327 19.968L20.3905 19.923V20.0706H20.4995ZM20.4995 20.8249H20.3905V20.9026L20.4651 20.9271L20.4995 20.8249ZM28.1277 14.4671H28.2367V14.3594H28.1277V14.4671ZM24.6405 14.4671V14.3594H24.5316V14.4671H24.6405ZM28.1277 17.9154V18.0232H28.2367V17.9154H28.1277ZM24.6405 17.9154H24.5316V18.0232H24.6405V17.9154ZM24.6405 18.562V18.4542H24.5316V18.562H24.6405ZM28.1277 18.562H28.2367V18.4542H28.1277V18.562ZM24.6405 20.8249H24.5316V20.9041L24.608 20.9277L24.6405 20.8249ZM28.1277 21.9025L28.0952 22.0053L28.2367 22.0491V21.9025H28.1277ZM23.9867 18.562H24.0957V18.4542H23.9867V18.562ZM20.7175 18.562V18.4542H20.6085V18.562H20.7175ZM23.9867 20.6094L23.9522 20.7116L24.0957 20.7589V20.6094H23.9867ZM20.7175 19.5318H20.6085V19.6095L20.683 19.634L20.7175 19.5318ZM20.7175 14.4671V14.3594H20.6085V14.4671H20.7175ZM23.9867 14.4671H24.0957V14.3594H23.9867V14.4671ZM20.7175 17.9154H20.6085V18.0232H20.7175V17.9154ZM23.9867 17.9154V18.0232H24.0957V17.9154H23.9867ZM13.9611 30.6309L14.0522 30.5719L13.8621 30.676L13.9611 30.6309ZM15.7046 31.493L15.701 31.6008L15.7046 31.493ZM15.7046 31.6008L15.6939 31.7081L15.7046 31.6008ZM17.1213 31.493L17.2188 31.4447L17.1812 31.3706L17.0991 31.3876L17.1213 31.493ZM20.3905 32.7861V32.8939H20.4995V32.7861H20.3905ZM20.3905 32.3551H20.4995V32.2473H20.3905V32.3551ZM17.2303 31.1697L17.313 31.0997L17.263 31.0419L17.1913 31.0691L17.2303 31.1697ZM25.2944 31.493L25.298 31.6008L25.2944 31.493ZM27.038 30.6309L27.137 30.676L26.9468 30.5719L27.038 30.6309ZM23.7687 31.1697L23.8078 31.0691L23.736 31.0419L23.686 31.0997L23.7687 31.1697ZM20.6085 32.3551V32.2473H20.4995V32.3551H20.6085ZM20.6085 32.7861H20.4995V32.8939H20.6085V32.7861ZM23.8777 31.493L23.8999 31.3876L23.8178 31.3706L23.7803 31.4447L23.8777 31.493ZM25.2944 31.6008L25.3051 31.7081L25.2944 31.6008ZM20.3905 9.18696H19.6277V9.40248H20.3905V9.18696ZM20.4995 9.18696H20.3905V9.40248H20.4995V9.18696ZM21.2623 9.18696H20.4995V9.40248H21.2623V9.18696ZM21.3713 10.049V9.29472H21.1534V10.049H21.3713ZM22.0252 9.94127H21.2623V10.1568H22.0252V9.94127ZM21.9162 8.21713V10.049H22.1341V8.21713H21.9162ZM22.2431 8.10938H22.0252V8.32489H22.2431V8.10938ZM22.3521 10.049V8.21713H22.1341V10.049H22.3521ZM24.4226 9.94127H22.2431V10.1568H24.4226V9.94127ZM24.5316 11.6654V10.049H24.3136V11.6654H24.5316ZM22.2431 11.7732H24.4226V11.5577H22.2431V11.7732ZM22.3521 13.8206V11.6654H22.1341V13.8206H22.3521ZM20.4995 13.9283H22.2431V13.7128H20.4995V13.9283ZM20.3905 13.9283H20.4995V13.7128H20.3905V13.9283ZM18.6469 13.9283H20.3905V13.7128H18.6469V13.9283ZM18.538 11.6654V13.8206H18.7559V11.6654H18.538ZM16.4675 11.7732H18.6469V11.5577H16.4675V11.7732ZM16.3585 10.049V11.6654H16.5764V10.049H16.3585ZM18.6469 9.94127H16.4675V10.1568H18.6469V9.94127ZM18.538 8.21713V10.049H18.7559V8.21713H18.538ZM18.8649 8.10938H18.6469V8.32489H18.8649V8.10938ZM18.9739 10.049V8.21713H18.7559V10.049H18.9739ZM19.6277 9.94127H18.8649V10.1568H19.6277V9.94127ZM19.5187 9.29472V10.049H19.7367V9.29472H19.5187ZM16.2495 14.3594H12.7623V14.5749H16.2495V14.3594ZM16.3585 17.9154V14.4671H16.1405V17.9154H16.3585ZM12.7623 18.0232H16.2495V17.8076H12.7623V18.0232ZM12.6534 14.4671V17.9154H12.8713V14.4671H12.6534ZM12.3264 23.5189V22.6568H12.1085V23.5189H12.3264ZM20.3561 20.7227L12.183 23.4166L12.2519 23.6211L20.425 20.9271L20.3561 20.7227ZM20.2816 20.0706V20.8249H20.4995V20.0706H20.2816ZM12.2507 22.7594L20.4238 20.1732L20.3573 19.968L12.1842 22.5542L12.2507 22.7594ZM20.2816 31.062V21.5792H20.0636V31.062H20.2816ZM18.617 30.9501C19.007 31.0602 19.3955 31.115 19.6855 31.1423C19.8308 31.1559 19.9519 31.1628 20.037 31.1663C20.0796 31.168 20.1132 31.1689 20.1363 31.1693C20.1478 31.1695 20.1567 31.1695 20.1628 31.1697C20.1659 31.1697 20.1683 31.1697 20.1699 31.1697C20.1707 31.1697 20.1713 31.1697 20.1718 31.1697C20.172 31.1697 20.1722 31.1697 20.1723 31.1697C20.1724 31.1697 20.1725 31.1697 20.1725 31.1697C20.1725 31.1697 20.1725 31.1697 20.1725 31.1697C20.1726 31.1697 20.1726 31.1697 20.1726 31.062C20.1726 30.9542 20.1726 30.9542 20.1726 30.9542C20.1726 30.9542 20.1726 30.9542 20.1726 30.9542C20.1725 30.9542 20.1724 30.9542 20.1723 30.9542C20.172 30.9542 20.1715 30.9542 20.1709 30.9542C20.1696 30.9542 20.1676 30.9542 20.1648 30.9542C20.1594 30.9542 20.1512 30.954 20.1404 30.9538C20.1188 30.9533 20.0868 30.9525 20.0459 30.951C19.9641 30.9475 19.847 30.9411 19.7062 30.9277C19.4241 30.9012 19.0497 30.8482 18.6769 30.7428L18.617 30.9501ZM17.2303 29.9844C17.1532 30.0607 17.1532 30.0607 17.1533 30.0607C17.1533 30.0607 17.1533 30.0607 17.1533 30.0607C17.1534 30.0607 17.1534 30.0607 17.1535 30.0609C17.1536 30.0609 17.1538 30.0611 17.154 30.0613C17.1543 30.0617 17.1549 30.0622 17.1556 30.063C17.1571 30.0643 17.1591 30.0663 17.1618 30.0689C17.1671 30.074 17.1749 30.0816 17.185 30.0908C17.2052 30.1098 17.2346 30.1367 17.2722 30.1695C17.3473 30.2352 17.4554 30.3249 17.5879 30.4214C17.8515 30.6135 18.2178 30.8372 18.617 30.9501L18.6769 30.7428C18.3133 30.6402 17.9712 30.4329 17.7172 30.2477C17.5909 30.1557 17.4878 30.0704 17.4165 30.0081C17.3809 29.9768 17.3533 29.9516 17.3347 29.9342C17.3254 29.9255 17.3184 29.9189 17.3138 29.9145C17.3115 29.9122 17.3098 29.9107 17.3087 29.9096C17.3082 29.9089 17.3078 29.9087 17.3076 29.9083C17.3074 29.9083 17.3074 29.9083 17.3073 29.9081C17.3073 29.9081 17.3073 29.9081 17.3073 29.9081C17.3073 29.9081 17.3073 29.9081 17.2303 29.9844ZM15.4797 30.6307C15.8872 30.6566 16.3424 30.5137 16.6866 30.3714C16.8606 30.2995 17.01 30.2262 17.1161 30.1706C17.1691 30.143 17.2114 30.1195 17.2406 30.1031C17.2552 30.0949 17.2666 30.0883 17.2744 30.0837C17.2783 30.0816 17.2813 30.0798 17.2833 30.0786C17.2844 30.0779 17.2852 30.0775 17.2857 30.077C17.286 30.077 17.2863 30.0768 17.2864 30.0768C17.2865 30.0766 17.2866 30.0766 17.2866 30.0766C17.2866 30.0766 17.2867 30.0766 17.2867 30.0766C17.2867 30.0766 17.2867 30.0766 17.2303 29.9844C17.1738 29.8921 17.1738 29.8921 17.1739 29.8921C17.1739 29.8921 17.1738 29.8921 17.1738 29.8921C17.1737 29.8923 17.1736 29.8923 17.1734 29.8926C17.173 29.8928 17.1724 29.893 17.1716 29.8936C17.1699 29.8945 17.1673 29.896 17.1638 29.8982C17.1568 29.902 17.1463 29.9081 17.1327 29.9158C17.1052 29.9314 17.065 29.9536 17.0142 29.9801C16.9125 30.0333 16.7691 30.1038 16.6025 30.1725C16.2656 30.3117 15.8491 30.4383 15.4937 30.4156L15.4797 30.6307ZM14.07 29.9844C14.0042 30.0701 14.0042 30.0704 14.0042 30.0704C14.0042 30.0704 14.0043 30.0704 14.0043 30.0704C14.0044 30.0704 14.0044 30.0704 14.0045 30.0704C14.0046 30.0706 14.0048 30.0708 14.005 30.0708C14.0054 30.0712 14.006 30.0717 14.0068 30.0721C14.0083 30.0734 14.0104 30.0749 14.0132 30.0768C14.0187 30.0807 14.0266 30.0865 14.0368 30.0936C14.0573 30.1079 14.0871 30.1281 14.125 30.1523C14.2009 30.2008 14.3099 30.2654 14.4434 30.3318C14.7092 30.4639 15.0781 30.6051 15.4797 30.6307L15.4937 30.4156C15.1324 30.3926 14.7931 30.2643 14.5412 30.1393C14.4159 30.077 14.3138 30.0163 14.2432 29.9712C14.2079 29.9486 14.1807 29.9303 14.1624 29.9173C14.1533 29.9111 14.1464 29.9061 14.1419 29.9029C14.1397 29.9014 14.1381 29.9001 14.1371 29.8995C14.1365 29.899 14.1362 29.8988 14.136 29.8986C14.1359 29.8986 14.1358 29.8984 14.1358 29.8984C14.1358 29.8984 14.1358 29.8984 14.1358 29.8984C14.1358 29.8984 14.1358 29.8984 14.1358 29.8984C14.1358 29.8986 14.1359 29.8986 14.07 29.9844ZM12.1137 24.3061L13.9663 30.0173L14.1738 29.9514L12.3212 24.2403L12.1137 24.3061ZM20.1373 21.4773L12.1822 24.1712L12.2528 24.3751L20.2079 21.6811L20.1373 21.4773ZM12.7623 18.6697H16.2495V18.4542H12.7623V18.6697ZM12.8713 21.9025V18.562H12.6534V21.9025H12.8713ZM16.217 20.722L12.7298 21.7996L12.7948 22.0053L16.282 20.9277L16.217 20.722ZM16.1405 18.562V20.8249H16.3585V18.562H16.1405ZM20.1726 18.4542H16.9034V18.6697H20.1726V18.4542ZM20.2816 19.5318V18.562H20.0636V19.5318H20.2816ZM16.9378 20.7116L20.207 19.634L20.1381 19.4296L16.8689 20.5072L16.9378 20.7116ZM16.7944 18.562V20.6094H17.0123V18.562H16.7944ZM16.9034 14.5749H20.1726V14.3594H16.9034V14.5749ZM17.0123 17.9154V14.4671H16.7944V17.9154H17.0123ZM20.1726 17.8076H16.9034V18.0232H20.1726V17.8076ZM20.0636 14.4671V17.9154H20.2816V14.4671H20.0636ZM20.8264 31.062V21.5792H20.6085V31.062H20.8264ZM22.2132 30.7428C21.8403 30.8482 21.466 30.9012 21.1839 30.9277C21.0431 30.9411 20.9259 30.9475 20.8441 30.951C20.8032 30.9525 20.7713 30.9533 20.7497 30.9538C20.7388 30.954 20.7306 30.9542 20.7252 30.9542C20.7225 30.9542 20.7205 30.9542 20.7192 30.9542C20.7185 30.9542 20.7181 30.9542 20.7178 30.9542C20.7176 30.9542 20.7175 30.9542 20.7175 30.9542C20.7175 30.9542 20.7174 30.9542 20.7174 30.9542C20.7174 30.9542 20.7175 30.9542 20.7175 31.062C20.7175 31.1697 20.7175 31.1697 20.7175 31.1697C20.7175 31.1697 20.7175 31.1697 20.7175 31.1697C20.7176 31.1697 20.7177 31.1697 20.7177 31.1697C20.7179 31.1697 20.718 31.1697 20.7183 31.1697C20.7187 31.1697 20.7194 31.1697 20.7202 31.1697C20.7218 31.1697 20.7242 31.1697 20.7272 31.1697C20.7333 31.1695 20.7423 31.1695 20.7538 31.1693C20.7769 31.1689 20.8105 31.168 20.853 31.1663C20.9381 31.1628 21.0593 31.1559 21.2046 31.1423C21.4946 31.115 21.8831 31.0602 22.273 30.9501L22.2132 30.7428ZM23.6598 29.9844C23.5827 29.9081 23.5827 29.9081 23.5827 29.9081C23.5827 29.9081 23.5827 29.9081 23.5827 29.9081C23.5827 29.9083 23.5826 29.9083 23.5825 29.9083C23.5823 29.9087 23.5819 29.9089 23.5813 29.9096C23.5802 29.9107 23.5785 29.9122 23.5762 29.9145C23.5716 29.9189 23.5646 29.9255 23.5553 29.9342C23.5368 29.9516 23.5091 29.9768 23.4735 30.0081C23.4022 30.0704 23.2992 30.1557 23.1728 30.2477C22.9188 30.4329 22.5767 30.6402 22.2132 30.7428L22.273 30.9501C22.6723 30.8372 23.0385 30.6135 23.3021 30.4214C23.4346 30.3249 23.5427 30.2352 23.6179 30.1695C23.6555 30.1367 23.6849 30.1098 23.705 30.0908C23.7151 30.0816 23.7229 30.074 23.7282 30.0689C23.7309 30.0663 23.733 30.0643 23.7344 30.063C23.7351 30.0622 23.7357 30.0617 23.7361 30.0613C23.7363 30.0611 23.7365 30.0609 23.7366 30.0609C23.7366 30.0607 23.7367 30.0607 23.7367 30.0607C23.7367 30.0607 23.7368 30.0607 23.7368 30.0607C23.7368 30.0607 23.7368 30.0607 23.6598 29.9844ZM25.3964 30.4156C25.041 30.4383 24.6244 30.3117 24.2875 30.1725C24.121 30.1038 23.9776 30.0333 23.8759 29.9801C23.8251 29.9536 23.7848 29.9314 23.7574 29.9158C23.7437 29.9081 23.7332 29.902 23.7262 29.8982C23.7228 29.896 23.7202 29.8945 23.7185 29.8936C23.7177 29.893 23.717 29.8928 23.7167 29.8926C23.7165 29.8923 23.7163 29.8923 23.7163 29.8921C23.7162 29.8921 23.7162 29.8921 23.7162 29.8921C23.7162 29.8921 23.7162 29.8921 23.6598 29.9844C23.6033 30.0766 23.6033 30.0766 23.6034 30.0766C23.6034 30.0766 23.6034 30.0766 23.6034 30.0766C23.6035 30.0766 23.6036 30.0766 23.6036 30.0768C23.6038 30.0768 23.604 30.077 23.6043 30.077C23.6049 30.0775 23.6057 30.0779 23.6067 30.0786C23.6088 30.0798 23.6118 30.0816 23.6157 30.0837C23.6235 30.0883 23.6348 30.0949 23.6494 30.1031C23.6786 30.1195 23.7209 30.143 23.774 30.1706C23.88 30.2262 24.0295 30.2995 24.2035 30.3714C24.5477 30.5137 25.0029 30.6566 25.4104 30.6307L25.3964 30.4156ZM26.82 29.9844C26.7542 29.8986 26.7542 29.8986 26.7542 29.8984C26.7542 29.8984 26.7542 29.8984 26.7542 29.8984C26.7542 29.8984 26.7542 29.8986 26.7541 29.8986C26.7539 29.8988 26.7535 29.899 26.753 29.8995C26.752 29.9001 26.7503 29.9014 26.7481 29.9029C26.7437 29.9061 26.7368 29.9111 26.7277 29.9173C26.7094 29.9303 26.6821 29.9486 26.6469 29.9712C26.5763 30.0163 26.4741 30.077 26.3488 30.1393C26.097 30.2643 25.7576 30.3926 25.3964 30.4156L25.4104 30.6307C25.8119 30.6051 26.1809 30.4639 26.4467 30.3318C26.5802 30.2654 26.6892 30.2008 26.765 30.1523C26.803 30.1281 26.8328 30.1079 26.8532 30.0936C26.8635 30.0865 26.8714 30.0807 26.8769 30.0768C26.8796 30.0749 26.8817 30.0734 26.8833 30.0721C26.884 30.0717 26.8846 30.0712 26.885 30.0708C26.8853 30.0708 26.8854 30.0706 26.8856 30.0704C26.8856 30.0704 26.8857 30.0704 26.8858 30.0704C26.8858 30.0704 26.8858 30.0704 26.8858 30.0704C26.8858 30.0704 26.8859 30.0701 26.82 29.9844ZM28.5688 24.2403L26.7163 29.9514L26.9238 30.0173L28.7764 24.3061L28.5688 24.2403ZM20.6822 21.6811L28.6373 24.3751L28.7079 24.1712L20.7528 21.4773L20.6822 21.6811ZM28.5636 22.6568V23.5189H28.7816V22.6568H28.5636ZM20.4663 20.1732L28.6394 22.7594L28.7058 22.5542L20.5327 19.968L20.4663 20.1732ZM20.6085 20.8249V20.0706H20.3905V20.8249H20.6085ZM28.707 23.4166L20.534 20.7227L20.4651 20.9271L28.6381 23.6211L28.707 23.4166ZM28.1277 14.3594H24.6405V14.5749H28.1277V14.3594ZM28.2367 17.9154V14.4671H28.0187V17.9154H28.2367ZM24.6405 18.0232H28.1277V17.8076H24.6405V18.0232ZM24.5316 14.4671V17.9154H24.7495V14.4671H24.5316ZM24.6405 18.6697H28.1277V18.4542H24.6405V18.6697ZM24.7495 20.8249V18.562H24.5316V20.8249H24.7495ZM28.1602 21.7996L24.673 20.722L24.608 20.9277L28.0952 22.0053L28.1602 21.7996ZM28.0187 18.562V21.9025H28.2367V18.562H28.0187ZM23.9867 18.4542H20.7175V18.6697H23.9867V18.4542ZM24.0957 20.6094V18.562H23.8777V20.6094H24.0957ZM20.683 19.634L23.9522 20.7116L24.0211 20.5072L20.7519 19.4296L20.683 19.634ZM20.6085 18.562V19.5318H20.8264V18.562H20.6085ZM20.7175 14.5749H23.9867V14.3594H20.7175V14.5749ZM20.8264 17.9154V14.4671H20.6085V17.9154H20.8264ZM23.9867 17.8076H20.7175V18.0232H23.9867V17.8076ZM23.8777 14.4671V17.9154H24.0957V14.4671H23.8777ZM13.9611 30.6309C13.8699 30.69 13.8699 30.69 13.87 30.69C13.87 30.69 13.87 30.6902 13.87 30.6902C13.8701 30.6902 13.8701 30.6904 13.8702 30.6904C13.8704 30.6906 13.8705 30.6908 13.8708 30.6913C13.8712 30.6919 13.8717 30.6928 13.8724 30.6936C13.8738 30.6958 13.8758 30.6986 13.8783 30.702C13.8832 30.7092 13.8904 30.7191 13.8998 30.7314C13.9187 30.7559 13.9465 30.7904 13.9834 30.8316C14.0573 30.9139 14.1683 31.0232 14.3182 31.1337C14.6187 31.3548 15.0755 31.5801 15.701 31.6008L15.7083 31.3852C15.135 31.3665 14.7201 31.1607 14.4484 30.9607C14.3123 30.8605 14.2121 30.7617 14.1464 30.6885C14.1136 30.652 14.0894 30.6219 14.0738 30.6014C14.0659 30.5913 14.0602 30.5833 14.0567 30.5783C14.0549 30.5758 14.0536 30.5738 14.0529 30.5727C14.0525 30.5723 14.0523 30.5719 14.0521 30.5719C14.0521 30.5717 14.0521 30.5717 14.0521 30.5717C14.0521 30.5717 14.0521 30.5717 14.0521 30.5717C14.0521 30.5719 14.0522 30.5719 14.0522 30.5719C14.0522 30.5719 14.0522 30.5719 13.9611 30.6309ZM15.7154 31.4934C15.0615 31.4296 14.6464 31.1964 14.3961 30.9844C14.2704 30.8779 14.1853 30.776 14.1321 30.7016C14.1055 30.6643 14.0869 30.6342 14.0752 30.6139C14.0694 30.6038 14.0653 30.5962 14.0628 30.5913C14.0616 30.5889 14.0607 30.5872 14.0603 30.5863C14.06 30.5859 14.0599 30.5857 14.0599 30.5855C14.0598 30.5855 14.0599 30.5855 14.0599 30.5855C14.0599 30.5857 14.0599 30.5857 14.0599 30.5857C14.06 30.5857 14.06 30.5857 14.06 30.5857C14.06 30.5859 14.06 30.5859 13.9611 30.6309C13.8621 30.676 13.8621 30.676 13.8621 30.6762C13.8621 30.6762 13.8622 30.6762 13.8622 30.6762C13.8622 30.6764 13.8623 30.6764 13.8624 30.6766C13.8625 30.6768 13.8626 30.6773 13.8628 30.6775C13.8632 30.6783 13.8636 30.6792 13.8642 30.6803C13.8653 30.6826 13.8668 30.6857 13.8687 30.6893C13.8726 30.6969 13.8782 30.7074 13.8857 30.7204C13.9007 30.7464 13.9231 30.7826 13.9542 30.8262C14.0164 30.913 14.1133 31.0286 14.2543 31.148C14.5374 31.3878 14.9941 31.6395 15.6939 31.7081L15.7154 31.4934ZM17.1213 31.493C17.0991 31.3876 17.0991 31.3876 17.0991 31.3876C17.0991 31.3876 17.0991 31.3876 17.099 31.3876C17.0989 31.3876 17.0988 31.3876 17.0987 31.3876C17.0983 31.3876 17.0978 31.3878 17.0971 31.3878C17.0957 31.3883 17.0935 31.3887 17.0906 31.3891C17.0848 31.3904 17.076 31.3921 17.0647 31.3943C17.0419 31.3986 17.0085 31.4048 16.9665 31.412C16.8824 31.4266 16.764 31.4454 16.6269 31.4622C16.351 31.4962 16.0064 31.5219 15.7154 31.4934L15.6939 31.7081C16.0093 31.7389 16.373 31.7107 16.6539 31.676C16.7951 31.6585 16.9172 31.6393 17.0039 31.6242C17.0474 31.6169 17.082 31.6105 17.1059 31.6059C17.1179 31.6036 17.1272 31.6018 17.1335 31.6005C17.1367 31.5999 17.1392 31.5995 17.1408 31.599C17.1417 31.5988 17.1423 31.5988 17.1428 31.5986C17.143 31.5986 17.1432 31.5986 17.1433 31.5986C17.1434 31.5986 17.1434 31.5986 17.1435 31.5986C17.1435 31.5986 17.1435 31.5986 17.1435 31.5986C17.1435 31.5984 17.1435 31.5984 17.1213 31.493ZM18.6769 32.4669C18.124 32.3107 17.758 32.0514 17.531 31.8333C17.4173 31.724 17.3382 31.6249 17.2881 31.5542C17.263 31.5186 17.2451 31.4904 17.2338 31.4714C17.2282 31.4617 17.2241 31.4546 17.2217 31.4501C17.2204 31.448 17.2196 31.4462 17.2191 31.4454C17.2189 31.4449 17.2187 31.4447 17.2187 31.4445C17.2186 31.4445 17.2186 31.4445 17.2186 31.4445C17.2187 31.4445 17.2187 31.4445 17.2187 31.4447C17.2187 31.4447 17.2187 31.4447 17.2187 31.4447C17.2188 31.4447 17.2188 31.4447 17.1213 31.493C17.0238 31.5413 17.0239 31.5413 17.0239 31.5413C17.0239 31.5413 17.0239 31.5413 17.0239 31.5415C17.024 31.5415 17.0241 31.5417 17.0241 31.5417C17.0242 31.5419 17.0244 31.5421 17.0245 31.5426C17.0248 31.5432 17.0253 31.5439 17.0258 31.5449C17.0268 31.5469 17.0282 31.5495 17.0301 31.5529C17.0337 31.5596 17.039 31.5691 17.046 31.5807C17.06 31.6042 17.0809 31.6374 17.1095 31.6777C17.1666 31.7583 17.2544 31.868 17.3791 31.9878C17.6289 32.2277 18.0257 32.5072 18.617 32.6742L18.6769 32.4669ZM20.3905 32.6783C19.9573 32.6783 19.4247 32.6783 18.6769 32.4669L18.617 32.6742C19.3948 32.8939 19.952 32.8939 20.3905 32.8939V32.6783ZM20.2816 32.3551V32.7861H20.4995V32.3551H20.2816ZM18.617 32.2432C19.0086 32.3538 19.4527 32.4083 19.7961 32.4355C19.9684 32.4492 20.1166 32.4559 20.2218 32.4594C20.2744 32.4611 20.3164 32.462 20.3453 32.4624C20.3597 32.4626 20.3709 32.4626 20.3786 32.4628C20.3824 32.4628 20.3853 32.4628 20.3873 32.4628C20.3883 32.4628 20.3891 32.4628 20.3896 32.4628C20.3899 32.4628 20.3901 32.4628 20.3903 32.4628C20.3903 32.4628 20.3904 32.4628 20.3905 32.4628C20.3905 32.4628 20.3905 32.4628 20.3905 32.4628C20.3905 32.4628 20.3905 32.4628 20.3905 32.3551C20.3905 32.2473 20.3905 32.2473 20.3906 32.2473C20.3905 32.2473 20.3905 32.2473 20.3905 32.2473C20.3905 32.2473 20.3905 32.2473 20.3905 32.2473C20.3904 32.2473 20.3902 32.2473 20.39 32.2473C20.3896 32.2473 20.389 32.2473 20.3881 32.2473C20.3863 32.2473 20.3837 32.2473 20.3801 32.2473C20.373 32.2473 20.3624 32.2471 20.3485 32.2469C20.3208 32.2464 20.2802 32.2456 20.229 32.2441C20.1264 32.2406 19.9817 32.2339 19.8135 32.2208C19.4758 32.1941 19.0481 32.1408 18.6769 32.0359L18.617 32.2432ZM17.2303 31.1697C17.1475 31.2398 17.1476 31.2398 17.1476 31.24C17.1476 31.24 17.1476 31.24 17.1476 31.24C17.1477 31.24 17.1477 31.24 17.1478 31.2402C17.1479 31.2402 17.1481 31.2404 17.1483 31.2406C17.1487 31.2411 17.1492 31.2417 17.1499 31.2426C17.1514 31.2443 17.1534 31.2464 17.1561 31.2495C17.1614 31.2555 17.1692 31.2641 17.1793 31.2751C17.1994 31.2969 17.2288 31.3281 17.2664 31.3663C17.3415 31.4423 17.4497 31.5458 17.5824 31.6561C17.8458 31.8755 18.2139 32.1292 18.617 32.2432L18.6769 32.0359C18.3172 31.9344 17.977 31.7031 17.7228 31.4915C17.5966 31.3863 17.4936 31.2878 17.4223 31.2156C17.3867 31.1796 17.359 31.1503 17.3405 31.1301C17.3312 31.1199 17.3242 31.1122 17.3195 31.107C17.3172 31.1044 17.3155 31.1025 17.3144 31.1012C17.3139 31.1005 17.3135 31.1001 17.3133 31.0999C17.3131 31.0997 17.3131 31.0997 17.313 31.0997C17.313 31.0995 17.313 31.0995 17.313 31.0995C17.313 31.0997 17.313 31.0997 17.2303 31.1697ZM15.701 31.6008C16.0281 31.6115 16.4228 31.5268 16.7288 31.4428C16.8833 31.4005 17.018 31.3574 17.1141 31.3251C17.1622 31.3089 17.2008 31.2954 17.2274 31.2857C17.2407 31.2809 17.2511 31.277 17.2581 31.2745C17.2617 31.2732 17.2644 31.2721 17.2663 31.2714C17.2672 31.2712 17.2679 31.2708 17.2684 31.2706C17.2687 31.2706 17.2689 31.2706 17.269 31.2704C17.2691 31.2704 17.2692 31.2704 17.2692 31.2704C17.2692 31.2704 17.2693 31.2704 17.2693 31.2704C17.2693 31.2704 17.2693 31.2704 17.2303 31.1697C17.1913 31.0691 17.1913 31.0691 17.1913 31.0691C17.1913 31.0691 17.1913 31.0691 17.1913 31.0691C17.1913 31.0691 17.1912 31.0691 17.1912 31.0691C17.1911 31.0691 17.191 31.0693 17.1908 31.0693C17.1904 31.0695 17.1899 31.0697 17.189 31.0699C17.1875 31.0706 17.185 31.0714 17.1818 31.0727C17.1753 31.0751 17.1655 31.0786 17.1528 31.0831C17.1275 31.0923 17.0904 31.1055 17.0438 31.121C16.9507 31.1525 16.8201 31.1941 16.6706 31.2352C16.3686 31.318 16.0005 31.3949 15.7083 31.3852L15.701 31.6008ZM25.298 31.6008C25.9235 31.5801 26.3804 31.3548 26.6808 31.1337C26.8307 31.0232 26.9417 30.9139 27.0156 30.8316C27.0526 30.7904 27.0803 30.7559 27.0992 30.7314C27.1086 30.7191 27.1158 30.7092 27.1208 30.702C27.1233 30.6986 27.1252 30.6958 27.1266 30.6936C27.1273 30.6928 27.1279 30.6919 27.1283 30.6913C27.1285 30.6908 27.1287 30.6906 27.1288 30.6904C27.1289 30.6904 27.1289 30.6902 27.129 30.6902C27.129 30.6902 27.1291 30.69 27.1291 30.69C27.1291 30.69 27.1291 30.69 27.038 30.6309C26.9468 30.5719 26.9468 30.5719 26.9469 30.5719C26.9469 30.5719 26.9469 30.5719 26.9469 30.5717C26.9469 30.5717 26.9469 30.5717 26.9469 30.5717C26.947 30.5717 26.9469 30.5717 26.9469 30.5719C26.9468 30.5719 26.9465 30.5723 26.9462 30.5727C26.9454 30.5738 26.9441 30.5758 26.9424 30.5783C26.9388 30.5833 26.9331 30.5913 26.9253 30.6014C26.9096 30.6219 26.8855 30.652 26.8526 30.6885C26.7869 30.7617 26.6867 30.8605 26.5506 30.9607C26.2789 31.1607 25.864 31.3665 25.2908 31.3852L25.298 31.6008ZM23.7687 31.1697C23.7297 31.2704 23.7298 31.2704 23.7298 31.2704C23.7298 31.2704 23.7298 31.2704 23.7298 31.2704C23.7299 31.2704 23.7299 31.2704 23.73 31.2704C23.7301 31.2706 23.7303 31.2706 23.7306 31.2706C23.7311 31.2708 23.7318 31.2712 23.7328 31.2714C23.7346 31.2721 23.7374 31.2732 23.7409 31.2745C23.748 31.277 23.7583 31.2809 23.7716 31.2857C23.7983 31.2954 23.8368 31.3089 23.8849 31.3251C23.981 31.3574 24.1157 31.4005 24.2702 31.4428C24.5762 31.5268 24.9709 31.6115 25.298 31.6008L25.2908 31.3852C24.9985 31.3949 24.6304 31.318 24.3285 31.2352C24.1789 31.1941 24.0483 31.1525 23.9552 31.121C23.9086 31.1055 23.8715 31.0923 23.8462 31.0831C23.8335 31.0786 23.8238 31.0751 23.8173 31.0727C23.814 31.0714 23.8116 31.0706 23.81 31.0699C23.8092 31.0697 23.8086 31.0695 23.8082 31.0693C23.808 31.0693 23.8079 31.0691 23.8078 31.0691C23.8078 31.0691 23.8078 31.0691 23.8078 31.0691C23.8077 31.0691 23.8077 31.0691 23.8077 31.0691C23.8078 31.0691 23.8078 31.0691 23.7687 31.1697ZM22.382 32.2432C22.7851 32.1292 23.1533 31.8755 23.4167 31.6561C23.5493 31.5458 23.6575 31.4423 23.7326 31.3663C23.7702 31.3281 23.7996 31.2969 23.8198 31.2751C23.8298 31.2641 23.8376 31.2555 23.8429 31.2495C23.8456 31.2464 23.8477 31.2443 23.8491 31.2426C23.8498 31.2417 23.8504 31.2411 23.8508 31.2406C23.851 31.2404 23.8511 31.2402 23.8512 31.2402C23.8513 31.24 23.8513 31.24 23.8514 31.24C23.8514 31.24 23.8514 31.24 23.8515 31.24C23.8515 31.2398 23.8515 31.2398 23.7687 31.1697C23.686 31.0997 23.686 31.0997 23.686 31.0995C23.686 31.0995 23.686 31.0995 23.686 31.0997C23.686 31.0997 23.6859 31.0997 23.6858 31.0999C23.6855 31.1001 23.6851 31.1005 23.6846 31.1012C23.6835 31.1025 23.6818 31.1044 23.6795 31.107C23.6749 31.1122 23.6679 31.1199 23.6586 31.1301C23.64 31.1503 23.6123 31.1796 23.5767 31.2156C23.5054 31.2878 23.4024 31.3863 23.2763 31.4915C23.0221 31.7031 22.6819 31.9344 22.3221 32.0359L22.382 32.2432ZM20.6085 32.3551C20.6085 32.4628 20.6085 32.4628 20.6085 32.4628C20.6085 32.4628 20.6086 32.4628 20.6086 32.4628C20.6086 32.4628 20.6087 32.4628 20.6088 32.4628C20.6089 32.4628 20.6091 32.4628 20.6094 32.4628C20.6099 32.4628 20.6107 32.4628 20.6117 32.4628C20.6137 32.4628 20.6167 32.4628 20.6205 32.4628C20.6281 32.4626 20.6393 32.4626 20.6538 32.4624C20.6827 32.462 20.7246 32.4611 20.7772 32.4594C20.8824 32.4559 21.0306 32.4492 21.2029 32.4355C21.5463 32.4083 21.9905 32.3538 22.382 32.2432L22.3221 32.0359C21.9509 32.1408 21.5232 32.1941 21.1855 32.2208C21.0173 32.2339 20.8726 32.2406 20.7701 32.2441C20.7188 32.2456 20.6782 32.2464 20.6505 32.2469C20.6366 32.2471 20.626 32.2473 20.6189 32.2473C20.6154 32.2473 20.6127 32.2473 20.6109 32.2473C20.6101 32.2473 20.6094 32.2473 20.609 32.2473C20.6088 32.2473 20.6087 32.2473 20.6086 32.2473C20.6085 32.2473 20.6085 32.2473 20.6085 32.2473C20.6085 32.2473 20.6085 32.2473 20.6085 32.2473C20.6085 32.2473 20.6085 32.2473 20.6085 32.3551ZM20.7175 32.7861V32.3551H20.4995V32.7861H20.7175ZM22.3221 32.4669C21.5743 32.6783 21.0418 32.6783 20.6085 32.6783V32.8939C21.047 32.8939 21.6042 32.8939 22.382 32.6742L22.3221 32.4669ZM23.8777 31.493C23.7803 31.4447 23.7803 31.4447 23.7803 31.4447C23.7803 31.4447 23.7803 31.4447 23.7803 31.4447C23.7804 31.4445 23.7804 31.4445 23.7804 31.4445C23.7804 31.4445 23.7804 31.4445 23.7804 31.4445C23.7803 31.4447 23.7802 31.4449 23.7799 31.4454C23.7794 31.4462 23.7786 31.448 23.7774 31.4501C23.7749 31.4546 23.7709 31.4617 23.7652 31.4714C23.7539 31.4904 23.7361 31.5186 23.711 31.5542C23.6608 31.6249 23.5817 31.724 23.4681 31.8333C23.241 32.0514 22.875 32.3107 22.3221 32.4669L22.382 32.6742C22.9734 32.5072 23.3702 32.2277 23.6199 31.9878C23.7446 31.868 23.8324 31.7583 23.8895 31.6777C23.9181 31.6374 23.939 31.6042 23.953 31.5807C23.96 31.5691 23.9653 31.5596 23.969 31.5529C23.9708 31.5495 23.9722 31.5469 23.9732 31.5449C23.9738 31.5439 23.9742 31.5432 23.9745 31.5426C23.9747 31.5421 23.9748 31.5419 23.9749 31.5417C23.975 31.5417 23.975 31.5415 23.9751 31.5415C23.9751 31.5413 23.9751 31.5413 23.9751 31.5413C23.9752 31.5413 23.9752 31.5413 23.8777 31.493ZM25.2837 31.4934C24.9926 31.5219 24.648 31.4962 24.3722 31.4622C24.2351 31.4454 24.1166 31.4266 24.0325 31.412C23.9905 31.4048 23.9571 31.3986 23.9344 31.3943C23.923 31.3921 23.9142 31.3904 23.9084 31.3891C23.9055 31.3887 23.9033 31.3883 23.9019 31.3878C23.9012 31.3878 23.9007 31.3876 23.9004 31.3876C23.9002 31.3876 23.9001 31.3876 23.9 31.3876C23.9 31.3876 23.8999 31.3876 23.8999 31.3876C23.8999 31.3876 23.8999 31.3876 23.8777 31.493C23.8555 31.5984 23.8555 31.5984 23.8555 31.5986C23.8555 31.5986 23.8555 31.5986 23.8556 31.5986C23.8556 31.5986 23.8557 31.5986 23.8557 31.5986C23.8559 31.5986 23.856 31.5986 23.8562 31.5986C23.8567 31.5988 23.8574 31.5988 23.8582 31.599C23.8599 31.5995 23.8623 31.5999 23.8655 31.6005C23.8718 31.6018 23.8811 31.6036 23.8931 31.6059C23.917 31.6105 23.9517 31.6169 23.9951 31.6242C24.0819 31.6393 24.2039 31.6585 24.3452 31.676C24.6261 31.7107 24.9898 31.7389 25.3051 31.7081L25.2837 31.4934ZM27.038 30.6309C26.939 30.5859 26.939 30.5859 26.939 30.5857C26.939 30.5857 26.9391 30.5857 26.9391 30.5857C26.9391 30.5857 26.9391 30.5857 26.9391 30.5855C26.9392 30.5855 26.9392 30.5855 26.9392 30.5855C26.9391 30.5857 26.939 30.5859 26.9388 30.5863C26.9383 30.5872 26.9375 30.5889 26.9362 30.5913C26.9338 30.5962 26.9297 30.6038 26.9238 30.6139C26.9122 30.6342 26.8936 30.6643 26.867 30.7016C26.8137 30.776 26.7286 30.8779 26.6029 30.9844C26.3526 31.1964 25.9375 31.4296 25.2837 31.4934L25.3051 31.7081C26.0049 31.6395 26.4617 31.3878 26.7447 31.148C26.8857 31.0286 26.9826 30.913 27.0448 30.8262C27.0759 30.7826 27.0984 30.7464 27.1133 30.7204C27.1208 30.7074 27.1264 30.6969 27.1303 30.6893C27.1323 30.6857 27.1338 30.6826 27.1349 30.6803C27.1354 30.6792 27.1359 30.6783 27.1362 30.6775C27.1364 30.6773 27.1365 30.6768 27.1367 30.6766C27.1367 30.6764 27.1368 30.6764 27.1368 30.6762C27.1369 30.6762 27.1369 30.6762 27.1369 30.6762C27.1369 30.676 27.137 30.676 27.038 30.6309Z" fill="white"/>
</svg>
