<svg width="22" height="22" viewBox="0 0 22 22" fill="none" xmlns="http://www.w3.org/2000/svg">
<path d="M17.875 1.375H6.35938C6.26484 1.375 6.1875 1.45234 6.1875 1.54688V2.75C6.1875 2.84453 6.26484 2.92188 6.35938 2.92188H17.0156V17.7031C17.0156 17.7977 17.093 17.875 17.1875 17.875H18.3906C18.4852 17.875 18.5625 17.7977 18.5625 17.7031V2.0625C18.5625 1.68223 18.2553 1.375 17.875 1.375ZM15.125 4.125H4.125C3.74473 4.125 3.4375 4.43223 3.4375 4.8125V16.2143C3.4375 16.3969 3.51055 16.5709 3.63945 16.6998L7.3627 20.423C7.40996 20.4703 7.46367 20.509 7.52168 20.5412V20.582H7.61191C7.68711 20.61 7.7666 20.625 7.84824 20.625H15.125C15.5053 20.625 15.8125 20.3178 15.8125 19.9375V4.8125C15.8125 4.43223 15.5053 4.125 15.125 4.125ZM7.51953 18.3949L5.66973 16.543H7.51953V18.3949ZM14.2656 19.0781H8.89453V16.0273C8.89453 15.5525 8.50996 15.168 8.03516 15.168H4.98438V5.67188H14.2656V19.0781Z" fill="#115B86"/>
</svg>
