<svg width="41" height="41" viewBox="0 0 41 41" fill="none" xmlns="http://www.w3.org/2000/svg">
<path d="M20.1133 2.73145C10.4492 2.73145 2.61328 10.5674 2.61328 20.2314C2.61328 29.8955 10.4492 37.7314 20.1133 37.7314C29.7773 37.7314 37.6133 29.8955 37.6133 20.2314C37.6133 10.5674 29.7773 2.73145 20.1133 2.73145ZM20.1133 34.7627C12.0898 34.7627 5.58203 28.2549 5.58203 20.2314C5.58203 12.208 12.0898 5.7002 20.1133 5.7002C28.1367 5.7002 34.6445 12.208 34.6445 20.2314C34.6445 28.2549 28.1367 34.7627 20.1133 34.7627Z" fill="#4F4F4F"/>
<path d="M18.2383 27.1064C18.2383 27.6037 18.4358 28.0806 18.7875 28.4323C19.1391 28.7839 19.616 28.9814 20.1133 28.9814C20.6106 28.9814 21.0875 28.7839 21.4391 28.4323C21.7907 28.0806 21.9883 27.6037 21.9883 27.1064C21.9883 26.6092 21.7907 26.1323 21.4391 25.7806C21.0875 25.429 20.6106 25.2314 20.1133 25.2314C19.616 25.2314 19.1391 25.429 18.7875 25.7806C18.4358 26.1323 18.2383 26.6092 18.2383 27.1064ZM19.1758 22.7314H21.0508C21.2227 22.7314 21.3633 22.5908 21.3633 22.4189V11.7939C21.3633 11.6221 21.2227 11.4814 21.0508 11.4814H19.1758C19.0039 11.4814 18.8633 11.6221 18.8633 11.7939V22.4189C18.8633 22.5908 19.0039 22.7314 19.1758 22.7314Z" fill="#4F4F4F"/>
</svg>
