<svg width="17" height="15" viewBox="0 0 17 15" fill="none" xmlns="http://www.w3.org/2000/svg">
<path fill-rule="evenodd" clip-rule="evenodd" d="M10.2252 5.85454L8.46036 0.602539L6.69549 5.85454H0.714844L5.55358 9.25454L3.75772 14.6025L8.46036 11.2975L13.163 14.6025L11.3671 9.25454L16.2059 5.85454H10.2252ZM2.20641 6.32454H7.04404L8.46036 2.10954L7.04404 6.32454H2.20641ZM6.12011 9.07454L4.67391 13.3795L6.12011 9.07454ZM14.7143 6.32454H9.87668H14.7143ZM5.03242 7.22454H7.6504L8.46036 4.81654L9.27032 7.22654H11.8894L9.77046 8.71654L10.5793 11.1255L8.46036 9.63454L6.34141 11.1245L7.15026 8.71454L5.03131 7.22454H5.03242Z" fill="#115B86"/>
</svg>
