<svg width="18" height="18" viewBox="0 0 18 18" fill="none" xmlns="http://www.w3.org/2000/svg">
<path fill-rule="evenodd" clip-rule="evenodd" d="M10.9938 6.815L9 0.25L7.00625 6.815H0.25L5.71625 11.065L3.6875 17.75L9 13.6187L14.3125 17.75L12.2837 11.065L17.75 6.815H10.9938ZM1.935 7.4025H7.4L9 2.13375L7.4 7.4025H1.935ZM6.35625 10.84L4.7225 16.2213L6.35625 10.84ZM16.065 7.4025H10.6H16.065ZM5.1275 8.5275H8.085L9 5.5175L9.915 8.53H12.8737L10.48 10.3925L11.3938 13.4037L9 11.54L6.60625 13.4025L7.52 10.39L5.12625 8.5275H5.1275Z" fill="#828282"/>
</svg>
