<svg width="18" height="19" viewBox="0 0 18 19" fill="none" xmlns="http://www.w3.org/2000/svg">
<path fill-rule="evenodd" clip-rule="evenodd" d="M10.9938 7.24078L9 0.675781L7.00625 7.24078H0.25L5.71625 11.4908L3.6875 18.1758L9 14.0445L14.3125 18.1758L12.2837 11.4908L17.75 7.24078H10.9938ZM1.935 7.82828H7.4L9 2.55953L7.4 7.82828H1.935ZM6.35625 11.2658L4.7225 16.647L6.35625 11.2658ZM16.065 7.82828H10.6H16.065ZM5.1275 8.95328H8.085L9 5.94328L9.915 8.95578H12.8737L10.48 10.8183L11.3938 13.8295L9 11.9658L6.60625 13.8283L7.52 10.8158L5.12625 8.95328H5.1275Z" fill="white"/>
</svg>
