<svg width="18" height="19" viewBox="0 0 18 19" fill="none" xmlns="http://www.w3.org/2000/svg">
<path d="M12.2854 6.625H11.461C11.2817 6.625 11.1112 6.71374 11.0057 6.86587L8.24241 10.814L6.99085 9.02468C6.88538 8.87436 6.71663 8.78381 6.53557 8.78381H5.71116C5.5969 8.78381 5.53011 8.91783 5.5969 9.01381L7.78714 12.1434C7.83888 12.2178 7.90709 12.2784 7.98611 12.3202C8.06513 12.362 8.15269 12.3839 8.24153 12.3839C8.33037 12.3839 8.41793 12.362 8.49695 12.3202C8.57598 12.2784 8.64418 12.2178 8.69593 12.1434L12.3979 6.85501C12.4664 6.75902 12.3996 6.625 12.2854 6.625Z" fill="#115B86"/>
<path d="M9 1.39062C4.65117 1.39062 1.125 5.02365 1.125 9.50426C1.125 13.9849 4.65117 17.6179 9 17.6179C13.3488 17.6179 16.875 13.9849 16.875 9.50426C16.875 5.02365 13.3488 1.39062 9 1.39062ZM9 16.2415C5.38945 16.2415 2.46094 13.2242 2.46094 9.50426C2.46094 5.7843 5.38945 2.76705 9 2.76705C12.6105 2.76705 15.5391 5.7843 15.5391 9.50426C15.5391 13.2242 12.6105 16.2415 9 16.2415Z" fill="#115B86"/>
</svg>
