<svg width="18" height="19" viewBox="0 0 18 19" fill="none" xmlns="http://www.w3.org/2000/svg">
<path d="M9 1.16016C4.65117 1.16016 1.125 4.79318 1.125 9.27379C1.125 13.7544 4.65117 17.3874 9 17.3874C13.3488 17.3874 16.875 13.7544 16.875 9.27379C16.875 4.79318 13.3488 1.16016 9 1.16016ZM12.1025 11.7676L11.5998 12.474C11.5889 12.4894 11.5751 12.5024 11.5593 12.5122C11.5434 12.5221 11.5259 12.5287 11.5076 12.5315C11.4893 12.5344 11.4706 12.5335 11.4527 12.5289C11.4347 12.5243 11.4178 12.5161 11.4029 12.5048L8.49551 10.3206C8.4774 10.3072 8.46267 10.2895 8.45258 10.269C8.44248 10.2485 8.43731 10.2259 8.4375 10.2029V5.21697C8.4375 5.13729 8.50078 5.07209 8.57812 5.07209H9.42363C9.50098 5.07209 9.56426 5.13729 9.56426 5.21697V9.6994L12.0709 11.5666C12.1342 11.6119 12.1482 11.7024 12.1025 11.7676Z" fill="#1AB8E6"/>
</svg>
